<svg xmlns="http://www.w3.org/2000/svg" xmlns:xlink="http://www.w3.org/1999/xlink" width="512" height="512" viewBox="0 0 512 512">
  <defs>
    <svg xmlns="http://www.w3.org/2000/svg" width="512" viewBox="0 0 512 512" height="512" id="a">
      <path d="M424.38 104.371c-6.255-19.331-22.916-32.14-42.923-33.293V47.611c0-2.8-1.174-5.472-3.236-7.366C350.775 15.045 305.086 0 256 0c-49.085 0-94.775 15.045-122.221 40.245a10.004 10.004 0 0 0-3.236 7.366v23.467c-20.007 1.153-36.667 13.962-42.923 33.293-6.561 20.276.359 41.445 17.631 53.931l91.039 65.809c10.715 7.746 17.991 19.29 20.512 32.055h-4.677c-5.523 0-10 4.478-10 10v191.957c0 29.708 24.17 53.878 53.879 53.878 29.708 0 53.878-24.17 53.878-53.878V266.165c0-5.522-4.478-10-10-10h-4.684c2.521-12.764 9.798-24.309 20.513-32.055l91.038-65.809c17.272-12.485 24.192-33.654 17.631-53.93zM150.543 52.145C174.733 31.953 213.732 20 256 20c42.269 0 81.268 11.953 105.457 32.145v57.696C337.269 130.032 298.27 141.985 256 141.985c-42.269 0-81.269-11.953-105.457-32.145zm139.339 224.02v38.336c-9.264-7.505-21.064-12.007-33.905-12.007-12.814 0-24.596 4.499-33.852 12.003v-38.333h67.757zm0 80.234c0 18.666-15.186 33.852-33.851 33.852h-.054c-18.666 0-33.852-15.186-33.852-33.906 0-18.665 15.186-33.851 33.906-33.851 18.665 0 33.851 15.186 33.851 33.905zM256.004 492c-18.681 0-33.879-15.197-33.879-33.878v-59.87c9.255 7.5 21.038 11.999 33.852 11.999h.054c12.813 0 24.596-4.499 33.851-12.003v59.875c0 18.68-15.197 33.877-33.878 33.877zm139.028-349.907-91.038 65.809c-15.916 11.506-26.356 29.062-29.071 48.264h-37.846c-2.715-19.202-13.155-36.758-29.071-48.264l-91.039-65.809c-12.269-8.869-13.375-22.12-10.319-31.564 2.851-8.811 10.578-18.184 23.894-19.402v23.248c0 2.8 1.174 5.472 3.236 7.365 27.444 25.201 73.134 40.246 122.221 40.246s94.776-15.045 122.221-40.246a10 10 0 0 0 3.236-7.365V91.127c13.315 1.218 21.043 10.592 23.894 19.402 3.057 9.444 1.951 22.696-10.318 31.564z" />
    </svg>
    <svg xmlns="http://www.w3.org/2000/svg" width="512" viewBox="0 0 512 512" height="512" id="b">
      <path d="M421.974 0H90.026c-5.523 0-10 4.478-10 10v43.121c0 5.522 4.477 10 10 10h8.515l31.758 301.128c3.128 29.665 25.237 52.942 53.506 58.269v58.033c0 17.341 14.108 31.449 31.45 31.449h81.49c17.341 0 31.45-14.108 31.45-31.449v-58.033c28.269-5.326 50.377-28.604 53.506-58.269l31.758-301.128h8.515c5.523 0 10-4.478 10-10V10c0-5.522-4.477-10-10-10zM100.026 20h311.947v23.121H100.026zm271.848 246.73H140.126L125.37 126.82h261.26zM244.581 492v-11.945c0-6.297 5.123-11.419 11.419-11.419s11.419 5.122 11.419 11.419V492zm63.614-11.449c0 6.313-5.136 11.449-11.45 11.449h-9.326v-11.945c0-17.324-14.095-31.419-31.419-31.419s-31.419 14.095-31.419 31.419V492h-9.326c-6.313 0-11.45-5.136-11.45-11.449v-56.883h104.39zm53.616-118.4c-2.496 23.668-22.265 41.517-45.984 41.517H196.173c-23.719 0-43.488-17.849-45.984-41.517l-7.954-75.421h227.53zm26.928-255.331H123.261l-4.609-43.699h274.695z" />
      <path d="M302.724 313.426h-93.447c-5.523 0-10 4.478-10 10s4.477 10 10 10h93.447c5.523 0 10-4.478 10-10s-4.477-10-10-10zM184.982 241.741a10 10 0 0 0 7.055 2.913h.045c.002 0 20.228-.091 25.803-.091 16.758 0 30.391-13.633 30.391-30.391 0-9.372-4.265-17.766-10.955-23.345a27.274 27.274 0 0 0 4.152-14.497c0-15.125-12.306-27.431-27.431-27.431h-22.005c-5.523 0-10 4.478-10 10v75.755c.001 2.66 1.06 5.21 2.945 7.087zm32.903-17.178c-2.928 0-9.883.024-15.848.049v-20.815l4.047-.015h11.8c5.729 0 10.391 4.661 10.391 10.391s-4.66 10.39-10.39 10.39zm-3.843-55.664c4.098 0 7.431 3.333 7.431 7.431s-3.333 7.432-7.431 7.432c-1.616 0-4.657.009-7.975.021h-4.03V168.9h12.005zM277.873 244.654h.045c.002 0 20.228-.091 25.803-.091 16.757 0 30.391-13.633 30.391-30.391 0-9.372-4.265-17.766-10.955-23.345a27.274 27.274 0 0 0 4.152-14.497c0-15.125-12.306-27.431-27.431-27.431h-22.005c-5.523 0-10 4.478-10 10v75.755a10.001 10.001 0 0 0 10 10zm25.848-20.091c-2.928 0-9.883.024-15.848.049v-20.815l4.047-.015h11.801c5.729 0 10.391 4.661 10.391 10.391s-4.662 10.39-10.391 10.39zm-3.844-55.664c4.098 0 7.431 3.333 7.431 7.431s-3.333 7.432-7.431 7.432c-1.616 0-4.657.009-7.975.021h-4.03V168.9h12.005z" />
    </svg>
    <svg xmlns="http://www.w3.org/2000/svg" width="512" viewBox="0 0 512 512" height="512" id="c">
      <path d="M412.54 78.487V29.181C412.54 13.173 399.517.15 383.508.15h-46.745c-16.008 0-29.031 13.023-29.031 29.031v49.306c-41.178 17.668-70.094 58.615-70.094 106.188v281.874c0 25.062 20.39 45.451 45.451 45.451h154.094c25.062 0 45.45-20.39 45.45-45.451V184.675c0-47.573-28.915-88.519-70.093-106.188zm-84.808-49.306c0-4.979 4.052-9.031 9.031-9.031h46.745c4.98 0 9.032 4.052 9.032 9.031v42.823a115.485 115.485 0 0 0-25.39-2.812h-14.03c-8.72 0-17.217.972-25.389 2.812V29.181zm25.388 60.01h14.03c52.649 0 95.482 42.834 95.482 95.483v17.262H257.638v-17.262c0-52.649 42.833-95.483 95.482-95.483zm109.513 310.448H257.638V221.937h204.995zM437.183 492H283.089c-14.034 0-25.451-11.417-25.451-25.451v-46.91h204.995v46.91c0 14.034-11.417 25.451-25.45 25.451z" />
      <path d="M392.11 345.126a11.45 11.45 0 0 0 10.781 7.612h.078c4.866-.033 9.188-3.151 10.778-7.826l20.864-62.806c1.741-5.241-1.097-10.901-6.338-12.643-5.235-1.74-10.9 1.096-12.643 6.338l-12.917 38.885-13.582-39.129c-1.811-5.216-7.506-7.979-12.727-6.168-5.218 1.812-7.979 7.509-6.168 12.727zM299.789 347.796c5.118 3.271 10.889 4.934 17.152 4.942h.043c5.378 0 10.432-1.173 15.022-3.484 11.313-5.698 17.545-15.106 17.545-26.492v-43.925c0-5.522-4.478-10-10-10s-10 4.478-10 10v43.925c0 2.639-.777 5.727-6.542 8.63-1.799.906-3.77 1.347-6.022 1.347h-.02c-2.428-.004-4.523-.591-6.41-1.796-4.523-2.891-5.408-5.171-5.408-8.135v-43.971c0-5.522-4.478-10-10-10s-10 4.478-10 10v43.971c.001 10.374 4.926 18.781 14.64 24.988zM128.37 53.003c-25.364 0-46 20.636-46 46s20.636 46 46 46 46-20.636 46-46-20.635-46-46-46zm0 72c-14.336 0-26-11.663-26-26s11.664-26 26-26 26 11.663 26 26-11.663 26-26 26zM128.37 31.214c5.523 0 10-4.478 10-10V10c0-5.522-4.477-10-10-10s-10 4.478-10 10v11.214c0 5.522 4.477 10 10 10zM128.37 166.792c-5.523 0-10 4.478-10 10v11.214c0 5.522 4.477 10 10 10s10-4.478 10-10v-11.214c0-5.522-4.477-10-10-10zM217.373 89.003h-11.214c-5.523 0-10 4.478-10 10s4.477 10 10 10h11.214c5.523 0 10-4.478 10-10s-4.477-10-10-10zM60.581 99.003c0-5.522-4.477-10-10-10H39.367c-5.523 0-10 4.478-10 10s4.477 10 10 10h11.214c5.523 0 10-4.478 10-10zM183.376 53.998a9.97 9.97 0 0 0 7.071-2.929l7.929-7.93c3.905-3.906 3.905-10.237 0-14.143-3.905-3.904-10.237-3.904-14.142 0l-7.929 7.93c-3.905 3.906-3.905 10.237 0 14.143a9.972 9.972 0 0 0 7.071 2.929zM66.294 146.938l-7.93 7.929c-3.905 3.905-3.906 10.236 0 14.142 1.953 1.953 4.512 2.93 7.071 2.93s5.118-.977 7.071-2.929l7.93-7.929c3.905-3.905 3.906-10.236 0-14.142-3.905-3.906-10.236-3.906-14.142-.001zM190.447 146.938c-3.905-3.904-10.237-3.904-14.142 0-3.905 3.906-3.905 10.237 0 14.143l7.929 7.929c1.953 1.952 4.512 2.929 7.071 2.929s5.119-.977 7.071-2.929c3.905-3.906 3.905-10.237 0-14.143zM66.294 51.069c1.953 1.952 4.512 2.929 7.071 2.929s5.119-.977 7.071-2.929c3.905-3.905 3.905-10.237 0-14.143l-7.93-7.93c-3.905-3.904-10.237-3.904-14.143 0-3.905 3.905-3.905 10.237 0 14.143z" />
    </svg>
    <svg xmlns="http://www.w3.org/2000/svg" width="512" viewBox="0 0 512 512" height="512" id="d">
      <path d="M511.682 156.876c-.293-42.553-17.315-82.41-47.93-112.229C434.196 15.857 395.128.001 353.743 0h-.006c-41.411 0-80.239 15.871-109.331 44.689-25.44 25.203-41.483 58.733-45.174 94.414-1.545 14.94-8.333 29.112-19.115 39.908l-1.026 1.029c-10.779 10.792-24.929 17.587-39.842 19.133-35.643 3.694-69.135 19.76-94.308 45.236-28.779 29.127-44.627 68-44.627 109.459.002 41.43 15.835 80.541 44.583 110.131 29.786 30.658 69.6 47.704 112.107 47.997.371.003.739.004 1.11.004 41.587 0 80.575-16.124 109.888-45.475 24.371-24.401 39.615-55.397 44.086-89.637 1.907-14.61 8.642-28.348 18.962-38.682l7.068-7.079c10.318-10.33 24.033-17.071 38.62-18.98 34.2-4.477 65.161-19.742 89.534-44.147 29.574-29.609 45.7-69.074 45.41-111.124zm-59.559 96.991c-21.229 21.255-48.193 34.551-77.979 38.45-18.938 2.479-36.757 11.242-50.176 24.678l-7.068 7.079c-13.416 13.434-22.168 31.271-24.643 50.225-3.896 29.832-17.175 56.837-38.404 78.094-25.533 25.565-59.498 39.608-95.741 39.607-.321 0-.647-.001-.969-.003-37.108-.256-71.877-15.148-97.9-41.935-51.774-53.289-51.808-139.239-.075-191.595 21.925-22.188 51.098-36.182 82.144-39.4 19.471-2.018 37.913-10.858 51.933-24.895l1.026-1.029c14.013-14.03 22.841-32.491 24.856-51.982 3.215-31.092 17.191-60.306 39.355-82.262 52.278-51.79 138.104-51.757 191.314.074 26.754 26.06 41.629 60.878 41.885 98.041.254 36.661-13.795 71.057-39.558 96.853z" />
      <path d="M155.898 253.445c-27.014 0-52.34 10.463-71.313 29.462-39.457 39.506-39.182 104.062.612 143.907 19.369 19.395 45.097 30.075 72.443 30.075 27.015 0 52.342-10.463 71.315-29.462 39.456-39.506 39.181-104.062-.613-143.906-19.368-19.394-45.097-30.076-72.444-30.076zm58.908 159.85c-15.196 15.215-35.498 23.595-57.165 23.595-21.999 0-42.701-8.597-58.293-24.208-32.011-32.052-32.285-83.929-.612-115.642 15.196-15.215 35.497-23.595 57.163-23.595 22 0 42.702 8.598 58.294 24.209 32.01 32.052 32.285 83.928.613 115.641zM354.181 54.911c-.002 0 .001 0 0 0-27.013 0-52.343 10.464-71.315 29.462-39.457 39.506-39.182 104.062.612 143.907 19.369 19.395 45.097 30.075 72.443 30.075 27.015 0 52.342-10.463 71.315-29.462 39.456-39.506 39.181-104.062-.613-143.906-19.369-19.394-45.097-30.076-72.442-30.076zm58.905 159.85c-15.196 15.215-35.498 23.595-57.165 23.595-21.999 0-42.701-8.597-58.293-24.208-32.011-32.052-32.285-83.929-.612-115.642 15.196-15.215 35.498-23.595 57.164-23.595 21.999 0 42.701 8.598 58.293 24.209 32.01 32.052 32.285 83.928.613 115.641z" />
      <path d="M189.13 365.971c-4.436 4.49-9.198 9.296-12.929 13.04l-50.303-50.365c-3.902-3.908-10.233-3.913-14.142-.009-3.908 3.902-3.912 10.234-.009 14.142l57.33 57.402a9.987 9.987 0 0 0 7.078 2.934 9.978 9.978 0 0 0 5.77-1.835c.882-.623 1.465-1.035 21.435-21.256 3.881-3.929 3.841-10.261-.089-14.142-3.927-3.881-10.26-3.843-14.141.089zM399.878 159.858l-31.381-2.003c6.838-12.168 5.344-27.601-4.647-37.604-5.679-5.687-13.352-8.818-21.605-8.818-8.618 0-17.079 3.522-23.213 9.663l-15.247 15.268c-.061.061-.12.122-.179.184-3.737 3.914-3.685 10.118.161 13.967l57.378 57.451a9.966 9.966 0 0 0 7.075 2.934 9.967 9.967 0 0 0 7.066-2.925c3.908-3.902 3.912-10.234.009-14.142l-16.539-16.56 39.848 2.544c.217.014.432.021.646.021 5.231 0 9.632-4.068 9.97-9.363.353-5.511-3.83-10.265-9.342-10.617zm-66.695-24.629c2.41-2.412 5.713-3.796 9.062-3.796 2.906 0 5.554 1.048 7.455 2.951 4.258 4.264 3.871 11.853-.845 16.574a2933.819 2933.819 0 0 0-8.077 8.144 2672.16 2672.16 0 0 1-7.892-7.846 5389.1 5389.1 0 0 0-7.871-7.848z" />
    </svg>
    <svg xmlns="http://www.w3.org/2000/svg" width="512" viewBox="0 0 512 512" height="512" id="e">
      <path d="M256 208.149c-58.938 0-106.887 56.128-106.887 125.119S197.062 458.386 256 458.386s106.887-56.128 106.887-125.119S314.938 208.149 256 208.149zm0 230.237c-47.91 0-86.887-47.156-86.887-105.119S208.09 228.149 256 228.149c47.909 0 86.887 47.156 86.887 105.119S303.909 438.386 256 438.386z" />
      <path d="M402.2 224.116c-19.83-32.429-47.024-57.79-78.919-73.686V99.64c0-5.523-4.478-10-10-10h-13.709V64.298h17.073c17.727 0 32.148-14.422 32.148-32.149S334.372 0 316.646 0H162.65a32.254 32.254 0 0 0-21.543 8.234l-26.126 23.39c-6.516 5.833-10.483 14.218-10.885 23.004-.397 8.675 2.585 16.893 8.396 23.141 6.077 6.533 14.692 10.28 23.634 10.28h.003c7.955 0 15.6-2.921 21.523-8.225l17.343-15.527h37.432V89.64h-13.709c-5.523 0-10 4.477-10 10v50.791c-31.895 15.896-59.088 41.257-78.919 73.686-21.426 35.038-32.751 76.077-32.751 118.682 0 33.137 6.691 64.854 19.888 94.269 12.625 28.143 31.118 53.215 53.479 72.505a10.003 10.003 0 0 0 6.532 2.428h198.107a10 10 0 0 0 6.532-2.428c22.36-19.291 40.853-44.362 53.479-72.505 13.196-29.415 19.888-61.132 19.888-94.269-.001-42.606-11.326-83.645-32.753-118.683zM171.173 44.298c-2.461 0-4.836.908-6.67 2.549l-20.191 18.077a12.247 12.247 0 0 1-8.184 3.125h-.001c-3.458 0-6.65-1.386-8.991-3.901-2.124-2.283-3.211-5.339-3.062-8.605.158-3.456 1.706-6.743 4.246-9.017l26.127-23.391A12.284 12.284 0 0 1 162.65 20h153.996c6.698 0 12.148 5.45 12.148 12.149s-5.45 12.149-12.148 12.149zm61.254 20h47.145V89.64h-47.145zM351.278 492H160.721c-40.513-36.424-63.673-90.578-63.673-149.202 0-78.311 41.531-147.767 105.805-176.949a10 10 0 0 0 5.866-9.105V109.64h94.563v47.104a9.999 9.999 0 0 0 5.866 9.105c64.273 29.182 105.805 98.638 105.805 176.949-.001 58.624-23.161 112.777-63.675 149.202z" />
      <path d="M270.809 282.686c-14.419 0-26.848 9.666-30.996 22.854-17.76 3.911-31.089 19.774-31.089 38.693 0 21.845 17.772 39.617 39.617 39.617s39.617-17.772 39.617-39.617c0-.5-.01-1-.028-1.499 9.334-5.828 15.348-16.213 15.348-27.581-.002-17.903-14.567-32.467-32.469-32.467zm3.444 44.456a9.999 9.999 0 0 0-6.926 12.13c.418 1.608.63 3.277.63 4.96 0 10.817-8.8 19.617-19.617 19.617s-19.617-8.8-19.617-19.617 8.8-19.617 19.624-19.617a10 10 0 0 0 9.997-9.765c.158-6.708 5.749-12.165 12.465-12.165 6.875 0 12.468 5.593 12.468 12.468-.001 5.538-3.712 10.468-9.024 11.989z" />
    </svg>
    <svg xmlns="http://www.w3.org/2000/svg" width="512" viewBox="0 0 512 512" height="512" id="f">
      <path d="M343.387 230.034h-10.946c3.241-5.949 5.084-12.585 5.106-18.965v-1.02c0-18.966-12.487-33.597-30.985-37.94 5.062-7.393 7.659-16.168 7.408-25.342-.628-22.952-20.094-41.625-43.393-41.625h-23.652c-7.467 0-14.153-4.24-17.449-11.065-11.243-23.284-32.129-39.828-57.302-45.389-10.711-2.366-21.579-2.616-32.302-.748a10.001 10.001 0 0 0-7.959 12.372c2.555 9.81 2.739 19.845.54 29.857l-.041.186c-1.913 8.567-9.813 14.786-18.787 14.786H82.81c-23.299 0-42.765 18.673-43.393 41.625-.251 9.174 2.346 17.949 7.408 25.342-18.499 4.344-30.985 18.975-30.985 37.941v1.057c.023 6.37 1.788 12.991 4.95 18.927H10c-5.523 0-10 4.477-10 10v151.914c0 40.444 32.904 73.348 73.348 73.348h206.691c40.444 0 73.348-32.904 73.348-73.348V240.034c0-5.523-4.477-10-10-10zM35.84 211.071v-1.021c0-13.309 11.416-19.266 22.729-19.266H82.13c5.523 0 10-4.477 10-10s-4.477-10-10-10c-6.171 0-11.946-2.441-16.26-6.875-4.337-4.457-6.631-10.351-6.46-16.596.335-12.226 10.832-22.172 23.4-22.172h30.815c18.261 0 34.371-12.797 38.306-30.426l.063-.286a84.547 84.547 0 0 0 1.405-27.72c4.828-.065 9.664.448 14.461 1.507 19.15 4.23 35.044 16.826 43.605 34.556 6.561 13.589 20.48 22.369 35.459 22.369h23.652c12.568 0 23.066 9.946 23.401 22.172.17 6.245-2.124 12.139-6.46 16.596-4.314 4.434-10.088 6.875-16.26 6.875-5.523 0-10 4.477-10 10s4.477 10 10 10h23.561c11.313 0 22.729 5.957 22.729 19.265v.988c-.032 9.232-8.032 18.998-15.564 18.998H51.401c-7.674-.001-15.527-9.589-15.561-18.964zM20 250.034h313.387v32.476H20zm68.191 195.262V355.61h177.004v89.687H88.191zm197.005-.247V345.61c0-5.523-4.477-10-10-10H78.191c-5.523 0-10 4.477-10 10v99.439C41.186 442.447 20 419.625 20 391.948V302.51h313.387v89.438c0 27.677-21.185 50.499-48.191 53.101zM438.652 110.958h-49.376c-5.523 0-10 4.477-10 10v334.338c0 5.523 4.477 10 10 10h49.376c40.444 0 73.348-32.904 73.348-73.348V184.306c0-40.444-32.904-73.348-73.348-73.348zM492 391.948c0 29.417-23.932 53.348-53.348 53.348h-39.376V130.958h39.376c29.416 0 53.348 23.932 53.348 53.348z" />
      <path d="M432.915 170.958c-5.523 0-10 4.477-10 10v214.338c0 5.523 4.477 10 10 10s10-4.477 10-10V180.958c0-5.523-4.477-10-10-10z" />
    </svg>
    <svg xmlns="http://www.w3.org/2000/svg" width="512" viewBox="0 0 512.001 512.001" height="512" id="g">
      <path d="m250.798 41.879 1.614.79c.101.049.174.085.193.277.019.193-.046.243-.136.312l-7.063 5.374c-4.395 3.344-5.248 9.617-1.903 14.013a9.985 9.985 0 0 0 7.966 3.946c2.11 0 4.238-.666 6.048-2.043l7.063-5.374c5.66-4.307 8.624-11.103 7.93-18.181-.694-7.077-4.923-13.167-11.306-16.289l-1.614-.79c-.101-.049-.174-.085-.193-.277-.019-.193.046-.243.135-.312l7.056-5.364c4.396-3.343 5.25-9.616 1.908-14.013s-9.617-5.251-14.013-1.907l-7.056 5.364c-5.662 4.306-8.628 11.102-7.935 18.181.693 7.078 4.921 13.17 11.306 16.293zM182.75 53.561l1.613.79c.101.049.174.085.193.277.019.194-.046.243-.135.312l-7.063 5.374c-4.395 3.344-5.248 9.617-1.903 14.013a9.985 9.985 0 0 0 7.966 3.946c2.11 0 4.238-.666 6.048-2.043l7.064-5.374c5.659-4.307 8.623-11.103 7.929-18.181-.694-7.077-4.922-13.167-11.307-16.289l-1.613-.79c-.101-.049-.174-.085-.193-.277-.019-.193.046-.243.135-.312l7.056-5.364c4.396-3.343 5.25-9.616 1.908-14.013-3.342-4.396-9.616-5.252-14.013-1.907l-7.056 5.364c-5.662 4.306-8.628 11.102-7.935 18.181s4.921 13.17 11.306 16.293zM318.847 53.561l1.613.79c.101.049.174.085.193.277.019.194-.046.243-.135.312l-7.063 5.374c-4.395 3.344-5.248 9.617-1.903 14.013a9.985 9.985 0 0 0 7.966 3.946c2.11 0 4.238-.666 6.048-2.043l7.064-5.374c5.659-4.307 8.623-11.103 7.929-18.181-.694-7.077-4.922-13.167-11.307-16.289l-1.613-.79c-.101-.049-.174-.085-.193-.277-.019-.193.046-.243.136-.312l7.055-5.364c4.396-3.343 5.25-9.616 1.907-14.013-3.343-4.396-9.618-5.252-14.013-1.907l-7.055 5.364c-5.662 4.306-8.628 11.102-7.935 18.181.692 7.079 4.92 13.17 11.306 16.293zM426.909 441.729h-25.933c28.813-32.967 44.962-75.398 44.962-119.647 0-32.403-8.647-64.226-25.006-92.025-12.35-20.987-28.837-39.321-48.305-53.854 22.56-11.25 38.092-34.565 38.092-61.44v-1.107c0-5.522-4.477-10-10-10H111.282c-5.523 0-10 4.478-10 10v1.107c0 26.875 15.533 50.19 38.092 61.44-19.468 14.533-35.955 32.868-48.305 53.854-16.359 27.8-25.006 59.622-25.006 92.025 0 44.249 16.149 86.68 44.962 119.647H85.092c-5.523 0-10 4.478-10 10v15.97c0 24.428 19.874 44.302 44.302 44.302h273.214c24.428 0 44.302-19.874 44.302-44.302v-15.97c-.001-5.522-4.478-10-10.001-10zM122.097 123.655h267.807c-4.189 22.57-24.026 39.714-47.792 39.714H169.889c-23.766 0-43.603-17.144-47.792-39.714zM86.062 322.082c0-56.517 29.987-109.419 78.435-138.713h183.007c48.447 29.294 78.435 82.196 78.435 138.713 0 45.554-19.238 88.948-52.91 119.647h-8.765V328.625c0-59.697-48.567-108.264-108.263-108.264s-108.263 48.566-108.263 108.264v113.104h-8.765C105.3 411.03 86.062 367.636 86.062 322.082zm150.89 19.973c0-10.994 10.939-24.202 19.017-32.147 8.101 8.021 19.081 21.309 19.081 32.147 0 10.504-8.545 19.049-19.049 19.049s-19.049-8.546-19.049-19.049zm-13.235 39.048h64.567v60.626h-64.567zm74.567-20h-8.204a38.81 38.81 0 0 0 4.969-19.049c0-26.282-29.427-50.702-32.783-53.4a10 10 0 0 0-12.482-.041c-3.36 2.667-32.833 26.82-32.833 53.441a38.82 38.82 0 0 0 4.969 19.049h-8.204c-5.523 0-10 4.478-10 10v70.626h-35.979V328.625c0-48.669 39.595-88.264 88.263-88.264s88.263 39.595 88.263 88.264v113.104h-35.979v-70.626c0-5.522-4.477-10-10-10zm118.625 106.596c0 13.4-10.902 24.302-24.302 24.302H119.393c-13.4 0-24.302-10.901-24.302-24.302v-5.97h321.817v5.97z" />
    </svg>
    <svg xmlns="http://www.w3.org/2000/svg" width="512" viewBox="0 0 512 512" height="512" id="h">
      <path d="M393.182 115.507V80.498c0-5.522-4.478-10-10-10h-1.434v-14.58c0-10.57-8.596-19.17-19.16-19.17-11.267 0-20.433-9.167-20.433-20.436V10c0-5.522-4.478-10-10-10h-14.944c-21.379 0-38.772 17.407-38.772 38.805v31.693h-1.434c-5.522 0-10 4.478-10 10v35.009c-28.788 8.128-49.946 34.635-49.946 65.99v212.116c-3.418-.015-6.48-1.974-8-5.119-7.721-15.991-22.064-27.353-39.354-31.173a57.01 57.01 0 0 0-22.191-.513 10.001 10.001 0 0 0-7.959 12.373c1.504 5.771 1.611 11.68.323 17.549a6.743 6.743 0 0 0-.031.137c-.872 3.909-4.503 6.746-8.633 6.746h-6.968c-16.92 0-31.057 13.584-31.514 30.28a31.234 31.234 0 0 0 2.619 13.446c-15.35 4.978-26.479 19.415-26.479 36.403 0 21.095 17.161 38.257 38.255 38.257h326.001c5.522 0 10-4.478 10-10V181.497c0-31.355-21.158-57.862-49.946-65.99zM287.005 90.498h86.177v22.443h-86.177zm11.433-51.693c0-10.369 8.421-18.805 18.772-18.805h5.111c1.843 20.302 18.753 36.316 39.426 36.739v13.759h-63.31V38.805zM107.127 492c-10.065 0-18.255-8.19-18.255-18.257s8.189-18.258 18.255-18.258h12.463a9.999 9.999 0 0 0 9.949-8.998 10 10 0 0 0-7.955-10.801c-5.282-1.075-9.009-5.805-8.86-11.246.164-5.97 5.332-10.827 11.521-10.827h6.968c13.417 0 25.257-9.416 28.157-22.412l.039-.171a58.027 58.027 0 0 0 1.288-14.913c1.567.145 3.133.389 4.692.733 11.268 2.489 20.619 9.902 25.659 20.339 4.816 9.978 15.042 16.424 26.049 16.424h6.863c6.189 0 11.357 4.857 11.521 10.827.148 5.441-3.578 10.171-8.86 11.246-5.032 1.023-8.47 5.692-7.955 10.801s4.814 8.998 9.949 8.998h12.463c10.065 0 18.255 8.19 18.255 18.258 0 10.066-8.189 18.257-18.255 18.257zm316.001 0H274.69a38.029 38.029 0 0 0 4.644-18.257c0-16.988-11.129-31.426-26.479-36.403a31.222 31.222 0 0 0 2.619-13.446c-.331-12.106-7.855-22.575-18.416-27.417v-214.98c0-26.773 21.78-48.556 48.552-48.556h88.966c26.771 0 48.552 21.782 48.552 48.556z" />
      <path d="M330.094 207.082c-17.961 0-34.524 10.387-46.638 29.247-11.232 17.489-17.418 40.543-17.418 64.917s6.186 47.429 17.418 64.918c12.113 18.86 28.677 29.247 46.638 29.247s34.523-10.387 46.637-29.247c11.232-17.489 17.418-40.544 17.418-64.918 0-24.373-6.186-47.428-17.418-64.917-12.114-18.86-28.676-29.247-46.637-29.247zm0 168.329c-23.881 0-44.056-33.964-44.056-74.165s20.175-74.164 44.056-74.164c23.88 0 44.055 33.963 44.055 74.164s-20.175 74.165-44.055 74.165zM358.21 429.748h-56.233c-5.522 0-10 4.478-10 10s4.478 10 10 10h56.233c5.522 0 10-4.478 10-10s-4.478-10-10-10z" />
    </svg>
    <svg xmlns="http://www.w3.org/2000/svg" width="512" viewBox="0 0 512 512" height="512" id="i">
      <path d="M251.167 172.215c-3.905-3.905-10.237-3.905-14.143 0l-31.467 31.467c-3.905 3.905-3.905 10.237 0 14.143 1.953 1.953 4.512 2.929 7.071 2.929s5.119-.976 7.071-2.929l31.467-31.467c3.906-3.905 3.906-10.237.001-14.143zM288.301 190.19l-50.927 50.927c-3.905 3.905-3.905 10.237 0 14.143 1.953 1.953 4.512 2.929 7.071 2.929s5.119-.976 7.071-2.929l50.927-50.927c3.905-3.905 3.905-10.237 0-14.143-3.905-3.905-10.237-3.905-14.142 0z" />
      <path d="M476.868 390.156h-19.201v-1.968c0-20.027-11.826-37.345-28.862-45.339 27.299-36.862 42.182-81.716 42.182-127.892 0-57.417-22.363-111.398-62.968-151.999C367.412 22.359 313.425 0 256 0S144.588 22.359 103.982 62.959c-40.605 40.6-62.968 94.581-62.968 151.999 0 46.176 14.883 91.03 42.182 127.892-17.036 7.994-28.862 25.311-28.862 45.339v1.968H35.132c-5.523 0-10 4.477-10 10v14.231c0 53.824 43.794 97.613 97.625 97.613h266.484c53.831 0 97.625-43.789 97.625-97.613v-14.231c.002-5.524-4.475-10.001-9.998-10.001zM256 20c107.516 0 194.986 87.458 194.986 194.958 0 44.933-15.537 88.483-43.846 123.181h-32.672c33.287-31.998 52.518-76.309 52.518-123.181C426.986 120.691 350.282 44 256 44S85.014 120.691 85.014 214.958c0 46.871 19.231 91.182 52.518 123.181H104.86c-28.309-34.698-43.846-78.248-43.846-123.181C61.014 107.458 148.484 20 256 20zM105.014 214.958C105.014 131.719 172.746 64 256 64s150.986 67.719 150.986 150.958c0 48.976-23.796 94.795-63.804 123.181H168.817c-40.007-28.386-63.803-74.206-63.803-123.181zm-30.681 173.23c0-16.569 13.483-30.05 30.056-30.05H407.61c16.573 0 30.056 13.48 30.056 30.05v1.968H294.418a10 10 0 0 0-9.999 9.833c-.165 9.847-8.318 17.858-18.174 17.858h-20.492c-9.856 0-18.009-8.011-18.174-17.858a10 10 0 0 0-9.999-9.833H74.333zm392.535 26.199c0 42.796-34.823 77.613-77.625 77.613H122.758c-42.803 0-77.625-34.817-77.625-77.613v-4.231h163.923c4.601 15.937 19.401 27.691 36.699 27.691h20.492c17.298 0 32.098-11.754 36.699-27.691h163.923v4.231z" />
    </svg>
    <svg xmlns="http://www.w3.org/2000/svg" width="512" viewBox="0 0 512 512" height="512" id="j">
      <path d="M429.934 0H82.066C64.735 0 50.635 14.101 50.635 31.432v97.06c0 17.332 14.101 31.432 31.432 31.432h37.031l85.693 97.343a10.002 10.002 0 0 0-6.027 9.179V456.55c0 30.575 24.875 55.45 55.45 55.45s55.449-24.875 55.449-55.45V266.446a9.98 9.98 0 0 0-3.698-7.764l86.939-98.758h37.03c17.331 0 31.432-14.101 31.432-31.432v-97.06C461.365 14.101 447.265 0 429.934 0zm-37.275 139.924H119.341V64.915h273.318zm-103.324 20L256 198.147l-33.335-38.223zm.327 116.522v43.235h-70.899v-43.235zm0 140.001h-70.899v-76.766h70.899zM254.213 492c-19.548 0-35.45-15.903-35.45-35.45v-20.103h70.899v20.103c0 19.547-15.902 35.45-35.449 35.45zm27.074-235.554h-50.575l-84.97-96.521h50.386l52.336 60.01a9.998 9.998 0 0 0 15.072 0l52.336-60.01h50.386zm160.078-127.954c0 6.304-5.128 11.432-11.432 11.432h-17.274V54.915c0-5.523-4.478-10-10-10H109.341c-5.522 0-10 4.477-10 10v85.009H82.066c-6.304 0-11.432-5.128-11.432-11.432v-97.06C70.635 25.128 75.763 20 82.066 20h347.867c6.304 0 11.432 5.128 11.432 11.432z" />
      <path d="M156.352 112.42h199.297c5.522 0 10-4.477 10-10s-4.478-10-10-10H156.352c-5.522 0-10 4.477-10 10s4.477 10 10 10z" />
    </svg>
    <svg xmlns="http://www.w3.org/2000/svg" width="512" viewBox="0 0 512 512" height="512" id="k">
      <path d="M439.962 70.433c-20.177-20.177-46.538-24.431-65.164-24.431h-.179c-43.21.062-91.17 22.388-128.293 59.724-29.607 29.777-49.799 66.355-56.856 102.996-7.33 38.057.455 70.905 21.921 92.494l.008.008.149.15c20.178 20.178 46.542 24.431 65.171 24.431h.172c43.211-.062 91.171-22.39 128.293-59.726 29.607-29.777 49.799-66.354 56.856-102.995 7.33-38.057-.455-70.905-21.953-92.527zm2.438 88.869c-6.221 32.301-24.956 66.08-51.4 92.676-33.457 33.65-76.126 53.772-114.139 53.827h-.143c-14.842 0-35.69-3.234-51.017-18.561l-.137-.138c-16.65-16.753-22.496-43.248-16.457-74.603 6.221-32.301 24.956-66.08 51.4-92.677 33.458-33.649 76.127-53.771 114.14-53.825h.149c14.84 0 35.684 3.234 51.035 18.586l.104.104c16.659 16.753 22.505 43.25 16.465 74.611z" />
      <path d="M472.739 38.156C447.919 13.194 414.051 0 374.796 0c-26.927 0-55.647 6.492-83.055 18.774-28.518 12.779-54.773 31.122-78.035 54.518-67.958 68.348-91.311 163.386-57.41 229.377l-25.938 26.059c-23.668 23.804-52.949 42.602-87.027 55.87-9.679 3.769-18.14 9.657-25.146 17.502-22.78 25.504-22.445 63.682.778 88.804 12.268 13.271 28.928 20.759 46.912 21.086.411.007.819.011 1.229.011 17.526 0 33.955-6.837 46.376-19.33 6.59-6.627 11.604-14.397 14.901-23.096 12.792-33.749 31.032-62.682 54.208-85.991l27.128-27.255c65.66 34.033 160.144 10.519 228.086-57.814 38.877-39.101 64.088-87.418 70.987-136.051 7.05-49.691-5.754-93.836-36.051-124.308zM423.62 284.412c-63.957 64.324-152.486 85.739-210.502 50.92a9.996 9.996 0 0 0-12.233 1.52l-32.474 32.626c-25.176 25.32-44.936 56.612-58.731 93.008-2.294 6.051-5.787 11.462-10.382 16.083-8.833 8.884-20.591 13.623-33.06 13.424-12.483-.227-24.057-5.436-32.589-14.665-16.191-17.515-16.427-44.128-.549-61.905 4.888-5.472 10.771-9.572 17.487-12.188 36.694-14.287 68.305-34.61 93.949-60.401l31.229-31.374a10 10 0 0 0 1.511-12.161c-34.687-58.405-13.401-147.523 50.612-211.904C269.846 45.194 324.765 20 374.796 20c33.813 0 62.777 11.154 83.76 32.258 54.008 54.318 38.336 158.462-34.936 232.154z" />
      <path d="M272.526 147.58c1.61 3.861 5.538 6.355 9.719 6.157 4.127-.196 7.746-3.011 9.024-6.926 1.292-3.956-.115-8.471-3.427-10.992-3.378-2.572-8.097-2.718-11.636-.379-3.945 2.606-5.461 7.792-3.68 12.14zM318.786 178.02c2.289-3.435 2.203-8.011-.185-11.371-2.454-3.453-6.988-4.979-11.035-3.749-3.928 1.194-6.816 4.813-7.07 8.917-.255 4.121 2.09 8.043 5.851 9.753 4.37 1.987 9.796.483 12.439-3.55zM348.426 197.359c-1.612-3.865-5.578-6.387-9.771-6.16-4.164.225-7.816 3.095-9.029 7.08-1.211 3.977.246 8.47 3.606 10.938 3.282 2.41 7.765 2.601 11.231.458 4.144-2.562 5.758-7.828 3.963-12.316zM377.136 226.069c-1.638-3.929-5.694-6.454-9.949-6.147-4.148.3-7.749 3.241-8.896 7.231-1.152 4.007.392 8.454 3.793 10.871 3.37 2.395 7.924 2.463 11.372.185 3.944-2.605 5.461-7.792 3.68-12.14zM313.396 131.18c1.622 3.896 5.662 6.438 9.887 6.147 4.117-.284 7.711-3.125 8.913-7.075 1.197-3.933-.208-8.335-3.48-10.833-3.375-2.576-8.103-2.718-11.639-.379-3.942 2.608-5.462 7.79-3.681 12.14zM361.786 163.74c2.312-3.469 2.206-8.159-.288-11.504-2.568-3.446-7.165-4.905-11.243-3.516-3.899 1.328-6.641 5.025-6.784 9.144-.147 4.232 2.525 8.19 6.477 9.676 4.309 1.62 9.27.016 11.838-3.8zM393.536 185.2c-1.612-3.873-5.572-6.388-9.771-6.161-4.153.225-7.819 3.105-9.029 7.08-1.214 3.987.252 8.468 3.616 10.938 3.282 2.41 7.764 2.601 11.231.458 4.103-2.535 5.81-7.863 3.953-12.315zM357.096 117.6c1.576 3.847 5.575 6.384 9.729 6.166 4.121-.216 7.757-3.004 9.021-6.931 1.281-3.977-.114-8.439-3.424-10.989-3.354-2.584-8.117-2.734-11.636-.386-3.915 2.612-5.503 7.791-3.69 12.14zM407.116 141.5c-1.611-3.932-5.716-6.454-9.949-6.148-4.213.304-7.843 3.306-8.941 7.382-1.063 3.945.462 8.279 3.777 10.675 3.351 2.422 7.979 2.535 11.423.231 3.908-2.615 5.503-7.79 3.69-12.14zM336.266 242.479c-1.582-3.857-5.574-6.38-9.736-6.158-4.065.217-7.647 2.916-8.964 6.767-1.36 3.978.004 8.541 3.335 11.112 3.27 2.523 7.89 2.78 11.402.588 4.095-2.556 5.825-7.837 3.963-12.309zM301.746 207.149c-3.58-2.382-8.396-2.178-11.771.481-3.23 2.545-4.558 6.984-3.299 10.89 1.281 3.973 5.016 6.798 9.191 6.943 4.235.147 8.188-2.528 9.679-6.48 1.612-4.272.04-9.317-3.8-11.834zM275.156 182.67c-.793-4.174-4.366-7.434-8.556-7.967-4.181-.532-8.35 1.733-10.214 5.504-1.825 3.691-1.13 8.266 1.681 11.266 2.857 3.048 7.436 3.972 11.26 2.321 4.274-1.844 6.745-6.56 5.829-11.124zM292.556 256.05c-1.638-3.928-5.681-6.457-9.942-6.148-4.153.301-7.748 3.225-8.894 7.225-1.149 4.01.386 8.444 3.784 10.874 3.35 2.396 7.944 2.469 11.372.188 3.925-2.611 5.493-7.793 3.68-12.139zM257.336 220.02c-3.632-2.417-8.515-2.178-11.894.583-3.091 2.526-4.388 6.811-3.226 10.628 1.234 4.052 5.006 6.947 9.241 7.094 4.176.146 8.09-2.451 9.619-6.326 1.699-4.303.153-9.428-3.74-11.979z" />
    </svg>
    <svg xmlns="http://www.w3.org/2000/svg" width="512" viewBox="0 0 511.996 511.996" height="512" id="l">
      <path d="M322.391 60.853H10c-5.523 0-10 4.478-10 10v370.289c0 5.522 4.477 10 10 10h312.391c5.523 0 10-4.478 10-10V70.853c0-5.522-4.477-10-10-10zm-10 370.289H20V80.853h292.391z" />
      <path d="M61.187 179.885a9.956 9.956 0 0 0 5.929-1.954l29.272-21.596a151.881 151.881 0 0 0 9.818 6.429l-17.145 25.26c-2.924 4.308-2.302 10.252 1.717 13.563a9.983 9.983 0 0 0 6.378 2.304 9.988 9.988 0 0 0 8.283-4.385l18.69-27.535a151.483 151.483 0 0 0 15.213 5.629l-11.247 31.337c-1.807 5.035.44 10.789 5.361 12.885 1.293.551 2.628.81 3.937.81 4.101 0 7.948-2.543 9.413-6.625l12.107-33.735c5.06.858 10.158 1.458 15.275 1.799v33.593c0 5.326 4.019 9.977 9.335 10.321 5.824.377 10.665-4.236 10.665-9.978V184.08a151.076 151.076 0 0 0 18.334-2.338l12.099 33.712a10.005 10.005 0 0 0 9.413 6.625c1.316 0 2.659-.262 3.957-.819 4.911-2.105 7.142-7.86 5.337-12.889l-11.373-31.687a151.154 151.154 0 0 0 14.952-5.877l15.674 26.786a9.996 9.996 0 0 0 14.035 3.363c4.569-2.927 5.781-9.099 3.041-13.782l-20.194-34.512a9.998 9.998 0 0 0-13.348-3.767c-46.023 24.623-102.269 19.611-143.343-12.759l-.21-.169c-3.561-2.846-8.604-2.846-12.198-.042l-.019.015-35.102 25.898c-4.444 3.279-5.389 9.54-2.11 13.983a9.987 9.987 0 0 0 8.054 4.064zM61.187 330.002a9.956 9.956 0 0 0 5.929-1.954l29.271-21.596a151.881 151.881 0 0 0 9.818 6.429l-17.145 25.26c-2.924 4.308-2.302 10.252 1.717 13.563a9.983 9.983 0 0 0 6.378 2.304 9.988 9.988 0 0 0 8.283-4.385l18.689-27.535a151.483 151.483 0 0 0 15.213 5.629l-11.247 31.336c-1.807 5.035.44 10.789 5.361 12.885 1.293.551 2.628.81 3.937.81 4.101 0 7.948-2.543 9.413-6.625l12.107-33.734a151.74 151.74 0 0 0 15.275 1.799v33.591c0 5.326 4.019 9.977 9.335 10.321 5.824.377 10.665-4.236 10.665-9.978v-33.925a151.076 151.076 0 0 0 18.334-2.338l12.099 33.711a10.005 10.005 0 0 0 9.413 6.625c1.316 0 2.659-.262 3.957-.819 4.911-2.105 7.142-7.86 5.337-12.889l-11.37-31.687a151.154 151.154 0 0 0 14.952-5.877l15.674 26.786a9.996 9.996 0 0 0 14.035 3.363c4.569-2.927 5.781-9.099 3.041-13.782l-20.194-34.512a9.999 9.999 0 0 0-13.348-3.767c-46.023 24.623-102.268 19.61-143.342-12.758l-.018-.015a9.941 9.941 0 0 0-12.418-.177l-35.095 25.893c-4.444 3.279-5.389 9.54-2.11 13.983a9.982 9.982 0 0 0 8.054 4.065zM502.354 89.564c-7.421-8.552-18.149-13.456-29.434-13.456h-70.513c-11.285 0-22.013 4.904-29.435 13.456a39.435 39.435 0 0 0-9.245 31.421l29.658 208.47 6.382 58.276c1.538 14.047 13.301 24.641 27.361 24.641h.536v13.516c0 5.522 4.477 10 10 10s10-4.478 10-10v-13.516h.536c14.06 0 25.823-10.594 27.361-24.641l6.382-58.276 29.658-208.47a39.438 39.438 0 0 0-9.247-31.421zM448.2 392.372h-21.072c-3.838 0-7.054-2.931-7.48-6.818l-5.185-47.348h46.402l-5.185 47.348c-.426 3.887-3.641 6.818-7.48 6.818zm43.6-274.203-28.458 200.037h-51.356l-28.458-200.037a19.446 19.446 0 0 1 4.55-15.496c3.673-4.233 8.762-6.564 14.329-6.564h70.513c5.567 0 10.656 2.331 14.329 6.564a19.446 19.446 0 0 1 4.551 15.496z" />
    </svg>
    <svg xmlns="http://www.w3.org/2000/svg" width="512" viewBox="0 0 512 512" height="512" id="m">
      <path d="M310.916 52.385a10 10 0 0 0-2.891-11.714C275.675 14.444 234.795 0 192.916 0c-41.878 0-82.758 14.444-115.108 40.67a10.001 10.001 0 0 0-2.891 11.714l67.19 156.44 18.639 273.161C161.894 498.816 176.025 512 192.917 512s31.022-13.184 32.171-30.015l18.638-273.161zM162.674 216.443h60.486l-3.201 46.909h-54.085zM289.482 51.61l-62.205 144.833h-68.722L96.35 51.61c57.087-42.028 136.043-42.029 193.132 0zm-84.347 429.014c-.436 6.379-5.802 11.376-12.218 11.376s-11.782-4.997-12.218-11.376l-13.46-197.272h51.356zM406.597 63.788c-9.131-9.195-21.302-14.259-34.271-14.259-12.968 0-25.139 5.064-34.27 14.26-27.102 27.294-37.644 67.283-27.511 104.359l10.923 39.972 18.686 273.865c1.148 16.831 15.28 30.015 32.172 30.015s31.022-13.184 32.171-30.015l18.686-273.865 10.923-39.972c10.134-37.077-.407-77.065-27.509-104.36zm-64.513 152.655h60.487l-3.201 46.909h-54.086zM352.249 77.88c5.349-5.386 12.479-8.352 20.078-8.352 7.601 0 14.73 2.966 20.079 8.352 22.074 22.232 30.661 54.8 22.409 84.995l-9.173 33.567h-66.63l-9.173-33.567c-8.251-30.194.336-62.763 22.41-84.995zm32.297 402.744c-.436 6.379-5.802 11.376-12.218 11.376s-11.783-4.997-12.219-11.376l-13.46-197.272h51.356z" />
      <path d="M184.634 152.788a10 10 0 0 0 16.566 0l19.208-28.398c3.094-4.575 1.894-10.792-2.681-13.886-4.572-3.094-10.791-1.895-13.886 2.681l-10.925 16.152-10.925-16.152c-3.094-4.575-9.312-5.774-13.886-2.681-4.574 3.094-5.774 9.311-2.681 13.886z" />
    </svg>
    <svg xmlns="http://www.w3.org/2000/svg" width="512" viewBox="0 0 512 512" height="512" id="n">
      <path d="M512 280.387v-67.154c0-5.522-4.478-10-10-10h-34.533c.229-1.916.344-3.855.344-5.812 0-26.628-21.661-48.292-48.287-48.292-1.488 0-2.965.066-4.429.198-1.176-22.336-19.716-40.148-42.337-40.148a42.293 42.293 0 0 0-23.392 7.029c-14.729-16.918-36.01-26.739-58.855-26.739-25.796 0-49.891 12.826-64.383 33.876a62.685 62.685 0 0 0-3.729-.112c-22.274 0-42.762 12.306-53.465 31.384a37.925 37.925 0 0 0-5.168-.352c-9.127 0-17.706 3.219-24.445 9.02a37.69 37.69 0 0 0-10.619-1.53c-20.718 0-37.574 16.856-37.574 37.575 0 1.308.068 2.611.203 3.904H10c-5.523 0-10 4.478-10 10v67.154c0 40.246 16.813 76.64 43.785 102.525-1.705 9.497-10.026 16.726-20.004 16.726-5.523 0-10 4.478-10 10s4.477 10 10 10c16.086 0 30.002-9.47 36.469-23.128 23.165 16.386 51.426 26.023 81.896 26.023h227.709c30.47 0 58.731-9.637 81.896-26.023 6.466 13.658 20.383 23.129 36.469 23.129 5.522 0 10-4.478 10-10s-4.478-10-10-10c-9.978 0-18.299-7.229-20.004-16.726C495.187 357.026 512 320.633 512 280.387zm-20-27.329h-67.79v-29.825H492zm-182.673 20h94.883v51.932h-94.883zm0-20v-29.825h94.883v29.825zm-198.199-53.73c0-9.691 7.884-17.575 17.574-17.575 2.973 0 5.792.714 8.38 2.121a10.002 10.002 0 0 0 12.718-2.706c3.36-4.388 8.45-6.904 13.966-6.904 2.362 0 4.651.458 6.803 1.362a10 10 0 0 0 13.232-5.693c6.017-15.971 21.529-26.701 38.599-26.701a41.8 41.8 0 0 1 7.133.612 9.986 9.986 0 0 0 10.409-4.913c10.321-18.174 29.698-29.463 50.569-29.463 19.886 0 38.183 10.008 48.943 26.772a9.998 9.998 0 0 0 7.793 4.578 9.997 9.997 0 0 0 8.302-3.575 22.351 22.351 0 0 1 17.209-8.065c12.35 0 22.396 10.049 22.396 22.401 0 2.67-.463 5.279-1.375 7.754a10.001 10.001 0 0 0 13.663 12.497 28.002 28.002 0 0 1 12.081-2.702c15.598 0 28.287 12.691 28.287 28.292a28.35 28.35 0 0 1-.594 5.812H111.565a17.652 17.652 0 0 1-.437-3.904zm178.199 23.904v29.825H20v-29.825zm-147.181 179.3C74.794 402.532 20 347.738 20 280.387v-7.329h269.327v61.932c0 5.522 4.478 10 10 10H414.21c5.522 0 10-4.478 10-10v-61.932H492v7.329c0 67.352-54.794 122.146-122.146 122.146H142.146z" />
    </svg>
    <svg xmlns="http://www.w3.org/2000/svg" width="512" viewBox="0 0 511.995 511.995" height="512" id="o">
      <path d="M447.881 16.502a9.999 9.999 0 0 0-13.42-5.714l-73.679 32.441L193.48 3.314c-35.882-8.561-73.071-.354-102.035 22.514-29.032 22.92-45.682 57.298-45.682 94.32s16.65 71.399 45.682 94.319c15.026 11.863 32.264 19.78 50.385 23.457v148.997c0 27.932 20.251 51.222 46.842 55.961v15.25c0 29.7 24.131 53.862 53.792 53.862s53.792-24.163 53.792-53.862v-70.386c0-12.049 9.78-21.851 21.8-21.851s21.8 9.802 21.8 21.851v40.664c0 5.523 4.477 10 10 10s10-4.477 10-10v-40.664c0-23.077-18.751-41.851-41.8-41.851s-41.8 18.774-41.8 41.851v70.386c0 18.672-15.159 33.862-33.792 33.862s-33.792-15.19-33.792-33.862v-15.25c26.591-4.739 46.842-28.029 46.842-55.961V315.74h20.475c12.49 0 22.652-10.162 22.652-22.652v-24.109c0-12.49-10.162-22.652-22.652-22.652h-20.475v-24.146l105.268-25.114 73.679 32.441a10 10 0 0 0 13.42-5.714c24.468-66.838 24.468-140.455 0-207.292zm-96.148 162.162-141.762 33.821V27.81l141.762 33.821zM93.069 188.936c4.284-1.13 7.443-5.031 7.443-9.67 0-5.523-4.477-10-10-10H78.549c-6.714-11.932-10.928-25.208-12.297-39.119h26.26c5.523 0 10-4.477 10-10s-4.477-10-10-10h-26.26c1.369-13.911 5.583-27.187 12.297-39.119h11.962c5.523 0 10-4.477 10-10 0-4.639-3.159-8.54-7.443-9.67a101.369 101.369 0 0 1 10.769-9.833c17.87-14.108 39.495-21.518 61.652-21.518 7.764 0 15.594.91 23.349 2.76l1.133.27v194.217l-1.133.27c-29.888 7.13-60.87.294-85.001-18.757a101.119 101.119 0 0 1-10.768-9.831zm142.445 197.985c0 20.314-16.527 36.842-36.842 36.842-20.314 0-36.842-16.527-36.842-36.842v-95.888h73.684zm40.474-120.594a2.655 2.655 0 0 1 2.652 2.652v24.109a2.655 2.655 0 0 1-2.652 2.652h-20.475v-29.414h20.475zm-40.474 4.707H161.83V240.24c1.205.037 2.411.055 3.619.055a120.76 120.76 0 0 0 28.032-3.314l42.033-10.028zm197.064-64.208-60.845-26.791V60.26l60.845-26.791c18.206 56.281 18.206 117.076 0 173.357z" />
    </svg>
    <svg xmlns="http://www.w3.org/2000/svg" width="512" viewBox="0 0 511.985 511.985" height="512" id="p">
      <path d="M509.944 344.568 466.67 141.159a10 10 0 0 0-9.781-7.919H90.274a48.283 48.283 0 0 0 9.244-28.472c0-26.728-21.695-48.472-48.362-48.472S2.794 78.041 2.794 104.768c0 23.906 17.356 43.824 40.102 47.763L2.041 344.568c-5.813 27.322.926 55.432 18.488 77.123 17.493 21.606 43.446 33.998 71.204 33.998h328.521c27.758 0 53.711-12.392 71.204-33.998 17.56-21.691 24.299-49.801 18.486-77.123zm-45.876-119.525H47.917l15.276-71.803h385.6zM22.794 104.768c0-15.7 12.723-28.472 28.362-28.472s28.362 12.772 28.362 28.472c0 15.699-12.723 28.472-28.362 28.472s-28.362-12.772-28.362-28.472zm87.016 330.921v-67.212c0-18.455 15.015-33.469 33.47-33.469h225.425c18.455 0 33.47 15.014 33.47 33.469v67.212zm366.102-26.583c-13.273 16.394-32.77 26.003-53.738 26.557v-67.186c0-29.483-23.986-53.469-53.47-53.469H143.28c-29.483 0-53.47 23.986-53.47 53.469v67.186c-20.968-.554-40.465-10.163-53.738-26.557-13.747-16.979-19.021-38.985-14.469-60.376l22.059-103.687h424.661l22.059 103.687c4.551 21.391-.723 43.397-14.47 60.376z" />
      <path d="M126.005 199.141H385.98c5.523 0 10-4.477 10-10s-4.477-10-10-10H126.005c-5.523 0-10 4.477-10 10s4.477 10 10 10zM345.073 360.549H166.912c-5.523 0-10 4.477-10 10s4.477 10 10 10H310.65v10.538c0 5.523 4.477 10 10 10s10-4.477 10-10v-10.538h14.423c5.523 0 10-4.477 10-10s-4.477-10-10-10z" />
    </svg>
    <svg xmlns="http://www.w3.org/2000/svg" width="512" viewBox="0 0 512.001 512.001" height="512" id="q">
      <path d="M67.77 197.481c1.578 3.85 5.558 6.382 9.719 6.165 4.13-.215 7.745-3.005 9.024-6.93 1.287-3.951-.117-8.468-3.427-10.986-3.387-2.577-8.089-2.724-11.636-.379-3.924 2.594-5.485 7.797-3.68 12.13z" />
      <path d="M511.986 297.366c-.009-1.489.005-56.087.014-84.749v-.015c0-.685-.005-1.371-.014-2.058-.521-37.723-15.438-73.32-42.004-100.233-26.595-26.943-61.817-42.102-99.178-42.683-22.928-.36-44.902 4.593-65.325 14.713-30.982 15.354-67.977 15.353-98.958 0-20.423-10.12-42.403-15.069-65.325-14.713-37.361.582-72.583 15.74-99.178 42.683C15.453 137.224.536 172.821.014 210.544c-.009.692-.014 1.383-.014 2.073.009 28.67.023 83.279.015 84.7-.545 39.439 14.316 76.532 41.845 104.444 27.112 27.49 63.192 42.629 101.593 42.629 22.002 0 43.118-4.905 62.761-14.58 31.174-15.354 68.397-15.354 99.571 0 19.643 9.674 40.759 14.58 62.761 14.58 38.401 0 74.481-15.139 101.593-42.629 27.531-27.912 42.392-65.004 41.847-104.395zM20.012 210.821c.925-66.901 55.427-122.166 121.495-123.195 19.696-.306 38.593 3.945 56.134 12.637 36.542 18.106 80.175 18.107 116.718 0 17.542-8.692 36.434-12.937 56.134-12.637 66.068 1.029 120.57 56.294 121.495 123.195.47 34.045-12.346 66.052-36.087 90.124-23.324 23.649-54.347 36.673-87.354 36.673-18.912 0-37.054-4.213-53.924-12.522-18.354-9.039-38.488-13.559-58.623-13.559s-40.269 4.52-58.623 13.559c-16.87 8.309-35.013 12.522-53.924 12.522-33.006 0-64.029-13.024-87.354-36.673C32.836 277.358 20.063 246.153 20 212.876v-.253c0-.6.004-1.201.012-1.802zM455.9 387.718c-23.324 23.649-54.347 36.673-87.354 36.673-18.912 0-37.054-4.213-53.924-12.522-36.708-18.078-80.537-18.079-117.245 0-16.87 8.309-35.013 12.521-53.924 12.521-33.007 0-64.029-13.024-87.354-36.673-23.742-24.072-36.558-56.079-36.087-90.126.002-.184.004-2.282.004-10.962 6.013 10.198 13.321 19.719 21.843 28.36 27.112 27.489 63.192 42.628 101.593 42.628 22.002 0 43.118-4.905 62.761-14.58 31.174-15.354 68.397-15.354 99.571 0 19.643 9.675 40.759 14.58 62.761 14.58 38.401 0 74.481-15.139 101.593-42.628a145.943 145.943 0 0 0 21.843-28.361c0 6.515.001 10.74.004 10.965.473 34.046-12.343 66.053-36.085 90.125z" />
      <path d="M407.08 277.51c1.602 3.846 5.557 6.373 9.729 6.156 4.119-.215 7.762-2.994 9.021-6.928 1.268-3.963-.099-8.458-3.424-10.988-3.38-2.573-8.096-2.72-11.636-.379-3.978 2.629-5.416 7.758-3.69 12.139zM117.55 135.801c1.577 3.848 5.573 6.384 9.729 6.166 4.12-.216 7.757-3.004 9.021-6.93 1.28-3.977-.114-8.439-3.424-10.989-3.348-2.579-8.123-2.729-11.636-.386-3.917 2.61-5.502 7.789-3.69 12.139zM366.49 234.611c1.582 3.796 5.424 6.308 9.546 6.175 4.126-.133 7.82-2.884 9.154-6.784 1.332-3.895.046-8.33-3.126-10.94-3.361-2.765-8.273-3.009-11.894-.591-3.918 2.615-5.492 7.79-3.68 12.14zM350.91 287.461c1.577 3.848 5.574 6.382 9.729 6.165 4.121-.215 7.757-3.004 9.021-6.93 1.28-3.977-.114-8.439-3.424-10.989-3.353-2.583-8.118-2.733-11.637-.386-3.915 2.611-5.501 7.791-3.689 12.14z" />
    </svg>
  </defs>
  <g transform="rotate(30 -177.547 441.818) scale(.24414)" data-name="048-face roller.svg">
    <path fill="transparent" d="M0 0h512v512H0z" />
    <use xlink:href="#a" />
  </g>
  <g transform="rotate(-69 212.797 135.268) scale(.24414)" data-name="047-bb cream.svg">
    <path fill="transparent" d="M0 0h512v512H0z" />
    <use xlink:href="#b" />
  </g>
  <g transform="rotate(-23 403.698 -463.122) scale(.24414)" data-name="043-sunscreen.svg">
    <path fill="transparent" d="M0 0h512v512H0z" />
    <use xlink:href="#c" />
  </g>
  <g transform="rotate(30 -192.423 639.804) scale(.24414)" data-name="029-contact lens.svg">
    <path fill="transparent" d="M0 0h512v512H0z" />
    <use xlink:href="#d" />
  </g>
  <g transform="rotate(5.999 -2820.99 1682.044) scale(.24414)" data-name="013-soap.svg">
    <path fill="transparent" d="M0 0h512v512H0z" />
    <use xlink:href="#e" />
  </g>
  <g transform="rotate(-6.999 2464.297 -24.508) scale(.24414)" data-name="016-cream.svg">
    <path fill="transparent" d="M0 0h512v512H0z" />
    <use xlink:href="#f" />
  </g>
  <g data-name="037-aromatherapy.svg">
    <g transform="rotate(2.997 -7875.802 9546.568) scale(.24414)">
      <path fill="transparent" d="M0 0h512v512H0z" />
      <use xlink:href="#g" />
    </g>
    <g transform="rotate(2.997 1900.444 9291.046) scale(.24414)">
      <path fill="transparent" d="M0 0h512v512H0z" />
      <use xlink:href="#g" />
    </g>
    <g transform="rotate(2.997 -8131.323 -229.678) scale(.24414)">
      <path fill="transparent" d="M0 0h512v512H0z" />
      <use xlink:href="#g" />
    </g>
    <g transform="rotate(2.997 1644.922 -485.2) scale(.24414)">
      <path fill="transparent" d="M0 0h512v512H0z" />
      <use xlink:href="#g" />
    </g>
  </g>
  <g data-name="039-hair mousse.svg">
    <g transform="rotate(-11.999 2365.103 -568.48) scale(.24414)">
      <path fill="transparent" d="M0 0h512v512H0z" />
      <use xlink:href="#h" />
    </g>
    <g transform="rotate(-11.999 -70.575 -824.45) scale(.24414)">
      <path fill="transparent" d="M0 0h512v512H0z" />
      <use xlink:href="#h" />
    </g>
  </g>
  <g data-name="012-powder.svg">
    <g transform="rotate(-6.999 3593.57 -423.175) scale(.24414)">
      <path fill="transparent" d="M0 0h512v512H0z" />
      <use xlink:href="#i" />
    </g>
    <g transform="rotate(-6.999 -591.994 -679.087) scale(.24414)">
      <path fill="transparent" d="M0 0h512v512H0z" />
      <use xlink:href="#i" />
    </g>
  </g>
  <g data-name="015-razor.svg">
    <g transform="rotate(-21 515.334 -1294.828) scale(.24414)">
      <path fill="transparent" d="M0 0h512v512H0z" />
      <use xlink:href="#j" />
    </g>
    <g transform="rotate(-21 259.343 86.424) scale(.24414)">
      <path fill="transparent" d="M0 0h512v512H0z" />
      <use xlink:href="#j" />
    </g>
  </g>
  <g transform="rotate(-48 205.837 -6.227) scale(.24414)" data-name="026-brush.svg">
    <path fill="transparent" d="M0 0h512v512H0z" />
    <use xlink:href="#k" />
  </g>
  <g data-name="032-fake eyelashes.svg">
    <g transform="rotate(8.999 -583.985 2647.971) scale(.24414)">
      <path fill="transparent" d="M0 0h512v512H0z" />
      <use xlink:href="#l" />
    </g>
    <g transform="rotate(8.999 -839.932 -604.817) scale(.24414)">
      <path fill="transparent" d="M0 0h512v512H0z" />
      <use xlink:href="#l" />
    </g>
  </g>
  <g data-name="005-brushes.svg">
    <g transform="rotate(158 170.715 302.616) scale(.24414)">
      <path fill="transparent" d="M0 0h512v512H0z" />
      <use xlink:href="#m" />
    </g>
    <g transform="rotate(158 220.476 46.616) scale(.24414)">
      <path fill="transparent" d="M0 0h512v512H0z" />
      <use xlink:href="#m" />
    </g>
  </g>
  <g transform="rotate(-4.998 384.037 -4094.157) scale(.24414)" data-name="028-bathtub.svg">
    <path fill="transparent" d="M0 0h512v512H0z" />
    <use xlink:href="#n" />
  </g>
  <g data-name="011-hairdryer.svg">
    <g transform="rotate(-8.999 2715.53 -2218.6) scale(.24414)">
      <path fill="transparent" d="M0 0h512v512H0z" />
      <use xlink:href="#o" />
    </g>
    <g transform="rotate(-8.999 -537.26 -2474.548) scale(.24414)">
      <path fill="transparent" d="M0 0h512v512H0z" />
      <use xlink:href="#o" />
    </g>
    <g transform="rotate(-8.999 2459.582 1034.188) scale(.24414)">
      <path fill="transparent" d="M0 0h512v512H0z" />
      <use xlink:href="#o" />
    </g>
    <g transform="rotate(-8.999 -793.206 778.24) scale(.24414)">
      <path fill="transparent" d="M0 0h512v512H0z" />
      <use xlink:href="#o" />
    </g>
  </g>
  <g data-name="022-make up bag.svg">
    <g transform="rotate(7.999 -1509.534 3064.474) scale(.24414)">
      <path fill="transparent" d="M0 0h512v512H0z" />
      <use xlink:href="#p" />
    </g>
    <g transform="rotate(7.999 -1765.467 -596.497) scale(.24414)">
      <path fill="transparent" d="M0 0h512v512H0z" />
      <use xlink:href="#p" />
    </g>
  </g>
  <g transform="rotate(-25 870.233 -386.66) scale(.24414)" data-name="006-sponge.svg">
    <path fill="transparent" d="M0 0h512v512H0z" />
    <use xlink:href="#q" />
  </g>
</svg>
