<svg xmlns="http://www.w3.org/2000/svg" xmlns:xlink="http://www.w3.org/1999/xlink" width="512" height="512" viewBox="0 0 512 512">
  <defs>
    <svg xmlns="http://www.w3.org/2000/svg" width="512" viewBox="0 0 512 512" height="512" id="a">
      <path d="M437.004 75.352C388.649 27.113 324.363.547 255.985.547c-68.376 0-132.657 26.566-181.004 74.806C26.629 123.598 0 187.748 0 255.986c0 68.239 26.629 132.395 74.98 180.646 48.349 48.249 112.631 74.82 181.005 74.82 68.376 0 132.663-26.571 181.019-74.819C485.366 388.38 512 324.225 512 255.986c0-68.237-26.634-132.387-74.996-180.634zM255.985 20.547c35.706 0 69.577 7.966 99.944 22.185-30.128 18.128-64.354 27.645-99.944 27.645-35.6 0-69.82-9.517-99.928-27.647 30.363-14.218 64.228-22.183 99.928-22.183zM135.758 53.472c35.545 24.16 76.964 36.905 120.227 36.905 43.251 0 84.678-12.744 120.247-36.902a236.824 236.824 0 0 1 19.622 12.995c-40.339 29.606-89.52 45.795-139.869 45.795-50.335 0-99.507-16.19-139.846-45.799a236.677 236.677 0 0 1 19.619-12.994zm240.475 405.049c-35.534-24.156-76.96-36.898-120.247-36.898-43.299 0-84.719 12.743-120.227 36.902a237.153 237.153 0 0 1-19.621-12.996c40.329-29.624 89.501-45.822 139.847-45.822 50.361 0 99.541 16.197 139.87 45.817a236.593 236.593 0 0 1-19.622 12.997zm-220.182 10.743c30.08-18.126 64.302-27.641 99.934-27.641 35.621 0 69.849 9.514 99.949 27.64-30.369 14.223-64.241 22.19-99.949 22.19-35.702 0-69.569-7.967-99.934-22.189zm255.869-36.686c-44.516-34.145-99.546-52.871-155.934-52.871-56.372 0-111.394 18.727-155.91 52.875C51.009 389.402 20 326.244 20 255.986c0-70.249 31.008-133.399 80.073-176.574 44.528 34.133 99.552 52.852 155.913 52.852 56.377 0 111.408-18.717 155.937-52.848C460.99 122.592 492 185.74 492 255.986c0 70.256-31.01 133.412-80.08 176.592z" />
      <path d="M350.349 224.368 297.69 206.04l-33.749-44.301a10.004 10.004 0 0 0-15.912.004l-33.72 44.298-52.657 18.327a10 10 0 0 0-4.924 15.153l31.784 45.718 1.209 55.616a10.002 10.002 0 0 0 12.881 9.357l53.385-16.073 53.413 16.074a10 10 0 0 0 12.88-9.363l1.183-55.611 31.808-45.714a10 10 0 0 0-4.922-15.157zm-45.029 51.926a10.003 10.003 0 0 0-1.79 5.499l-.967 45.477-43.696-13.15a10.025 10.025 0 0 0-5.765.001L209.43 327.27l-.989-45.481a10.003 10.003 0 0 0-1.787-5.49l-25.982-37.373 43.056-14.985a10.006 10.006 0 0 0 4.67-3.388l27.591-36.246 27.617 36.25a9.994 9.994 0 0 0 4.667 3.384l43.051 14.983z" />
    </svg>
    <svg xmlns="http://www.w3.org/2000/svg" width="512" viewBox="0 0 512 512" height="512" id="b">
      <path d="M227.588 384.631c-.089 0-.178-.001-.268-.004-5.521-.145-9.879-4.738-9.734-10.259l.028-1.077c.145-5.521 4.721-9.908 10.259-9.733 5.521.145 9.879 4.738 9.734 10.259l-.028 1.077c-.142 5.431-4.59 9.737-9.991 9.737zM284.365 384.631c-.089 0-.178-.001-.268-.004-5.521-.145-9.879-4.738-9.733-10.259l.028-1.077c.143-5.432 4.59-9.737 9.991-9.737.089 0 .178.001.268.004 5.521.145 9.879 4.738 9.733 10.259l-.028 1.077c-.142 5.431-4.589 9.737-9.991 9.737z" />
      <path d="M435.132 139.104a77.403 77.403 0 0 0-29.016 5.672c-15.978-18.699-36.59-34.011-61.38-45.152-8.002-4.855-8.122-9.614-1.572-36.269.917-3.73 1.864-7.588 2.841-11.804a10 10 0 0 0-13.55-11.502c-17.317 7.134-30.722 15.621-40.415 25.642-.228-13.29.142-30.941 1.145-49.035a10.001 10.001 0 0 0-13.824-9.787c-37.296 15.51-58.311 41.61-62.567 77.654-41.475 7.312-78.422 26.133-104.713 53.484a160.27 160.27 0 0 0-6.154 6.789 77.246 77.246 0 0 0-29.056-5.693C34.483 139.104 0 173.588 0 215.975c0 39.99 30.698 72.93 69.763 76.529 7.167 42.806 26.652 91.048 52.936 129.515 3.513 21.775 17.366 41.776 39.899 57.194 25.15 17.208 58.316 26.685 93.388 26.685 35.084 0 68.259-9.477 93.413-26.685 22.554-15.429 36.411-35.451 39.911-57.247 26.289-38.491 45.761-86.706 52.91-129.46 39.073-3.592 69.78-36.535 69.78-76.531 0-42.387-34.482-76.871-76.868-76.871zM67.255 272.032C40.458 267.452 20 244.058 20 215.975c0-31.358 25.511-56.87 56.868-56.87 5.599 0 11.164.828 16.486 2.431l-.039.132c-19.138 29.553-28.199 65.354-26.38 105.139l.001.022.007.109c.078 1.674.185 3.366.311 5.069l.001.025zm270.85 190.674c-21.86 14.955-51.024 23.191-82.12 23.191-31.083 0-60.238-8.236-82.095-23.19-20.412-13.967-31.769-32.043-32.074-50.981 32.265 19.208 72.172 29.655 114.169 29.655 42.013 0 81.93-10.446 114.197-29.655-.304 18.938-11.663 37.015-32.077 50.98zM173.892 359.154c21.855-14.957 51.009-23.194 82.094-23.194 31.097 0 60.26 8.237 82.119 23.194 13.303 9.103 22.757 19.956 27.819 31.656-30.113 19.759-68.827 30.571-109.937 30.571-41.093 0-79.798-10.812-109.909-30.571 5.06-11.7 14.512-22.552 27.814-31.656zm-31.203-56.652c-9.686-12.645-14.805-27.774-14.805-43.752 0-24.133 15.804-42.115 25.224-50.687 14.331-13.038 32.737-21.463 46.894-21.463 28.456 0 34.496 5.657 47.729 18.053l1.428 1.337a9.998 9.998 0 0 0 13.646.006l1.451-1.355c13.248-12.387 19.295-18.04 47.74-18.04 14.146 0 32.55 8.425 46.884 21.464 9.425 8.572 25.234 26.557 25.234 50.686 0 15.977-5.119 31.106-14.809 43.759-13.006 17.008-18.111 28.72-19.955 40.036l-.205-.062c-25.121-17.103-58.189-26.523-93.161-26.523-33.328 0-64.917 8.572-89.557 24.19a69.701 69.701 0 0 0-3.782 2.387c-1.843-11.316-6.951-23.028-19.956-40.036zm282.369-36.609c-1.668 36.747-16.586 83.24-38.577 122.612-3.564-10.552-9.66-20.529-18.053-29.588-.352-14.408.668-23.209 16.761-44.254 12.381-16.167 18.926-35.501 18.926-55.913 0-23.586-11.285-46.841-31.776-65.48-18.084-16.45-41.206-26.669-60.342-26.669-30.64 0-42.585 6.619-56.006 18.497-13.402-11.879-25.349-18.497-55.989-18.497-19.146 0-42.272 10.22-60.353 26.67-20.484 18.637-31.765 41.892-31.765 65.479 0 20.413 6.545 39.747 18.922 55.907 16.097 21.051 17.117 29.851 16.765 44.259-8.401 9.067-14.5 19.054-18.063 29.617-21.976-39.351-36.901-85.856-38.594-122.643-4.805-105.082 72.722-153.379 140.571-162.808a10 10 0 0 0 8.612-9.435c1.3-27.571 12.947-47.305 36.356-61.098-.328 9.379-.589 21.064-.425 32.145.133 8.94.534 16.091 1.193 21.254.657 5.148 2.025 15.86 11.544 17.214a10.002 10.002 0 0 0 10.816-6.513c4.082-11.339 12.482-20.765 25.961-28.929-4.828 21.046-6.179 37.856 13.509 49.416.321.188.652.358.991.51 59.685 26.609 92.129 80.641 89.016 148.247zm19.671 6.142c.001-.018-.006-.039-.005-.058.127-1.737.235-3.464.313-5.171 1.844-40.042-7.418-75.879-26.412-105.254l-.002-.012a57.35 57.35 0 0 1 16.51-2.437c31.357 0 56.868 25.512 56.868 56.87-.001 28.088-20.47 51.486-47.272 56.062z" />
      <path d="M190.989 265.348h-.021c-5.523-.012-9.991-4.498-9.979-10.02l.028-13.72c.011-5.516 4.486-9.979 10-9.979h.021c5.523.012 9.991 4.498 9.979 10.021l-.028 13.72c-.011 5.514-4.487 9.978-10 9.978zM320.983 265.348h-.021c-5.523-.012-9.991-4.498-9.979-10.02l.028-13.72c.012-5.516 4.486-9.979 10-9.979h.021c5.523.012 9.991 4.498 9.979 10.021l-.028 13.72c-.011 5.514-4.486 9.978-10 9.978z" />
    </svg>
    <svg xmlns="http://www.w3.org/2000/svg" width="512" viewBox="0 0 512 512" height="512" id="c">
      <path d="M134.432 3.611a9.999 9.999 0 0 0-15.386 0L7.028 138.51a10.001 10.001 0 0 0 7.693 16.389h17.263L51.21 365.7c1.382 15.388 13.383 26.992 27.915 26.992h15.284V502c0 5.522 4.477 10 10 10h44.659c5.523 0 10-4.478 10-10V392.692h15.312c14.516 0 26.504-11.604 27.884-26.979l19.228-210.815h17.263a9.999 9.999 0 0 0 7.693-16.389zm-7.693 22.042 90.715 109.245H36.023zm-8.612 129.245-60.55 60.414-5.51-60.414zM71.129 363.897l-3.176-34.818 129.341-129.054-6.784 74.383-98.504 98.284H79.125c-4.731 0-7.603-4.418-7.996-8.795zM139.068 492h-24.659v-99.308h24.659zm35.313-119.308h-54.058l67.353-67.203-5.329 58.423c-.392 4.363-3.254 8.78-7.966 8.78zm25.748-203.748L65.591 303.183l-5.652-61.974 86.504-86.311h54.968zM506.501 175.217 438.745 13.589a9.999 9.999 0 0 0-14.719-4.487l-146.562 96.433a10.001 10.001 0 0 0 2.586 17.921l16.51 5.022-43.217 207.238c-3.168 15.14 4.92 29.736 18.809 33.953l14.628 4.451-31.934 104.522a9.999 9.999 0 0 0 6.654 12.489l42.699 12.982c.97.295 1.949.436 2.913.436 4.283 0 8.244-2.773 9.56-7.081l31.938-104.535 14.664 4.462a26.692 26.692 0 0 0 7.744 1.149c11.317 0 22.065-7.206 26.827-18.85l79.968-196.079 16.555 5.036a10.001 10.001 0 0 0 12.133-13.434zM424.957 32.43l54.872 130.893-173.563-52.798zm-46.015 121.108-75.556 40.174 12.385-59.39zM272.92 339.805l7.142-34.246 161.411-85.801-28.205 69.157-122.964 65.371-12.337-3.754c-4.501-1.367-5.947-6.428-5.047-10.727zm27.542 142.267-23.564-7.164 29.014-94.965 11.995 3.647 11.568 3.52zm78.867-109.94c-1.669 4.078-5.731 7.493-10.248 6.123l-24.134-7.343c-.025-.008-.048-.019-.073-.026l-18.542-5.637-8.931-2.717 84.07-44.694zm73.938-181.294-167.893 89.247 12.699-60.897 107.966-57.406 52.558 15.988z" />
    </svg>
    <svg xmlns="http://www.w3.org/2000/svg" width="512" viewBox="0 0 512 512" height="512" id="d">
      <path d="M471.5 248.046c-2.021 0-4.006.153-5.948.44-13.886-23.176-33.615-38.89-57.458-45.643-15.795-4.474-33.182-4.925-51.394-1.442-1.803-29.831-13.312-54.43-34.312-73.252-24.263-21.746-60.919-35.021-109.028-39.518a41 41 0 0 0-.578-2.425c-2.859-10.435-9.62-19.13-19.035-24.482l-.021-.011c-19.407-10.976-44.167-4.166-55.188 15.172-5.354 9.374-6.726 20.271-3.864 30.683 2.866 10.427 9.628 19.106 19.036 24.437a40.283 40.283 0 0 0 19.933 5.268c.925 0 1.848-.036 2.769-.099 9.306 34.587 7.451 54.304.492 70.086-26.034-9.083-51.058-10.635-73.012-4.417-23.852 6.754-43.587 22.467-57.473 45.643a40.654 40.654 0 0 0-5.948-.44C18.155 248.046 0 266.184 0 288.478c0 22.279 18.155 40.404 40.472 40.404 19.458 0 35.75-13.763 39.622-32.042 14.375 4.062 24.065 14.924 30.104 33.514 6.865 21.133 6.886 46.813 6.898 62.157v53.022a9.998 9.998 0 0 0 13.776 9.259c83.478-34.045 167.664-34.05 250.219-.015a9.994 9.994 0 0 0 9.374-.935 10 10 0 0 0 4.438-8.31v-51.398c-.038-45.364 4.688-87.967 37.01-97.261 3.882 18.262 20.154 32.009 39.587 32.009 22.332 0 40.5-18.125 40.5-40.404 0-22.294-18.168-40.432-40.5-40.432zM163.575 114.605a20.258 20.258 0 0 1-9.615-12.339 20.198 20.198 0 0 1 1.95-15.472c3.772-6.618 10.724-10.336 17.871-10.336 3.428 0 6.902.856 10.092 2.657 4.761 2.709 8.177 7.104 9.622 12.376a20.199 20.199 0 0 1-1.949 15.457c-5.596 9.799-18.142 13.235-27.971 7.657zm45.338 2.262a40.61 40.61 0 0 0 3.557-8.238c43.249 4.156 75.709 15.716 96.57 34.412 17.793 15.947 27.142 37.318 27.861 63.593a175.813 175.813 0 0 0-14.185 5.475c-26.794 11.669-49.554 31.81-66.67 57.963-15.917-24.42-36.579-43.225-60.637-55.115 8.679-19.59 11.107-43.436.03-84.011a40.177 40.177 0 0 0 13.474-14.079zM40.472 308.882c-11.288 0-20.472-9.153-20.472-20.404 0-11.266 9.184-20.432 20.472-20.432 11.304 0 20.5 9.166 20.5 20.432 0 11.251-9.197 20.404-20.5 20.404zm38.56-32.755c-2.555-7.931-7.5-14.798-13.986-19.757 24.268-38.242 66.106-47.758 116.253-25.924 25.924 11.288 47.762 31.803 63.415 59.486-8.933 18.06-15.507 38.237-19.315 59.956-29.597 2.797-59.21 9.614-88.746 20.441-.723-15.324-2.599-31.272-7.433-46.153-10.809-33.274-31.984-44.78-50.188-48.049zm295.871 154.771c-78.599-28.945-158.462-28.926-237.807.051V391.51c79.32-30.73 159.253-30.739 237.806-.025l.001 39.413zm7.484-105.57c-4.637 14.798-6.402 30.72-7.074 44.942-42.84-15.821-86.048-23.052-129.337-21.682 11.053-55.921 42.159-99.603 84.725-118.142 50.135-21.831 91.966-12.311 116.23 25.932-6.477 4.959-11.414 11.824-13.966 19.751-18.453 3.317-39.883 15.071-50.578 49.199zm89.113-16.446c-11.288 0-20.472-9.153-20.472-20.404 0-11.266 9.184-20.432 20.472-20.432 11.304 0 20.5 9.166 20.5 20.432 0 11.251-9.196 20.404-20.5 20.404z" />
    </svg>
    <svg xmlns="http://www.w3.org/2000/svg" width="512" viewBox="0 0 512 512" height="512" id="e">
      <path d="M511.532 305.557c-3.454-48.66-25.697-93.059-62.632-125.018-26.89-23.268-58.708-37.291-91.531-42.373-6.07-19.027-15.189-36.838-27.175-53.011-59.9-81.003-174.662-98.275-255.822-38.503-39.35 28.984-65.026 71.52-72.299 119.77-7.265 48.2 4.708 96.345 33.715 135.572 29.727 40.166 72.952 64.632 118.877 71.815 10.163 32.006 28.919 60.447 54.517 82.566 34.553 29.911 77.239 44.571 119.743 44.571 51.222 0 102.178-21.295 138.296-62.849 32.027-36.832 47.764-83.902 44.311-132.54zM51.865 290.1C26.04 255.178 15.38 212.313 21.848 169.403c6.476-42.962 29.341-80.837 64.384-106.649 72.299-53.244 174.527-37.862 227.888 34.3 8.948 12.074 16.103 25.164 21.366 39.052a184.963 184.963 0 0 0-31.922 1.663 134.02 134.02 0 0 0-13.647-22.949c-43.514-58.835-126.87-71.375-185.813-27.954-28.579 21.043-47.228 51.929-52.512 86.97-5.28 35.015 3.419 69.993 24.497 98.493 26.024 35.168 66.299 53.783 107.091 53.783 27.398 0 55.034-8.404 78.723-25.833 30.465-22.448 49.586-56.189 53.309-93.531a113.994 113.994 0 0 1 30.176.317c-3.887 46.822-27.477 89.208-65.613 117.297-72.295 53.222-174.538 37.852-227.91-34.262zm40.303-29.666c-17.895-24.197-25.282-53.893-20.799-83.617 4.486-29.751 20.323-55.978 44.596-73.849 50.083-36.894 120.905-26.242 157.871 23.74a114.165 114.165 0 0 1 9.413 15.077c-34.732 8.906-67.193 28.027-92.418 57.037-24.752 28.488-40.068 64.1-43.838 101.417-21.228-7.095-40.552-20.517-54.825-39.805zm125.395 40.338c3.302-20.626 12.352-40.165 26.174-56.084 14.031-16.142 31.69-27.331 50.734-33.408-4.615 29.097-20.347 55.152-44.424 72.893a112.536 112.536 0 0 1-32.484 16.599zm185.429-67.385c22.785 19.718 36.508 47.104 38.64 77.115 2.131 29.987-7.57 59.012-27.314 81.725-40.791 46.926-112.233 51.995-159.25 11.306-10.949-9.489-19.745-20.633-26.27-33.223 22.063-5.66 43.415-15.547 62.837-29.845 42.012-30.944 68.296-77.34 73.402-128.73a112.301 112.301 0 0 1 37.955 21.652zm49.136 191.589c-58.871 67.732-161.985 75.033-229.865 16.273-20.592-17.794-36.185-40.181-45.679-65.333 2.217.08 4.436.135 6.657.135 8.42 0 16.856-.581 25.244-1.743 7.864 16.861 19.331 32.072 33.49 44.343 25.094 21.717 56.088 32.357 86.958 32.357 37.211 0 74.238-15.474 100.479-45.66 23.254-26.751 34.679-60.938 32.169-96.262-2.511-35.347-18.671-67.601-45.502-90.82-55.345-47.894-139.429-41.925-187.439 13.307-17.981 20.709-29.119 46.62-31.834 73.724a113.915 113.915 0 0 1-30.161-.375c2.878-34.195 16.648-66.932 39.281-92.98 58.88-67.715 162.008-75.015 229.889-16.279 32.888 28.459 52.694 67.99 55.769 111.312 3.074 43.299-10.938 85.206-39.456 118.001z" />
    </svg>
    <svg xmlns="http://www.w3.org/2000/svg" width="512" viewBox="0 0 512 512" height="512" id="f">
      <path d="M493.83 214.401c-13.004-53.704-41.961-91.018-86.15-111.073 8.622-15.422 22.958-30.88 43.533-46.989a10 10 0 0 0-4.705-17.767c-49.224-7.263-91.087.538-124.674 23.192-4.855-17.91-2.463-34.899.791-49.604A9.999 9.999 0 0 0 309.166.707C288.331 8.992 270.5 21.57 256.008 38.181 241.495 21.566 223.659 8.989 202.834.708a10 10 0 0 0-13.459 11.453c3.257 14.721 5.652 31.724.798 49.609-33.588-22.659-75.455-30.461-124.682-23.197a10.001 10.001 0 0 0-4.705 17.767c20.595 16.124 34.939 31.581 43.559 46.987-44.206 20.052-73.17 57.366-86.176 111.075a10 10 0 0 0 13.693 11.53c8.269-3.58 20.137-3.384 27.496 1.79-14.347 45.018-22.472 73.436-4.553 125.198 22.917 66.039 92.745 109.354 147.93 121.653 26.37 5.865 31.814 13.808 42.66 29.634.776 1.132 1.571 2.293 2.396 3.484a10 10 0 0 0 8.224 4.311h.005a9.998 9.998 0 0 0 8.225-4.319c.815-1.181 1.603-2.333 2.371-3.455 10.832-15.837 16.269-23.787 42.655-29.656 55.18-12.298 125.008-55.612 147.926-121.653 17.947-51.757 9.804-80.152-4.551-125.188 7.37-5.172 19.233-5.373 27.493-1.797a10 10 0 0 0 10.415-1.527 10.012 10.012 0 0 0 3.276-10.006zm-60.473 4.337a10.002 10.002 0 0 0-1.643 9.192l.677 2.121c14.759 46.222 22.167 69.423 5.908 116.311-19.498 56.183-81.858 97.204-133.377 108.686-28.381 6.312-39.159 16.179-48.917 29.458-9.771-13.279-20.547-23.146-48.925-29.458-51.523-11.483-113.884-52.504-133.379-108.68-16.248-46.933-8.832-70.159 5.942-116.431l.641-2.008a10.004 10.004 0 0 0-1.634-9.181c-8.381-10.773-21.481-15.285-34.205-15.285-.81 0-1.619.019-2.424.055 14.001-42.751 40.117-70.85 79.474-85.658a9.999 9.999 0 0 0 5.713-13.199c-6.83-16.425-18.648-32.442-35.895-48.569 39.078-1.821 71.067 7.887 97.301 29.437a10 10 0 0 0 15.439-3.563c8.876-19.38 9.869-38.138 8.156-54.485 13.954 8.216 25.92 19.136 35.713 32.616a10 10 0 0 0 8.09 4.122h.004a10 10 0 0 0 8.091-4.129c9.771-13.475 21.728-24.394 35.682-32.61-1.708 16.33-.714 35.075 8.149 54.478a10.001 10.001 0 0 0 15.443 3.572c26.235-21.551 58.222-31.268 97.305-29.437-17.225 16.115-29.036 32.131-35.87 48.569a10 10 0 0 0 5.71 13.199c39.342 14.812 65.45 42.915 79.449 85.664-13.446-.601-27.691 3.774-36.618 15.213z" />
      <path d="M190.645 207.407c-5.523 0-10 4.477-10 10v16.667c0 5.523 4.477 10 10 10s10-4.477 10-10v-16.667c0-5.523-4.477-10-10-10zM321.355 207.407c-5.523 0-10 4.477-10 10v16.667c0 5.523 4.477 10 10 10s10-4.477 10-10v-16.667c0-5.523-4.477-10-10-10z" />
      <path d="M413.457 273.935h-7.688c-1.107-25.393-8.347-50.963-21.698-74.307-12.832-22.435-30.696-41.21-51.663-54.296-22.967-14.334-48.669-21.602-76.395-21.602-27.733 0-53.443 7.269-76.415 21.604-20.971 13.087-38.839 31.865-51.672 54.303-13.349 23.341-20.588 48.907-21.695 74.298h-7.689c-5.523 0-10 4.477-10 10s4.477 10 10 10h8.096c1.333 15.736 5.083 31.151 11.237 45.665l-9.715 6.486c-4.593 3.066-5.831 9.276-2.764 13.87a9.991 9.991 0 0 0 8.326 4.448 9.953 9.953 0 0 0 5.543-1.684l7.746-5.171c11.427 18.604 28.677 28.401 48.692 28.401 4.255 0 8.637-.446 13.113-1.341l4.942 9.665c10.466 20.468 28.217 32.688 47.483 32.688h29.517c19.267 0 37.017-12.22 47.483-32.688l4.946-9.675c25.517 5.101 47.935-4.5 61.793-27.056l7.753 5.176a9.955 9.955 0 0 0 5.543 1.684 9.994 9.994 0 0 0 8.326-4.448c3.066-4.593 1.829-10.803-2.764-13.87l-9.715-6.486c6.154-14.514 9.905-29.928 11.238-45.665h8.095c5.523 0 10-4.477 10-10s-4.476-9.999-9.999-9.999zM270.758 406.962h-29.517c-16.727 0-26.326-15.241-29.676-21.793l-3.83-7.492 48.278-27.318 48.252 27.317-3.83 7.492c-3.351 6.554-12.95 21.794-29.677 21.794zm-14.591-115.877-.152-.001-.152.001c-9.615.168-18.422-4.604-23.667-12.693-1.047-1.62-2.651-4.618-1.625-6.502 1.325-2.434 8.347-7.037 25.443-7.037 17.09 0 24.107 4.604 25.43 7.038 1.021 1.88-.585 4.874-1.634 6.492-5.249 8.099-14.085 12.86-23.643 12.702zm120.979 37.18-19.84-13.246c-4.595-3.066-10.803-1.829-13.87 2.765-3.066 4.593-1.829 10.803 2.764 13.869l22.14 14.781c-11.111 18.664-28.633 24.13-50.725 15.818l-51.6-29.212v-22.895c12.44-2.496 23.45-9.885 30.578-20.883 8.073-12.45 4.984-22.211 2.425-26.921-6.128-11.278-21.4-17.489-43.003-17.489-21.602 0-36.877 6.207-43.01 17.477-2.562 4.708-5.658 14.465 2.403 26.932 7.129 10.998 18.165 18.392 30.607 20.884v22.894l-51.628 29.214c-22.093 8.311-39.618 2.846-50.726-15.818l22.14-14.781c4.593-3.066 5.831-9.276 2.764-13.869-3.066-4.594-9.275-5.831-13.87-2.765l-19.84 13.245c-4.272-10.99-6.982-22.54-8.132-34.329h27.786c5.523 0 10-4.477 10-10s-4.477-10-10-10H126.25c1.099-21.965 7.447-44.102 19.038-64.369 23.929-41.84 64.287-65.836 110.726-65.836 46.423 0 86.771 23.993 110.696 65.827 11.593 20.27 17.942 42.41 19.041 64.378h-28.26c-5.523 0-10 4.477-10 10s4.477 10 10 10h27.787c-1.149 11.789-3.859 23.339-8.132 34.329z" />
    </svg>
    <svg xmlns="http://www.w3.org/2000/svg" width="512" viewBox="0 0 512 512" height="512" id="g">
      <path d="M240.616 218.935v-7.891c0-31.152-25.378-56.497-56.572-56.497-31.21 0-56.601 25.345-56.601 56.497v7.891c0 5.523 4.478 10 10 10h93.173c5.523 0 10-4.477 10-10zm-93.112-10c1.099-19.147 17.068-34.388 36.54-34.388 19.457 0 35.414 15.24 36.512 34.388zM327.956 154.547c-31.21 0-56.601 25.345-56.601 56.497v7.891c0 5.523 4.478 10 10 10h93.173c5.522 0 10-4.477 10-10v-7.891c0-31.152-25.378-56.497-56.572-56.497zm-36.54 54.388c1.099-19.147 17.068-34.388 36.54-34.388 19.457 0 35.414 15.24 36.512 34.388zM346.842 278.371a10.004 10.004 0 0 0-9.769-.379c-54.396 27.762-107.45 27.759-162.197-.011a10 10 0 0 0-14.524 8.917v14.538c0 52.627 42.9 95.442 95.633 95.442s95.634-42.815 95.634-95.442v-14.538c0-3.48-1.809-6.71-4.777-8.527zm-90.857 98.508c-41.317 0-75.003-33.222-75.624-74.29 25.201 10.703 50.49 16.056 75.755 16.054 25.231-.001 50.447-5.343 75.494-16.021-.637 41.054-34.317 74.257-75.625 74.257z" />
      <path d="M494.063 324.867h-15.336c-7.303 0-13.243-5.931-13.243-13.22 0-7.274 5.94-13.192 13.243-13.192 18.347 0 33.272-14.89 33.272-33.192 0-18.318-14.926-33.22-33.272-33.22h-49.583v-122.42a10 10 0 0 0-11.589-9.873c-61.309 9.868-114.425-12.343-153.589-64.229a10 10 0 0 0-15.962 0c-39.16 51.881-92.262 74.092-153.589 64.229a10 10 0 0 0-11.588 9.873v122.42H33.243C14.913 232.042 0 246.945 0 265.263c0 18.302 14.913 33.192 33.243 33.192 7.318 0 13.272 5.918 13.272 13.192 0 7.29-5.954 13.22-13.272 13.22H17.908c-5.522 0-10 4.477-10 10s4.478 10 10 10h15.335c18.347 0 33.272-14.902 33.272-33.22 0-18.302-14.926-33.192-33.272-33.192-7.303 0-13.243-5.918-13.243-13.192 0-7.29 5.94-13.22 13.243-13.22h49.584v4.537c0 44.039 16.77 86.54 49.843 126.323 27.755 33.386 66.399 64.824 118.142 96.109a9.99 9.99 0 0 0 10.347.001c51.748-31.279 90.396-62.718 118.154-96.111 33.066-39.779 49.832-82.28 49.832-126.323v-4.537h49.583c7.318 0 13.272 5.931 13.272 13.22 0 7.274-5.954 13.192-13.272 13.192-18.33 0-33.243 14.89-33.243 33.192 0 18.318 14.913 33.22 33.243 33.22h15.336c5.522 0 10-4.477 10-10s-4.478-9.999-10.001-9.999zm-84.918-68.287c0 72.556-50.108 138.722-153.158 202.162-103.051-63.46-153.159-129.625-153.159-202.162V121.031c60.155 6.252 112.69-15.522 153.158-63.459 40.472 47.941 93.019 69.712 153.159 63.46z" />
    </svg>
    <svg xmlns="http://www.w3.org/2000/svg" width="512" viewBox="0 0 512 512" height="512" id="h">
      <path d="M501.704 57.023c-11.836-24.24-32.336-42.387-57.724-51.1-44.057-15.112-92.659 2.299-117.476 40.642-21.421-12.097-45.568-18.453-70.51-18.453h-.015c-24.93.003-49.068 6.357-70.478 18.446C160.684 8.221 112.083-9.186 68.029 5.924c-25.405 8.718-45.914 26.879-57.75 51.136-11.807 24.197-13.502 51.451-4.776 76.739l25.31 73.415c14.18 41.159 53.175 67.873 95.428 67.872.24 0 .48-.007.72-.009-13.491 27.125-19.864 47.524-21.418 67.659-1.934 25.062 3.673 50.822 18.751 86.134a9.997 9.997 0 0 0 10.73 5.954 9.999 9.999 0 0 0 8.419-8.927c4.477-46.77 12.507-73.113 43.555-88.316 5.418 13.305 6.912 27.281 8.934 46.262.309 2.9.628 5.897.974 9.004l.029.236 9.495 70.164c3.844 28.41 24.224 48.251 49.561 48.251 25.384 0 45.776-19.846 49.591-48.255l9.467-70.164c.011-.077.02-.154.028-.232.342-3.072.658-6.036.964-8.906 2.028-19.025 3.527-33.029 8.965-46.363 31.054 15.202 39.085 41.546 43.563 88.319a9.998 9.998 0 0 0 19.148 2.973c15.079-35.315 20.686-61.074 18.747-86.135-1.557-20.136-7.934-40.534-21.434-67.656.249.002.499.009.748.009 42.246-.002 81.24-26.715 95.419-67.872l25.312-73.419c8.718-25.308 7.011-52.573-4.805-76.774zm-298.555 2.851 31.38 31.334c5.553 5.5 13.279 8.637 21.244 8.637h.44c7.981 0 15.718-3.137 21.3-8.665l31.344-31.299a121.468 121.468 0 0 1 20.441 12.295l-35.387 35.308c-9.854 9.833-23.589 15.463-37.773 15.463h-.18c-14.185.083-27.961-5.588-37.857-15.462L182.708 72.17a121.328 121.328 0 0 1 20.441-12.296zm52.833-11.763h.013c11.116 0 21.887 1.444 32.161 4.178L263.41 77c-1.83 1.812-4.577 2.885-7.311 2.847a7.776 7.776 0 0 0-.216 0c-2.744.021-5.453-1.035-7.254-2.818L223.85 52.285c10.265-2.731 21.026-4.173 32.132-4.174zM49.72 200.699l-25.312-73.42c-6.984-20.235-5.618-42.058 3.843-61.449 9.491-19.451 25.923-34.008 46.268-40.99 35.396-12.141 74.454 1.891 94.314 32.757a144.714 144.714 0 0 0-20.407 19.074c-24.627-12.481-54.188-14.5-80.74-5.199-5.212 1.825-7.957 7.53-6.131 12.742 1.825 5.211 7.53 7.957 12.742 6.131 20.218-7.082 42.563-6.043 61.659 2.529-6.679 10.006-12.325 20.95-16.799 32.694-19.451 51.046-13.178 91.524 8.429 129.512-34.398.582-66.35-20.954-77.866-54.381zm89.905 155.679c-4.186 7.998-7.444 16.904-10.04 27.825-9.05-34.699-4.143-61.618 16.16-101.969 6.791 8.909 14.312 17.787 22.429 26.744 3.488 3.845 6.478 7.523 9.055 11.114-17.119 8.565-29.23 20.285-37.604 36.286zm156.531 25.442c-.3 2.804-.608 5.701-.941 8.701l-9.452 70.055c-2.067 15.393-12.074 30.924-29.772 30.924-17.656 0-27.661-15.537-29.744-30.935l-9.479-70.05c-.337-3.032-.648-5.959-.95-8.791-3.633-34.106-6.032-56.637-32.829-86.178-46.592-51.413-70.396-96.59-45.144-162.86 7.018-18.423 17.216-34.367 29.792-47.304l36.339 36.258c13.577 13.548 32.445 21.304 51.737 21.304h.244c19.507.072 38.443-7.699 52.078-21.303l36.333-36.252c12.576 12.936 22.776 28.877 29.797 47.296 25.234 66.293 1.435 111.465-45.141 162.859-26.822 29.569-29.227 52.128-32.868 86.276zm86.27 2.383c-2.595-10.922-5.854-19.827-10.04-27.825-8.374-16.001-20.487-27.722-37.605-36.285 2.579-3.593 5.57-7.272 9.059-11.118 8.111-8.95 15.626-17.821 22.412-26.724 20.314 40.34 25.224 67.251 16.174 101.952zm105.176-256.921-25.312 73.419c-11.517 33.431-43.47 54.967-77.869 54.379 21.596-37.978 27.868-78.456 8.432-129.514-4.476-11.743-10.123-22.685-16.803-32.69 19.097-8.575 41.444-9.614 61.664-2.531 5.212 1.828 10.917-.92 12.742-6.131 1.826-5.212-.919-10.917-6.131-12.742-26.554-9.302-56.117-7.282-80.746 5.203a144.79 144.79 0 0 0-20.405-19.071c19.859-30.871 58.922-44.905 94.317-32.765 20.331 6.977 36.753 21.523 46.243 40.959 9.471 19.396 10.845 41.233 3.868 61.484z" />
      <path d="M188.93 166.442c-5.522 0-9.999 4.477-9.999 9.999v17.081c0 5.522 4.477 9.999 9.999 9.999s9.999-4.477 9.999-9.999V176.44c0-5.522-4.477-9.998-9.999-9.998zM333.08 193.522V176.44c0-5.522-4.477-9.999-9.999-9.999s-9.999 4.477-9.999 9.999v17.081c0 5.522 4.477 9.999 9.999 9.999 5.522.001 9.999-4.476 9.999-9.998zM283.23 283.948h-54.449c-5.522 0-9.999 4.477-9.999 9.999s4.477 9.999 9.999 9.999h54.449c5.522 0 9.999-4.477 9.999-9.999 0-5.523-4.477-9.999-9.999-9.999zM270.192 332.223H241.82c-5.522 0-9.999 4.477-9.999 9.999s4.477 9.999 9.999 9.999h28.372c5.522 0 9.999-4.477 9.999-9.999-.001-5.523-4.478-9.999-9.999-9.999zM265.09 383.524h-18.168c-5.522 0-9.999 4.477-9.999 9.999s4.477 9.999 9.999 9.999h18.168c5.522 0 9.999-4.477 9.999-9.999-.001-5.522-4.478-9.999-9.999-9.999z" />
    </svg>
    <svg xmlns="http://www.w3.org/2000/svg" width="512" viewBox="0 0 512 512" height="512" id="i">
      <path d="M511.727 89.866a10.002 10.002 0 0 0-6.821-7.248l-48.496-14.73-12.286-49.064a10.002 10.002 0 0 0-16.613-4.798l-57.713 55.208a10 10 0 0 0-2.788 9.656l12.035 48.056-20.559 19.469c-7.34-4.956-15.248-8.953-23.666-11.868-23.353-8.088-50.11-8.185-79.741-.336.65-1.537 5.69-10.966 7.587-13.591 7.641-10.571 18.274-18.439 32.485-24.311 5.104-2.108 7.533-7.956 5.424-13.061-2.108-5.104-7.953-7.533-13.061-5.424-16.007 6.613-28.715 15.761-38.282 27.604-13.651-19.83-40.091-40.226-91.176-48.017a10 10 0 0 0-11.506 10.045c.393 24.708 4.632 45.91 12.589 63.294a108.422 108.422 0 0 0-13.96 3.795c-25.008 8.659-45.637 26.653-59.656 52.037-18.056 32.693-24.598 76.319-17.949 119.691 4.991 32.561 17.032 61.625 34.089 83.355l-28.966 27.436-22.291-23.408a10.001 10.001 0 0 0-16.627 3.445L.614 487.297a10 10 0 0 0 12.401 12.985l91.5-28.934a9.998 9.998 0 0 0 4.226-16.431l-22.253-23.369 28.72-27.204a109.398 109.398 0 0 0 6.695 5.7c34.127 26.664 63.652 21.32 92.203 16.156 6.598-1.193 13.136-2.205 19.854-2.341 5.353-.108 10.753-.158 16.099.165 5.328.321 10.558 1.222 15.803 2.172 11.604 2.101 23.368 4.23 35.536 4.23 17.778 0 36.417-4.549 56.666-20.383 27.747-21.682 47.556-59.503 54.348-103.766 6.653-43.371.116-86.997-17.937-119.691-5.75-10.412-12.627-19.556-20.446-27.347l18.179-17.215 49.174 14.936a10.003 10.003 0 0 0 9.818-2.341l57.712-55.208a9.998 9.998 0 0 0 2.815-9.545zM26.421 475.067l20.584-55.98 18.061 18.967a.027.027 0 0 0 .007.008l.008.008 18.131 19.04zM237.44 124.758a103.504 103.504 0 0 0-4.423 11.771c-18.687-5.755-36.286-8.456-52.673-8.095-7.284-13.066-11.723-29.5-13.237-49.054 35.246 7.525 59.342 23.057 70.333 45.378zm139.526 71.498c33.804 61.218 18.342 159.306-31.219 198.032-27.047 21.15-48.791 17.214-76.322 12.229-7.472-1.353-15.011-2.457-22.613-2.643-7.761-.19-15.599-.201-23.325.62-4.345.461-8.644 1.251-12.94 2.027-27.522 4.979-49.262 8.913-76.328-12.234-49.548-38.728-64.997-136.82-31.188-198.035 25.417-46.019 72.855-59.314 133.579-37.442 2.222.805 4.552.712 6.778 0 39.949-14.391 74.146-13.555 100.106 1.802l-50.264 47.599a39.824 39.824 0 0 1-5.389-20.033c0-5.522-4.478-10-10-10s-10 4.478-10 10c0 33.164 27.018 60.145 60.228 60.145 5.522 0 10-4.478 10-10s-4.478-10-10-10a40.045 40.045 0 0 1-20.845-5.821l52.293-49.52c6.617 6.493 12.463 14.244 17.449 23.274zm10.857-116.587 41.08-39.297 8.07 32.228-41.079 39.297zm53.777 56.457-31.954-9.706 30.059-28.755 11.069-10.588 31.954 9.706z" />
    </svg>
    <svg xmlns="http://www.w3.org/2000/svg" width="512" viewBox="0 0 512 512" height="512" id="j">
      <path d="M294.173 35.598c-13.646-13.614-35.872-13.616-49.558 0-6.611 6.595-10.252 15.393-10.251 24.771 0 9.378 3.641 18.175 10.251 24.77l14.685 14.65c-.37 3.71-.724 7.487-1.092 11.421-4.082 43.696-8.688 92.879-43.71 132.868l-11.231-11.206c-3.91-3.901-10.242-3.894-14.143.016-3.9 3.909-3.894 10.241.016 14.142l11.442 11.416-29.01 28.926c-3.845-2.357-8.933-1.887-12.269 1.432 0 0-16.379 16.437-18.949 19.107-14.178 14.728-14.734 15.299-33.876 13.145-29.113-3.293-57.705 6.678-78.459 27.354C9.951 366.454 0 390.442 0 415.955s9.951 49.501 28.02 67.545l.003.003c18.658 18.617 43.158 27.921 67.667 27.921 24.503 0 49.014-9.31 67.667-27.921 20.729-20.683 30.723-49.229 27.421-78.318-2.156-19.033-1.582-19.584 13.128-33.71 2.688-2.581 19.194-18.912 19.194-18.912a9.998 9.998 0 0 0 2.947-7.082 9.994 9.994 0 0 0-1.487-5.232l29.013-28.93 11.449 11.423a9.967 9.967 0 0 0 7.063 2.921 9.969 9.969 0 0 0 7.079-2.937c3.9-3.909 3.894-10.241-.016-14.142l-11.171-11.146c40.084-34.951 89.376-39.547 133.169-43.619 3.947-.367 7.735-.721 11.456-1.09l14.699 14.665c6.834 6.818 15.809 10.226 24.783 10.226 8.971 0 17.94-3.406 24.766-10.215 6.609-6.576 10.254-15.358 10.261-24.73.007-9.385-3.634-18.19-10.25-24.792zM190.053 357.05c-17.4 16.709-22.278 22.756-19.148 50.389 2.61 22.994-5.289 45.558-21.675 61.906-29.521 29.457-77.559 29.457-107.08 0C27.865 455.08 20 436.119 20 415.955c0-20.166 7.867-39.127 22.144-53.385 16.418-16.356 39.05-24.244 62.093-21.64 27.716 3.123 33.78-1.753 50.526-19.147 2.507-2.604 11.583-11.772 11.583-11.772l35.533 35.454c0-.001-9.205 9.067-11.826 11.585zm20.554-31.131-24.676-24.622 28.809-28.726 24.676 24.621zm43.18-42.64-25.101-25.046c38.596-43.403 44.816-96.237 48.964-140.138L394.211 234.38c-43.998 4.14-96.94 10.358-140.424 48.899zm208.948-30.044c-5.874 5.862-15.433 5.86-21.307 0L258.74 70.979c-2.822-2.815-4.376-6.584-4.376-10.611-.001-4.027 1.554-7.796 4.366-10.602 5.889-5.858 15.45-5.862 21.315-.01l182.689 182.283c2.825 2.819 4.38 6.59 4.377 10.62-.002 4.016-1.552 7.768-4.376 10.576zM418.89 103.473a9.97 9.97 0 0 0 7.063-2.921l44.759-44.659c3.909-3.901 3.916-10.232.016-14.142-3.902-3.91-10.232-3.916-14.143-.016l-44.759 44.659c-3.909 3.901-3.916 10.232-.016 14.142a9.97 9.97 0 0 0 7.08 2.937zM502 120.071h-46.431c-5.522 0-10 4.477-10 10s4.478 10 10 10H502c5.522 0 10-4.477 10-10s-4.478-10-10-10zM382.21 66.875c5.522 0 10-4.477 10-10V10.576c0-5.523-4.478-10-10-10s-10 4.477-10 10v46.299c0 5.523 4.478 10 10 10z" />
    </svg>
    <svg xmlns="http://www.w3.org/2000/svg" width="512" viewBox="0 0 512 512" height="512" id="k">
      <path d="M397.122 167.468h-1.763c-2.464-33.183-17.313-61.155-43.325-81.339-22.515-17.471-51.95-27.832-83.747-29.63V20h86.676c5.523 0 10-4.478 10-10s-4.477-10-10-10h-96.676c-5.523 0-10 4.478-10 10v46.499c-31.798 1.798-61.233 12.159-83.748 29.63-26.012 20.184-40.861 48.156-43.325 81.339h-6.337c-10.511 0-19.062 8.542-19.062 19.042v41.499c0 10.5 8.551 19.042 19.062 19.042h4.444l12.402 116.714a9.998 9.998 0 0 0 7.887 8.724l13.874 130.568a10 10 0 0 0 9.944 8.943H348.57a10 10 0 0 0 9.944-8.943l13.874-130.568c4.166-.874 7.422-4.339 7.887-8.724l12.402-116.714h4.444c10.511 0 19.062-8.542 19.062-19.042V186.51c.002-10.5-8.55-19.042-19.061-19.042zm-57.349-65.537c20.96 16.263 33.106 38.778 35.506 65.537H268.287V76.554c27.328 1.741 52.423 10.584 71.486 25.377zM248.287 76.55v90.917H141.284c5.208-58.737 56.296-87.577 107.003-90.917zm97.049 361.253H166.664l-6.917-65.095h192.507zM172.423 492l-3.634-34.197h174.422L339.577 492zm188.916-139.292H150.662l-11.227-105.657h233.132zm34.846-125.657h-280.37v-39.583h280.369v39.583z" />
    </svg>
    <svg xmlns="http://www.w3.org/2000/svg" width="512" viewBox="0 0 512 512" height="512" id="l">
      <path d="M476.262 85.004c14.347-6.709 25.811-23.572 29.208-42.96 2.83-16.157-.55-30.417-9.275-39.123a10.004 10.004 0 0 0-12.338-1.418c-36.525 22.667-64.489 26.05-89.161 29.036-4.017.486-7.812.945-11.654 1.48-20.048 2.798-48.418 10.597-69.726 31.856-10.093 10.071-17.792 21.995-22.763 35.088l-34.172-34.096c-3.91-3.901-10.243-3.894-14.144.016s-3.894 10.243.016 14.144l21.573 21.525-25.665 25.608c-20.501 20.456-31.792 47.759-31.792 76.879 0 3.437.163 6.848.474 10.226L17.377 437.911c-15.986 18.944-15.733 45.484.572 61.718 8.24 8.24 19.123 12.37 30.323 12.37 10.911 0 22.124-3.921 31.483-11.783l225.092-189.004c3.436.324 6.885.487 10.334.487 27.892 0 55.786-10.593 77.02-31.78l25.696-25.64 21.605 21.557a9.968 9.968 0 0 0 7.064 2.921c2.563 0 5.127-.98 7.08-2.937 3.901-3.91 3.894-10.243-.016-14.144l-34.184-34.107c13.049-4.938 24.939-12.57 34.994-22.568 21.567-20.094 43.609-52.894 40.933-84.843a10.002 10.002 0 0 0-17.234-6.035c-5.292 5.597-10.981 7.64-16.023 5.749-4.353-1.633-7.291-5.846-7.484-10.735-.338-8.609 7.749-17.632 21.63-24.133zM151.607 413.765l-47.622-47.516 32.363-38.371 53.728 53.587zM66.891 484.9c-9.555 8.027-24.577 10.807-34.814.57-10.225-10.18-7.444-25.142.588-34.661l58.378-69.216 45.186 45.085zm138.563-116.349-56.165-56.017 62.8-74.46c5.276 15.615 14.101 29.899 26.074 41.846 12.186 12.158 26.566 20.821 41.879 26.002zM378.072 265.76c-34.678 34.601-91.103 34.599-125.781 0-16.713-16.676-25.917-38.95-25.917-62.719s9.204-46.044 25.918-62.719l25.696-25.64 125.75 125.47zm56.576-155.832c.512 12.951 8.537 24.205 20.444 28.672 6.046 2.268 12.403 2.544 18.574.965-5.143 19.455-19.693 38.564-32.97 50.904-.087.08-.172.162-.256.246-10.288 10.266-22.984 17.429-36.957 20.925l-96.994-96.778c3.504-13.922 10.678-26.573 20.957-36.827 13.57-13.54 34.298-22.847 58.359-26.206 3.662-.51 7.369-.958 11.294-1.433 23.516-2.846 52.356-6.336 88.459-26.662 1.077 4.104 1.186 9.283.209 14.858-2.27 12.955-9.494 24.325-17.984 28.295-30.871 14.458-33.457 34.916-33.135 43.041z" />
    </svg>
    <svg xmlns="http://www.w3.org/2000/svg" viewBox="0 0 512.016 512.016" width="512.016" height="512.016" id="m">
      <path d="m509.963 162.741-44.486-58.383 23.675-68.791a10 10 0 0 0-12.71-12.71l-68.791 23.675-58.383-44.486a9.999 9.999 0 0 0-16.057 8.22l1.942 72.935-59.677 41.273a10 10 0 0 0 2.762 17.786l32.165 9.848L10.228 452.283C3.637 458.874.007 467.664.007 477.032c0 9.369 3.63 18.158 10.222 24.749 6.823 6.823 15.786 10.234 24.749 10.234s17.925-3.412 24.749-10.234L359.9 201.607l9.847 32.164a10.002 10.002 0 0 0 17.787 2.762l41.273-59.676 72.936 1.942a9.979 9.979 0 0 0 9.167-5.439 10 10 0 0 0-.947-10.619zM45.584 487.639c-5.849 5.849-15.365 5.848-21.214 0-2.813-2.813-4.363-6.58-4.363-10.606s1.55-7.793 4.364-10.606l255.385-255.385 21.213 21.213zm269.527-269.527-21.213-21.213 38.159-38.159 16.241 4.972 4.972 16.241zm108.817-61.393a10.012 10.012 0 0 0-8.491 4.308l-32.61 47.15-16.961-55.4a10.002 10.002 0 0 0-6.635-6.635l-55.4-16.961 47.15-32.609a10.002 10.002 0 0 0 4.308-8.491l-1.53-57.468 46.025 35.07a9.996 9.996 0 0 0 9.315 1.501l54.471-18.747-18.747 54.471a10.002 10.002 0 0 0 1.501 9.315l35.07 46.026z" />
      <path d="m143.682 100.907-15.798 33.374a9.999 9.999 0 0 0 11.285 14.023l36.402-8.389 27.331 25.467a10 10 0 0 0 16.784-6.502l3.005-36.802 32.648-17.708a10 10 0 0 0-.909-18.015l-34.513-14.433-7.076-36.375a10.001 10.001 0 0 0-17.362-4.652l-24.316 27.963-37.107-4.758a10 10 0 0 0-9.795 15.148zm30.244-21.532a9.998 9.998 0 0 0 8.817-3.357l14.378-16.535 4.184 21.509a10 10 0 0 0 5.958 7.316l20.18 8.439-19.047 10.331a9.999 9.999 0 0 0-5.199 7.976l-1.766 21.622-16.114-15.015a10.001 10.001 0 0 0-9.063-2.429l-21.462 4.946 9.282-19.607a10 10 0 0 0-.515-9.507l-11.33-18.471zM476.463 299.169l-36.375-7.077-14.433-34.513a9.998 9.998 0 0 0-8.721-6.129 10.027 10.027 0 0 0-9.295 5.22l-17.708 32.649-36.801 3.005a10.001 10.001 0 0 0-6.503 16.783l25.466 27.331-8.389 36.402a10 10 0 0 0 14.023 11.285l33.374-15.798 31.66 19.421a9.99 9.99 0 0 0 5.229 1.476 10.002 10.002 0 0 0 9.919-11.271l-4.757-37.106 27.963-24.316a10 10 0 0 0-4.652-17.362zm-40.472 30.097a10 10 0 0 0-3.357 8.817l2.782 21.696-18.471-11.33a10 10 0 0 0-9.507-.515l-19.607 9.282 4.946-21.462a9.999 9.999 0 0 0-2.428-9.062l-15.014-16.114 21.621-1.766a10.002 10.002 0 0 0 7.977-5.199l10.331-19.047 8.439 20.179a10 10 0 0 0 7.316 5.958l21.51 4.185z" />
    </svg>
    <svg xmlns="http://www.w3.org/2000/svg" width="512" viewBox="0 0 512 512" height="512" id="n">
      <path d="M259.892 142.155c-60.216 0-109.205 48.903-109.205 109.012 0 60.094 48.989 108.984 109.205 108.984s109.205-48.89 109.205-108.984c0-60.11-48.989-109.012-109.205-109.012zm0 197.996c-49.188 0-89.205-39.918-89.205-88.984 0-49.082 40.017-89.012 89.205-89.012s89.205 39.931 89.205 89.012c0 49.066-40.017 88.984-89.205 88.984z" />
      <path d="M464.819 146.486a10 10 0 0 0-5.732-5.611c-19.407-7.349-25.844-12.996-27.826-16.439-1.703-2.959-1.151-6.339.62-13.916 3.301-14.122 8.289-35.463-18.286-64.422a10 10 0 0 0-16.291 2.247c-.592 1.171-1.167 2.313-1.727 3.429-8.301 16.517-12.082 24.038-24.515 27.341 3.415-29.548-5.589-47.396-13.657-63.387-1.705-3.378-3.314-6.57-4.846-9.902a10 10 0 0 0-15.667-3.356c-5.881 5.138-11.675 13.528-17.81 22.41-5.316 7.697-10.814 15.657-16.151 21.169-6.06 6.259-8.632 5.99-8.908 5.938-.377-.071-9.359-2.227-19.285-44.282A10.002 10.002 0 0 0 261.747.548c-31.596 10.891-47.852 28.71-57.007 45.428-2.773-5.271-6.177-9.963-10.202-14.054-10.465-10.636-25.218-17.274-43.85-19.731a9.998 9.998 0 0 0-11.307 9.909c-.011 21.989-5.493 28.001-11.298 34.368-8.847 9.703-15.003 19.062-11.066 43.826-17.646-4.156-33.216-4.931-64.361 7.861a10 10 0 0 0-1.235 17.891c26.164 15.242 28.438 27.013 31.318 41.916 2.719 14.07 5.788 29.878 26.522 47.195a154.105 154.105 0 0 0-4.255 36.012c0 73.971 52.363 135.958 122.045 151.028v44.225h-54.545c-18.108 0-32.841 14.709-32.841 32.79V502c0 5.523 4.477 10 10 10h220.426c5.523 0 10-4.477 10-10v-22.79c0-18.081-14.732-32.79-32.841-32.79h-54.517v-44.225c69.682-15.07 122.045-77.057 122.045-151.028 0-12.433-1.489-24.525-4.28-36.116 36.233-14.829 44.451-36.118 50.555-51.969 1.187-3.082 2.308-5.993 3.531-8.578a9.999 9.999 0 0 0 .235-8.018zM360.091 479.21V492H159.665v-12.79c0-7.052 5.76-12.79 12.841-12.79H347.25c7.081 0 12.841 5.738 12.841 12.79zm-87.358-32.79h-25.682v-41.252c4.236.349 8.517.535 12.841.535s8.605-.187 12.841-.535zm-12.841-60.717c-74.376 0-134.886-60.353-134.886-134.536 0-74.199 60.51-134.564 134.886-134.564s134.886 60.365 134.886 134.564c0 74.183-60.51 134.536-134.886 134.536zM442.39 155.894c-5.425 14.088-11.022 28.608-37.859 39.998-22.336-58.006-78.742-99.289-144.639-99.289-65.214 0-121.14 40.431-143.939 97.492-9.787-10.341-11.579-19.587-13.577-29.93-2.59-13.404-5.459-28.247-24.13-43.84 18.036-4.956 27.929-2.324 44.052 1.967 1.728.46 3.511.935 5.364 1.416a10 10 0 0 0 12.195-12.189c-7.731-29.801-3.46-34.486 3.006-41.577 5.933-6.507 13.734-15.061 15.925-35.833 21.447 5.768 32.234 19.792 34.559 44.327a10.001 10.001 0 0 0 19.569 1.811c4.826-16.843 11.908-41.554 45.209-56.759 8.437 30.595 18.538 45.577 32.194 48.152 1.378.26 2.731.384 4.065.384 16.442-.002 29.519-18.93 41.155-35.778 1.902-2.754 3.829-5.542 5.703-8.142 8.118 16.265 14.42 31.464 7.896 60.703a10.002 10.002 0 0 0 10.469 12.153c28.995-2.061 39.383-13.343 48.386-29.673 9.151 14.408 6.836 24.315 4.413 34.682-2.01 8.602-4.289 18.35 1.522 28.446 4.574 7.946 13.532 14.673 28.538 21.283-.026.064-.051.13-.076.196z" />
    </svg>
    <svg xmlns="http://www.w3.org/2000/svg" width="512" viewBox="0 0 512 512" height="512" id="o">
      <path d="M380.757 238.23c-24.114-27.566-56.615-46.318-92.257-53.417v-34.756c0-9.171-7.468-16.633-16.647-16.633H266v-31.391h47.443c15.646 0 27.443-11.538 27.443-26.837 0-24.28-21.202-43.308-48.291-43.363-15.648-.355-15.826-.556-24.112-9.936-2.26-2.558-5.072-5.742-8.693-9.511C249.297 1.5 237.567 0 226.454 0c-28.181 0-51.108 22.886-51.108 51.017s22.927 51.017 51.108 51.017H246v31.391h-5.852c-9.195 0-16.676 7.461-16.676 16.633v34.756c-35.639 7.1-68.136 25.851-92.244 53.418A164.892 164.892 0 0 0 90.46 346.807C90.46 437.895 164.721 512 256 512s165.54-74.105 165.54-165.194a164.863 164.863 0 0 0-40.783-108.576zM195.346 51.017c0-17.103 13.955-31.017 31.108-31.017 9.763 0 14.364 1.522 18.925 6.254 3.319 3.455 5.867 6.339 8.114 8.883 11.554 13.08 16.514 16.188 38.757 16.693l.227.002c13.772 0 28.409 8.188 28.409 23.363 0 4.723-3.738 6.837-7.443 6.837h-86.989c-17.152.001-31.108-13.913-31.108-31.015zm48.125 102.407H268.5v150.798a44.334 44.334 0 0 0-25.028.006V153.424zM256 322.422c13.472 0 24.432 10.938 24.432 24.384 0 13.43-10.96 24.355-24.432 24.355-13.487 0-24.46-10.926-24.46-24.355 0-13.445 10.972-24.384 24.46-24.384zm0 68.74c24.5 0 44.432-19.898 44.432-44.355 0-11.667-4.537-22.29-11.932-30.22v-64.342c39.873 13.66 67.699 51.625 67.699 94.562 0 55.115-44.949 99.954-100.199 99.954s-100.199-44.839-100.199-99.954c0-42.934 27.814-80.897 67.67-94.56v64.348c-7.395 7.929-11.932 18.549-11.932 30.212.001 24.457 19.946 44.355 44.461 44.355zM256 492c-80.251 0-145.54-65.134-145.54-145.194 0-67.743 47.831-126.646 113.011-141.542v26.062c-23.489 6.597-44.684 20.332-60.321 39.291-17.636 21.384-27.349 48.442-27.349 76.189 0 66.143 53.921 119.954 120.199 119.954s120.199-53.811 120.199-119.954c0-27.75-9.715-54.808-27.354-76.19-15.641-18.96-36.845-32.695-60.345-39.291v-26.062c65.196 14.897 113.04 73.801 113.04 141.542C401.54 426.866 336.251 492 256 492z" />
    </svg>
    <svg xmlns="http://www.w3.org/2000/svg" width="512" viewBox="0 0 512.002 512.002" height="512" id="p">
      <path d="M509.073 2.929a10.024 10.024 0 0 0-7.683-2.91l-86.62 5.303a10.005 10.005 0 0 0-6.46 2.91L31.213 385.329a10.001 10.001 0 0 0-2.929 7.071v24.142L2.929 441.898c-3.905 3.905-3.905 10.237 0 14.142l53.033 53.033a10.003 10.003 0 0 0 14.142 0l25.354-25.355h24.143c2.652 0 5.195-1.054 7.071-2.929L503.77 103.692a10 10 0 0 0 2.91-6.46l5.304-86.621a10.002 10.002 0 0 0-2.911-7.682zM250.416 328.761l-11.964 11.964-85.175-49.175 29.963-29.963zm-54.391 54.39-85.174-49.176 27.785-27.785 85.175 49.175zm-42.426 42.427-85.175-49.175 27.786-27.785 85.174 49.176zM63.033 487.86l-38.891-38.891 14.142-14.142 38.891 38.891zm52.426-24.142H95.46l-47.176-47.176v-20l5.499-5.499 85.175 49.175zm371.489-371.49-222.39 222.39-26.516-26.516L428.274 97.871c3.905-3.905 3.905-10.237 0-14.143-3.906-3.905-10.236-3.905-14.143 0L223.899 273.96l-26.516-26.516 222.391-222.39 71.557-4.381z" />
    </svg>
    <svg xmlns="http://www.w3.org/2000/svg" width="512" viewBox="0 0 512 512" height="512" id="q">
      <path d="M98.538 222.087c-5.523 0-10-4.477-10-10v-33.334c0-5.523 4.477-10 10-10s10 4.477 10 10v33.334c0 5.523-4.477 10-10 10z" />
      <path d="M469.593 60.667c-3.535-5.497-8.987-9.28-15.343-10.65L225.876.554c-13.147-2.841-26.163 5.52-29.017 18.646l-21.667 99.638H62.914c-13.455 0-24.403 10.933-24.403 24.37V487.6c0 13.454 10.947 24.399 24.403 24.399h233.685c13.456 0 24.403-10.945 24.403-24.399v-64.135l49.667 10.749c1.746.384 3.505.574 5.252.574 4.609 0 9.138-1.321 13.127-3.88 5.505-3.532 9.296-8.98 10.672-15.332l73.21-336.549c1.376-6.353.191-12.874-3.337-18.36zM296.599 492H62.914c-2.387 0-4.403-2.015-4.403-4.399V143.209c0-2.369 2.016-4.371 4.403-4.371h233.685c2.387 0 4.403 2.001 4.403 4.371V487.6c.001 2.386-2.016 4.4-4.403 4.4zm0-373.161h-57.874l10.809-49.711 154.737 33.521-57.224 263.028-26.044-5.643V143.209c0-13.438-10.948-24.37-24.404-24.37zm156.786-44.054-73.209 336.549c-.33 1.521-1.348 2.371-1.926 2.742a4.361 4.361 0 0 1-3.315.6l-53.931-11.672v-22.505l31.574 6.842c.714.154 1.426.229 2.127.229 4.602 0 8.744-3.196 9.762-7.876L425.941 97.12a10.003 10.003 0 0 0-7.654-11.899L244.003 47.466c-5.395-1.165-10.716 2.254-11.889 7.649l-13.855 63.724H195.66l20.743-95.389c.504-2.321 2.905-3.853 5.242-3.349l228.382 49.464c1.526.329 2.375 1.343 2.744 1.918.371.578.945 1.776.614 3.302z" />
      <path d="M243.708 261.687c-17.253-17.857-45.654-18.687-63.951-2.095-18.27-16.574-46.673-15.75-63.944 2.088-8.481 8.76-13.038 20.336-12.832 32.598.207 12.296 5.171 23.752 13.991 32.271l55.85 53.77c1.936 1.864 4.436 2.796 6.936 2.796s4.999-.932 6.936-2.796l55.855-53.775c8.813-8.495 13.784-19.941 13.996-32.229.21-12.272-4.351-23.862-12.837-32.628zm-15.036 50.454-48.915 47.093-48.903-47.082c-4.962-4.793-7.76-11.26-7.876-18.21-.116-6.915 2.443-13.433 7.205-18.35 5.089-5.256 11.887-7.899 18.692-7.899 6.488 0 12.982 2.403 18.004 7.234l5.937 5.726a10.001 10.001 0 0 0 13.883 0l5.929-5.717c10.309-9.918 26.771-9.625 36.705.656 4.772 4.929 7.334 11.456 7.214 18.378-.12 6.939-2.919 13.393-7.875 18.171zM260.976 408.751c-5.523 0-10 4.477-10 10v33.305c0 5.523 4.477 10 10 10s10-4.477 10-10v-33.305c0-5.523-4.477-10-10-10z" />
    </svg>
    <svg xmlns="http://www.w3.org/2000/svg" width="512" viewBox="0 0 512 512" height="512" id="r">
      <path d="M504.087 134.135a10.003 10.003 0 0 0-11.216 5.698c-22.961 51.346-47.734 53.927-104.351 54.056 4.466-25.715.975-51.64-10.064-72.726a9.969 9.969 0 0 0-8.971-5.361c-20.711.231-41.679 7.063-60.375 19.481-7.222-24.929-22.766-50.19-47.897-65.601a10.002 10.002 0 0 0-10.455 0c-25.121 15.405-40.659 40.671-47.875 65.607-18.717-12.422-39.694-19.257-60.397-19.488-3.741-.026-7.232 2.034-8.975 5.37-11.011 21.078-14.497 47-10.049 72.718-56.623-.13-81.4-2.715-104.333-54.053A10 10 0 0 0 0 143.914v133.314c0 28.805 10.36 66.131 39.437 84.507 6.583 4.161 14.133 7.434 22.286 10.059-3.799 15.322-14.117 30.586-30.4 53.781a9.999 9.999 0 0 0 6.828 15.653c12.419 1.702 24.154 2.564 35.293 2.563 48.276-.002 85.192-16.22 116.33-50.52 18.879 5.931 40.456 15.821 58.888 35.646a10 10 0 0 0 7.32 3.191h.003a9.999 9.999 0 0 0 7.319-3.186c18.453-19.822 40.024-29.714 58.894-35.648 31.142 34.302 68.051 50.52 116.342 50.518 11.139 0 22.89-.863 35.308-2.564a9.999 9.999 0 0 0 6.828-15.653c-16.281-23.193-26.6-38.456-30.417-53.78 8.15-2.625 15.695-5.897 22.27-10.057 29.102-18.369 39.471-55.7 39.471-84.509V143.914a10 10 0 0 0-7.913-9.779zm-190.746 22.753c15.312-11.963 32.745-19.195 50.083-20.767 7.266 17.095 8.92 37.527 4.726 57.775h-26.474a132.407 132.407 0 0 0-31.891 3.88c2.698-10.051 4.135-20.294 4.135-30.05a107.05 107.05 0 0 0-.579-10.838zm-57.355-66.644c26.017 19.077 37.933 52.816 37.933 77.481 0 12.504-2.876 26.055-8.129 38.549a133.027 133.027 0 0 0-29.805 19.163 132.959 132.959 0 0 0-29.769-19.147c-5.257-12.498-8.135-26.056-8.135-38.565 0-24.673 11.905-58.414 37.905-77.481zm-107.432 45.878c17.329 1.574 34.77 8.807 50.104 20.771a106.955 106.955 0 0 0-.577 10.833c0 9.759 1.438 20.005 4.137 30.058a132.404 132.404 0 0 0-31.922-3.888h-26.472c-4.175-20.253-2.516-40.683 4.73-57.774zM57.35 423.182c11.093-16.268 19.813-30.852 23.741-46.445 16.269 3.27 33.656 4.964 49.935 6.546 13.095 1.272 25.644 2.492 36.365 4.374-29.03 28.011-63.282 39.051-110.041 35.525zm397.3.001c-46.767 3.531-81.035-7.511-110.07-35.525 10.72-1.882 23.273-3.102 36.371-4.374 16.282-1.582 33.672-3.276 49.941-6.545 3.942 15.591 12.666 30.176 23.758 46.444zM492 277.229c0 23.479-7.919 53.567-30.155 67.604-19.605 12.402-53.193 15.666-82.827 18.544-18.254 1.773-35.496 3.449-49.463 7.036-21.717 5.567-49.117 14.856-73.565 37.565-24.431-22.715-51.843-32-73.569-37.564-13.972-3.588-31.21-5.263-49.461-7.037-29.63-2.879-63.213-6.142-82.837-18.547C27.913 330.794 20 300.706 20 277.229v-96.688c9.599 11.936 20.552 20.031 33.624 25.122 21.138 8.232 46.723 8.232 79.114 8.232h37.558c29.487 0 57.437 11.442 78.702 32.218a10 10 0 0 0 13.977 0c21.265-20.776 49.214-32.218 78.701-32.218h37.587c32.379 0 57.955 0 79.093-8.232 13.078-5.094 24.038-13.194 33.645-25.14v96.706z" />
      <path d="M438.639 235.368a9.999 9.999 0 0 0-9.962-.064 124.72 124.72 0 0 1-61.328 16.137c-2.604.01-5.209-.008-7.812.029-36.648.511-62.244 32.668-62.244 78.201 0 5.523 4.477 10 10 10h60.093c42.025 0 76.216-34.191 76.216-76.218v-19.446a10.004 10.004 0 0 0-4.963-8.639zm-15.038 28.084c0 30.999-25.218 56.218-56.216 56.218h-49.552c2.743-25.059 16.014-47.813 41.932-48.203l7.62-.028c19.327 0 38.479-3.906 56.216-11.391zM152.436 251.469l-.102-.001-7.719-.028c-21.459 0-42.663-5.58-61.32-16.137a9.999 9.999 0 0 0-14.924 8.703v19.446c0 42.027 34.203 76.218 76.245 76.218h60.093c5.523 0 10-4.477 10-10-.001-45.533-25.608-77.69-62.273-78.201zm-7.821 68.201c-31.013 0-56.245-25.219-56.245-56.218v-3.403a144.778 144.778 0 0 0 56.208 11.391l7.629.028c25.935.389 39.214 23.144 41.96 48.202z" />
    </svg>
    <svg xmlns="http://www.w3.org/2000/svg" width="512" viewBox="0 0 512 512" height="512" id="s">
      <path d="M383.773 228.193a9.968 9.968 0 0 1-7.059-2.917c-3.912-3.898-3.923-10.229-.024-14.142l5.021-5.038c3.897-3.912 10.23-3.924 14.142-.024 3.912 3.898 3.923 10.229.024 14.142l-5.021 5.038a9.973 9.973 0 0 1-7.083 2.941zM170.692 341.119a9.974 9.974 0 0 0 7.077 2.935 9.97 9.97 0 0 0 7.065-2.923l42.461-42.394c3.908-3.902 3.913-10.234.012-14.143-3.904-3.908-10.234-3.912-14.143-.012l-42.461 42.394c-3.907 3.903-3.912 10.235-.011 14.143zM338.846 183.365a9.972 9.972 0 0 0 7.103-2.961l5.021-5.065c3.888-3.922 3.859-10.254-.063-14.142-3.92-3.887-10.253-3.86-14.142.063l-5.021 5.065c-3.888 3.922-3.859 10.254.063 14.142a9.964 9.964 0 0 0 7.039 2.898zM293.861 138.48a9.97 9.97 0 0 0 7.043-2.9l5.049-5.009c3.921-3.89 3.946-10.222.057-14.143s-10.221-3.945-14.143-.057l-5.049 5.009c-3.921 3.89-3.946 10.222-.057 14.143a9.976 9.976 0 0 0 7.1 2.957z" />
      <path d="M512 139.194c.005-37.044-14.447-71.875-40.695-98.081-54.17-54.048-142.308-54.048-196.476 0-21.307 21.259-34.875 48.348-39.199 77.668-13.91-5.655-30.474-2.858-41.712 8.385-7.264 7.229-11.265 16.877-11.265 27.167s4.001 19.938 11.255 27.157l3.933 3.925L36.344 402.728c-8.521 11.495-7.391 26.059 2.812 36.24l9.64 9.618-45.86 45.758c-3.909 3.901-3.916 10.232-.016 14.143a9.973 9.973 0 0 0 7.079 2.937 9.97 9.97 0 0 0 7.063-2.921l45.892-45.789 9.671 9.649c5.629 5.617 12.595 8.476 19.646 8.475 5.709 0 11.474-1.874 16.623-5.674L326.7 314.016l3.976 3.968v.001c7.496 7.479 17.34 11.218 27.188 11.218 9.844 0 19.691-3.74 27.186-11.218 7.259-7.241 11.256-16.892 11.256-27.172 0-5.055-.971-9.956-2.816-14.495 29.374-4.313 56.513-17.848 77.815-39.103 26.237-26.181 40.689-60.991 40.695-98.021zM97.011 459.076c-3.631 2.679-6.986 2.395-10.258-.872l-33.47-33.394c-3.254-3.248-3.539-6.575-.88-10.163l159.745-214.954 100.236 100.034zm273.913-155.25c-7.201 7.186-18.919 7.186-26.12 0v.001L208.025 167.324c-3.464-3.447-5.372-8.062-5.372-12.991s1.908-9.544 5.391-13.01c7.188-7.188 18.9-7.186 26.111.01l136.77 136.465c3.47 3.462 5.381 8.084 5.381 13.015 0 4.929-1.912 9.551-5.382 13.013zm8.134-46.167L254.286 133.164c1.315-26.115 11.077-50.717 27.905-70.548l167.591 167.219c-19.883 16.783-44.545 26.517-70.724 27.824zM296.353 48.493c46.684-39.369 116.836-37.115 160.823 6.776 22.461 22.424 34.828 52.228 34.824 83.922-.004 28.334-9.904 55.147-28.055 76.522z" />
    </svg>
  </defs>
  <g data-name="034-ball.svg">
    <g transform="matrix(.244 0 0 .244 461.536 327.011)">
      <path fill="transparent" d="M0 0h512v512H0z" />
      <use xlink:href="#a" />
    </g>
    <g transform="matrix(.244 0 0 .244 -50.464 327.011)">
      <path fill="transparent" d="M0 0h512v512H0z" />
      <use xlink:href="#a" />
    </g>
  </g>
  <g transform="rotate(-8 2297.768 -2212.646) scale(.244)" data-name="033-monkey.svg">
    <path fill="transparent" d="M0 0h512v512H0z" />
    <use xlink:href="#b" />
  </g>
  <g transform="scale(-.244 .244) rotate(23 -3741.879 -1286.746)" data-name="031-firework.svg">
    <path fill="transparent" d="M0 0h512v512H0z" />
    <use xlink:href="#c" />
  </g>
  <g data-name="010-joker hat.svg">
    <g transform="rotate(43 30.076 867.901) scale(.244)">
      <path fill="transparent" d="M0 0h512v512H0z" />
      <use xlink:href="#d" />
    </g>
    <g transform="rotate(43 -225.924 218.007) scale(.244)">
      <path fill="transparent" d="M0 0h512v512H0z" />
      <use xlink:href="#d" />
    </g>
  </g>
  <g transform="rotate(7 -2283.078 1931.485) scale(.244)" data-name="026-hula hoop.svg">
    <path fill="transparent" d="M0 0h512v512H0z" />
    <use xlink:href="#e" />
  </g>
  <g data-name="022-lion.svg">
    <g transform="matrix(.244 0 0 .244 422.336 198.038)">
      <path fill="transparent" d="M0 0h512v512H0z" />
      <use xlink:href="#f" />
    </g>
    <g transform="matrix(.244 0 0 .244 -89.664 198.038)">
      <path fill="transparent" d="M0 0h512v512H0z" />
      <use xlink:href="#f" />
    </g>
  </g>
  <g transform="rotate(-16 421.401 -847.32) scale(.244)" data-name="004-theater masks.svg">
    <path fill="transparent" d="M0 0h512v512H0z" />
    <use xlink:href="#g" />
  </g>
  <g transform="rotate(20 -349.101 950.87) scale(.244)" data-name="023-elephant.svg">
    <path fill="transparent" d="M0 0h512v512H0z" />
    <use xlink:href="#h" />
  </g>
  <g data-name="048-archery.svg">
    <g transform="rotate(17 -46.874 1390.406) scale(.244)">
      <path fill="transparent" d="M0 0h512v512H0z" />
      <use xlink:href="#i" />
    </g>
    <g transform="rotate(17 -302.874 -322.53) scale(.244)">
      <path fill="transparent" d="M0 0h512v512H0z" />
      <use xlink:href="#i" />
    </g>
  </g>
  <g data-name="020-horn.svg">
    <g transform="rotate(-21 1446.116 88.712) scale(.244)">
      <path fill="transparent" d="M0 0h512v512H0z" />
      <use xlink:href="#j" />
    </g>
    <g transform="rotate(-21 64.864 -167.288) scale(.244)">
      <path fill="transparent" d="M0 0h512v512H0z" />
      <use xlink:href="#j" />
    </g>
  </g>
  <g data-name="037-Soft drink.svg">
    <g transform="rotate(-9 969 -3098.4) scale(.244)">
      <path fill="transparent" d="M0 0h512v512H0z" />
      <use xlink:href="#k" />
    </g>
    <g transform="rotate(-9 713 154.389) scale(.244)">
      <path fill="transparent" d="M0 0h512v512H0z" />
      <use xlink:href="#k" />
    </g>
  </g>
  <g transform="rotate(-52 266.082 60.584) scale(.247)" data-name="008-torch.svg">
    <path fill="transparent" d="M0 0h512v512H0z" />
    <use xlink:href="#l" />
  </g>
  <g transform="rotate(-11 1184 -674.007) scale(.244)" data-name="006-magical.svg">
    <path fill="transparent" d="M0 0h512v512H0z" />
    <use xlink:href="#m" />
  </g>
  <g transform="rotate(-5 729.244 -1662.433) scale(.25)" data-name="012-ring of fire.svg">
    <path fill="transparent" d="M0 0h512v512H0z" />
    <use xlink:href="#n" />
  </g>
  <g data-name="018-unicycle.svg">
    <g transform="rotate(25 -813.122 710.398) scale(.25)">
      <path fill="transparent" d="M0 0h512v512H0z" />
      <use xlink:href="#o" />
    </g>
    <g transform="rotate(25 341.62 454.398) scale(.25)">
      <path fill="transparent" d="M0 0h512v512H0z" />
      <use xlink:href="#o" />
    </g>
  </g>
  <g data-name="025-knife.svg">
    <g transform="rotate(122 144.315 403.75) scale(.25)">
      <path fill="transparent" d="M0 0h512v512H0z" />
      <use xlink:href="#p" />
    </g>
    <g transform="rotate(122 286.218 147.75) scale(.25)">
      <path fill="transparent" d="M0 0h512v512H0z" />
      <use xlink:href="#p" />
    </g>
    <g transform="rotate(122 -111.685 261.848) scale(.25)">
      <path fill="transparent" d="M0 0h512v512H0z" />
      <use xlink:href="#p" />
    </g>
    <g transform="rotate(122 30.218 5.848) scale(.25)">
      <path fill="transparent" d="M0 0h512v512H0z" />
      <use xlink:href="#p" />
    </g>
  </g>
  <g data-name="017-playing cards.svg">
    <g transform="rotate(-12 2500.271 -2118.473) scale(.25)">
      <path fill="transparent" d="M0 0h512v512H0z" />
      <use xlink:href="#q" />
    </g>
    <g transform="rotate(-12 64.594 -2374.473) scale(.25)">
      <path fill="transparent" d="M0 0h512v512H0z" />
      <use xlink:href="#q" />
    </g>
    <g transform="rotate(-12 2244.271 317.204) scale(.25)">
      <path fill="transparent" d="M0 0h512v512H0z" />
      <use xlink:href="#q" />
    </g>
    <g transform="rotate(-12 -191.406 61.204) scale(.25)">
      <path fill="transparent" d="M0 0h512v512H0z" />
      <use xlink:href="#q" />
    </g>
  </g>
  <g data-name="006-eye mask.svg">
    <g transform="rotate(-7 3536.546 -2218.085) scale(.25)">
      <path fill="transparent" d="M0 0h512v512H0z" />
      <use xlink:href="#r" />
    </g>
    <g transform="rotate(-7 -649.017 -2474.085) scale(.25)">
      <path fill="transparent" d="M0 0h512v512H0z" />
      <use xlink:href="#r" />
    </g>
  </g>
  <g data-name="039-microphone.svg">
    <g transform="rotate(56 -245.703 606.218) scale(.25)">
      <path fill="transparent" d="M0 0h512v512H0z" />
      <use xlink:href="#s" />
    </g>
    <g transform="rotate(56 235.763 350.218) scale(.25)">
      <path fill="transparent" d="M0 0h512v512H0z" />
      <use xlink:href="#s" />
    </g>
  </g>
</svg>
