<svg xmlns="http://www.w3.org/2000/svg" xmlns:xlink="http://www.w3.org/1999/xlink" width="512" height="512" viewBox="0 0 512 512">
  <defs>
    <svg xmlns="http://www.w3.org/2000/svg" width="512" viewBox="0 0 607.786 607.786" height="512" id="a">
      <path d="M506.472 60.779c-37.652 0-70.767 24.696-98.097 57.091a278.572 278.572 0 0 0-59.644-44.196 50.111 50.111 0 0 0 5.794-23.025C354.526 22.676 331.85 0 303.877 0s-50.649 22.676-50.649 50.649a50.124 50.124 0 0 0 5.794 23.025 278.572 278.572 0 0 0-59.644 44.196c-27.33-32.395-60.444-57.091-98.097-57.091-60.779 0-68.143 37.541-68.477 53.617-1.013 40.043 32.496 88.534 63.27 107.021a342.428 342.428 0 0 1 48.37 34.938c-.375.608-.831 1.185-1.195 1.803a9.793 9.793 0 0 0-1.013 2.259c-.547 1.763-12.237 41.4 9.117 67.049a218.816 218.816 0 0 0-10.565 90.601c-29.644 9.459-49.734 37.046-49.636 68.163 0 78.384 75.548 121.557 212.725 121.557s212.725-43.173 212.725-121.557c.098-31.117-19.991-58.704-49.636-68.163a218.791 218.791 0 0 0-10.586-90.601c21.404-25.649 9.714-65.286 9.167-67.049a9.793 9.793 0 0 0-1.013-2.259c-.365-.618-.821-1.195-1.195-1.803a343.435 343.435 0 0 1 48.38-34.948c30.764-18.477 64.304-66.968 63.26-106.95-.364-16.138-7.728-53.678-68.507-53.678zm0 20.259c19.702 0 33.428 4.447 41.066 13.27-20.26-4.802-49.555 1.155-88.747 40.347a463.081 463.081 0 0 0-55.471 66.34 222.618 222.618 0 0 0-19.986-10.13c29.033-52.239 72.489-109.827 123.138-109.827zm-60.039 186.388a66.039 66.039 0 0 1-1.732 41.117c-79.401-73.706-202.207-73.706-281.607 0a66.024 66.024 0 0 1-1.732-41.117c28.586-46.334 95.969-74.96 142.516-74.96s113.928 28.626 142.555 74.96zM273.488 50.649c0-16.784 13.606-30.389 30.389-30.389 16.784 0 30.389 13.606 30.389 30.389a30.012 30.012 0 0 1-4.052 14.952 82.907 82.907 0 0 0-26.337-4.822 82.874 82.874 0 0 0-26.337 4.822 30.004 30.004 0 0 1-4.052-14.952zm30.389 30.389c23.177 0 55.633 18.791 91.877 52.746a445.785 445.785 0 0 0-31.402 49.575 189.816 189.816 0 0 0-60.475-11.153 189.793 189.793 0 0 0-60.485 11.143 445.838 445.838 0 0 0-31.402-49.575c36.254-33.945 68.71-52.736 91.887-52.736zm-202.595 0c50.649 0 94.105 57.588 123.137 109.827a222.618 222.618 0 0 0-19.986 10.13 463.005 463.005 0 0 0-55.471-66.34C109.76 95.453 80.445 89.507 60.195 94.318c7.659-8.833 21.364-13.28 41.087-13.28zm5.217 123.006c-24.706-14.84-51.55-53.11-53.303-84.513 24.777-17.839 57.74 5.744 81.443 29.498a443.066 443.066 0 0 1 52.776 63.017 171.967 171.967 0 0 0-30.946 27.968 363.94 363.94 0 0 0-49.97-35.97zm389.843 282.185c0 88.129-120.544 101.298-192.465 101.298s-192.465-13.169-192.465-101.298c0-41.532 40.803-50.487 42.545-50.851a10.13 10.13 0 0 0 8.003-11.588 198.859 198.859 0 0 1 11.244-96.719c72.48-71.414 188.868-71.414 261.348 0a198.813 198.813 0 0 1 11.274 96.709 10.129 10.129 0 0 0 8.003 11.588c1.751.364 42.513 8.994 42.513 50.861zm4.924-282.195a364.928 364.928 0 0 0-49.98 35.93 171.964 171.964 0 0 0-30.916-27.968 443.01 443.01 0 0 1 52.776-63.017c23.744-23.744 56.635-47.357 81.443-29.488-1.753 31.382-28.617 69.703-53.323 84.543z" />
      <path d="M222.839 395.061a30.39 30.39 0 1 0 30.39 30.39c-.001-16.785-13.607-30.39-30.39-30.39zm0 40.519c-5.594 0-10.13-4.535-10.13-10.13s4.535-10.13 10.13-10.13 10.13 4.535 10.13 10.13-4.536 10.13-10.13 10.13zM384.915 395.061c-16.784 0-30.389 13.606-30.389 30.389 0 16.784 13.606 30.389 30.389 30.389 16.784 0 30.389-13.606 30.389-30.389 0-16.784-13.605-30.389-30.389-30.389zm0 40.519c-5.595 0-10.13-4.535-10.13-10.13s4.535-10.13 10.13-10.13 10.13 4.535 10.13 10.13-4.535 10.13-10.13 10.13z" />
      <path fill-rule="evenodd" d="M344.396 511.553c-5.595 0-10.13 4.535-10.13 10.13 0 8.392-6.803 15.195-15.195 15.195a14.355 14.355 0 0 1-5.065-.942v-33.317l14.658-7.324c5.007-2.501 7.039-8.587 4.538-13.594s-8.587-7.039-13.594-4.538l-15.732 7.871-15.732-7.871c-5.007-2.501-11.093-.469-13.594 4.538s-.469 11.093 4.538 13.594l14.658 7.324v33.317a14.355 14.355 0 0 1-5.065.942 15.195 15.195 0 0 1-15.194-15.194c0-5.594-4.535-10.13-10.13-10.13-5.594 0-10.13 4.535-10.13 10.13 0 19.581 15.873 35.454 35.454 35.454a34.82 34.82 0 0 0 15.195-3.485 34.831 34.831 0 0 0 15.195 3.485c19.581 0 35.454-15.873 35.454-35.454.001-5.596-4.534-10.131-10.129-10.131z" clip-rule="evenodd" />
    </svg>
    <svg xmlns="http://www.w3.org/2000/svg" width="512" viewBox="0 0 607.786 607.786" height="512" id="b">
      <path d="M545.174 12.63C531.812 4.395 520.67 2.399 512.09 6.704c-18.467 9.238-10.292 29.69-4.883 43.224a45.927 45.927 0 0 1 4.883 17.555c-4.113 2.026-19.084-3.262-27.117-6.078-15.985-5.673-29.781-10.575-38.493-1.54-7.709 8.003-4.052 20.563-.071 30.622 11.467 28.647 7.415 42.545 4.639 44.399-.567.355-3.718-.071-8.327-4.68-21.141-21.141-37.733-28.708-49.291-22.529-13.503 7.233-11.224 27.35-8.327 41.795 4.639 23.298 8.823 50.041 4.842 66.218a130.893 130.893 0 0 0-37.348-34.441 49.812 49.812 0 0 0 1.945-13.533c0-27.973-22.676-50.649-50.649-50.649s-50.649 22.676-50.649 50.649a49.805 49.805 0 0 0 1.925 13.462 130.894 130.894 0 0 0-37.348 34.441c-3.981-16.208.203-42.92 4.832-66.208 2.907-14.475 5.186-34.573-8.317-41.806-11.568-6.189-28.151 1.388-49.291 22.529-4.609 4.609-7.79 5.065-8.327 4.68-2.776-1.833-6.827-15.752 4.639-44.409 4.052-10.049 7.638-22.61-.071-30.612-8.691-9.026-22.498-4.133-38.493 1.54-8.033 2.867-22.995 8.175-27.269 6.21a49.536 49.536 0 0 1 5.065-17.646c5.409-13.533 13.584-33.985-4.883-43.224-8.59-4.265-19.733-2.289-33.094 5.956C37.024 28.443 0 71.13 0 106.938c0 44.713 23.106 67.869 43.487 88.2 8.408 8.408 19.925 18.234 30.136 26.641a9.97 9.97 0 0 0-2.715 7.628c.213 2.33 5.582 57.365 41.39 82.882a68.128 68.128 0 0 0 40.448 12.612 89.287 89.287 0 0 0 12.5-1.013c.334 1.57.648 3.181 1.013 4.639a20.32 20.32 0 0 0 7.091 10.626 121.172 121.172 0 0 0-6.311 85.981 94.773 94.773 0 0 0-25.223 66.735c0 69.774 60.586 111.427 162.076 111.427s162.076-41.654 162.076-111.427a94.774 94.774 0 0 0-25.324-66.704 121.172 121.172 0 0 0-6.311-85.981 20.326 20.326 0 0 0 7.091-10.626c.395-1.459.709-3.039 1.013-4.629 4.138.625 8.315.964 12.5 1.013a68.12 68.12 0 0 0 40.448-12.612c35.87-25.557 41.238-80.592 41.492-82.922a9.97 9.97 0 0 0-2.674-7.628c10.211-8.377 21.728-18.234 30.136-26.641 20.341-20.33 43.447-43.487 43.447-88.2 0-35.809-37.025-78.496-62.612-94.309zM421.965 323.462a193.969 193.969 0 0 0-118.073-44.318A194.492 194.492 0 0 0 185.901 323.3a129.016 129.016 0 0 1-3.566-29.569c69.94-59.978 173.174-59.978 243.114 0a134.832 134.832 0 0 1-3.484 29.731zM273.504 167.717c0-16.784 13.606-30.389 30.389-30.389s30.389 13.606 30.389 30.389a28.902 28.902 0 0 1-.587 4.852 93.942 93.942 0 0 0-59.604 0 28.799 28.799 0 0 1-.587-4.852zm30.389 20.259c39.111 0 65.418 29.498 81.595 57.557a203.893 203.893 0 0 0-163.19 0c16.177-28.059 42.484-57.557 81.595-57.557zM20.26 106.938c0-23.39 25.811-57.983 48.988-74.403 10.839-7.678 16.532-7.972 17.545-7.79a49.536 49.536 0 0 1-5.065 17.646c-5.379 13.533-13.554 33.985 4.913 43.274 11.821 5.906 27.654.284 42.96-5.156a156.378 156.378 0 0 1 15.417-4.974 56.35 56.35 0 0 1-2.482 7.364c-15.6 39.01-8.661 61.143 3.039 68.882 7.719 5.065 20.665 5.865 33.803-7.263a73.753 73.753 0 0 1 24.869-18.446 52.67 52.67 0 0 1-1.449 19.439c-7.78 39.091-10.403 69.429.638 87.977-17.322-12.845-48.927-24.686-105.086-17.788a529.252 529.252 0 0 1-40.519-34.857c-20.169-20.217-37.571-37.579-37.571-73.905zm103.89 188.89c-20.594-14.658-28.698-44.034-31.585-58.986 62.683-9.502 91.168 5.531 102.989 16.319a349.72 349.72 0 0 0-3.778 8.479 189.781 189.781 0 0 0-22.782 16.836 20.203 20.203 0 0 0-6.919 15.64c.068 3.377.209 6.628.425 9.755a50.94 50.94 0 0 1-38.35-8.043zm321.56 196.041c0 82.284-99.181 91.168-141.817 91.168s-141.817-8.884-141.817-91.168 99.18-91.168 141.817-91.168 141.817 8.884 141.817 91.168zM303.893 380.442c-51.044 0-91.715 10.555-119.531 29.913a101.485 101.485 0 0 1 10.515-68.882 20.822 20.822 0 0 0 3.647-2.239 173.661 173.661 0 0 1 105.37-39.83 173.66 173.66 0 0 1 105.4 39.871 20.376 20.376 0 0 0 3.495 1.945 101.537 101.537 0 0 1 10.636 69.136c-27.817-19.359-68.488-29.914-119.532-29.914zm179.742-84.614a50.992 50.992 0 0 1-38.392 8.043c.216-3.127.358-6.378.425-9.755a20.198 20.198 0 0 0-6.878-15.64 189.89 189.89 0 0 0-22.782-16.836 323.438 323.438 0 0 0-3.778-8.479c11.862-10.788 40.276-25.811 102.989-16.319-2.886 14.952-10.99 44.328-31.584 58.986zm66.34-115.013a526.828 526.828 0 0 1-40.519 34.846c-56.159-6.888-87.764 4.943-105.086 17.798 11.041-18.548 8.418-48.896.628-87.987a52.678 52.678 0 0 1-1.438-19.429 73.763 73.763 0 0 1 24.869 18.446c13.169 13.169 26.074 12.358 33.803 7.263 11.69-7.699 18.629-29.832 3.039-68.832a57.193 57.193 0 0 1-2.482-7.374 156.018 156.018 0 0 1 15.417 4.913c15.286 5.43 31.108 11.062 42.96 5.156 18.467-9.238 10.292-29.69 4.883-43.224a46.853 46.853 0 0 1-4.943-17.504c.912-.355 6.625 0 17.433 7.688 23.177 16.38 48.987 50.973 48.987 74.363 0 36.326-17.403 53.688-37.551 73.877z" />
      <g fill-rule="evenodd" clip-rule="evenodd">
        <path d="M208.197 442.284a47.61 47.61 0 0 0-25.861 39.455c0 5.594 4.535 10.13 10.13 10.13 5.594 0 10.13-4.535 10.13-10.13a27.555 27.555 0 0 1 14.719-21.354c4.999-2.518 7.01-8.611 4.493-13.609-2.519-4.998-8.612-7.009-13.611-4.492zM399.589 442.284c-4.999-2.518-11.092-.506-13.609 4.493-2.518 4.999-.506 11.092 4.493 13.609a27.586 27.586 0 0 1 14.719 21.354c0 5.594 4.535 10.13 10.13 10.13s10.13-4.535 10.13-10.13a47.616 47.616 0 0 0-25.863-39.456zM256.445 350.569c-30.622-10.211-47.914 5.48-52.786 15.195-2.501 5.007-.469 11.093 4.538 13.594s11.093.469 13.594-4.538c0-.122 6.473-12.328 28.252-5.065a10.141 10.141 0 1 0 6.402-19.246zM351.341 350.569c-5.315 1.768-8.19 7.509-6.422 12.824s7.509 8.19 12.824 6.422c20.705-6.898 27.553 3.819 28.363 5.207a10.13 10.13 0 0 0 18.042-9.219c-4.883-9.744-22.175-25.445-52.807-15.234z" />
      </g>
    </svg>
    <svg xmlns="http://www.w3.org/2000/svg" width="512" viewBox="0 0 606.587 606.587" height="512" id="c">
      <path d="M191.866 241.885c-16.784 0-30.389 13.606-30.389 30.389s13.606 30.389 30.389 30.389 30.389-13.606 30.389-30.389-13.605-30.389-30.389-30.389zm0 40.519c-5.595 0-10.13-4.535-10.13-10.13s4.535-10.13 10.13-10.13 10.13 4.535 10.13 10.13-4.535 10.13-10.13 10.13zM115.255 121.625h.537a10.13 10.13 0 0 0 8.276-4.285 164.26 164.26 0 0 1 28.525-31.007 10.13 10.13 0 0 0-.334-15.792 143.625 143.625 0 0 0-47.711-22.539 10.13 10.13 0 0 0-12.966 10.697 156.273 156.273 0 0 0 15.326 57.74 10.13 10.13 0 0 0 8.347 5.186zm14.303-41.745a195.073 195.073 0 0 0-11.143 11.811 149.31 149.31 0 0 1-4.538-19.145 128.327 128.327 0 0 1 15.681 7.334z" />
      <path d="M581.943 182.677a183.15 183.15 0 0 1-50.973-6.757 234.89 234.89 0 0 0-7.253-23.521c32.729-38.402 33.773-105.258 32.608-133.176a20.351 20.351 0 0 0-7.374-14.627A19.997 19.997 0 0 0 533.452.19c-60.049 8.408-92.89 28.181-109.736 43.214a280.232 280.232 0 0 0-120.423-24.372 312.13 312.13 0 0 0-120.372 24.463C166.066 28.401 133.336 8.638 73.135.189a20.159 20.159 0 0 0-15.499 4.406 20.382 20.382 0 0 0-7.374 14.719c-1.155 27.837-.111 94.693 32.608 133.085a234.89 234.89 0 0 0-7.253 23.521 184.098 184.098 0 0 1-50.973 6.757 20.675 20.675 0 0 0-17.14 8.56 20.262 20.262 0 0 0-2.148 19.247c15.316 38.169 60.313 115.834 178.608 148.3a116.34 116.34 0 0 0-1.56 34.441 30.45 30.45 0 0 0 14.83 22.843 128.538 128.538 0 0 0-16.208 29.376 161.753 161.753 0 0 0-52.361 132.639c1.17 15.962 14.386 28.358 30.389 28.505h288.597c16.004-.147 29.22-12.544 30.389-28.505a161.75 161.75 0 0 0-52.361-132.639 128.517 128.517 0 0 0-16.208-29.376 30.5 30.5 0 0 0 14.84-22.873 116.475 116.475 0 0 0-1.57-34.441c118.174-32.436 163.17-110.1 178.486-148.269a20.262 20.262 0 0 0-2.147-19.247 19.957 19.957 0 0 0-17.137-8.561zm-480.151-39.618C69.367 110.533 69.651 40.769 70.309 20.246c58.064 8.104 87.005 27.523 99.069 38.321a19.915 19.915 0 0 0 21.657 3.485A290.91 290.91 0 0 1 303.293 39.29a260.249 260.249 0 0 1 111.762 22.427 19.996 19.996 0 0 0 22.002-3.11c14.881-13.24 44.176-30.653 99.029-38.493.861 20.614 1.145 90.368-31.291 122.904a10.129 10.129 0 0 0-2.188 11.021c1.925 4.66 3.687 9.603 5.328 14.739-5.865-2.097-11.923-4.406-18.315-7.152-38.047-16.309-72.57-17.059-99.809-2.158a94.944 94.944 0 0 0-45.857 70.574c-1.742 10.454-3.312 20.432-4.791 29.873-2.705 17.221-5.186 32.76-7.911 46.08a117.513 117.513 0 0 0-55.916 0c-2.725-13.321-5.207-28.89-7.911-46.08-1.479-9.441-3.039-19.419-4.791-29.873a94.947 94.947 0 0 0-45.857-70.574c-27.239-14.911-61.792-14.182-99.809 2.158-6.392 2.745-12.449 5.065-18.315 7.152 1.641-5.136 3.404-10.079 5.328-14.739a10.13 10.13 0 0 0-2.189-10.98zm224.678 182.66a50.278 50.278 0 0 1-10.079 20.432 22.923 22.923 0 0 1-13.098 7.162 22.924 22.924 0 0 1-13.098-7.152 50.27 50.27 0 0 1-10.13-20.432 84.466 84.466 0 0 1 23.228-2.806 84.481 84.481 0 0 1 23.177 2.796zM24.046 202.926a241.167 241.167 0 0 0 100.903-22.64c32.121-13.766 60.525-14.8 82.112-3.039a74.313 74.313 0 0 1 35.596 56.139c1.732 10.373 3.282 20.26 4.761 29.67 6.564 41.795 11.244 71.547 22.042 89.142C98.49 341.005 41.227 245.431 24.046 202.926zm290.978 231.141a352.756 352.756 0 0 0 14.607 71.192l-39.506.142a207.49 207.49 0 0 1-9.522-71.8c7.172.436 14.627.75 22.64.75 4.103 0 7.921-.162 11.781-.284zm-44.054 77.766a19.986 19.986 0 0 0 19.155 13.685h39.506a20.261 20.261 0 0 0 16.289-8.246 20.028 20.028 0 0 0 2.978-18.031 337.277 337.277 0 0 1-13.635-66.32 290.232 290.232 0 0 0 54.113-9.593 108.323 108.323 0 0 1 24.099 54.316 64.023 64.023 0 0 0-19.014-2.776 10.128 10.128 0 0 0-9.998 11.781c.081.466 6.534 42.049-14.931 63.189a47.997 47.997 0 0 0-8.428-11.224 10.13 10.13 0 0 0-16.744 3.889 87.324 87.324 0 0 1-41.066 42.484 87.267 87.267 0 0 1-41.036-42.413 10.13 10.13 0 0 0-16.775-3.961 47.997 47.997 0 0 0-8.428 11.224c-21.465-21.141-15.012-62.723-14.931-63.189a10.13 10.13 0 0 0-9.998-11.781 63.995 63.995 0 0 0-19.014 2.776 108.196 108.196 0 0 1 24.109-54.316 282.178 282.178 0 0 0 43.193 8.438 228.865 228.865 0 0 0 10.556 80.068zm-122.135 64.699a137.768 137.768 0 0 1 23.298-89.821c-.162 2.806-.486 5.48-.486 8.418a10.128 10.128 0 0 0 6.159 9.228 10.261 10.261 0 0 0 11.021-1.955 29.286 29.286 0 0 1 12.156-5.916c-.8 21.009 2.543 61.366 37.045 78.617a10.13 10.13 0 0 0 9.633-.456 10.343 10.343 0 0 0 4.984-7.932 111.98 111.98 0 0 0 17.514 19.581H158.995a10.29 10.29 0 0 1-10.16-9.764zm308.958 0a10.292 10.292 0 0 1-10.13 9.765H336.428a111.777 111.777 0 0 0 17.514-19.561 10.131 10.131 0 0 0 14.638 8.367c34.502-17.221 37.845-57.608 37.045-78.617a29.377 29.377 0 0 1 12.044 5.804 10.13 10.13 0 0 0 17.311-7.162c0-2.968-.324-5.673-.496-8.499a137.958 137.958 0 0 1 23.268 89.902h.041zm-53.688-185.506a9.989 9.989 0 0 1-6.291 8.236 268.702 268.702 0 0 1-94.521 14.83 268.618 268.618 0 0 1-94.48-14.84 9.948 9.948 0 0 1-6.26-8.205 95.683 95.683 0 0 1 1.104-27.482 468.905 468.905 0 0 0 99.636 10.008 468.898 468.898 0 0 0 99.636-10.008 95.904 95.904 0 0 1 1.114 27.462h.062zm-66.917-38.797c10.798-17.585 15.478-47.336 22.042-89.142 1.479-9.38 3.039-19.297 4.761-29.67a74.312 74.312 0 0 1 35.535-56.129 69.612 69.612 0 0 1 33.854-8.104c16.672.43 33.086 4.22 48.258 11.143a239.429 239.429 0 0 0 100.801 22.599c-17.089 42.505-74.342 138.079-245.312 149.303z" />
      <path d="M414.721 241.885c-16.784 0-30.389 13.606-30.389 30.389s13.606 30.389 30.389 30.389c16.784 0 30.389-13.606 30.389-30.389s-13.605-30.389-30.389-30.389zm0 40.519c-5.595 0-10.13-4.535-10.13-10.13s4.535-10.13 10.13-10.13 10.13 4.535 10.13 10.13-4.535 10.13-10.13 10.13zM482.53 117.37a10.13 10.13 0 0 0 8.266 4.275h.537a10.13 10.13 0 0 0 8.306-5.166 156.312 156.312 0 0 0 15.326-57.74 10.13 10.13 0 0 0-12.926-10.738 143.595 143.595 0 0 0-47.711 22.559 10.13 10.13 0 0 0-.334 15.792 164.475 164.475 0 0 1 28.536 31.018zm10.129-44.824a147.497 147.497 0 0 1-4.538 19.145c-3.535-4.052-7.253-8.043-11.143-11.811a128.117 128.117 0 0 1 15.742-7.334z" />
    </svg>
    <svg xmlns="http://www.w3.org/2000/svg" width="512" viewBox="0 0 607.784 607.784" height="512" id="d">
      <path d="M303.891 314.023c-12.531 0-50.649 0-50.649 30.389 2.029 27.088 23.561 48.62 50.649 50.649 27.088-2.029 48.62-23.561 50.649-50.649 0-30.389-38.118-30.389-50.649-30.389zm0 60.778c-15.967-1.824-28.565-14.422-30.389-30.389 0-3.039 0-10.13 30.389-10.13s30.389 7.091 30.389 10.13c-1.824 15.967-14.422 28.565-30.389 30.389zM212.723 283.633c-16.784 0-30.389 13.606-30.389 30.389s13.606 30.389 30.389 30.389 30.389-13.606 30.389-30.389-13.605-30.389-30.389-30.389zm0 40.519c-5.595 0-10.13-4.535-10.13-10.13s4.535-10.13 10.13-10.13 10.13 4.535 10.13 10.13-4.535 10.13-10.13 10.13zM425.448 314.023c0-16.784-13.606-30.389-30.389-30.389s-30.389 13.606-30.389 30.389 13.606 30.389 30.389 30.389 30.389-13.606 30.389-30.389zm-30.389 10.129c-5.595 0-10.13-4.535-10.13-10.13s4.535-10.13 10.13-10.13 10.13 4.535 10.13 10.13-4.535 10.13-10.13 10.13z" />
      <path d="M70.957 262.361c-8.418 84.452 4.153 232.265 8.195 275.529 1.421 16.684 15.428 29.474 32.172 29.376a32.761 32.761 0 0 0 21.961-8.56 32.323 32.323 0 0 0 10.312-20.918l4.123-45.371a74.128 74.128 0 0 0 27.026 11.973c9.066 67.667 39.597 99.079 40.944 100.426a10.131 10.131 0 0 0 17.292-7.162v-73.218a172.941 172.941 0 0 0 70.908 12.439 172.957 172.957 0 0 0 70.908-12.439v73.218a10.131 10.131 0 0 0 17.292 7.162c1.347-1.347 31.878-32.76 40.945-100.426a74.154 74.154 0 0 0 27.026-11.973l4.123 45.351c1.411 16.748 15.466 29.594 32.273 29.498a32.69 32.69 0 0 0 21.87-8.458 32.336 32.336 0 0 0 10.302-20.918c4.052-43.284 16.613-191.098 8.195-275.529-8.661-86.65-86.184-171.983-172.155-201.157v-.425C364.67 27.211 337.458 0 303.891 0s-60.779 27.211-60.779 60.779v.425C157.141 90.378 79.618 175.711 70.957 262.361zm124.475 244.006a72.308 72.308 0 0 0 17.292-2.583v59.766a199.867 199.867 0 0 1-17.292-57.183zm108.459 10.251c-42.717 0-63.666-10.484-70.908-15.195v-6.534l3.171-1.783a117.092 117.092 0 0 1 67.738-17.008 117.093 117.093 0 0 1 67.738 17.028l3.171 1.783v6.513c-7.244 4.712-28.193 15.196-70.91 15.196zm91.168-12.835a72.242 72.242 0 0 0 17.292 2.583 199.754 199.754 0 0 1-17.292 57.193zm20.26-17.554a60.133 60.133 0 0 1-33.702-10.727 136.106 136.106 0 0 0-77.726-19.662 136.106 136.106 0 0 0-77.726 19.662 60.128 60.128 0 0 1-33.702 10.727 47.678 47.678 0 0 1-50.649-50.649 114.964 114.964 0 0 1 17.616-57.324 29.844 29.844 0 0 0 1.013-29.478 161.421 161.421 0 0 1-17.524-94.734c.375-3.16.851-6.291 1.398-9.4a20.816 20.816 0 0 1 9.208-13.432c40.094-26.439 87.866-38.746 150.366-38.746s110.242 12.308 150.295 38.726a21.193 21.193 0 0 1 9.35 14.182 165.558 165.558 0 0 1 2.431 28.13 162.481 162.481 0 0 1-18.781 75.467 29.69 29.69 0 0 0 1.165 29.295 114.905 114.905 0 0 1 17.616 57.314 47.678 47.678 0 0 1-50.648 50.649zM303.891 20.26c20.207.058 37.269 15.023 39.962 35.049a173.687 173.687 0 0 0-79.924 0c2.693-20.027 19.756-34.992 39.962-35.049zm0 50.648c95.807 0 203.193 97.641 212.776 193.478 8.225 82.649-4.204 228.821-8.215 271.721a11.91 11.91 0 0 1-3.758 7.729 12.37 12.37 0 0 1-8.236 3.171 12.206 12.206 0 0 1-12.095-11.041l-5.906-65.003a76.652 76.652 0 0 0 7.77-35.383 134.996 134.996 0 0 0-20.503-67.738 9.585 9.585 0 0 1-.608-9.431 182.928 182.928 0 0 0 21.11-84.908 185.227 185.227 0 0 0-2.725-31.574 41.805 41.805 0 0 0-18.163-27.644c-42.93-28.313-95.726-42.079-161.448-42.079s-118.518 13.766-161.489 42.099a41.083 41.083 0 0 0-17.98 26.783 181.915 181.915 0 0 0-1.58 10.555 181.59 181.59 0 0 0 19.723 106.575 9.762 9.762 0 0 1-.507 9.623 135.006 135.006 0 0 0-20.503 67.738 76.627 76.627 0 0 0 7.77 35.383l-5.906 65.013a12.049 12.049 0 0 1-3.778 7.759 12.358 12.358 0 0 1-8.317 3.272 11.964 11.964 0 0 1-11.994-10.971c-4.052-42.839-16.441-189.011-8.215-271.65 9.584-95.836 116.97-193.477 212.777-193.477z" />
      <g fill-rule="evenodd" clip-rule="evenodd">
        <circle r="10.13" cy="425.45" cx="172.204" />
        <circle r="10.13" cy="455.839" cx="192.464" />
        <circle r="10.13" cy="425.45" cx="435.578" />
        <circle r="10.13" cy="455.839" cx="415.319" />
      </g>
    </svg>
    <svg xmlns="http://www.w3.org/2000/svg" width="512" viewBox="0 0 607.786 607.786" height="512" id="e">
      <path d="M105.337 299.841a175.596 175.596 0 0 0-13.169 64.83c.147 51.498 27.41 99.111 71.749 125.305a60.379 60.379 0 0 0-10.971 36.771v40.519c0 14.009 10.353 40.519 49.535 40.519h204.824c39.182 0 49.535-26.51 49.535-40.519v-40.519a60.372 60.372 0 0 0-10.971-36.771c44.339-26.194 71.602-73.807 71.749-125.305a175.572 175.572 0 0 0-13.169-64.83c42.322-13.371 63.818-59.138 63.818-136.549a28.698 28.698 0 0 0-16.501-29.447c-17.494-7.263-43.558 4.477-71.668 32.273a109.573 109.573 0 0 1-15.245 12.47 247.943 247.943 0 0 0 20.725-51.966 112.269 112.269 0 0 0 69.369-52.158c7.193-14.812 1.281-32.657-13.332-40.245s-32.611-2.158-40.589 12.246a33.456 33.456 0 0 1-4.194 5.349c.355-7.091.527-14.182.527-21.384 0-16.784-13.606-30.389-30.389-30.389-16.784 0-30.389 13.606-30.389 30.389a330.263 330.263 0 0 1-5.136 59.907 57.037 57.037 0 0 1-5.45-14.465c-3.227-16.075-18.624-26.693-34.797-23.994s-27.288 17.74-25.121 33.992a112.057 112.057 0 0 0 42.808 68.761 135.971 135.971 0 0 1-19.125 25.821 205.584 205.584 0 0 0-169.734 0 135.971 135.971 0 0 1-19.125-25.821 112.083 112.083 0 0 0 42.778-68.548c2.379-16.307-8.673-31.538-24.913-34.335s-31.751 7.86-34.964 24.023a56.179 56.179 0 0 1-5.46 14.526 330.271 330.271 0 0 1-5.136-59.907c0-16.784-13.605-30.39-30.389-30.39s-30.389 13.606-30.389 30.389c0 7.172.172 14.283.527 21.394a32.205 32.205 0 0 1-3.92-5.065c-7.642-14.965-25.969-20.902-40.934-13.26S47.198 59.428 54.84 74.393a112.267 112.267 0 0 0 69.369 52.229 247.979 247.979 0 0 0 20.725 52.006 110.267 110.267 0 0 1-15.286-12.5c-28.07-27.786-54.194-39.567-71.668-32.273a28.7 28.7 0 0 0-16.461 29.437c.001 77.411 21.496 123.178 63.818 136.549zM436.58 526.748v40.387c-.081 2.988-1.52 16.39-20.26 19.662v-29.66c0-5.594-4.535-10.13-10.13-10.13-5.594 0-10.13 4.535-10.13 10.13v30.389h-30.389v-30.389c0-5.594-4.535-10.13-10.13-10.13s-10.13 4.535-10.13 10.13v30.389h-30.389v-30.389c0-5.594-4.535-10.13-10.13-10.13s-10.13 4.535-10.13 10.13v30.389h-30.389v-30.389c0-5.594-4.535-10.13-10.13-10.13s-10.13 4.535-10.13 10.13v30.389h-30.389v-30.389c0-5.594-4.535-10.13-10.13-10.13s-10.13 4.535-10.13 10.13v29.66c-18.74-3.272-20.178-16.663-20.26-19.53v-40.519a39.157 39.157 0 0 1 8.61-26.53 274.516 274.516 0 0 0 123.077 26.53 274.52 274.52 0 0 0 123.077-26.53 39.14 39.14 0 0 1 8.612 26.53zm-131.687-20.26c-113.322 0-192.465-58.317-192.465-141.817a173.559 173.559 0 0 1 35.586-100.477c59.046 5.642 97.539 31.291 114.466 76.459a101.595 101.595 0 0 0-12.774 4.822c-5.01 2.492-7.051 8.574-4.558 13.584 2.492 5.01 8.574 7.051 13.584 4.558a121.87 121.87 0 0 1 92.302 0c5.01 2.492 11.092.451 13.584-4.558s.452-11.092-4.558-13.584a101.536 101.536 0 0 0-12.774-4.822c16.937-45.169 55.43-70.817 114.466-76.459a173.56 173.56 0 0 1 35.606 100.477c.001 83.5-79.143 141.817-192.465 141.817zM494.32 180.512c27.35-27.087 44.409-30.136 49.636-27.958 3.515 1.459 4.052 7.354 4.052 10.738 0 26.125-.152 103.324-52.148 117.789a226.448 226.448 0 0 0-54.144-67.707 156.55 156.55 0 0 0 52.604-32.862zm-63.017-24.929a10.13 10.13 0 0 0-4.153-13.412 89.781 89.781 0 0 1-41.086-59.441c-.917-5.495 2.776-10.7 8.266-11.649a10.239 10.239 0 0 1 11.76 8.691 71.144 71.144 0 0 0 24.625 40.519 10.13 10.13 0 0 0 15.995-5.43 327.62 327.62 0 0 0 10.13-84.472c0-5.595 4.535-10.13 10.13-10.13 5.594 0 10.13 4.535 10.13 10.13a411.78 411.78 0 0 1-2.026 41.34 10.13 10.13 0 0 0 14.546 10.129 68.343 68.343 0 0 0 29.194-25.618 10.353 10.353 0 0 1 13.594-4.295c4.905 2.498 6.891 8.475 4.457 13.412a93.94 93.94 0 0 1-61.792 43.031 10.13 10.13 0 0 0-7.587 7.405 211.298 211.298 0 0 1-38.311 80.724 163.966 163.966 0 0 1-6.746 2.279c-4.528-3.039-9.117-6.078-13.939-8.783a164.533 164.533 0 0 0 22.853-34.431h-.04zm15.103 90.094c-73.947 11.244-105.664 52.938-119.004 90.357a145.922 145.922 0 0 0-45.098 0c-13.341-37.419-45.067-79.113-119.004-90.357a193.472 193.472 0 0 1 141.594-63.341 193.477 193.477 0 0 1 141.553 63.341zM142.311 115.743a10.13 10.13 0 0 0-7.597-7.354 93.996 93.996 0 0 1-61.792-42.93 10.168 10.168 0 1 1 18.03-9.4 66.255 66.255 0 0 0 29.224 25.831 10.129 10.129 0 0 0 14.526-10.13 411.76 411.76 0 0 1-2.016-41.37c0-5.595 4.535-10.13 10.13-10.13 5.594 0 10.13 4.535 10.13 10.13a327.576 327.576 0 0 0 10.13 84.472 10.13 10.13 0 0 0 15.894 5.46 70.754 70.754 0 0 0 24.717-40.884 10.131 10.131 0 0 1 16.679-6.455 10.13 10.13 0 0 1 3.257 9.909 89.79 89.79 0 0 1-41.066 59.279 10.13 10.13 0 0 0-4.153 13.412 164.521 164.521 0 0 0 22.853 34.441c-4.781 2.745-9.411 5.703-13.939 8.782a278.656 278.656 0 0 1-6.746-2.279 211.266 211.266 0 0 1-38.261-80.784zm-76.48 36.811c5.217-2.178 22.285.871 49.636 27.958a156.548 156.548 0 0 0 52.675 32.861 226.46 226.46 0 0 0-54.144 67.707c-52.067-14.486-52.219-91.654-52.219-117.789 0-3.383.527-9.319 4.052-10.737z" transform="translate(-1)" />
      <path d="M348.38 448.678a28.12 28.12 0 0 1-33.357 1.428v-15.539c17.636-3.312 30.389-14.962 30.389-29.376 0-17.038-17.798-30.389-40.519-30.389s-40.519 13.351-40.519 30.389c0 14.394 12.753 26.044 30.389 29.376v15.559a27.969 27.969 0 0 1-33.357-1.428c-3.975-3.839-10.293-3.784-14.2.123s-3.962 10.225-.123 14.2c16.112 14.186 39.638 16.078 57.811 4.65a55.258 55.258 0 0 0 26.702 7.253 45.176 45.176 0 0 0 31.108-11.923c3.839-3.975 3.784-10.293-.123-14.2s-10.226-3.962-14.201-.123zm-63.746-43.488c0-4.133 7.891-10.13 20.26-10.13s20.26 5.997 20.26 10.13-7.891 10.13-20.26 10.13-20.26-5.997-20.26-10.13z" transform="translate(-1)" />
      <g fill-rule="evenodd" clip-rule="evenodd">
        <path d="M304.893 222.855c5.595 0 10.13-4.535 10.13-10.13v-10.13c0-5.595-4.535-10.13-10.13-10.13s-10.13 4.535-10.13 10.13v10.13c.001 5.595 4.536 10.13 10.13 10.13zM345.412 243.114c5.595 0 10.13-4.535 10.13-10.13v-10.13c0-5.595-4.535-10.13-10.13-10.13s-10.13 4.535-10.13 10.13v10.13c.001 5.595 4.536 10.13 10.13 10.13zM264.374 243.114c5.595 0 10.13-4.535 10.13-10.13v-10.13c0-5.595-4.535-10.13-10.13-10.13s-10.13 4.535-10.13 10.13v10.13c.001 5.595 4.536 10.13 10.13 10.13zM304.893 273.504c5.595 0 10.13-4.535 10.13-10.13v-10.13c0-5.595-4.535-10.13-10.13-10.13s-10.13 4.535-10.13 10.13v10.13c.001 5.594 4.536 10.13 10.13 10.13z" transform="translate(-1)" />
      </g>
      <path d="M426.45 334.282c-16.784 0-30.389 13.606-30.389 30.389 0 16.784 13.606 30.389 30.389 30.389 16.784 0 30.389-13.606 30.389-30.389.001-16.783-13.605-30.389-30.389-30.389zm0 40.519c-5.594 0-10.13-4.535-10.13-10.13 0-5.594 4.535-10.13 10.13-10.13s10.13 4.535 10.13 10.13-4.535 10.13-10.13 10.13zM183.336 334.282c-16.784 0-30.389 13.606-30.389 30.389 0 16.784 13.606 30.389 30.389 30.389s30.389-13.606 30.389-30.389-13.605-30.389-30.389-30.389zm0 40.519c-5.595 0-10.13-4.535-10.13-10.13 0-5.594 4.535-10.13 10.13-10.13s10.13 4.535 10.13 10.13-4.535 10.13-10.13 10.13z" transform="translate(-1)" />
    </svg>
    <svg xmlns="http://www.w3.org/2000/svg" width="512" viewBox="0 0 607.823 607.823" height="512" id="f">
      <path d="M204.668 142.641c13.176-6.6 19.717-21.703 15.519-35.829-12.623-42.553-54.057-69.832-98.134-64.608S44.066 83.638 41.74 127.963c-2.325 44.325 27.61 83.883 70.899 93.69 2.104.479 4.255.72 6.412.719a30.774 30.774 0 0 0 28.12-19.084 118.063 118.063 0 0 1 57.497-60.637zm-9.117-18.081a137.761 137.761 0 0 0-66.988 70.848 10.251 10.251 0 0 1-11.426 6.483c-33.511-7.533-56.805-38.001-55.287-72.315s27.411-62.606 61.456-67.151a72.952 72.952 0 0 1 9.33-.608c31.461-.125 59.216 20.564 68.082 50.75a10.131 10.131 0 0 1-5.167 11.993z" transform="translate(-1 -1)" />
      <path d="M477.158 1.037c-62.018.168-115.553 43.494-128.648 104.114a339.602 339.602 0 0 0-87.116 0C247.429 39.738 186.626-4.801 120.048 1.613S2.286 63.354 1.065 130.23s47.907 124.034 114.208 132.875a244.413 244.413 0 0 0 28.951 117.799c11.376 19.773 23.157 39.141 35.535 57.02-16.589 5.741-27.459 21.672-26.753 39.212v50.649c-1.349 20.851 14.318 38.91 35.15 40.519h86.407v20.26c0 11.189 9.07 20.26 20.26 20.26H396.12c11.189 0 20.26-9.07 20.26-20.26v-20.26h5.369c20.832-1.609 36.499-19.668 35.15-40.519v-50.649c.714-17.545-10.157-33.484-26.753-39.222 12.368-17.879 24.159-37.237 35.525-57.02a244.306 244.306 0 0 0 28.961-117.789c68.678-9.199 118.462-70.07 113.852-139.207S546.45 1.036 477.158 1.037zM396.12 588.563H294.823v-20.26H396.12zm25.629-131.687c8.215 0 14.891 9.117 14.891 20.26v50.649c0 11.143-6.676 20.26-14.891 20.26H188.156c-8.215 0-14.891-9.117-14.891-20.26v-50.649c0-11.143 6.676-20.26 14.891-20.26h5.47c31.959 41.4 68.052 70.908 111.326 70.908s79.367-29.508 111.326-70.908zm61.791-213.069a10.128 10.128 0 0 0-9.542 10.718 222.314 222.314 0 0 1-25.882 116.249c-40.853 71.03-86.437 136.752-143.164 136.752s-102.311-65.722-143.174-136.752a222.417 222.417 0 0 1-25.922-116.259 10.134 10.134 0 0 0-9.542-10.718c-58.676-3.374-104.625-51.771-104.953-110.543C21.034 74.482 66.442 25.577 125.077 21.55s110.302 38.212 118.013 96.476a10.13 10.13 0 0 0 11.801 8.651 310.915 310.915 0 0 1 100.123 0 9.947 9.947 0 0 0 7.749-1.803 10.129 10.129 0 0 0 4.052-6.848C374.52 59.745 426.2 17.491 484.85 21.518s104.069 52.948 103.736 111.736c-.333 58.787-46.303 107.191-104.995 110.554h-.051z" transform="translate(-1 -1)" />
      <path d="M489.172 42.326c-44.503-5.962-86.708 21.411-99.413 64.476-4.186 14.12 2.331 29.213 15.478 35.849a118.062 118.062 0 0 1 57.456 60.637 30.784 30.784 0 0 0 28.12 19.084c2.157 0 4.308-.241 6.412-.719 45.338-10.287 75.696-53.012 70.493-99.211-4.831-41.501-37.148-74.464-78.546-80.116zm3.647 159.564a10.291 10.291 0 0 1-11.426-6.483 137.769 137.769 0 0 0-66.988-70.848 10.13 10.13 0 0 1-5.217-12.004c8.876-30.178 36.626-50.86 68.082-50.74 3.119 0 6.236.199 9.329.598 32.156 4.374 57.267 29.973 61.022 62.207 4.092 35.959-19.513 69.242-54.802 77.27zM304.953 406.228c-12.52 0-50.649 0-50.649 30.389 2.033 27.086 23.563 48.616 50.649 50.649 27.086-2.033 48.616-23.563 50.649-50.649-.001-30.389-38.129-30.389-50.649-30.389zm0 60.778c-15.967-1.824-28.565-14.422-30.389-30.389 0-3.039 0-10.13 30.389-10.13s30.389 7.091 30.389 10.13c-1.824 15.967-14.422 28.565-30.389 30.389zM213.785 284.671c-22.378 0-40.519 18.141-40.519 40.519s18.141 40.519 40.519 40.519 40.519-18.141 40.519-40.519-18.141-40.519-40.519-40.519zm0 60.778c-11.189 0-20.26-9.071-20.26-20.26s9.07-20.26 20.26-20.26c11.189 0 20.26 9.07 20.26 20.26-.001 11.19-9.071 20.26-20.26 20.26zM396.12 284.671c-22.378 0-40.519 18.141-40.519 40.519s18.141 40.519 40.519 40.519 40.519-18.141 40.519-40.519-18.141-40.519-40.519-40.519zm0 60.778c-11.189 0-20.26-9.071-20.26-20.26s9.07-20.26 20.26-20.26 20.26 9.07 20.26 20.26-9.071 20.26-20.26 20.26z" transform="translate(-1 -1)" />
    </svg>
    <svg xmlns="http://www.w3.org/2000/svg" width="512" viewBox="0 0 607.958 607.958" height="512" id="g">
      <path d="m126.057 164.586-6.301 11.68a28.825 28.825 0 0 1-5.693 7.516c-27.067 25.162-72.458 78.323-72.458 151.622a127.635 127.635 0 0 0 37.976 97.246 469.541 469.541 0 0 0 1.469 100.153 20.16 20.16 0 0 0 15.863 16.481c11.963 2.451 42.889 8.904 71.678 15.782 1.56.373 3.157.564 4.761.567 11.165-.034 20.199-9.094 20.199-20.26v-44.672a268.256 268.256 0 0 0 48.228 12.156 159.274 159.274 0 0 0 8.539 58.418 45.502 45.502 0 0 0-25.324 22.974c-2.501 5.007-.469 11.093 4.538 13.594s11.093.469 13.594-4.538a25.903 25.903 0 0 1 21.333-14.658 9.298 9.298 0 0 1 10.13 10.231c.028 5.595 4.586 10.107 10.18 10.079 5.595-.028 10.107-4.586 10.079-10.18.311-14.238-9.535-26.689-23.461-29.67a132.24 132.24 0 0 1-9.4-53.688 404.854 404.854 0 0 0 85.981 0 132.26 132.26 0 0 1-9.4 53.688c-13.926 2.981-23.771 15.432-23.461 29.67.005 5.529 4.469 10.02 9.998 10.059h.132a10.19 10.19 0 0 0 10.13-9.937 9.3 9.3 0 0 1 10.079-10.251 25.872 25.872 0 0 1 21.374 14.658c2.501 5.007 8.587 7.039 13.594 4.538s7.039-8.587 4.538-13.594a45.501 45.501 0 0 0-25.324-22.974 159.28 159.28 0 0 0 8.539-58.418 268.218 268.218 0 0 0 48.238-12.166v44.672c0 11.165 9.033 20.226 20.199 20.26a20.55 20.55 0 0 0 4.751-.567c28.799-6.878 59.766-13.331 71.688-15.782a20.158 20.158 0 0 0 15.863-16.481 469.607 469.607 0 0 0 1.469-100.153 127.638 127.638 0 0 0 37.977-97.236c0-73.299-45.391-126.46-72.448-151.622a28.627 28.627 0 0 1-5.703-7.516l-6.301-11.68c-2.502-4.599-4.781-8.783-5.845-10.849-3.404-6.524-6.686-13.169-9.978-19.814a54.437 54.437 0 0 0 26.398-14.182 34.735 34.735 0 0 0 12.085-32.334 50.284 50.284 0 0 0-25.932-30.075 47.305 47.305 0 0 0 1.702-40.124c-6.047-10.677-18.011-16.086-35.535-16.086a66.702 66.702 0 0 0-54.366 25.375 145.174 145.174 0 0 0-87.45-25.375 142.64 142.64 0 0 0-93.893 30.258 67.486 67.486 0 0 0-58.054-30.258c-17.524 0-29.488 5.409-35.535 16.086a47.305 47.305 0 0 0 1.702 40.124 50.287 50.287 0 0 0-25.932 30.075 34.736 34.736 0 0 0 12.075 32.304 57.562 57.562 0 0 0 35.748 15.762c-3.039 6.129-6.078 12.257-9.218 18.294-1.033 2.035-3.312 6.219-5.815 10.818zM61.865 335.404a157.607 157.607 0 0 1 6.513-44.571c4.518 2.978 9.37 5.906 14.506 8.762-4.295 37.48-2.846 84.401 18.75 125.255-26.6-20.564-39.769-50.092-39.769-89.446zm81.433 111.995c-39.638-38.817-44.966-94.166-41.015-138.119a370.21 370.21 0 0 0 72.245 23.298 129.436 129.436 0 0 0-31.625 83.864 125.496 125.496 0 0 0 5.014 34.907c-1.499-1.347-3.19-2.552-4.619-3.95zm29.995 97.965c-29.083-6.949-60.262-13.452-72.266-15.732a419.078 419.078 0 0 1-2.137-81.97 167.667 167.667 0 0 0 32.051 15.782 166.274 166.274 0 0 0 42.353 28.738v53.182zm6.077-72.732a108.253 108.253 0 0 1-16.208-56.19 111.094 111.094 0 0 1 34.694-79.306 640.489 640.489 0 0 0 107.122 8.398 640.27 640.27 0 0 0 107.122-8.398 111.09 111.09 0 0 1 34.694 79.306 108.152 108.152 0 0 1-16.208 56.19c-32.273 16.39-74.16 24.848-125.609 24.848s-93.333-8.458-125.607-24.848zm328.306-163.353c3.92 43.953-1.378 99.272-41.026 138.119-1.428 1.408-3.11 2.603-4.609 3.951a125.496 125.496 0 0 0 5.014-34.907 129.446 129.446 0 0 0-31.625-83.895 370.15 370.15 0 0 0 72.246-23.268zm1.297 220.161c-12.065 2.472-43.244 8.975-72.306 15.924v-53.181a166.056 166.056 0 0 0 42.322-28.738 166.905 166.905 0 0 0 32.061-15.782 420.78 420.78 0 0 1-2.077 81.777zm-.659-104.6c21.607-40.853 23.055-87.734 18.75-125.265a218.991 218.991 0 0 0 14.516-8.752 157.569 157.569 0 0 1 6.513 44.581c.001 39.364-13.168 68.882-39.779 89.436zm-26.216-226.188a221.924 221.924 0 0 1 52.371 72.57 197.08 197.08 0 0 1-22.934 13.776c-35.616 18.355-100.376 40.276-206.556 40.276s-170.94-21.921-206.546-40.296a197.29 197.29 0 0 1-22.944-13.787 221.837 221.837 0 0 1 52.381-72.539 48.87 48.87 0 0 0 9.755-12.804l6.24-11.558 1.114-2.026c24.332 12.206 75.923 31.453 160 31.453s135.668-19.247 160.05-31.534l1.114 2.026 6.24 11.558a48.909 48.909 0 0 0 9.715 12.885zM202.203 69.66a70.102 70.102 0 0 1 31.868-7.759 70.91 70.91 0 0 1 62.045 36.609 10.13 10.13 0 0 0 17.728 0 70.91 70.91 0 0 1 62.045-36.609 70.128 70.128 0 0 1 31.868 7.759 384.945 384.945 0 0 1 39.587 68.123c2.725 5.521 5.511 10.981 8.276 16.451-22.448 11.325-70.615 29.224-150.64 29.224s-128.192-17.909-150.65-29.234c2.776-5.47 5.561-10.92 8.286-16.441a384.945 384.945 0 0 1 39.587-68.123zm244.593-48.279c5.45 0 15.022.75 17.899 5.794 4.143 7.293-2.482 23.045-6.321 29.508a10.132 10.132 0 0 0 4.903 14.617c6.878 2.786 21.657 11.386 23.43 20.199.821 4.052-1.378 8.712-6.554 13.878a36.18 36.18 0 0 1-21.445 9.785 271.242 271.242 0 0 0-50.73-75.73 47.293 47.293 0 0 1 38.818-18.051zm-68.295 20.422c-.871-.02-1.742-.162-2.613-.162a91.168 91.168 0 0 0-70.908 33.884 91.17 91.17 0 0 0-70.908-33.884c-.871 0-1.742.142-2.613.162a126.51 126.51 0 0 1 73.522-20.422 126.508 126.508 0 0 1 73.52 20.422zM113.122 91.5c1.773-8.813 16.552-17.413 23.41-20.189a10.13 10.13 0 0 0 4.933-14.607c-3.849-6.483-10.474-22.285-6.331-29.528 2.877-5.045 12.449-5.794 17.899-5.794a48.034 48.034 0 0 1 43.041 24.089 295.242 295.242 0 0 0-45.067 70.118 41.217 41.217 0 0 1-31.341-10.241c-5.126-5.137-7.365-9.807-6.544-13.848z" transform="translate(-1 -1)" />
      <path d="M234.071 163.198c16.784 0 30.389-13.606 30.389-30.389s-13.606-30.389-30.389-30.389-30.389 13.606-30.389 30.389 13.606 30.389 30.389 30.389zm0-40.519c5.595 0 10.13 4.535 10.13 10.13 0 5.594-4.535 10.13-10.13 10.13s-10.13-4.535-10.13-10.13 4.536-10.13 10.13-10.13zM375.888 163.198c16.784 0 30.389-13.606 30.389-30.389s-13.606-30.389-30.389-30.389c-16.784 0-30.389 13.606-30.389 30.389s13.605 30.389 30.389 30.389zm0-40.519c5.594 0 10.13 4.535 10.13 10.13 0 5.594-4.535 10.13-10.13 10.13s-10.13-4.535-10.13-10.13 4.535-10.13 10.13-10.13z" transform="translate(-1 -1)" />
      <g fill-rule="evenodd" clip-rule="evenodd">
        <path d="m280.192 162.185 20.26 10.13a10.133 10.133 0 0 0 9.056 0l20.26-10.13c5.007-2.501 7.039-8.587 4.538-13.594s-8.587-7.039-13.594-4.538l-15.732 7.82-15.732-7.871a10.132 10.132 0 0 0-14.644 9.678 10.135 10.135 0 0 0 5.587 8.454v.051zM439.867 244.753a10.13 10.13 0 0 0-10.363 2.451l-15.843 15.833-24.443-8.154a10.13 10.13 0 0 0-10.363 2.451l-15.843 15.833-24.443-8.154a10.2 10.2 0 0 0-8.823 1.185l-24.767 16.532-24.767-16.512a10.13 10.13 0 0 0-8.823-1.185l-24.443 8.154-15.843-15.833a10.13 10.13 0 0 0-10.363-2.451l-24.443 8.154-15.843-15.833a10.13 10.13 0 0 0-10.363-2.451l-24.443 8.154-15.843-15.833c-3.975-3.839-10.293-3.784-14.2.123s-3.962 10.225-.123 14.2l20.26 20.26a10.13 10.13 0 0 0 10.363 2.451l24.443-8.154 15.843 15.833a10.13 10.13 0 0 0 10.363 2.451l24.443-8.154 15.843 15.833a10.13 10.13 0 0 0 10.363 2.451l25.699-8.56 26.256 17.504a10.13 10.13 0 0 0 11.244 0l26.256-17.565 25.699 8.56a10.13 10.13 0 0 0 10.363-2.451l15.843-15.833 24.443 8.154a10.13 10.13 0 0 0 10.363-2.451l15.843-15.833 24.443 8.154a10.13 10.13 0 0 0 10.363-2.451l20.26-20.26c3.839-3.975 3.784-10.293-.123-14.2s-10.225-3.962-14.2-.123l-15.843 15.833z" transform="translate(-1 -1)" />
      </g>
    </svg>
    <svg xmlns="http://www.w3.org/2000/svg" width="512" viewBox="0 0 607.796 607.796" height="512" id="h">
      <path d="M445.221 206.897a54.704 54.704 0 0 0-20.543-39.567 335.508 335.508 0 0 0-18.234-66.411c22.442-5.107 38.608-24.72 39.337-47.725S431.619 9.593 409.545 3.076c-22.074-6.518-45.765 2.687-57.649 22.398-29.113-19.113-66.796-19.113-95.909 0C244.096 5.791 220.423-3.389 198.371 3.13s-36.929 27.095-36.208 50.079 16.859 42.587 39.276 47.711a335.508 335.508 0 0 0-18.234 66.411 54.7 54.7 0 0 0-20.543 39.567c-17.15 8.327-65.246 38.321-99.272 124.687-25.405 64.486-8.884 111.691 17.18 128.304a41.035 41.035 0 0 0 22.103 6.676 39.185 39.185 0 0 0 18.021-4.639 126.619 126.619 0 0 0 24.96 37.855c10.626 72.286 29.782 109.017 56.95 109.017 19.439 0 42.9-10.059 48.977-55.592a278.354 278.354 0 0 0 52.32 4.943 279.215 279.215 0 0 0 52.29-4.943c6.108 45.533 29.569 55.592 49.008 55.592 27.168 0 46.323-36.731 56.95-109.037a126.63 126.63 0 0 0 24.96-37.845 39.185 39.185 0 0 0 18.021 4.639 41.018 41.018 0 0 0 22.103-6.676c26.064-16.593 42.545-63.818 17.221-128.293-33.987-86.378-82.083-116.362-99.233-124.689zm80.421 132.102a159.953 159.953 0 0 1 10.413 39.982 67.655 67.655 0 0 1-40.519 6.291 393.312 393.312 0 0 0-27.806-137.096 249.372 249.372 0 0 1 57.912 90.823zm-221.741 46.942c-95.291 0-148.816 10.474-172.054 16.633 2.289-107.588 31.139-159.037 42.727-175.508 16.593 9.188 58.145 27.188 129.327 27.188s112.734-18.001 129.327-27.178c11.629 16.501 40.438 67.971 42.727 175.498-23.237-6.159-76.763-16.633-172.054-16.633zm98.127 24.797c-11.317 44.971-51.754 76.493-98.127 76.493s-86.81-31.523-98.127-76.493a969.28 969.28 0 0 1 98.127-4.538 969.864 969.864 0 0 1 98.127 4.538zM192.342 186.02c13.655 9.481 48.005 27.715 111.559 27.715s97.884-18.234 111.529-27.715a36.575 36.575 0 0 1 9.623 22.377c-12.51 7.162-51.49 25.598-121.152 25.598s-108.642-18.436-121.152-25.598a36.58 36.58 0 0 1 9.613-22.377zM395.069 21.269c16.243-.086 29.665 12.649 30.434 28.873.769 16.225-11.389 30.171-27.567 31.622a162.06 162.06 0 0 0-30.217-43.274 30.266 30.266 0 0 1 27.35-17.221zm9.319 147.743c-10.069 7.142-40.722 24.463-100.487 24.463s-90.489-17.362-100.487-24.463c4.639-26.358 28.566-137.613 100.487-137.613s95.838 111.235 100.487 137.613zM182.344 51.659c.036-14.151 9.835-26.404 23.632-29.551s27.94 3.646 34.108 16.382a162.063 162.063 0 0 0-30.207 43.254c-15.508-1.539-27.371-14.503-27.533-30.085zm-42.271 196.517a393.38 393.38 0 0 0-27.816 137.137 67.594 67.594 0 0 1-40.519-6.291 159.894 159.894 0 0 1 10.424-40.013 249.265 249.265 0 0 1 57.911-90.833zM91.45 442.819a54.53 54.53 0 0 1-20.128-41.988 87.762 87.762 0 0 0 30.754 5.419c3.039 0 6.26-.203 9.552-.517-.061 3.556-.192 6.939-.192 10.596a117.519 117.519 0 0 0 3.039 25.821 19.338 19.338 0 0 1-23.025.628zm111.154 145.717c-10.13 0-23.39-21.364-32.82-68.133a204.522 204.522 0 0 0 61.994 28.252c-4.042 35.515-18.386 39.881-29.174 39.881zm202.595 0c-10.788 0-25.132-4.366-29.174-39.881a204.522 204.522 0 0 0 61.994-28.252c-9.431 46.769-22.69 68.133-32.82 68.133zm21.688-85.09a216.657 216.657 0 0 1-122.985 34.441 216.641 216.641 0 0 1-122.955-34.441A106.899 106.899 0 0 1 132 423.563a374.316 374.316 0 0 1 53.556-10.474c12.631 55.205 61.745 94.35 118.376 94.35s105.745-39.145 118.376-94.35a377.207 377.207 0 0 1 53.556 10.464 106.87 106.87 0 0 1-48.977 79.944zm89.466-60.718a19.307 19.307 0 0 1-23.015-.628 117.489 117.489 0 0 0 3.029-25.77c0-3.657-.132-7.091-.192-10.596 3.292.314 6.503.517 9.552.517a87.784 87.784 0 0 0 30.754-5.419 54.527 54.527 0 0 1-20.128 41.947z" transform="translate(0 -1)" />
      <g fill-rule="evenodd" clip-rule="evenodd" transform="translate(0 -1)">
        <path d="M182.344 294.773h-10.13c-5.595 0-10.13 4.535-10.13 10.13s4.535 10.13 10.13 10.13h10.13c5.595 0 10.13-4.535 10.13-10.13s-4.535-10.13-10.13-10.13zM232.993 294.773h-10.13c-5.594 0-10.13 4.535-10.13 10.13s4.535 10.13 10.13 10.13h10.13c5.595 0 10.13-4.535 10.13-10.13s-4.536-10.13-10.13-10.13zM283.642 294.773h-10.13c-5.595 0-10.13 4.535-10.13 10.13s4.535 10.13 10.13 10.13h10.13c5.595 0 10.13-4.535 10.13-10.13s-4.536-10.13-10.13-10.13zM334.29 294.773h-10.13c-5.595 0-10.13 4.535-10.13 10.13s4.535 10.13 10.13 10.13h10.13c5.595 0 10.13-4.535 10.13-10.13s-4.535-10.13-10.13-10.13zM384.939 294.773h-10.13c-5.595 0-10.13 4.535-10.13 10.13s4.535 10.13 10.13 10.13h10.13c5.595 0 10.13-4.535 10.13-10.13s-4.535-10.13-10.13-10.13zM435.588 294.773h-10.13c-5.595 0-10.13 4.535-10.13 10.13s4.535 10.13 10.13 10.13h10.13c5.594 0 10.13-4.535 10.13-10.13s-4.535-10.13-10.13-10.13z" />
        <circle r="10.13" cy="112.437" cx="263.382" />
        <circle r="10.13" cy="112.437" cx="344.42" />
        <path d="M293.771 152.956h20.26c5.595 0 10.13-4.535 10.13-10.13 0-5.594-4.535-10.13-10.13-10.13h-20.26c-5.595 0-10.13 4.535-10.13 10.13.001 5.595 4.536 10.13 10.13 10.13z" />
      </g>
    </svg>
    <svg xmlns="http://www.w3.org/2000/svg" width="512" viewBox="0 0 607.79 607.79" height="512" id="i">
      <path d="M71.922 182.34a10.13 10.13 0 0 0-9.066 14.658 62.987 62.987 0 0 0 38.858 35.525 105.357 105.357 0 0 1-31.818 10.798 10.13 10.13 0 0 0-7.587 13.23 56.303 56.303 0 0 0 39.648 35.019 64.634 64.634 0 0 1-16.451 26.51 10.128 10.128 0 0 0 2.634 16.208 64.266 64.266 0 0 0 34.998 5.186 65.001 65.001 0 0 1-16.441 31.777 10.13 10.13 0 0 0 3.951 16.775 101.646 101.646 0 0 0 52.604 2.654 28.217 28.217 0 0 1 2.938 14.516h-3.1c-22.378 0-40.519 18.141-40.519 40.519v81.038c0 22.378 18.141 40.519 40.519 40.519h121.557v20.26c0 11.189 9.07 20.26 20.26 20.26h101.298c11.189 0 20.26-9.07 20.26-20.26v-20.26h20.26c22.378 0 40.519-18.141 40.519-40.519v-81.038c0-22.378-18.141-40.519-40.519-40.519h-3.1a28.138 28.138 0 0 1 2.928-14.577 101.545 101.545 0 0 0 52.614-2.654 10.131 10.131 0 0 0 3.951-16.775 65.29 65.29 0 0 1-16.39-31.767 64.044 64.044 0 0 0 34.948-5.197 10.13 10.13 0 0 0 2.634-16.208 64.68 64.68 0 0 1-16.501-26.459 56.302 56.302 0 0 0 39.658-35.019 10.13 10.13 0 0 0-7.547-13.22 107.683 107.683 0 0 1-31.878-10.778 62.944 62.944 0 0 0 38.969-35.545 10.201 10.201 0 0 0-8.975-14.658c-1.013 0-22.64-1.013-39.324-30.389 16.208-33.712 22.103-105.572-2.786-147.023A10.13 10.13 0 0 0 483.851.591c.912-.334 1.499-.436 1.124-.385-18.122 1.925-71.82 11.325-108.287 54.701a186.844 186.844 0 0 0-143.843.132C196.418 12.231 143.126 2.354 124.355.156a10.13 10.13 0 0 0-10.464 4.771c-25.76 42.981-18.882 113.737-2.786 147.023-16.685 29.377-38.353 30.39-39.183 30.39zm334.282 405.191H304.906v-20.26h101.298zm60.778-141.817v81.038c0 11.189-9.07 20.26-20.26 20.26H163.089c-11.189 0-20.26-9.07-20.26-20.26v-81.038a20.26 20.26 0 0 1 15.63-19.672 10.128 10.128 0 0 0 3.951 14.556 63.542 63.542 0 0 0 39.577 4.315c6.99 25.395 30.663 81.838 102.918 81.838s95.929-56.443 102.918-81.838a63.28 63.28 0 0 0 39.577-4.315 10.131 10.131 0 0 0 3.951-14.556 20.26 20.26 0 0 1 15.631 19.672zM131.687 156.479a10.131 10.131 0 0 0-.334-9.664c-14.597-24.808-21.587-87.633-3.15-125.7 24.008 3.748 80.856 18.416 106.788 74.322 2.391 5.012 8.371 7.165 13.408 4.827s7.253-8.295 4.968-13.356a141.255 141.255 0 0 0-8.235-15.073 167.412 167.412 0 0 1 119.45-.071c-3 4.82-5.706 9.816-8.104 14.962a10.128 10.128 0 0 0 10.141 14.527 10.13 10.13 0 0 0 8.275-6.099c25.811-56.392 82.77-70.594 106.727-74.099 17.839 37.095 11.548 100.852-3.11 125.761a10.128 10.128 0 0 0-.334 9.664 81.616 81.616 0 0 0 43.74 42.697c-14.182 18.507-29.599 14.627-31.463 14.07a10.13 10.13 0 0 0-13.341 9.613c0 4.346 2.34 25.01 45.25 37.095a33.064 33.064 0 0 1-26.408 12.541c-5.595 0-10.13 4.535-10.13 10.13a70.634 70.634 0 0 0 13.462 36.913 36.554 36.554 0 0 1-20.077-3.424 10.13 10.13 0 0 0-14.658 9.056 98.046 98.046 0 0 0 13.574 46.84 55.14 55.14 0 0 1-30.744-2.705 10.13 10.13 0 0 0-11.71 1.884 49.422 49.422 0 0 0-7.607 54.265 37.337 37.337 0 0 1-23.086-3.039 10.13 10.13 0 0 0-14.607 7.77c-.375 3.181-10.758 76.307-85.465 76.307s-85.09-73.127-85.475-76.216a10.126 10.126 0 0 0-5.282-7.674 10.126 10.126 0 0 0-9.315-.115 37.328 37.328 0 0 1-23.086 3.039 49.424 49.424 0 0 0-7.648-54.296 10.13 10.13 0 0 0-11.71-1.884 55.175 55.175 0 0 1-30.744 2.705 98.047 98.047 0 0 0 13.614-46.881 10.13 10.13 0 0 0-14.657-9.056 36.387 36.387 0 0 1-20.067 3.414 70.64 70.64 0 0 0 13.452-36.903c0-5.595-4.535-10.13-10.13-10.13a33.071 33.071 0 0 1-26.418-12.541c42.91-12.085 45.26-32.75 45.26-37.095a10.13 10.13 0 0 0-13.331-9.613c-.203.071-16.582 5.207-31.402-14.07a81.67 81.67 0 0 0 43.719-42.698z" transform="translate(-1)" />
      <path fill-rule="evenodd" d="M157.498 141.538a10.13 10.13 0 0 0 8.731-15.265 120.818 120.818 0 0 1-8.387-53.9 83.622 83.622 0 0 1 40.337 40.114 10.13 10.13 0 0 0 18.375-8.519 108.392 108.392 0 0 0-64.132-55.856 10.132 10.132 0 0 0-13.463 8.103c-4.052 28.272.365 64.304 9.795 80.339a10.135 10.135 0 0 0 8.744 4.984zM398.313 117.004c5.085 2.325 11.093.09 13.422-4.994a82.111 82.111 0 0 1 40.235-40.296 121.23 121.23 0 0 1-8.387 54.559c-2.836 4.825-1.224 11.036 3.601 13.873 4.825 2.836 11.036 1.224 13.873-3.601 9.532-16.208 13.908-52.492 9.735-80.866a10.128 10.128 0 0 0-13.331-8.103 105.979 105.979 0 0 0-64.142 55.997 10.128 10.128 0 0 0 4.994 13.431z" clip-rule="evenodd" transform="translate(-1)" />
      <path d="M304.906 496.363c21.529-1.928 38.591-18.99 40.519-40.519 0-17.038-17.798-30.389-40.519-30.389s-40.519 13.351-40.519 30.389c1.928 21.529 18.99 38.591 40.519 40.519zm0-50.649c12.368 0 20.26 5.997 20.26 10.13 0 6.331-9.795 20.26-20.26 20.26-10.464 0-20.26-13.928-20.26-20.26.001-4.133 7.892-10.13 20.26-10.13zM193.479 314.027c0 16.784 13.606 30.389 30.389 30.389s30.389-13.606 30.389-30.389-13.606-30.389-30.389-30.389-30.389 13.606-30.389 30.389zm30.389-10.129c5.595 0 10.13 4.535 10.13 10.13s-4.535 10.13-10.13 10.13c-5.594 0-10.13-4.535-10.13-10.13s4.536-10.13 10.13-10.13zM385.944 344.417c16.784 0 30.389-13.606 30.389-30.389s-13.606-30.389-30.389-30.389c-16.784 0-30.389 13.606-30.389 30.389s13.606 30.389 30.389 30.389zm0-40.519c5.595 0 10.13 4.535 10.13 10.13s-4.535 10.13-10.13 10.13-10.13-4.535-10.13-10.13 4.536-10.13 10.13-10.13z" transform="translate(-1)" />
    </svg>
    <svg xmlns="http://www.w3.org/2000/svg" width="512" viewBox="0 0 598.195 598.195" height="512" id="j">
      <path d="M588.045 229.539h-13.879a152.123 152.123 0 0 0 3.716-71.739 9.964 9.964 0 0 0-18.672-2.511 136.92 136.92 0 0 1-64.674 61.934 106.292 106.292 0 0 0-3.876-11.418 10.067 10.067 0 0 0-1.624-2.67 111.075 111.075 0 0 0-17.636-15.643c-13.561-33.448-53.864-90.749-113.805-115.38 5.021-23.822-4.905-48.308-25.095-61.911-20.191-13.602-46.613-13.602-66.803 0-20.191 13.602-30.116 38.089-25.095 61.911-59.942 24.65-100.245 81.951-113.805 115.439a111.075 111.075 0 0 0-17.636 15.643c-.678.8-1.226 1.701-1.624 2.67a106.367 106.367 0 0 0-3.876 11.418 136.92 136.92 0 0 1-64.674-61.934 9.963 9.963 0 0 0-18.672 2.451 152.137 152.137 0 0 0 3.716 71.739H10.15c-5.503 0-9.964 4.461-9.964 9.964 0 .857 1.096 80.965 80.786 96.748-44.099 91.148-31.565 197.999-30.887 203.389l3.985 32.332c1.851 14.975 14.573 26.223 29.662 26.224h430.731c15.089-.002 27.811-11.249 29.662-26.224l3.985-32.322c.678-5.4 13.212-112.251-30.888-203.399 79.69-15.783 80.786-95.891 80.786-96.748.001-5.503-4.46-9.963-9.963-9.963zM259.243 60.156c0-22.011 17.844-39.855 39.855-39.855s39.855 17.844 39.855 39.855a39.985 39.985 0 0 1-.498 5.44 145.072 145.072 0 0 0-78.713 0 39.842 39.842 0 0 1-.499-5.44zm39.855 19.927c64.654 0 114.114 48.922 139.362 87.94a318.827 318.827 0 0 0-139.362-28.157 318.852 318.852 0 0 0-139.362 28.157c25.247-39.018 74.707-87.94 139.362-87.94zm-178.45 152.763a82.06 82.06 0 0 1 4.693-17.825c7.562-7.762 58.587-55.229 173.757-55.229s166.284 47.557 173.757 55.219a82.216 82.216 0 0 1 4.693 17.845 84.926 84.926 0 0 1-4.274 40.602c-42.396-42.366-100.912-63.847-174.175-63.847s-131.78 21.482-174.175 63.847a84.929 84.929 0 0 1-4.276-40.612zm-99.597 16.62h18.991a9.963 9.963 0 0 0 8.29-15.493 82.64 82.64 0 0 1-10.781-43.9 164.574 164.574 0 0 0 62.692 47.587 107.904 107.904 0 0 0 9.894 52.28 229.453 229.453 0 0 0-19.28 27.779c-36.396-3.566-65.424-31.947-69.806-68.253zm100.783 202.422a215.03 215.03 0 0 0 7.971-48.463c-.09-1.514-.09-2.999-.09-4.504.039-38.582 24.751-72.814 61.359-84.996s76.904.417 100.053 31.282a10.323 10.323 0 0 0 15.942 0c23.149-30.865 63.445-43.464 100.053-31.282s61.32 46.414 61.359 84.996c0 1.505 0 2.989-.1 4.982a216.952 216.952 0 0 0 7.971 47.995 381.477 381.477 0 0 1 12.813 126.37H109.03a381.483 381.483 0 0 1 12.804-126.38zm406.518 85.3-3.985 32.342a9.964 9.964 0 0 1-9.884 8.738h-5.35a405.655 405.655 0 0 0-13.381-130.943 209.65 209.65 0 0 1-7.453-42.754c.11-1.883.11-3.766.11-5.649.022-44.92-27.383-85.3-69.136-101.869-41.752-16.569-89.389-5.968-120.175 26.743-30.786-32.711-78.422-43.312-120.175-26.743-41.752 16.569-69.157 56.949-69.136 101.869 0 1.883 0 3.766.1 5.191a207.399 207.399 0 0 1-7.443 43.213 405.6 405.6 0 0 0-13.381 130.943h-5.331a9.964 9.964 0 0 1-9.884-8.738l-3.985-32.352c-.179-1.505-17.785-151.817 61.117-241.122 38.998-44.139 95.562-66.518 168.118-66.518s129.12 22.378 168.127 66.518c78.903 89.305 61.297 239.617 61.107 241.132h.02zm-21.013-219.471a229.38 229.38 0 0 0-19.24-27.779 107.914 107.914 0 0 0 9.894-52.28 164.564 164.564 0 0 0 62.692-47.587 82.64 82.64 0 0 1-10.781 43.9 9.964 9.964 0 0 0 8.25 15.494h18.991c-4.379 36.309-33.409 64.692-69.806 68.252z" />
      <path d="M299.098 428.813c-44.717 0-57.431 22.837-58.736 25.437a9.96 9.96 0 0 0-1.046 4.454c0 1.903.638 46.829 56.076 69.038 2.381.943 5.032.943 7.413 0 55.438-22.209 56.076-67.135 56.076-69.038a9.967 9.967 0 0 0-.996-4.454c-1.357-2.601-14.07-25.437-58.787-25.437zm0 78.862c-32.452-14.487-38.48-38.091-39.606-46.182 3.497-3.985 14.099-12.754 39.606-12.754 25.657 0 36.228 8.878 39.606 12.704-1.126 8.151-7.164 31.745-39.606 46.232zM259.243 388.958c0-27.514-22.305-49.819-49.819-49.819s-49.818 22.305-49.818 49.819 22.305 49.818 49.818 49.818c27.501-.033 49.786-22.318 49.819-49.818zm-49.819 29.891c-16.508 0-29.891-13.383-29.891-29.891s13.383-29.891 29.891-29.891 29.891 13.383 29.891 29.891c.001 16.508-13.382 29.891-29.891 29.891zM388.771 339.139c-27.514 0-49.819 22.305-49.819 49.819s22.305 49.818 49.819 49.818 49.818-22.304 49.818-49.818c-.032-27.501-22.318-49.786-49.818-49.819zm0 79.71c-16.508 0-29.891-13.383-29.891-29.891s13.383-29.891 29.891-29.891 29.891 13.383 29.891 29.891-13.383 29.891-29.891 29.891z" />
    </svg>
    <svg xmlns="http://www.w3.org/2000/svg" width="512" viewBox="0 0 607.786 607.786" height="512" id="k">
      <path d="M506.487 0c-78.758 0-137.947 106.251-167.9 174.738a238.895 238.895 0 0 0-69.389 0C239.244 106.251 180.056 0 101.297 0 40.518 0 33.154 37.541 32.82 53.617c-1.013 40.043 32.496 88.534 63.27 107.021a306.161 306.161 0 0 1 77.928 64.689c-37.055 46.435-35.383 108.794-33.185 131.971-29.659 9.438-49.765 37.029-49.666 68.153-.489 37.119 19.853 71.384 52.675 88.727a40.612 40.612 0 0 0-2.026 12.571v40.519c0 22.378 18.141 40.519 40.519 40.519h243.114c22.378 0 40.519-18.141 40.519-40.519v-40.519a40.612 40.612 0 0 0-2.026-12.571c32.822-17.343 53.164-51.608 52.675-88.727.103-31.116-19.989-58.704-49.636-68.153 2.198-23.177 3.87-85.536-33.185-131.971a306.287 306.287 0 0 1 77.938-64.699c30.734-18.477 64.273-66.968 63.23-106.94C574.63 37.541 567.266 0 506.487 0zm0 20.26c19.702 0 33.428 4.447 41.066 13.27-20.26-4.802-49.565 1.155-88.747 40.347a393.332 393.332 0 0 0-81.109 110.728 164.402 164.402 0 0 0-18.7-5.885c24.667-55.248 79.824-158.46 147.49-158.46zm-405.19 0c67.667 0 122.823 103.212 147.489 158.46a164.402 164.402 0 0 0-18.7 5.885 393.332 393.332 0 0 0-81.109-110.728C109.786 34.674 80.46 28.728 60.211 33.53c7.658-8.824 21.363-13.27 41.086-13.27zm5.217 123.005c-24.706-14.84-51.55-53.11-53.303-84.513 24.788-17.859 57.74 5.744 81.443 29.488a372.476 372.476 0 0 1 77.148 105.127 129.51 129.51 0 0 0-23.835 17.008 331.665 331.665 0 0 0-81.453-67.11zm339.195 383.483v40.519a20.187 20.187 0 0 1-10.13 17.443v-17.443c0-5.594-4.535-10.13-10.13-10.13s-10.13 4.535-10.13 10.13v20.26h-20.26v-20.26c0-5.594-4.535-10.13-10.13-10.13s-10.13 4.535-10.13 10.13v20.26h-20.26v-10.13c0-5.594-4.535-10.13-10.13-10.13s-10.13 4.535-10.13 10.13v10.13h-20.26v-10.13c0-5.594-4.535-10.13-10.13-10.13s-10.13 4.535-10.13 10.13v10.13h-20.26v-10.13c0-5.594-4.535-10.13-10.13-10.13s-10.13 4.535-10.13 10.13v10.13h-20.26v-20.26c0-5.594-4.535-10.13-10.13-10.13s-10.13 4.535-10.13 10.13v20.26h-20.26v-20.26c0-5.594-4.535-10.13-10.13-10.13s-10.13 4.535-10.13 10.13v17.443a20.188 20.188 0 0 1-10.13-17.443v-40.519c.071-1.023.22-2.039.446-3.039 35.069 15.296 82.497 23.298 141.371 23.298s106.302-8.003 141.371-23.298c.232 1 .381 2.016.452 3.039zm8.104-152.149c1.742.355 42.545 8.985 42.545 50.851 0 88.129-120.544 101.298-192.465 101.298S111.427 513.579 111.427 425.45c0-41.532 40.803-50.487 42.545-50.851a10.13 10.13 0 0 0 8.003-11.578c-.122-.78-12.237-77.999 29.954-127.696 24.109-28.434 61.792-42.859 111.964-42.859s87.855 14.425 112.005 42.859c42.19 49.697 30.075 126.916 29.954 127.696-.891 5.371 2.626 10.485 7.961 11.578zm47.427-231.344a331.791 331.791 0 0 0-81.464 67.079 129.544 129.544 0 0 0-23.835-17.008A372.49 372.49 0 0 1 473.13 88.199c23.744-23.744 56.656-47.367 81.443-29.447-1.722 31.341-28.586 69.662-53.293 84.502h-.04z" />
      <path d="M222.854 334.282a30.39 30.39 0 1 0 30.39 30.39c-.001-16.784-13.606-30.39-30.39-30.39zm0 40.519c-5.595 0-10.13-4.535-10.13-10.13s4.535-10.13 10.13-10.13 10.13 4.535 10.13 10.13-4.535 10.13-10.13 10.13zM384.93 334.282c-16.784 0-30.389 13.606-30.389 30.389 0 16.784 13.606 30.389 30.389 30.389 16.784 0 30.389-13.606 30.389-30.389.001-16.783-13.605-30.389-30.389-30.389zm0 40.519c-5.595 0-10.13-4.535-10.13-10.13s4.535-10.13 10.13-10.13 10.13 4.535 10.13 10.13-4.535 10.13-10.13 10.13z" />
      <path fill-rule="evenodd" d="M344.411 450.774c-5.595 0-10.13 4.535-10.13 10.13 0 8.392-6.803 15.195-15.195 15.195a14.355 14.355 0 0 1-5.065-.942V441.84l14.658-7.324c5.007-2.501 7.039-8.587 4.538-13.594s-8.587-7.039-13.594-4.538l-15.732 7.871-15.732-7.871c-5.007-2.501-11.093-.469-13.594 4.538s-.469 11.093 4.538 13.594l14.658 7.324v33.317a14.355 14.355 0 0 1-5.065.942 15.195 15.195 0 0 1-15.194-15.194c0-5.595-4.535-10.13-10.13-10.13s-10.13 4.535-10.13 10.13c0 19.581 15.873 35.454 35.454 35.454a34.82 34.82 0 0 0 15.195-3.485 34.831 34.831 0 0 0 15.195 3.485c19.581 0 35.454-15.873 35.454-35.454.001-5.595-4.534-10.131-10.129-10.131z" clip-rule="evenodd" />
    </svg>
    <svg xmlns="http://www.w3.org/2000/svg" width="512" viewBox="0 0 598.78 598.78" height="512" id="l">
      <path d="M83.764 375.523a172.921 172.921 0 0 0-12.953 63.837c0 93.858 86.047 159.419 209.238 159.419s209.238-65.561 209.238-159.419a172.917 172.917 0 0 0-12.953-63.768c41.608-13.112 62.771-58.128 62.771-134.271a28.227 28.227 0 0 0-16.231-28.964 38.859 38.859 0 0 0-30.08 2.481c-.189-11.956-1.056-24.351-1.933-35.81-.807-10.761-1.574-20.864-1.574-28.616a55.308 55.308 0 0 1 7.971-26.852 330.578 330.578 0 0 0 2.989-6.177c25.718 8.76 54.119-.761 69.36-23.252s13.56-52.398-4.107-73.039-46.956-26.918-71.53-15.33-38.364 38.179-33.678 64.941a305.302 305.302 0 0 1-112.171 4.115 662.3 662.3 0 0 0-68.072-4.115c-133.454 0-187.965 101.351-205.83 147.463a43.949 43.949 0 0 0-36.995-5.918 28.228 28.228 0 0 0-16.231 29.004c-.001 76.143 21.142 121.159 62.771 134.271zm196.284 203.329c-111.464 0-189.31-57.391-189.31-139.492a170.716 170.716 0 0 1 35.002-98.83c58.078 5.55 95.94 30.778 112.59 75.206a96.934 96.934 0 0 0-12.564 4.753 9.964 9.964 0 0 0 8.877 17.835 119.868 119.868 0 0 1 90.789 0 9.845 9.845 0 0 0 4.434 1.036 9.962 9.962 0 0 0 4.463-18.871 97.281 97.281 0 0 0-12.564-4.753c16.659-44.428 54.521-69.656 112.59-75.206a170.724 170.724 0 0 1 35.003 98.83c.001 82.101-77.846 139.492-189.31 139.492zm0-338.766a204.928 204.928 0 0 0-115.579 36.089 156.007 156.007 0 0 1-45.833-22.857 227.002 227.002 0 0 1 161.412-63.05 226.954 226.954 0 0 1 161.412 63.02 155.764 155.764 0 0 1-45.833 22.857 204.936 204.936 0 0 0-115.579-36.059zm0 19.928a190.306 190.306 0 0 1 139.233 62.273c-72.735 11.06-103.931 52.07-117.054 88.886a142.709 142.709 0 0 0-44.358 0c-13.122-36.816-44.319-77.826-117.054-88.886a190.308 190.308 0 0 1 139.233-62.273zm235.144-29.294c3.457 1.435 3.985 7.234 3.985 10.562 0 25.696-.149 101.63-51.293 115.858a222.902 222.902 0 0 0-53.256-66.597 153.733 153.733 0 0 0 51.811-32.322c26.832-26.663 43.671-29.682 48.752-27.53v.029zm3.985-209.835c22.011 0 39.855 17.844 39.855 39.855s-17.844 39.855-39.855 39.855-39.855-17.844-39.855-39.855 17.844-39.855 39.855-39.855zM280.048 90.631a650.22 650.22 0 0 1 66.139 3.985c38.749 3.776 72.675 6.865 120.67-5.042a60.047 60.047 0 0 0 15.773 18.343c-.996 2.262-2.132 4.474-3.258 6.755a74.888 74.888 0 0 0-10.014 35.74c0 8.509.797 18.931 1.634 30.051a422.366 422.366 0 0 1 1.724 46.022 177.351 177.351 0 0 0-16.151 13.67 246.674 246.674 0 0 0-176.517-69.816 246.61 246.61 0 0 0-176.517 69.826c-4.165-3.919-8.267-7.459-12.305-10.621 16.769-46.55 65.601-138.913 188.822-138.913zM44.905 230.691c5.081-2.152 21.92.867 48.822 27.5a153.876 153.876 0 0 0 51.811 32.322 222.914 222.914 0 0 0-53.256 66.597C41.069 342.862 40.92 266.988 40.92 241.252c0-3.328.518-9.137 3.985-10.561z" transform="translate(-1)" />
      <path d="M322.823 521.959a27.64 27.64 0 0 1-32.81 1.405V508.11c17.347-3.248 29.891-14.716 29.891-28.895 0-16.759-17.506-29.891-39.855-29.891s-39.855 13.132-39.855 29.891c0 14.158 12.544 25.627 29.891 28.895v15.304a27.488 27.488 0 0 1-32.81-1.405 9.963 9.963 0 0 0-14.089 13.999c15.829 13.985 38.979 15.871 56.863 4.633a54.348 54.348 0 0 0 26.264 7.134 44.439 44.439 0 0 0 30.599-11.767 9.964 9.964 0 0 0-14.088-14.088v.039zm-62.702-42.744c0-4.065 7.762-9.964 19.927-9.964s19.927 5.898 19.927 9.964c0 4.065-7.762 9.964-19.927 9.964s-19.927-5.929-19.927-9.964z" transform="translate(-1)" />
      <g fill-rule="evenodd" clip-rule="evenodd">
        <path d="M280.048 299.869c5.503 0 9.964-4.461 9.964-9.964v-9.964c0-5.503-4.461-9.964-9.964-9.964s-9.964 4.461-9.964 9.964v9.964c.001 5.503 4.462 9.964 9.964 9.964zM319.903 319.796c5.503 0 9.964-4.461 9.964-9.964v-9.964c0-5.503-4.461-9.964-9.964-9.964s-9.964 4.461-9.964 9.964v9.964c.001 5.503 4.461 9.964 9.964 9.964zM240.194 319.796c5.503 0 9.964-4.461 9.964-9.964v-9.964c0-5.503-4.461-9.964-9.964-9.964s-9.964 4.461-9.964 9.964v9.964c0 5.503 4.461 9.964 9.964 9.964zM280.048 349.687c5.503 0 9.964-4.461 9.964-9.964v-9.964c0-5.503-4.461-9.964-9.964-9.964s-9.964 4.461-9.964 9.964v9.964c.001 5.503 4.462 9.964 9.964 9.964z" transform="translate(-1)" />
      </g>
      <path d="M399.613 409.469c-16.508 0-29.891 13.383-29.891 29.891s13.383 29.891 29.891 29.891 29.891-13.383 29.891-29.891-13.383-29.891-29.891-29.891zm0 39.855c-5.503 0-9.964-4.461-9.964-9.964s4.461-9.964 9.964-9.964 9.964 4.461 9.964 9.964-4.461 9.964-9.964 9.964zM160.484 409.469c-16.508 0-29.891 13.383-29.891 29.891s13.383 29.891 29.891 29.891 29.891-13.383 29.891-29.891-13.383-29.891-29.891-29.891zm0 39.855c-5.503 0-9.964-4.461-9.964-9.964s4.461-9.964 9.964-9.964 9.964 4.461 9.964 9.964-4.461 9.964-9.964 9.964z" transform="translate(-1)" />
    </svg>
    <svg xmlns="http://www.w3.org/2000/svg" width="512" viewBox="0 0 607.837 607.837" height="512" id="m">
      <path d="M303.965 315.074c-23.775 0-45.31 20.847-47.681 23.228a10.13 10.13 0 0 0-1.904 11.69c2.229 4.457 22.427 43.872 45.057 55.187a10.133 10.133 0 0 0 9.056 0c22.63-11.315 42.829-50.73 45.057-55.187a10.13 10.13 0 0 0-1.904-11.69c-2.371-2.381-23.907-23.228-47.681-23.228zm0 69.034a136.408 136.408 0 0 1-27.796-36.325 51.402 51.402 0 0 1 27.796-12.449 51.41 51.41 0 0 1 27.796 12.449 136.393 136.393 0 0 1-27.796 36.325zM172.278 284.685c-16.784 0-30.389 13.606-30.389 30.389s13.606 30.389 30.389 30.389 30.389-13.606 30.389-30.389-13.606-30.389-30.389-30.389zm0 40.519c-5.595 0-10.13-4.535-10.13-10.13s4.535-10.13 10.13-10.13 10.13 4.535 10.13 10.13-4.536 10.13-10.13 10.13zM435.652 284.685c-16.784 0-30.389 13.606-30.389 30.389s13.606 30.389 30.389 30.389c16.784 0 30.389-13.606 30.389-30.389s-13.606-30.389-30.389-30.389zm0 40.519c-5.595 0-10.13-4.535-10.13-10.13s4.535-10.13 10.13-10.13 10.13 4.535 10.13 10.13-4.536 10.13-10.13 10.13zM339.743 133.275c-5.308 1.725-8.221 7.419-6.513 12.733a21.647 21.647 0 0 1-4.487 22.508 47.593 47.593 0 0 0-9.117-12.551 10.232 10.232 0 0 0-16.157 2.502A28.664 28.664 0 0 1 290.3 169.61a36.296 36.296 0 0 0-11.193-33.894c-3.975-3.839-10.293-3.784-14.2.123s-3.962 10.225-.123 14.2a17.454 17.454 0 0 1 0 26.196 10.13 10.13 0 0 0 7.172 17.281 58.334 58.334 0 0 0 39.617-13.746c.454 1.162.757 2.377.902 3.616 0 5.595 4.535 10.13 10.13 10.13a10.21 10.21 0 0 0 3.201-.517 39.19 39.19 0 0 0 28.363-32.233 49.945 49.945 0 0 0-1.692-21.1c-1.777-5.259-7.455-8.109-12.734-6.391z" transform="translate(0 -1)" />
      <path d="M593.595 153.839a121.311 121.311 0 0 0-48.623-52.107 73.28 73.28 0 0 0-34.522-9.431 267.547 267.547 0 0 0-206.485-91.25A267.538 267.538 0 0 0 97.449 92.29a73.072 73.072 0 0 0-34.573 9.441 121.317 121.317 0 0 0-48.623 52.107C-10.403 202.461-1.955 256.422 33.175 274.24a54.698 54.698 0 0 0 24.97 5.885c1.894 0 3.819-.223 5.733-.405a290.345 290.345 0 0 0-13.159 86.002c0 140.875 106.504 243.114 253.244 243.114s253.244-102.24 253.244-243.114a290.322 290.322 0 0 0-13.24-86.002c1.914.182 3.839.405 5.733.405a54.71 54.71 0 0 0 24.97-5.885c35.092-17.817 43.581-71.829 18.925-120.401zM303.965 21.311a247.602 247.602 0 0 1 183.349 75.842c-.699.324-1.438.557-2.127.912a53.536 53.536 0 0 0-14.546 10.971A229.118 229.118 0 0 0 303.965 41.57a229.115 229.115 0 0 0-166.716 67.464 53.587 53.587 0 0 0-14.546-10.971c-.689-.355-1.428-.588-2.127-.912a247.623 247.623 0 0 1 183.389-75.84zM153.609 140.842a77.27 77.27 0 0 0-4.872-14.648 209.505 209.505 0 0 1 155.228-64.365 209.5 209.5 0 0 1 155.228 64.385 77.175 77.175 0 0 0-4.872 14.648 230.799 230.799 0 0 0-150.356-58.773 230.8 230.8 0 0 0-150.356 58.753zM42.445 256.18c-24.717-12.551-29.316-55.217-10.049-93.194a100.899 100.899 0 0 1 40.165-43.416 44.185 44.185 0 0 1 40.965-3.444 43.718 43.718 0 0 1 21.414 35.09 100.715 100.715 0 0 1-11.376 58.074c-15.185 29.912-51.399 62.003-81.119 46.89zm123.147 292.192c24.666-30.774 78.607-50.963 138.373-50.963s113.666 20.189 138.373 50.963a245.908 245.908 0 0 1-138.373 40.205 245.983 245.983 0 0 1-138.373-40.205zm371.357-182.649a215.914 215.914 0 0 1-78.323 170.605c-28.576-36.234-87.633-59.178-154.661-59.178s-126.116 22.944-154.671 59.168A215.925 215.925 0 0 1 70.98 365.723a272.003 272.003 0 0 1 16.633-92.576c1.813-.831 3.626-1.6 5.44-2.583a121.265 121.265 0 0 0 48.623-52.107 128.241 128.241 0 0 0 14.131-52.016 214.05 214.05 0 0 1 148.158-64.091 214.054 214.054 0 0 1 148.198 64.091 128.237 128.237 0 0 0 14.131 52.016 121.26 121.26 0 0 0 48.623 52.107c1.813 1.013 3.626 1.752 5.44 2.583a272.003 272.003 0 0 1 16.592 92.576zm28.536-109.543c-29.69 15.083-65.843-16.896-81.119-46.891-15.195-29.822-19.763-77.999 10.039-93.194a44.187 44.187 0 0 1 40.965 3.424 100.903 100.903 0 0 1 40.164 43.457c19.266 37.986 14.667 80.653-10.049 93.204z" transform="translate(0 -1)" />
    </svg>
    <svg xmlns="http://www.w3.org/2000/svg" width="512" viewBox="0 0 607.786 607.786" height="512" id="n">
      <path d="M131.669 131.687c-21.224.195-38.7 16.736-40.062 37.917s13.852 39.824 34.876 42.736c.41.052.823.079 1.236.081a10.13 10.13 0 0 0 7.618-3.454 174.937 174.937 0 0 1 32.466-28.657 10.13 10.13 0 0 0 4.386-8.408c-.211-22.241-18.278-40.172-40.52-40.215zm-7.435 59.37a20.259 20.259 0 0 1-12.53-22.223 20.258 20.258 0 0 1 19.146-16.861 20.26 20.26 0 0 1 20.461 15.239 196.137 196.137 0 0 0-27.077 23.845zM476.081 131.687c-22.257.044-40.33 17.999-40.519 40.256a10.132 10.132 0 0 0 4.386 8.408 174.895 174.895 0 0 1 32.415 28.617 10.127 10.127 0 0 0 7.618 3.454 10.22 10.22 0 0 0 1.236-.081c21.016-2.909 36.229-21.538 34.881-42.711-1.348-21.175-18.802-37.723-40.017-37.943zm7.435 59.37a196.071 196.071 0 0 0-27.077-23.845 20.26 20.26 0 1 1 27.077 23.845z" />
      <path d="M557.119 172.206c-.05-44.735-36.303-80.988-81.038-81.038a78.268 78.268 0 0 0-11.143.831C437.446 53.039 375.371 0 303.875 0 243.4 0 172.026 51.824 142.903 91.998a79.532 79.532 0 0 0-11.234-.831c-36.443.019-68.391 24.362-78.079 59.494s5.266 72.409 36.547 91.105a214.45 214.45 0 0 0-19.247 91.097c0 129.772 99.636 274.922 232.985 274.922S536.86 462.636 536.86 332.864a214.435 214.435 0 0 0-19.247-91.097 81.037 81.037 0 0 0 39.506-69.561zM303.875 20.26c59.877 0 114.061 44.004 140.247 77.705a81.896 81.896 0 0 0-16.613 9.785 234.544 234.544 0 0 0-123.634-36.842 234.54 234.54 0 0 0-123.583 36.842 82.365 82.365 0 0 0-16.39-9.704c28.131-34.33 90.408-77.786 139.973-77.786zm0 101.297a280.345 280.345 0 0 0-98.502 17.018 80.263 80.263 0 0 0-10.201-16.279 213.612 213.612 0 0 1 108.702-31.129 213.612 213.612 0 0 1 108.702 31.129 80.323 80.323 0 0 0-10.201 16.279 280.322 280.322 0 0 0-98.5-17.018zm0 465.969c-119.805 0-212.725-136.894-212.725-254.662a208.305 208.305 0 0 1 5.267-47.346c100.898 13.232 176.519 98.95 177.068 200.711 0 1.317 0 2.634-.061 3.971-12.06 3.034-20.433 13.985-20.199 26.418 2.029 27.088 23.561 48.62 50.649 50.649 27.088-2.029 48.62-23.561 50.649-50.649.213-12.382-8.116-23.286-20.118-26.337 0-1.337-.142-2.644-.142-4.052.549-101.761 76.17-187.479 177.068-200.711a208.26 208.26 0 0 1 5.267 47.346c.002 117.769-92.918 254.662-212.723 254.662zm30.39-70.908c-1.824 15.967-14.422 28.565-30.389 30.389-15.967-1.824-28.565-14.422-30.389-30.389 0-3.039 0-10.13 30.389-10.13s30.389 7.091 30.389 10.13zm165.854-288.587a10.127 10.127 0 0 0-4.933 14.04 175.673 175.673 0 0 1 10.353 23.795c-109.533 16.021-190.927 109.666-191.534 220.363v.253c-4.052-.253-7.618-.253-10.13-.253s-6.078 0-10.13.253v-.253c-.607-110.697-82.001-204.342-191.534-220.363a175.54 175.54 0 0 1 10.353-23.764 10.133 10.133 0 0 0-4.933-14.04c-25.87-11.135-40.7-38.584-35.835-66.325s28.151-48.506 56.266-50.173 53.693 16.198 61.803 43.169a10.13 10.13 0 0 0 13.634 6.422 237.088 237.088 0 0 1 39.597-12.662v74.363c0 5.595 4.535 10.13 10.13 10.13s10.13-4.535 10.13-10.13v-78.171a277.34 277.34 0 0 1 30.389-2.634v121.324c0 5.595 4.535 10.13 10.13 10.13s10.13-4.535 10.13-10.13V142.05c10.17.32 20.316 1.199 30.389 2.634v78.171c0 5.595 4.535 10.13 10.13 10.13s10.13-4.535 10.13-10.13v-74.363a237.136 237.136 0 0 1 39.597 12.632 10.13 10.13 0 0 0 13.634-6.422c8.111-26.971 33.688-44.837 61.803-43.169s51.401 22.433 56.266 50.173c4.865 27.741-9.965 55.19-35.835 66.325z" />
      <path d="M202.578 384.931c-16.784 0-30.389 13.606-30.389 30.389 0 16.784 13.606 30.389 30.389 30.389s30.389-13.606 30.389-30.389-13.606-30.389-30.389-30.389zm0 40.519c-5.595 0-10.13-4.535-10.13-10.13s4.535-10.13 10.13-10.13 10.13 4.535 10.13 10.13-4.536 10.13-10.13 10.13zM405.173 384.931c-16.784 0-30.389 13.606-30.389 30.389 0 16.784 13.606 30.389 30.389 30.389 16.784 0 30.389-13.606 30.389-30.389s-13.606-30.389-30.389-30.389zm0 40.519c-5.595 0-10.13-4.535-10.13-10.13s4.535-10.13 10.13-10.13 10.13 4.535 10.13 10.13-4.536 10.13-10.13 10.13z" />
    </svg>
    <svg xmlns="http://www.w3.org/2000/svg" width="512" viewBox="0 0 607.787 607.787" height="512" id="o">
      <path d="M476.105 50.649a129.56 129.56 0 0 0-45.158 8.215C400.02 27.229 356.756 0 303.899 0s-96.121 27.229-127.047 58.864a129.568 129.568 0 0 0-45.158-8.215C62.393 50.654 4.965 104.387.358 173.534s45.185 130.023 113.871 139.223a244.114 244.114 0 0 0 28.941 117.758c12.743 22.164 27.107 47.022 43.163 70.361l-45.766 5.703a10.13 10.13 0 0 0 1.256 20.169c.423.003.847-.024 1.266-.081l56.818-7.091c2.593 3.383 5.247 6.655 7.921 9.897l-50.811 28.991c-4.862 2.775-6.553 8.965-3.778 13.827s8.965 6.553 13.827 3.778l54.447-31.088c2.816 2.907 5.693 5.642 8.59 8.337l-25.801 38.696c-3.105 4.655-1.849 10.945 2.806 14.05s10.945 1.849 14.05-2.806l24.625-36.953a98.26 98.26 0 0 0 58.114 21.222 98.255 98.255 0 0 0 58.114-21.202l24.625 36.953a10.132 10.132 0 0 0 16.856-11.244l-25.79-38.696c2.887-2.695 5.764-5.43 8.58-8.337l54.366 31.068a10.137 10.137 0 0 0 10.049-17.606l-50.72-28.981c2.674-3.242 5.328-6.513 7.921-9.897l56.818 7.091a8.94 8.94 0 0 0 1.256.071 10.13 10.13 0 0 0 1.246-20.178l-45.766-5.703c16.056-23.298 30.389-48.197 43.153-70.351a244.129 244.129 0 0 0 28.951-117.758c68.685-9.199 118.476-70.073 113.872-139.218s-62.026-122.88-131.323-122.89zM303.899 20.26c65.702 0 115.986 49.717 141.675 89.375a325.79 325.79 0 0 0-141.675-28.596 324.407 324.407 0 0 0-141.817 28.789c25.659-39.69 75.973-89.568 141.817-89.568zm166.614 91.471a72.121 72.121 0 0 1 15.043.324c33.994 4.597 59.823 32.869 61.337 67.14 1.514 34.27-21.722 64.71-55.178 72.286a9.117 9.117 0 0 1-6.746-1.175 110.847 110.847 0 0 0 20.725-77.614 104.462 104.462 0 0 0-5.906-22.498 20.253 20.253 0 0 0-4.336-6.827 130.452 130.452 0 0 0-16.451-14.05 168.998 168.998 0 0 0-8.488-17.586zm-341.859 17.93a129.868 129.868 0 0 0-15.975 13.685 20.245 20.245 0 0 0-4.366 6.848 103.99 103.99 0 0 0-5.896 22.488 110.839 110.839 0 0 0 20.634 77.523 9.117 9.117 0 0 1-7.091 1.256c-33.43-7.614-56.623-38.057-55.09-72.308s27.354-62.5 61.33-67.097c5-.629 10.051-.734 15.073-.314a167.099 167.099 0 0 0-8.619 17.919zm11.922 110.08a88.687 88.687 0 0 1-18.102-64.172 82.827 82.827 0 0 1 4.781-18.142c9.015-9.37 59.948-56.129 176.947-56.129 116.695 0 167.627 46.759 176.673 56.17a84.068 84.068 0 0 1 4.761 18.112 88.486 88.486 0 0 1-18.234 64.213c-21.83-21.364-80.775-57.456-163.504-57.456s-141.583 36.152-163.322 57.404zm326.898.122-7.091 7.233zm15.033 53.616a10.131 10.131 0 0 0-9.522 10.707 222.066 222.066 0 0 1-25.922 116.199c-35.636 61.994-84.411 146.882-143.164 146.882S196.372 482.38 160.725 420.385a222.099 222.099 0 0 1-25.912-116.199 10.127 10.127 0 0 0-9.522-10.707c-60.178-3.448-106.693-54.145-104.96-114.397S71.416 70.89 131.693 70.908a109.593 109.593 0 0 1 30.48 4.386c-4.852 5.916-9.36 11.842-13.341 17.666C99.6 82.647 51.33 114.197 41.016 163.429s21.236 97.503 70.468 107.816c2.13.491 4.308.739 6.493.739a30.543 30.543 0 0 0 23.937-12.024 20.157 20.157 0 0 0 12.915-5.642c18.163-17.909 72.691-51.723 149.07-51.723s131.13 33.833 149.394 51.723a19.854 19.854 0 0 0 12.561 5.612 30.227 30.227 0 0 0 23.835 12.065 28.836 28.836 0 0 0 6.544-.76c49.232-10.291 80.799-58.544 70.508-107.776S508.197 82.66 458.965 92.951c-3.981-5.825-8.489-11.751-13.341-17.666a109.594 109.594 0 0 1 30.48-4.376c60.277-.017 109.629 47.922 111.362 108.174s-44.781 110.949-104.959 114.396z" />
      <path d="M303.899 465.969c-12.52 0-50.649 0-50.649 30.389 2.033 27.086 23.563 48.616 50.649 50.649 27.086-2.033 48.616-23.563 50.649-50.649-.001-30.389-38.129-30.389-50.649-30.389zm0 60.779c-15.967-1.824-28.565-14.422-30.389-30.389 0-3.039 0-10.13 30.389-10.13s30.389 7.091 30.389 10.13c-1.824 15.966-14.422 28.564-30.389 30.389zM212.731 334.282c-22.378 0-40.519 18.141-40.519 40.519s18.141 40.519 40.519 40.519 40.519-18.141 40.519-40.519-18.141-40.519-40.519-40.519zm0 60.779c-11.189 0-20.26-9.071-20.26-20.26s9.07-20.26 20.26-20.26c11.189 0 20.26 9.071 20.26 20.26-.001 11.189-9.071 20.26-20.26 20.26zM395.066 334.282c-22.378 0-40.519 18.141-40.519 40.519s18.141 40.519 40.519 40.519 40.519-18.141 40.519-40.519-18.14-40.519-40.519-40.519zm0 60.779c-11.189 0-20.26-9.071-20.26-20.26s9.07-20.26 20.26-20.26 20.26 9.071 20.26 20.26-9.071 20.26-20.26 20.26z" />
    </svg>
    <svg xmlns="http://www.w3.org/2000/svg" width="512" viewBox="0 0 607.786 607.786" height="512" id="p">
      <path d="M202.595 182.336c-16.784 0-30.389 13.606-30.389 30.389s13.606 30.389 30.389 30.389 30.389-13.606 30.389-30.389-13.605-30.389-30.389-30.389zm0 40.519c-5.595 0-10.13-4.535-10.13-10.13s4.535-10.13 10.13-10.13c5.594 0 10.13 4.535 10.13 10.13s-4.535 10.13-10.13 10.13zM405.19 182.336c-16.784 0-30.389 13.606-30.389 30.389s13.606 30.389 30.389 30.389c16.784 0 30.389-13.606 30.389-30.389s-13.605-30.389-30.389-30.389zm0 40.519c-5.595 0-10.13-4.535-10.13-10.13s4.535-10.13 10.13-10.13 10.13 4.535 10.13 10.13-4.535 10.13-10.13 10.13zM303.893 243.114a53.799 53.799 0 0 0-37.551 13.098 10.13 10.13 0 0 0-2.451 10.363c.476 1.408 11.73 34.512 35.454 46.384a10.133 10.133 0 0 0 9.056 0c23.744-11.872 34.998-44.976 35.454-46.384a10.13 10.13 0 0 0-2.451-10.363 53.802 53.802 0 0 0-37.511-13.098zm0 48.846a69.068 69.068 0 0 1-17.93-24.777 44.158 44.158 0 0 1 35.88 0 68.414 68.414 0 0 1-17.95 24.777z" />
      <path d="M50.649 405.19v40.519c0 22.378 18.141 40.519 40.519 40.519h162.076v101.298c0 11.189 9.07 20.26 20.26 20.26h101.298c11.189 0 20.26-9.07 20.26-20.26V486.229h121.557c22.378 0 40.519-18.141 40.519-40.519v-40.52a40.266 40.266 0 0 0-13.695-30.136 312.443 312.443 0 0 0 13.695-91.421C557.137 127.24 443.532 0 303.893 0S50.649 127.24 50.649 283.633a312.304 312.304 0 0 0 13.695 91.421 40.266 40.266 0 0 0-13.695 30.136zm20.259 40.52v-40.52c0-11.189 9.071-20.26 20.26-20.26h40.519v81.038H91.168c-11.189.001-20.26-9.069-20.26-20.258zm202.596 81.038h101.298v20.26H273.504zm40.519-60.779v-81.038h60.779v81.038zm-50.649 0h-30.389v-81.038h60.779v81.038zm-50.649-81.038v81.038h-60.779v-81.038zm182.336 0h60.779v81.038h-60.779zm80.937-157.173c.8 46.23-5.026 92.336-17.302 136.914H149.09a487.112 487.112 0 0 1-17.322-137.471c-.081-1.418-.081-2.928-.081-4.346.022-39.926 27.473-74.605 66.327-83.793s78.93 9.522 96.833 45.209a10.557 10.557 0 0 0 18.092 0c17.903-35.687 57.979-54.397 96.833-45.209s66.305 43.868 66.327 83.793c0 1.418 0 2.927-.101 4.903zM374.801 486.229v20.26H273.504v-20.26zM273.504 587.526v-20.26h101.298v20.26zM536.877 445.71c0 11.189-9.07 20.26-20.26 20.26h-40.519v-81.038h40.519c11.189 0 20.26 9.07 20.26 20.26zM70.908 283.633c0-145.22 104.519-263.374 232.985-263.374s232.985 118.154 232.985 263.374a292.283 292.283 0 0 1-11.791 81.96 40.254 40.254 0 0 0-8.468-.922h-36.751a517.638 517.638 0 0 0 16.37-136.235c.122-1.823.122-3.758.122-5.581-.021-46.08-29.698-86.911-73.522-101.154s-91.835 1.339-118.943 38.603c-27.108-37.263-75.119-52.845-118.943-38.603s-73.501 55.074-73.522 101.154c0 1.823 0 3.758.101 5.065a520.598 520.598 0 0 0 16.39 136.752H91.168a40.254 40.254 0 0 0-8.468.922 292.14 292.14 0 0 1-11.792-81.961z" />
    </svg>
  </defs>
  <g data-name="028-rabbit.svg">
    <g transform="rotate(-5 4906.946 -3931.55) scale(.244)">
      <path fill="transparent" d="M0 0h512v512H0z" />
      <use xlink:href="#a" />
    </g>
    <g transform="rotate(-5 -956.418 -4187.55) scale(.244)">
      <path fill="transparent" d="M0 0h512v512H0z" />
      <use xlink:href="#a" />
    </g>
  </g>
  <g transform="rotate(14 -1219.509 415.537) scale(.244)" data-name="021-moose.svg">
    <path fill="transparent" d="M0 0h512v512H0z" />
    <use xlink:href="#b" />
  </g>
  <g data-name="004-fox.svg">
    <g transform="rotate(-8 1507.87 -3481.823) scale(.244)">
      <path fill="transparent" d="M0 0h512v512H0z" />
      <use xlink:href="#c" />
    </g>
    <g transform="rotate(-8 1251.87 179.148) scale(.244)">
      <path fill="transparent" d="M0 0h512v512H0z" />
      <use xlink:href="#c" />
    </g>
  </g>
  <g transform="rotate(12 -97.929 1462.972) scale(.244)" data-name="014-walrus.svg">
    <path fill="transparent" d="M0 0h512v512H0z" />
    <use xlink:href="#d" />
  </g>
  <g transform="rotate(6 -1749.368 1232.752) scale(.244)" data-name="001-deer.svg">
    <path fill="transparent" d="M0 0h512v512H0z" />
    <use xlink:href="#e" />
  </g>
  <g data-name="026-mouse.svg">
    <g transform="rotate(-38 700.984 -429.977) scale(.244)">
      <path fill="transparent" d="M0 0h512v512H0z" />
      <use xlink:href="#f" />
    </g>
    <g transform="rotate(-38 444.984 313.501) scale(.244)">
      <path fill="transparent" d="M0 0h512v512H0z" />
      <use xlink:href="#f" />
    </g>
  </g>
  <g data-name="009-bird.svg">
    <g transform="rotate(-22 1384.444 -971.353) scale(.244)">
      <path fill="transparent" d="M0 0h512v512H0z" />
      <use xlink:href="#g" />
    </g>
    <g transform="rotate(-22 67.438 -1227.353) scale(.244)">
      <path fill="transparent" d="M0 0h512v512H0z" />
      <use xlink:href="#g" />
    </g>
    <g transform="rotate(-22 1128.444 345.653) scale(.244)">
      <path fill="transparent" d="M0 0h512v512H0z" />
      <use xlink:href="#g" />
    </g>
    <g transform="rotate(-22 -188.562 89.653) scale(.244)">
      <path fill="transparent" d="M0 0h512v512H0z" />
      <use xlink:href="#g" />
    </g>
  </g>
  <g transform="rotate(-29 778.842 -140.604) scale(.244)" data-name="029-bear.svg">
    <path fill="transparent" d="M0 0h512v512H0z" />
    <use xlink:href="#h" />
  </g>
  <g transform="rotate(6 -1416.132 3723.696) scale(.244)" data-name="018-wolf.svg">
    <path fill="transparent" d="M0 0h512v512H0z" />
    <use xlink:href="#i" />
  </g>
  <g data-name="012-owl.svg">
    <g transform="rotate(-8 3164.33 -561.908) scale(.244)">
      <path fill="transparent" d="M0 0h512v512H0z" />
      <use xlink:href="#j" />
    </g>
    <g transform="rotate(-8 -496.64 -817.908) scale(.244)">
      <path fill="transparent" d="M0 0h512v512H0z" />
      <use xlink:href="#j" />
    </g>
  </g>
  <g transform="rotate(23 -275.057 717.698) scale(.244)" data-name="017-rabbit.svg">
    <path fill="transparent" d="M0 0h512v512H0z" />
    <use xlink:href="#k" />
  </g>
  <g data-name="010-deer.svg">
    <g transform="rotate(-26 1139.955 -261.54) scale(.25)">
      <path fill="transparent" d="M0 0h512v512H0z" />
      <use xlink:href="#l" />
    </g>
    <g transform="rotate(-26 31.097 -517.54) scale(.25)">
      <path fill="transparent" d="M0 0h512v512H0z" />
      <use xlink:href="#l" />
    </g>
  </g>
  <g data-name="019-robin.svg">
    <g transform="rotate(-15 392.588 -1457.54) scale(.25)">
      <path fill="transparent" d="M0 0h512v512H0z" />
      <use xlink:href="#m" />
    </g>
    <g transform="rotate(-15 136.588 486.973) scale(.25)">
      <path fill="transparent" d="M0 0h512v512H0z" />
      <use xlink:href="#m" />
    </g>
  </g>
  <g transform="rotate(9 -1604.002 2106.618) scale(.25)" data-name="024-squirrel.svg">
    <path fill="transparent" d="M0 0h512v512H0z" />
    <use xlink:href="#n" />
  </g>
  <g transform="rotate(20 -8.268 538.12) scale(.25)" data-name="020-mouse.svg">
    <path fill="transparent" d="M0 0h512v512H0z" />
    <use xlink:href="#o" />
  </g>
  <g transform="rotate(-31 142.067 28.179) scale(.25)" data-name="015-penguin.svg">
    <path fill="transparent" d="M0 0h512v512H0z" />
    <use xlink:href="#p" />
  </g>
</svg>
