<svg xmlns="http://www.w3.org/2000/svg" xmlns:xlink="http://www.w3.org/1999/xlink" width="512" height="512" viewBox="0 0 512 512">
  <defs>
    <svg xmlns="http://www.w3.org/2000/svg" viewBox="0 0 512 512" width="512" height="512" id="a">
      <path d="M283.793 184.631h64.485c5.522 0 10-4.477 10-10s-4.478-10-10-10h-64.485c-5.639 0-10.227-4.587-10.227-10.226s4.588-10.227 10.227-10.227c5.522 0 10-4.477 10-10s-4.478-10-10-10c-16.667 0-30.227 13.56-30.227 30.227 0 16.666 13.56 30.226 30.227 30.226z" />
      <path d="M485.032 384.04V204.247c0-109.634-88.886-198.828-198.142-198.828h-61.78c-22.714 0-44.912 3.809-66.086 11.33-7.078-7.029-16.813-11.33-27.418-11.33-14.864 0-28.02 8.449-34.545 21.016-13.501-4.27-28.777-.943-39.288 9.567S43.935 61.789 48.206 75.29C35.639 81.816 27.19 94.971 27.19 109.835c0 10.598 4.295 20.326 11.315 27.403-7.658 21.454-11.536 43.961-11.536 67.009V384.04C9.983 396.897 0 416.835 0 438.419c0 37.585 30.482 68.163 67.951 68.163h376.098c37.469 0 67.951-30.578 67.951-68.163 0-21.583-9.983-41.522-26.968-54.379zM63.668 91.093a10 10 0 0 0 6.647-16.045c-5.8-7.486-5.112-18.192 1.6-24.904 6.711-6.713 17.419-7.4 24.904-1.601a10.003 10.003 0 0 0 16.045-6.647c1.192-9.394 9.249-16.478 18.742-16.478 9.492 0 17.549 7.084 18.742 16.479a9.999 9.999 0 0 0 16.045 6.645c7.487-5.8 18.192-5.111 24.904 1.601s7.4 17.418 1.6 24.904a10 10 0 0 0 6.647 16.045c9.395 1.192 16.479 9.249 16.479 18.741 0 9.493-7.084 17.55-16.479 18.742a10 10 0 0 0-6.647 16.045c5.8 7.486 5.112 18.192-1.6 24.904-6.711 6.712-17.417 7.4-24.904 1.601a9.998 9.998 0 0 0-16.045 6.645c-1.192 9.395-9.25 16.479-18.742 16.479-9.493 0-17.55-7.084-18.742-16.479a10 10 0 0 0-16.045-6.646c-7.487 5.8-18.193 5.111-24.904-1.601-6.712-6.712-7.4-17.418-1.6-24.904a10 10 0 0 0-6.647-16.045c-9.395-1.192-16.479-9.249-16.479-18.742 0-9.49 7.084-17.547 16.479-18.739zm346.836 242.644c4.59 9.119 6.918 18.951 6.919 29.22 0 41.992-24.223 63.839-71.996 64.935a10 10 0 0 0-9.771 9.998v17.327c0 16.082-12.126 29.398-27.755 31.366H204.108c-15.629-1.969-27.754-15.285-27.754-31.366V437.89a10 10 0 0 0-9.771-9.998c-19.103-.438-34.786-4.35-46.615-11.626-17.287-10.634-25.691-28.071-25.691-53.309 0-10.267 2.328-20.098 6.917-29.219 4.47-8.88 5.112-19.562 1.761-29.308-5.732-16.671-8.705-43.631-8.678-61.645a158.642 158.642 0 0 1 6.267-44.033c7.15 9.46 18.495 15.499 31.061 15.499 14.864 0 28.019-8.449 34.545-21.016 13.5 4.273 28.778.944 39.288-9.566 10.511-10.51 13.838-25.787 9.567-39.288 12.567-6.526 21.016-19.681 21.016-34.545 0-9.509-3.458-18.319-9.24-25.141a161.632 161.632 0 0 1 29.068-2.623c88.963 0 161.444 72.096 161.572 160.714.027 18.012-2.945 44.971-8.678 61.646-3.349 9.742-2.708 20.424 1.761 29.305zM20 438.419c0-16.602 8.35-31.826 22.336-40.723a10 10 0 0 0 4.632-8.438V204.247c0-10.857.956-21.578 2.853-32.098a38.7 38.7 0 0 0 7.951 11.519c6.42 6.42 14.618 10.16 23.104 11.125-4.36 15.577-6.575 31.65-6.599 47.962-.028 19.076 3.016 48.548 9.765 68.178 1.61 4.681 1.35 9.715-.713 13.813-6.006 11.937-9.052 24.793-9.052 38.21 0 32.304 11.847 55.971 35.212 70.344 12.699 7.812 28.431 12.53 46.865 14.072v7.843c0 11.789 3.984 22.667 10.679 31.366H67.951C41.511 486.582 20 464.976 20 438.419zm424.049 48.163h-99.072c6.696-8.7 10.679-19.578 10.679-31.366v-7.844c18.394-1.543 34.078-6.266 46.727-14.082 23.251-14.368 35.04-38.031 35.04-70.333-.001-13.42-3.047-26.276-9.054-38.209-2.062-4.098-2.321-9.133-.712-13.814 6.749-19.632 9.792-49.103 9.764-68.177-.069-47.977-18.987-93.247-53.27-127.47-34.375-34.316-79.94-53.214-128.302-53.214a181.31 181.31 0 0 0-39.133 4.253c.78-10.936-3.046-22.091-11.278-30.322a38.685 38.685 0 0 0-11.373-7.885 178.65 178.65 0 0 1 31.044-2.698h61.781c98.228 0 178.142 80.222 178.142 178.828v185.012a10 10 0 0 0 4.632 8.437C483.65 406.593 492 421.817 492 438.419c0 26.557-21.511 48.163-47.951 48.163z" />
      <path d="M303.692 209.096c-10.961 4.316-19.619 13.034-24.38 24.547-5.945 14.38-5.372 31.756 1.573 47.672 10.23 23.446 31.981 38.269 53.149 38.268 5.365 0 10.694-.953 15.787-2.958 10.961-4.316 19.619-13.034 24.38-24.547 5.945-14.38 5.372-31.756-1.573-47.672-12.822-29.389-43.75-45.227-68.936-35.31zm50.607 43.309c4.785 10.966 5.303 22.641 1.421 32.031-1.887 4.562-5.712 10.621-13.226 13.58-15.29 6.022-34.707-5.058-43.278-24.7-4.785-10.966-5.303-22.641-1.421-32.031 1.887-4.562 5.712-10.621 13.226-13.58 2.822-1.112 5.785-1.641 8.795-1.641 13.294.001 27.494 10.325 34.483 26.341zM162.177 316.625c5.095 2.006 10.42 2.958 15.788 2.958 21.167 0 42.919-14.824 53.149-38.268 6.945-15.916 7.518-33.292 1.572-47.672-4.761-11.513-13.419-20.23-24.38-24.547-25.187-9.918-56.113 5.921-68.937 35.31-6.945 15.917-7.518 33.292-1.572 47.672 4.762 11.513 13.419 20.231 24.38 24.547zm-4.476-64.22c8.57-19.642 27.984-30.723 43.278-24.7 7.513 2.958 11.339 9.018 13.226 13.58 3.882 9.389 3.365 21.064-1.421 32.03-6.989 16.018-21.187 26.342-34.483 26.34-3.008 0-5.973-.529-8.795-1.641-7.513-2.958-11.339-9.018-13.225-13.58-3.884-9.388-3.366-21.062 1.42-32.029zM225.567 341.472a24.071 24.071 0 0 0 2.615 22.286 24.27 24.27 0 0 0 20.028 10.529h15.572a24.273 24.273 0 0 0 20.029-10.529 24.068 24.068 0 0 0 2.615-22.286l-7.786-20.188c-3.631-9.413-12.52-15.494-22.646-15.494-10.125 0-19.013 6.083-22.643 15.495zm18.661 7.197 7.786-20.188c.903-2.341 2.883-2.691 3.983-2.691 1.101 0 3.081.35 3.984 2.692l7.786 20.188c.671 1.74.008 3.111-.446 3.774-.473.689-1.561 1.844-3.538 1.844h-15.572c-1.977 0-3.064-1.155-3.537-1.844-.455-.664-1.117-2.035-.446-3.775zM282.263 394.071c-8.971-2.327-18.538-.999-26.263 3.43-7.724-4.429-17.292-5.758-26.263-3.43-10.399 2.7-18.251 9.638-21.544 19.035a27.4 27.4 0 0 0-1.557 9.081c0 20.043 21.683 35.744 49.363 35.744s49.364-15.701 49.364-35.744c0-3.078-.523-6.133-1.557-9.082-3.292-9.397-11.145-16.334-21.543-19.034zM256 437.931c-16.806 0-29.363-8.312-29.363-15.744 0-.832.141-1.639.432-2.468 1.493-4.262 5.879-5.818 7.695-6.29a15.822 15.822 0 0 1 3.968-.508c3.498 0 6.858 1.174 9.319 3.357l1.312 1.164a10.001 10.001 0 0 0 13.275.001l1.312-1.164c3.389-3.007 8.484-4.098 13.288-2.851 1.816.472 6.202 2.028 7.695 6.289.29.83.432 1.637.432 2.469-.002 7.433-12.559 15.745-29.365 15.745zM357.038 336.094c-18.166 0-32.944 14.779-32.944 32.945s14.778 32.944 32.944 32.944 32.945-14.779 32.945-32.944c0-18.166-14.779-32.945-32.945-32.945zm0 45.889c-7.138 0-12.944-5.807-12.944-12.944s5.807-12.945 12.944-12.945 12.945 5.807 12.945 12.945-5.807 12.944-12.945 12.944zM154.962 336.094c-18.166 0-32.945 14.779-32.945 32.945s14.779 32.944 32.945 32.944 32.944-14.779 32.944-32.944c0-18.166-14.779-32.945-32.944-32.945zm0 45.889c-7.138 0-12.945-5.807-12.945-12.944s5.807-12.945 12.945-12.945 12.944 5.807 12.944 12.945-5.806 12.944-12.944 12.944zM131.605 146.335c20.127 0 36.501-16.374 36.501-36.501s-16.374-36.501-36.501-36.501-36.501 16.374-36.501 36.501 16.375 36.501 36.501 36.501zm0-53.002c9.099 0 16.501 7.402 16.501 16.501s-7.402 16.501-16.501 16.501-16.501-7.402-16.501-16.501 7.403-16.501 16.501-16.501z" />
    </svg>
    <svg xmlns="http://www.w3.org/2000/svg" viewBox="0 0 512 512" width="512" height="512" id="b">
      <path d="M244.792 120.541A15.746 15.746 0 0 0 256 125.184c4.233 0 8.213-1.648 11.208-4.642l24.867-24.867c11.958-11.959 12.113-31.405.345-43.348-5.775-5.862-13.487-9.107-21.714-9.137-5.256-.004-10.246 1.257-14.706 3.68-4.461-2.423-9.511-3.741-14.708-3.681-8.226.03-15.937 3.275-21.712 9.137-11.768 11.943-11.613 31.389.346 43.348zm-10.966-54.178a10.57 10.57 0 0 1 7.541-3.175h.041c2.841 0 5.511 1.106 7.521 3.116 3.905 3.905 10.237 3.904 14.142 0a10.562 10.562 0 0 1 7.521-3.115h.041a10.572 10.572 0 0 1 7.542 3.174c4.085 4.146 3.977 10.951-.242 15.168L256 103.464l-21.933-21.933c-4.218-4.217-4.326-11.022-.241-15.168z" />
      <path d="M454.414 303.385c-2.579-5.125-2.91-11.405-.909-17.227 7.758-22.564 11.257-56.485 11.225-78.453-.08-55.149-21.828-107.188-61.238-146.53C363.975 21.726 311.594 0 255.999 0S148.023 21.726 108.506 61.175c-39.41 39.342-61.158 91.38-61.238 146.53-.032 21.968 3.466 55.889 11.224 78.453 2.002 5.823 1.671 12.102-.908 17.227-6.845 13.603-10.316 28.254-10.316 43.547 0 36.831 13.469 63.791 40.032 80.13 14.828 9.121 33.307 14.551 55.036 16.187v10.546c0 32.094 26.188 58.205 58.376 58.205h110.932c32.189 0 58.376-26.111 58.376-58.205v-10.547c21.681-1.638 40.107-7.071 54.875-16.196 26.433-16.334 39.836-43.291 39.836-80.12 0-15.294-3.471-29.945-10.317-43.547zM255.999 20c60.382 0 114.264 28.435 148.842 72.569C372.158 123.535 316.049 142.52 256 142.52c-61.154 0-116.092-18.548-148.861-49.927C141.716 48.446 195.606 20 255.999 20zm103.793 403.728a10 10 0 0 0-9.771 9.998v20.069c0 21.066-17.216 38.205-38.376 38.205H200.713c-21.161 0-38.376-17.139-38.376-38.205v-20.069a10 10 0 0 0-9.771-9.998c-31.393-.72-54.202-8.989-68.292-24.686h45.12c17.837 0 32.349-14.512 32.349-32.349s-14.512-32.349-32.349-32.349c-5.523 0-10 4.477-10 10s4.477 10 10 10c6.809 0 12.349 5.54 12.349 12.349s-5.54 12.349-12.349 12.349H72.392c-3.412-9.276-5.124-19.983-5.124-32.111 0-12.142 2.752-23.769 8.181-34.556 4.987-9.907 5.7-21.833 1.957-32.721-6.696-19.475-10.168-50.922-10.137-71.92.053-36.14 10.407-69.927 28.285-98.6C132.229 142.739 191.152 162.52 256 162.52c64.71 0 123.601-19.785 160.433-53.407 17.886 28.677 28.245 62.472 28.298 98.621.031 20.998-3.441 52.444-10.138 71.921-3.742 10.885-3.029 22.811 1.956 32.718v.001c5.429 10.788 8.183 22.415 8.184 34.557 0 12.128-1.704 22.835-5.101 32.111h-57.025c-6.809 0-12.349-5.54-12.349-12.349s5.54-12.349 12.349-12.349c5.523 0 10-4.477 10-10s-4.477-10-10-10c-17.837 0-32.349 14.512-32.349 32.349s14.512 32.349 32.349 32.349h45.195c-14.031 15.7-36.746 23.969-68.01 24.686z" />
      <path d="M280.054 300.388c-3.853-10.024-13.294-16.502-24.054-16.502s-20.201 6.478-24.054 16.502l-8.608 22.4a25.656 25.656 0 0 0 2.805 23.737 25.77 25.77 0 0 0 21.249 11.171h17.216a25.77 25.77 0 0 0 21.249-11.171 25.656 25.656 0 0 0 2.805-23.737zM269.371 335.2c-.516.75-2.012 2.497-4.764 2.497h-17.216c-2.751 0-4.248-1.746-4.764-2.497-.631-.918-1.55-2.819-.621-5.238l8.608-22.399c1.275-3.318 4.19-3.676 5.385-3.676 1.194 0 4.11.358 5.385 3.676l8.608 22.4c.93 2.417.01 4.319-.621 5.237zM399.002 274.399c4.511-16.675 3.106-35.538-3.957-53.114-8.34-20.753-23.437-36.924-41.419-44.364-13.3-5.503-27.343-5.662-39.542-.445-14.713 6.292-25.439 19.453-30.202 37.06-4.511 16.675-3.106 35.538 3.957 53.113 8.34 20.754 23.437 36.924 41.419 44.364 6.838 2.829 13.87 4.245 20.749 4.245 6.501 0 12.866-1.266 18.793-3.8 14.713-6.29 25.439-19.452 30.202-37.059zm-62.098 18.135c-12.85-5.317-24.255-17.781-30.508-33.341-10.906-27.139-3.931-55.996 15.55-64.326 3.752-1.604 7.452-2.218 10.917-2.218 5.068 0 9.633 1.312 13.115 2.753 12.85 5.317 24.255 17.781 30.508 33.341 10.906 27.139 3.931 55.996-15.55 64.326-9.242 3.952-18.17 1.891-24.032-.535zM224.161 266.651c7.063-17.576 8.468-36.438 3.957-53.114-4.763-17.607-15.489-30.769-30.202-37.06-12.198-5.215-26.241-5.059-39.542.445-17.982 7.44-33.079 23.61-41.419 44.364-7.063 17.576-8.468 36.438-3.957 53.114 4.763 17.607 15.489 30.769 30.202 37.06 5.928 2.535 12.291 3.8 18.793 3.8 6.878 0 13.912-1.417 20.749-4.245 17.982-7.441 33.079-23.611 41.419-44.364zm-49.065 25.883c-5.863 2.426-14.792 4.488-24.033.536-19.481-8.33-26.457-37.187-15.55-64.326 6.253-15.561 17.658-28.024 30.508-33.341 3.483-1.441 8.046-2.753 13.115-2.753 3.464 0 7.166.613 10.917 2.218 19.481 8.33 26.457 37.187 15.55 64.327-6.253 15.558-17.657 28.022-30.507 33.339zM204.566 401.82c-5.523 0-10 4.477-10 10v23.617c0 5.523 4.477 10 10 10s10-4.477 10-10V411.82c0-5.523-4.477-10-10-10zM256 401.82c-5.523 0-10 4.477-10 10v23.617c0 5.523 4.477 10 10 10s10-4.477 10-10V411.82c0-5.523-4.477-10-10-10zM307.433 401.82c-5.523 0-10 4.477-10 10v23.617c0 5.523 4.477 10 10 10s10-4.477 10-10V411.82c0-5.523-4.477-10-10-10zM246.77 197.48c1.579 3.851 5.557 6.382 9.719 6.165 4.129-.215 7.745-3.005 9.024-6.93 1.287-3.951-.117-8.468-3.427-10.986-3.372-2.565-8.106-2.732-11.636-.379-3.915 2.609-5.49 7.786-3.68 12.13zM388.06 170.74c1.586 3.808 5.442 6.293 9.565 6.165 4.12-.128 7.808-2.877 9.134-6.774 1.401-4.117-.098-8.813-3.638-11.342-3.26-2.329-7.682-2.458-11.09-.365-4.114 2.526-5.828 7.859-3.971 12.316zM112.75 176.72c4.02.819 8.291-1.036 10.446-4.527 2.226-3.606 1.924-8.342-.767-11.623-2.647-3.227-7.164-4.474-11.093-3.065-3.926 1.408-6.634 5.223-6.636 9.405-.003 4.726 3.435 8.873 8.05 9.81z" />
    </svg>
    <svg xmlns="http://www.w3.org/2000/svg" viewBox="0 0 512 512" width="512" height="512" id="c">
      <path d="M439.966 386.454c.582-4.527.876-9.106.876-13.683 0-58.583-47.657-106.244-106.235-106.244a106.088 106.088 0 0 0-70.753 26.978c9.037-68.62-36.205-133.976-105.029-148.683a136.704 136.704 0 0 0-12.02-2.01 9.998 9.998 0 0 0-9.53 15.466c14.366 21.595 19.294 47.455 13.876 72.815-5.326 24.93-20.041 46.293-41.433 60.154-21.393 13.861-46.902 18.562-71.828 13.234a95.735 95.735 0 0 1-23.36-8.254A9.998 9.998 0 0 0 .279 307.488c5.851 24.243 18.32 46.359 36.058 63.958 18.227 18.084 41.188 30.491 66.404 35.879 1.574.336 3.155.644 4.741.924-5.952 10.252-9.2 22.051-9.2 34.423a68.326 68.326 0 0 0 4.057 23.271 10 10 0 0 0 9.406 6.604h344.091a10 10 0 0 0 9.406-6.605 68.354 68.354 0 0 0 4.056-23.271c0-22.533-11.08-43.478-29.332-56.217zM26.323 322.208a117.15 117.15 0 0 0 7.388 1.833c30.152 6.443 61.007.758 86.882-16.009 25.875-16.766 43.674-42.606 50.116-72.76 4.971-23.266 2.742-46.879-6.207-68.325 55.86 17.218 90.403 74.758 77.962 132.993-.208.974-.43 1.946-.663 2.916a89.85 89.85 0 0 0-26.159-3.896c-49.068 0-89.049 39.659-89.584 88.606a69.238 69.238 0 0 0-3.15 2.465 115.65 115.65 0 0 1-15.989-2.264c-35.959-7.683-65.905-32.538-80.596-65.559zm421.972 130.341H119.286a48.772 48.772 0 0 1-1.004-9.875c0-16.98 8.645-32.441 23.126-41.357a9.998 9.998 0 0 0 4.743-9.039 71.052 71.052 0 0 1-.098-3.72c0-38.376 31.218-69.597 69.589-69.597 11.965 0 23.761 3.084 34.113 8.92a10 10 0 0 0 13.211-3.135c16.075-23.931 42.856-38.218 71.639-38.218 47.55 0 86.235 38.689 86.235 86.244 0 5.623-.544 11.247-1.618 16.716a10 10 0 0 0 4.977 10.679c15.481 8.554 25.098 24.842 25.098 42.508a48.704 48.704 0 0 1-1.002 9.874zM255.802 132.944l45.728 25.012 25.01 45.733a9.999 9.999 0 0 0 17.548 0l25.01-45.733 45.728-25.012a10 10 0 0 0 0-17.546l-45.729-25.011-25.009-45.733a9.999 9.999 0 0 0-17.548 0l-25.009 45.733-45.729 25.011a10 10 0 0 0 0 17.546zm57.896-26.417a9.998 9.998 0 0 0 3.975-3.976l17.641-32.259 17.641 32.259a10.005 10.005 0 0 0 3.975 3.976l32.258 17.644-32.258 17.644a9.998 9.998 0 0 0-3.975 3.976l-17.641 32.259-17.641-32.259a10.005 10.005 0 0 0-3.975-3.976l-32.258-17.644zM506.799 214.291l-30.708-16.796-16.794-30.71a9.999 9.999 0 0 0-17.548 0l-16.794 30.71-30.708 16.796a10 10 0 0 0 0 17.546l30.708 16.796 16.794 30.71a9.999 9.999 0 0 0 17.548 0l16.794-30.71 30.708-16.796a10 10 0 0 0 0-17.546zm-42.875 18.202a9.998 9.998 0 0 0-3.975 3.976l-9.426 17.236-9.426-17.236a10.005 10.005 0 0 0-3.975-3.976l-17.237-9.428 17.237-9.428a9.998 9.998 0 0 0 3.975-3.976l9.426-17.236 9.426 17.236a10.005 10.005 0 0 0 3.975 3.976l17.237 9.428z" />
    </svg>
    <svg xmlns="http://www.w3.org/2000/svg" viewBox="0 0 512.005 512.005" width="512.005" height="512.005" id="d">
      <path d="M426.266 247.053h-27.713c-4.854 0-8.802-3.948-8.802-8.802s3.948-8.803 8.802-8.803c5.522 0 10-4.478 10-10s-4.478-10-10-10c-15.881 0-28.802 12.921-28.802 28.803 0 15.881 12.921 28.802 28.802 28.802h27.713c5.522 0 10-4.478 10-10s-4.478-10-10-10zM142.265 238.251c0-15.882-12.921-28.803-28.802-28.803-5.522 0-10 4.478-10 10s4.478 10 10 10c4.854 0 8.802 3.949 8.802 8.803s-3.948 8.802-8.802 8.802H85.75c-5.522 0-10 4.478-10 10s4.478 10 10 10h27.713c15.881 0 28.802-12.921 28.802-28.802zM303.787 246.779a10.002 10.002 0 0 0-7.976-6.093 15.934 15.934 0 0 1-9.333-4.585 15.936 15.936 0 0 1-4.587-9.335 10 10 0 0 0-16.041-6.645c-2.837 2.196-6.241 3.357-9.843 3.357s-7.006-1.161-9.843-3.357a10.002 10.002 0 0 0-16.041 6.645 15.934 15.934 0 0 1-4.585 9.333 15.936 15.936 0 0 1-9.335 4.587 10 10 0 0 0-6.645 16.041c2.196 2.837 3.357 6.241 3.357 9.843s-1.161 7.006-3.357 9.843a10.002 10.002 0 0 0 6.645 16.041 15.934 15.934 0 0 1 9.333 4.585 15.936 15.936 0 0 1 4.587 9.335 10 10 0 0 0 16.041 6.645c2.837-2.196 6.241-3.357 9.843-3.357s7.006 1.161 9.843 3.357a9.996 9.996 0 0 0 9.948 1.331 10.002 10.002 0 0 0 6.093-7.976 15.934 15.934 0 0 1 4.585-9.333 15.936 15.936 0 0 1 9.335-4.587 10 10 0 0 0 6.645-16.041c-2.196-2.837-3.357-6.241-3.357-9.843s1.161-7.006 3.357-9.843 2.703-6.633 1.331-9.948zm-23.249 29.952a36.198 36.198 0 0 0-8.204 6.167 36.207 36.207 0 0 0-6.165 8.202c-6.521-1.904-13.801-1.904-20.322 0a36.198 36.198 0 0 0-6.167-8.204 36.207 36.207 0 0 0-8.202-6.165c.952-3.261 1.439-6.67 1.439-10.161s-.487-6.9-1.439-10.161a36.198 36.198 0 0 0 8.204-6.167 36.207 36.207 0 0 0 6.165-8.202c6.521 1.904 13.801 1.904 20.322 0a36.198 36.198 0 0 0 6.167 8.204 36.207 36.207 0 0 0 8.202 6.165c-.952 3.261-1.439 6.67-1.439 10.161s.487 6.9 1.439 10.161z" />
      <path d="M511.77 172.273c-1.897-35.457-16.914-68.753-42.284-93.756-25.705-25.334-59.252-39.286-94.459-39.286-42.323 0-78.677 26.893-101.721 49.453-9.387 9.188-24.599 9.085-33.909-.23-22.449-22.455-58.44-49.223-102.417-49.223-35.204 0-68.748 13.952-94.453 39.286C17.157 103.52 2.141 136.816.243 172.274c-1.888 35.365 7.146 66.12 29.29 99.725C57.462 314.368 177.326 419.057 227.564 462.1c8.307 7.117 18.486 10.675 28.666 10.675 10.187 0 20.374-3.563 28.684-10.689 50.044-42.923 169.475-147.368 197.579-190.097 14.905-22.674 31.701-54.497 29.277-99.716zM331.978 251.06c5.112 3.518 8.165 9.315 8.165 15.51s-3.053 11.992-8.166 15.511c-8.885 6.113-13.326 16.736-11.316 27.062a18.812 18.812 0 0 1-22.079 22.079c-10.322-2.011-20.949 2.432-27.063 11.317a18.829 18.829 0 0 1-15.51 8.165 18.832 18.832 0 0 1-15.511-8.166c-5.138-7.466-13.458-11.794-22.111-11.794-1.645 0-3.303.156-4.951.478a18.813 18.813 0 0 1-22.079-22.079c2.01-10.326-2.432-20.949-11.317-27.063-5.112-3.518-8.165-9.315-8.165-15.51s3.053-11.992 8.166-15.511c8.885-6.113 13.326-16.736 11.316-27.062a18.812 18.812 0 0 1 22.079-22.079c10.324 2.012 20.948-2.432 27.063-11.317a18.829 18.829 0 0 1 15.51-8.165 18.832 18.832 0 0 1 15.511 8.166c6.114 8.885 16.739 13.329 27.062 11.316a18.813 18.813 0 0 1 22.079 22.079c-2.01 10.326 2.431 20.949 11.317 27.063zm133.804 9.939c-26.705 40.6-144.488 143.533-193.889 185.903-9.072 7.779-22.241 7.784-31.317.009C190.982 404.418 72.763 301.24 46.233 260.992c-19.638-29.801-27.662-56.834-26.019-87.65 3.369-62.921 55.749-114.11 116.766-114.11 37.128 0 68.496 23.581 88.272 43.363a43.826 43.826 0 0 0 20.756 11.639v49.512a38.832 38.832 0 0 0-21.985 15.518c-1.576 2.29-4.292 3.499-6.768 3.023a38.778 38.778 0 0 0-34.882 10.649 38.78 38.78 0 0 0-10.648 34.881c.48 2.472-.734 5.191-3.022 6.767a38.82 38.82 0 0 0-16.829 31.986 38.819 38.819 0 0 0 16.828 31.985c2.289 1.576 3.504 4.296 3.023 6.768a38.782 38.782 0 0 0 10.649 34.882 38.778 38.778 0 0 0 34.881 10.648c2.475-.475 5.191.733 6.767 3.022 7.249 10.538 19.207 16.829 31.986 16.829s24.737-6.291 31.985-16.828c1.576-2.29 4.293-3.497 6.768-3.023a38.779 38.779 0 0 0 34.882-10.649 38.78 38.78 0 0 0 10.648-34.881c-.48-2.472.734-5.191 3.022-6.767 10.538-7.249 16.829-19.207 16.829-31.986s-6.291-24.737-16.828-31.985c-2.289-1.576-3.504-4.296-3.023-6.768a38.782 38.782 0 0 0-10.649-34.882 38.778 38.778 0 0 0-34.881-10.648c-2.475.475-5.191-.734-6.767-3.022a38.84 38.84 0 0 0-21.986-15.519v-49.29a43.66 43.66 0 0 0 21.289-11.48c20.384-19.956 52.15-43.744 87.729-43.744 61.021 0 113.404 51.189 116.772 114.111 1.649 30.744-6.375 57.778-26.016 87.656z" />
      <path d="M265.237 403.176c-1.659-3.984-5.814-6.527-10.123-6.135-4.132.375-7.686 3.369-8.761 7.376-1.063 3.962.478 8.336 3.833 10.714 3.421 2.425 8.049 2.463 11.507.092 3.851-2.639 5.307-7.749 3.544-12.047zM463.237 187.876c-1.658-3.983-5.817-6.516-10.123-6.125-4.128.375-7.693 3.358-8.761 7.368-1.057 3.965.475 8.329 3.833 10.711 3.419 2.425 8.05 2.464 11.507.093 3.85-2.64 5.308-7.748 3.544-12.047zM67.237 187.876c-1.658-3.983-5.817-6.516-10.123-6.125-4.129.375-7.692 3.358-8.761 7.368-1.057 3.965.475 8.329 3.833 10.711 3.419 2.425 8.05 2.464 11.507.093 3.85-2.64 5.308-7.748 3.544-12.047zM383.487 305.796c-1.636-3.931-5.692-6.455-9.948-6.148-4.135.299-7.727 3.205-8.888 7.18-1.109 3.794.192 8.022 3.26 10.521 3.293 2.682 8.004 3 11.619.762 4.099-2.536 5.815-7.86 3.957-12.315zM146.998 305.796c-1.66-3.988-5.814-6.525-10.128-6.135-4.138.374-7.683 3.359-8.763 7.369-1.074 3.989.484 8.309 3.833 10.717 3.39 2.438 8.081 2.473 11.511.094 3.812-2.643 5.337-7.751 3.547-12.045zM127.08 189.629c26.052 0 47.247-21.195 47.247-47.247s-21.195-47.247-47.247-47.247-47.247 21.195-47.247 47.247 21.195 47.247 47.247 47.247zm0-74.494c15.024 0 27.247 12.223 27.247 27.247s-12.223 27.247-27.247 27.247-27.247-12.223-27.247-27.247 12.223-27.247 27.247-27.247zM432.183 142.382c0-26.052-21.195-47.247-47.247-47.247s-47.247 21.195-47.247 47.247 21.195 47.247 47.247 47.247 47.247-21.195 47.247-47.247zm-74.494 0c0-15.024 12.223-27.247 27.247-27.247s27.247 12.223 27.247 27.247-12.223 27.247-27.247 27.247-27.247-12.222-27.247-27.247z" />
    </svg>
    <svg xmlns="http://www.w3.org/2000/svg" viewBox="0 0 512 512" width="512" height="512" id="e">
      <path d="M422.337 191.523c-18.571 0-35.061 10.487-43.122 26.494a75.785 75.785 0 0 0-13.175-2.879l-61.943-81.463V10c0-5.522-4.478-10-10-10s-10 4.478-10 10v123.675l-47.905 63.002V74.099a9.96 9.96 0 0 0-.986-4.335c-5.448-31.104-32.708-54.188-64.65-54.188h-4.994c-5.523 0-10 4.478-10 10v38.523h-30.505c-30.26 0-54.878 24.593-54.878 54.82v16.343c-16.357 2.563-28.909 16.741-28.909 33.792v31.272c0 18.86 15.358 34.205 34.236 34.205H98.57V502c0 5.522 4.477 10 10 10h41.957c28.166 0 51.08-22.914 51.08-51.08v-64.942h127.742v64.942c0 28.166 22.915 51.08 51.081 51.08h41.957c5.522 0 10-4.478 10-10V388.419c.196-.781.301-1.599.301-2.441v-68.192c7.237 2.086 14.748 3.138 22.46 3.138h5.582c5.522 0 10-4.478 10-10v-71.105c0-26.631-21.665-48.296-48.393-48.296zm-128.239-37.957 46.356 60.965h-92.712zM61.27 200.326v-31.272c0-7.833 6.386-14.205 14.236-14.205h4.673c5.523 0 10-4.478 10-10v-25.93c0-19.2 15.646-34.82 34.878-34.82h30.505v16.604c0 5.522 4.477 10 10 10s10-4.478 10-10V35.849c20.708 2.276 37.607 18.499 40.267 39.506.074.582.196 1.146.363 1.689v137.487H75.506c-7.85 0-14.236-6.372-14.236-14.205zm295.123 34.205c31.041 0 56.295 25.254 56.295 56.295v7.686l-24.377 12.545-36.325-18.693a9.993 9.993 0 0 0-9.152 0l-36.318 18.692-36.321-18.692a9.993 9.993 0 0 0-9.152 0l-36.318 18.692-36.318-18.692a10.001 10.001 0 0 0-9.153 0l-36.312 18.692-24.37-12.544v-63.98h237.821zm56.295 141.447H118.57v-54.971l19.793 10.188a9.995 9.995 0 0 0 9.153 0l36.313-18.692 36.317 18.692a9.993 9.993 0 0 0 9.152 0l36.318-18.692 36.321 18.692a9.993 9.993 0 0 0 9.152 0l36.318-18.693 36.325 18.693a9.998 9.998 0 0 0 9.152 0l19.801-10.19v54.973zM150.527 492H118.57v-40.996h63.037v9.916c0 17.138-13.942 31.08-31.08 31.08zm31.08-60.996H118.57v-35.026h63.037zm230.78-35.026v35.026h-63.038v-35.026zM380.43 492c-17.138 0-31.081-13.942-31.081-31.08v-9.916h63.038V492zm70.3-191.231a60.148 60.148 0 0 1-18.042-4.098v-5.844c0-27.005-14.103-50.777-35.33-64.34 4.821-9.062 14.33-14.963 25.078-14.963 15.602 0 28.294 12.692 28.294 28.294z" />
      <path d="M138.732 153.897c5.523 0 10-4.478 10-10v-13.704c0-5.522-4.477-10-10-10s-10 4.478-10 10v13.704c0 5.523 4.477 10 10 10zM191.52 342.21c-1.602-3.85-5.568-6.381-9.74-6.154-4.059.22-7.646 2.921-8.962 6.77-1.347 3.938-.023 8.462 3.247 11.043 3.286 2.594 7.932 2.856 11.492.657 4.117-2.544 5.794-7.853 3.963-12.316zM274.86 342.21c-1.636-3.93-5.694-6.455-9.948-6.148-4.169.301-7.718 3.243-8.892 7.232-1.175 3.99.405 8.467 3.79 10.871 3.371 2.394 7.924 2.463 11.371.185 3.941-2.605 5.462-7.794 3.679-12.14zM359.67 342.21c-1.61-3.868-5.58-6.388-9.771-6.161-4.154.225-7.819 3.112-9.029 7.088-1.195 3.926.207 8.346 3.484 10.833 3.385 2.57 8.09 2.725 11.637.379 3.94-2.605 5.463-7.792 3.679-12.139z" />
    </svg>
    <svg xmlns="http://www.w3.org/2000/svg" viewBox="0 0 512 512" width="512" height="512" id="f">
      <path d="M390.695 299.183H376.03a149.735 149.735 0 0 0 17.326-28.033l8.017 2.784a9.986 9.986 0 0 0 3.281.556c4.14 0 8.012-2.591 9.446-6.723 1.812-5.217-.949-10.915-6.167-12.727l-7.235-2.512c4.638-14.57 7.06-29.946 7.102-45.745h9.311c5.523 0 10-4.477 10-10s-4.477-10-10-10h-10.573a150 150 0 0 0-10.152-38.05l8.971-4.984c4.828-2.682 6.567-8.77 3.884-13.598-2.682-4.827-8.77-6.567-13.598-3.884l-8.125 4.514a152.48 152.48 0 0 0-24.867-32.111l7.946-7.694c3.968-3.842 4.07-10.173.229-14.141-3.842-3.967-10.173-4.07-14.141-.229l-9.225 8.931a151.661 151.661 0 0 0-44.905-23.369 30.354 30.354 0 0 0 3.478-12.078c.581-8.277-2.102-16.26-7.555-22.478-3.849-4.388-8.735-7.527-14.173-9.178C279.499 7.431 268.541 0 256.044 0c-12.498 0-23.456 7.431-28.262 18.436-5.438 1.651-10.325 4.79-14.173 9.178-5.453 6.218-8.136 14.201-7.555 22.478a30.431 30.431 0 0 0 3.447 12.06 151.66 151.66 0 0 0-44.962 23.387l-9.225-8.931c-3.967-3.84-10.299-3.739-14.141.229-3.841 3.968-3.739 10.299.229 14.141l7.946 7.694a152.514 152.514 0 0 0-24.867 32.111l-8.125-4.514c-4.829-2.683-10.917-.942-13.598 3.884-2.683 4.828-.943 10.916 3.884 13.598l8.971 4.984a150 150 0 0 0-10.152 38.05H94.889c-5.523 0-10 4.477-10 10s4.477 10 10 10h9.311c.042 15.799 2.464 31.175 7.102 45.745l-7.235 2.512c-5.217 1.812-7.978 7.51-6.167 12.727a10.005 10.005 0 0 0 9.446 6.723 9.99 9.99 0 0 0 3.281-.556l8.017-2.784a149.82 149.82 0 0 0 17.326 28.033h-14.666c-19.386 0-35.158 15.771-35.158 35.158s15.771 35.158 35.158 35.158h2.589l21.412 97.972c5.64 25.803 28.921 44.53 55.36 44.53h110.67c26.438 0 49.72-18.728 55.36-44.53l21.412-97.972h2.589c19.386 0 35.158-15.771 35.158-35.158s-15.772-35.16-35.159-35.16zm-2.893-92.814c0 35.205-13.62 68.01-38.44 92.813h-16.84c12.951-26.345 19.962-58.632 19.962-92.813 0-39.607-9.517-76.99-26.798-105.261a135.15 135.15 0 0 0-7.012-10.386c41.136 22.276 69.128 65.762 69.128 115.647zm-208.284 0c0-35.978 8.475-69.656 23.862-94.831C215.335 91.98 230.191 79.693 246 76.034v219.908c0 1.134.189 2.224.537 3.241h-44.362c-14.446-24.693-22.657-58.155-22.657-92.814zM266 295.942V76.034c15.809 3.659 30.666 15.947 42.62 35.504 15.388 25.175 23.863 58.853 23.863 94.831 0 34.659-8.212 68.12-22.658 92.813h-44.362a9.981 9.981 0 0 0 .537-3.24zM226.004 48.69c-.205-2.913.733-5.714 2.64-7.889a10.765 10.765 0 0 1 7.489-3.679 9.999 9.999 0 0 0 9.239-8.234c.914-5.15 5.402-8.888 10.671-8.888s9.757 3.738 10.671 8.889a10 10 0 0 0 9.239 8.233 10.767 10.767 0 0 1 7.489 3.679c1.907 2.174 2.845 4.977 2.64 7.889-.236 3.358-2.127 6.429-4.974 8.265a152.492 152.492 0 0 0-25.109-2.072c-8.524 0-16.886.705-25.031 2.059-2.816-1.84-4.731-4.933-4.964-8.252zM124.198 206.369c0-49.885 27.992-93.371 69.129-115.647a135.73 135.73 0 0 0-7.012 10.386c-17.281 28.271-26.798 65.654-26.798 105.261 0 34.182 7.011 66.469 19.961 92.813h-16.84c-24.82-24.803-38.44-57.608-38.44-92.813zm222.958 256.83C343.509 479.888 328.444 492 311.335 492h-110.67c-17.109 0-32.174-12.112-35.821-28.801l-20.479-93.701h223.27zm43.539-113.701h-269.39c-8.358 0-15.158-6.8-15.158-15.158s6.8-15.158 15.158-15.158h269.391c8.358 0 15.158 6.8 15.158 15.158s-6.801 15.158-15.159 15.158z" />
      <path d="M203.157 416.984h105.686c5.523 0 10-4.477 10-10s-4.477-10-10-10H203.157c-5.523 0-10 4.477-10 10s4.477 10 10 10z" />
    </svg>
    <svg xmlns="http://www.w3.org/2000/svg" viewBox="0 0 512 512" width="512" height="512" id="g">
      <path d="M474.899 185.703c-11.361-7.822-17.085-21.19-14.583-34.057 5.431-27.917-3.312-56.576-23.389-76.664-20.079-20.09-48.728-28.839-76.633-23.403-12.856 2.505-26.212-3.224-34.028-14.589C310.336 13.828 284.068 0 256 0s-54.336 13.828-70.267 36.99c-7.817 11.365-21.173 17.085-34.028 14.589-27.909-5.435-56.554 3.314-76.632 23.403-20.077 20.088-28.82 48.747-23.389 76.663 2.503 12.867-3.221 26.235-14.583 34.058C13.952 201.641.132 227.92.132 256s13.82 54.359 36.969 70.297c11.361 7.822 17.085 21.19 14.583 34.057-5.431 27.917 3.312 56.576 23.389 76.664 20.078 20.089 48.725 28.839 76.632 23.403 12.854-2.51 26.211 3.223 34.028 14.589C201.664 498.172 227.932 512 256 512s54.336-13.828 70.268-36.991c7.816-11.365 21.17-17.087 34.028-14.588 27.907 5.438 56.555-3.313 76.632-23.403 20.077-20.088 28.82-48.747 23.389-76.663-2.503-12.867 3.221-26.235 14.583-34.058 23.148-15.938 36.969-42.217 36.969-70.297s-13.821-54.359-36.97-70.297zm-11.341 124.121c-17.917 12.336-26.896 33.669-22.873 54.35 4.16 21.381-2.533 43.327-17.903 58.705-15.367 15.376-37.296 22.076-58.663 17.911-20.675-4.026-42 4.957-54.33 22.886C297.59 481.411 277.482 492 256 492s-41.59-10.589-53.789-28.324c-10.375-15.085-27.115-23.836-44.479-23.836-3.274 0-6.572.312-9.852.95-21.365 4.162-43.295-2.535-58.664-17.911-15.37-15.378-22.062-37.324-17.903-58.706 4.023-20.68-4.955-42.013-22.873-54.349C30.715 297.619 20.132 277.498 20.132 256s10.583-41.619 28.311-53.824c17.917-12.336 26.896-33.669 22.873-54.35-4.16-21.381 2.533-43.327 17.903-58.705 15.369-15.377 37.3-22.073 58.664-17.911 20.673 4.026 42-4.957 54.33-22.886C214.41 30.589 234.518 20 256 20s41.59 10.589 53.788 28.323c12.331 17.93 33.653 26.913 54.331 22.887 21.367-4.165 43.296 2.535 58.664 17.911 15.37 15.378 22.062 37.324 17.903 58.706-4.023 20.68 4.955 42.013 22.873 54.349 17.727 12.205 28.311 32.326 28.311 53.824s-10.585 41.619-28.312 53.824z" />
      <path d="M416.285 189.615c8.186-26.234 1.249-55.485-18.611-75.357-19.847-19.858-49.076-26.794-75.315-18.619C309.777 71.816 284.752 55.544 256 55.544c-28.749 0-53.772 16.269-66.354 40.087-26.219-8.19-55.456-1.248-75.32 18.626-19.884 19.896-26.83 49.159-18.622 75.363-23.802 12.59-40.058 37.622-40.058 66.38 0 28.765 16.264 53.801 40.074 66.388-8.177 26.246-1.245 55.493 18.606 75.354 14.384 14.392 33.673 22.006 53.172 22.005a74.227 74.227 0 0 0 22.15-3.374c12.583 23.816 37.604 40.083 66.352 40.083 28.746 0 53.766-16.265 66.35-40.079a74.083 74.083 0 0 0 22.15 3.377c19.492 0 38.786-7.618 53.174-22.013 19.888-19.899 26.835-49.164 18.624-75.364 23.801-12.59 40.056-37.621 40.056-66.378 0-28.762-16.261-53.797-40.069-66.384zm-32.758-61.219c14.339 14.347 19.504 35.341 13.951 54.319a74.936 74.936 0 0 0-16.119-1.745 87.87 87.87 0 0 0-6.543.255c-.952-10.983-5.618-21.702-14.001-30.09-8.159-8.163-18.712-13.06-30.075-14.036.169-2.267.254-4.446.254-6.527 0-5.534-.602-10.929-1.744-16.125 18.982-5.541 39.954-.382 54.277 13.949zm-36.858 218.33c-5.385 5.389-12.545 8.355-20.16 8.355-7.616 0-14.775-2.967-20.161-8.355-7.54-7.543-16.287-23.645-19.365-38.146a61.374 61.374 0 0 0 12.14-9.44 60.904 60.904 0 0 0 9.408-12.138c14.515 3.087 30.607 11.831 38.138 19.366 11.121 11.127 11.121 29.231 0 40.358zm-161.178 8.355c-7.615 0-14.775-2.967-20.16-8.355-11.121-11.127-11.121-29.23 0-40.357 7.537-7.542 23.634-16.293 38.134-19.374a60.93 60.93 0 0 0 9.412 12.145 61.381 61.381 0 0 0 12.118 9.427c-3.055 14.496-11.804 30.616-19.343 38.159-5.386 5.388-12.546 8.355-20.161 8.355zm-20.16-189.807c5.385-5.389 12.545-8.356 20.16-8.356 7.616 0 14.775 2.968 20.161 8.356 7.526 7.53 16.259 23.625 19.351 38.155a61.384 61.384 0 0 0-12.126 9.431 60.925 60.925 0 0 0-9.392 12.11c-14.548-3.093-30.641-11.82-38.154-19.338-11.121-11.127-11.121-29.231 0-40.358zm61.691 119.727c-15.982-15.991-15.982-42.011 0-58.002 7.741-7.745 18.032-12.01 28.978-12.01s21.237 4.265 28.978 12.01c15.982 15.991 15.982 42.011 0 58.002-7.741 7.745-18.032 12.01-28.978 12.01s-21.237-4.265-28.978-12.01zm72.102-72.141a61.393 61.393 0 0 0-12.161-9.452c3.057-14.457 11.826-30.57 19.385-38.134 5.386-5.389 12.545-8.355 20.161-8.355 7.615 0 14.775 2.967 20.16 8.355 11.121 11.127 11.121 29.23 0 40.357-7.545 7.55-23.666 16.313-38.142 19.359a60.925 60.925 0 0 0-9.403-12.13zM256 75.544c30.324 0 54.995 24.686 54.995 55.029 0 2.764-.199 5.8-.593 9.073-6.771 2.377-12.976 6.264-18.2 11.49-9.286 9.292-19.611 27.293-24.081 45.052A61.588 61.588 0 0 0 256 194.99c-4.132 0-8.2.408-12.161 1.206-4.494-17.814-14.787-35.799-24.042-45.06-5.224-5.226-11.429-9.114-18.2-11.491-.393-3.271-.592-6.307-.592-9.072 0-30.344 24.671-55.029 54.995-55.029zm-127.528 52.852c14.338-14.346 35.317-19.515 54.279-13.958a75.07 75.07 0 0 0-1.746 16.135c0 2.081.085 4.26.253 6.526-11.363.976-21.916 5.874-30.075 14.037-8.383 8.387-13.049 19.106-14.001 30.09a87.89 87.89 0 0 0-6.543-.255c-5.546 0-10.953.606-16.159 1.754-5.73-19.09-.616-39.712 13.992-54.329zM75.646 256c0-30.343 24.67-55.029 54.995-55.029 2.769 0 5.812.2 9.092.596a48.25 48.25 0 0 0 11.451 18.204c9.248 9.253 27.241 19.547 45.081 24.041a61.553 61.553 0 0 0-.008 24.339c-17.802 4.485-35.801 14.802-45.073 24.079a48.25 48.25 0 0 0-11.452 18.205c-3.279.396-6.322.595-9.092.595-30.324-.001-54.994-24.687-54.994-55.03zm52.827 127.604c-14.33-14.337-19.49-35.328-13.946-54.318a74.945 74.945 0 0 0 16.114 1.744c2.086 0 4.27-.085 6.543-.255.951 10.984 5.618 21.702 14.001 30.09 8.159 8.163 18.712 13.06 30.075 14.036a87.957 87.957 0 0 0-.253 6.527c0 5.539.603 10.94 1.747 16.14-18.952 5.561-39.934.39-54.281-13.964zM256 436.456c-30.324 0-54.995-24.687-54.995-55.029 0-2.764.199-5.8.592-9.073 6.771-2.377 12.977-6.264 18.2-11.49 9.265-9.271 19.569-27.271 24.037-45.061A61.578 61.578 0 0 0 256 317.01c4.126 0 8.19-.407 12.145-1.203 4.485 17.792 14.79 35.783 24.058 45.056 5.224 5.226 11.429 9.113 18.2 11.49.394 3.272.592 6.308.592 9.073 0 30.344-24.671 55.03-54.995 55.03zm127.528-52.852c-14.355 14.363-35.341 19.538-54.281 13.968a75.037 75.037 0 0 0 1.748-16.145c0-2.081-.085-4.26-.253-6.527 11.363-.976 21.916-5.873 30.075-14.036 8.383-8.387 13.049-19.106 14.001-30.09 2.272.17 4.456.255 6.543.255a74.99 74.99 0 0 0 16.161-1.754c5.732 19.086.617 39.709-13.994 54.329zm-2.169-72.575c-2.771 0-5.814-.2-9.092-.596a48.25 48.25 0 0 0-11.451-18.204c-9.265-9.271-27.262-19.581-45.075-24.071a61.542 61.542 0 0 0-.001-24.322c17.784-4.46 35.799-14.784 45.076-24.066a48.25 48.25 0 0 0 11.452-18.205c3.279-.396 6.321-.595 9.092-.595 30.324 0 54.995 24.687 54.995 55.029s-24.671 55.03-54.996 55.03z" />
    </svg>
    <svg xmlns="http://www.w3.org/2000/svg" viewBox="0 0 512 512" width="512" height="512" id="h">
      <path d="M317.149 227.073v-45.058c0-5.522-4.478-10-10-10h-25.073v-27.356c0-5.522-4.478-10-10-10h-44.98c-5.522 0-10 4.478-10 10v27.356h-25.073c-5.522 0-10 4.478-10 10v45.058c0 5.522 4.478 10 10 10h25.073v65.488c0 5.522 4.478 10 10 10h44.98c5.522 0 10-4.478 10-10v-65.488h25.073c5.522 0 10-4.477 10-10zm-20-10h-25.073c-5.522 0-10 4.478-10 10v65.488h-24.98v-65.488c0-5.522-4.478-10-10-10h-25.073v-25.058h25.073c5.522 0 10-4.478 10-10v-27.356h24.98v27.356c0 5.522 4.478 10 10 10h25.073z" />
      <path d="M426.286 375.88c-2.289-1.576-3.504-4.296-3.023-6.768a38.782 38.782 0 0 0-10.649-34.882 38.776 38.776 0 0 0-19.633-10.577l37.062-165.111a10 10 0 0 0-1.176-7.326L341.28 4.864A10.005 10.005 0 0 0 332.699 0H166.472a10.004 10.004 0 0 0-8.581 4.864L70.305 151.216a10.004 10.004 0 0 0-1.176 7.326l77.586 345.648a10 10 0 0 0 9.757 7.81h182.507a38.823 38.823 0 0 0 31.985-16.828c1.576-2.289 4.294-3.498 6.768-3.023a38.777 38.777 0 0 0 34.882-10.649 38.78 38.78 0 0 0 10.648-34.881c-.48-2.472.734-5.191 3.022-6.767 10.538-7.25 16.829-19.208 16.829-31.986s-6.29-24.737-16.827-31.986zm-160.942-41.65a38.847 38.847 0 0 0-6.275 8.217h-37.825c-5.522 0-10 4.478-10 10s4.478 10 10 10h32.739c.045 2.217.28 4.446.712 6.665.48 2.472-.734 5.191-3.023 6.767-10.537 7.25-16.828 19.208-16.828 31.986s6.291 24.736 16.827 31.986c2.29 1.575 3.505 4.295 3.024 6.766a38.949 38.949 0 0 0-.506 3.383h-56.992l-62.693-285.321L195.953 62h107.266l61.448 102.679-30.623 139.367a38.825 38.825 0 0 0-27.05 16.513c-1.576 2.289-4.291 3.499-6.768 3.023a38.776 38.776 0 0 0-34.882 10.648zM194.081 470h63.316a38.792 38.792 0 0 0 7.947 11.5 38.765 38.765 0 0 0 19.261 10.5H177.043zm-75.35-317.912-23.573-3.451L166.252 29.84l12.461 22.021zm285.283-3.451-23.573 3.451L320.46 51.863l12.473-22.001zM303.061 42H196.113l-12.449-22h131.869zm80.508 129.843 23.771-3.48-34.574 154.028a7.418 7.418 0 0 1-1.8-1.833 38.837 38.837 0 0 0-17.035-13.831zm-291.738-3.48 23.771 3.48 62.789 285.754-16.775 21.66zm323.117 255.013c-8.885 6.113-13.326 16.736-11.316 27.062a18.812 18.812 0 0 1-22.079 22.079c-10.323-2.011-20.948 2.432-27.063 11.316-3.519 5.113-9.316 8.166-15.51 8.166s-11.992-3.053-15.511-8.166c-5.138-7.466-13.458-11.794-22.111-11.794-1.645 0-3.303.156-4.951.478a18.814 18.814 0 0 1-22.079-22.079c2.01-10.326-2.433-20.95-11.318-27.063-5.112-3.518-8.164-9.315-8.164-15.51s3.052-11.992 8.165-15.51c8.885-6.113 13.327-16.737 11.317-27.064a18.805 18.805 0 0 1 5.16-16.918 18.808 18.808 0 0 1 16.919-5.16c10.322 2.012 20.949-2.432 27.063-11.317a18.829 18.829 0 0 1 15.51-8.165 18.835 18.835 0 0 1 15.511 8.166c6.114 8.885 16.739 13.327 27.062 11.316a18.813 18.813 0 0 1 22.079 22.079c-2.01 10.326 2.432 20.949 11.317 27.063 5.112 3.518 8.165 9.316 8.165 15.51s-3.053 11.992-8.166 15.511z" />
      <path d="M386.758 388.074a10.002 10.002 0 0 0-7.976-6.093c-3.56-.453-6.787-2.039-9.334-4.586s-4.133-5.774-4.586-9.334a10 10 0 0 0-16.041-6.645c-2.837 2.196-6.241 3.357-9.843 3.357s-7.006-1.161-9.843-3.357a10.002 10.002 0 0 0-16.041 6.645 15.93 15.93 0 0 1-4.587 9.334 15.932 15.932 0 0 1-9.333 4.586 10 10 0 0 0-6.645 16.041c2.196 2.837 3.357 6.241 3.357 9.843s-1.161 7.006-3.357 9.843a10.002 10.002 0 0 0 6.645 16.041 15.932 15.932 0 0 1 9.333 4.586 15.93 15.93 0 0 1 4.587 9.334 10 10 0 0 0 16.041 6.645c2.837-2.196 6.241-3.357 9.843-3.357s7.006 1.161 9.843 3.357a9.996 9.996 0 0 0 9.948 1.331 10.002 10.002 0 0 0 6.093-7.976 15.934 15.934 0 0 1 4.585-9.333 15.936 15.936 0 0 1 9.335-4.587 10 10 0 0 0 6.645-16.041c-2.196-2.837-3.357-6.241-3.357-9.843s1.161-7.006 3.357-9.843a10.002 10.002 0 0 0 1.331-9.948zm-23.249 29.952a36.195 36.195 0 0 0-8.203 6.166 36.251 36.251 0 0 0-6.167 8.203c-6.521-1.904-13.8-1.904-20.321 0a36.2 36.2 0 0 0-6.167-8.203 36.212 36.212 0 0 0-8.202-6.166c.952-3.261 1.439-6.67 1.439-10.161s-.487-6.9-1.439-10.161a36.19 36.19 0 0 0 8.202-6.166 36.222 36.222 0 0 0 6.167-8.203c6.521 1.904 13.799 1.904 20.322 0a36.176 36.176 0 0 0 6.167 8.204 36.207 36.207 0 0 0 8.202 6.165c-.952 3.261-1.439 6.67-1.439 10.161s.487 6.901 1.439 10.161z" />
    </svg>
    <svg xmlns="http://www.w3.org/2000/svg" viewBox="0 0 512 512" width="512" height="512" id="i">
      <path d="M502 478.769h-11.702v-49.995c0-5.523-4.478-10-10-10h-19.879a30.457 30.457 0 0 0-.781-5.588c8.728-5.436 14.454-15.126 14.454-25.975 0-10.857-5.735-20.555-14.475-25.988 2.337-10.021-.464-20.935-8.141-28.612a30.454 30.454 0 0 0-14.6-8.125v-130.54c0-99.646-81.068-180.714-180.714-180.714h-.326c-99.646 0-180.714 81.068-180.714 180.714v130.542a30.45 30.45 0 0 0-14.6 8.124c-7.677 7.677-10.478 18.59-8.141 28.612-8.739 5.433-14.475 15.131-14.475 25.988 0 10.849 5.727 20.539 14.454 25.975a30.371 30.371 0 0 0-.781 5.588H31.702c-5.522 0-10 4.477-10 10v49.995H10c-5.522 0-10 4.477-10 10s4.478 10 10 10h492c5.522 0 10-4.477 10-10s-4.478-10.001-10-10.001zm-63.767-118.087a10 10 0 0 0 6.646 16.045c5.252.667 9.212 5.174 9.212 10.484s-3.96 9.817-9.212 10.484a9.999 9.999 0 0 0-6.646 16.044 10.518 10.518 0 0 1 2.09 5.034h-86.892a10.508 10.508 0 0 1 2.09-5.034 10.001 10.001 0 0 0-6.646-16.045c-5.252-.667-9.213-5.173-9.213-10.484s3.961-9.818 9.213-10.484a10 10 0 0 0 6.646-16.045c-3.243-4.186-2.856-10.173.899-13.928 3.755-3.754 9.74-4.143 13.928-.899a10.003 10.003 0 0 0 16.045-6.646c.666-5.252 5.173-9.213 10.483-9.213s9.817 3.96 10.483 9.212a10 10 0 0 0 16.045 6.647c4.187-3.242 10.174-2.856 13.929.899 3.756 3.756 4.143 9.744.9 13.929zm-259.569 58.092a30.457 30.457 0 0 0-.781-5.588c8.729-5.436 14.455-15.126 14.455-25.975 0-2.357-.271-4.66-.783-6.876h128.891a30.466 30.466 0 0 0-.783 6.876c0 10.849 5.727 20.539 14.455 25.975a30.371 30.371 0 0 0-.781 5.588zm181.794-94.907c-6.678.755-13.129 3.694-18.179 8.744-7.451 7.451-10.31 17.95-8.334 27.724h-155.89c1.975-9.774-.882-20.273-8.333-27.724a30.503 30.503 0 0 0-18.18-8.745V193.955c0-57.503 46.782-104.286 104.285-104.286h.346c57.503 0 104.285 46.782 104.285 104.286zM255.837 33.231h.326c88.618 0 160.714 72.096 160.714 160.714v123.519c-5.395-4.668-12.414-7.469-20-7.469a30.455 30.455 0 0 0-16.419 4.798V193.955c0-68.531-55.754-124.286-124.285-124.286h-.346c-68.531 0-124.285 55.754-124.285 124.286v120.84a30.448 30.448 0 0 0-16.419-4.799c-7.585 0-14.605 2.8-20 7.468V193.946c0-88.618 72.096-160.715 160.714-160.715zM75.1 403.789a9.997 9.997 0 0 0-7.979-6.093c-5.252-.667-9.212-5.173-9.212-10.484s3.96-9.818 9.212-10.484a10 10 0 0 0 6.646-16.045c-3.242-4.185-2.855-10.173.899-13.928 3.755-3.756 9.742-4.143 13.927-.899a10 10 0 0 0 16.045-6.645c.667-5.252 5.175-9.213 10.485-9.213s9.817 3.961 10.483 9.213a9.999 9.999 0 0 0 16.045 6.646c4.186-3.242 10.173-2.856 13.929.899 3.755 3.754 4.142 9.742.898 13.928a10 10 0 0 0 6.646 16.045c5.252.667 9.213 5.174 9.213 10.484s-3.961 9.817-9.213 10.484a10 10 0 0 0-6.646 16.045 10.508 10.508 0 0 1 2.09 5.034H71.677a10.518 10.518 0 0 1 2.09-5.034 10.004 10.004 0 0 0 1.333-9.953zm-33.398 74.98v-39.995h428.596v39.995z" />
      <path d="M255.785 194.002c-5.522 0-10 4.477-10 10v64.606c0 5.523 4.478 10 10 10s10-4.477 10-10v-64.606c0-5.523-4.477-10-10-10zM228.357 220.793c0-14.772-12.444-26.791-27.741-26.791H183.428c-5.522 0-10 4.477-10 10v64.606c0 5.523 4.478 10 10 10s10-4.477 10-10V255.42l17.423 19.796a9.975 9.975 0 0 0 7.511 3.393 9.962 9.962 0 0 0 6.603-2.493c4.146-3.649 4.549-9.968.9-14.114L211.341 245.5c9.987-4.058 17.016-13.604 17.016-24.707zm-27.741-6.791c4.124 0 7.741 3.173 7.741 6.791s-3.617 6.791-7.741 6.791c-1.708 0-4.377.009-7.104.021-.012-2.626-.021-5.18-.021-6.812 0-1.405-.006-4.027-.013-6.791zM295.994 194.002a9.971 9.971 0 0 0-7.253 3.116l-.018.019-.149.161-.026.029a9.969 9.969 0 0 0-.136.154l-.031.036-.129.154-.023.028c-.045.055-.089.11-.132.166l-.015.02a9.954 9.954 0 0 0-2.042 5.152l-.002.023a7.403 7.403 0 0 0-.018.214l-.005.08-.01.161-.005.137-.004.108-.002.163-.001.078v64.606c0 5.523 4.478 10 10 10s10-4.477 10-10v-18.116c3.04-.015 6.088-.026 7.989-.026 15.764 0 28.589-12.665 28.589-28.232s-12.825-28.232-28.589-28.232h-17.988zm26.578 28.232c0 4.462-3.934 8.232-8.589 8.232-1.888 0-4.898.011-7.918.026-.015-3.147-.026-6.307-.026-8.258 0-1.67-.007-4.926-.016-8.232h7.96c4.656 0 8.589 3.77 8.589 8.232zM406.109 383.39c-1.615-3.939-5.705-6.454-9.948-6.147-4.148.3-7.75 3.23-8.896 7.225-1.154 4.022.4 8.436 3.794 10.874 3.341 2.401 7.95 2.47 11.371.189 3.912-2.609 5.487-7.802 3.679-12.141zM105.89 391.04c1.61 3.863 5.538 6.354 9.719 6.157 4.111-.194 7.776-3.012 9.031-6.93 1.271-3.969-.107-8.457-3.434-10.988-3.38-2.572-8.095-2.719-11.637-.379-3.942 2.605-5.46 7.793-3.679 12.14z" />
    </svg>
    <svg xmlns="http://www.w3.org/2000/svg" viewBox="0 0 512.003 512.003" width="512.003" height="512.003" id="j">
      <path d="M510.476 244.441c-2.932-4.681-9.104-6.096-13.783-3.166l-11.401 7.142c-10.343-44.821-35.627-87.03-72.38-120.628l9.029-17.081c2.581-4.883.715-10.933-4.168-13.514-4.883-2.58-10.933-.715-13.514 4.167l-6.983 13.21c-39.189-30.578-85.06-48.221-131.275-50.456v-9.947c0-5.523-4.478-10-10-10s-10 4.477-10 10v9.947c-46.219 2.235-92.093 19.884-131.283 50.47l-6.971-13.217c-2.576-4.884-8.626-6.758-13.51-4.18-4.885 2.577-6.757 8.625-4.18 13.511l9.023 17.108C62.357 161.394 37.074 203.59 26.7 248.411l-11.39-7.136c-4.679-2.931-10.851-1.514-13.783 3.166-2.932 4.68-1.515 10.852 3.166 13.783L218.25 392.012a47.105 47.105 0 0 0-9.553 28.49c0 26.099 21.221 47.331 47.305 47.331s47.305-21.232 47.305-47.331a47.105 47.105 0 0 0-9.553-28.49L507.31 258.224c4.681-2.931 6.098-9.103 3.166-13.783zm-43.233 15.285-83.118 52.071c-13.598-17.227-29.142-31.696-45.789-42.925l64.721-122.438c32.292 30.776 55.917 70.445 64.186 113.292zm-201.242 2.58c15.41 1.462 30.908 6.253 45.799 13.968l-45.799 86.642zm-20 101.185-45.954-87.126c14.938-7.768 30.489-12.591 45.954-14.059zm-16.198 12.159-84.839-53.149c11.446-14.2 24.298-26.232 37.952-35.745zm99.141-89.012c13.719 9.527 26.63 21.595 38.122 35.845l-85.327 53.455zm58.643-153.735-66.458 125.723c-17.813-9.252-36.496-14.893-55.128-16.393V84.155c43.721 2.434 86.53 20.632 121.586 48.748zM246.001 84.155v158.079c-18.681 1.505-37.412 7.175-55.266 16.476l-66.334-125.766c35.064-28.139 77.878-46.353 121.6-48.789zm-137.07 62.328 64.609 122.495c-16.588 11.217-32.076 25.656-45.632 42.838l-83.163-52.099c8.303-42.824 31.921-82.469 64.186-113.234zm147.07 301.35c-15.056 0-27.305-12.261-27.305-27.331 0-15.071 12.249-27.332 27.305-27.332s27.305 12.261 27.305 27.332-12.249 27.331-27.305 27.331z" />
    </svg>
    <svg xmlns="http://www.w3.org/2000/svg" viewBox="0 0 512 512" width="512" height="512" id="k">
      <path d="M320.033 382.135H191.967c-38.833 0-70.426 31.593-70.426 70.426v19.219c0 5.523 4.478 10 10 10h64.033c25.629 0 48.105-13.761 60.426-34.283 12.321 20.522 34.797 34.283 60.426 34.283h64.033c5.522 0 10-4.477 10-10v-19.219c0-38.833-31.593-70.426-70.426-70.426zm-124.459 79.644h-54.033v-9.219c0-27.805 22.621-50.426 50.426-50.426H246v9.219c0 27.805-22.621 50.426-50.426 50.426zm174.885 0h-54.033c-27.805 0-50.426-22.621-50.426-50.426v-9.219h54.033c27.805 0 50.426 22.621 50.426 50.426zM502 201.511H386.913v-40.377c0-72.186-58.728-130.913-130.913-130.913S125.087 88.948 125.087 161.134v40.377H10c-5.522 0-10 4.477-10 10v50.298c0 36.845 29.976 66.821 66.821 66.821h378.357c36.846 0 66.821-29.976 66.821-66.821v-50.298c.001-5.523-4.477-10-9.999-10zM256 50.221c60.326 0 109.558 48.412 110.885 108.425l-13.899 2.934-28.406-16.788a10.002 10.002 0 0 0-10.176 0l-26.663 15.759-26.663-15.759a10.004 10.004 0 0 0-10.176 0l-26.662 15.759-26.661-15.759a10.004 10.004 0 0 0-10.177 0l-28.396 16.787-13.891-2.932C146.441 98.634 195.674 50.221 256 50.221zm110.904 151.29H145.096c.009-7.745.02-15.957.033-22.419l13.553 2.86c2.445.515 5 .097 7.153-1.176l26.656-15.758 26.661 15.758a9.997 9.997 0 0 0 10.176 0l26.662-15.759 26.663 15.759a10.004 10.004 0 0 0 10.176 0l26.663-15.759 26.667 15.759a9.997 9.997 0 0 0 7.153 1.175l13.559-2.862c.014 6.472.025 14.682.033 22.422zM86.071 308.63l25.861-28.675 25.862 28.675zm96.693 0 25.86-28.675 25.86 28.675zm96.691 0 25.86-28.675 25.86 28.675zm94.752 0 25.862-28.675 25.861 28.675zM492 261.809c0 23.375-17.217 42.803-39.636 46.271l-44.87-49.752a9.999 9.999 0 0 0-14.852 0l-39.951 44.297-39.95-44.297a9.999 9.999 0 0 0-14.852 0l-40.92 45.372-40.92-45.372a9.999 9.999 0 0 0-14.852 0l-40.92 45.372-40.921-45.372a9.999 9.999 0 0 0-14.852 0l-44.87 49.752C37.217 304.611 20 285.183 20 261.809v-40.298h472z" />
      <path d="M187.02 123.84c3.592 2.393 8.434 2.186 11.798-.513 3.209-2.574 4.534-6.945 3.272-10.862-1.265-3.926-4.904-6.696-9.016-6.918-4.182-.226-8.131 2.296-9.734 6.154-1.827 4.393-.215 9.47 3.68 12.139zM310.189 119.35c1.589 3.811 5.49 6.344 9.63 6.171 4.154-.173 7.848-2.981 9.12-6.936 1.276-3.967-.105-8.465-3.428-10.996-3.33-2.536-7.973-2.722-11.495-.467-4.013 2.569-5.662 7.824-3.827 12.228zM246.77 119.35c1.579 3.788 5.437 6.317 9.556 6.174 4.132-.144 7.788-2.89 9.137-6.783 1.363-3.934.018-8.473-3.248-11.05-3.283-2.591-7.933-2.854-11.491-.656-4.107 2.536-5.81 7.861-3.954 12.315zM167.06 255.32c-1.636-3.927-5.692-6.456-9.945-6.147-4.153.301-7.742 3.237-8.894 7.232-1.152 3.998.392 8.459 3.788 10.871 3.372 2.395 7.923 2.464 11.372.185 3.943-2.607 5.461-7.794 3.679-12.141zM265.229 255.32c-1.634-3.921-5.693-6.455-9.941-6.147-4.15.301-7.753 3.239-8.898 7.234-1.147 4 .389 8.455 3.788 10.869 3.371 2.394 7.925 2.463 11.372.185 3.948-2.611 5.463-7.79 3.679-12.141zM363.399 255.32c-1.635-3.925-5.689-6.456-9.941-6.147-4.168.302-7.73 3.238-8.9 7.234-1.168 3.99.402 8.464 3.79 10.869 3.372 2.395 7.923 2.463 11.372.185 3.944-2.607 5.462-7.794 3.679-12.141zM443.109 262.97c1.577 3.849 5.559 6.383 9.72 6.166 4.141-.216 7.732-3.007 9.024-6.93 1.306-3.966-.131-8.452-3.427-10.989-3.348-2.578-8.121-2.721-11.636-.386-3.921 2.604-5.488 7.799-3.681 12.139zM68.89 255.32c-1.635-3.925-5.698-6.455-9.949-6.147-4.167.301-7.719 3.246-8.893 7.232-1.175 3.99.407 8.467 3.789 10.871 3.371 2.396 7.924 2.464 11.372.185 3.944-2.607 5.462-7.795 3.681-12.141z" />
    </svg>
    <svg xmlns="http://www.w3.org/2000/svg" viewBox="0 0 512 512" width="512" height="512" id="l">
      <path d="M262.143 185.497h89.949a38.761 38.761 0 0 0-4.949 19c0 21.505 17.495 39 39 39H473c21.505 0 39-17.495 39-39s-17.495-39-39-39h-8.163a38.761 38.761 0 0 0 4.949-19c0-21.505-17.495-39-39-39H262.143c-21.504 0-39 17.495-39 39s17.495 39 39 39zm0-58h168.644c10.477 0 19 8.523 19 19s-8.523 19-19 19c-5.522 0-10 4.477-10 10s4.478 10 10 10H473c10.477 0 19 8.523 19 19s-8.523 19-19 19h-86.857c-10.477 0-19-8.523-19-19s8.523-19 19-19c5.522 0 10-4.477 10-10s-4.478-10-10-10h-124c-10.477 0-19-8.523-19-19s8.523-19 19-19zM479.42 269.745H67c-36.944 0-67 30.056-67 67v.757c0 36.944 30.056 67 67 67h412.42c17.965 0 32.58-14.615 32.58-32.58v-69.598c0-17.964-14.615-32.579-32.58-32.579zm-236 114.758 97.682-94.758h65.59l-97.681 94.758zm-66.178 0v-14.071a53.085 53.085 0 0 0 11.295-27.352l54.98-53.335h68.86l-97.682 94.758zm8.197-66.282a53.003 53.003 0 0 0-8.197-14.405v-14.071h37.551zm249.977-28.476h9.609v94.758h-107.29zM20 337.502v-.757c0-25.916 21.084-47 47-47h28.461v14.071c-7.523 9.417-11.624 21.094-11.624 33.308s4.1 23.892 11.624 33.308v14.071H67c-25.916 0-47-21.085-47-47.001zm95.462 47.001v-17.781a10 10 0 0 0-2.69-6.824c-5.761-6.171-8.934-14.26-8.934-22.774s3.173-16.603 8.934-22.774a10 10 0 0 0 2.69-6.824v-17.781h41.78v17.781a10 10 0 0 0 2.69 6.824c5.761 6.171 8.934 14.259 8.934 22.774s-3.173 16.603-8.934 22.774a10 10 0 0 0-2.69 6.824v17.781zM492 371.923c0 6.937-5.644 12.58-12.58 12.58h-14.395v-94.758h14.395c6.937 0 12.58 5.644 12.58 12.58z" />
      <path d="M145.58 333.3c-1.636-3.928-5.68-6.455-9.939-6.147-4.154.3-7.75 3.224-8.896 7.225-1.149 4.009.385 8.448 3.784 10.875 3.352 2.394 7.942 2.469 11.372.188 3.925-2.612 5.49-7.794 3.679-12.141z" />
    </svg>
    <svg xmlns="http://www.w3.org/2000/svg" viewBox="0 0 512 512" width="512" height="512" id="m">
      <path d="M402.095 342.953c5.843-16.997 8.479-42.479 8.454-58.961-.076-51.92-26.094-100.409-69.598-129.708a10 10 0 0 0-15.34 10.494 42.803 42.803 0 0 1 1.039 9.386c0 13.808-6.627 26.097-16.866 33.856v-75.603c0-5.523-4.478-10-10-10h-36.415v-14.112c19.535-4.538 34.134-22.072 34.134-42.948 0-21.674-30.678-55.601-36.827-62.182a10 10 0 0 0-14.615-.003c-6.149 6.581-36.828 40.508-36.828 62.182 0 20.876 14.6 38.41 34.135 42.948v14.112h-36.416c-5.522 0-10 4.477-10 10v40.844a42.485 42.485 0 0 1-15.274-16.334 9.997 9.997 0 0 0-14.326-3.683c-44.485 29.195-71.09 78.074-71.167 130.75-.024 16.484 2.611 41.966 8.454 58.962 1.257 3.657 1.062 7.576-.538 10.753-5.253 10.443-7.916 21.688-7.916 33.423 0 43.016 25.508 69.478 70.408 73.727v5.435c0 25.204 20.559 45.709 45.828 45.709h82.157c25.27 0 45.828-20.505 45.828-45.709v-5.432c15.444-1.454 28.669-5.535 39.41-12.174 14.021-8.666 30.732-26.379 30.732-61.556-.001-11.738-2.665-22.984-7.919-33.423-1.595-3.178-1.79-7.098-.534-10.753zM229.233 65.354c0-8.301 12.608-26.475 24.138-40.239 11.528 13.753 24.131 31.918 24.131 40.239 0 9.725-5.803 18.122-14.134 21.923V75.083c0-5.523-4.478-10-10-10s-10 4.477-10 10v12.195c-8.331-3.801-14.135-12.199-14.135-21.924zm-12.281 77.061h72.831v73.836c-1.83.242-3.695.367-5.59.367-19.257 0-36.138-12.983-41.051-31.572a10.005 10.005 0 0 0-4.707-6.128 10.007 10.007 0 0 0-7.67-.943 42.564 42.564 0 0 1-13.813 1.522zm113.226 299.011a10 10 0 0 0-9.771 9.998v14.867c0 14.176-11.587 25.709-25.828 25.709h-82.157c-14.241 0-25.828-11.533-25.828-25.709v-14.867a10 10 0 0 0-9.771-9.998c-40.236-.922-60.638-19.19-60.638-54.296 0-8.585 1.945-16.807 5.782-24.434 4.006-7.959 4.583-17.525 1.585-26.246-4.866-14.155-7.39-37.09-7.367-52.43.062-42.609 20.063-82.39 53.97-108.271 11.72 14.905 29.685 23.809 49.078 23.809a63.11 63.11 0 0 0 7.674-.468c9.779 22.494 32.157 37.529 57.286 37.529 31.239 0 57.194-23.051 61.748-53.039 28.177 25.738 44.552 62.021 44.607 100.441.022 15.338-2.501 38.273-7.368 52.432-2.996 8.719-2.418 18.283 1.584 26.241l.001.002c3.837 7.625 5.783 15.847 5.784 24.434.001 35.11-20.312 53.378-60.371 54.296z" />
      <path d="M350.388 266.332a27.075 27.075 0 0 0-17.591-7.861c-4.931-4.307-11.338-6.771-17.978-6.771s-13.047 2.464-17.978 6.771a27.063 27.063 0 0 0-17.589 7.861c-4.715 4.68-7.504 10.944-7.93 17.475-4.351 4.913-6.841 11.307-6.841 17.939s2.489 13.025 6.841 17.938c.426 6.53 3.214 12.793 7.928 17.474a27.067 27.067 0 0 0 17.591 7.862c4.931 4.307 11.338 6.771 17.978 6.771 6.639 0 13.046-2.464 17.978-6.771a27.075 27.075 0 0 0 17.59-7.861c4.714-4.68 7.503-10.943 7.93-17.474 4.351-4.914 6.84-11.307 6.84-17.939s-2.489-13.025-6.84-17.938c-.426-6.533-3.215-12.796-7.929-17.476zm-8.137 41.094a9.998 9.998 0 0 0-3.95 9.503 7.079 7.079 0 0 1-2.005 6.036c-1.635 1.622-3.855 2.369-6.19 2.022a9.985 9.985 0 0 0-9.465 3.893c-1.366 1.822-3.542 2.91-5.821 2.91s-4.455-1.088-5.821-2.91a10.002 10.002 0 0 0-9.471-3.893c-2.337.349-4.554-.404-6.185-2.023a7.078 7.078 0 0 1-2.004-6.034 10 10 0 0 0-3.95-9.505c-1.819-1.344-2.906-3.468-2.906-5.681s1.086-4.336 2.905-5.68a9.999 9.999 0 0 0 3.951-9.506 7.079 7.079 0 0 1 2.005-6.035c1.385-1.375 3.156-2.101 5.125-2.101.352 0 .706.026 1.054.078a10 10 0 0 0 9.476-3.892c1.366-1.822 3.542-2.91 5.821-2.91s4.455 1.088 5.821 2.91a10.004 10.004 0 0 0 9.471 3.893 7.152 7.152 0 0 1 6.186 2.023 7.075 7.075 0 0 1 2.004 6.033 10 10 0 0 0 3.951 9.506c1.818 1.343 2.904 3.467 2.904 5.68-.001 2.215-1.087 4.339-2.906 5.683zM227.484 266.332a27.073 27.073 0 0 0-17.591-7.861c-4.931-4.307-11.338-6.771-17.978-6.771s-13.047 2.464-17.978 6.771a27.072 27.072 0 0 0-17.59 7.861c-4.715 4.681-7.504 10.944-7.93 17.475-4.351 4.913-6.84 11.306-6.84 17.938s2.489 13.025 6.84 17.939c.426 6.531 3.215 12.794 7.929 17.473a27.069 27.069 0 0 0 17.591 7.862c4.932 4.307 11.339 6.771 17.978 6.771s13.047-2.464 17.978-6.771a27.07 27.07 0 0 0 17.589-7.861c4.715-4.68 7.504-10.944 7.93-17.474 4.351-4.913 6.841-11.307 6.841-17.939 0-6.633-2.489-13.026-6.841-17.939-.425-6.531-3.214-12.794-7.928-17.474zm-8.136 41.093a10 10 0 0 0-3.951 9.506 7.077 7.077 0 0 1-2.006 6.035c-1.634 1.622-3.854 2.368-6.188 2.021a9.984 9.984 0 0 0-9.465 3.893c-1.366 1.822-3.542 2.91-5.821 2.91s-4.455-1.088-5.821-2.91a10.002 10.002 0 0 0-9.465-3.893c-2.37.351-4.56-.403-6.191-2.023a7.077 7.077 0 0 1-2.004-6.035 9.998 9.998 0 0 0-3.95-9.503c-1.819-1.344-2.905-3.468-2.905-5.681s1.086-4.337 2.904-5.68a9.999 9.999 0 0 0 3.951-9.506 7.078 7.078 0 0 1 2.004-6.034 7.147 7.147 0 0 1 6.186-2.023 9.998 9.998 0 0 0 9.471-3.893c1.366-1.822 3.542-2.91 5.821-2.91s4.455 1.088 5.821 2.91a9.996 9.996 0 0 0 9.476 3.892 7.149 7.149 0 0 1 1.054-.078c1.969 0 3.741.727 5.127 2.103a7.074 7.074 0 0 1 2.003 6.033 10 10 0 0 0 3.951 9.506c1.819 1.343 2.905 3.467 2.905 5.68s-1.088 4.337-2.907 5.68zM215.275 425.197c-5.522 0-10 4.477-10 10v17.495c0 5.523 4.478 10 10 10s10-4.477 10-10v-17.495c0-5.523-4.477-10-10-10zM253.368 425.197c-5.522 0-10 4.477-10 10v17.495c0 5.523 4.478 10 10 10s10-4.477 10-10v-17.495c0-5.523-4.477-10-10-10zM291.46 425.197c-5.522 0-10 4.477-10 10v17.495c0 5.523 4.478 10 10 10s10-4.477 10-10v-17.495c0-5.523-4.477-10-10-10zM375.73 89.061c5.522 0 10-4.477 10-10v-9.702c0-5.523-4.478-10-10-10s-10 4.477-10 10v9.702c0 5.523 4.477 10 10 10zM375.73 139.529c5.522 0 10-4.477 10-10v-9.702c0-5.523-4.478-10-10-10s-10 4.477-10 10v9.702c0 5.523 4.477 10 10 10zM405.815 89.444h-9.702c-5.522 0-10 4.477-10 10s4.478 10 10 10h9.702c5.522 0 10-4.477 10-10s-4.478-10-10-10zM345.645 109.444h9.702c5.522 0 10-4.477 10-10s-4.478-10-10-10h-9.702c-5.522 0-10 4.477-10 10s4.477 10 10 10zM145.647 29.702c5.522 0 10-4.477 10-10V10c0-5.523-4.478-10-10-10s-10 4.477-10 10v9.702c0 5.523 4.477 10 10 10zM145.647 80.17c5.522 0 10-4.477 10-10v-9.702c0-5.523-4.478-10-10-10s-10 4.477-10 10v9.702c0 5.523 4.477 10 10 10zM166.029 50.085h9.702c5.522 0 10-4.477 10-10s-4.478-10-10-10h-9.702c-5.522 0-10 4.477-10 10s4.478 10 10 10zM115.561 50.085h9.702c5.522 0 10-4.477 10-10s-4.478-10-10-10h-9.702c-5.522 0-10 4.477-10 10s4.477 10 10 10zM253.368 347.718c-5.522 0-10 4.477-10 10v24.175c0 5.523 4.478 10 10 10s10-4.477 10-10v-24.175c0-5.523-4.477-10-10-10z" />
    </svg>
    <svg xmlns="http://www.w3.org/2000/svg" viewBox="0 0 512 512" width="512" height="512" id="n">
      <path d="M422.199 316.454c-9.644 0-21.481 2.774-32.177 7.305a22.737 22.737 0 0 0-4.007-5.387 22.77 22.77 0 0 0-5.373-3.973c4.535-10.653 7.311-22.436 7.311-32.04 0-14.786-6.689-32.412-38.56-32.412s-38.56 17.626-38.56 32.412c0 9.604 2.776 21.386 7.311 32.039a22.798 22.798 0 0 0-9.38 9.36c-10.695-4.531-22.532-7.305-32.177-7.305-14.822 0-32.49 6.673-32.49 38.462 0 31.79 17.668 38.463 32.49 38.463 9.644 0 21.481-2.774 32.177-7.306a22.79 22.79 0 0 0 9.38 9.361c-4.535 10.652-7.311 22.434-7.311 32.039 0 14.787 6.689 32.413 38.56 32.413s38.56-17.626 38.56-32.413c0-9.604-2.776-21.386-7.311-32.038a22.779 22.779 0 0 0 5.373-3.975 22.753 22.753 0 0 0 4.006-5.387c10.696 4.532 22.533 7.306 32.176 7.306 14.822 0 32.49-6.673 32.49-38.463.003-31.788-17.665-38.461-32.488-38.461zm-89.515 61.293c-1.08 0-2.17.102-3.254.312a2.832 2.832 0 0 1-2.538-.764 2.712 2.712 0 0 1-.756-2.464c1.321-6.759-1.562-13.688-7.341-17.65-.363-.249-1.208-.969-1.208-2.266s.844-2.015 1.207-2.265c5.781-3.965 8.662-10.894 7.342-17.649a2.711 2.711 0 0 1 .755-2.464 2.836 2.836 0 0 1 2.538-.766c6.753 1.312 13.677-1.559 17.648-7.309.251-.364.98-1.212 2.317-1.212s2.066.848 2.318 1.213c3.97 5.749 10.897 8.618 17.646 7.308a2.83 2.83 0 0 1 2.539.766c.934.931.839 2.033.755 2.462-1.32 6.757 1.562 13.687 7.343 17.652.362.248 1.206.967 1.206 2.264 0 1.298-.845 2.017-1.204 2.264-5.783 3.965-8.666 10.894-7.345 17.65.084.431.179 1.534-.755 2.465a2.816 2.816 0 0 1-2.542.764c-6.75-1.311-13.674 1.561-17.645 7.31-.251.364-.981 1.213-2.317 1.213s-2.066-.849-2.318-1.214c-3.331-4.824-8.745-7.62-14.391-7.62zm16.711-107.8c17.229 0 18.56 5.145 18.56 12.412 0 7.044-2.328 16.401-5.931 24.704a22.823 22.823 0 0 0-25.258-.001c-3.602-8.303-5.931-17.66-5.931-24.704 0-7.266 1.331-12.411 18.56-12.411zM264.1 354.916c0-17.138 5.177-18.462 12.49-18.462 7.07 0 16.455 2.316 24.787 5.901a22.712 22.712 0 0 0 .001 25.122c-8.333 3.585-17.719 5.902-24.788 5.902-7.314 0-12.49-1.324-12.49-18.463zm85.295 84.97c-17.229 0-18.56-5.145-18.56-12.413 0-7.045 2.328-16.401 5.931-24.704a22.823 22.823 0 0 0 25.258 0c3.602 8.303 5.931 17.659 5.931 24.704-.001 7.268-1.332 12.413-18.56 12.413zm72.804-66.507c-7.069 0-16.454-2.316-24.787-5.902a22.712 22.712 0 0 0-.001-25.122c8.333-3.585 17.718-5.901 24.788-5.901 7.313 0 12.49 1.324 12.49 18.462.001 17.139-5.176 18.463-12.49 18.463zM208.265 222.875c4.772 1.975 9.692 2.963 14.515 2.963 4.584 0 9.079-.894 13.276-2.682 20.36-8.678 28.663-36.226 18.509-61.408-5.613-13.924-15.839-24.809-28.055-29.863-9.312-3.854-19.179-3.952-27.792-.281-20.359 8.677-28.662 36.224-18.509 61.407 5.614 13.925 15.841 24.809 28.056 29.864zm-1.705-72.873a13.753 13.753 0 0 1 5.433-1.092c2.636 0 5.036.696 6.87 1.455 7.177 2.969 13.589 10.021 17.153 18.861 6.007 14.897 2.434 31.168-7.801 35.531-4.653 1.981-9.258.896-12.303-.363-7.177-2.97-13.589-10.021-17.154-18.862-6.006-14.897-2.434-31.168 7.802-35.53zM116.607 131.604c-8.612-3.671-18.481-3.57-27.79.28-12.216 5.055-22.442 15.939-28.057 29.864-10.153 25.184-1.85 52.73 18.51 61.408 4.197 1.789 8.692 2.682 13.275 2.682 4.822 0 9.743-.988 14.516-2.964 12.216-5.055 22.441-15.939 28.055-29.863 10.154-25.184 1.851-52.731-18.509-61.407zm-.041 53.928c-3.564 8.841-9.977 15.893-17.153 18.862-3.043 1.26-7.648 2.347-12.302.363-10.235-4.362-13.809-20.634-7.803-35.531 3.565-8.842 9.979-15.893 17.154-18.862 3.045-1.26 7.649-2.344 12.303-.362 10.236 4.362 13.808 20.633 7.801 35.53zM133.267 287.46c-5.522 0-10 4.478-10 10v16.896c0 5.522 4.478 10 10 10s10-4.478 10-10V297.46c0-5.522-4.478-10-10-10zM192.058 314.355V297.46c0-5.522-4.478-10-10-10s-10 4.478-10 10v16.896c0 5.522 4.478 10 10 10s10-4.478 10-10.001zM157.662 220.782c-5.522 0-10 4.478-10 10v14.64c0 5.522 4.478 10 10 10s10-4.478 10-10v-14.64c0-5.522-4.477-10-10-10zM148.43 114.97c1.577 3.851 5.559 6.381 9.719 6.165 4.117-.213 7.766-3.006 9.031-6.93 1.284-3.984-.123-8.438-3.434-10.989-3.353-2.584-8.117-2.734-11.637-.386-3.915 2.612-5.49 7.797-3.679 12.14zM201.26 90.89c1.581 3.797 5.43 6.296 9.547 6.165 4.125-.132 7.82-2.876 9.153-6.779 1.362-3.989-.009-8.535-3.341-11.117-3.213-2.489-7.715-2.763-11.214-.703-4.246 2.501-6.006 7.89-4.145 12.434zM95.6 90.89c1.585 3.808 5.432 6.294 9.556 6.165 4.127-.129 7.799-2.883 9.136-6.779 1.367-3.981-.015-8.597-3.376-11.147-3.382-2.566-8.095-2.723-11.636-.379-3.942 2.61-5.463 7.789-3.68 12.14z" />
      <path d="M481.202 308.353c-4.519-2.841-6.763-8.231-5.585-13.414 4.217-18.563-1.317-37.669-14.804-51.109-13.472-13.426-32.618-18.938-51.212-14.74-5.155 1.158-10.716-1.13-13.528-5.573-10.179-16.082-27.629-25.684-46.679-25.684-18.266 0-35.062 8.828-45.385 23.732-.449-1-.92-1.99-1.414-2.969-1.505-2.98-1.688-6.662-.502-10.1 5.678-16.456 8.237-41.116 8.213-57.063C310.185 67.933 241.709 0 157.662 0S5.14 67.933 5.018 151.432c-.024 15.948 2.536 40.608 8.213 57.065 1.187 3.438 1.004 7.118-.501 10.097-5.117 10.134-7.712 21.05-7.712 32.445 0 41.657 24.717 67.315 68.237 71.516v4.934c0 24.529 20.062 44.485 44.724 44.485h76.517c3.917 12.052 11.956 22.507 23.092 29.507 4.519 2.841 6.763 8.231 5.585 13.414-4.217 18.562 1.316 37.668 14.804 51.108 13.474 13.427 32.62 18.938 51.212 14.74 5.155-1.164 10.716 1.131 13.529 5.575C312.896 502.399 330.345 512 349.395 512s36.499-9.601 46.678-25.682c2.813-4.445 8.376-6.736 13.528-5.575 18.592 4.196 37.74-1.313 51.213-14.74 13.487-13.44 19.021-32.546 14.804-51.108-1.178-5.183 1.066-10.573 5.585-13.414 16.143-10.147 25.78-27.555 25.78-46.564 0-19.01-9.638-36.417-25.781-46.564zM93.255 327.488v-14.357a10 10 0 0 0-9.771-9.997c-38.795-.887-58.466-18.414-58.466-52.095 0-8.234 1.872-16.117 5.565-23.431 3.926-7.774 4.492-17.118 1.554-25.634-4.703-13.635-7.142-35.731-7.119-50.513C25.124 78.974 84.628 20 157.662 20c73.035 0 132.538 58.974 132.644 131.462.022 14.781-2.416 36.878-7.119 50.513-2.937 8.515-2.371 17.857 1.555 25.636.119.237.237.474.353.712-17.278-2.579-34.634 3.065-47.118 15.507-13.486 13.44-19.021 32.546-14.803 51.109 1.177 5.183-1.067 10.573-5.586 13.414-15.306 9.622-24.763 25.77-25.703 43.621h-73.906c-13.633 0-24.724-10.985-24.724-24.486zm377.303 57.061c-11.695 7.352-17.5 21.327-14.443 34.777 2.683 11.807-.839 23.96-9.418 32.511-8.595 8.564-20.817 12.075-32.693 9.396-13.467-3.04-27.46 2.745-34.829 14.388C372.682 485.877 361.55 492 349.395 492s-23.287-6.123-29.779-16.379c-6.062-9.577-16.605-15.188-27.65-15.188-2.383 0-4.79.261-7.179.8-11.879 2.683-24.099-.832-32.693-9.396-8.579-8.551-12.101-20.704-9.418-32.511 3.057-13.45-2.748-27.426-14.443-34.777-10.285-6.466-16.425-17.543-16.425-29.633 0-12.089 6.14-23.166 16.425-29.632 11.695-7.352 17.5-21.328 14.444-34.777-2.684-11.808.838-23.961 9.417-32.512 8.594-8.563 20.812-12.075 32.693-9.396 13.461 3.033 27.46-2.743 34.83-14.388 6.491-10.256 17.623-16.379 29.778-16.379s23.287 6.123 29.779 16.38c7.369 11.643 21.369 17.426 34.829 14.387 11.876-2.678 24.101.833 32.693 9.396 8.579 8.551 12.101 20.704 9.418 32.512-3.057 13.449 2.748 27.426 14.443 34.777 10.285 6.466 16.425 17.543 16.425 29.632.001 12.09-6.139 23.167-16.424 29.633z" />
    </svg>
    <svg xmlns="http://www.w3.org/2000/svg" viewBox="0 0 512 512" width="512" height="512" id="o">
      <path d="m495.583 333.841-79.33-274.238C406.101 24.51 373.34 0 336.583 0h-8.653c-2.395 0-4.71.859-6.524 2.422L256 58.734 190.594 2.422A9.998 9.998 0 0 0 184.069 0h-8.653c-36.756 0-69.517 24.51-79.669 59.604l-79.33 274.238a9.998 9.998 0 0 0-.394 2.916v41.838c0 5.523 4.478 10 10 10s10-4.477 10-10v-25.33l37.262 19.817v37.562c0 5.523 4.478 10 10 10s10-4.477 10-10V383.72l37.965 20.191v37.836c0 5.523 4.478 10 10 10s10-4.477 10-10v-27.199l37.966 20.191v37.609c0 5.523 4.478 10 10 10s10-4.477 10-10v-26.973L246 464.936V502c0 5.523 4.478 10 10 10s10-4.477 10-10v-37.064l36.784-19.563v26.973c0 5.523 4.478 10 10 10s10-4.477 10-10v-37.609l37.966-20.191v27.199c0 5.523 4.478 10 10 10s10-4.477 10-10v-37.836l37.965-20.191v26.925c0 5.523 4.478 10 10 10s10-4.477 10-10v-37.562l37.262-19.817v25.33c0 5.523 4.478 10 10 10s10-4.477 10-10v-41.838a10 10 0 0 0-.394-2.915zM74.605 204.663 246 295.814v59.839L59.604 256.522zm30.536-105.56 146.163 77.728a9.992 9.992 0 0 0 9.39 0l146.163-77.728 24.857 85.928L266 273.161v-53.055c0-5.523-4.478-10-10-10s-10 4.477-10 10v53.055l-165.716-88.13zM266 295.814l171.395-91.15 15.001 51.859L266 355.653zM175.416 20h4.941l69.118 59.508a9.999 9.999 0 0 0 13.049 0L331.642 20h4.941c27.904 0 52.766 18.571 60.457 45.161l4.14 14.31L256 156.676 110.82 79.471l4.14-14.31C122.651 38.571 147.512 20 175.416 20zM37.885 331.602l16.04-55.448L246 378.305v63.978zM266 442.283v-63.978l192.075-102.151 16.04 55.448z" />
    </svg>
  </defs>
  <g data-name="003-catrina.svg">
    <g transform="rotate(-6.999 4333.501 179.353) scale(.24414)">
      <path fill="transparent" d="M0 0h512v512H0z" />
      <use xlink:href="#a" />
    </g>
    <g transform="rotate(-6.999 147.938 -76.56) scale(.24414)">
      <path fill="transparent" d="M0 0h512v512H0z" />
      <use xlink:href="#a" />
    </g>
  </g>
  <g data-name="001-skull.svg">
    <g transform="rotate(-5.999 4513.847 -2380.675) scale(.24414)">
      <path fill="transparent" d="M0 0h512v512H0z" />
      <use xlink:href="#b" />
    </g>
    <g transform="rotate(-5.999 -370.924 -2636.556) scale(.24414)">
      <path fill="transparent" d="M0 0h512v512H0z" />
      <use xlink:href="#b" />
    </g>
  </g>
  <g transform="translate(161.042 13.244) scale(.24414)" data-name="007-moon.svg">
    <path fill="transparent" d="M0 0h512v512H0z" />
    <use xlink:href="#c" />
  </g>
  <g transform="rotate(44 -59.35 357.121) scale(.24414)" data-name="039-heart.svg">
    <path fill="transparent" d="M0 0h512v512H0z" />
    <use xlink:href="#d" />
  </g>
  <g data-name="043-pinata.svg">
    <g transform="rotate(8.999 -2012.927 3521.108) scale(.24414)">
      <path fill="transparent" d="M0 0h512v512H0z" />
      <use xlink:href="#e" />
    </g>
    <g transform="rotate(8.999 -2268.874 268.32) scale(.24414)">
      <path fill="transparent" d="M0 0h512v512H0z" />
      <use xlink:href="#e" />
    </g>
  </g>
  <g data-name="011-cactus.svg">
    <g transform="rotate(-20 1277.387 -827.026) scale(.24414)">
      <path fill="transparent" d="M0 0h512v512H0z" />
      <use xlink:href="#f" />
    </g>
    <g transform="rotate(-20 1021.397 624.822) scale(.24414)">
      <path fill="transparent" d="M0 0h512v512H0z" />
      <use xlink:href="#f" />
    </g>
  </g>
  <g data-name="047-cempasuchil.svg">
    <g transform="translate(140.5 406.988) scale(.24414)">
      <path fill="transparent" d="M0 0h512v512H0z" />
      <use xlink:href="#g" />
    </g>
    <g transform="translate(140.5 -105.012) scale(.24414)">
      <path fill="transparent" d="M0 0h512v512H0z" />
      <use xlink:href="#g" />
    </g>
  </g>
  <g transform="rotate(-19 897.385 -72.699) scale(.24414)" data-name="029-coffin.svg">
    <path fill="transparent" d="M0 0h512v512H0z" />
    <use xlink:href="#h" />
  </g>
  <g data-name="020-tombstone.svg">
    <g transform="rotate(3.998 -2933.366 6897.551) scale(.24414)">
      <path fill="transparent" d="M0 0h512v512H0z" />
      <use xlink:href="#i" />
    </g>
    <g transform="rotate(3.998 -3189.097 -433.33) scale(.24414)">
      <path fill="transparent" d="M0 0h512v512H0z" />
      <use xlink:href="#i" />
    </g>
  </g>
  <g transform="rotate(-51 239.503 71.322) scale(.24621)" data-name="015-fan.svg">
    <path fill="transparent" d="M0 0h512v512H0z" />
    <use xlink:href="#j" />
  </g>
  <g transform="rotate(5.999 -659.901 2822.083) scale(.24414)" data-name="009-mariachi.svg">
    <path fill="transparent" d="M0 0h512v512H0z" />
    <use xlink:href="#k" />
  </g>
  <g data-name="023-cigar.svg">
    <g transform="rotate(-3.998 1955.624 -5684.528) scale(.24414)">
      <path fill="transparent" d="M0 0h512v512H0z" />
      <use xlink:href="#l" />
    </g>
    <g transform="rotate(-3.998 1699.893 1646.353) scale(.24414)">
      <path fill="transparent" d="M0 0h512v512H0z" />
      <use xlink:href="#l" />
    </g>
  </g>
  <g data-name="005-skull.svg">
    <g transform="rotate(25 -913.61 1200.526) scale(.24414)">
      <path fill="transparent" d="M0 0h512v512H0z" />
      <use xlink:href="#m" />
    </g>
    <g transform="rotate(25 241.131 944.533) scale(.24414)">
      <path fill="transparent" d="M0 0h512v512H0z" />
      <use xlink:href="#m" />
    </g>
    <g transform="rotate(25 -1169.603 45.784) scale(.24414)">
      <path fill="transparent" d="M0 0h512v512H0z" />
      <use xlink:href="#m" />
    </g>
    <g transform="rotate(25 -14.862 -210.209) scale(.24414)">
      <path fill="transparent" d="M0 0h512v512H0z" />
      <use xlink:href="#m" />
    </g>
  </g>
  <g transform="rotate(-.992 17234.934 -12882.884) scale(.24414)" data-name="049-catrina.svg">
    <path fill="transparent" d="M0 0h512v512H0z" />
    <use xlink:href="#n" />
  </g>
  <g transform="rotate(20 -439.682 1091.045) scale(.24414)" data-name="010-poncho.svg">
    <path fill="transparent" d="M0 0h512v512H0z" />
    <use xlink:href="#o" />
  </g>
</svg>
