<svg xmlns="http://www.w3.org/2000/svg" xmlns:xlink="http://www.w3.org/1999/xlink" width="512" height="512" viewBox="0 0 512 512">
  <defs>
    <svg xmlns="http://www.w3.org/2000/svg" viewBox="0 0 512 512" width="512" height="512" id="a">
      <path d="M283.793 184.631h64.485c5.522 0 10-4.477 10-10s-4.478-10-10-10h-64.485c-5.639 0-10.227-4.587-10.227-10.226s4.588-10.227 10.227-10.227c5.522 0 10-4.477 10-10s-4.478-10-10-10c-16.667 0-30.227 13.56-30.227 30.227 0 16.666 13.56 30.226 30.227 30.226z" />
      <path d="M485.032 384.04V204.247c0-109.634-88.886-198.828-198.142-198.828h-61.78c-22.714 0-44.912 3.809-66.086 11.33-7.078-7.029-16.813-11.33-27.418-11.33-14.864 0-28.02 8.449-34.545 21.016-13.501-4.27-28.777-.943-39.288 9.567S43.935 61.789 48.206 75.29C35.639 81.816 27.19 94.971 27.19 109.835c0 10.598 4.295 20.326 11.315 27.403-7.658 21.454-11.536 43.961-11.536 67.009V384.04C9.983 396.897 0 416.835 0 438.419c0 37.585 30.482 68.163 67.951 68.163h376.098c37.469 0 67.951-30.578 67.951-68.163 0-21.583-9.983-41.522-26.968-54.379zM63.668 91.093a10 10 0 0 0 6.647-16.045c-5.8-7.486-5.112-18.192 1.6-24.904 6.711-6.713 17.419-7.4 24.904-1.601a10.003 10.003 0 0 0 16.045-6.647c1.192-9.394 9.249-16.478 18.742-16.478 9.492 0 17.549 7.084 18.742 16.479a9.999 9.999 0 0 0 16.045 6.645c7.487-5.8 18.192-5.111 24.904 1.601s7.4 17.418 1.6 24.904a10 10 0 0 0 6.647 16.045c9.395 1.192 16.479 9.249 16.479 18.741 0 9.493-7.084 17.55-16.479 18.742a10 10 0 0 0-6.647 16.045c5.8 7.486 5.112 18.192-1.6 24.904-6.711 6.712-17.417 7.4-24.904 1.601a9.998 9.998 0 0 0-16.045 6.645c-1.192 9.395-9.25 16.479-18.742 16.479-9.493 0-17.55-7.084-18.742-16.479a10 10 0 0 0-16.045-6.646c-7.487 5.8-18.193 5.111-24.904-1.601-6.712-6.712-7.4-17.418-1.6-24.904a10 10 0 0 0-6.647-16.045c-9.395-1.192-16.479-9.249-16.479-18.742 0-9.49 7.084-17.547 16.479-18.739zm346.836 242.644c4.59 9.119 6.918 18.951 6.919 29.22 0 41.992-24.223 63.839-71.996 64.935a10 10 0 0 0-9.771 9.998v17.327c0 16.082-12.126 29.398-27.755 31.366H204.108c-15.629-1.969-27.754-15.285-27.754-31.366V437.89a10 10 0 0 0-9.771-9.998c-19.103-.438-34.786-4.35-46.615-11.626-17.287-10.634-25.691-28.071-25.691-53.309 0-10.267 2.328-20.098 6.917-29.219 4.47-8.88 5.112-19.562 1.761-29.308-5.732-16.671-8.705-43.631-8.678-61.645a158.642 158.642 0 0 1 6.267-44.033c7.15 9.46 18.495 15.499 31.061 15.499 14.864 0 28.019-8.449 34.545-21.016 13.5 4.273 28.778.944 39.288-9.566 10.511-10.51 13.838-25.787 9.567-39.288 12.567-6.526 21.016-19.681 21.016-34.545 0-9.509-3.458-18.319-9.24-25.141a161.632 161.632 0 0 1 29.068-2.623c88.963 0 161.444 72.096 161.572 160.714.027 18.012-2.945 44.971-8.678 61.646-3.349 9.742-2.708 20.424 1.761 29.305zM20 438.419c0-16.602 8.35-31.826 22.336-40.723a10 10 0 0 0 4.632-8.438V204.247c0-10.857.956-21.578 2.853-32.098a38.7 38.7 0 0 0 7.951 11.519c6.42 6.42 14.618 10.16 23.104 11.125-4.36 15.577-6.575 31.65-6.599 47.962-.028 19.076 3.016 48.548 9.765 68.178 1.61 4.681 1.35 9.715-.713 13.813-6.006 11.937-9.052 24.793-9.052 38.21 0 32.304 11.847 55.971 35.212 70.344 12.699 7.812 28.431 12.53 46.865 14.072v7.843c0 11.789 3.984 22.667 10.679 31.366H67.951C41.511 486.582 20 464.976 20 438.419zm424.049 48.163h-99.072c6.696-8.7 10.679-19.578 10.679-31.366v-7.844c18.394-1.543 34.078-6.266 46.727-14.082 23.251-14.368 35.04-38.031 35.04-70.333-.001-13.42-3.047-26.276-9.054-38.209-2.062-4.098-2.321-9.133-.712-13.814 6.749-19.632 9.792-49.103 9.764-68.177-.069-47.977-18.987-93.247-53.27-127.47-34.375-34.316-79.94-53.214-128.302-53.214a181.31 181.31 0 0 0-39.133 4.253c.78-10.936-3.046-22.091-11.278-30.322a38.685 38.685 0 0 0-11.373-7.885 178.65 178.65 0 0 1 31.044-2.698h61.781c98.228 0 178.142 80.222 178.142 178.828v185.012a10 10 0 0 0 4.632 8.437C483.65 406.593 492 421.817 492 438.419c0 26.557-21.511 48.163-47.951 48.163z" />
      <path d="M303.692 209.096c-10.961 4.316-19.619 13.034-24.38 24.547-5.945 14.38-5.372 31.756 1.573 47.672 10.23 23.446 31.981 38.269 53.149 38.268 5.365 0 10.694-.953 15.787-2.958 10.961-4.316 19.619-13.034 24.38-24.547 5.945-14.38 5.372-31.756-1.573-47.672-12.822-29.389-43.75-45.227-68.936-35.31zm50.607 43.309c4.785 10.966 5.303 22.641 1.421 32.031-1.887 4.562-5.712 10.621-13.226 13.58-15.29 6.022-34.707-5.058-43.278-24.7-4.785-10.966-5.303-22.641-1.421-32.031 1.887-4.562 5.712-10.621 13.226-13.58 2.822-1.112 5.785-1.641 8.795-1.641 13.294.001 27.494 10.325 34.483 26.341zM162.177 316.625c5.095 2.006 10.42 2.958 15.788 2.958 21.167 0 42.919-14.824 53.149-38.268 6.945-15.916 7.518-33.292 1.572-47.672-4.761-11.513-13.419-20.23-24.38-24.547-25.187-9.918-56.113 5.921-68.937 35.31-6.945 15.917-7.518 33.292-1.572 47.672 4.762 11.513 13.419 20.231 24.38 24.547zm-4.476-64.22c8.57-19.642 27.984-30.723 43.278-24.7 7.513 2.958 11.339 9.018 13.226 13.58 3.882 9.389 3.365 21.064-1.421 32.03-6.989 16.018-21.187 26.342-34.483 26.34-3.008 0-5.973-.529-8.795-1.641-7.513-2.958-11.339-9.018-13.225-13.58-3.884-9.388-3.366-21.062 1.42-32.029zM225.567 341.472a24.071 24.071 0 0 0 2.615 22.286 24.27 24.27 0 0 0 20.028 10.529h15.572a24.273 24.273 0 0 0 20.029-10.529 24.068 24.068 0 0 0 2.615-22.286l-7.786-20.188c-3.631-9.413-12.52-15.494-22.646-15.494-10.125 0-19.013 6.083-22.643 15.495zm18.661 7.197 7.786-20.188c.903-2.341 2.883-2.691 3.983-2.691 1.101 0 3.081.35 3.984 2.692l7.786 20.188c.671 1.74.008 3.111-.446 3.774-.473.689-1.561 1.844-3.538 1.844h-15.572c-1.977 0-3.064-1.155-3.537-1.844-.455-.664-1.117-2.035-.446-3.775zM282.263 394.071c-8.971-2.327-18.538-.999-26.263 3.43-7.724-4.429-17.292-5.758-26.263-3.43-10.399 2.7-18.251 9.638-21.544 19.035a27.4 27.4 0 0 0-1.557 9.081c0 20.043 21.683 35.744 49.363 35.744s49.364-15.701 49.364-35.744c0-3.078-.523-6.133-1.557-9.082-3.292-9.397-11.145-16.334-21.543-19.034zM256 437.931c-16.806 0-29.363-8.312-29.363-15.744 0-.832.141-1.639.432-2.468 1.493-4.262 5.879-5.818 7.695-6.29a15.822 15.822 0 0 1 3.968-.508c3.498 0 6.858 1.174 9.319 3.357l1.312 1.164a10.001 10.001 0 0 0 13.275.001l1.312-1.164c3.389-3.007 8.484-4.098 13.288-2.851 1.816.472 6.202 2.028 7.695 6.289.29.83.432 1.637.432 2.469-.002 7.433-12.559 15.745-29.365 15.745zM357.038 336.094c-18.166 0-32.944 14.779-32.944 32.945s14.778 32.944 32.944 32.944 32.945-14.779 32.945-32.944c0-18.166-14.779-32.945-32.945-32.945zm0 45.889c-7.138 0-12.944-5.807-12.944-12.944s5.807-12.945 12.944-12.945 12.945 5.807 12.945 12.945-5.807 12.944-12.945 12.944zM154.962 336.094c-18.166 0-32.945 14.779-32.945 32.945s14.779 32.944 32.945 32.944 32.944-14.779 32.944-32.944c0-18.166-14.779-32.945-32.944-32.945zm0 45.889c-7.138 0-12.945-5.807-12.945-12.944s5.807-12.945 12.945-12.945 12.944 5.807 12.944 12.945-5.806 12.944-12.944 12.944zM131.605 146.335c20.127 0 36.501-16.374 36.501-36.501s-16.374-36.501-36.501-36.501-36.501 16.374-36.501 36.501 16.375 36.501 36.501 36.501zm0-53.002c9.099 0 16.501 7.402 16.501 16.501s-7.402 16.501-16.501 16.501-16.501-7.402-16.501-16.501 7.403-16.501 16.501-16.501z" />
    </svg>
    <svg xmlns="http://www.w3.org/2000/svg" viewBox="0 0 512 512" width="512" height="512" id="b">
      <path d="M244.792 120.541A15.746 15.746 0 0 0 256 125.184c4.233 0 8.213-1.648 11.208-4.642l24.867-24.867c11.958-11.959 12.113-31.405.345-43.348-5.775-5.862-13.487-9.107-21.714-9.137-5.256-.004-10.246 1.257-14.706 3.68-4.461-2.423-9.511-3.741-14.708-3.681-8.226.03-15.937 3.275-21.712 9.137-11.768 11.943-11.613 31.389.346 43.348zm-10.966-54.178a10.57 10.57 0 0 1 7.541-3.175h.041c2.841 0 5.511 1.106 7.521 3.116 3.905 3.905 10.237 3.904 14.142 0a10.562 10.562 0 0 1 7.521-3.115h.041a10.572 10.572 0 0 1 7.542 3.174c4.085 4.146 3.977 10.951-.242 15.168L256 103.464l-21.933-21.933c-4.218-4.217-4.326-11.022-.241-15.168z" />
      <path d="M454.414 303.385c-2.579-5.125-2.91-11.405-.909-17.227 7.758-22.564 11.257-56.485 11.225-78.453-.08-55.149-21.828-107.188-61.238-146.53C363.975 21.726 311.594 0 255.999 0S148.023 21.726 108.506 61.175c-39.41 39.342-61.158 91.38-61.238 146.53-.032 21.968 3.466 55.889 11.224 78.453 2.002 5.823 1.671 12.102-.908 17.227-6.845 13.603-10.316 28.254-10.316 43.547 0 36.831 13.469 63.791 40.032 80.13 14.828 9.121 33.307 14.551 55.036 16.187v10.546c0 32.094 26.188 58.205 58.376 58.205h110.932c32.189 0 58.376-26.111 58.376-58.205v-10.547c21.681-1.638 40.107-7.071 54.875-16.196 26.433-16.334 39.836-43.291 39.836-80.12 0-15.294-3.471-29.945-10.317-43.547zM255.999 20c60.382 0 114.264 28.435 148.842 72.569C372.158 123.535 316.049 142.52 256 142.52c-61.154 0-116.092-18.548-148.861-49.927C141.716 48.446 195.606 20 255.999 20zm103.793 403.728a10 10 0 0 0-9.771 9.998v20.069c0 21.066-17.216 38.205-38.376 38.205H200.713c-21.161 0-38.376-17.139-38.376-38.205v-20.069a10 10 0 0 0-9.771-9.998c-31.393-.72-54.202-8.989-68.292-24.686h45.12c17.837 0 32.349-14.512 32.349-32.349s-14.512-32.349-32.349-32.349c-5.523 0-10 4.477-10 10s4.477 10 10 10c6.809 0 12.349 5.54 12.349 12.349s-5.54 12.349-12.349 12.349H72.392c-3.412-9.276-5.124-19.983-5.124-32.111 0-12.142 2.752-23.769 8.181-34.556 4.987-9.907 5.7-21.833 1.957-32.721-6.696-19.475-10.168-50.922-10.137-71.92.053-36.14 10.407-69.927 28.285-98.6C132.229 142.739 191.152 162.52 256 162.52c64.71 0 123.601-19.785 160.433-53.407 17.886 28.677 28.245 62.472 28.298 98.621.031 20.998-3.441 52.444-10.138 71.921-3.742 10.885-3.029 22.811 1.956 32.718v.001c5.429 10.788 8.183 22.415 8.184 34.557 0 12.128-1.704 22.835-5.101 32.111h-57.025c-6.809 0-12.349-5.54-12.349-12.349s5.54-12.349 12.349-12.349c5.523 0 10-4.477 10-10s-4.477-10-10-10c-17.837 0-32.349 14.512-32.349 32.349s14.512 32.349 32.349 32.349h45.195c-14.031 15.7-36.746 23.969-68.01 24.686z" />
      <path d="M280.054 300.388c-3.853-10.024-13.294-16.502-24.054-16.502s-20.201 6.478-24.054 16.502l-8.608 22.4a25.656 25.656 0 0 0 2.805 23.737 25.77 25.77 0 0 0 21.249 11.171h17.216a25.77 25.77 0 0 0 21.249-11.171 25.656 25.656 0 0 0 2.805-23.737zM269.371 335.2c-.516.75-2.012 2.497-4.764 2.497h-17.216c-2.751 0-4.248-1.746-4.764-2.497-.631-.918-1.55-2.819-.621-5.238l8.608-22.399c1.275-3.318 4.19-3.676 5.385-3.676 1.194 0 4.11.358 5.385 3.676l8.608 22.4c.93 2.417.01 4.319-.621 5.237zM399.002 274.399c4.511-16.675 3.106-35.538-3.957-53.114-8.34-20.753-23.437-36.924-41.419-44.364-13.3-5.503-27.343-5.662-39.542-.445-14.713 6.292-25.439 19.453-30.202 37.06-4.511 16.675-3.106 35.538 3.957 53.113 8.34 20.754 23.437 36.924 41.419 44.364 6.838 2.829 13.87 4.245 20.749 4.245 6.501 0 12.866-1.266 18.793-3.8 14.713-6.29 25.439-19.452 30.202-37.059zm-62.098 18.135c-12.85-5.317-24.255-17.781-30.508-33.341-10.906-27.139-3.931-55.996 15.55-64.326 3.752-1.604 7.452-2.218 10.917-2.218 5.068 0 9.633 1.312 13.115 2.753 12.85 5.317 24.255 17.781 30.508 33.341 10.906 27.139 3.931 55.996-15.55 64.326-9.242 3.952-18.17 1.891-24.032-.535zM224.161 266.651c7.063-17.576 8.468-36.438 3.957-53.114-4.763-17.607-15.489-30.769-30.202-37.06-12.198-5.215-26.241-5.059-39.542.445-17.982 7.44-33.079 23.61-41.419 44.364-7.063 17.576-8.468 36.438-3.957 53.114 4.763 17.607 15.489 30.769 30.202 37.06 5.928 2.535 12.291 3.8 18.793 3.8 6.878 0 13.912-1.417 20.749-4.245 17.982-7.441 33.079-23.611 41.419-44.364zm-49.065 25.883c-5.863 2.426-14.792 4.488-24.033.536-19.481-8.33-26.457-37.187-15.55-64.326 6.253-15.561 17.658-28.024 30.508-33.341 3.483-1.441 8.046-2.753 13.115-2.753 3.464 0 7.166.613 10.917 2.218 19.481 8.33 26.457 37.187 15.55 64.327-6.253 15.558-17.657 28.022-30.507 33.339zM204.566 401.82c-5.523 0-10 4.477-10 10v23.617c0 5.523 4.477 10 10 10s10-4.477 10-10V411.82c0-5.523-4.477-10-10-10zM256 401.82c-5.523 0-10 4.477-10 10v23.617c0 5.523 4.477 10 10 10s10-4.477 10-10V411.82c0-5.523-4.477-10-10-10zM307.433 401.82c-5.523 0-10 4.477-10 10v23.617c0 5.523 4.477 10 10 10s10-4.477 10-10V411.82c0-5.523-4.477-10-10-10zM246.77 197.48c1.579 3.851 5.557 6.382 9.719 6.165 4.129-.215 7.745-3.005 9.024-6.93 1.287-3.951-.117-8.468-3.427-10.986-3.372-2.565-8.106-2.732-11.636-.379-3.915 2.609-5.49 7.786-3.68 12.13zM388.06 170.74c1.586 3.808 5.442 6.293 9.565 6.165 4.12-.128 7.808-2.877 9.134-6.774 1.401-4.117-.098-8.813-3.638-11.342-3.26-2.329-7.682-2.458-11.09-.365-4.114 2.526-5.828 7.859-3.971 12.316zM112.75 176.72c4.02.819 8.291-1.036 10.446-4.527 2.226-3.606 1.924-8.342-.767-11.623-2.647-3.227-7.164-4.474-11.093-3.065-3.926 1.408-6.634 5.223-6.636 9.405-.003 4.726 3.435 8.873 8.05 9.81z" />
    </svg>
    <svg xmlns="http://www.w3.org/2000/svg" viewBox="0 0 512.005 512.005" width="512.005" height="512.005" id="c">
      <path d="M426.266 247.053h-27.713c-4.854 0-8.802-3.948-8.802-8.802s3.948-8.803 8.802-8.803c5.522 0 10-4.478 10-10s-4.478-10-10-10c-15.881 0-28.802 12.921-28.802 28.803 0 15.881 12.921 28.802 28.802 28.802h27.713c5.522 0 10-4.478 10-10s-4.478-10-10-10zM142.265 238.251c0-15.882-12.921-28.803-28.802-28.803-5.522 0-10 4.478-10 10s4.478 10 10 10c4.854 0 8.802 3.949 8.802 8.803s-3.948 8.802-8.802 8.802H85.75c-5.522 0-10 4.478-10 10s4.478 10 10 10h27.713c15.881 0 28.802-12.921 28.802-28.802zM303.787 246.779a10.002 10.002 0 0 0-7.976-6.093 15.934 15.934 0 0 1-9.333-4.585 15.936 15.936 0 0 1-4.587-9.335 10 10 0 0 0-16.041-6.645c-2.837 2.196-6.241 3.357-9.843 3.357s-7.006-1.161-9.843-3.357a10.002 10.002 0 0 0-16.041 6.645 15.934 15.934 0 0 1-4.585 9.333 15.936 15.936 0 0 1-9.335 4.587 10 10 0 0 0-6.645 16.041c2.196 2.837 3.357 6.241 3.357 9.843s-1.161 7.006-3.357 9.843a10.002 10.002 0 0 0 6.645 16.041 15.934 15.934 0 0 1 9.333 4.585 15.936 15.936 0 0 1 4.587 9.335 10 10 0 0 0 16.041 6.645c2.837-2.196 6.241-3.357 9.843-3.357s7.006 1.161 9.843 3.357a9.996 9.996 0 0 0 9.948 1.331 10.002 10.002 0 0 0 6.093-7.976 15.934 15.934 0 0 1 4.585-9.333 15.936 15.936 0 0 1 9.335-4.587 10 10 0 0 0 6.645-16.041c-2.196-2.837-3.357-6.241-3.357-9.843s1.161-7.006 3.357-9.843 2.703-6.633 1.331-9.948zm-23.249 29.952a36.198 36.198 0 0 0-8.204 6.167 36.207 36.207 0 0 0-6.165 8.202c-6.521-1.904-13.801-1.904-20.322 0a36.198 36.198 0 0 0-6.167-8.204 36.207 36.207 0 0 0-8.202-6.165c.952-3.261 1.439-6.67 1.439-10.161s-.487-6.9-1.439-10.161a36.198 36.198 0 0 0 8.204-6.167 36.207 36.207 0 0 0 6.165-8.202c6.521 1.904 13.801 1.904 20.322 0a36.198 36.198 0 0 0 6.167 8.204 36.207 36.207 0 0 0 8.202 6.165c-.952 3.261-1.439 6.67-1.439 10.161s.487 6.9 1.439 10.161z" />
      <path d="M511.77 172.273c-1.897-35.457-16.914-68.753-42.284-93.756-25.705-25.334-59.252-39.286-94.459-39.286-42.323 0-78.677 26.893-101.721 49.453-9.387 9.188-24.599 9.085-33.909-.23-22.449-22.455-58.44-49.223-102.417-49.223-35.204 0-68.748 13.952-94.453 39.286C17.157 103.52 2.141 136.816.243 172.274c-1.888 35.365 7.146 66.12 29.29 99.725C57.462 314.368 177.326 419.057 227.564 462.1c8.307 7.117 18.486 10.675 28.666 10.675 10.187 0 20.374-3.563 28.684-10.689 50.044-42.923 169.475-147.368 197.579-190.097 14.905-22.674 31.701-54.497 29.277-99.716zM331.978 251.06c5.112 3.518 8.165 9.315 8.165 15.51s-3.053 11.992-8.166 15.511c-8.885 6.113-13.326 16.736-11.316 27.062a18.812 18.812 0 0 1-22.079 22.079c-10.322-2.011-20.949 2.432-27.063 11.317a18.829 18.829 0 0 1-15.51 8.165 18.832 18.832 0 0 1-15.511-8.166c-5.138-7.466-13.458-11.794-22.111-11.794-1.645 0-3.303.156-4.951.478a18.813 18.813 0 0 1-22.079-22.079c2.01-10.326-2.432-20.949-11.317-27.063-5.112-3.518-8.165-9.315-8.165-15.51s3.053-11.992 8.166-15.511c8.885-6.113 13.326-16.736 11.316-27.062a18.812 18.812 0 0 1 22.079-22.079c10.324 2.012 20.948-2.432 27.063-11.317a18.829 18.829 0 0 1 15.51-8.165 18.832 18.832 0 0 1 15.511 8.166c6.114 8.885 16.739 13.329 27.062 11.316a18.813 18.813 0 0 1 22.079 22.079c-2.01 10.326 2.431 20.949 11.317 27.063zm133.804 9.939c-26.705 40.6-144.488 143.533-193.889 185.903-9.072 7.779-22.241 7.784-31.317.009C190.982 404.418 72.763 301.24 46.233 260.992c-19.638-29.801-27.662-56.834-26.019-87.65 3.369-62.921 55.749-114.11 116.766-114.11 37.128 0 68.496 23.581 88.272 43.363a43.826 43.826 0 0 0 20.756 11.639v49.512a38.832 38.832 0 0 0-21.985 15.518c-1.576 2.29-4.292 3.499-6.768 3.023a38.778 38.778 0 0 0-34.882 10.649 38.78 38.78 0 0 0-10.648 34.881c.48 2.472-.734 5.191-3.022 6.767a38.82 38.82 0 0 0-16.829 31.986 38.819 38.819 0 0 0 16.828 31.985c2.289 1.576 3.504 4.296 3.023 6.768a38.782 38.782 0 0 0 10.649 34.882 38.778 38.778 0 0 0 34.881 10.648c2.475-.475 5.191.733 6.767 3.022 7.249 10.538 19.207 16.829 31.986 16.829s24.737-6.291 31.985-16.828c1.576-2.29 4.293-3.497 6.768-3.023a38.779 38.779 0 0 0 34.882-10.649 38.78 38.78 0 0 0 10.648-34.881c-.48-2.472.734-5.191 3.022-6.767 10.538-7.249 16.829-19.207 16.829-31.986s-6.291-24.737-16.828-31.985c-2.289-1.576-3.504-4.296-3.023-6.768a38.782 38.782 0 0 0-10.649-34.882 38.778 38.778 0 0 0-34.881-10.648c-2.475.475-5.191-.734-6.767-3.022a38.84 38.84 0 0 0-21.986-15.519v-49.29a43.66 43.66 0 0 0 21.289-11.48c20.384-19.956 52.15-43.744 87.729-43.744 61.021 0 113.404 51.189 116.772 114.111 1.649 30.744-6.375 57.778-26.016 87.656z" />
      <path d="M265.237 403.176c-1.659-3.984-5.814-6.527-10.123-6.135-4.132.375-7.686 3.369-8.761 7.376-1.063 3.962.478 8.336 3.833 10.714 3.421 2.425 8.049 2.463 11.507.092 3.851-2.639 5.307-7.749 3.544-12.047zM463.237 187.876c-1.658-3.983-5.817-6.516-10.123-6.125-4.128.375-7.693 3.358-8.761 7.368-1.057 3.965.475 8.329 3.833 10.711 3.419 2.425 8.05 2.464 11.507.093 3.85-2.64 5.308-7.748 3.544-12.047zM67.237 187.876c-1.658-3.983-5.817-6.516-10.123-6.125-4.129.375-7.692 3.358-8.761 7.368-1.057 3.965.475 8.329 3.833 10.711 3.419 2.425 8.05 2.464 11.507.093 3.85-2.64 5.308-7.748 3.544-12.047zM383.487 305.796c-1.636-3.931-5.692-6.455-9.948-6.148-4.135.299-7.727 3.205-8.888 7.18-1.109 3.794.192 8.022 3.26 10.521 3.293 2.682 8.004 3 11.619.762 4.099-2.536 5.815-7.86 3.957-12.315zM146.998 305.796c-1.66-3.988-5.814-6.525-10.128-6.135-4.138.374-7.683 3.359-8.763 7.369-1.074 3.989.484 8.309 3.833 10.717 3.39 2.438 8.081 2.473 11.511.094 3.812-2.643 5.337-7.751 3.547-12.045zM127.08 189.629c26.052 0 47.247-21.195 47.247-47.247s-21.195-47.247-47.247-47.247-47.247 21.195-47.247 47.247 21.195 47.247 47.247 47.247zm0-74.494c15.024 0 27.247 12.223 27.247 27.247s-12.223 27.247-27.247 27.247-27.247-12.223-27.247-27.247 12.223-27.247 27.247-27.247zM432.183 142.382c0-26.052-21.195-47.247-47.247-47.247s-47.247 21.195-47.247 47.247 21.195 47.247 47.247 47.247 47.247-21.195 47.247-47.247zm-74.494 0c0-15.024 12.223-27.247 27.247-27.247s27.247 12.223 27.247 27.247-12.223 27.247-27.247 27.247-27.247-12.222-27.247-27.247z" />
    </svg>
    <svg xmlns="http://www.w3.org/2000/svg" viewBox="0 0 512 512" width="512" height="512" id="d">
      <path d="M474.899 185.703c-11.361-7.822-17.085-21.19-14.583-34.057 5.431-27.917-3.312-56.576-23.389-76.664-20.079-20.09-48.728-28.839-76.633-23.403-12.856 2.505-26.212-3.224-34.028-14.589C310.336 13.828 284.068 0 256 0s-54.336 13.828-70.267 36.99c-7.817 11.365-21.173 17.085-34.028 14.589-27.909-5.435-56.554 3.314-76.632 23.403-20.077 20.088-28.82 48.747-23.389 76.663 2.503 12.867-3.221 26.235-14.583 34.058C13.952 201.641.132 227.92.132 256s13.82 54.359 36.969 70.297c11.361 7.822 17.085 21.19 14.583 34.057-5.431 27.917 3.312 56.576 23.389 76.664 20.078 20.089 48.725 28.839 76.632 23.403 12.854-2.51 26.211 3.223 34.028 14.589C201.664 498.172 227.932 512 256 512s54.336-13.828 70.268-36.991c7.816-11.365 21.17-17.087 34.028-14.588 27.907 5.438 56.555-3.313 76.632-23.403 20.077-20.088 28.82-48.747 23.389-76.663-2.503-12.867 3.221-26.235 14.583-34.058 23.148-15.938 36.969-42.217 36.969-70.297s-13.821-54.359-36.97-70.297zm-11.341 124.121c-17.917 12.336-26.896 33.669-22.873 54.35 4.16 21.381-2.533 43.327-17.903 58.705-15.367 15.376-37.296 22.076-58.663 17.911-20.675-4.026-42 4.957-54.33 22.886C297.59 481.411 277.482 492 256 492s-41.59-10.589-53.789-28.324c-10.375-15.085-27.115-23.836-44.479-23.836-3.274 0-6.572.312-9.852.95-21.365 4.162-43.295-2.535-58.664-17.911-15.37-15.378-22.062-37.324-17.903-58.706 4.023-20.68-4.955-42.013-22.873-54.349C30.715 297.619 20.132 277.498 20.132 256s10.583-41.619 28.311-53.824c17.917-12.336 26.896-33.669 22.873-54.35-4.16-21.381 2.533-43.327 17.903-58.705 15.369-15.377 37.3-22.073 58.664-17.911 20.673 4.026 42-4.957 54.33-22.886C214.41 30.589 234.518 20 256 20s41.59 10.589 53.788 28.323c12.331 17.93 33.653 26.913 54.331 22.887 21.367-4.165 43.296 2.535 58.664 17.911 15.37 15.378 22.062 37.324 17.903 58.706-4.023 20.68 4.955 42.013 22.873 54.349 17.727 12.205 28.311 32.326 28.311 53.824s-10.585 41.619-28.312 53.824z" />
      <path d="M416.285 189.615c8.186-26.234 1.249-55.485-18.611-75.357-19.847-19.858-49.076-26.794-75.315-18.619C309.777 71.816 284.752 55.544 256 55.544c-28.749 0-53.772 16.269-66.354 40.087-26.219-8.19-55.456-1.248-75.32 18.626-19.884 19.896-26.83 49.159-18.622 75.363-23.802 12.59-40.058 37.622-40.058 66.38 0 28.765 16.264 53.801 40.074 66.388-8.177 26.246-1.245 55.493 18.606 75.354 14.384 14.392 33.673 22.006 53.172 22.005a74.227 74.227 0 0 0 22.15-3.374c12.583 23.816 37.604 40.083 66.352 40.083 28.746 0 53.766-16.265 66.35-40.079a74.083 74.083 0 0 0 22.15 3.377c19.492 0 38.786-7.618 53.174-22.013 19.888-19.899 26.835-49.164 18.624-75.364 23.801-12.59 40.056-37.621 40.056-66.378 0-28.762-16.261-53.797-40.069-66.384zm-32.758-61.219c14.339 14.347 19.504 35.341 13.951 54.319a74.936 74.936 0 0 0-16.119-1.745 87.87 87.87 0 0 0-6.543.255c-.952-10.983-5.618-21.702-14.001-30.09-8.159-8.163-18.712-13.06-30.075-14.036.169-2.267.254-4.446.254-6.527 0-5.534-.602-10.929-1.744-16.125 18.982-5.541 39.954-.382 54.277 13.949zm-36.858 218.33c-5.385 5.389-12.545 8.355-20.16 8.355-7.616 0-14.775-2.967-20.161-8.355-7.54-7.543-16.287-23.645-19.365-38.146a61.374 61.374 0 0 0 12.14-9.44 60.904 60.904 0 0 0 9.408-12.138c14.515 3.087 30.607 11.831 38.138 19.366 11.121 11.127 11.121 29.231 0 40.358zm-161.178 8.355c-7.615 0-14.775-2.967-20.16-8.355-11.121-11.127-11.121-29.23 0-40.357 7.537-7.542 23.634-16.293 38.134-19.374a60.93 60.93 0 0 0 9.412 12.145 61.381 61.381 0 0 0 12.118 9.427c-3.055 14.496-11.804 30.616-19.343 38.159-5.386 5.388-12.546 8.355-20.161 8.355zm-20.16-189.807c5.385-5.389 12.545-8.356 20.16-8.356 7.616 0 14.775 2.968 20.161 8.356 7.526 7.53 16.259 23.625 19.351 38.155a61.384 61.384 0 0 0-12.126 9.431 60.925 60.925 0 0 0-9.392 12.11c-14.548-3.093-30.641-11.82-38.154-19.338-11.121-11.127-11.121-29.231 0-40.358zm61.691 119.727c-15.982-15.991-15.982-42.011 0-58.002 7.741-7.745 18.032-12.01 28.978-12.01s21.237 4.265 28.978 12.01c15.982 15.991 15.982 42.011 0 58.002-7.741 7.745-18.032 12.01-28.978 12.01s-21.237-4.265-28.978-12.01zm72.102-72.141a61.393 61.393 0 0 0-12.161-9.452c3.057-14.457 11.826-30.57 19.385-38.134 5.386-5.389 12.545-8.355 20.161-8.355 7.615 0 14.775 2.967 20.16 8.355 11.121 11.127 11.121 29.23 0 40.357-7.545 7.55-23.666 16.313-38.142 19.359a60.925 60.925 0 0 0-9.403-12.13zM256 75.544c30.324 0 54.995 24.686 54.995 55.029 0 2.764-.199 5.8-.593 9.073-6.771 2.377-12.976 6.264-18.2 11.49-9.286 9.292-19.611 27.293-24.081 45.052A61.588 61.588 0 0 0 256 194.99c-4.132 0-8.2.408-12.161 1.206-4.494-17.814-14.787-35.799-24.042-45.06-5.224-5.226-11.429-9.114-18.2-11.491-.393-3.271-.592-6.307-.592-9.072 0-30.344 24.671-55.029 54.995-55.029zm-127.528 52.852c14.338-14.346 35.317-19.515 54.279-13.958a75.07 75.07 0 0 0-1.746 16.135c0 2.081.085 4.26.253 6.526-11.363.976-21.916 5.874-30.075 14.037-8.383 8.387-13.049 19.106-14.001 30.09a87.89 87.89 0 0 0-6.543-.255c-5.546 0-10.953.606-16.159 1.754-5.73-19.09-.616-39.712 13.992-54.329zM75.646 256c0-30.343 24.67-55.029 54.995-55.029 2.769 0 5.812.2 9.092.596a48.25 48.25 0 0 0 11.451 18.204c9.248 9.253 27.241 19.547 45.081 24.041a61.553 61.553 0 0 0-.008 24.339c-17.802 4.485-35.801 14.802-45.073 24.079a48.25 48.25 0 0 0-11.452 18.205c-3.279.396-6.322.595-9.092.595-30.324-.001-54.994-24.687-54.994-55.03zm52.827 127.604c-14.33-14.337-19.49-35.328-13.946-54.318a74.945 74.945 0 0 0 16.114 1.744c2.086 0 4.27-.085 6.543-.255.951 10.984 5.618 21.702 14.001 30.09 8.159 8.163 18.712 13.06 30.075 14.036a87.957 87.957 0 0 0-.253 6.527c0 5.539.603 10.94 1.747 16.14-18.952 5.561-39.934.39-54.281-13.964zM256 436.456c-30.324 0-54.995-24.687-54.995-55.029 0-2.764.199-5.8.592-9.073 6.771-2.377 12.977-6.264 18.2-11.49 9.265-9.271 19.569-27.271 24.037-45.061A61.578 61.578 0 0 0 256 317.01c4.126 0 8.19-.407 12.145-1.203 4.485 17.792 14.79 35.783 24.058 45.056 5.224 5.226 11.429 9.113 18.2 11.49.394 3.272.592 6.308.592 9.073 0 30.344-24.671 55.03-54.995 55.03zm127.528-52.852c-14.355 14.363-35.341 19.538-54.281 13.968a75.037 75.037 0 0 0 1.748-16.145c0-2.081-.085-4.26-.253-6.527 11.363-.976 21.916-5.873 30.075-14.036 8.383-8.387 13.049-19.106 14.001-30.09 2.272.17 4.456.255 6.543.255a74.99 74.99 0 0 0 16.161-1.754c5.732 19.086.617 39.709-13.994 54.329zm-2.169-72.575c-2.771 0-5.814-.2-9.092-.596a48.25 48.25 0 0 0-11.451-18.204c-9.265-9.271-27.262-19.581-45.075-24.071a61.542 61.542 0 0 0-.001-24.322c17.784-4.46 35.799-14.784 45.076-24.066a48.25 48.25 0 0 0 11.452-18.205c3.279-.396 6.321-.595 9.092-.595 30.324 0 54.995 24.687 54.995 55.029s-24.671 55.03-54.996 55.03z" />
    </svg>
    <svg xmlns="http://www.w3.org/2000/svg" viewBox="0 0 512 512" width="512" height="512" id="e">
      <path d="M317.149 227.073v-45.058c0-5.522-4.478-10-10-10h-25.073v-27.356c0-5.522-4.478-10-10-10h-44.98c-5.522 0-10 4.478-10 10v27.356h-25.073c-5.522 0-10 4.478-10 10v45.058c0 5.522 4.478 10 10 10h25.073v65.488c0 5.522 4.478 10 10 10h44.98c5.522 0 10-4.478 10-10v-65.488h25.073c5.522 0 10-4.477 10-10zm-20-10h-25.073c-5.522 0-10 4.478-10 10v65.488h-24.98v-65.488c0-5.522-4.478-10-10-10h-25.073v-25.058h25.073c5.522 0 10-4.478 10-10v-27.356h24.98v27.356c0 5.522 4.478 10 10 10h25.073z" />
      <path d="M426.286 375.88c-2.289-1.576-3.504-4.296-3.023-6.768a38.782 38.782 0 0 0-10.649-34.882 38.776 38.776 0 0 0-19.633-10.577l37.062-165.111a10 10 0 0 0-1.176-7.326L341.28 4.864A10.005 10.005 0 0 0 332.699 0H166.472a10.004 10.004 0 0 0-8.581 4.864L70.305 151.216a10.004 10.004 0 0 0-1.176 7.326l77.586 345.648a10 10 0 0 0 9.757 7.81h182.507a38.823 38.823 0 0 0 31.985-16.828c1.576-2.289 4.294-3.498 6.768-3.023a38.777 38.777 0 0 0 34.882-10.649 38.78 38.78 0 0 0 10.648-34.881c-.48-2.472.734-5.191 3.022-6.767 10.538-7.25 16.829-19.208 16.829-31.986s-6.29-24.737-16.827-31.986zm-160.942-41.65a38.847 38.847 0 0 0-6.275 8.217h-37.825c-5.522 0-10 4.478-10 10s4.478 10 10 10h32.739c.045 2.217.28 4.446.712 6.665.48 2.472-.734 5.191-3.023 6.767-10.537 7.25-16.828 19.208-16.828 31.986s6.291 24.736 16.827 31.986c2.29 1.575 3.505 4.295 3.024 6.766a38.949 38.949 0 0 0-.506 3.383h-56.992l-62.693-285.321L195.953 62h107.266l61.448 102.679-30.623 139.367a38.825 38.825 0 0 0-27.05 16.513c-1.576 2.289-4.291 3.499-6.768 3.023a38.776 38.776 0 0 0-34.882 10.648zM194.081 470h63.316a38.792 38.792 0 0 0 7.947 11.5 38.765 38.765 0 0 0 19.261 10.5H177.043zm-75.35-317.912-23.573-3.451L166.252 29.84l12.461 22.021zm285.283-3.451-23.573 3.451L320.46 51.863l12.473-22.001zM303.061 42H196.113l-12.449-22h131.869zm80.508 129.843 23.771-3.48-34.574 154.028a7.418 7.418 0 0 1-1.8-1.833 38.837 38.837 0 0 0-17.035-13.831zm-291.738-3.48 23.771 3.48 62.789 285.754-16.775 21.66zm323.117 255.013c-8.885 6.113-13.326 16.736-11.316 27.062a18.812 18.812 0 0 1-22.079 22.079c-10.323-2.011-20.948 2.432-27.063 11.316-3.519 5.113-9.316 8.166-15.51 8.166s-11.992-3.053-15.511-8.166c-5.138-7.466-13.458-11.794-22.111-11.794-1.645 0-3.303.156-4.951.478a18.814 18.814 0 0 1-22.079-22.079c2.01-10.326-2.433-20.95-11.318-27.063-5.112-3.518-8.164-9.315-8.164-15.51s3.052-11.992 8.165-15.51c8.885-6.113 13.327-16.737 11.317-27.064a18.805 18.805 0 0 1 5.16-16.918 18.808 18.808 0 0 1 16.919-5.16c10.322 2.012 20.949-2.432 27.063-11.317a18.829 18.829 0 0 1 15.51-8.165 18.835 18.835 0 0 1 15.511 8.166c6.114 8.885 16.739 13.327 27.062 11.316a18.813 18.813 0 0 1 22.079 22.079c-2.01 10.326 2.432 20.949 11.317 27.063 5.112 3.518 8.165 9.316 8.165 15.51s-3.053 11.992-8.166 15.511z" />
      <path d="M386.758 388.074a10.002 10.002 0 0 0-7.976-6.093c-3.56-.453-6.787-2.039-9.334-4.586s-4.133-5.774-4.586-9.334a10 10 0 0 0-16.041-6.645c-2.837 2.196-6.241 3.357-9.843 3.357s-7.006-1.161-9.843-3.357a10.002 10.002 0 0 0-16.041 6.645 15.93 15.93 0 0 1-4.587 9.334 15.932 15.932 0 0 1-9.333 4.586 10 10 0 0 0-6.645 16.041c2.196 2.837 3.357 6.241 3.357 9.843s-1.161 7.006-3.357 9.843a10.002 10.002 0 0 0 6.645 16.041 15.932 15.932 0 0 1 9.333 4.586 15.93 15.93 0 0 1 4.587 9.334 10 10 0 0 0 16.041 6.645c2.837-2.196 6.241-3.357 9.843-3.357s7.006 1.161 9.843 3.357a9.996 9.996 0 0 0 9.948 1.331 10.002 10.002 0 0 0 6.093-7.976 15.934 15.934 0 0 1 4.585-9.333 15.936 15.936 0 0 1 9.335-4.587 10 10 0 0 0 6.645-16.041c-2.196-2.837-3.357-6.241-3.357-9.843s1.161-7.006 3.357-9.843a10.002 10.002 0 0 0 1.331-9.948zm-23.249 29.952a36.195 36.195 0 0 0-8.203 6.166 36.251 36.251 0 0 0-6.167 8.203c-6.521-1.904-13.8-1.904-20.321 0a36.2 36.2 0 0 0-6.167-8.203 36.212 36.212 0 0 0-8.202-6.166c.952-3.261 1.439-6.67 1.439-10.161s-.487-6.9-1.439-10.161a36.19 36.19 0 0 0 8.202-6.166 36.222 36.222 0 0 0 6.167-8.203c6.521 1.904 13.799 1.904 20.322 0a36.176 36.176 0 0 0 6.167 8.204 36.207 36.207 0 0 0 8.202 6.165c-.952 3.261-1.439 6.67-1.439 10.161s.487 6.901 1.439 10.161z" />
    </svg>
    <svg xmlns="http://www.w3.org/2000/svg" viewBox="0 0 512 512" width="512" height="512" id="f">
      <path d="M320.033 382.135H191.967c-38.833 0-70.426 31.593-70.426 70.426v19.219c0 5.523 4.478 10 10 10h64.033c25.629 0 48.105-13.761 60.426-34.283 12.321 20.522 34.797 34.283 60.426 34.283h64.033c5.522 0 10-4.477 10-10v-19.219c0-38.833-31.593-70.426-70.426-70.426zm-124.459 79.644h-54.033v-9.219c0-27.805 22.621-50.426 50.426-50.426H246v9.219c0 27.805-22.621 50.426-50.426 50.426zm174.885 0h-54.033c-27.805 0-50.426-22.621-50.426-50.426v-9.219h54.033c27.805 0 50.426 22.621 50.426 50.426zM502 201.511H386.913v-40.377c0-72.186-58.728-130.913-130.913-130.913S125.087 88.948 125.087 161.134v40.377H10c-5.522 0-10 4.477-10 10v50.298c0 36.845 29.976 66.821 66.821 66.821h378.357c36.846 0 66.821-29.976 66.821-66.821v-50.298c.001-5.523-4.477-10-9.999-10zM256 50.221c60.326 0 109.558 48.412 110.885 108.425l-13.899 2.934-28.406-16.788a10.002 10.002 0 0 0-10.176 0l-26.663 15.759-26.663-15.759a10.004 10.004 0 0 0-10.176 0l-26.662 15.759-26.661-15.759a10.004 10.004 0 0 0-10.177 0l-28.396 16.787-13.891-2.932C146.441 98.634 195.674 50.221 256 50.221zm110.904 151.29H145.096c.009-7.745.02-15.957.033-22.419l13.553 2.86c2.445.515 5 .097 7.153-1.176l26.656-15.758 26.661 15.758a9.997 9.997 0 0 0 10.176 0l26.662-15.759 26.663 15.759a10.004 10.004 0 0 0 10.176 0l26.663-15.759 26.667 15.759a9.997 9.997 0 0 0 7.153 1.175l13.559-2.862c.014 6.472.025 14.682.033 22.422zM86.071 308.63l25.861-28.675 25.862 28.675zm96.693 0 25.86-28.675 25.86 28.675zm96.691 0 25.86-28.675 25.86 28.675zm94.752 0 25.862-28.675 25.861 28.675zM492 261.809c0 23.375-17.217 42.803-39.636 46.271l-44.87-49.752a9.999 9.999 0 0 0-14.852 0l-39.951 44.297-39.95-44.297a9.999 9.999 0 0 0-14.852 0l-40.92 45.372-40.92-45.372a9.999 9.999 0 0 0-14.852 0l-40.92 45.372-40.921-45.372a9.999 9.999 0 0 0-14.852 0l-44.87 49.752C37.217 304.611 20 285.183 20 261.809v-40.298h472z" />
      <path d="M187.02 123.84c3.592 2.393 8.434 2.186 11.798-.513 3.209-2.574 4.534-6.945 3.272-10.862-1.265-3.926-4.904-6.696-9.016-6.918-4.182-.226-8.131 2.296-9.734 6.154-1.827 4.393-.215 9.47 3.68 12.139zM310.189 119.35c1.589 3.811 5.49 6.344 9.63 6.171 4.154-.173 7.848-2.981 9.12-6.936 1.276-3.967-.105-8.465-3.428-10.996-3.33-2.536-7.973-2.722-11.495-.467-4.013 2.569-5.662 7.824-3.827 12.228zM246.77 119.35c1.579 3.788 5.437 6.317 9.556 6.174 4.132-.144 7.788-2.89 9.137-6.783 1.363-3.934.018-8.473-3.248-11.05-3.283-2.591-7.933-2.854-11.491-.656-4.107 2.536-5.81 7.861-3.954 12.315zM167.06 255.32c-1.636-3.927-5.692-6.456-9.945-6.147-4.153.301-7.742 3.237-8.894 7.232-1.152 3.998.392 8.459 3.788 10.871 3.372 2.395 7.923 2.464 11.372.185 3.943-2.607 5.461-7.794 3.679-12.141zM265.229 255.32c-1.634-3.921-5.693-6.455-9.941-6.147-4.15.301-7.753 3.239-8.898 7.234-1.147 4 .389 8.455 3.788 10.869 3.371 2.394 7.925 2.463 11.372.185 3.948-2.611 5.463-7.79 3.679-12.141zM363.399 255.32c-1.635-3.925-5.689-6.456-9.941-6.147-4.168.302-7.73 3.238-8.9 7.234-1.168 3.99.402 8.464 3.79 10.869 3.372 2.395 7.923 2.463 11.372.185 3.944-2.607 5.462-7.794 3.679-12.141zM443.109 262.97c1.577 3.849 5.559 6.383 9.72 6.166 4.141-.216 7.732-3.007 9.024-6.93 1.306-3.966-.131-8.452-3.427-10.989-3.348-2.578-8.121-2.721-11.636-.386-3.921 2.604-5.488 7.799-3.681 12.139zM68.89 255.32c-1.635-3.925-5.698-6.455-9.949-6.147-4.167.301-7.719 3.246-8.893 7.232-1.175 3.99.407 8.467 3.789 10.871 3.371 2.396 7.924 2.464 11.372.185 3.944-2.607 5.462-7.795 3.681-12.141z" />
    </svg>
    <svg xmlns="http://www.w3.org/2000/svg" viewBox="0 0 512 512" width="512" height="512" id="g">
      <path d="m495.583 333.841-79.33-274.238C406.101 24.51 373.34 0 336.583 0h-8.653c-2.395 0-4.71.859-6.524 2.422L256 58.734 190.594 2.422A9.998 9.998 0 0 0 184.069 0h-8.653c-36.756 0-69.517 24.51-79.669 59.604l-79.33 274.238a9.998 9.998 0 0 0-.394 2.916v41.838c0 5.523 4.478 10 10 10s10-4.477 10-10v-25.33l37.262 19.817v37.562c0 5.523 4.478 10 10 10s10-4.477 10-10V383.72l37.965 20.191v37.836c0 5.523 4.478 10 10 10s10-4.477 10-10v-27.199l37.966 20.191v37.609c0 5.523 4.478 10 10 10s10-4.477 10-10v-26.973L246 464.936V502c0 5.523 4.478 10 10 10s10-4.477 10-10v-37.064l36.784-19.563v26.973c0 5.523 4.478 10 10 10s10-4.477 10-10v-37.609l37.966-20.191v27.199c0 5.523 4.478 10 10 10s10-4.477 10-10v-37.836l37.965-20.191v26.925c0 5.523 4.478 10 10 10s10-4.477 10-10v-37.562l37.262-19.817v25.33c0 5.523 4.478 10 10 10s10-4.477 10-10v-41.838a10 10 0 0 0-.394-2.915zM74.605 204.663 246 295.814v59.839L59.604 256.522zm30.536-105.56 146.163 77.728a9.992 9.992 0 0 0 9.39 0l146.163-77.728 24.857 85.928L266 273.161v-53.055c0-5.523-4.478-10-10-10s-10 4.477-10 10v53.055l-165.716-88.13zM266 295.814l171.395-91.15 15.001 51.859L266 355.653zM175.416 20h4.941l69.118 59.508a9.999 9.999 0 0 0 13.049 0L331.642 20h4.941c27.904 0 52.766 18.571 60.457 45.161l4.14 14.31L256 156.676 110.82 79.471l4.14-14.31C122.651 38.571 147.512 20 175.416 20zM37.885 331.602l16.04-55.448L246 378.305v63.978zM266 442.283v-63.978l192.075-102.151 16.04 55.448z" />
    </svg>
    <svg xmlns="http://www.w3.org/2000/svg" viewBox="0 0 512 512" width="512" height="512" id="h">
      <path d="M108.215 320.036c8.631-21.483 1.68-44.176-15.824-51.663-7.358-3.147-15.772-3.077-23.69.199-10.249 4.24-18.811 13.352-23.49 24.998-8.631 21.483-1.68 44.176 15.824 51.663a28.863 28.863 0 0 0 11.384 2.311c4.094 0 8.265-.837 12.307-2.509 10.248-4.242 18.81-13.353 23.489-24.999zm-18.559-7.456c-2.646 6.586-7.348 11.81-12.578 13.974-2.055.849-5.141 1.59-8.179.291-7.048-3.015-9.445-15.079-5.131-25.818 2.646-6.586 7.348-11.81 12.578-13.974 1.251-.518 2.886-.995 4.659-.995a8.88 8.88 0 0 1 3.52.704c7.048 3.013 9.446 15.078 5.131 25.818zM104.85 392.781c-5.523 0-10 4.477-10 10v13.505c0 5.523 4.477 10 10 10s10-4.477 10-10v-13.505c0-5.523-4.477-10-10-10z" />
      <path d="M504.973 338.854c-.959-1.907-1.067-4.29-.295-6.535 4.595-13.368 6.668-33.35 6.649-46.258-.094-64.49-50.198-117.551-113.605-122.642v-40.457c22.611-4.636 39.668-24.673 39.668-48.615 0-24.584-35.287-63.6-42.361-71.172a9.998 9.998 0 0 0-14.615-.002c-7.074 7.572-42.361 46.588-42.361 71.172 0 23.942 17.058 43.979 39.668 48.615v40.459c-4.233.341-8.438.9-12.601 1.674.92-13.486-3.816-27.227-13.963-37.377-13.686-13.689-33.902-17.534-51.214-10.934-7.575-16.911-24.589-28.49-43.943-28.49s-36.368 11.579-43.942 28.491c-17.313-6.599-37.53-2.755-51.214 10.934-10.148 10.15-14.884 23.892-13.964 37.377a122.93 122.93 0 0 0-12.601-1.674v-40.459c22.611-4.636 39.668-24.673 39.668-48.615 0-24.584-35.288-63.6-42.361-71.172a9.997 9.997 0 0 0-14.614-.001c-7.074 7.572-42.361 46.588-42.361 71.172 0 23.942 17.057 43.979 39.668 48.615v40.457C50.872 168.509.767 221.57.673 286.061c-.019 12.908 2.054 32.89 6.648 46.256.772 2.247.665 4.629-.294 6.536C2.81 347.234.672 356.259.672 365.678c0 33.886 19.584 54.973 54.142 58.966v2.139c0 20.713 16.892 37.564 37.655 37.564h67.483c7.525 4.082 16.494 6.771 26.787 7.953v2.137c0 20.713 16.892 37.564 37.655 37.564h63.416c20.763 0 37.655-16.851 37.655-37.564v-2.14c10.248-1.184 19.178-3.872 26.672-7.95h67.394c20.763 0 37.655-16.851 37.655-37.564v-2.139c34.558-3.993 54.142-25.08 54.142-58.966 0-9.419-2.139-18.445-6.355-26.824zM358.053 74.345c0-10.479 15.571-32.748 29.668-49.303 14.097 16.556 29.668 38.825 29.668 49.303 0 12.833-8.214 23.787-19.668 27.894V82.295c0-5.523-4.477-10-10-10s-10 4.477-10 10v19.944c-11.454-4.107-19.668-15.06-19.668-27.894zm-192.09 120.644a9.999 9.999 0 0 0 6.646-16.044c-8.636-11.149-7.613-27.094 2.378-37.088 9.989-9.994 25.926-11.016 37.071-2.378a9.998 9.998 0 0 0 16.046-6.646c1.775-13.991 13.767-24.541 27.896-24.541s26.121 10.55 27.896 24.542a10.001 10.001 0 0 0 16.046 6.645c11.144-8.637 27.081-7.614 37.07 2.378 9.991 9.994 11.014 25.938 2.378 37.088a9.999 9.999 0 0 0 6.646 16.044c13.986 1.775 24.533 13.772 24.533 27.905 0 13.302-11.842 24.129-24.023 27.225-11.79-12.654-26.207-22.844-42.374-29.695a19.772 19.772 0 0 1 4.021-9.759 10 10 0 0 0-6.645-16.04c-4.42-.563-8.428-2.532-11.59-5.695-3.163-3.164-5.132-7.174-5.695-11.596a10 10 0 0 0-16.043-6.644c-3.523 2.729-7.749 4.17-12.221 4.17s-8.698-1.442-12.221-4.17a10 10 0 0 0-16.043 6.644c-.563 4.422-2.532 8.432-5.695 11.596-3.163 3.163-7.17 5.132-11.59 5.695a10 10 0 0 0-6.645 16.04 19.756 19.756 0 0 1 4.021 9.758c-16.157 6.847-30.566 17.028-42.352 29.671-12.206-3.132-24.046-13.939-24.046-27.201.002-14.132 10.549-26.129 24.535-27.904zm120.015 15.483a39.12 39.12 0 0 0-.992 3.625c-9.301-2.239-19.008-3.426-28.986-3.426s-19.684 1.187-28.985 3.426a39.502 39.502 0 0 0-.992-3.624 40.02 40.02 0 0 0 10.164-7.402 40.005 40.005 0 0 0 7.398-10.163c3.96 1.291 8.133 1.954 12.417 1.954s8.456-.663 12.417-1.954a40.027 40.027 0 0 0 7.398 10.164 39.968 39.968 0 0 0 10.161 7.4zM94.611 74.345c0-10.479 15.574-32.751 29.671-49.307 14.097 16.544 29.666 38.806 29.666 49.307 0 12.834-8.214 23.787-19.668 27.894V82.295c0-5.523-4.477-10-10-10s-10 4.477-10 10v19.944c-11.455-4.107-19.669-15.06-19.669-27.894zm-2.142 370.002c-9.735 0-17.655-7.879-17.655-17.564v-11.476a10 10 0 0 0-9.771-9.998c-44.372-1.019-44.372-30.082-44.372-39.631 0-6.269 1.421-12.27 4.222-17.837 3.364-6.688 3.854-14.715 1.342-22.024-3.636-10.576-5.58-28.361-5.563-39.727.083-56.834 46.56-103.072 103.606-103.072 5.549 0 11.06.44 16.49 1.314-11.798 8.841-19.34 22.94-19.34 38.563 0 11.819 5.02 23.323 14.136 32.391 4.827 4.802 10.641 8.697 16.884 11.41-12.647 19.294-20.02 42.319-20.056 67.02-.019 12.907 2.054 32.888 6.649 46.258.772 2.246.665 4.627-.295 6.535-4.216 8.381-6.354 17.406-6.354 26.825 0 12.01 2.469 22.412 7.199 31.016H92.469zm67.146 19.816.089.049c-.214-.016-.266-.032-.089-.049zm192.791.036.053-.029c.105.01.08.02-.053.029zm-37.171-11.237a10 10 0 0 0-9.771 9.998v11.476c0 9.685-7.92 17.564-17.655 17.564h-63.416c-9.735 0-17.655-7.879-17.655-17.564V462.96a10 10 0 0 0-9.771-9.998c-13.469-.309-22.868-3.178-29.428-7.295a10.041 10.041 0 0 0-.91-.591c-14.238-9.574-14.238-25.218-14.238-31.746 0-6.269 1.42-12.27 4.22-17.835 3.366-6.689 3.855-14.717 1.343-22.025-3.636-10.578-5.58-28.363-5.563-39.727.083-56.834 46.561-103.072 103.606-103.072 57.046 0 103.524 46.238 103.606 103.072.017 11.364-1.927 29.149-5.563 39.728-2.511 7.307-2.022 15.334 1.342 22.023l.001.002c2.8 5.566 4.221 11.567 4.221 17.835.003 9.55.003 38.614-44.369 39.631zm131.722-47.652a10 10 0 0 0-9.771 9.998v11.476c0 9.685-7.92 17.564-17.655 17.564h-47.1c4.715-8.604 7.176-19.005 7.176-31.016 0-9.42-2.139-18.445-6.356-26.825-.958-1.907-1.065-4.289-.294-6.534 4.595-13.37 6.668-33.351 6.649-46.257-.036-24.671-7.391-47.669-20.009-66.949a54.583 54.583 0 0 0 16.918-11.497c9.063-9.059 14.055-20.556 14.055-32.374 0-15.623-7.542-29.721-19.34-38.563 5.43-.874 10.94-1.314 16.49-1.314 57.046 0 103.524 46.238 103.606 103.072.017 11.365-1.927 29.151-5.563 39.728-2.511 7.308-2.021 15.335 1.343 22.024 2.801 5.567 4.221 11.568 4.222 17.836 0 9.549 0 38.612-44.371 39.631z" />
      <path d="M443.3 268.571c-7.918-3.276-16.332-3.347-23.69-.199-17.504 7.487-24.455 30.18-15.824 51.663 4.679 11.646 13.241 20.758 23.49 24.998 4.042 1.672 8.213 2.509 12.307 2.509 3.926 0 7.781-.77 11.384-2.311 17.504-7.487 24.455-30.18 15.824-51.663-4.681-11.645-13.242-20.756-23.491-24.997zm-.2 58.273c-3.039 1.299-6.124.559-8.179-.291-5.23-2.164-9.932-7.388-12.578-13.974-4.314-10.739-1.917-22.804 5.131-25.818a8.88 8.88 0 0 1 3.52-.704c1.773 0 3.408.477 4.659.995 5.23 2.164 9.932 7.388 12.578 13.974 4.314 10.739 1.917 22.803-5.131 25.818zM407.15 392.781c-5.523 0-10 4.477-10 10v13.505c0 5.523 4.477 10 10 10s10-4.477 10-10v-13.505c0-5.523-4.477-10-10-10zM311.579 316.224c-7.918-3.276-16.331-3.346-23.69-.199-17.504 7.487-24.455 30.181-15.824 51.664 4.679 11.646 13.24 20.757 23.489 24.998 4.042 1.673 8.213 2.51 12.308 2.51 3.925 0 7.781-.77 11.383-2.311 17.504-7.487 24.455-30.18 15.824-51.664-4.679-11.646-13.241-20.757-23.49-24.998zm-.2 58.273c-3.038 1.299-6.125.559-8.18-.291-5.229-2.164-9.932-7.387-12.577-13.973-4.314-10.739-1.917-22.804 5.131-25.819a8.875 8.875 0 0 1 3.519-.704c1.773 0 3.409.477 4.66.995 5.23 2.164 9.932 7.387 12.578 13.973 4.315 10.739 1.917 22.804-5.131 25.819zM239.936 367.689c8.63-21.483 1.68-44.176-15.824-51.664-7.359-3.147-15.772-3.076-23.69.199-10.249 4.241-18.811 13.352-23.49 24.998-8.631 21.483-1.68 44.177 15.824 51.664a28.862 28.862 0 0 0 11.383 2.311c4.094 0 8.266-.837 12.308-2.51 10.249-4.241 18.81-13.353 23.489-24.998zm-18.559-7.456c-2.646 6.586-7.348 11.809-12.577 13.973-2.056.85-5.142 1.59-8.18.291-7.048-3.015-9.446-15.08-5.131-25.819 2.646-6.586 7.348-11.81 12.578-13.973 2.055-.85 5.142-1.591 8.179-.291 7.048 3.015 9.446 15.08 5.131 25.819zM236.571 440.435c-5.523 0-10 4.477-10 10v13.504c0 5.523 4.477 10 10 10s10-4.477 10-10v-13.504c0-5.523-4.477-10-10-10zM275.429 440.435c-5.523 0-10 4.477-10 10v13.504c0 5.523 4.477 10 10 10s10-4.477 10-10v-13.504c0-5.523-4.477-10-10-10zM266 397.14c0-5.523-4.477-10-10-10s-10 4.477-10 10v11.701c0 5.523 4.477 10 10 10s10-4.477 10-10zM246.77 305.34c1.578 3.849 5.558 6.384 9.719 6.166 4.129-.216 7.745-3.006 9.024-6.93 1.294-3.969-.127-8.447-3.427-10.989-3.353-2.583-8.118-2.733-11.636-.386-3.916 2.61-5.489 7.797-3.68 12.139zM288.84 286.09c1.579 3.852 5.571 6.384 9.729 6.166 4.239-.222 7.947-3.163 9.116-7.243 1.152-4.018-.389-8.434-3.784-10.874-3.298-2.37-7.805-2.451-11.221-.277-4.024 2.562-5.675 7.824-3.84 12.228zM204.69 286.09c1.578 3.849 5.559 6.383 9.719 6.166 4.117-.215 7.766-3.005 9.031-6.93 1.283-3.984-.122-8.438-3.434-10.989-3.349-2.58-8.121-2.731-11.637-.386-3.915 2.609-5.488 7.797-3.679 12.139z" />
    </svg>
    <svg xmlns="http://www.w3.org/2000/svg" viewBox="0 0 512 512" width="512" height="512" id="i">
      <path d="M382.081 129.773c-16.723-16.858-38.996-26.142-62.714-26.142s-45.991 9.284-62.714 26.142c-34.519 34.796-34.519 91.413 0 126.209 16.724 16.857 38.996 26.142 62.714 26.142s45.991-9.284 62.714-26.142c34.519-34.796 34.519-91.413 0-126.209zm-14.199 112.124c-12.94 13.043-30.17 20.227-48.516 20.228-18.346 0-35.576-7.184-48.516-20.228-26.813-27.029-26.813-71.009 0-98.039 12.94-13.043 30.169-20.227 48.516-20.227s35.576 7.184 48.516 20.228c26.814 27.029 26.814 71.009 0 98.038z" />
      <path d="M454.76 329.224c74.577-75.188 74.574-197.519-.011-272.703C418.592 20.073 370.512 0 319.367 0c-51.146 0-99.225 20.073-135.382 56.521l-.303.308c-.07.067-.14.135-.208.204l-90.239 91.114c-5.438-3.136-11.62-4.807-18.059-4.807-9.737 0-18.887 3.818-25.764 10.751-7.301 7.359-10.833 17.101-10.596 26.766a38.804 38.804 0 0 0-1.133-.018c-9.737 0-18.887 3.818-25.764 10.75-14.144 14.257-14.145 37.457 0 51.715 6.877 6.932 16.027 10.75 25.764 10.75 9.736 0 18.886-3.818 25.763-10.75 7.301-7.36 10.833-17.101 10.597-26.766.377.012.754.018 1.133.018 9.736 0 18.886-3.818 25.763-10.751 11.614-11.707 13.691-29.444 6.232-43.308l30.779-31.078c-16.904 50.946-12.171 107.648 14.201 155.371L33.926 406.072c-20.387 20.55-20.387 53.988 0 74.538 9.901 9.981 23.071 15.478 37.084 15.478 14.012 0 27.184-5.497 37.088-15.48l118.089-119.145c28.164 15.86 60.028 24.294 93.18 24.294 21.122 0 41.722-3.425 61.177-10.013l-29.821 30.112c-5.336-2.984-11.368-4.57-17.643-4.57-9.737 0-18.887 3.818-25.764 10.751-7.301 7.359-10.833 17.101-10.597 26.766a38.804 38.804 0 0 0-1.133-.018c-9.737 0-18.887 3.818-25.764 10.75-14.144 14.257-14.145 37.457 0 51.715 6.877 6.932 16.027 10.75 25.764 10.75s18.886-3.818 25.764-10.75c7.301-7.36 10.833-17.101 10.597-26.766.377.011.754.018 1.133.018 9.737 0 18.887-3.818 25.764-10.751 11.733-11.827 13.733-29.806 6-43.731l89.912-90.791.004-.005zM49.246 229.219c-3.094 3.119-7.201 4.836-11.565 4.836s-8.472-1.717-11.565-4.835c-6.439-6.491-6.439-17.053 0-23.544 3.093-3.118 7.201-4.836 11.565-4.836s8.471 1.718 11.565 4.836c6.439 6.491 6.439 17.052 0 23.543zm37.493-37.499c-3.094 3.118-7.201 4.836-11.565 4.836s-8.472-1.718-11.565-4.836c-6.439-6.491-6.439-17.053 0-23.544 3.093-3.118 7.201-4.836 11.565-4.836s8.471 1.718 11.565 4.836c6.439 6.491 6.439 17.053 0 23.544zm118.628 130.273 22.156-22.334c22.985 20.127 51.462 32.011 81.844 34.153v31.656c-38.738-2.233-75.053-17.413-104-43.475zm-57.061-119.115h31.243c2.07 29.664 13.364 58.791 33.883 82.588l-22.143 22.32c-26.506-30.01-40.834-67.169-42.983-104.908zm342.122-20h-31.243c-2.07-29.664-13.364-58.791-33.883-82.587l22.143-22.321c26.507 30.009 40.834 67.169 42.983 104.908zm-42.983 124.908-22.143-22.321c20.519-23.797 31.813-52.923 33.883-82.587h31.243c-2.149 37.739-16.477 74.898-42.983 104.908zm-128.079 6.378c-32.102 0-62.286-12.606-84.993-35.495-46.928-47.305-46.928-124.276 0-171.581 22.707-22.889 52.892-35.495 84.993-35.495 32.103 0 62.287 12.606 84.995 35.495 46.927 47.305 46.927 124.276 0 171.581-22.708 22.889-52.892 35.495-84.995 35.495zm91.845-228.067c-22.986-20.127-51.463-32.011-81.844-34.153V20.288c38.738 2.232 75.054 17.412 104.001 43.474zM309.367 51.944c-30.382 2.142-58.859 14.025-81.844 34.153l-22.157-22.335C234.313 37.7 270.629 22.52 309.367 20.288zm-95.935 48.346c-20.519 23.797-31.813 52.923-33.883 82.588h-31.243c2.149-37.739 16.477-74.899 42.983-104.908zm115.935 233.522c30.38-2.142 58.859-14.026 81.844-34.153l22.156 22.334c-28.947 26.062-65.263 41.242-104.001 43.474v-31.655zM93.897 466.524c-6.118 6.167-14.246 9.563-22.887 9.563s-16.768-3.396-22.886-9.562c-12.681-12.784-12.682-33.584.003-46.371l42.297-42.676 46.068 46.068zm56.676-57.183-46.068-46.068 58.534-59.057a192.968 192.968 0 0 0 20.946 25.019 194.132 194.132 0 0 0 24.937 21.236zm156.579 77.823c-3.094 3.119-7.201 4.836-11.565 4.836s-8.472-1.717-11.565-4.835c-6.439-6.491-6.439-17.053 0-23.544 3.094-3.118 7.201-4.836 11.565-4.836s8.472 1.718 11.565 4.836c6.439 6.491 6.439 17.052 0 23.543zm37.494-37.498c-3.094 3.118-7.201 4.836-11.565 4.836s-8.472-1.718-11.565-4.836c-6.439-6.491-6.439-17.053 0-23.544 3.094-3.118 7.201-4.836 11.565-4.836s8.472 1.718 11.565 4.836c6.439 6.491 6.439 17.052 0 23.544z" />
    </svg>
    <svg xmlns="http://www.w3.org/2000/svg" viewBox="0 0 512 512" width="512" height="512" id="j">
      <path d="M149.9 350.812c3.606 2.357 8.374 2.195 11.771-.481 3.19-2.513 4.528-6.854 3.349-10.732-1.211-3.983-4.869-6.862-9.029-7.088-4.302-.233-8.378 2.435-9.891 6.467-1.612 4.295-.019 9.286 3.8 11.834zM250.45 350.812c3.488 2.321 8.133 2.193 11.504-.282 3.355-2.463 4.828-6.956 3.61-10.931-1.22-3.981-4.864-6.861-9.03-7.088-4.303-.234-8.37 2.437-9.883 6.467-1.606 4.276-.046 9.314 3.799 11.834zM347.31 346.322c1.616 3.946 5.764 6.498 10.02 6.147 4.183-.345 7.778-3.329 8.87-7.381 1.087-4.035-.538-8.475-4-10.829-3.299-2.244-7.71-2.321-11.071-.164-4.011 2.573-5.652 7.83-3.819 12.227z" />
      <path d="M502 217.907h-53.377L293.05 111.261c-25.319-17.357-59.041-16.931-83.912 1.065L63.206 217.907H10c-5.523 0-10 4.478-10 10v53.302c0 5.522 4.477 10 10 10h20.976l19.085 113.913a10.002 10.002 0 0 0 9.863 8.348h392.153a10 10 0 0 0 9.863-8.348l19.085-113.913H502c5.523 0 10-4.478 10-10v-53.302c0-5.523-4.477-10-10-10zM220.862 128.53c18.045-13.055 42.511-13.364 60.88-.772l131.509 90.149H97.326zM82.203 393.469l26.333-29.912 26.955 29.912zm98.233 0 27.042-30.009 27.042 30.009zm99.03 0 27.042-30.009 27.042 30.009zm97.044 0 26.955-29.912 26.333 29.912zm69.154-12.243-34.606-39.311a10 10 0 0 0-7.448-3.393 10.014 10.014 0 0 0-7.487 3.306L355.03 387.43l-41.093-45.602a10.001 10.001 0 0 0-14.858 0l-42.086 46.704-42.086-46.704a10.001 10.001 0 0 0-14.858 0l-42.086 46.704-42.086-46.704a10.004 10.004 0 0 0-7.429-3.306h-.058a10.002 10.002 0 0 0-7.448 3.393l-34.606 39.311-15.081-90.017h409.49zM492 271.209H20v-33.302h43.046a9.986 9.986 0 0 0 2.832.409h380.243c.977 0 1.929-.142 2.833-.409H492z" />
      <path d="M257.04 152.091c-1.663-3.99-5.809-6.525-10.128-6.134-4.136.374-7.682 3.363-8.762 7.369-1.07 3.97.497 8.326 3.838 10.718 3.397 2.431 8.071 2.468 11.507.094 3.826-2.642 5.331-7.755 3.545-12.047zM308.93 182.702c-.849-4.116-4.223-7.331-8.389-7.936-4.113-.597-8.274 1.526-10.232 5.184-1.949 3.642-1.416 8.22 1.31 11.323 2.79 3.175 7.44 4.235 11.334 2.621 4.348-1.803 6.903-6.569 5.977-11.192zM213.26 181.012c-1.637-3.996-5.828-6.524-10.127-6.135-4.253.385-7.866 3.534-8.843 7.685-.93 3.95.728 8.186 4.054 10.495 3.361 2.333 7.918 2.33 11.301.044 3.876-2.62 5.415-7.772 3.615-12.089z" />
    </svg>
    <svg xmlns="http://www.w3.org/2000/svg" viewBox="0 0 512 512" width="512" height="512" id="k">
      <path d="M256 220.559c-63.94 0-115.96 51.726-115.96 115.305S192.06 451.17 256 451.17s115.96-51.726 115.96-115.306S319.94 220.559 256 220.559zm0 210.611c-52.912 0-95.96-42.754-95.96-95.306 0-52.551 43.048-95.305 95.96-95.305s95.96 42.754 95.96 95.305c0 52.552-43.048 95.306-95.96 95.306z" />
      <path d="M256 286.349c-27.438 0-49.762 22.212-49.762 49.516S228.562 385.38 256 385.38s49.762-22.213 49.762-49.516-22.324-49.515-49.762-49.515zm0 79.031c-16.411 0-29.762-13.241-29.762-29.516s13.351-29.516 29.762-29.516c12.873 0 23.863 8.147 28.003 19.516h-9.357c-5.522 0-10 4.477-10 10s4.478 10 10 10h9.357c-4.14 11.369-15.13 19.516-28.003 19.516z" />
      <path d="M371.525 202.32v-43.843c0-59.992-46.488-109.39-105.525-114.447V10c0-5.523-4.478-10-10-10s-10 4.477-10 10v34.031c-59.037 5.057-105.525 54.455-105.525 114.447v43.843c-39.237 33.553-61.643 81.951-61.643 133.544C78.832 432.986 158.31 512 256 512s177.168-79.014 177.168-176.136c0-51.593-22.405-99.991-61.643-133.544zM256 492c-86.663 0-157.168-70.042-157.168-156.136 0-47.134 21.117-91.269 57.937-121.086a10 10 0 0 0 3.706-7.771v-48.53c0-52.313 42.853-94.874 95.525-94.874s95.525 42.56 95.525 94.874v48.53a10 10 0 0 0 3.706 7.771c36.819 29.817 57.937 73.952 57.937 121.086C413.168 421.958 342.663 492 256 492z" />
      <path d="M256 108.782c27.648 0 50.142 22.293 50.142 49.695 0 5.523 4.478 10 10 10s10-4.477 10-10c0-38.43-31.466-69.695-70.142-69.695-5.522 0-10 4.477-10 10s4.478 10 10 10z" />
    </svg>
    <svg xmlns="http://www.w3.org/2000/svg" viewBox="0 0 512 512" width="512" height="512" id="l">
      <path d="M97.697 102.5C70.13 124.318 54.32 156.938 54.32 191.993c0 5.522 4.477 10 10 10s10-4.478 10-10c0-28.906 13.044-55.81 35.789-73.812 4.331-3.428 5.062-9.717 1.635-14.047-3.428-4.33-9.717-5.063-14.047-1.634zM328.137 213.731c-67.527 0-122.464 54.773-122.464 122.099s54.938 122.1 122.464 122.1 122.464-54.773 122.464-122.1c0-67.325-54.937-122.099-122.464-122.099zm0 224.199c-56.499 0-102.464-45.802-102.464-102.1s45.965-102.099 102.464-102.099 102.464 45.801 102.464 102.099-45.965 102.1-102.464 102.1z" />
      <path d="M357.82 162.147c-10.795-60.393-52.39-110.893-110.158-133.188C231.87 10.959 208.741 0 183.863 0c-24.877 0-48.007 10.96-63.798 28.96-32.516 12.545-60.344 34.201-80.584 62.738-21.15 29.82-32.329 64.952-32.329 101.597 0 86.104 62.7 159.488 147.041 173.696C168.993 449.321 241.361 512 328.137 512c97.439 0 176.711-79.029 176.711-176.17 0-87.059-63.672-159.57-147.028-173.683zM183.863 20c27.197 0 51.657 17.13 60.865 42.625l.085.236c-8.452.55-19.433.268-28.624-2.881a10.002 10.002 0 0 0-11.896 4.453c-5.668 9.799-14.679 17.896-20.43 22.455-5.755-4.562-14.764-12.658-20.431-22.455a10 10 0 0 0-11.896-4.453c-9.567 3.278-20.552 3.427-28.62 2.87l.082-.226C132.207 37.13 156.666 20 183.863 20zM27.152 193.295c0-55.049 29.488-105.731 75.667-133.674l-2.952 8.173a10.002 10.002 0 0 0 7.333 13.18c1.006.213 22.365 4.62 43.198.047 11.449 15.821 27.276 26.176 28.03 26.664 1.653 1.07 3.543 1.605 5.434 1.605s3.781-.535 5.434-1.605c.754-.488 16.581-10.842 28.03-26.664 20.833 4.576 42.192.165 43.198-.047a10.002 10.002 0 0 0 7.333-13.18l-2.978-8.245c36.696 22.041 62.915 58.219 72.102 100.33-2.931-.145-5.88-.219-8.847-.219-97.439 0-176.711 79.029-176.711 176.17 0 3.474.102 6.925.302 10.351C79.89 331.282 27.152 267.637 27.152 193.295zM328.137 492c-86.411 0-156.711-70.058-156.711-156.17s70.3-156.17 156.711-156.17 156.711 70.058 156.711 156.17S414.547 492 328.137 492z" />
      <path d="M328.137 278.587c-5.523 0-10 4.478-10 10v11.622c0 5.522 4.477 10 10 10s10-4.478 10-10v-11.622c0-5.523-4.477-10-10-10zM293.916 341.574c4.266 0 8.219-2.753 9.548-7.041 1.636-5.275-1.314-10.878-6.589-12.514l-12.591-3.904c-5.277-1.632-10.878 1.315-12.513 6.59-1.636 5.275 1.314 10.878 6.59 12.514l12.591 3.904a9.984 9.984 0 0 0 2.964.451zM371.99 318.115l-12.591 3.904c-5.275 1.636-8.225 7.238-6.589 12.514 1.33 4.289 5.282 7.041 9.548 7.041.981 0 1.979-.146 2.964-.451l12.591-3.904c5.275-1.636 8.226-7.238 6.59-12.514-1.635-5.274-7.237-8.226-12.513-6.59zM299.599 362.718l-10.184 9.986c-3.943 3.866-4.005 10.198-.138 14.142a9.968 9.968 0 0 0 7.14 2.998 9.97 9.97 0 0 0 7.001-2.86l10.184-9.986c3.943-3.866 4.005-10.198.138-14.142-3.866-3.943-10.198-4.003-14.141-.138zM356.674 362.718c-3.944-3.868-10.275-3.805-14.141.138-3.867 3.943-3.805 10.275.138 14.142l10.184 9.986a9.966 9.966 0 0 0 7.001 2.86 9.972 9.972 0 0 0 7.14-2.998c3.867-3.943 3.805-10.275-.138-14.142z" />
    </svg>
    <svg xmlns="http://www.w3.org/2000/svg" viewBox="0 0 512 512" width="512" height="512" id="m">
      <path d="M413.219 325.654c15.839-6.752 22.172-27.11 14.418-46.346-4.179-10.368-11.844-18.494-21.029-22.295-7.19-2.977-14.848-3.041-21.557-.181-15.839 6.752-22.172 27.11-14.418 46.346 4.179 10.368 11.844 18.494 21.029 22.295 3.671 1.52 7.463 2.28 11.188 2.28 3.573 0 7.085-.699 10.369-2.099zm-24.036-29.952c-3.829-9.499-1.117-18.413 3.712-20.471a6.417 6.417 0 0 1 2.541-.509c1.104 0 2.283.257 3.525.771 4.189 1.734 7.976 5.955 10.126 11.292 3.829 9.499 1.117 18.413-3.712 20.471-1.773.757-3.814.669-6.066-.262-4.19-1.735-7.976-5.956-10.126-11.292zM345.327 303.178c7.754-19.236 1.421-39.593-14.418-46.346-6.71-2.859-14.364-2.796-21.557.181-9.186 3.801-16.851 11.927-21.029 22.295-7.754 19.236-1.421 39.593 14.418 46.346a26.365 26.365 0 0 0 10.368 2.099c3.725 0 7.518-.761 11.188-2.28 9.186-3.801 16.851-11.927 21.03-22.295zm-18.55-7.476c-2.15 5.336-5.937 9.558-10.126 11.292-2.251.931-4.293 1.02-6.066.262-4.829-2.058-7.541-10.972-3.712-20.471 2.15-5.336 5.937-9.558 10.126-11.292 1.242-.514 2.421-.771 3.525-.771a6.4 6.4 0 0 1 2.541.509c4.83 2.058 7.541 10.972 3.712 20.471zM337.044 364.01c-5.522 0-10 4.477-10 10v11.646c0 5.523 4.478 10 10 10s10-4.477 10-10V374.01c0-5.523-4.478-10-10-10zM378.916 364.01c-5.522 0-10 4.477-10 10v11.646c0 5.523 4.478 10 10 10s10-4.477 10-10V374.01c0-5.523-4.478-10-10-10zM357.98 323.192c-5.522 0-10 4.477-10 10v10.09c0 5.523 4.478 10 10 10s10-4.477 10-10v-10.09c0-5.523-4.477-10-10-10z" />
      <path d="M502 416.702h-75.206a33.448 33.448 0 0 0 2.95-13.77v-9.003c24.251-4.018 36.529-21.438 36.529-51.915 0-8.343-1.9-16.338-5.647-23.763-.661-1.31-.728-2.968-.183-4.55 4.029-11.682 5.846-29.104 5.829-40.347-.039-27.11-10.4-53.141-29.174-73.297a10 10 0 0 0-7.317-3.185h-31.973c6.182-8.274 9.846-18.53 9.846-29.626 0-24.584-35.292-63.601-42.367-71.172a10 10 0 0 0-14.614 0c-7.075 7.572-42.368 46.588-42.368 71.172 0 11.096 3.664 21.352 9.847 29.626h-31.974a9.998 9.998 0 0 0-7.317 3.184c-18.774 20.156-29.136 46.187-29.175 73.297-.017 11.245 1.801 28.667 5.83 40.35.545 1.581.479 3.237-.183 4.547-3.747 7.424-5.647 15.419-5.647 23.763 0 30.491 12.336 47.913 36.707 51.92v8.998c0 4.902 1.055 9.562 2.95 13.77h-83.947V306.764c5.85-5.885 9.469-13.982 9.469-22.905v-86.846c0-5.523-4.478-10-10-10H138.42v-18.396c31.446-4.811 55.605-31.945 55.605-64.594 0-33.556-52.342-90.354-58.311-96.72a9.997 9.997 0 0 0-14.59 0c-5.969 6.366-58.312 63.164-58.312 96.72 0 32.649 24.16 59.783 55.606 64.594v18.396H45.959c-5.522 0-10 4.477-10 10v52.569c0 5.345 4.193 9.71 9.469 9.986v157.133H10c-5.522 0-10 4.477-10 10v13.583c0 37.259 30.312 67.572 67.572 67.572h376.855c37.26 0 67.572-30.313 67.572-67.572v-13.583c.001-5.522-4.477-9.999-9.999-9.999zM82.813 104.024c0-17.184 25.558-52.078 45.606-74.973 20.049 22.895 45.605 57.79 45.605 74.973 0 21.592-15.253 39.707-35.605 44.252v-35.784c0-5.523-4.478-10-10-10s-10 4.477-10 10v35.784c-20.353-4.545-35.606-22.66-35.606-44.252zm275.167 13.918c14.1 16.556 29.674 38.826 29.674 49.305 0 12.834-8.217 23.788-19.674 27.894v-19.944c0-5.523-4.478-10-10-10s-10 4.477-10 10v19.944c-11.458-4.106-19.675-15.06-19.675-27.895.001-10.477 15.576-32.748 29.675-49.304zm-51.586 284.99v-18.12a10 10 0 0 0-9.771-9.998c-13.629-.312-26.936-3.101-26.936-32.8 0-5.185 1.178-10.148 3.5-14.748 3.083-6.104 3.533-13.423 1.236-20.083-3.096-8.976-4.751-24.113-4.736-33.799.03-20.649 7.449-40.555 20.979-56.511h134.628c13.528 15.956 20.948 35.863 20.979 56.511.015 9.685-1.641 24.822-4.736 33.798l-.001.002c-2.295 6.658-1.845 13.976 1.236 20.078a32.451 32.451 0 0 1 3.502 14.751c0 29.703-13.219 32.491-26.758 32.8a10 10 0 0 0-9.771 9.998v18.12c0 7.593-6.248 13.77-13.928 13.77H320.32c-7.679.001-13.926-6.177-13.926-13.769zM55.959 207.013h138.906v76.846c0 6.918-5.662 12.546-12.622 12.546s-12.622-5.628-12.622-12.546v-16.748c0-5.523-4.478-10-10-10s-10 4.477-10 10c0 6.918-5.663 12.546-12.623 12.546s-12.622-5.628-12.622-12.546v-17.529c0-5.523-4.478-10-10-10H55.959zm9.469 52.57h38.948v7.529c0 17.946 14.635 32.546 32.623 32.546a32.477 32.477 0 0 0 14.983-3.64c4.837 11.941 16.579 20.388 30.261 20.388 1.064 0 2.115-.052 3.153-.151v100.448H65.428zM492 440.284c0 26.231-21.341 47.572-47.572 47.572H67.572c-26.231 0-47.572-21.34-47.572-47.572v-3.583h472z" />
    </svg>
    <svg xmlns="http://www.w3.org/2000/svg" viewBox="0 0 512 512" width="512" height="512" id="n">
      <path d="M339.443 328.344c-1.853-3.684-2.084-8.217-.633-12.437 6.342-18.446 9.201-46.123 9.175-64.031-.036-25.449-5.923-50.756-17.078-73.647 6.846-8.85 8.918-20.364 5.983-30.835 10.721-6.024 17.854-17.521 17.854-30.46s-7.134-24.435-17.855-30.46c3.321-11.84.236-25.013-8.912-34.163-9.151-9.15-22.327-12.234-34.164-8.913-6.024-10.721-17.521-17.854-30.46-17.854a34.964 34.964 0 0 0-23.845 9.382 38.57 38.57 0 0 0-28.153-2.075c-6.459-12.31-19.385-20.577-33.982-20.577S149.85 20.54 143.391 32.85a38.564 38.564 0 0 0-28.05 2.024c-6.273-5.957-14.717-9.331-23.948-9.331-12.939 0-24.436 7.133-30.46 17.854-11.841-3.318-25.014-.236-34.164 8.913-9.149 9.149-12.234 22.323-8.913 34.164C7.133 92.5 0 103.996 0 116.935c0 12.938 7.135 24.435 17.854 30.46-2.937 10.47-.864 21.983 5.981 30.833C12.68 201.12 6.793 226.43 6.757 251.875c-.026 17.909 2.833 45.586 9.176 64.033 1.451 4.22 1.221 8.751-.634 12.435-5.668 11.264-8.542 23.395-8.542 36.057 0 37.962 18.091 57.059 33.268 66.395 11.839 7.282 26.461 11.713 43.566 13.215v6.756c0 26.996 22.025 48.959 49.098 48.959h89.656c27.072 0 49.098-21.963 49.098-48.959v-6.757c17.068-1.504 31.646-5.938 43.439-13.225 15.103-9.333 33.105-28.425 33.105-66.384-.001-12.664-2.876-24.796-8.544-36.056zm-61.303-269.8a10.001 10.001 0 0 0 16.046 6.646c5.905-4.576 14.353-4.031 19.648 1.264 5.296 5.296 5.839 13.743 1.264 19.648a10.001 10.001 0 0 0 6.646 16.045c7.411.941 13 7.298 13 14.788s-5.589 13.847-13 14.788a10 10 0 0 0-6.646 16.045c4.575 5.905 4.032 14.352-1.264 19.648s-13.743 5.839-19.648 1.265a10.001 10.001 0 0 0-16.046 6.646c-.939 7.411-7.297 13-14.787 13-4.15 0-7.856-1.509-10.512-4.132 8.003-10.068 10.292-23.387 6.571-35.321 12.311-6.459 20.577-19.385 20.577-33.981s-8.267-27.523-20.577-33.982c3.406-10.923 1.776-23.007-4.662-32.696 2.445-1.719 5.417-2.67 8.602-2.67 7.491-.001 13.848 5.588 14.788 12.999zm-135.009-3.625a10.001 10.001 0 0 0 16.046-6.647c1.157-9.12 8.979-15.998 18.195-15.998s17.038 6.878 18.195 15.998a10.001 10.001 0 0 0 16.046 6.646c7.266-5.629 17.662-4.963 24.178 1.554 6.517 6.516 7.185 16.91 1.554 24.178a10.001 10.001 0 0 0 6.646 16.045c9.12 1.157 15.998 8.98 15.998 18.195s-6.878 17.037-15.998 18.195a10 10 0 0 0-6.646 16.045c5.631 7.268 4.963 17.662-1.554 24.178-6.518 6.517-16.911 7.184-24.178 1.554a10.004 10.004 0 0 0-9.952-1.334 10.003 10.003 0 0 0-6.094 7.98c-1.157 9.12-8.979 15.998-18.195 15.998s-17.038-6.877-18.195-15.998a10.001 10.001 0 0 0-16.046-6.646c-7.269 5.631-17.662 4.962-24.178-1.555-6.517-6.516-7.185-16.91-1.554-24.178a10.001 10.001 0 0 0-6.646-16.045c-9.12-1.157-15.998-8.979-15.998-18.195s6.878-17.038 15.998-18.195a10 10 0 0 0 6.646-16.045c-5.631-7.268-4.963-17.662 1.554-24.178 6.516-6.514 16.911-7.183 24.178-1.552zM32.999 102.147a9.998 9.998 0 0 0 6.646-16.045c-4.575-5.905-4.032-14.352 1.265-19.648 5.296-5.296 13.743-5.84 19.648-1.264a10.002 10.002 0 0 0 16.046-6.647c.939-7.411 7.297-13 14.787-13 3.337 0 6.284.89 8.667 2.572-6.491 9.706-8.143 21.833-4.727 32.793-12.311 6.458-20.577 19.385-20.577 33.982s8.267 27.523 20.577 33.981c-3.716 11.92-1.437 25.221 6.543 35.285-2.68 2.648-6.372 4.168-10.483 4.168-7.49 0-13.848-5.588-14.787-12.999a10 10 0 0 0-16.045-6.647c-5.906 4.575-14.354 4.031-19.649-1.265-5.297-5.296-5.84-13.743-1.265-19.648a9.999 9.999 0 0 0-6.646-16.045C25.588 130.782 20 124.425 20 116.935s5.589-13.847 12.999-14.788zm228.214 322.401a10 10 0 0 0-9.771 9.998v16.22c0 15.968-13.053 28.959-29.098 28.959h-89.656c-16.045 0-29.098-12.991-29.098-28.959v-16.22a10 10 0 0 0-9.771-9.998c-44.5-1.02-67.063-21.257-67.063-60.148 0-9.511 2.155-18.618 6.406-27.065 4.263-8.466 4.875-18.647 1.683-27.931-5.344-15.541-8.114-40.689-8.089-57.5.031-21.326 4.725-42.546 13.643-61.929a35.137 35.137 0 0 0 20.532.495c6.024 10.721 17.521 17.854 30.46 17.854 10.547 0 20.193-4.593 26.657-12.25a38.569 38.569 0 0 0 25.341.855c6.459 12.311 19.386 20.577 33.982 20.577 14.598 0 27.523-8.266 33.982-20.577a38.565 38.565 0 0 0 25.299-.839c6.427 7.644 16.099 12.234 26.699 12.234 12.939 0 24.436-7.133 30.46-17.854a35.126 35.126 0 0 0 20.531-.494c8.917 19.382 13.612 40.6 13.642 61.929.025 16.81-2.745 41.958-8.089 57.499-3.191 9.283-2.578 19.462 1.682 27.929 4.252 8.448 6.408 17.554 6.409 27.066.001 38.896-22.465 59.133-66.773 60.149z" />
      <path d="M257.007 225.228c-11.231-4.646-23.109-4.77-33.446-.351-12.442 5.32-21.5 16.406-25.506 31.215-3.754 13.876-2.593 29.553 3.27 44.141 6.932 17.249 19.514 30.702 34.521 36.911 5.763 2.384 11.695 3.578 17.503 3.578 5.512 0 10.91-1.075 15.943-3.227 12.442-5.32 21.501-16.406 25.507-31.214 3.754-13.876 2.593-29.553-3.271-44.142-6.932-17.248-19.514-30.702-34.521-36.911zm4.421 93.877c-6.859 2.933-13.538 1.378-17.937-.442-9.918-4.104-18.744-13.782-23.609-25.888-8.285-20.618-3-43.291 11.542-49.509a20.358 20.358 0 0 1 8.072-1.635c3.802 0 7.239.991 9.864 2.077 9.918 4.104 18.744 13.782 23.61 25.889 8.286 20.618 3.001 43.29-11.542 49.508zM153.419 300.233c5.863-14.589 7.024-30.265 3.271-44.142-4.006-14.809-13.064-25.894-25.507-31.214-10.336-4.42-22.215-4.296-33.445.351-15.008 6.209-27.59 19.663-34.521 36.912h.001c-5.863 14.588-7.024 30.265-3.271 44.142 4.006 14.809 13.063 25.894 25.506 31.214 5.034 2.152 10.432 3.227 15.943 3.227 5.808 0 11.741-1.194 17.503-3.578 15.006-6.21 27.588-19.664 34.52-36.912zm-42.167 18.431c-4.399 1.82-11.082 3.374-17.937.442-14.542-6.218-19.827-28.89-11.542-49.508h.001c4.864-12.106 13.69-21.784 23.609-25.888 2.624-1.086 6.062-2.077 9.864-2.077 2.569 0 5.307.453 8.071 1.635 14.543 6.218 19.828 28.891 11.543 49.509-4.865 12.105-13.691 21.783-23.609 25.887zM135.803 406.842c-5.522 0-10 4.477-10 10v19.087c0 5.523 4.478 10 10 10s10-4.477 10-10v-19.087c0-5.523-4.478-10-10-10zM177.372 406.842c-5.522 0-10 4.477-10 10v19.087c0 5.523 4.478 10 10 10s10-4.477 10-10v-19.087c0-5.523-4.477-10-10-10zM218.94 406.842c-5.522 0-10 4.477-10 10v19.087c0 5.523 4.478 10 10 10s10-4.477 10-10v-19.087c0-5.523-4.477-10-10-10zM199.3 337.354c-3.512-9.138-12.119-15.042-21.928-15.042s-18.416 5.905-21.928 15.042l-7.365 19.161a23.386 23.386 0 0 0 2.557 21.641 23.492 23.492 0 0 0 19.371 10.185h14.73c7.748 0 14.99-3.808 19.371-10.185a23.393 23.393 0 0 0 2.557-21.642zm-11.676 29.477c-.388.564-1.277 1.51-2.887 1.51h-14.73c-1.609 0-2.499-.946-2.887-1.51-.378-.551-.93-1.691-.373-3.141l7.365-19.161c.742-1.93 2.36-2.218 3.26-2.218s2.518.289 3.26 2.218l7.365 19.16c.557 1.451.005 2.591-.373 3.142zM140.445 130.188a9.999 9.999 0 0 0 7.976 6.092 8.655 8.655 0 0 1 5.069 2.492 8.662 8.662 0 0 1 2.493 5.071 10.001 10.001 0 0 0 16.042 6.643c1.073-.831 2.873-1.822 5.347-1.822s4.273.992 5.349 1.823a10.002 10.002 0 0 0 16.04-6.644 8.664 8.664 0 0 1 2.491-5.07 8.667 8.667 0 0 1 5.07-2.493 10 10 0 0 0 6.646-16.041c-.831-1.074-1.822-2.874-1.822-5.348s.991-4.274 1.822-5.349a10 10 0 0 0-6.646-16.041 8.656 8.656 0 0 1-5.068-2.491 8.666 8.666 0 0 1-2.493-5.072 9.998 9.998 0 0 0-16.04-6.644 8.665 8.665 0 0 1-5.349 1.823 8.66 8.66 0 0 1-5.347-1.822 10 10 0 0 0-16.042 6.642 8.66 8.66 0 0 1-2.492 5.07 8.665 8.665 0 0 1-5.07 2.493 9.999 9.999 0 0 0-6.646 16.04 8.665 8.665 0 0 1 1.823 5.349 8.665 8.665 0 0 1-1.823 5.348 10.006 10.006 0 0 0-1.33 9.951zm22.541-21.255c1.657-1.083 3.212-2.346 4.646-3.78s2.696-2.989 3.78-4.647c3.874.812 8.042.812 11.918 0a29.091 29.091 0 0 0 3.78 4.647 29.03 29.03 0 0 0 4.646 3.78c-.406 1.938-.612 3.931-.612 5.958s.206 4.021.612 5.958c-1.658 1.083-3.214 2.347-4.648 3.781s-2.695 2.988-3.778 4.646c-1.938-.406-3.932-.613-5.959-.613s-4.021.207-5.959.613c-1.084-1.658-2.347-3.213-3.781-4.647s-2.988-2.696-4.646-3.779c.405-1.938.612-3.931.612-5.958s-.205-4.021-.611-5.959zM502 479.725h-16.54v-154.41c0-5.523-4.478-10-10-10h-36.156v-10.944c19.429-4.533 33.944-21.977 33.944-42.744 0-21.571-30.521-55.316-36.639-61.862a10.001 10.001 0 0 0-14.612 0c-6.118 6.546-36.639 40.291-36.639 61.862 0 20.767 14.515 38.211 33.944 42.744v10.944h-36.156c-5.522 0-10 4.477-10 10v154.41h-16.54c-5.522 0-10 4.477-10 10s4.478 10 10 10H502c5.522 0 10-4.477 10-10s-4.478-10-10-10zm-96.641-218.099c0-8.229 12.5-26.248 23.947-39.917 11.447 13.659 23.941 31.668 23.941 39.917 0 9.614-5.721 17.92-13.944 21.706v-12.035c0-5.523-4.478-10-10-10s-10 4.477-10 10v12.035c-8.223-3.786-13.944-12.091-13.944-21.706zm-12.212 218.099v-144.41h72.312v144.41z" />
    </svg>
    <svg xmlns="http://www.w3.org/2000/svg" viewBox="0 0 512 512" width="512" height="512" id="o">
      <path d="M502 250.455h-27.194l-66.889-102.982a10.003 10.003 0 0 0-16.774 0l-11.509 17.719c-8.668-5.299-18.191-7.977-28.424-7.977-8.953 0-17.676 2.129-25.515 6.017l-19.728-64.976a9.997 9.997 0 0 0-16.109-4.659l-91.65 79.249c-8.812-21.252-29.772-35.939-53.662-35.939-14.09 0-27.024 5.059-37.092 13.46l-56.616-11.973a9.999 9.999 0 0 0-11.856 11.837l15.65 74.566c-4.131 7.651-6.486 16.395-6.553 25.659H10c-5.523 0-10 4.478-10 10v55.402c0 5.522 4.477 10 10 10h21.538l16.298 60.147c5.557 20.51 24.238 34.834 45.429 34.834h325.471c21.19 0 39.872-14.324 45.43-34.834l16.298-60.147H502c5.522 0 10-4.478 10-10v-55.402c0-5.523-4.478-10.001-10-10.001zm-102.47-79.177 51.427 79.177H348.104zM291.301 118.79l17.372 57.216c-.233.253-.463.509-.692.766a44.762 44.762 0 0 0-20.769-5.104 44.73 44.73 0 0 0-34.421 16.086 65.866 65.866 0 0 0-27.404-11.97zM93.274 167.809a58.054 58.054 0 0 0-6.813 27.364c0 1.152.034 2.304.101 3.452a53.992 53.992 0 0 0-15.404 7.539l-9.451-45.03zm5.575 48.638a10 10 0 0 0 8.669-12.276 38.638 38.638 0 0 1-1.058-8.999c0-21.101 17.085-38.267 38.086-38.267 19.088 0 35.326 14.315 37.769 33.298a9.998 9.998 0 0 0 13.752 7.959c5.537-2.299 11.413-3.464 17.465-3.464 12.942 0 25.337 5.545 34.007 15.213a10 10 0 0 0 16.681-2.842c3.883-9.355 12.907-15.401 22.991-15.401a24.79 24.79 0 0 1 16.46 6.251 10.002 10.002 0 0 0 15.21-2.338c6.899-11.5 18.984-18.366 32.328-18.366 6.332 0 12.118 1.565 17.523 4.759l-44.48 68.481H68.08c.201-17.576 13.361-32.16 30.769-34.008zM444.86 380.774c-3.2 11.813-13.943 20.064-26.125 20.064H93.264c-12.181 0-22.924-8.251-26.125-20.064l-14.88-54.917h407.482zM492 305.857H20v-35.402h472z" />
      <path d="M389.729 225.55c.759 4.043 4.141 7.239 8.172 7.909 4.055.674 8.24-1.301 10.281-4.869 2.081-3.639 1.669-8.257-1.032-11.466-2.688-3.194-7.247-4.346-11.145-2.885-4.523 1.697-7.221 6.577-6.276 11.311zM152.02 186.58c-1.637-3.933-5.69-6.456-9.949-6.148-4.145.3-7.751 3.232-8.896 7.225-1.15 4.014.4 8.446 3.793 10.874 3.351 2.398 7.941 2.467 11.372.188 3.921-2.604 5.491-7.796 3.68-12.139zM226.32 219.77c-1.613-3.87-5.573-6.387-9.771-6.16-4.101.222-7.722 3.019-8.98 6.925-1.276 3.965.111 8.467 3.428 10.996 3.329 2.537 7.979 2.717 11.503.467 4.014-2.561 5.648-7.838 3.82-12.228z" />
    </svg>
    <svg xmlns="http://www.w3.org/2000/svg" viewBox="0 0 512 512" width="512" height="512" id="p">
      <path d="M422.337 191.523c-18.571 0-35.061 10.487-43.122 26.494a75.785 75.785 0 0 0-13.175-2.879l-61.943-81.463V10c0-5.522-4.478-10-10-10s-10 4.478-10 10v123.675l-47.905 63.002V74.099a9.96 9.96 0 0 0-.986-4.335c-5.448-31.104-32.708-54.188-64.65-54.188h-4.994c-5.523 0-10 4.478-10 10v38.523h-30.505c-30.26 0-54.878 24.593-54.878 54.82v16.343c-16.357 2.563-28.909 16.741-28.909 33.792v31.272c0 18.86 15.358 34.205 34.236 34.205H98.57V502c0 5.522 4.477 10 10 10h41.957c28.166 0 51.08-22.914 51.08-51.08v-64.942h127.742v64.942c0 28.166 22.915 51.08 51.081 51.08h41.957c5.522 0 10-4.478 10-10V388.419c.196-.781.301-1.599.301-2.441v-68.192c7.237 2.086 14.748 3.138 22.46 3.138h5.582c5.522 0 10-4.478 10-10v-71.105c0-26.631-21.665-48.296-48.393-48.296zm-128.239-37.957 46.356 60.965h-92.712zM61.27 200.326v-31.272c0-7.833 6.386-14.205 14.236-14.205h4.673c5.523 0 10-4.478 10-10v-25.93c0-19.2 15.646-34.82 34.878-34.82h30.505v16.604c0 5.522 4.477 10 10 10s10-4.478 10-10V35.849c20.708 2.276 37.607 18.499 40.267 39.506.074.582.196 1.146.363 1.689v137.487H75.506c-7.85 0-14.236-6.372-14.236-14.205zm295.123 34.205c31.041 0 56.295 25.254 56.295 56.295v7.686l-24.377 12.545-36.325-18.693a9.993 9.993 0 0 0-9.152 0l-36.318 18.692-36.321-18.692a9.993 9.993 0 0 0-9.152 0l-36.318 18.692-36.318-18.692a10.001 10.001 0 0 0-9.153 0l-36.312 18.692-24.37-12.544v-63.98h237.821zm56.295 141.447H118.57v-54.971l19.793 10.188a9.995 9.995 0 0 0 9.153 0l36.313-18.692 36.317 18.692a9.993 9.993 0 0 0 9.152 0l36.318-18.692 36.321 18.692a9.993 9.993 0 0 0 9.152 0l36.318-18.693 36.325 18.693a9.998 9.998 0 0 0 9.152 0l19.801-10.19v54.973zM150.527 492H118.57v-40.996h63.037v9.916c0 17.138-13.942 31.08-31.08 31.08zm31.08-60.996H118.57v-35.026h63.037zm230.78-35.026v35.026h-63.038v-35.026zM380.43 492c-17.138 0-31.081-13.942-31.081-31.08v-9.916h63.038V492zm70.3-191.231a60.148 60.148 0 0 1-18.042-4.098v-5.844c0-27.005-14.103-50.777-35.33-64.34 4.821-9.062 14.33-14.963 25.078-14.963 15.602 0 28.294 12.692 28.294 28.294z" />
      <path d="M138.732 153.897c5.523 0 10-4.478 10-10v-13.704c0-5.522-4.477-10-10-10s-10 4.478-10 10v13.704c0 5.523 4.477 10 10 10zM191.52 342.21c-1.602-3.85-5.568-6.381-9.74-6.154-4.059.22-7.646 2.921-8.962 6.77-1.347 3.938-.023 8.462 3.247 11.043 3.286 2.594 7.932 2.856 11.492.657 4.117-2.544 5.794-7.853 3.963-12.316zM274.86 342.21c-1.636-3.93-5.694-6.455-9.948-6.148-4.169.301-7.718 3.243-8.892 7.232-1.175 3.99.405 8.467 3.79 10.871 3.371 2.394 7.924 2.463 11.371.185 3.941-2.605 5.462-7.794 3.679-12.14zM359.67 342.21c-1.61-3.868-5.58-6.388-9.771-6.161-4.154.225-7.819 3.112-9.029 7.088-1.195 3.926.207 8.346 3.484 10.833 3.385 2.57 8.09 2.725 11.637.379 3.94-2.605 5.463-7.792 3.679-12.139z" />
    </svg>
    <svg xmlns="http://www.w3.org/2000/svg" viewBox="0 0 512 512" width="512" height="512" id="q">
      <path d="M363.214 111.128V38.291C363.214 17.178 346.036 0 324.923 0H187.077c-21.113 0-38.291 17.178-38.291 38.291v72.837c-14.646 4.778-25.26 18.567-25.26 34.787V475.42c0 20.17 16.41 36.58 36.58 36.58h191.787c20.17 0 36.58-16.41 36.58-36.58V145.915c.001-16.221-10.613-30.009-25.259-34.787zm5.26 34.787v128.418h-28.799V129.335h12.219c9.142 0 16.58 7.437 16.58 16.58zM168.786 38.291c0-10.086 8.205-18.291 18.291-18.291h137.846c10.086 0 18.291 8.205 18.291 18.291v71.044H168.786zm-8.68 91.044h159.568v144.998H194.047v-17.526c0-5.522-4.478-10-10-10s-10 4.478-10 10v17.526h-30.521V145.915c0-9.143 7.438-16.58 16.58-16.58zm-16.58 346.085V294.333h30.521v134.924c0 5.522 4.478 10 10 10s10-4.478 10-10V294.333h43.351l-13.621 19.281c-3.187 4.511-2.112 10.75 2.398 13.938 4.512 3.187 10.751 2.111 13.938-2.398L256 302.663l15.888 22.49a9.986 9.986 0 0 0 8.177 4.231 9.962 9.962 0 0 0 5.761-1.833c4.511-3.188 5.585-9.427 2.398-13.938l-13.621-19.281h45.072V492H160.106c-9.142 0-16.58-7.438-16.58-16.58zM351.894 492h-12.219V294.333h28.799V475.42c0 9.142-7.438 16.58-16.58 16.58z" />
      <path d="M184.047 208.544c5.522 0 10-4.478 10-10v-12.205c0-5.522-4.478-10-10-10s-10 4.478-10 10v12.205c0 5.522 4.477 10 10 10zM256 250.614c5.522 0 10-4.478 10-10v-72.978c0-5.522-4.478-10-10-10s-10 4.478-10 10v72.978c0 5.523 4.478 10 10 10zM256 371.466c-5.522 0-10 4.478-10 10v75.019c0 5.522 4.478 10 10 10s10-4.478 10-10v-75.019c0-5.523-4.478-10-10-10z" />
    </svg>
  </defs>
  <g data-name="003-catrina.svg">
    <g transform="rotate(-4 6080.268 -88.933) scale(.244)">
      <path fill="transparent" d="M0 0h512v512H0z" />
      <use xlink:href="#a" />
    </g>
    <g transform="rotate(-4 -1250.613 -344.933) scale(.244)">
      <path fill="transparent" d="M0 0h512v512H0z" />
      <use xlink:href="#a" />
    </g>
  </g>
  <g transform="rotate(-21 914.167 -351.137) scale(.244)" data-name="001-skull.svg">
    <path fill="transparent" d="M0 0h512v512H0z" />
    <use xlink:href="#b" />
  </g>
  <g data-name="039-heart.svg">
    <g transform="rotate(-18 1800.292 -155.141) scale(.244)">
      <path fill="transparent" d="M0 0h512v512H0z" />
      <use xlink:href="#c" />
    </g>
    <g transform="rotate(-18 183.971 -411.141) scale(.244)">
      <path fill="transparent" d="M0 0h512v512H0z" />
      <use xlink:href="#c" />
    </g>
  </g>
  <g data-name="047-cempasuchil.svg">
    <g transform="rotate(9 -2413.597 1238.806) scale(.244)">
      <path fill="transparent" d="M0 0h512v512H0z" />
      <use xlink:href="#d" />
    </g>
    <g transform="rotate(9 839.191 982.806) scale(.244)">
      <path fill="transparent" d="M0 0h512v512H0z" />
      <use xlink:href="#d" />
    </g>
  </g>
  <g transform="rotate(-4 4072.078 -1092.537) scale(.244)" data-name="029-coffin.svg">
    <path fill="transparent" d="M0 0h512v512H0z" />
    <use xlink:href="#e" />
  </g>
  <g transform="rotate(-22 294.341 -624.26) scale(.244)" data-name="009-mariachi.svg">
    <path fill="transparent" d="M0 0h512v512H0z" />
    <use xlink:href="#f" />
  </g>
  <g transform="rotate(15 -104.921 159.21) scale(.244)" data-name="010-poncho.svg">
    <path fill="transparent" d="M0 0h512v512H0z" />
    <use xlink:href="#g" />
  </g>
  <g data-name="006-skull.svg">
    <g transform="rotate(9 -788.927 3340.138) scale(.25)">
      <path fill="transparent" d="M0 0h512v512H0z" />
      <use xlink:href="#h" />
    </g>
    <g transform="rotate(9 -1044.927 87.35) scale(.25)">
      <path fill="transparent" d="M0 0h512v512H0z" />
      <use xlink:href="#h" />
    </g>
  </g>
  <g transform="rotate(115 82.264 172.15) scale(.25)" data-name="017-drum.svg">
    <path fill="transparent" d="M0 0h512v512H0z" />
    <use xlink:href="#i" />
  </g>
  <g data-name="027-salt.svg">
    <g transform="rotate(17 20.817 1459.097) scale(.25)">
      <path fill="transparent" d="M0 0h512v512H0z" />
      <use xlink:href="#j" />
    </g>
    <g transform="rotate(17 -235.183 -253.839) scale(.25)">
      <path fill="transparent" d="M0 0h512v512H0z" />
      <use xlink:href="#j" />
    </g>
  </g>
  <g transform="rotate(-22 558.192 -463.39) scale(.25)" data-name="025-avocado.svg">
    <path fill="transparent" d="M0 0h512v512H0z" />
    <use xlink:href="#k" />
  </g>
  <g data-name="041-sapote.svg">
    <g transform="rotate(-41 702.69 -432.377) scale(.25)">
      <path fill="transparent" d="M0 0h512v512H0z" />
      <use xlink:href="#l" />
    </g>
    <g transform="rotate(-41 446.69 252.326) scale(.25)">
      <path fill="transparent" d="M0 0h512v512H0z" />
      <use xlink:href="#l" />
    </g>
  </g>
  <g transform="rotate(-3 3411.505 -6688.707) scale(.25)" data-name="024-skull.svg">
    <path fill="transparent" d="M0 0h512v512H0z" />
    <use xlink:href="#m" />
  </g>
  <g data-name="004-skull.svg">
    <g transform="rotate(-9 2667.974 -2260.708) scale(.25)">
      <path fill="transparent" d="M0 0h512v512H0z" />
      <use xlink:href="#n" />
    </g>
    <g transform="rotate(-9 -584.815 -2516.708) scale(.25)">
      <path fill="transparent" d="M0 0h512v512H0z" />
      <use xlink:href="#n" />
    </g>
    <g transform="rotate(-9 2411.974 992.08) scale(.25)">
      <path fill="transparent" d="M0 0h512v512H0z" />
      <use xlink:href="#n" />
    </g>
    <g transform="rotate(-9 -840.815 736.08) scale(.25)">
      <path fill="transparent" d="M0 0h512v512H0z" />
      <use xlink:href="#n" />
    </g>
  </g>
  <g data-name="033-nachos.svg">
    <g transform="rotate(-5 5881.472 -4302.142) scale(.25)">
      <path fill="transparent" d="M0 0h512v512H0z" />
      <use xlink:href="#o" />
    </g>
    <g transform="rotate(-5 18.108 -4558.142) scale(.25)">
      <path fill="transparent" d="M0 0h512v512H0z" />
      <use xlink:href="#o" />
    </g>
    <g transform="rotate(-5 5625.472 1561.222) scale(.25)">
      <path fill="transparent" d="M0 0h512v512H0z" />
      <use xlink:href="#o" />
    </g>
    <g transform="rotate(-5 -237.892 1305.222) scale(.25)">
      <path fill="transparent" d="M0 0h512v512H0z" />
      <use xlink:href="#o" />
    </g>
  </g>
  <g data-name="043-pinata.svg">
    <g transform="rotate(10 -2132.669 1842.36) scale(.25)">
      <path fill="transparent" d="M0 0h512v512H0z" />
      <use xlink:href="#p" />
    </g>
    <g transform="rotate(10 793.425 1586.36) scale(.25)">
      <path fill="transparent" d="M0 0h512v512H0z" />
      <use xlink:href="#p" />
    </g>
  </g>
  <g transform="rotate(77 57.938 417.293) scale(.25)" data-name="030-tamales.svg">
    <path fill="transparent" d="M0 0h512v512H0z" />
    <use xlink:href="#q" />
  </g>
</svg>
