<svg xmlns="http://www.w3.org/2000/svg" xmlns:xlink="http://www.w3.org/1999/xlink" width="512" height="512" viewBox="0 0 512 512">
  <defs>
    <svg xmlns="http://www.w3.org/2000/svg" width="512" viewBox="0 0 511.976 511.976" height="512" id="a">
      <path d="m510.632 354.525-34.892-199.74c-5.352-30.64-13.425-46.516-47.119-59.593l-36.689-14.24c-22.688-8.806-38.762-5.927-53.74 9.63-12.82 13.315-18.495 13.993-33.018 13.993h-98.37c-14.523 0-20.198-.678-33.02-13.994-14.978-15.556-31.049-18.436-53.738-9.629l-36.691 14.24c-33.693 13.077-41.767 28.953-47.118 59.593L1.344 354.525c-2.967 16.98-1.002 33.097 5.682 46.604 6.315 12.762 16.453 22.697 29.319 28.731 8.605 4.036 18.122 6.089 27.802 6.089a69.601 69.601 0 0 0 16.546-2.008c16.145-3.959 31.038-13.54 43.071-27.705l28.671-33.751a49.73 49.73 0 0 0 29.333 9.531c18.468 0 34.63-10.066 43.288-24.999h61.862c8.658 14.933 24.82 24.999 43.289 24.999a49.735 49.735 0 0 0 29.333-9.531l28.671 33.751c12.033 14.165 26.927 23.745 43.072 27.704 15.092 3.701 30.844 2.252 44.348-4.08 12.865-6.035 23.004-15.97 29.318-28.731 6.684-13.507 8.649-29.623 5.683-46.604zm-289.644-229.95h70v10c0 5.514-4.486 10-10 10h-50c-5.514 0-10-4.486-10-10zM194.55 283.673a49.896 49.896 0 0 0-12.78-1.656c-18.228 0-34.208 9.804-42.945 24.416-29.02-4.137-51.056-29.073-51.056-58.907 0-32.812 26.695-59.508 59.509-59.508 32.812 0 59.508 26.695 59.508 59.508a59.36 59.36 0 0 1-12.236 36.147zm-12.781 78.344c-16.542 0-30-13.458-30-30s13.458-30 30-30c16.541 0 29.999 13.458 29.999 30s-13.458 30-29.999 30zm118.439-30c0-16.542 13.458-30 30-30 16.541 0 29.999 13.458 29.999 30s-13.458 30-29.999 30c-16.542 0-30-13.458-30-30zm166.93 79.737c-15.833 7.426-42.015 7.045-63.685-18.466l-30.307-35.678a49.693 49.693 0 0 0 7.06-25.593c0-27.57-22.43-50-49.999-50-27.57 0-50 22.43-50 50 0 1.688.084 3.356.249 5.001H231.52c.164-1.645.249-3.313.249-5.001 0-15.911-7.471-30.11-19.088-39.273 9.154-13.221 14.104-28.933 14.104-45.218 0-43.841-35.667-79.508-79.508-79.508s-79.509 35.667-79.509 79.508c0 38.547 27.534 70.974 64.412 78.069a50.225 50.225 0 0 0-.411 6.422 49.695 49.695 0 0 0 7.06 25.593l-30.307 35.679c-21.673 25.512-47.851 25.891-63.685 18.465-18.921-8.874-28.037-29.484-23.792-53.787l34.892-199.74c4.562-26.117 9.39-34.584 34.653-44.39l36.691-14.24c16.975-6.589 23.874-3.682 32.095 4.856 14.973 15.552 25.339 19.397 41.611 20.021v10.101c0 16.542 13.458 30 30 30h50c16.542 0 30-13.458 30-30v-10.101c16.272-.624 26.638-4.469 41.61-20.021 8.223-8.539 15.121-11.446 32.097-4.857l36.69 14.24c25.264 9.806 30.091 18.272 34.653 44.39l34.892 199.74c4.246 24.303-4.87 44.914-23.791 53.788z" />
      <path d="M162.277 237.526h-5v-5c0-5.522-4.478-10-10-10s-10 4.478-10 10v5h-5c-5.522 0-10 4.478-10 10s4.478 10 10 10h5v5c0 5.522 4.478 10 10 10s10-4.478 10-10v-5h5c5.522 0 10-4.478 10-10s-4.477-10-10-10zM339.349 195.552c-16.628-6.696-35.595 1.382-42.29 18.007-3.242 8.053-3.155 16.886.246 24.873 3.4 7.987 9.709 14.172 17.762 17.415a32.306 32.306 0 0 0 12.1 2.353c12.876 0 25.091-7.702 30.188-20.359 3.242-8.053 3.155-16.886-.245-24.873-3.401-7.988-9.709-14.172-17.761-17.416zm-.547 34.817c-2.574 6.396-9.876 9.501-16.265 6.926a12.414 12.414 0 0 1-6.831-6.698 12.414 12.414 0 0 1-.095-9.566c1.96-4.868 6.658-7.83 11.61-7.83 1.552 0 3.129.291 4.655.905 6.395 2.573 9.502 9.87 6.926 16.263zM418.196 227.306c-16.629-6.696-35.595 1.383-42.29 18.007-6.693 16.622 1.384 35.593 18.007 42.288a32.336 32.336 0 0 0 12.101 2.354c12.876-.001 25.091-7.703 30.188-20.359 3.243-8.053 3.156-16.886-.244-24.874-3.403-7.988-9.71-14.173-17.762-17.416zm-.548 34.818c-2.574 6.394-9.874 9.498-16.264 6.925-6.394-2.574-9.501-9.871-6.926-16.265 1.96-4.868 6.658-7.83 11.61-7.83 1.552 0 3.129.291 4.654.905h.001a12.414 12.414 0 0 1 6.83 6.697 12.41 12.41 0 0 1 .095 9.568zM394.09 205.796c12.876-.001 25.091-7.703 30.188-20.359 3.243-8.054 3.156-16.887-.245-24.874-3.4-7.987-9.708-14.172-17.761-17.415s-16.886-3.157-24.874.245c-7.986 3.4-14.172 9.708-17.415 17.762-6.693 16.622 1.384 35.593 18.007 42.288a32.346 32.346 0 0 0 12.1 2.353zm-11.555-37.17a12.416 12.416 0 0 1 6.698-6.832 12.459 12.459 0 0 1 4.895-1.006c1.58 0 3.161.304 4.671.911l.001.001a12.415 12.415 0 0 1 6.831 6.697 12.412 12.412 0 0 1 .094 9.567c-2.574 6.394-9.876 9.499-16.264 6.925-6.394-2.574-9.501-9.871-6.926-16.263z" />
    </svg>
    <svg xmlns="http://www.w3.org/2000/svg" width="512" viewBox="0 0 512.008 512.008" height="512" id="b">
      <path d="M511.664 7.416c-1.43-5.334-6.914-8.504-12.247-7.071-40.566 10.87-47.305 33.802-52.719 52.229-4.668 15.889-8.123 27.646-30.817 35.035-13.635-9.46-32.549-8.12-44.688 4.02v.001l-41.714-41.714c-11.09-11.09-28.624-11.369-41.692-.664l-82.463 67.56-48.796-1.47c-24.146-.729-37.379 7.129-50.597 30.023l-.072.127-54.315 97.323C20.37 269.006 2.148 305.205.179 344.958c-2.132 43.03 15.121 85.155 48.58 118.615 31.405 31.404 70.687 48.436 111.322 48.435 2.398 0 4.804-.06 7.21-.179 39.979-1.981 76.205-20.086 102.223-51.038l97.325-54.317c.043-.023.085-.048.127-.072 22.896-13.218 30.752-26.458 30.024-50.597l-1.469-48.797 67.56-82.463c10.705-13.066 10.426-30.601-.664-41.692l-41.726-41.726c9.983-9.983 12.662-24.546 8.039-36.989 26.978-11.282 32.562-30.284 37.157-45.926 5.021-17.088 8.987-30.585 38.706-38.549 5.335-1.43 8.501-6.913 7.071-12.247zm-115.723 93.992c3.995 0 7.734 1.526 10.54 4.298l.117.117c5.797 5.853 5.781 15.331-.051 21.162l-14.142 14.142-21.213-21.213 14.142-14.142c2.814-2.814 6.581-4.364 10.607-4.364zM284.937 410.424l-46.396-87.149 31.104-31.104 44.183 82.99zm-65.631-96.199c-.08.077-.159.156-.236.235-2.803 2.755-6.531 4.271-10.513 4.271-4.026 0-7.793-1.549-10.606-4.363-2.813-2.813-4.363-6.58-4.363-10.606 0-3.971 1.508-7.691 4.251-10.491.086-.083.171-.169.254-.255l88.247-88.248 21.213 21.213zm-82.132-115.726 82.974 44.174-31.104 31.105-87.133-46.388zm184.52 13.339-21.213-21.213 56.568-56.568 21.213 21.213zM300.461 64.722c2.354-1.928 5.457-3.291 8.498-3.291 2.275 0 4.516.765 6.378 2.627l41.713 41.713-122.116 122.116-80.997-43.122zm-177.174 90.58c10.182-17.614 17.082-20.431 32.638-19.97l25.842.778-88.011 72.105zM166.3 491.854c-37.469 1.857-74.187-13.209-103.4-42.423-29.415-29.415-44.596-66.166-42.747-103.483 1.717-34.663 17.891-66.23 45.542-88.887l.037-.03 19.416-15.907 91.333 48.624c-1.896 4.357-2.893 9.106-2.893 14.014 0 9.368 3.63 18.158 10.221 24.749s15.381 10.222 24.75 10.221c4.908 0 9.657-.997 14.014-2.893l48.632 91.349-15.876 19.378-.09.11c-22.476 27.406-54.058 43.45-88.939 45.178zm210.699-135.446c.468 15.548-2.353 22.454-19.971 32.638l-52.914 29.531 72.106-88.012zm71.274-159.414c4.352 4.353 2.706 10.763-.664 14.876L327.561 358.398l-43.13-81.013 122.116-122.116z" />
    </svg>
    <svg xmlns="http://www.w3.org/2000/svg" width="512" viewBox="0 0 511.913 511.913" height="512" id="c">
      <path d="M216.126 202.072c-64.614 0-117.182 49.83-117.182 111.08 0 12.4 2.128 24.518 6.332 36.103-4.019 5.873-6.179 12.794-6.179 20.044 0 19.676 16.008 35.684 35.685 35.684h6.108l7.988 29.247a10 10 0 0 0 9.646 7.365h35.102a9.999 9.999 0 0 0 9.806-8.041l3.393-16.981h18.6l3.394 16.982a10 10 0 0 0 9.806 8.04h35.101a10 10 0 0 0 9.646-7.365l7.988-29.247h6.108c19.676 0 35.685-16.009 35.685-35.686 0-7.25-2.16-14.17-6.179-20.042 4.204-11.585 6.332-23.701 6.332-36.103.001-61.25-52.566-111.08-117.18-111.08zm92.351 156.097c3.016 2.983 4.677 6.936 4.677 11.128 0 8.649-7.036 15.686-15.685 15.686h-13.743a10 10 0 0 0-9.646 7.365l-7.988 29.247h-19.267l-3.394-16.982a10 10 0 0 0-9.806-8.04h-34.999a9.999 9.999 0 0 0-9.806 8.041l-3.393 16.981h-19.268l-7.988-29.247a10 10 0 0 0-9.646-7.365h-13.743c-8.648 0-15.685-7.035-15.685-15.684 0-4.193 1.661-8.146 4.677-11.131a10 10 0 0 0 2.155-11.054 85.606 85.606 0 0 1-6.985-33.962c0-50.222 43.596-91.08 97.182-91.08s97.182 40.858 97.182 91.08c0 11.74-2.35 23.167-6.986 33.962a9.998 9.998 0 0 0 2.155 11.055z" />
      <path d="M174.395 327.939h-.008c-8.284 0-14.996 6.716-14.996 15s6.72 15 15.004 15 15-6.716 15-15-6.716-15-15-15zM257.864 327.939h-.007c-8.284 0-14.996 6.716-14.996 15s6.719 15 15.003 15 15-6.716 15-15-6.716-15-15-15zM438.456 0c-5.523 0-10 4.478-10 10v10.001c0 5.522 4.477 10 10 10s10-4.478 10-10V10c0-5.522-4.477-10-10-10zM400.956 55.001h10c5.523 0 10-4.478 10-10s-4.477-10-10-10h-10c-5.523 0-10 4.478-10 10s4.477 10 10 10zM475.956 35.001h-10c-5.523 0-10 4.478-10 10s4.477 10 10 10h10c5.523 0 10-4.478 10-10s-4.477-10-10-10z" />
      <path d="M438.456 60.001c-5.523 0-10 4.478-10 10 0 47.761-18.019 59.107-40.831 73.474-7.602 4.787-15.408 9.704-22.931 16.138l-17.923-17.923a10.002 10.002 0 0 0-15.023 1.007l-14.25 18.686c-34.582-21.881-75.701-32.061-116.839-28.762-44.887 3.602-87.167 23.146-119.054 55.031-35.886 35.887-55.649 83.6-55.649 134.351s19.763 98.465 55.649 134.351c37.041 37.04 85.696 55.561 134.351 55.561s97.31-18.521 134.351-55.561c31.886-31.886 51.43-74.167 55.031-119.054 3.301-41.14-6.881-82.258-28.762-116.84l18.685-14.248a10.001 10.001 0 0 0 1.008-15.023l-17.38-17.38c6.076-5.022 12.594-9.126 19.394-13.409 24.667-15.533 50.174-31.596 50.174-90.397-.001-5.524-4.478-10.002-10.001-10.002zM336.165 442.21c-66.282 66.283-174.134 66.283-240.416 0-32.109-32.108-49.792-74.799-49.792-120.208 0-45.408 17.683-88.1 49.792-120.208 33.021-33.021 76.48-49.966 120.235-49.966 34.083 0 68.345 10.282 97.992 31.256 4.395 3.11 10.462 2.18 13.727-2.1l13.014-17.065 33.322 33.323-17.064 13.013a10.001 10.001 0 0 0-2.1 13.728c47.901 67.707 40.032 159.486-18.71 218.227z" />
    </svg>
    <svg xmlns="http://www.w3.org/2000/svg" width="512" viewBox="0 0 512 512" height="512" id="d">
      <path d="M429 203.375h-20c-5.522 0-10 4.477-10 10s4.478 10 10 10v70c0 5.514-4.486 10-10 10h-4.266c-2.423-9.381-8.174-17.439-15.913-22.834 8.236-35.743 2.706-55.785-3.635-78.76-6.187-22.419-13.199-47.831-10.207-97.049 2.24-36.835-1.966-58.164-14.063-71.32-6.578-7.153-15.456-11.474-26.451-12.892C320.488 8.609 309.23 0 296 0h-80c-13.23 0-24.488 8.609-28.465 20.52-10.996 1.418-19.873 5.739-26.451 12.892-12.098 13.156-16.304 34.485-14.063 71.32 2.992 49.218-4.021 74.629-10.207 97.049-6.341 22.975-11.871 43.018-3.635 78.76-7.739 5.395-13.49 13.453-15.913 22.834H113c-5.514 0-10-4.486-10-10v-70c5.522 0 10-4.477 10-10s-4.478-10-10-10H83c-5.522 0-10 4.477-10 10s4.478 10 10 10v70c0 16.542 13.458 30 30 30h3c0 16.542 13.458 30 30 30h40.613l4.488 31.414a10 10 0 0 0 9.899 8.586h25V452h-57c-16.542 0-30 13.458-30 30s13.458 30 30 30 30-13.458 30-30c0-3.505-.604-6.871-1.714-10h117.428A29.854 29.854 0 0 0 313 482c0 16.542 13.458 30 30.001 30C359.543 512 373 498.542 373 482s-13.457-30-29.999-30H286v-58.625h25a9.999 9.999 0 0 0 9.899-8.586l4.488-31.414H366c16.542 0 30-13.458 30-30h3c16.542 0 30-13.458 30-30v-70c5.522 0 10-4.477 10-10s-4.478-10-10-10zM336.194 46.949c7.847 8.533 10.649 26.508 8.822 56.568-3.194 52.542 4.615 80.843 10.891 103.583 5.889 21.336 10.294 37.299 3.985 66.463a40.38 40.38 0 0 0-3.892-.189h-56.101c.48-37.141 4.298-62.921 7.692-85.839 4.822-32.558 8.684-58.637.963-100.291C318.844 82.485 326 72.063 326 60V41.109c5.475 1.396 8.367 3.854 10.194 5.84zM232.103 273.375c-.478-38.587-4.412-65.155-7.91-88.77-4.755-32.108-8.253-55.723-.916-94.605h65.445c7.337 38.883 3.839 62.498-.916 94.605-3.498 23.614-7.432 50.182-7.91 88.77zM206 30c0-5.514 4.486-10 10-10h80c5.514 0 10 4.486 10 10v30c0 5.514-4.486 10-10 10h-80c-5.514 0-10-4.486-10-10zm-49.907 177.101c6.275-22.74 14.085-51.042 10.891-103.583-1.827-30.06.976-48.035 8.822-56.568 1.827-1.987 4.719-4.444 10.194-5.841V60c0 12.063 7.156 22.485 17.447 27.245-7.721 41.653-3.86 67.733.963 100.291 3.394 22.919 7.212 48.698 7.692 85.839H156c-1.313 0-2.611.064-3.892.189-6.309-29.164-1.904-45.127 3.985-66.463zM179 482c0 5.514-4.486 10-10 10s-10-4.486-10-10 4.486-10 10-10 10 4.486 10 10zm164.001 10c-5.515 0-10.001-4.486-10.001-10s4.486-10 10.001-10c5.514 0 9.999 4.486 9.999 10s-4.485 10-9.999 10zM266 452h-20v-58.625h20zm36.327-78.625h-92.654l-2.857-20h98.369zm73.673-50c0 5.514-4.486 10-10 10H146c-5.514 0-10-4.486-10-10v-10c0-11.028 8.972-20 20-20h200c11.028 0 20 8.972 20 20z" />
    </svg>
    <svg xmlns="http://www.w3.org/2000/svg" width="512" viewBox="0 0 512.017 512.017" height="512" id="e">
      <path d="M301.674 69.685c-9.032-2.419-18.463-1.178-26.559 3.496-8.097 4.674-13.889 12.222-16.308 21.252-4.995 18.641 6.107 37.871 24.749 42.866a35.182 35.182 0 0 0 9.115 1.208c6.064 0 12.05-1.59 17.442-4.704 8.097-4.674 13.889-12.222 16.308-21.252 2.42-9.03 1.178-18.462-3.496-26.558-4.674-8.098-12.222-13.889-21.251-16.308zm5.429 37.689a14.903 14.903 0 0 1-6.989 9.108 14.907 14.907 0 0 1-11.382 1.499c-7.988-2.141-12.747-10.382-10.606-18.372a14.899 14.899 0 0 1 6.989-9.107 14.914 14.914 0 0 1 11.381-1.498h.001a14.899 14.899 0 0 1 9.107 6.989 14.895 14.895 0 0 1 1.499 11.381zM417.584 100.743c-9.028-2.42-18.463-1.178-26.559 3.497-8.096 4.674-13.888 12.222-16.307 21.251-2.42 9.03-1.179 18.462 3.496 26.559 4.674 8.096 12.222 13.887 21.252 16.307a34.876 34.876 0 0 0 9.05 1.196c15.451-.001 29.631-10.327 33.816-25.945 4.996-18.641-6.107-37.871-24.748-42.865zm5.43 37.688c-2.142 7.99-10.386 12.745-18.371 10.607a14.903 14.903 0 0 1-9.108-6.989c-2.003-3.47-2.535-7.512-1.498-11.382s3.519-7.104 6.988-9.108a14.92 14.92 0 0 1 11.383-1.498c7.988 2.141 12.747 10.382 10.606 18.37zM386.525 216.653c-9.026-2.419-18.461-1.179-26.558 3.497-8.097 4.674-13.889 12.222-16.308 21.251-2.42 9.031-1.179 18.463 3.496 26.559 4.675 8.097 12.223 13.888 21.252 16.307a35.201 35.201 0 0 0 9.116 1.208c6.064 0 12.051-1.591 17.442-4.704 8.097-4.674 13.889-12.222 16.308-21.252 4.996-18.641-6.106-37.87-24.748-42.866zm5.431 37.69c-1.037 3.87-3.519 7.104-6.989 9.107s-7.514 2.534-11.382 1.499a14.903 14.903 0 0 1-9.108-6.989c-2.003-3.47-2.535-7.512-1.498-11.382s3.519-7.104 6.989-9.108a14.915 14.915 0 0 1 11.382-1.498c7.988 2.14 12.746 10.382 10.606 18.371z" />
      <path d="M489.775 63.146 257.953 1.029C250.232-1.04 242.152.033 235.2 4.047c-6.953 4.014-11.921 10.476-13.989 18.195l-42.047 156.921L22.242 221.21h-.001c-15.977 4.281-25.493 20.764-21.212 36.743l62.117 231.822c2.068 7.719 7.036 14.181 13.989 18.195 4.639 2.678 9.779 4.047 14.979 4.047a30.01 30.01 0 0 0 7.772-1.029l231.822-62.117c7.719-2.068 14.182-7.036 18.196-13.989s5.086-15.033 3.018-22.753l-21.671-80.876 80.877 21.671a30.014 30.014 0 0 0 7.771 1.029c5.2 0 10.342-1.369 14.98-4.047 6.953-4.015 11.922-10.477 13.989-18.195l62.117-231.823c4.284-15.979-5.232-32.461-21.21-36.742zm-157.19 361.736c-1.343 2.326-3.492 3.985-6.051 4.671L94.712 491.67c-2.562.687-5.249.324-7.576-1.02-2.326-1.343-3.985-3.492-4.671-6.051L20.347 252.777c-1.427-5.327 1.745-10.821 7.071-12.248h-.001l231.823-62.117c2.556-.686 5.249-.323 7.576 1.02 2.326 1.343 3.985 3.492 4.671 6.051l62.117 231.822c.687 2.559.325 5.25-1.019 7.577zM491.67 94.711l-62.117 231.823c-1.427 5.327-6.922 8.499-12.247 7.071l-92.03-24.659-34.469-128.639c-2.068-7.719-7.036-14.181-13.989-18.195s-15.032-5.087-22.752-3.018l-52.594 14.093L240.53 27.419c.686-2.559 2.345-4.708 4.671-6.051 2.326-1.344 5.014-1.706 7.576-1.02L484.6 82.465c5.325 1.426 8.496 6.92 7.07 12.246z" />
      <path d="M167.918 301.234c-18.642 4.995-29.744 24.225-24.749 42.866 2.419 9.031 8.211 16.578 16.308 21.252 5.394 3.114 11.378 4.704 17.443 4.704 3.04 0 6.101-.399 9.116-1.208 18.641-4.995 29.743-24.225 24.748-42.866s-24.227-29.746-42.866-24.748zm12.941 48.296c-7.995 2.141-16.231-2.618-18.372-10.606-2.141-7.989 2.618-16.231 10.606-18.372a14.982 14.982 0 0 1 3.879-.513c6.622 0 12.699 4.426 14.493 11.119 2.141 7.99-2.618 16.231-10.606 18.372z" />
    </svg>
    <svg xmlns="http://www.w3.org/2000/svg" width="512" viewBox="0 0 511.942 511.942" height="512" id="f">
      <path d="M476.248 135.775c25.479-43.042 50.513-99.692 25.07-125.134-12-12-32.061-13.861-59.627-5.533-23.979 7.245-52.979 21.871-86.233 43.487-30.122-14.507-63.868-22.641-99.478-22.641-126.837 0-230.026 103.189-230.026 230.025 0 35.611 8.134 69.357 22.642 99.479-21.659 33.32-36.299 62.367-43.529 86.368-8.281 27.496-6.406 47.512 5.574 59.491 7.511 7.511 17.741 10.623 29.539 10.623 28.165 0 65.26-17.736 95.595-35.694a593.184 593.184 0 0 0 20.736-12.879c30.12 14.504 63.863 22.637 99.469 22.637 126.837 0 230.025-103.189 230.025-230.026 0-35.606-8.132-69.349-22.637-99.469a589.841 589.841 0 0 0 12.88-20.734zm10.928-110.991c9.576 9.576 7.213 41.085-28.139 100.804a547.955 547.955 0 0 1-6.597 10.85 231.824 231.824 0 0 0-76.918-76.918c66.199-41.393 101.438-44.952 111.654-34.736zm-231.195 21.17c79.331 0 148.53 44.212 184.252 109.289-32.79 48.673-78.052 102.531-130.255 154.734a1333.178 1333.178 0 0 1-16.802 16.508 120.442 120.442 0 0 0-30.285-21.372c3.804-8.642 5.781-18.006 5.781-27.591 0-37.813-30.763-68.576-68.576-68.576s-68.576 30.763-68.576 68.576a68.545 68.545 0 0 0 9.984 35.637c-25.345 17.138-43.32 43.427-50.253 72.971-28.351-35.807-45.296-81.037-45.296-130.15 0-115.808 94.217-210.026 210.026-210.026zm-92.482 263.509a48.533 48.533 0 0 1-11.979-31.941c0-26.785 21.791-48.576 48.576-48.576s48.576 21.791 48.576 48.576c0 9.596-2.795 18.875-8.082 26.834a10 10 0 0 0 4.74 14.868c12.58 4.836 23.82 12.098 33.264 21.121-42.1 39.396-84.386 73.638-123.35 99.887a211.313 211.313 0 0 1-46.824-34.935c2.753-33.624 22.536-64.201 52.341-80.478a10.002 10.002 0 0 0 2.738-15.356zm-37.912 149.574C65.87 494.39 34.36 496.753 24.785 487.176c-10.207-10.206-6.659-45.448 34.736-111.654a231.818 231.818 0 0 0 76.917 76.917 540.524 540.524 0 0 1-10.851 6.598zm50.471-8.83c36.926-25.739 76.365-58.037 115.584-94.684 11.727 16.699 18.468 36.889 18.468 58.015 0 16.922-4.23 33.526-12.266 48.276a210.19 210.19 0 0 1-41.863 4.191c-28.281.001-55.275-5.618-79.923-15.798zM466.006 255.98c0 92.476-60.076 171.184-143.25 199.146a121.15 121.15 0 0 0 7.353-41.587c0-24.949-7.534-48.906-21.787-69.281a122.608 122.608 0 0 0-1.953-2.711 1342.263 1342.263 0 0 0 17.75-17.427c49.656-49.656 93.219-100.909 126.087-148.062 10.181 24.647 15.8 51.641 15.8 79.922z" />
      <path d="M310.109 204.513c24.264 0 44.004-19.74 44.004-44.004s-19.74-44.004-44.004-44.004-44.004 19.74-44.004 44.004 19.74 44.004 44.004 44.004zm0-68.008c13.235 0 24.004 10.768 24.004 24.004s-10.769 24.004-24.004 24.004-24.004-10.768-24.004-24.004 10.768-24.004 24.004-24.004zM215.106 158.508c5.522 0 10-4.477 10-10s-4.478-10-10-10h-.007c-5.522 0-9.997 4.477-9.997 10s4.481 10 10.004 10zM120.087 190.512c5.522 0 10-4.477 10-10s-4.478-10-10-10h-.007c-5.522 0-9.997 4.477-9.997 10s4.482 10 10.004 10zM385.119 361.532c5.522 0 10-4.477 10-10s-4.478-10-10-10h-.008c-5.522 0-9.996 4.477-9.996 10s4.481 10 10.004 10zM175.095 382.535c5.522 0 10-4.477 10-10s-4.478-10-10-10h-.008c-5.522 0-9.996 4.477-9.996 10s4.482 10 10.004 10z" />
    </svg>
    <svg xmlns="http://www.w3.org/2000/svg" width="512" viewBox="0 0 512 512" height="512" id="g">
      <path d="M507.79 193.3a9.998 9.998 0 0 0-9.437-1.159c-33.574 13.145-70.639 12.607-103.5-1.175l4.341-4.341c3.905-3.905 3.905-10.237 0-14.143l-7.396-7.396 24.645-25.551c3.786-3.924 3.729-10.158-.126-14.014l-29.838-29.838a10.002 10.002 0 0 0-14.014-.126l-25.551 24.645-7.397-7.397c-3.905-3.905-10.237-3.905-14.143 0l-4.341 4.341c-13.781-32.86-14.32-69.926-1.175-103.5a10.003 10.003 0 0 0-1.159-9.437 10.013 10.013 0 0 0-8.528-4.202c-49.188 1.85-95.448 22.04-130.259 56.851-34.812 34.811-55.001 81.071-56.851 130.259a10.001 10.001 0 0 0 13.64 9.687c33.574-13.145 70.639-12.607 103.5 1.175l-4.341 4.341c-3.905 3.905-3.905 10.237 0 14.143l5.193 5.193-228.64 219.035C4.529 448.243.121 458.511.003 469.604c-.121 11.243 4.347 22.228 12.256 30.137 7.805 7.806 18.602 12.258 29.685 12.258l.443-.002c11.099-.119 21.37-4.526 28.922-12.409l219.035-228.641 5.193 5.193c1.953 1.953 4.512 2.929 7.071 2.929s5.119-.976 7.071-2.929l4.341-4.341c13.781 32.861 14.321 69.926 1.175 103.5a10 10 0 0 0 9.687 13.639c49.188-1.85 95.448-22.04 130.259-56.851 34.811-34.812 55.001-81.072 56.851-130.259a10 10 0 0 0-4.202-8.528zm-128.509-76.53 15.949 15.949-17.577 18.222-16.595-16.595zM194.055 71.001c27.748-27.749 63.606-45.143 102.208-49.842a157.936 157.936 0 0 0-5.281 28.588c-29.171 5.376-56.506 19.686-77.501 40.681-20.993 20.994-35.304 48.329-40.68 77.5a157.938 157.938 0 0 0-28.588 5.282c4.7-38.603 22.094-74.462 49.842-102.209zm-.75 96.405c5.185-23.649 17.172-45.691 34.318-62.837 17.146-17.147 39.188-29.134 62.838-34.318a157.408 157.408 0 0 0 15.452 62.016l-50.592 50.592a157.41 157.41 0 0 0-62.016-15.453zM56.866 485.753c-3.8 3.966-9.019 6.185-14.694 6.245-5.885.081-11.642-2.269-15.772-6.399s-6.462-9.882-6.399-15.781c.061-5.669 2.279-10.884 6.247-14.685l110.56-105.915 25.973 25.973zm119.755-125.007-25.366-25.366L255.2 235.803l20.999 20.999zm80.452-151.354 75.373-75.373 45.535 45.535-75.373 75.373zm122.659-3.305a157.397 157.397 0 0 0 62.017 15.453c-5.185 23.649-17.172 45.691-34.318 62.837s-39.188 29.133-62.837 34.318a157.408 157.408 0 0 0-15.452-62.016zm61.267 111.858c-27.748 27.749-63.607 45.143-102.208 49.842a157.954 157.954 0 0 0 5.282-28.588c29.171-5.376 56.506-19.686 77.5-40.68s35.305-48.329 40.68-77.5a157.938 157.938 0 0 0 28.588-5.282c-4.699 38.602-22.093 74.46-49.842 102.208z" />
    </svg>
    <svg xmlns="http://www.w3.org/2000/svg" width="512" viewBox="0 0 512 512" height="512" id="h">
      <path d="M414 231H313a10.001 10.001 0 0 0-7.071 2.929L288.858 251h-71.716l-17.071-17.071A9.999 9.999 0 0 0 193 231H92c-5.523 0-10 4.477-10 10v130c0 2.652 1.054 5.196 2.929 7.071l20 20A10.001 10.001 0 0 0 112 401h282c2.652 0 5.196-1.054 7.071-2.929l20-20A10.001 10.001 0 0 0 424 371V241c0-5.523-4.477-10-10-10zm-10 135.858L389.857 381H116.142L102 366.858V251h86.858l17.071 17.071A10.001 10.001 0 0 0 213 271h80c2.652 0 5.196-1.054 7.071-2.929L317.142 251H404z" />
      <path d="M502 231h-33.249c-2.517-25.231-23.868-45-49.751-45H298V76c0-5.523-4.477-10-10-10h-70c-5.523 0-10 4.477-10 10v110H87c-25.883 0-47.235 19.768-49.751 45H10c-5.523 0-10 4.477-10 10v70c0 5.523 4.477 10 10 10h27v75c0 27.57 22.43 50 50 50h332c27.57 0 50-22.43 50-50v-75h33c5.523 0 10-4.477 10-10v-70c0-5.523-4.478-10-10-10zM228 86h50v100h-50zM20 301v-50h17v50zm429 95c0 16.542-13.458 30-30 30H87c-16.542 0-30-13.458-30-30V236c0-16.542 13.458-30 30-30h332c16.542 0 30 13.458 30 30zm43-95h-23v-50h23z" />
    </svg>
    <svg xmlns="http://www.w3.org/2000/svg" width="512" viewBox="0 0 512.001 512.001" height="512" id="i">
      <path d="M396.001 260c27.57 0 50-22.43 50-50v-80c0-71.682-58.317-130-130-130h-120c-71.683 0-130 58.317-130 130v80c0 27.57 22.43 50 50 50h10v20h-10c-27.57 0-50 22.43-50 50s22.43 50 50 50h10v2.001c0 71.682 58.317 130 130 130s130-58.318 130-130V380h10c27.57 0 50-22.43 50-50s-22.43-50-50-50h-10v-20zm-310-50v-80c0-60.654 49.346-110 110-110h120c60.654 0 110 49.346 110 110v80c0 16.542-13.458 30-30 30h-280c-16.542 0-30-13.458-30-30zm170 150c-19.299 0-35-15.701-35-35v-65h70v65c0 19.299-15.701 35-35 35zm-140 0c-16.542 0-30-13.458-30-30s13.458-30 30-30h10v60zm30 22.001V260h55v65c0 26.914 19.431 49.374 45 54.089V491.55c-55.986-5.068-100-52.265-100-109.549zm250-82.001c16.542 0 30 13.458 30 30s-13.458 30-30 30h-10v-60zm-30 82.001c0 57.284-44.014 104.481-100 109.549V379.089c25.569-4.716 45-27.176 45-54.089v-65h55z" />
      <path d="M316.037 40h-120c-49.626 0-90 40.374-90 90s40.374 90 90 90h120c49.626 0 90-40.374 90-90s-40.374-90-90-90zm0 160h-120c-38.598 0-70-31.402-70-70s31.402-70 70-70h120c38.598 0 70 31.402 70 70s-31.402 70-70 70z" />
      <path d="M196.037 110c-5.522 0-10 4.477-10 10v20c0 5.523 4.478 10 10 10s10-4.477 10-10v-20c0-5.523-4.478-10-10-10zM316.036 110c-5.522 0-10 4.477-10 10v20c0 5.523 4.478 10 10 10s10-4.477 10-10v-20c0-5.523-4.478-10-10-10zM276.037 150h-40c-5.522 0-10 4.477-10 10s4.478 10 10 10h40c5.522 0 10-4.477 10-10s-4.478-10-10-10z" />
    </svg>
    <svg xmlns="http://www.w3.org/2000/svg" width="512" viewBox="0 0 512 512" height="512" id="j">
      <path d="M256 0C114.841 0 0 114.841 0 256s114.841 256 256 256c141.16 0 256-114.841 256-256S397.159 0 256 0zm173.721 415.579-28.948-28.947a195.324 195.324 0 0 0 32.251-48.779 10 10 0 0 0-1.38-10.589L411 302.391V209.61l20.645-24.873a10 10 0 0 0 1.38-10.589 195.139 195.139 0 0 0-32.242-48.787l28.939-28.94C468.372 138.463 492 194.524 492 256s-23.628 117.537-62.279 159.579zM99.852 335.084l18.842-22.697A10 10 0 0 0 121 306v-3.827l62.329 6.926a89.567 89.567 0 0 0 19.573 19.573L209.827 391H206a9.999 9.999 0 0 0-6.387 2.305l-22.696 18.838a175.612 175.612 0 0 1-77.065-77.059zM256 81c65.853 0 126.462 37.443 156.143 95.918l-18.838 22.695A9.999 9.999 0 0 0 391 206v3.828l-62.33-6.926C311.725 179.708 284.906 166 256 166s-55.724 13.708-72.67 36.902L121 209.827V206a9.999 9.999 0 0 0-2.305-6.387l-18.837-22.695C129.538 118.443 190.146 81 256 81zm-26.05 310-7.674-69.065a10 10 0 0 0-4.473-7.27 70.943 70.943 0 0 1-20.469-20.468 10 10 0 0 0-7.27-4.473L121 282.049V229.95l69.066-7.674a9.999 9.999 0 0 0 7.27-4.474C210.332 197.889 232.262 186 256 186s45.668 11.889 58.664 31.803a10.005 10.005 0 0 0 7.271 4.474L391 229.951v52.099l-69.065 7.674a10.004 10.004 0 0 0-7.27 4.472 70.934 70.934 0 0 1-20.469 20.469 9.998 9.998 0 0 0-4.473 7.27L282.049 391zm79.148-62.329a89.606 89.606 0 0 0 19.573-19.572L391 302.173V306c0 2.333.815 4.592 2.305 6.387l18.838 22.696a175.612 175.612 0 0 1-77.059 77.065l-22.696-18.842A9.997 9.997 0 0 0 306 391h-3.828zM415.579 82.278l-28.943 28.943a196.382 196.382 0 0 0-24.292-18.69C330.703 71.903 293.93 61 256 61s-74.703 10.903-106.344 31.531a196.393 196.393 0 0 0-24.293 18.69L96.421 82.278C138.463 43.628 194.524 20 256 20c61.475 0 117.536 23.627 159.579 62.278zM82.278 96.421l28.939 28.939a195.151 195.151 0 0 0-32.242 48.786 10.001 10.001 0 0 0 1.379 10.589L101 209.609v92.781l-20.65 24.875a9.999 9.999 0 0 0-1.379 10.59 195.306 195.306 0 0 0 32.254 48.777l-28.947 28.946C43.627 373.536 20 317.476 20 256S43.627 138.464 82.278 96.421zm14.143 333.301 28.947-28.947a195.303 195.303 0 0 0 48.779 32.25 10 10 0 0 0 10.589-1.379L209.609 411h92.781l24.874 20.65a9.995 9.995 0 0 0 10.591 1.38 195.282 195.282 0 0 0 48.777-32.255l28.947 28.947C373.536 468.373 317.475 492 256 492c-61.476 0-117.537-23.628-159.579-62.278z" />
      <path d="M306 256c0-27.57-22.43-50-50-50s-50 22.43-50 50 22.43 50 50 50 50-22.43 50-50zm-80 0c0-16.542 13.458-30 30-30s30 13.458 30 30-13.458 30-30 30-30-13.458-30-30zM65.007 256c0-5.523-4.477-10-10-10H55c-5.523 0-9.997 4.477-9.997 10s4.481 10 10.004 10 10-4.477 10-10zM61.867 202.719l-.007-.001c-5.399-1.152-10.713 2.283-11.87 7.684-1.157 5.4 2.286 10.717 7.686 11.874a10.06 10.06 0 0 0 2.105.224c4.614 0 8.763-3.213 9.769-7.907 1.157-5.401-2.283-10.717-7.683-11.874zM57.676 289.725l-.007.001c-5.4 1.157-8.836 6.473-7.679 11.873 1.006 4.694 5.156 7.906 9.771 7.906.694 0 1.399-.073 2.105-.224 5.4-1.157 8.84-6.473 7.683-11.874-1.156-5.399-6.47-8.835-11.873-7.682zM456.992 246c-5.522 0-10 4.477-10 10s4.478 10 10 10h.007c5.522 0 9.997-4.477 9.997-10s-4.481-10-10.004-10zM452.218 222.5c.694 0 1.399-.073 2.105-.224l.007-.001c5.399-1.157 8.836-6.473 7.679-11.873-1.157-5.401-6.48-8.836-11.877-7.682-5.399 1.157-8.84 6.473-7.683 11.874 1.006 4.693 5.155 7.906 9.769 7.906zM454.323 289.725c-5.407-1.153-10.717 2.283-11.874 7.683s2.283 10.716 7.683 11.874l.007.001c.707.151 1.411.224 2.105.224a10.002 10.002 0 0 0 2.079-19.782z" />
    </svg>
    <svg xmlns="http://www.w3.org/2000/svg" width="512" viewBox="0 0 512.067 512.067" height="512" id="k">
      <path d="M210.041 272.721c-18.504-10.683-40.061-13.521-60.697-7.991-20.638 5.53-37.887 18.766-48.569 37.269-10.683 18.503-13.521 40.059-7.991 60.696 5.53 20.638 18.765 37.887 37.269 48.57 12.326 7.116 26.003 10.751 39.864 10.751 6.947 0 13.943-.914 20.833-2.76 20.638-5.53 37.887-18.765 48.57-37.269 10.683-18.503 13.521-40.059 7.991-60.696-5.531-20.638-18.767-37.887-37.27-48.57zm11.957 99.266c-8.012 13.877-20.948 23.803-36.425 27.95-15.476 4.146-31.644 2.019-45.52-5.993-13.877-8.012-23.803-20.948-27.95-36.425s-2.019-31.644 5.993-45.52 20.948-23.803 36.425-27.95a60.313 60.313 0 0 1 15.624-2.07c10.395 0 20.654 2.727 29.896 8.063 13.877 8.012 23.803 20.948 27.95 36.425s2.019 31.644-5.993 45.52z" />
      <path d="M489.221 85.033C466.52 45.714 429.867 17.589 386.012 5.838c-90.531-24.258-183.917 29.66-208.174 120.189a169.647 169.647 0 0 0-5.782 45.929c-15.334-.158-30.785 1.778-46.002 5.855-43.854 11.751-80.508 39.877-103.208 79.196C.144 296.326-5.886 342.131 5.865 385.986c11.75 43.854 39.876 80.508 79.195 103.209 26.192 15.122 55.256 22.845 84.71 22.845 14.762 0 29.627-1.942 44.269-5.865 43.854-11.75 80.508-39.876 103.209-79.195 15.512-26.868 23.24-56.766 22.829-87 .62.007 1.24.01 1.859.01 35.534-.001 70.498-11.212 99.431-32.054 31.698-22.833 54.723-56.19 64.834-93.924 11.751-43.854 5.721-89.66-16.98-128.979zm-.086 55.916-23.806 6.379-5.174-19.312 23.774-6.371a150.031 150.031 0 0 1 5.206 19.304zM390.406 28.062l-6.383 23.822-19.312-5.175 6.383-23.822a151.57 151.57 0 0 1 19.312 5.175zM243.31 57.173l17.404 17.404-14.137 14.137-17.427-17.428a150.044 150.044 0 0 1 14.16-14.113zM131.231 197.13a153.118 153.118 0 0 1 9.74-2.272l6.384 23.825-19.312 5.174-6.384-23.825a153.625 153.625 0 0 1 9.572-2.902zM28.05 293.596l23.862 6.394-5.175 19.312-23.893-6.402a148.686 148.686 0 0 1 5.206-19.304zM57.113 440.79l17.491-17.491 14.137 14.137-17.469 17.468a148.536 148.536 0 0 1-14.159-14.114zm151.75 46.066a153.118 153.118 0 0 1-9.74 2.272l-6.384-23.826 19.311-5.174 6.384 23.826a153.595 153.595 0 0 1-9.571 2.902zm28.202-10.644-8.284-30.919c-1.429-5.335-6.911-8.503-12.248-7.071l-38.63 10.351c-5.334 1.429-8.5 6.913-7.071 12.247l8.284 30.919c-29.143 1.825-58.19-4.931-84.056-19.865a153.235 153.235 0 0 1-7.711-4.761l22.605-22.605c3.905-3.905 3.905-10.237 0-14.143l-28.279-28.279c-3.905-3.905-10.237-3.905-14.143 0l-22.655 22.655c-8.778-13.306-15.447-28.086-19.693-43.932s-5.86-31.981-4.911-47.893l30.948 8.293a10.002 10.002 0 0 0 12.247-7.071l10.351-38.63a9.997 9.997 0 0 0-7.071-12.247l-30.879-8.274c1.348-2.69 2.78-5.351 4.297-7.979 14.934-25.866 36.711-46.241 62.863-59.232l8.285 30.919c1.197 4.468 5.237 7.415 9.653 7.414.856 0 1.728-.111 2.594-.343l38.63-10.351a10 10 0 0 0 7.071-12.247l-8.285-30.918c29.143-1.825 58.191 4.931 84.056 19.864a152.802 152.802 0 0 1 7.711 4.762l-22.605 22.605a10.001 10.001 0 0 0 0 14.142l28.279 28.279a10.001 10.001 0 0 0 14.142 0l22.655-22.655c8.778 13.306 15.448 28.086 19.694 43.933 4.246 15.846 5.86 31.981 4.911 47.893l-30.948-8.292c-5.333-1.43-10.818 1.736-12.247 7.071l-10.351 38.63c-1.43 5.335 1.736 10.818 7.071 12.248l30.879 8.274a153.666 153.666 0 0 1-4.297 7.979c-14.933 25.863-36.711 46.238-62.862 59.229zm45.916-233.016-17.491 17.491-14.137-14.137 17.469-17.468a148.769 148.769 0 0 1 14.159 14.114zm1.094-88.703c7.173-26.771 31.473-44.469 57.958-44.469a59.87 59.87 0 0 1 15.512 2.051c31.951 8.562 50.979 41.52 42.418 73.471-4.147 15.478-14.073 28.414-27.95 36.425-13.876 8.012-30.042 10.14-45.52 5.993s-28.414-14.074-36.425-27.951c-8.012-13.876-10.14-30.042-5.993-45.52zm27.969 235.897-23.862-6.394 5.174-19.311 23.893 6.402a148.668 148.668 0 0 1-5.205 19.303zm128.621-107.589-17.339-17.338 14.137-14.137 17.363 17.363a151.25 151.25 0 0 1-14.161 14.112zm46.218-73.966a148.724 148.724 0 0 1-19.789 43.837l-22.56-22.56c-3.905-3.905-10.237-3.905-14.143 0l-28.279 28.279c-3.905 3.905-3.905 10.237 0 14.143l22.496 22.496c-24.917 16.48-54.752 25.631-85.995 24.923A172.605 172.605 0 0 0 334.228 298c-5.441-20.307-14.394-39.069-26.342-55.617a80.885 80.885 0 0 0 13.431 4.899 80.413 80.413 0 0 0 20.833 2.76c13.86 0 27.54-3.635 39.864-10.751 18.503-10.683 31.739-27.932 37.269-48.569 11.416-42.603-13.958-86.55-56.56-97.966-42.599-11.414-86.549 13.958-97.965 56.56-4.97 18.55-3.181 37.842 4.99 54.992a172.918 172.918 0 0 0-14.713-9.516c-19.708-11.378-41.045-18.568-62.95-21.43a149.629 149.629 0 0 1 5.073-42.157c4.295-16.028 11.046-30.756 19.74-43.886l22.609 22.609c1.953 1.953 4.512 2.929 7.071 2.929s5.119-.977 7.071-2.929l28.279-28.279a10.001 10.001 0 0 0 0-14.142l-22.552-22.552c26.617-17.567 58.699-26.657 91.706-24.65l-8.277 30.89c-1.43 5.334 1.736 10.818 7.071 12.247l38.63 10.351c.867.232 1.738.343 2.595.343 4.415 0 8.456-2.947 9.653-7.414l8.277-30.889c29.589 14.765 52.828 38.679 67.095 67.2l-30.806 8.255c-5.334 1.429-8.5 6.913-7.071 12.247l10.351 38.63a10 10 0 0 0 12.247 7.071l30.885-8.276c.963 15.717-.554 31.847-4.849 47.875z" />
    </svg>
    <svg xmlns="http://www.w3.org/2000/svg" width="512" viewBox="0 0 512.036 512.036" height="512" id="l">
      <path d="m509.653 437.646-59.777-242.862-.051-.198c-18.562-69.275-63.1-113.812-132.375-132.374a7.195 7.195 0 0 0-.198-.051L74.391 2.383C36.692-6.896 11.444 12.344 3.148 35.528c-4.395 12.282-4.182 25.662.6 37.675 5.222 13.121 15.363 23.584 29.327 30.259l177.197 84.705c31.929 15.263 54.559 29.792 69.183 44.417 14.625 14.625 29.154 37.255 44.417 69.183l84.705 177.197c6.675 13.964 17.139 24.104 30.259 29.327a52.926 52.926 0 0 0 19.584 3.747 53.686 53.686 0 0 0 18.09-3.148c23.183-8.297 42.423-33.543 33.143-71.244zm-113.874-31.823 77.803-31.041 7.551 30.679-71.829 28.657zM342.34 294.031c33.223-.073 64.933-13.143 88.831-37.04a126.339 126.339 0 0 0 10.491-11.898l27.095 110.082-81.622 32.564zm-264.421-191.3 28.657-71.828 30.68 7.551-31.041 77.803zm-55.94-60.465c3.992-11.156 15.012-22.244 33.842-22.244 4.204 0 8.799.553 13.789 1.782l17.357 4.272-27.133 68.01L41.7 85.417c-20.742-9.914-24.85-28.816-19.721-43.151zm102.319 82.635 32.564-81.622 110.081 27.095a126.59 126.59 0 0 0-11.898 10.491c-23.897 23.898-36.967 55.606-37.04 88.83zm114.173 55.092c-2.933-31.614 8.164-62.431 30.717-84.985a106.286 106.286 0 0 1 24.202-18.124l18.985 4.673c62.65 16.818 101.286 55.454 118.104 118.104l4.673 18.986a106.248 106.248 0 0 1-18.125 24.201c-22.553 22.553-53.373 33.649-84.985 30.717-12.834-24.035-25.497-42.175-38.447-55.125-12.948-12.949-31.088-25.612-55.124-38.447zm231.3 310.065c-14.335 5.128-33.237 1.02-43.152-19.721l-8.669-18.134 68.01-27.134 4.272 17.358c6.731 27.344-6.816 42.748-20.461 47.631z" />
      <path d="M341.06 205.976c9.349 0 18.138-3.641 24.749-10.251 13.646-13.646 13.646-35.852 0-49.498-13.647-13.646-35.851-13.646-49.498 0-13.646 13.646-13.646 35.852 0 49.498 6.611 6.611 15.401 10.251 24.749 10.251zm-10.606-45.606a14.955 14.955 0 0 1 10.607-4.386 14.95 14.95 0 0 1 10.606 4.386c5.849 5.848 5.849 15.365 0 21.213a14.901 14.901 0 0 1-10.606 4.393c-4.007 0-7.773-1.56-10.606-4.394-5.85-5.847-5.85-15.364-.001-21.212z" />
    </svg>
    <svg xmlns="http://www.w3.org/2000/svg" width="512" viewBox="0 0 512 512" height="512" id="m">
      <path d="M92 287c-16.818 0-30.5 13.683-30.5 30.5V379c0 5.522 4.477 10 10 10s10-4.478 10-10v-20.751h21V379c0 5.522 4.477 10 10 10s10-4.478 10-10v-61.5c0-16.818-13.682-30.5-30.5-30.5zm10.5 51.249h-21V317.5c0-5.79 4.71-10.5 10.5-10.5s10.5 4.71 10.5 10.5zM399.5 389H420c16.817 0 30.5-13.683 30.5-30.5v-41c0-16.817-13.683-30.5-30.5-30.5h-20.5c-5.522 0-10 4.478-10 10v82c0 5.522 4.478 10 10 10zm10-82H420c5.79 0 10.5 4.71 10.5 10.5v41c0 5.79-4.71 10.5-10.5 10.5h-10.5zM265.278 331.018l-10.901-4.515c-2.482-1.027-4.423-2.98-5.466-5.497-1.043-2.518-1.051-5.271-.022-7.754 1.028-2.482 2.98-4.424 5.497-5.467 2.517-1.04 5.271-1.051 7.753-.022l5.45 2.258c5.105 2.115 10.953-.309 13.065-5.411 2.114-5.103-.309-10.952-5.411-13.065l-5.451-2.259c-7.416-3.072-15.608-3.065-23.06.022-7.453 3.088-13.25 8.873-16.321 16.291-3.073 7.418-3.065 15.607.022 23.061s8.872 13.249 16.291 16.322l10.899 4.514c5.166 2.141 7.628 8.084 5.487 13.252-1.027 2.481-2.979 4.423-5.497 5.466-2.516 1.042-5.27 1.051-7.754.021l-5.45-2.257c-5.102-2.115-10.952.312-13.065 5.413-2.113 5.104.311 10.952 5.414 13.065l5.449 2.257a29.98 29.98 0 0 0 11.488 2.298c3.916 0 7.836-.773 11.572-2.32 7.454-3.088 13.251-8.874 16.322-16.291 6.36-15.354-.957-33.02-16.311-39.382zM226.812 215.779a10.001 10.001 0 0 0 19.024 3.465L256 197.562l10.165 21.683a10.003 10.003 0 0 0 10.847 5.593 10 10 0 0 0 8.178-9.06l6.405-82c.43-5.506-3.685-10.318-9.191-10.748-5.497-.435-10.318 3.685-10.748 9.191l-3.456 44.244-3.145-6.708a9.999 9.999 0 0 0-18.109.001l-3.144 6.707-3.457-44.245c-.43-5.506-5.236-9.609-10.749-9.19-5.506.431-9.621 5.242-9.191 10.749z" />
      <path d="M502 246H348V92c0-5.522-4.478-10-10-10H174c-5.523 0-10 4.478-10 10v154H10c-5.523 0-10 4.478-10 10v164c0 5.522 4.477 10 10 10h492c5.522 0 10-4.478 10-10V256c0-5.523-4.478-10-10-10zm-318 20h144v144H184zm144-164v144H184V102zM20 266h144v144H20zm472 144H348V266h144z" />
    </svg>
    <svg xmlns="http://www.w3.org/2000/svg" width="512" viewBox="0 0 512.001 512.001" height="512" id="n">
      <path d="M341 167.113H171c-5.522 0-10 4.478-10 10v160.001c0 5.522 4.478 10 10 10h170c5.522 0 10-4.478 10-10V177.113c0-5.523-4.478-10-10-10zm-10 160.001H181V187.113h150zM125.5 262.114h-20v-20c0-5.522-4.478-10-10-10s-10 4.478-10 10v20h-20c-5.522 0-10 4.478-10 10s4.478 10 10 10h20v20c0 5.522 4.478 10 10 10s10-4.478 10-10v-20h20c5.522 0 10-4.478 10-10s-4.478-10-10-10zM416.501 252.114c5.522 0 10-4.478 10-10s-4.478-10-10-10h-.008c-5.522 0-9.996 4.478-9.996 10s4.482 10 10.004 10zM386.5 262.114c-5.522 0-10 4.478-10 10v.007c0 5.522 4.478 9.997 10 9.997s10-4.481 10-10.004-4.478-10-10-10zM416.5 292.114c-5.522 0-10 4.478-10 10s4.478 10 10 10h.008c5.522 0 9.996-4.478 9.996-10s-4.482-10-10.004-10zM446.501 262.11c-5.522 0-10 4.481-10 10.004s4.478 10 10 10 10-4.478 10-10v-.007c0-5.523-4.478-9.997-10-9.997z" />
      <path d="m476.641 179.199 15.497-35.288a10 10 0 0 0-4.156-12.681l-51.962-30.001a9.998 9.998 0 0 0-13.133 2.841l-22.183 31.001a139.834 139.834 0 0 0-24.499-2.895l-17.133-17.134a10.003 10.003 0 0 0-7.071-2.929H159.999a10.001 10.001 0 0 0-7.071 2.929l-17.133 17.134a139.834 139.834 0 0 0-24.498 2.895L89.113 104.07a10.001 10.001 0 0 0-13.133-2.841L24.02 131.23a10 10 0 0 0-4.156 12.681l15.497 35.288C13.372 203.935 0 236.492 0 272.114c0 77.196 62.804 140 140 140h31c2.652 0 5.195-1.054 7.071-2.929l17.071-17.071h121.716l17.07 17.071a10.001 10.001 0 0 0 7.071 2.929H372c77.196 0 140-62.804 140-140 .001-35.622-13.371-68.179-35.359-92.915zm-42.767-56.115 36.35 20.987-8.916 20.302a140.06 140.06 0 0 0-40.242-23.389zm-355.748 0 12.809 17.9a140.073 140.073 0 0 0-40.242 23.389l-8.916-20.302zm293.875 269.03h-26.858l-17.07-17.071a10.001 10.001 0 0 0-7.071-2.929H191a10.003 10.003 0 0 0-7.071 2.929l-17.071 17.071H140c-66.168 0-120-53.832-120-120s53.832-120 120-120c2.652 0 5.196-1.054 7.071-2.929l17.07-17.071H178.5v4.999c0 5.522 4.478 10 10 10s10-4.478 10-10v-4.999h25v4.999c0 5.522 4.478 10 10 10s10-4.478 10-10v-4.999h25v4.999c0 5.522 4.478 10 10 10s10-4.478 10-10v-4.999h25v4.999c0 5.522 4.478 10 10 10s10-4.478 10-10v-4.999h14.358l17.071 17.071a10.003 10.003 0 0 0 7.071 2.929c66.168 0 120 53.832 120 120s-53.831 120-119.999 120z" />
    </svg>
    <svg xmlns="http://www.w3.org/2000/svg" width="512" viewBox="0 0 511.999 511.999" height="512" id="o">
      <path d="M396 111.999h-59.395A84.683 84.683 0 0 0 341 85c0-46.869-38.131-85-85-85s-85 38.131-85 85a84.655 84.655 0 0 0 4.395 26.999H116c-16.542 0-30 13.458-30 30v340c0 16.542 13.458 30 30 30h280c16.542 0 30-13.458 30-30v-340c0-16.542-13.458-30-30-30zM256 20c35.841 0 65 29.159 65 65s-29.159 65-65 65-65-29.159-65-65 29.158-65 65-65zm0 326.999c19.299 0 35-15.701 35-35v-71.96c27.343 13.206 45 40.792 45 71.96 0 44.112-35.888 80-80 80s-80-35.888-80-80c0-31.168 17.657-58.753 45-71.96v71.96c0 19.299 15.7 35 35 35zm15-35c0 8.271-6.729 15-15 15s-15-6.729-15-15V168.675c4.87.871 9.883 1.325 15 1.325s10.13-.455 15-1.325zm-165-170c0-5.514 4.486-10 10-10h69.207c8.803 13.216 21.204 23.839 35.794 30.457v55.864c-18.2 6.774-33.827 18.541-45.45 34.284C162.76 269.927 156 290.466 156 311.999c0 55.141 44.86 100 100 100s100-44.859 100-100c0-21.532-6.76-42.07-19.548-59.394-11.624-15.744-27.252-27.51-45.452-34.285v-55.864c14.589-6.618 26.991-17.241 35.794-30.457H396c5.514 0 10 4.486 10 10v280c0 5.514-4.486 10-10 10H116c-5.514 0-10-4.486-10-10zm290 350H116c-5.514 0-10-4.486-10-10v-31.714a29.879 29.879 0 0 0 10 1.714h280c3.505 0 6.871-.604 10-1.714v31.714c0 5.514-4.486 10-10 10z" />
      <path d="M155.999 211.999c16.542 0 30-13.458 30-30.001 0-16.542-13.458-30-30-30s-30 13.458-30 30c0 16.543 13.458 30.001 30 30.001zm0-40.001c5.514 0 10 4.486 10 10 0 5.515-4.486 10.001-10 10.001s-10-4.486-10-10.001c0-5.514 4.486-10 10-10zM256.003 60.001c5.523 0 10-4.478 10-10s-4.477-10-10-10h-.007c-5.523 0-9.997 4.478-9.997 10s4.481 10 10.004 10z" />
    </svg>
    <svg xmlns="http://www.w3.org/2000/svg" width="512" viewBox="0 0 512.002 512.002" height="512" id="p">
      <path d="M446.979 153.832c-24.44-36.416-58.387-64.805-98.435-82.391l21.649-57.94A10 10 0 0 0 360.825 0H201.874a10 10 0 0 0-9.697 7.555l-14.69 58.263C86.813 98.749 26.001 185.429 26.001 282.002c0 61.435 23.924 119.193 67.365 162.634s101.2 67.366 162.635 67.366 119.194-23.924 162.635-67.365 67.365-101.2 67.365-162.635c0-45.811-13.494-90.132-39.022-128.17zM132.671 259.291a10 10 0 0 0 7.87 3.864l77.198.2-15.743 134.482a9.999 9.999 0 0 0 9.929 11.164 10 10 0 0 0 8.034-4.042l147.033-198.18a10.001 10.001 0 0 0-8.253-15.956l-55.262 1.228 22.265-59.587c58.108 27.048 95.259 84.967 95.259 149.539 0 90.981-74.019 165-165 165s-165-74.019-165-165c0-51.798 24.484-100.364 65.085-131.3L130.87 250.71a10.002 10.002 0 0 0 1.801 8.581zM209.665 20h136.748l-66.836 178.875a10 10 0 0 0 1.215 9.292c1.921 2.705 5.03 4.312 8.375 4.206l49.589-1.102-112.54 151.688 12.691-108.413A9.997 9.997 0 0 0 229 243.384l-75.607-.196zm46.336 472.002c-115.794 0-210-94.206-210-210 0-83.525 49.822-158.944 125.445-192.224l-8.092 32.094c-56.998 32.979-92.353 94.221-92.353 160.13 0 102.009 82.991 185 185 185s185-82.991 185-185c0-36.732-10.791-72.289-31.208-102.825-19.189-28.701-45.727-51.239-77.032-65.5l8.77-23.47c75.831 33.761 124.47 108.344 124.47 191.795 0 115.794-94.206 210-210 210z" />
    </svg>
    <svg xmlns="http://www.w3.org/2000/svg" width="512" viewBox="0 0 511.985 511.985" height="512" id="q">
      <path d="M241.547 364.217h.067c5.523-.037 9.97-4.543 9.934-10.066-.028-4.228.928-9.652 5.644-11.486 3.857-1.502 9.036-.297 11.787 2.743 3.358 3.712 1.747 9.04-.196 12.855l-1.352 2.646c-10.337 20.215-19.617 39.557-19.621 53.996a10.004 10.004 0 0 0 10 10.003c.865 0 1.735-.112 2.588-.341l38.635-10.352c5.335-1.43 8.501-6.912 7.071-12.247-1.43-5.334-6.914-8.502-12.247-7.071l-22.849 6.122c3.814-10.637 10.182-23.087 14.23-31.004l1.366-2.677c6.582-12.925 5.537-26.14-2.795-35.349-8.329-9.206-22.255-12.484-33.869-7.965-11.612 4.518-18.488 15.829-18.393 30.259.038 5.5 4.508 9.934 10 9.934zM176.146 364.325l4.828-1.294 15.528 57.95-4.829 1.294c-5.335 1.43-8.501 6.912-7.071 12.247 1.197 4.468 5.237 7.415 9.653 7.415a9.98 9.98 0 0 0 2.594-.344l28.976-7.764c5.335-1.43 8.501-6.912 7.071-12.247-1.429-5.334-6.912-8.501-12.247-7.071l-4.829 1.294-18.116-67.609c-1.43-5.334-6.914-8.501-12.248-7.071l-14.487 3.882c-5.334 1.43-8.5 6.913-7.071 12.247 1.43 5.334 6.911 8.5 12.248 7.071zM381.993 0C310.315 0 252 58.314 252 129.992s58.314 129.992 129.992 129.992 129.992-58.314 129.992-129.992S453.67 0 381.993 0zm0 239.984c-60.65 0-109.992-49.342-109.992-109.992S321.342 20 381.993 20s109.992 49.342 109.992 109.992-49.342 109.992-109.992 109.992z" />
      <path d="M381.993 79.995c-16.542 0-29.999 13.457-29.999 29.998 0 7.676 2.898 14.688 7.657 19.999-4.759 5.311-7.657 12.322-7.657 19.998 0 16.542 13.457 29.999 29.999 29.999 16.541 0 29.998-13.457 29.998-29.999 0-7.676-2.898-14.687-7.657-19.998 4.759-5.311 7.657-12.323 7.657-19.999 0-16.541-13.457-29.998-29.998-29.998zm0 20c5.513 0 9.998 4.485 9.998 9.998 0 5.514-4.485 9.999-9.998 9.999-5.514 0-9.999-4.485-9.999-9.999 0-5.513 4.485-9.998 9.999-9.998zm0 59.994c-5.514 0-9.999-4.485-9.999-9.999 0-5.513 4.485-9.998 9.999-9.998 5.513 0 9.998 4.485 9.998 9.998 0 5.514-4.486 9.999-9.998 9.999zM299.997 269.401c-13.239-7.644-27.44-12.816-42.051-15.445-8.882-49.506-45.376-89.429-94.294-102.536-33.54-8.987-68.57-4.376-98.641 12.986-30.07 17.361-51.58 45.394-60.566 78.933-18.552 69.235 22.683 140.655 91.919 159.207 3.51.94 7.085 1.737 10.678 2.383a132.887 132.887 0 0 0 2.397 10.693c15.544 58.012 68.201 96.365 125.594 96.363a129.815 129.815 0 0 0 33.614-4.444c33.539-8.987 61.571-30.497 78.933-60.567 17.36-30.07 21.973-65.102 12.985-98.64-8.987-33.54-30.497-61.572-60.568-78.933zm-93.463 6.332c22.201-5.949 45.178-4.855 66.311 2.937l-122.271 32.763c14.406-17.316 33.756-29.751 55.96-35.7zm-48.058-104.994c22.435 6.011 41.781 18.688 55.993 35.708l-122.303-32.77c21.132-7.793 44.107-8.887 66.31-2.938zM23.763 248.516c6.69-24.966 21.581-46.325 42.39-61.104l163.967 43.935a110.056 110.056 0 0 1 6.998 20.596c-11.917-.176-23.932 1.302-35.761 4.472-33.54 8.986-61.572 30.496-78.933 60.566a131.05 131.05 0 0 0-11.866 27.252l-80.565-21.587c-10.275-22.455-13.106-48.47-6.23-74.13zm77.776 134.713c-22.692-6.081-41.829-18.873-55.849-35.67l60.528 16.219a128.524 128.524 0 0 0-1.245 20.312 116.39 116.39 0 0 1-3.434-.861zm27.218 27.217c-6.689-24.967-4.473-50.91 6.158-74.112l163.942-43.929c20.809 14.778 35.699 36.138 42.389 61.104s4.474 50.909-6.158 74.111l-163.871 43.91c-20.126-14.309-35.584-35.424-42.46-61.084zm134.713 77.777c-22.693 6.082-45.664 4.572-66.205-2.967l122.163-32.734c-14.405 17.316-33.755 29.751-55.958 35.701z" />
    </svg>
  </defs>
  <g data-name="034-game controller.svg">
    <g transform="rotate(36 -459.871 718.627) scale(.24414)">
      <path fill="transparent" d="M0 0h512v512H0z" />
      <use xlink:href="#a" />
    </g>
    <g transform="rotate(36 328.016 462.63) scale(.24414)">
      <path fill="transparent" d="M0 0h512v512H0z" />
      <use xlink:href="#a" />
    </g>
  </g>
  <g data-name="028-mouse.svg">
    <g transform="rotate(-4.998 5120.239 2.07) scale(.24414)">
      <path fill="transparent" d="M0 0h512v512H0z" />
      <use xlink:href="#b" />
    </g>
    <g transform="rotate(-4.998 -743.125 -253.758) scale(.24414)">
      <path fill="transparent" d="M0 0h512v512H0z" />
      <use xlink:href="#b" />
    </g>
  </g>
  <g data-name="027-bomb.svg">
    <g transform="rotate(10.999 -2018.733 1112.629) scale(.24414)">
      <path fill="transparent" d="M0 0h512v512H0z" />
      <use xlink:href="#c" />
    </g>
    <g transform="rotate(10.999 639.929 856.664) scale(.24414)">
      <path fill="transparent" d="M0 0h512v512H0z" />
      <use xlink:href="#c" />
    </g>
  </g>
  <g transform="rotate(7.999 -122.609 662.663) scale(.24414)" data-name="015-gaming chair.svg">
    <path fill="transparent" d="M0 0h512v512H0z" />
    <use xlink:href="#d" />
  </g>
  <g data-name="025-dice.svg">
    <g transform="rotate(-20 1617.665 -841.512) scale(.24414)">
      <path fill="transparent" d="M0 0h512v512H0z" />
      <use xlink:href="#e" />
    </g>
    <g transform="rotate(-20 165.817 -1097.502) scale(.24414)">
      <path fill="transparent" d="M0 0h512v512H0z" />
      <use xlink:href="#e" />
    </g>
    <g transform="rotate(-20 1361.676 610.336) scale(.24414)">
      <path fill="transparent" d="M0 0h512v512H0z" />
      <use xlink:href="#e" />
    </g>
    <g transform="rotate(-20 -90.172 354.347) scale(.24414)">
      <path fill="transparent" d="M0 0h512v512H0z" />
      <use xlink:href="#e" />
    </g>
  </g>
  <g data-name="010-universe.svg">
    <g transform="rotate(.992 -19199.947 23193.677) scale(.24414)">
      <path fill="transparent" d="M0 0h512v512H0z" />
      <use xlink:href="#f" />
    </g>
    <g transform="rotate(.992 -19451.644 -6141.016) scale(.24414)">
      <path fill="transparent" d="M0 0h512v512H0z" />
      <use xlink:href="#f" />
    </g>
  </g>
  <g data-name="016-axe.svg">
    <g transform="rotate(-10.999 1996.457 -2484.563) scale(.24414)">
      <path fill="transparent" d="M0 0h512v512H0z" />
      <use xlink:href="#g" />
    </g>
    <g transform="rotate(-10.999 1740.493 174.099) scale(.24414)">
      <path fill="transparent" d="M0 0h512v512H0z" />
      <use xlink:href="#g" />
    </g>
  </g>
  <g transform="rotate(-8.999 903.696 -847.23) scale(.24414)" data-name="017-vr goggles.svg">
    <path fill="transparent" d="M0 0h512v512H0z" />
    <use xlink:href="#h" />
  </g>
  <g transform="rotate(14.999 -1051.626 777.346) scale(.24414)" data-name="012-robot.svg">
    <path fill="transparent" d="M0 0h512v512H0z" />
    <use xlink:href="#i" />
  </g>
  <g transform="rotate(-25 380.54 -583.727) scale(.24414)" data-name="023-steering wheel.svg">
    <path fill="transparent" d="M0 0h512v512H0z" />
    <use xlink:href="#j" />
  </g>
  <g data-name="007-poker chip.svg">
    <g transform="rotate(9.999 -93.18 2710.044) scale(.24414)">
      <path fill="transparent" d="M0 0h512v512H0z" />
      <use xlink:href="#k" />
    </g>
    <g transform="rotate(9.999 -349.137 -216.049) scale(.24414)">
      <path fill="transparent" d="M0 0h512v512H0z" />
      <use xlink:href="#k" />
    </g>
  </g>
  <g transform="rotate(-60 329.738 71.507) scale(.24414)" data-name="006-boomerang.svg">
    <path fill="transparent" d="M0 0h512v512H0z" />
    <use xlink:href="#l" />
  </g>
  <g data-name="038-keyboard.svg">
    <g transform="rotate(-69 541.39 181.717) scale(.24414)">
      <path fill="transparent" d="M0 0h512v512H0z" />
      <use xlink:href="#m" />
    </g>
    <g transform="rotate(-69 168.907 -74.282) scale(.24414)">
      <path fill="transparent" d="M0 0h512v512H0z" />
      <use xlink:href="#m" />
    </g>
  </g>
  <g transform="rotate(-6.999 1791.37 -2165.851) scale(.24414)" data-name="050-gamepad.svg">
    <path fill="transparent" d="M0 0h512v512H0z" />
    <use xlink:href="#n" />
  </g>
  <g data-name="026-joystick.svg">
    <g transform="rotate(-15.999 972.76 -1297.93) scale(.24414)">
      <path fill="transparent" d="M0 0h512v512H0z" />
      <use xlink:href="#o" />
    </g>
    <g transform="rotate(-15.999 716.777 523.605) scale(.24414)">
      <path fill="transparent" d="M0 0h512v512H0z" />
      <use xlink:href="#o" />
    </g>
  </g>
  <g data-name="013-energy.svg">
    <g transform="rotate(12.999 -419.686 2450.625) scale(.24414)">
      <path fill="transparent" d="M0 0h512v512H0z" />
      <use xlink:href="#p" />
    </g>
    <g transform="rotate(12.999 -675.66 203.742) scale(.24414)">
      <path fill="transparent" d="M0 0h512v512H0z" />
      <use xlink:href="#p" />
    </g>
  </g>
  <g transform="rotate(17 -773.416 1157.099) scale(.25)" data-name="043-billiard.svg">
    <path fill="transparent" d="M0 0h512v512H0z" />
    <use xlink:href="#q" />
  </g>
</svg>
