<svg xmlns="http://www.w3.org/2000/svg" xmlns:xlink="http://www.w3.org/1999/xlink" width="512" height="512" viewBox="0 0 512 512">
  <defs>
    <svg xmlns="http://www.w3.org/2000/svg" width="512pt" viewBox="-113 0 512 512.002" height="512pt" id="a">
      <path d="M271.46 148.707c-13.702-21.95-35.046-47.844-60.093-72.89-25.047-25.047-50.937-46.387-72.89-60.094C112.074-.762 94.69-4.247 85.375 5.09c-9.79 9.789-5.41 28.539 13.39 57.32l2.215 3.399 26.332 3.761-11.945 15.93 4.414 5.43c9.656 11.902 20.489 23.82 31.969 35.558-4.219-.172-8.445-.375-12.645-.375C59.797 126.113 0 153.125 0 188.933V449.18c0 35.808 59.797 62.824 139.105 62.824 79.305 0 139.102-27.016 139.102-62.824V204.563c1.402-.735 2.738-1.594 3.898-2.754 9.325-9.325 5.84-26.7-10.644-53.102zm-132.362-4.64c10.77 0 21.644.593 32.379 1.777.636.582 1.308 1.176 1.957 1.77 1.57 1.433 3.168 2.87 4.78 4.323 1.466 1.313 2.911 2.614 4.4 3.922a522.591 522.591 0 0 0 7.85 6.73c1.224 1.024 2.442 2.013 3.673 3.028a395.584 395.584 0 0 0 6.316 5.098c.969.773 1.942 1.535 2.918 2.297 6.453 5.027 12.961 9.773 19.375 14.054.594.395 1.176.774 1.777 1.157a234.644 234.644 0 0 0 7.45 4.675c.925.559 1.851 1.114 2.765 1.645a160.68 160.68 0 0 0 6.219 3.383 122.072 122.072 0 0 0 6.84 3.277c.984.43 1.992.914 2.95 1.3.648.263 1.339.63 1.964.86-12.895 12.739-41.883 24.305-80.606 28.637-1.66.18-3.304.371-5 .531-1.667.153-3.363.285-5.07.414-2.308.168-4.648.32-7.02.438-1.37.07-2.745.152-4.144.199-3.86.14-7.773.242-11.785.242-71.399 0-121.152-23.648-121.152-44.87 0-21.227 49.761-44.888 121.164-44.888zM17.94 315.722c6.625 2.242 25.418 7.261 25.418 7.261 59.743 14.008 67.426 15.813 73.375 64.024.7 5.722.215 13.453-6.074 17.832-4.922 3.426-25.496 12.238-83.867-17.934a177.8 177.8 0 0 1-8.848-4.898c-.004 0-.004-66.285-.004-66.285zm242.313 133.476c0 21.223-49.754 44.871-121.156 44.871-71.399 0-121.153-23.648-121.153-44.87v-10.985c24.34 21.922 70.61 37.441 121.153 37.441 50.543 0 96.816-15.527 121.156-37.441zm0-44.87c0 21.5-50.879 53.378-121.156 53.378S17.945 425.82 17.945 404.328v-1.797c.196.11.41.235.61.332 34.675 17.914 58.925 23.871 75.851 23.871 12.332-.007 20.766-3.168 26.5-7.16 10.645-7.402 15.492-19.754 13.633-34.758-7.387-59.949-28.117-65.234-87.68-79.21 0 0-21.304-6.145-28.914-8.93v-31.52c23.47 18.84 67.91 31.008 121.153 31.008 53.246 0 97.687-12.168 121.156-31.008zm0-170.985c0 21.226-49.754 44.875-121.156 44.875-71.399 0-121.153-23.649-121.153-44.875v-12.59c.5.406 1.137.754 1.66 1.148a87.595 87.595 0 0 0 6.567 4.536c.953.59 1.887 1.183 2.883 1.765a117.73 117.73 0 0 0 9.226 4.82c.43.196.805.422 1.246.625 3.723 1.7 7.72 3.262 11.883 4.75 1.164.422 2.395.797 3.598 1.204 3.21 1.066 6.531 2.07 9.969 3.015 1.375.375 2.722.754 4.128 1.102a229.532 229.532 0 0 0 13.606 3.015c.344.063.664.153 1.016.215 5.03.934 10.285 1.7 15.632 2.371 1.543.196 3.121.348 4.692.52 4.074.441 8.219.808 12.437 1.097 1.68.114 3.34.243 5.035.32 5.754.298 11.586.505 17.57.505 5.747 0 11.364-.2 16.919-.485 1.715-.09 3.41-.18 5.097-.297 4.434-.304 8.805-.683 13.086-1.16 2.918-.312 5.735-.707 8.563-1.11 2.34-.331 4.676-.675 6.953-1.062 2.988-.492 5.914-1.02 8.785-1.605.457-.09.899-.207 1.356-.293a221.272 221.272 0 0 0 18.867-4.82c.277-.082.554-.168.824-.25 9.387-2.918 17.824-6.328 25.227-10.207.296-.153.593-.305.882-.457 5.41-2.887 10.446-5.93 14.602-9.27zm9.008-44.457-1.418-.082c-12.492-.727-44.809-19.223-86.27-58.09l-2.144-2.02h-.04c-3.472-3.304-7-6.715-10.597-10.312-10.992-10.996-21.27-22.195-30.637-33.367l21.7-28.934-48.247-6.89C98.605 28.503 98.13 20.042 98.301 17.894c9.539-1.641 49.117 19.359 100.379 70.601 51.277 51.309 72.414 91.11 70.582 100.39zm0 0" />
      <path d="m94.262 153.742 8.902 15.578-62.812 35.899-8.903-15.578zm63.258 15.266-80.778 53.844-9.953-14.934 80.777-53.844zm36.32 8.695-71.797 53.848-10.758-14.352 71.797-53.847zm27.148 17.777-44.87 35.899-11.22-14.027 44.872-35.899zm0 0" />
    </svg>
    <svg xmlns="http://www.w3.org/2000/svg" width="512pt" viewBox="0 0 512 512.002" height="512pt" id="b">
      <path d="M490.734 116.914h-14.859a2.882 2.882 0 0 1-2.875-2.871V99.18c0-11.711-9.527-21.246-21.234-21.246h-14.871a2.868 2.868 0 0 1-2.868-2.864V60.207c0-11.703-9.523-21.234-21.234-21.234h-14.867a2.885 2.885 0 0 1-2.875-2.875V21.246C395.066 9.523 385.539 0 373.828 0h-18.965a21.237 21.237 0 0 0-19.52 12.867l-15.835 36.946c-26.528 32.062-54.192 63.273-82.711 93.703a2000.046 2000.046 0 0 1-31.817 33.187c-.542.55-1.074 1.113-1.628 1.66a2003.59 2003.59 0 0 1-32.938 32.754c-.375.367-.75.746-1.137 1.113a2051.481 2051.481 0 0 1-34.132 32.368l-.825.773a2004.57 2004.57 0 0 1-35.308 31.918c-.192.176-.383.352-.578.516l-9.93 8.77.039.019c-12.785 11.133-25.691 22.125-38.734 32.918l-37.235 15.953A20.761 20.761 0 0 0 0 354.55v19.77c0 11.44 9.316 20.753 20.758 20.753h15.836a2.383 2.383 0 0 1 2.379 2.39v15.825c0 11.445 9.312 20.758 20.757 20.758h15.836a2.385 2.385 0 0 1 2.387 2.39v15.836c0 11.442 9.317 20.758 20.758 20.758h15.836a2.376 2.376 0 0 1 2.379 2.38v15.831c0 11.445 9.316 20.758 20.758 20.758h19.765a20.713 20.713 0 0 0 19.078-12.582l15.953-37.227c26.454-31.972 54.036-63.093 82.465-93.449a2017.348 2017.348 0 0 1 32.57-33.965 1997.53 1997.53 0 0 1 34.59-34.418c.11-.101.211-.21.32-.312a2017.63 2017.63 0 0 1 70.7-65.453l10.379-9.156-.059-.028c12.79-11.133 25.684-22.129 38.735-32.918l36.953-15.836a21.216 21.216 0 0 0 12.855-19.52v-18.991c-.015-11.704-9.543-21.23-21.254-21.23zM359.691 258.238c-.707.66-1.421 1.32-2.128 1.98a2053.776 2053.776 0 0 0-29.56 28.2c-.788.773-1.581 1.543-2.366 2.316a2028.104 2028.104 0 0 0-29.203 29.063c-.41.422-.825.844-1.239 1.266-9.894 10.078-19.703 20.226-29.382 30.496L121.358 282c.145-.129.286-.27.43-.395a2040.106 2040.106 0 0 0 30.055-27.472c.965-.903 1.937-1.801 2.902-2.703a2055.363 2055.363 0 0 0 28.961-27.63c1-.972 1.992-1.948 2.996-2.921a2088.682 2088.682 0 0 0 28.59-28.453c.672-.688 1.344-1.38 2.012-2.059 9.71-9.89 19.343-19.863 28.851-29.949l144.453 69.559a2032.901 2032.901 0 0 0-30.918 28.261zM177.461 451.48l-17.844 40.688a2.363 2.363 0 0 1-2.187 1.434h-19.766a2.384 2.384 0 0 1-2.387-2.387v-15.836c0-11.438-9.316-20.75-20.75-20.75H98.691a2.385 2.385 0 0 1-2.386-2.39v-15.837c0-11.441-9.317-20.757-20.758-20.757H59.719a2.381 2.381 0 0 1-2.387-2.387v-15.824c0-11.446-9.312-20.758-20.75-20.758H20.758a2.386 2.386 0 0 1-2.39-2.39V354.52c0-.954.577-1.817 1.44-2.196l38.45-16.476 2.234-1.36c15.531-12.832 30.817-25.984 45.969-39.285l146.234 70.414c-25.855 27.988-51.023 56.563-75.234 85.863zM493.6 157.11c0 1.148-.68 2.175-1.726 2.636l-38.164 16.352-2.23 1.359c-15.532 12.828-30.817 25.984-45.973 39.281l-146.227-70.41c25.867-27.96 51.035-56.543 75.239-85.844l17.718-40.379a2.833 2.833 0 0 1 2.625-1.734h18.969a2.875 2.875 0 0 1 2.863 2.875v14.86c0 11.71 9.528 21.246 21.246 21.246h14.872a2.868 2.868 0 0 1 2.863 2.867v14.867c0 11.703 9.527 21.238 21.234 21.238h14.871a2.876 2.876 0 0 1 2.867 2.875v14.86c0 11.71 9.524 21.246 21.243 21.246h14.863a2.875 2.875 0 0 1 2.875 2.863v18.941zm0 0" />
      <path d="M220.254 213.773c-23.274 23.274-23.274 61.145 0 84.426 11.648 11.649 26.93 17.453 42.226 17.453 15.286 0 30.575-5.824 42.215-17.453 11.278-11.277 17.485-26.27 17.485-42.222 0-15.954-6.215-30.934-17.485-42.215-11.27-11.278-26.261-17.489-42.215-17.489-15.957 0-30.945 6.23-42.226 17.5zm83.559 42.211c0 11.043-4.301 21.422-12.106 29.239-16.11 16.109-42.324 16.109-58.453 0-16.11-16.121-16.11-42.344 0-58.453 7.816-7.817 18.187-12.106 29.234-12.106 11.051 0 21.422 4.297 29.227 12.106 7.797 7.796 12.098 18.175 12.098 29.214zM366.398 67.637a9.178 9.178 0 0 0-12.988 0l-12.984 12.988a9.171 9.171 0 0 0 0 12.988 9.177 9.177 0 0 0 12.988 0l12.988-12.988c3.578-3.582 3.578-9.395-.004-12.988zM392.375 93.613a9.178 9.178 0 0 0-12.988 0l-12.985 12.996c-3.593 3.594-3.593 9.407 0 12.989a9.145 9.145 0 0 0 6.493 2.691 9.177 9.177 0 0 0 6.496-2.691l12.984-12.996c3.582-3.582 3.582-9.407 0-12.989zM418.36 119.598a9.178 9.178 0 0 0-12.989 0l-12.988 12.988a9.178 9.178 0 0 0 0 12.988 9.173 9.173 0 0 0 6.496 2.688 9.157 9.157 0 0 0 6.492-2.688l12.988-12.988c3.582-3.582 3.582-9.399 0-12.988zM431.348 145.582l-12.989 12.988a9.174 9.174 0 0 0 0 12.985 9.16 9.16 0 0 0 6.496 2.691c2.348 0 4.7-.898 6.493-2.691l12.988-12.985a9.178 9.178 0 0 0 0-12.988 9.178 9.178 0 0 0-12.988 0zM93.613 340.426a9.171 9.171 0 0 0-12.988 0L67.641 353.41a9.171 9.171 0 0 0 0 12.988 9.145 9.145 0 0 0 6.492 2.692 9.177 9.177 0 0 0 6.496-2.692l12.984-12.988c3.59-3.59 3.59-9.402 0-12.984zM119.598 366.41a9.171 9.171 0 0 0-12.989 0l-12.988 12.985a9.178 9.178 0 0 0 0 12.988 9.16 9.16 0 0 0 6.496 2.691 9.161 9.161 0 0 0 6.492-2.691l12.989-12.988c3.582-3.59 3.582-9.403 0-12.985zM145.57 392.387a9.167 9.167 0 0 0-12.984 0l-12.988 12.984a9.178 9.178 0 0 0 0 12.988c1.793 1.793 4.144 2.692 6.496 2.692s4.699-.903 6.492-2.692l12.988-12.988c3.578-3.59 3.578-9.402-.004-12.984zM158.57 418.36l-12.988 12.988a9.167 9.167 0 0 0 0 12.984 9.151 9.151 0 0 0 6.492 2.691 9.16 9.16 0 0 0 6.496-2.691l12.989-12.984a9.178 9.178 0 0 0 0-12.989c-3.594-3.59-9.407-3.59-12.989 0zm0 0" />
    </svg>
    <svg xmlns="http://www.w3.org/2000/svg" width="512pt" viewBox="-5 0 512 512.001" height="512pt" id="c">
      <path d="M502.695 372.352H446.84V171.828c0-45.914-18.953-90.941-52.02-123.543C362.668 16.57 320.926-.465 277.016.008 185.87 1.238 111.715 76.39 111.715 167.555v40.039c-25.313-18.34-59.738-18.906-84.285-.102A69.94 69.94 0 0 0 .156 258.395c-1.332 20.144 6.031 39.832 20.274 54.074.504.492 50.23 49.394 77.21 74.847 8.946 8.45 14.075 20.387 14.075 32.75V512H446.84v-83.781h55.855zm-74.472 121.02H130.332v-37.235h297.89zm0-55.856H130.332v-17.461c0-17.457-7.25-34.332-19.91-46.285-26.84-25.332-76.438-74.09-76.883-74.532-10.379-10.386-15.781-24.836-14.805-39.629.977-14.937 8.09-28.203 20.016-37.347 20.219-15.489 49.793-12.825 68.805 6.172 1.36 1.359 2.996 2.246 4.707 2.914l32.527 29.492a9.3 9.3 0 0 0 6.258 2.41 9.298 9.298 0 0 0 6.898-3.05c3.442-3.81 3.164-9.7-.644-13.157l-27.442-24.883c.25-1.023.465-2.066.465-3.156v-51.45c0-81.034 65.918-147.847 146.934-148.925 38.613-.707 75.906 14.707 104.484 42.906 29.54 29.137 46.473 69.336 46.473 110.293V437.52h.008zm55.855-27.926H446.84v-18.617h37.238zm0 0" />
      <path d="m257.934 337.844-16.684-16.688 16.684-16.695-13.164-13.16-16.692 16.691-16.691-16.691-13.164 13.16 16.691 16.695-16.691 16.688 13.164 13.164 16.691-16.692 16.692 16.692zM347.168 351.008l13.164-13.164-16.68-16.688 16.68-16.695-13.164-13.16-16.691 16.691-16.688-16.691-13.164 13.16 16.688 16.695-16.688 16.688 13.164 13.164 16.688-16.692zM207.535 365.773l-16.695 16.692-16.688-16.692-13.164 13.16 16.692 16.692-16.692 16.691 13.164 13.164 16.688-16.69 16.695 16.69 13.16-13.164-16.68-16.691 16.68-16.691zM300.625 365.773l-16.691 16.692-16.692-16.692-13.164 13.16 16.692 16.692-16.692 16.691 13.164 13.164 16.692-16.69 16.691 16.69 13.164-13.164-16.684-16.691 16.684-16.691zM393.715 365.773l-16.692 16.692-16.691-16.692-13.164 13.16 16.691 16.692-16.691 16.691 13.164 13.164 16.691-16.69 16.692 16.69 13.164-13.164-16.684-16.691 16.684-16.691zm0 0" />
    </svg>
    <svg xmlns="http://www.w3.org/2000/svg" width="511pt" viewBox="-2 0 511 511.999" height="511pt" id="d">
      <path d="M262.25 295.125c-.926-2.414-2.027-4.773-3.238-7.066-.782-1.48-1.692-2.883-2.59-4.317a72.849 72.849 0 0 0-1.965-3.027 71.163 71.163 0 0 0-3.258-4.309c-.66-.804-1.367-1.566-2.054-2.34a70.114 70.114 0 0 0-6.934-6.734c-.887-.754-1.738-1.559-2.664-2.262-1.168-.89-2.371-1.664-3.582-2.476a66.224 66.224 0 0 0-4.356-2.684c-1.011-.562-2.015-1.117-3.058-1.62-2.645-1.29-5.328-2.446-8.09-3.298-2.254-.695-4.488-1.176-6.715-1.547a32.355 32.355 0 0 0-1.375-.199c-4.547-.621-8.988-.574-13.2.14-.093.02-.198.04-.296.06-5.547.991-10.695 3.066-15.098 6.312-.441.324-.746.777-1.175 1.11-1.184.952-2.266 2.034-3.317 3.152-.734.78-1.535 1.488-2.187 2.34a35.57 35.57 0 0 0-3.676 5.785c-.02.039-.012.078-.031.117-2.758 5.492-4.286 11.804-4.286 18.758 0 25.796 20.075 52.234 45.704 60.171 4.84 1.5 9.664 2.235 14.304 2.235 8.332 0 16.094-2.38 22.38-7.008 9.456-6.973 14.671-18.082 14.671-31.262 0-6.754-1.434-13.527-3.926-20.02.012-.003.012-.003.012-.011zm-69.035-18.11c.906-.952 1.945-1.745 3.062-2.433.641-.398 1.34-.707 2.047-1.012.973-.43 1.977-.82 3.055-1.078.793-.183 1.625-.262 2.465-.344 1.242-.132 2.484-.257 3.812-.18.352.016.715.048 1.078.094 1.957.192 3.985.543 6.082 1.192 1.977.613 3.899 1.453 5.79 2.39.39.188.773.391 1.156.59 3.84 2.063 7.449 4.727 10.66 7.852.16.16.332.312.496.484a52.208 52.208 0 0 1 8.004 10.336c.324.563.648 1.117.957 1.692.2.37.34.761.543 1.136-4.758 5.309-12.77 6.875-21.957 4.059-11.38-3.535-21.828-12.848-27.66-24.375.132-.152.277-.266.41-.402zm46.941 54.044c-4.918 3.628-11.91 4.285-19.691 1.898-12.188-3.781-22.926-14.277-28.399-26.14 6.793 5.995 14.559 10.667 22.743 13.206 4.832 1.493 9.609 2.22 14.183 2.22 6.465 0 12.512-1.513 17.813-4.25-.582 5.632-2.828 10.257-6.649 13.066zM393.547 323.156c-10.371-3.207-20.637-1.824-28.223 3.774-7.265 5.36-11.433 14.175-11.433 24.195 0 19.242 14.941 38.938 34.015 44.84 3.676 1.137 7.332 1.703 10.88 1.703 6.433 0 12.452-1.856 17.343-5.465 7.27-5.355 11.434-14.164 11.434-24.183-.012-19.254-14.95-38.97-34.016-44.864zm11.234 53.672c-2.695 1.985-6.695 2.309-11.242.895-11.144-3.446-20.555-15.633-20.555-26.598 0-2.79.633-6.582 3.668-8.828 1.594-1.164 3.63-1.766 5.97-1.766 1.636 0 3.401.285 5.273.867 11.144 3.45 20.554 15.637 20.554 26.614 0 2.789-.629 6.578-3.668 8.816zM126.117 304.059c-10.363-3.211-20.64-1.825-28.222 3.77-7.27 5.358-11.434 14.175-11.434 24.194 0 19.247 14.937 38.938 34.012 44.844 3.68 1.133 7.336 1.7 10.879 1.7 6.437 0 12.453-1.852 17.343-5.465 7.27-5.356 11.434-14.165 11.434-24.184-.008-19.254-14.95-38.969-34.012-44.86zm11.23 53.664c-2.69 1.988-6.695 2.3-11.242.898-11.144-3.45-20.55-15.633-20.55-26.601 0-2.786.629-6.579 3.664-8.825 1.597-1.164 3.633-1.765 5.972-1.765 1.633 0 3.399.285 5.274.867 11.144 3.45 20.55 15.637 20.55 26.61 0 2.792-.628 6.581-3.667 8.816zM326.691 389.406c-7.738-2.379-15.511-1.336-21.32 2.95-5.586 4.124-8.785 10.832-8.785 18.414 0 13.898 10.746 28.101 24.46 32.351 2.712.84 5.427 1.262 8.063 1.262 4.891 0 9.485-1.422 13.258-4.203 5.586-4.125 8.797-10.84 8.797-18.426-.023-13.906-10.77-28.106-24.473-32.348zm4.325 35.375c-.84.621-2.493.653-4.325.09-5.77-1.789-11.004-8.512-11.004-14.11 0-.687.106-2.359 1.024-3.027.43-.324 1.086-.488 1.89-.488.723 0 1.555.137 2.434.402 5.77 1.786 11 8.5 11 14.098.004.688-.101 2.348-1.02 3.035zM314.227 329.559c2.71.84 5.425 1.261 8.07 1.261 4.883 0 9.484-1.425 13.258-4.203 5.59-4.125 8.789-10.832 8.789-18.414 0-13.898-10.746-28.101-24.461-32.351-7.766-2.399-15.52-1.329-21.313 2.953-5.586 4.125-8.797 10.84-8.797 18.422-.007 13.878 10.739 28.09 24.454 32.332zm-4.325-35.38c.438-.324 1.098-.484 1.887-.484.727 0 1.559.133 2.438.399 5.77 1.785 11 8.511 11 14.105 0 .692-.106 2.36-1.02 3.031-.82.622-2.492.637-4.328.086-5.77-1.785-11-8.5-11-14.097-.012-.688.094-2.36 1.023-3.04zM105.555 207.895c0-14.872-11.512-30.086-26.211-34.653-8.242-2.57-16.473-1.414-22.586 3.106-5.895 4.343-9.285 11.441-9.285 19.476 0 14.88 11.52 30.094 26.218 34.64 2.895.9 5.778 1.337 8.575 1.337 5.168 0 10.039-1.5 14.011-4.43 5.907-4.348 9.278-11.441 9.278-19.476zm-20.614 4.09c-1.175.867-3.293.964-5.597.238-6.797-2.11-12.77-9.762-12.77-16.399 0-1.12.203-3.133 1.512-4.11.648-.476 1.574-.714 2.664-.714.887 0 1.883.16 2.941.484 6.801 2.114 12.762 9.774 12.762 16.41-.004 1.118-.195 3.133-1.512 4.09zm0 0" />
      <path d="M468.773 337.82c.153-.66.442-1.222.668-1.836.223-.59.375-1.222.653-1.757.015-.04.054-.067.074-.102a12.803 12.803 0 0 1 1.91-2.656c.965-1.043 2.121-1.864 3.418-2.504.262-.133.547-.23.813-.344a14.824 14.824 0 0 1 4.05-1.031c.2-.016.383-.074.59-.094 1.223-.105 2.516-.039 3.832.117.153.016.293 0 .45.016h.007c.106.012.239.07.356.086 1.183.191 2.36.48 3.66.898.762.25 1.601.614 2.434.957.503.211 1.019.383 1.527.602.547.25 1.11.383 1.68.515.203.047.394.145.593.18.696.125 1.395.145 2.09.117.086 0 .176.016.262.008a9.03 9.03 0 0 0 2.195-.43c.04-.007.074-.007.121-.015.469-.152.899-.414 1.34-.64.277-.145.574-.231.828-.403 1.95-1.25 3.305-3.16 3.957-5.309.258-.879.43-1.777.43-2.71v-21.34c0-20.555-9.656-40.325-25.848-52.98L314.91 90.183c-3.504-3.317-8.918-3.508-12.625-.442-2.988 2.465-7.41 2.973-12.484 1.395-11.863-3.676-21.883-16.657-21.883-28.348 0-2.418.469-4.566 1.387-6.379a9.574 9.574 0 0 0-1.957-11.242l-28.465-26.914c-.25-.23-.504-.45-.774-.649C215.883.66 188.613-4.64 168.262 4.281L27.004 72.421C10.938 79.364.547 95.642.508 114.009l-.008.039v150.48a9.583 9.583 0 0 0 3.438 7.344 9.61 9.61 0 0 0 7.832 2.055c3.18-.602 6.57-.344 10.039.734 14.336 4.442 26.449 20.145 26.449 34.309 0 5.465-1.883 9.867-5.301 12.386-3.824 2.82-9.312 3.317-15.504 1.399-3.793-1.176-7.64-3.317-11.41-6.352-2.875-2.293-6.8-2.77-10.125-1.164A9.533 9.533 0 0 0 .5 323.844V344.5c0 20.547 13.918 38.379 33.469 43.238l417.234 122.907A44.724 44.724 0 0 0 462.137 512c9.832 0 19.43-3.258 27.406-9.484 10.926-8.528 17.18-21.356 17.18-35.215v-79.656a9.46 9.46 0 0 0-2.282-6.188 9.554 9.554 0 0 0-5.757-3.25c-.204-.027-.403-.113-.602-.152-8.465-1.586-16.832-7.555-22.543-15.34a38.978 38.978 0 0 1-5.976-12.137c-.344-1.207-.727-2.398-.93-3.613a27.822 27.822 0 0 1-.363-4.926c.02-.824.175-1.559.27-2.324.073-.633.093-1.305.233-1.895zM34.941 89.785l141.301-68.168c13.668-5.969 33.207-1.699 49.895 10.86l23.593 22.312c-.601 2.563-.898 5.227-.898 7.996 0 19.988 15.52 40.45 35.34 46.59 8.031 2.492 15.988 2.281 22.77-.457L458.956 252.73l-164.316-48.94c-4.196-16.267-17.473-31.11-33.825-36.165-10.703-3.313-21.328-1.89-29.199 3.89-3.867 2.844-6.828 6.56-8.824 10.887L30.348 125.125c-5.914-1.137-9.352-5.207-10.2-12.113-.058-.43-.27-.82-.394-1.239.773-9.753 6.398-18.187 15.187-21.988zM277.043 214.22c0 3.027-.695 7.164-4.04 9.617-2.94 2.18-7.257 2.531-12.187 1.012a25.775 25.775 0 0 1-4.343-1.793c-8.453-4.375-15.293-13.23-17.078-22.102a21.957 21.957 0 0 1-.45-4.367c.04-.207.164-1.25.18-1.453.02-.227-.066-.438-.055-.656.293-2.668 1.262-5.645 3.903-7.594 1.75-1.293 3.984-1.942 6.543-1.942 1.757 0 3.668.309 5.664.926 11.097 3.442 20.46 14.996 21.644 26.047.008.086-.012.164-.012.25zm210.555 253.086c0 7.93-3.578 15.28-9.836 20.152-6.258 4.902-14.23 6.57-21.567 4.77L38.973 369.32a25.548 25.548 0 0 1-19.371-24.824v-4.25c.734.266 1.472.524 2.207.746 11.937 3.707 23.761 2.137 32.472-4.27 8.426-6.21 13.067-16.074 13.067-27.757 0-22.54-17.528-45.625-39.895-52.55a41.974 41.974 0 0 0-7.86-1.661v-112.98c1.958.84 4.04 1.468 6.22 1.878l194.324 57.891c.058.46.21.91.289 1.367.16 1.004.398 1.996.629 3a44.83 44.83 0 0 0 1.129 4.078c.332 1.02.714 2.016 1.125 3.008a51.31 51.31 0 0 0 1.738 3.813 49.78 49.78 0 0 0 1.586 2.91 55.026 55.026 0 0 0 2.293 3.527c.64.914 1.281 1.824 1.976 2.711.891 1.117 1.844 2.16 2.82 3.2.755.812 1.489 1.632 2.29 2.386 1.07 1.02 2.218 1.937 3.375 2.867.808.656 1.593 1.344 2.441 1.957 1.328.945 2.734 1.746 4.149 2.551.761.437 1.488.945 2.28 1.344 2.235 1.129 4.536 2.093 6.915 2.828 2.398.746 4.785 1.164 7.144 1.433.641.075 1.262.102 1.891.149.734.05 1.492.176 2.227.176 1.308 0 2.578-.137 3.847-.278.239-.03.489-.02.727-.058 2.187-.305 4.277-.88 6.293-1.614.469-.175.926-.367 1.386-.566 1.997-.848 3.926-1.832 5.672-3.121 1.692-1.25 3.153-2.711 4.489-4.27.355-.402.68-.82 1.011-1.242 1.157-1.5 2.2-3.094 3.04-4.824.074-.152.171-.277.246-.43a29.902 29.902 0 0 0 1.75-4.668l172.503 51.348c11.72 2.512 20.22 13.016 20.22 25.004v8.55a39.067 39.067 0 0 0-8.567-.202c-2.367.21-4.633.68-6.801 1.32-.754.219-1.469.531-2.195.808-1.512.567-2.97 1.215-4.368 2-.675.38-1.335.774-1.984 1.204a31.068 31.068 0 0 0-4.098 3.285c-.324.304-.718.504-1.03.828-.106.105-.165.25-.266.363-.176.184-.375.309-.547.5-.008.008-.008.008-.02.016-.906 1.004-1.555 2.246-2.34 3.375-.629.914-1.363 1.754-1.898 2.738-.094.172-.23.297-.317.461-.773 1.48-1.23 3.113-1.785 4.707-.277.813-.687 1.559-.906 2.398-.562 2.102-.824 4.344-1.012 6.61-.058.637-.23 1.23-.261 1.883 0 .101-.04.199-.04.304-.066 2.453.176 5.024.536 7.614.058.39.011.754.066 1.144.45 2.723 1.168 5.399 2.055 8.035.066.188.074.38.144.563.313.914.735 1.863 1.453 3.41.485 1.144.954 2.293 1.516 3.41.203.43.363.867.594 1.297.543 1.023 1.191 1.977 1.812 2.941.547.891 1.09 1.77 1.672 2.63l-.008.007c.383.64.782 1.281 1.176 1.797a57.537 57.537 0 0 0 4.746 5.652c.2.239.617.746.848.977.66.676 1.375 1.25 2.055 1.89.316.293.64.59.964.887a61.05 61.05 0 0 0 4.938 4.012c.309.219.602.45.91.664a54.164 54.164 0 0 0 5.492 3.39c.285.153.555.337.84.477 2.176 1.13 4.39 2.14 6.649 2.934V467.3h-.043zm0 0" />
    </svg>
    <svg xmlns="http://www.w3.org/2000/svg" width="512pt" viewBox="0 -22 512 512" height="512pt" id="e">
      <path d="M202.035 164.598c0 10.847 4.23 21.062 11.918 28.742a8.81 8.81 0 0 0 6.242 2.59c2.262 0 4.52-.868 6.243-2.59a8.813 8.813 0 0 0 0-12.48c-4.344-4.344-6.747-10.118-6.747-16.258 0-6.145 2.395-11.918 6.746-16.262 15.844-15.848 15.844-41.64 0-57.485a8.813 8.813 0 0 0-12.48 0 8.813 8.813 0 0 0 0 12.48c8.961 8.97 8.961 23.552 0 32.52-7.691 7.692-11.922 17.895-11.922 28.743zM105.93 164.598c0 10.847 4.23 21.062 11.918 28.742a8.803 8.803 0 0 0 6.242 2.59 8.81 8.81 0 0 0 6.242-2.59 8.813 8.813 0 0 0 0-12.48c-4.352-4.344-6.746-10.118-6.746-16.258 0-6.145 2.394-11.918 6.746-16.262 15.844-15.848 15.844-41.64 0-57.485a8.813 8.813 0 0 0-12.48 0 8.813 8.813 0 0 0 0 12.48c8.957 8.97 8.957 23.552 0 32.52-7.692 7.692-11.922 17.895-11.922 28.743zM157.898 138.117c0 10.848 4.23 21.063 11.918 28.742a8.799 8.799 0 0 0 6.243 2.586c2.257 0 4.52-.863 6.242-2.586a8.82 8.82 0 0 0 0-12.48c-4.344-4.344-6.746-10.117-6.746-16.262 0-6.14 2.394-11.918 6.746-16.258 15.844-15.847 15.844-41.64 0-57.484a8.818 8.818 0 0 0-12.485 0 8.82 8.82 0 0 0 0 12.48c8.961 8.97 8.961 23.551 0 32.52-7.687 7.688-11.918 17.89-11.918 28.742zM123.586 317.793c-19.8 0-35.309 11.625-35.309 26.484 0 14.856 15.508 26.48 35.309 26.48 19.8 0 35.309-11.624 35.309-26.48 0-14.859-15.508-26.484-35.31-26.484zm0 35.312c-10.777 0-17.656-5.226-17.656-8.828 0-3.601 6.879-8.828 17.656-8.828s17.656 5.227 17.656 8.828c0 3.602-6.879 8.828-17.656 8.828zM150.07 247.172c-19.8 0-35.312 11.629-35.312 26.484s15.512 26.485 35.312 26.485c19.797 0 35.309-11.63 35.309-26.485 0-14.86-15.508-26.484-35.309-26.484zm0 35.312c-10.78 0-17.656-5.226-17.656-8.828s6.875-8.828 17.656-8.828c10.778 0 17.653 5.227 17.653 8.828s-6.875 8.828-17.653 8.828zM238.344 282.484c19.8 0 35.312-11.629 35.312-26.484 0-14.86-15.511-26.484-35.312-26.484-19.797 0-35.309 11.625-35.309 26.484 0 14.855 15.508 26.484 35.309 26.484zm0-35.312c10.781 0 17.656 5.226 17.656 8.828s-6.875 8.828-17.656 8.828c-10.778 0-17.653-5.226-17.653-8.828s6.875-8.828 17.653-8.828zM326.621 291.309c19.8 0 35.309-11.625 35.309-26.48 0-14.86-15.508-26.485-35.309-26.485-19.8 0-35.312 11.625-35.312 26.484 0 14.856 15.511 26.48 35.312 26.48zm0-35.309c10.777 0 17.656 5.227 17.656 8.828s-6.879 8.828-17.656 8.828-17.656-5.226-17.656-8.828S315.844 256 326.62 256zM441.379 300.137c0-14.856-15.512-26.48-35.309-26.48-19.8 0-35.312 11.624-35.312 26.48 0 14.86 15.512 26.484 35.312 26.484 19.797 0 35.309-11.625 35.309-26.484zm-35.309 8.828c-10.777 0-17.656-5.223-17.656-8.828 0-3.602 6.875-8.828 17.656-8.828 10.778 0 17.657 5.226 17.657 8.828 0 3.605-6.88 8.828-17.657 8.828zM353.105 326.621c-19.8 0-35.312 11.625-35.312 26.484 0 14.856 15.512 26.48 35.312 26.48 19.797 0 35.31-11.624 35.31-26.48 0-14.859-15.513-26.484-35.31-26.484zm0 35.309c-10.78 0-17.656-5.223-17.656-8.825 0-3.605 6.875-8.828 17.656-8.828 10.778 0 17.653 5.223 17.653 8.828 0 3.602-6.875 8.825-17.653 8.825zM256 344.277c-19.8 0-35.309 11.625-35.309 26.48 0 14.86 15.508 26.485 35.309 26.485s35.309-11.625 35.309-26.484c0-14.856-15.508-26.48-35.309-26.48zm0 35.309c-10.777 0-17.656-5.227-17.656-8.828 0-3.602 6.875-8.828 17.656-8.828 10.777 0 17.656 5.226 17.656 8.828 0 3.601-6.879 8.828-17.656 8.828zM213.68 320.16c-3.567-.77-7.078.758-9.047 3.574a13.888 13.888 0 0 0-12.164 7.75c-6.18.246-11.653 4.653-12.985 10.973a8.824 8.824 0 0 0 8.653 10.648 8.814 8.814 0 0 0 7.218-3.77 13.888 13.888 0 0 0 12.165-7.75c6.18-.245 11.652-4.651 12.984-10.972 1-4.777-2.059-9.457-6.824-10.453zM298.988 322.64c-2.566-4.484-7.476-6.867-12.629-6.956a13.78 13.78 0 0 0-5.332-5.067c-3.265-1.754-7.02-2.144-10.55-1.05-4.668 1.413-7.309 6.34-5.887 11a8.812 8.812 0 0 0 7.476 6.222 13.754 13.754 0 0 0 5.473 5.324c2.234 1.2 4.723 1.668 7.16 1.64a13.773 13.773 0 0 0 5.32 5.067 13.802 13.802 0 0 0 6.524 1.66c1.352 0 2.703-.195 4.027-.601 4.668-1.41 7.309-6.336 5.887-10.996a8.8 8.8 0 0 0-7.469-6.242zM239.316 296.156c-2.57-4.484-7.398-6.949-12.632-6.957a13.781 13.781 0 0 0-5.332-5.066c-3.266-1.746-7.02-2.133-10.547-1.047-4.672 1.41-7.309 6.336-5.89 10.996 1.05 3.496 4.07 5.844 7.48 6.223a13.754 13.754 0 0 0 5.472 5.324c2.23 1.2 4.73 1.668 7.156 1.64a13.784 13.784 0 0 0 5.325 5.067 13.79 13.79 0 0 0 6.523 1.66c1.348 0 2.7-.191 4.024-.598 4.671-1.414 7.308-6.34 5.89-11a8.791 8.791 0 0 0-7.469-6.242zm0 0" />
      <path d="M510.64 393.648c.114-1.402.098-2.816-.238-4.23l-68.449-176.305 43.309-175.695c.07-.297-.028-.598.015-.898.055-.407.239-.778.239-1.211V8.829A8.819 8.819 0 0 0 476.687 0H35.31a8.826 8.826 0 0 0-8.829 8.828v26.484a8.829 8.829 0 0 0 8.829 8.829h1.316l37.05 163.007c-1.538 1.555-2.827 3.375-3.48 5.582L1.961 388.254l-.363 1.176c-.391 1.648-.391 3.3-.168 4.925-.828 1.543-1.43 3.239-1.43 5.118v54.363c0 7.73 6.293 14.027 14.027 14.027h483.946c7.734 0 14.027-6.297 14.027-14.027V398.37c0-1.738-.566-3.293-1.36-4.723zm-206.714-5.234h-.274c-6.34 0-11.777 4.422-13.242 10.77-.265 1.148-.707 2.214-1.113 3.308-.23.63-.379 1.29-.652 1.899-.391.859-.918 1.636-1.387 2.449-.434.75-.801 1.543-1.305 2.258-.363.511-.82.953-1.21 1.437-.75.93-1.466 1.89-2.321 2.738-.215.204-.461.372-.68.575-5.148 4.828-11.988 8.226-19.633 9.41-1.988.308-4.035.469-6.109.469s-4.125-.16-6.11-.47c-7.734-1.19-14.663-4.652-19.82-9.57-.148-.148-.336-.261-.484-.414-.899-.898-1.668-1.898-2.453-2.886-.352-.442-.766-.84-1.086-1.297-.567-.805-.98-1.676-1.457-2.524-.406-.726-.89-1.414-1.235-2.175-.343-.75-.539-1.57-.812-2.348-.336-.953-.742-1.879-.965-2.867-1.457-6.34-6.894-10.762-13.234-10.762H95.098c-26.418-17.09-42.133-48.976-42.133-70.621 0-52.64 92.98-97.102 203.035-97.102 110.05 0 203.035 44.461 203.035 97.102 0 21.645-15.715 53.531-42.133 70.621zM86.043 220.691h50.855c-25.007 8.192-46.468 18.934-63.136 31.59zm352.191 31.582c-16.664-12.656-38.125-23.39-63.132-31.582h50.855zm34.543 88.86 18.38 47.281h-46.802c13.875-14.125 23.508-31.23 28.422-47.281zM44.137 17.656h423.722v8.828H290.691a8.84 8.84 0 0 0-7.043 3.496 8.832 8.832 0 0 0-1.457 7.73 7.43 7.43 0 0 1 .29 2.013c0 6.27-9.067 13.242-22.067 13.242-13.004 0-22.07-6.973-22.07-13.242 0-.668.097-1.32.289-2.012a8.842 8.842 0 0 0-1.453-7.73 8.825 8.825 0 0 0-7.047-3.497H44.137zm176.933 26.48c2.676 15.169 18.996 26.485 39.344 26.485 20.348 0 36.66-11.316 39.344-26.484h165.668l-39.168 158.898H90.855L54.73 44.137zM39.223 341.126c4.914 16.055 14.547 33.164 28.433 47.29H20.844zm455.12 109.082H17.657V406.07h187.5c6.258 20.922 26.762 35.309 50.856 35.309 24.09 0 44.593-14.39 50.855-35.309h187.48v44.137zm0 0" />
    </svg>
    <svg xmlns="http://www.w3.org/2000/svg" width="511pt" viewBox="0 0 511.999 511" height="511pt" id="f">
      <path d="M440.086 72.258c-27.406-27.399-57.29-49.215-84.164-61.43C326.379-2.598 303.098-2.949 290.3 9.86c-.012.016-.028.024-.043.043-38.352 38.368-77.742 101.13-100.352 159.91-20.379 52.981-25.347 96.618-14.937 126.715l-56.547 56.547c-18.8 18.801-44.82 28.676-71.563 26.973-4.297-.262-8.664.105-13 1.094-16.152 3.691-28.976 16.488-32.683 32.605-3.09 13.441-.028 27.234 8.41 37.816 6.559 8.247 15.633 13.754 25.71 15.782-.23 9.144 2.95 20.082 15.544 32.488 8.234 8.106 18.43 12.516 28.836 12.516.37 0 .738 0 1.101-.008 23.993-.735 42.77-20.106 42.77-44.617-.324-28.621 9.27-54.157 27-71.887l60.426-60.426c11.261 4.785 24.597 7.238 39.875 7.238 25.656 0 56.625-6.742 91.675-20.218 58.79-22.621 121.551-61.992 159.918-100.352l.043-.043c28.387-28.367-10.968-98.34-62.398-149.777zM195.25 326.184l-57.172 57.183c-21.121 21.121-32.543 51.145-32.172 84.863 0 14.403-11.273 26.028-25.656 26.461-5.766.395-11.969-2.464-17.027-7.441-11.766-11.582-11.032-19.055-9.278-25.727l2.977-11.308-11.688.23c-.582.016-1.156.078-1.109.133-8.113 0-15.668-3.644-20.727-10-5.144-6.45-6.918-14.582-5.011-22.875 2.172-9.418 9.965-17.195 19.41-19.36 2.691-.609 5.375-.835 7.984-.679 31.625 1.977 62.746-9.723 85.137-32.105l52.375-52.375c.176.265.414.46.59.722 2.004 2.844 4.148 5.551 6.574 7.989a58.069 58.069 0 0 0 4.793 4.289zm140.945-20.223c-54.476 20.965-98.242 24.644-123.215 10.883a49.327 49.327 0 0 1-4.515-2.867c-.266-.188-.567-.352-.832-.547a42.327 42.327 0 0 1-4.43-3.785c-.09-.09-.187-.153-.273-.239-.028-.027-.043-.054-.07-.082-1.723-1.73-3.286-3.707-4.739-5.824-.309-.441-.59-.898-.883-1.352-1.36-2.125-2.629-4.394-3.734-6.867-.063-.133-.133-.254-.191-.386l-.399-.903c-10.594-25.613-6.055-67.086 13.477-117.851 17.652-45.895 45.816-94.211 75.41-130.442.406 2.598 1.008 5.317 1.715 8.086.203.785.449 1.598.668 2.399.629 2.25 1.351 4.546 2.171 6.894.317.91.63 1.809.973 2.734a150.093 150.093 0 0 0 3.953 9.649c12.215 26.867 34.035 56.762 61.43 84.156 27.394 27.406 57.289 49.223 84.164 61.438 3.379 1.535 6.656 2.843 9.867 4.035.899.336 1.774.637 2.664.945 2.516.871 4.98 1.64 7.38 2.293.687.188 1.386.406 2.066.582 2.664.672 5.277 1.238 7.793 1.633-36.243 29.602-84.555 57.758-130.45 75.418zM444.191 205c-24.996-11.36-53.046-31.906-78.992-57.855-25.941-25.938-46.488-53.989-57.847-78.985-9.86-21.691-11.57-38.816-4.563-45.824 2.86-2.852 7.387-4.262 13.23-4.262 8.493 0 19.743 2.985 32.606 8.828 24.996 11.356 53.043 31.895 78.98 57.844 53.575 53.586 77.141 110.098 62.41 124.828-7.007 6.988-24.128 5.285-45.824-4.574zm0 0" />
      <path d="M415.125 97.227c-24.102-24.106-45.418-38.641-59.035-46.579-7.293-4.253-16.2-3.113-22.137 2.836-5.95 5.946-7.086 14.852-2.844 22.145 7.938 13.625 22.465 34.922 46.579 59.035 24.113 24.113 45.417 38.64 59.035 46.574 2.941 1.715 6.144 2.555 9.304 2.555 4.688 0 9.293-1.836 12.84-5.395 5.95-5.949 7.09-14.843 2.832-22.144-7.941-13.617-22.469-34.926-46.574-59.027zm30.477 68.761c-12.72-7.41-32.664-21.023-55.446-43.8-22.781-22.782-36.39-42.727-43.797-55.438l.84-.848c12.727 7.414 32.676 21.035 55.446 43.805 22.773 22.773 36.39 42.719 43.804 55.445zM327.676 164.066c-7.73-7.742-14.766-16.125-20.317-24.265-7.125-10.422-18.863-16.363-31.64-15.754-12.719.547-24.028 7.457-30.23 18.492-5.973 10.59-11.145 21.324-15.376 31.887a8.83 8.83 0 0 0 4.91 11.484c4.536 1.797 9.665-.398 11.473-4.918 3.945-9.847 8.781-19.875 14.367-29.804 3.196-5.676 9.032-9.223 15.621-9.508 6.621-.317 12.657 2.738 16.313 8.086 6.246 9.144 13.793 18.164 22.418 26.777 8.62 8.617 17.633 16.16 26.777 22.41a8.788 8.788 0 0 0 4.969 1.547 8.823 8.823 0 0 0 7.3-3.852 8.826 8.826 0 0 0-2.304-12.265c-8.27-5.64-16.426-12.473-24.281-20.317zM331.047 260.32c-43.73 24.618-83.996 32.11-97.887 18.211-4.637-4.625-6.972-12.066-6.957-22.11a8.82 8.82 0 0 0-8.816-8.843h-.008a8.826 8.826 0 0 0-8.828 8.817c-.016 14.898 4.054 26.55 12.129 34.617 8.554 8.55 20.61 12.101 34.472 12.09 25.703 0 57.567-12.204 84.567-27.395 4.242-2.39 5.742-7.777 3.36-12.012a8.823 8.823 0 0 0-12.032-3.375zm0 0" />
    </svg>
    <svg xmlns="http://www.w3.org/2000/svg" width="512pt" viewBox="-123 0 512 512.002" height="512pt" id="g">
      <path d="M75.852 260.738c0 7.856-6.368 14.223-14.223 14.223-7.856 0-14.223-6.367-14.223-14.223 0-7.851 6.367-14.218 14.223-14.218 7.855 0 14.223 6.367 14.223 14.218zM94.816 370.629c0 5.238-4.246 9.484-9.48 9.484a9.484 9.484 0 0 1-9.484-9.484c0-5.234 4.246-9.48 9.484-9.48 5.234 0 9.48 4.246 9.48 9.48zM151.707 303.406a9.484 9.484 0 0 1-9.484 9.485c-5.235 0-9.48-4.246-9.48-9.485 0-5.234 4.245-9.48 9.48-9.48 5.238 0 9.484 4.246 9.484 9.48zM180.148 437a9.48 9.48 0 0 1-9.48 9.48c-5.238 0-9.484-4.242-9.484-9.48 0-5.234 4.246-9.48 9.484-9.48 5.234 0 9.48 4.246 9.48 9.48zM113.777 451.223c0 7.855-6.367 14.222-14.222 14.222-7.852 0-14.22-6.367-14.22-14.222 0-7.856 6.368-14.223 14.22-14.223 7.855 0 14.222 6.367 14.222 14.223zM227.555 365.89c0 7.856-6.368 14.223-14.223 14.223-7.852 0-14.219-6.367-14.219-14.222s6.367-14.223 14.219-14.223c7.856 0 14.223 6.367 14.223 14.223zm0 0" />
      <path d="m216.48 109.387-3.136-2.73c-6.137-7.348-2.02-49.985 5.015-65.657 3.723-2.883 5.993-6.355 6.653-10.375.125-.492.218-.965.258-1.477.02-.238.12-.457.12-.703 0-.445-.18-.836-.214-1.261-.07-.493-.117-.965-.258-1.45C220 1.973 152.016 0 130.578 0c-21.492 0-89.777 1.992-94.367 25.934-.059.199-.066.398-.106.605-.093.645-.332 1.234-.332 1.906 0 .34.145.633.172.965.028.266.086.504.133.77.57 4.39 3.117 8.09 7.254 11.16 8.078 15.902 15.082 58.02 9.727 65.262l-3.098 2.656C30.059 126.238 0 151.926 0 199.113v225.575C0 472.836 39.168 512 87.316 512h90.852c48.144 0 87.312-39.164 87.312-87.313V199.11c.004-47.101-29.484-72.75-49-89.722zm-85.902-90.422c37.445 0 62.313 5.308 72.215 9.48-9.898 4.172-34.77 9.48-72.215 9.48-37.441 0-62.308-5.308-72.21-9.48 9.902-4.172 34.769-9.48 72.21-9.48zM62.266 123.668l3.148-2.703c5.98-5.149 8.645-14.914 8.164-29.856-.371-11.445-2.824-26.671-6.82-40.23 22.558 5.348 51.238 6.012 63.82 6.012 12.856 0 42.496-.723 65.25-6.403-2.672 11.559-3.933 23.696-4.246 31.793-.75 19.578 2.313 32.54 9.121 38.516l3.336 2.91c17.285 15.035 38.383 33.477 41.906 65.867-22.062 50.813-55.437 60.035-68.957 61.582-21.808 2.34-42.156-20.488-55.41-40.191-29.27-43.52-70.96-44.621-98.93-36.278 7.446-23.476 24.891-38.437 39.618-51.019zm115.902 369.367H87.316c-37.691 0-68.355-30.66-68.355-68.351V199.109c0-.984.086-1.902.117-2.863 14.344-6.152 56.84-19.226 86.766 25.29 21.777 32.398 44.511 48.78 67.668 48.78a48.78 48.78 0 0 0 5.633-.324c13.511-1.543 42.875-9.035 67.375-42.902v197.605c0 37.676-30.665 68.34-68.352 68.34zm0 0" />
    </svg>
    <svg xmlns="http://www.w3.org/2000/svg" width="512pt" viewBox="0 -4 512.003 512" height="512pt" id="h">
      <path d="m263.93 251.55 71.004-71.003h.011l22.649-22.656 53.613-53.614 24.54-24.543-6.134-6.136c-98.12-98.121-257.781-98.137-355.902 0C26.184 121.137 0 184.332 0 251.55S26.184 381.965 73.71 429.5c49.056 49.059 113.509 73.59 177.95 73.59s128.895-24.531 177.95-73.59l6.136-6.137-24.543-24.539zm65.832-104.136c0-9.57 7.785-17.355 17.355-17.355 3.793 0 7.38 1.242 10.313 3.445l-12.106 12.117-12.105 12.106a17.036 17.036 0 0 1-3.457-10.313zm17.355-34.71c-19.14 0-34.71 15.566-34.71 34.71 0 8.488 3.109 16.402 8.515 22.598L239.39 251.55l147.136 147.133c-78.226 71.757-200.246 69.765-276.004-6.004-77.812-77.825-77.812-204.453 0-282.27 38.915-38.902 90.028-58.355 141.141-58.355 48.406 0 96.82 17.449 134.863 52.363l-16.808 16.809c-6.2-5.418-14.114-8.524-22.602-8.524zM251.66 485.854c-62.586 0-121.422-24.378-165.68-68.625-44.257-44.25-68.625-103.093-68.625-165.68 0-62.59 24.375-121.421 68.625-165.679 44.25-44.258 103.094-68.625 165.68-68.625 59.688 0 115.965 22.164 159.434 62.602L398.78 92.164c-84.984-78.52-218-76.559-300.527 5.977-84.586 84.586-84.586 222.226 0 306.812 42.293 42.293 97.851 63.445 153.406 63.445 52.848 0 105.684-19.18 147.121-57.457l12.313 12.313c-43.469 40.437-99.746 62.601-159.434 62.601zm0 0" />
      <path d="m454.871 122.04-8.242-6.794-150.762 126.965-8.539 7.187.008.008-.035.028 7.379 6.558 129.875 116.39.574-.487 23.992 21.324 5.746-4.887c36.317-30.84 57.137-79.375 57.137-133.145S491.18 152.883 454.87 122.04zM313.832 249.796l42.418-35.656c6.465 7.09 15.672 11.379 25.582 11.379 19.145 0 34.711-15.57 34.711-34.715 0-7.809-2.664-15.211-7.316-21.207l12.863-10.813c23.762 22.008 37.844 57.7 37.844 96.414 0 37.035-12.91 71.27-34.84 93.442zm85.356-58.992c0 9.574-7.786 17.355-17.36 17.355a17.322 17.322 0 0 1-12.32-5.172l26.457-22.242a17.304 17.304 0 0 1 3.223 10.059zm50.027 179.27-11.258-9.997c24.715-25.41 39.332-63.687 39.332-104.883 0-42.718-15.727-82.257-42.117-107.605l11.48-9.668c30.547 27.64 47.989 70.125 47.989 117.266.004 45.8-16.461 87.222-45.426 114.886zm0 0" />
      <path d="M416.543 251.55c-19.145 0-34.715 15.567-34.715 34.712s15.57 34.71 34.715 34.71c19.14 0 34.71-15.566 34.71-34.71s-15.566-34.711-34.71-34.711zm0 52.067c-9.574 0-17.36-7.781-17.36-17.355 0-9.57 7.786-17.356 17.36-17.356 9.57 0 17.355 7.785 17.355 17.356 0 9.574-7.785 17.355-17.355 17.355zM251.66 381.719c0 19.144 15.567 34.71 34.711 34.71 19.145 0 34.711-15.566 34.711-34.71s-15.566-34.711-34.71-34.711c-19.145 0-34.712 15.566-34.712 34.71zm34.711-17.356c9.574 0 17.36 7.785 17.36 17.356 0 9.574-7.786 17.36-17.36 17.36-9.57 0-17.355-7.786-17.355-17.36 0-9.57 7.785-17.356 17.355-17.356zM164.883 320.973c-19.145 0-34.711 15.57-34.711 34.71 0 19.145 15.566 34.712 34.71 34.712 19.141 0 34.712-15.567 34.712-34.711 0-19.141-15.57-34.711-34.711-34.711zm0 52.066c-9.574 0-17.36-7.781-17.36-17.355 0-9.57 7.786-17.356 17.36-17.356 9.57 0 17.355 7.785 17.355 17.356 0 9.574-7.785 17.355-17.355 17.355zM104.137 225.516c-19.145 0-34.711 15.57-34.711 34.71 0 19.145 15.566 34.712 34.71 34.712 19.141 0 34.712-15.567 34.712-34.711 0-19.141-15.57-34.711-34.711-34.711zm0 52.066c-9.575 0-17.36-7.781-17.36-17.355 0-9.57 7.785-17.356 17.36-17.356 9.57 0 17.355 7.785 17.355 17.356 0 9.574-7.785 17.355-17.355 17.355zM138.848 182.125c19.14 0 34.71-15.566 34.71-34.71 0-19.142-15.57-34.712-34.71-34.712-19.145 0-34.711 15.567-34.711 34.711 0 19.145 15.566 34.711 34.71 34.711zm0-52.066c9.57 0 17.355 7.785 17.355 17.355 0 9.574-7.785 17.36-17.355 17.36-9.575 0-17.36-7.786-17.36-17.36 0-9.57 7.79-17.355 17.36-17.355zM242.984 69.313c-19.144 0-34.71 15.57-34.71 34.71 0 19.145 15.566 34.711 34.71 34.711 19.141 0 34.711-15.566 34.711-34.71 0-19.141-15.57-34.712-34.71-34.712zm0 52.066c-9.574 0-17.355-7.781-17.355-17.356 0-9.57 7.781-17.355 17.355-17.355 9.57 0 17.356 7.785 17.356 17.355 0 9.575-7.785 17.356-17.356 17.356zM416.543 242.871a8.674 8.674 0 0 0 8.676-8.676c0-9.574 7.785-17.36 17.355-17.36a8.675 8.675 0 0 0 8.68-8.675c0-4.8-3.887-8.68-8.68-8.68-19.14 0-34.71 15.57-34.71 34.711 0 4.801 3.886 8.68 8.679 8.68zM130.172 216.836c0 4.8 3.887 8.68 8.676 8.68s8.68-3.88 8.68-8.68c0-9.57 7.78-17.356 17.355-17.356 4.789 0 8.68-3.878 8.68-8.675 0-4.801-3.891-8.68-8.68-8.68-19.145 0-34.711 15.57-34.711 34.71zM223.23 378.188c-3.902-2.778-9.328-1.848-12.105 2.046-2.777 3.907-1.855 9.332 2.05 12.106 7.802 5.547 9.65 16.402 4.114 24.203-2.777 3.914-1.86 9.332 2.055 12.105a8.592 8.592 0 0 0 5.015 1.606c2.72 0 5.399-1.266 7.082-3.652 11.082-15.622 7.395-37.332-8.21-48.415zM251.66 164.77a8.678 8.678 0 0 0-8.68 8.68c0 1.198-.972 2.167-2.167 2.167-10.77 0-19.524 8.766-19.524 19.528a2.171 2.171 0 0 1-2.172 2.167c-10.77 0-19.523 8.766-19.523 19.524 0 4.8 3.886 8.68 8.676 8.68a8.676 8.676 0 0 0 8.68-8.68 2.17 2.17 0 0 1 2.167-2.168c10.77 0 19.528-8.762 19.528-19.523 0-1.2.972-2.172 2.167-2.172 10.77 0 19.528-8.762 19.528-19.524 0-4.8-3.887-8.68-8.68-8.68zM219.5 291.441c3.36 0 6.676-.875 9.66-2.586 4.156-2.367 5.606-7.68 3.227-11.835-2.367-4.157-7.653-5.606-11.836-3.227a2.096 2.096 0 0 1-1.649.207 2.15 2.15 0 0 1-1.312-1.023c-5.344-9.348-17.305-12.625-26.64-7.262a2.186 2.186 0 0 1-2.958-.809 19.428 19.428 0 0 0-11.82-9.164c-5.035-1.379-10.293-.703-14.824 1.89-4.157 2.372-5.606 7.68-3.227 11.84 2.379 4.165 7.672 5.63 11.836 3.227a2.137 2.137 0 0 1 1.648-.21c.391.113.938.374 1.313 1.027 5.344 9.343 17.293 12.609 26.64 7.261 1.044-.605 2.36-.226 2.958.809a19.446 19.446 0 0 0 11.82 9.16c1.71.461 3.437.695 5.164.695zM237.125 328.41a2.008 2.008 0 0 1-1.629.305c-5.105-1.102-10.328-.098-14.695 2.75a19.408 19.408 0 0 0-8.434 12.332c-.992 4.695 2.012 9.293 6.707 10.285.602.129 1.2.18 1.797.18a8.69 8.69 0 0 0 8.488-6.887c.157-.73.59-1.156.938-1.375.348-.223.91-.45 1.629-.3a19.372 19.372 0 0 0 14.691-2.743 19.419 19.419 0 0 0 8.446-12.344c.156-.726.59-1.144.925-1.36.348-.226.91-.444 1.64-.304 10.528 2.176 20.907-4.547 23.13-15.086.988-4.683-2.016-9.285-6.7-10.281-4.695-.973-9.296 2.004-10.285 6.7-.253 1.163-1.441 1.933-2.57 1.675-5.11-1.094-10.324-.113-14.687 2.742a19.392 19.392 0 0 0-8.446 12.328 2.195 2.195 0 0 1-.945 1.383zm0 0" />
    </svg>
    <svg xmlns="http://www.w3.org/2000/svg" width="511pt" viewBox="0 -25 512 511" height="511pt" id="i">
      <path d="M476.719 98.05c-20.336-29.085-47.848-42.35-79.735-38.41-16.101.106-32.195 4.41-46.902 12.508-1.246-.71-2.562-1.218-3.836-1.859-2.016-1.039-4.035-2.078-6.117-2.969-1.164-.488-2.336-.898-3.52-1.343a92 92 0 0 0-8.234-2.739c-.594-.16-1.184-.328-1.785-.48a93.18 93.18 0 0 0-19.965-2.942c-.316-.039-.594-.187-.922-.187-.445 0-.879.062-1.316.07-.446-.011-.88-.07-1.317-.07-.328 0-.605.148-.925.187-2.711.106-5.407.274-8.082.614a95.133 95.133 0 0 0-12.485 2.043c2.625-19.551 10.75-33.38 15.996-40.438 2.883-3.887 2.996-9.16.278-13.133a11.525 11.525 0 0 0-12.547-4.582c-15.75 4.29-33.176.606-45.032-3.254a11.277 11.277 0 0 0-12.668 4.102c-2.937 4.062-2.91 9.523.079 13.605 8.34 11.356 8.972 30.899 8.136 44.84-8.672-2.55-17.578-3.984-26.558-3.984-4.125 0-8.235.285-12.297.836-1.735.23-3.426.695-5.13 1.023-2.296.446-4.616.793-6.874 1.407-2.11.57-4.145 1.386-6.207 2.105-1.797.625-3.621 1.129-5.371 1.867-2.59 1.078-5.07 2.403-7.559 3.711-1.066.559-2.18.977-3.219 1.574-14.894-8.207-31.21-12.511-47.492-12.511l-1.172.078C56.445 67.367-3.625 119.977.171 244.688 3.294 346.948 54.724 456.183 136.04 461.983c13.86 0 27.52-3.148 39.797-9.14 1.21.566 2.473.976 3.7 1.492.167.07.339.133.507.203 2.465 1.024 4.945 1.984 7.469 2.785 1.937.64 3.93 1.137 5.914 1.653.851.214 1.687.48 2.543.668 6.578 1.496 13.344 2.34 20.265 2.34.371 0 .692-.169 1.055-.215 13.488-.149 26.89-3.094 39.043-8.926 12.016 5.77 25.246 8.687 38.566 8.898.41.055.766.242 1.192.242.933 0 1.84-.113 2.765-.14 1.192.043 2.368.14 3.575.14.793 0 1.492-.257 2.222-.445a92.732 92.732 0 0 0 11.141-1.742c7.23-1.492 14.316-3.77 21.047-6.953 12.281 5.992 25.937 9.14 39.8 9.14 42.04 0 77.419-25.27 102.337-73.07 44.93-86.262 43.855-224.894-2.258-290.863zM253.14 70.505c1.28-13.774 1.468-32.848-4.153-48.734 8.117 1.66 17.227 2.648 26.48 2.082-5.753 10.793-11.398 25.972-12.421 45.02-1.465.655-2.766 1.35-4.117 2.026-.852.442-1.75.77-2.594 1.243-.23-.133-.48-.215-.723-.344-.808-.43-1.617-.867-2.472-1.293zm210.043 310.191c-15.09 28.98-42.372 63.516-86.555 63.516-7.45 0-14.598-1.191-21.473-3.309 22.309-17.648 37.559-44.761 39.266-75.172l5.168-91.656c.273-4.906-3.477-9.101-8.367-9.379-4.778-.293-9.106 3.465-9.383 8.367l-5.168 91.657c-2 35.468-26.07 65.566-57.414 75.765-.266.082-.531.168-.801.258-1.812.57-3.672 1.031-5.531 1.469-1.918.418-3.86.8-5.805 1.066-.562.082-1.113.196-1.672.266-2.55.305-5.105.426-7.664.473-31.586-1.938-58.445-23.438-69.207-55.973-1.535-4.66-6.586-7.238-11.226-5.656-4.66 1.535-7.204 6.562-5.657 11.23 6.16 18.645 16.762 34.293 30.285 45.914-11.125 4.074-23.011 5.469-34.73 4.074-.508-.062-.996-.168-1.504-.242a76.994 76.994 0 0 1-6.66-1.234 81.06 81.06 0 0 1-7.55-2.207c-1.634-.567-3.278-1.145-4.872-1.82-.473-.196-.926-.438-1.398-.641-27.465-12.324-47.793-40.262-49.633-72.727l-4.508-80c-.266-4.902-4.418-8.59-9.383-8.367-4.898.266-8.652 4.473-8.367 9.38l4.508 80c1.715 30.464 17.02 57.612 39.398 75.26-6.722 2.055-13.636 3.22-20.62 3.24-69.712-5.017-115.903-107.77-118.712-200.102-2.246-73.813 22.262-156.266 97.735-166.73 10.324.077 20.664 2.397 30.515 6.605-7.91 6.917-15.05 15.007-20.894 24.445-2.586 4.168-1.297 9.648 2.875 12.234a8.705 8.705 0 0 0 4.668 1.332 8.87 8.87 0 0 0 7.566-4.215c6.934-11.183 15.676-20.14 25.555-26.851l1.562-1.016c21.797-14.172 49.184-16.031 72.942-5.742.398.176.726.355 1.12.531-2.109 1.895-4.198 3.84-6.179 5.942-21.945 23.215-33.434 55.965-31.516 89.84l1.957 34.687c.258 4.73 4.188 8.387 8.868 8.387.168 0 .336-.012.515-.02 4.899-.265 8.653-4.469 8.367-9.379l-1.957-34.687c-1.636-29.016 8.09-56.934 26.684-76.613 12.98-13.735 29.379-22.227 46.941-24.665 9.938-1.039 19.98-.312 29.582 2.465.07.016.141.035.204.051 3.203.934 6.332 2.137 9.402 3.496 1.207.551 2.383 1.2 3.562 1.805 1.54.781 3.059 1.61 4.555 2.5a84.192 84.192 0 0 1 17.844 14.332c18.594 19.68 28.328 47.605 26.695 76.621-.277 4.906 3.477 9.105 8.367 9.383.176.008.336.015.516.015 4.676 0 8.605-3.656 8.867-8.386 1.91-33.887-9.578-66.625-31.523-89.84a107.236 107.236 0 0 0-6.91-6.645c10.043-4.285 20.601-6.605 31.132-6.605l1.157-.082c25.457-3.278 46.77 7.086 63.414 30.902 42.129 60.25 42.633 192.649 1.047 272.453zm0 0" />
    </svg>
    <svg xmlns="http://www.w3.org/2000/svg" width="512pt" viewBox="-103 0 512 512" height="512pt" id="j">
      <path d="M274.734 168.5c10.102-6.074 16.942-17.035 16.942-29.652 0-13.883-8.242-25.79-20.04-31.344C260.13 44.996 210.806 0 152.829 0 94.848 0 45.523 44.996 34.02 107.504c-11.797 5.55-20.04 17.457-20.04 31.344 0 12.625 6.84 23.578 16.942 29.652L.207 467.984a39.99 39.99 0 0 0 10.086 30.832A39.98 39.98 0 0 0 39.933 512h225.794c11.28 0 22.086-4.809 29.652-13.184s11.23-19.609 10.086-30.832zM152.828 17.355c47.547 0 88.445 35.926 100.48 86.782H52.345C64.383 53.28 105.28 17.355 152.828 17.355zM48.691 121.492h208.27c9.574 0 17.36 7.785 17.36 17.356 0 9.574-7.786 17.355-17.36 17.355H48.69c-9.57 0-17.355-7.781-17.355-17.355 0-9.57 7.785-17.356 17.355-17.356zm208.27 52.067h.844l8.61 83.968-9.462-9.457-23.488 23.489a8.664 8.664 0 0 0 0 12.27 8.664 8.664 0 0 0 12.27 0l11.218-11.22 11.223 11.22c.293.296.676.425 1 .667l9.137 89.063-21.348-21.356-23.492 23.488a8.664 8.664 0 0 0 0 12.27 8.664 8.664 0 0 0 12.27 0l11.222-11.219 11.219 11.219a8.648 8.648 0 0 0 6.136 2.543c1.98 0 3.914-.777 5.52-2.133l7.344 71.555H18.477l7.34-71.555c3.41 2.863 8.453 2.8 11.656-.41l11.218-11.219 11.223 11.219a8.64 8.64 0 0 0 6.133 2.543 8.658 8.658 0 0 0 6.137-2.543 8.664 8.664 0 0 0 0-12.27L48.69 352.203 27.336 373.56l9.137-89.059c.32-.242.703-.375 1-.668l11.218-11.223 11.223 11.223a8.651 8.651 0 0 0 6.133 2.54 8.654 8.654 0 0 0 6.137-2.54 8.669 8.669 0 0 0 0-12.273L48.69 248.07l-9.457 9.457 8.618-83.968zM40.223 494.645c-6.508 0-12.48-2.676-16.817-7.516-2.57-2.875-4.324-6.242-5.172-9.84h269.188c-.852 3.598-2.594 6.965-5.172 9.84-4.336 4.84-10.309 7.516-16.816 7.516zm0 0" />
      <path d="m72.184 231.762 11.218-11.219 11.223 11.219a8.64 8.64 0 0 0 6.133 2.543 8.658 8.658 0 0 0 6.137-2.543 8.664 8.664 0 0 0 0-12.27l-23.489-23.488-23.492 23.488a8.664 8.664 0 0 0 0 12.27 8.664 8.664 0 0 0 12.27 0zM141.605 231.762l11.223-11.219 11.219 11.219c1.695 1.695 3.914 2.543 6.137 2.543s4.441-.852 6.136-2.543a8.671 8.671 0 0 0 0-12.27l-23.492-23.488-23.488 23.488a8.664 8.664 0 0 0 0 12.27 8.66 8.66 0 0 0 12.265 0zM211.031 231.762l11.219-11.219 11.223 11.219a8.641 8.641 0 0 0 6.136 2.543 8.656 8.656 0 0 0 6.133-2.543 8.664 8.664 0 0 0 0-12.27l-23.488-23.488-23.492 23.488a8.664 8.664 0 0 0 0 12.27 8.664 8.664 0 0 0 12.27 0zM94.625 335.898a8.656 8.656 0 0 0 6.133 2.543 8.658 8.658 0 0 0 6.137-2.543 8.664 8.664 0 0 0 0-12.27l-23.489-23.491-23.492 23.492a8.664 8.664 0 0 0 0 12.27 8.664 8.664 0 0 0 12.27 0l11.222-11.223zM141.605 335.898l11.223-11.222 11.219 11.222c1.695 1.692 3.914 2.543 6.137 2.543s4.441-.851 6.136-2.543a8.671 8.671 0 0 0 0-12.27l-23.492-23.491-23.488 23.492a8.664 8.664 0 0 0 0 12.27 8.667 8.667 0 0 0 12.265 0zM198.758 323.625a8.676 8.676 0 0 0 0 12.273 8.671 8.671 0 0 0 12.27 0l11.222-11.222 11.219 11.222a8.66 8.66 0 0 0 6.136 2.54 8.654 8.654 0 0 0 6.137-2.54 8.669 8.669 0 0 0 0-12.273l-23.492-23.488zM83.402 404.27l-23.488 23.492a8.664 8.664 0 0 0 0 12.27 8.664 8.664 0 0 0 12.27 0l11.218-11.22 11.223 11.22a8.64 8.64 0 0 0 6.133 2.542 8.658 8.658 0 0 0 6.137-2.543 8.664 8.664 0 0 0 0-12.27zM152.828 404.27l-23.492 23.492a8.664 8.664 0 0 0 0 12.27 8.664 8.664 0 0 0 12.27 0l11.222-11.22 11.219 11.22c1.695 1.695 3.914 2.542 6.137 2.542s4.441-.851 6.136-2.543a8.671 8.671 0 0 0 0-12.27zM198.758 427.762a8.671 8.671 0 0 0 0 12.27 8.664 8.664 0 0 0 12.27 0l11.222-11.22 11.219 11.22a8.648 8.648 0 0 0 6.136 2.542 8.658 8.658 0 0 0 6.137-2.543 8.664 8.664 0 0 0 0-12.27L222.25 404.27zM94.625 283.832a8.671 8.671 0 0 0 12.27 0l11.218-11.223 11.223 11.223a8.654 8.654 0 0 0 6.137 2.54 8.651 8.651 0 0 0 6.132-2.54 8.669 8.669 0 0 0 0-12.273l-23.488-23.489-23.492 23.489a8.669 8.669 0 0 0 0 12.273zM164.047 283.832a8.671 8.671 0 0 0 12.27 0l11.222-11.223 11.219 11.223a8.66 8.66 0 0 0 6.137 2.54 8.66 8.66 0 0 0 6.136-2.54 8.669 8.669 0 0 0 0-12.273L187.54 248.07l-23.488 23.489a8.666 8.666 0 0 0-.004 12.273zM135.473 390.508a8.656 8.656 0 0 0 6.132-2.543 8.664 8.664 0 0 0 0-12.27l-23.488-23.488-23.492 23.488a8.664 8.664 0 0 0 0 12.27 8.664 8.664 0 0 0 12.27 0l11.222-11.219 11.219 11.219a8.658 8.658 0 0 0 6.137 2.543zM204.895 390.508a8.664 8.664 0 0 0 6.136-2.543 8.664 8.664 0 0 0 0-12.27l-23.492-23.488-23.488 23.488a8.664 8.664 0 0 0 0 12.27 8.664 8.664 0 0 0 12.27 0l11.218-11.219 11.223 11.219a8.649 8.649 0 0 0 6.133 2.543zm0 0" />
    </svg>
    <svg xmlns="http://www.w3.org/2000/svg" width="512pt" viewBox="-123 0 512 512.002" height="512pt" id="k">
      <path d="M75.852 260.738c0 7.856-6.368 14.223-14.223 14.223-7.856 0-14.223-6.367-14.223-14.223 0-7.851 6.367-14.218 14.223-14.218 7.855 0 14.223 6.367 14.223 14.218zM94.816 370.629c0 5.238-4.246 9.484-9.48 9.484a9.484 9.484 0 0 1-9.484-9.484c0-5.234 4.246-9.48 9.484-9.48 5.234 0 9.48 4.246 9.48 9.48zM151.707 303.406a9.484 9.484 0 0 1-9.484 9.485c-5.235 0-9.48-4.246-9.48-9.485 0-5.234 4.245-9.48 9.48-9.48 5.238 0 9.484 4.246 9.484 9.48zM180.148 437a9.48 9.48 0 0 1-9.48 9.48c-5.238 0-9.484-4.242-9.484-9.48 0-5.234 4.246-9.48 9.484-9.48 5.234 0 9.48 4.246 9.48 9.48zM113.777 451.223c0 7.855-6.367 14.222-14.222 14.222-7.852 0-14.22-6.367-14.22-14.222 0-7.856 6.368-14.223 14.22-14.223 7.855 0 14.222 6.367 14.222 14.223zM227.555 365.89c0 7.856-6.368 14.223-14.223 14.223-7.852 0-14.219-6.367-14.219-14.222s6.367-14.223 14.219-14.223c7.856 0 14.223 6.367 14.223 14.223zm0 0" />
      <path d="m216.48 109.387-3.136-2.73c-6.137-7.348-2.02-49.985 5.015-65.657 3.723-2.883 5.993-6.355 6.653-10.375.125-.492.218-.965.258-1.477.02-.238.12-.457.12-.703 0-.445-.18-.836-.214-1.261-.07-.493-.117-.965-.258-1.45C220 1.973 152.016 0 130.578 0c-21.492 0-89.777 1.992-94.367 25.934-.059.199-.066.398-.106.605-.093.645-.332 1.234-.332 1.906 0 .34.145.633.172.965.028.266.086.504.133.77.57 4.39 3.117 8.09 7.254 11.16 8.078 15.902 15.082 58.02 9.727 65.262l-3.098 2.656C30.059 126.238 0 151.926 0 199.113v225.575C0 472.836 39.168 512 87.316 512h90.852c48.144 0 87.312-39.164 87.312-87.313V199.11c.004-47.101-29.484-72.75-49-89.722zm-85.902-90.422c37.445 0 62.313 5.308 72.215 9.48-9.898 4.172-34.77 9.48-72.215 9.48-37.441 0-62.308-5.308-72.21-9.48 9.902-4.172 34.769-9.48 72.21-9.48zM62.266 123.668l3.148-2.703c5.98-5.149 8.645-14.914 8.164-29.856-.371-11.445-2.824-26.671-6.82-40.23 22.558 5.348 51.238 6.012 63.82 6.012 12.856 0 42.496-.723 65.25-6.403-2.672 11.559-3.933 23.696-4.246 31.793-.75 19.578 2.313 32.54 9.121 38.516l3.336 2.91c17.285 15.035 38.383 33.477 41.906 65.867-22.062 50.813-55.437 60.035-68.957 61.582-21.808 2.34-42.156-20.488-55.41-40.191-29.27-43.52-70.96-44.621-98.93-36.278 7.446-23.476 24.891-38.437 39.618-51.019zm115.902 369.367H87.316c-37.691 0-68.355-30.66-68.355-68.351V199.109c0-.984.086-1.902.117-2.863 14.344-6.152 56.84-19.226 86.766 25.29 21.777 32.398 44.511 48.78 67.668 48.78a48.78 48.78 0 0 0 5.633-.324c13.511-1.543 42.875-9.035 67.375-42.902v197.605c0 37.676-30.665 68.34-68.352 68.34zm0 0" />
    </svg>
    <svg xmlns="http://www.w3.org/2000/svg" width="512pt" viewBox="-24 0 512 512.003" height="512pt" id="l">
      <path d="M104.563 398.605c-24.266-5.43-44.774-23.8-52.239-46.808-1.46-4.512-6.297-6.977-10.82-5.524-4.512 1.461-6.984 6.305-5.524 10.825 9.45 29.105 34.286 51.425 64.829 58.273a8.59 8.59 0 0 0 10.254-6.512c1.039-4.629-1.876-9.214-6.5-10.254zM326.656 461.68c-24.265-5.43-44.773-23.801-52.238-46.809-1.457-4.508-6.3-6.973-10.82-5.523-4.512 1.46-6.985 6.304-5.524 10.824 9.45 29.105 34.285 51.43 64.828 58.273a8.59 8.59 0 0 0 10.254-6.508c1.04-4.62-1.87-9.218-6.5-10.257zM40.617 319.434c.574.109 1.14.171 1.707.171 4.004 0 7.594-2.816 8.41-6.886 1.95-9.664 5.48-18.735 10.496-26.961a8.59 8.59 0 0 0-2.859-11.809 8.601 8.601 0 0 0-11.812 2.86c-6.07 9.945-10.332 20.879-12.676 32.507-.926 4.649 2.086 9.172 6.734 10.118zm0 0" />
      <path d="M403.027 277.23c18.836-62.77-1.804-119.917-44.816-188.257 5.883 1.324 11.922 2.215 18.191 2.215 6.543 0 13.262-.731 20.043-2.208 23.243-5.066 44.336-18.558 57.864-37.02l5.074-6.929-6.93-5.074c-32.887-24.102-82.598-17.582-113.836 12.484-6.5-14.46-17.512-27.128-32.363-36.664C286.234 2.93 261.78-2.449 239.168 1.04l-8.484 1.309 1.304 8.484c3.461 22.492 17.024 42.367 38.196 55.95 16.015 10.28 34.879 15.777 53.359 15.777 1.984 0 3.95-.098 5.918-.227-3.934 75.531-60.43 142.926-116.781 164.52-20.477-26.934-50.434-44.043-83.852-44.043h-17.172C50.09 202.809 0 260.602 0 331.64c0 66.304 53.938 120.242 120.242 120.242 43.813 0 82.117-23.63 103.133-58.738.75 65.66 54.336 118.859 120.176 118.859 66.304 0 120.242-53.938 120.242-120.242 0-49.88-24.746-93.13-60.766-114.532zm31.399-228.218c-22.649 23.84-59.844 31.683-86.512 18.351 22.649-23.824 59.856-31.683 86.512-18.351zM251.109 17.195c15.82-.422 32.07 4.184 45.871 13.047 14.008 8.992 23.836 21.25 28.352 35.13-15.629.515-32.062-4.184-45.871-13.04-14.008-8.992-23.836-21.246-28.352-35.137zm93.883 83.004c43.973 70.696 56.848 119.848 42.61 169.496-11.157-4.328-23.051-6.773-35.465-6.773H334.96c-40.023 0-75.102 24.504-94.813 61.117-1.168-23.02-7.523-44.422-17.84-62.648 57.133-23.43 111.958-86.59 122.684-161.192zm-224.75 334.504c-56.832 0-103.062-46.234-103.062-103.066 0-61.563 42.383-111.653 94.472-111.653h17.18c25.773 0 49.145 12.282 66.2 32.13-6.208 1.288-12.348 1.995-18.344 1.995-4.743 0-8.59 3.848-8.59 8.586a8.592 8.592 0 0 0 8.59 8.59c9.507 0 19.28-1.512 29.105-4.172 10.988 18.242 17.523 40.489 17.523 64.535-.007 56.82-46.25 103.055-103.074 103.055zm223.309 60.121c-56.832 0-103.067-46.234-103.067-103.066 0-61.563 42.387-111.653 94.477-111.653h17.176c10.48 0 20.535 2.114 29.957 5.852-3.219 8.004-7.117 16.086-11.696 24.328-2.312 4.149-.808 9.383 3.332 11.68a8.607 8.607 0 0 0 4.165 1.086 8.59 8.59 0 0 0 7.515-4.418c4.707-8.477 8.504-16.766 11.82-24.965 29.399 18.945 49.383 55.809 49.383 98.09 0 56.832-46.242 103.066-103.062 103.066zm0 0" />
      <path d="M188.953 280.105c-18.945 0-34.355-15.406-34.355-34.355 0-4.738-3.848-8.586-8.59-8.586-4.738 0-8.586 3.848-8.586 8.586 0 28.422 23.11 51.535 51.531 51.535 4.738 0 8.59-3.847 8.59-8.59 0-4.742-3.852-8.59-8.59-8.59zM395.082 340.227c-18.945 0-34.355-15.407-34.355-34.356 0-4.738-3.848-8.586-8.59-8.586-4.739 0-8.586 3.848-8.586 8.586 0 28.422 23.11 51.535 51.531 51.535 4.738 0 8.59-3.847 8.59-8.59a8.592 8.592 0 0 0-8.59-8.59zm0 0" />
    </svg>
    <svg xmlns="http://www.w3.org/2000/svg" width="512pt" viewBox="0 0 512 512" height="512pt" id="m">
      <path d="M500.41 11.586C492.937 4.113 482.977 0 472.355 0c-10.632 0-20.593 4.113-28.066 11.586l-47.926 71.61-19.593-20.184c-9.84-9.84-27.133-9.797-36.872-.043L61.453 337.82c-10.16 10.18-10.16 26.735.219 37.125l22.308 20.86-71.078 47.406-1.324 1.086C4.113 451.762 0 461.723 0 472.355c0 10.622 4.113 20.582 11.586 28.06C19.05 507.886 29.023 512 39.652 512c10.621 0 20.586-4.113 28.059-11.586l50.187-72.898 21.864 20.445c4.918 4.918 11.468 7.629 18.46 7.629 6.997 0 13.548-2.711 18.497-7.672l271.172-274.79c10.144-10.179 10.136-26.718.07-36.792l-18.906-19.473 70.129-48.144 1.226-1.016C507.883 60.238 512 50.266 512 39.645c0-10.622-4.113-20.594-11.59-28.06zM54.867 488.613c-8.41 7.903-22.781 7.684-30.98-.511-4.184-4.184-6.489-9.778-6.489-15.747 0-5.707 2.098-11.066 5.942-15.187l72.156-48.11 8.3 8.29zm380.68-327.77-271.18 274.81c-3.246 3.261-8.824 3.46-12.512-.204l-78.078-73.015c-3.402-3.395-3.402-8.918-.054-12.266L352.168 75.312c1.625-1.632 3.809-2.53 6.14-2.53 2.333 0 4.524.906 6.055 2.437l71.192 73.32c3.39 3.395 3.39 8.918-.008 12.305zm53.066-105.976-71.265 48.93-8.29-8.3 48.11-72.157c8.43-7.856 22.75-7.637 30.945.547 4.184 4.187 6.489 9.781 6.489 15.765 0 5.727-2.125 11.102-5.989 15.215zm0 0" />
      <path d="M160.762 301.535a8.688 8.688 0 0 0-12.301 0l-43.496 43.496a8.688 8.688 0 0 0 0 12.301 8.66 8.66 0 0 0 6.148 2.55c2.23 0 4.457-.85 6.153-2.55l43.5-43.496c3.398-3.395 3.398-8.898-.004-12.3zM212.96 301.535a8.688 8.688 0 0 0-12.3 0l-69.597 69.598a8.688 8.688 0 0 0 0 12.3 8.669 8.669 0 0 0 6.152 2.551 8.676 8.676 0 0 0 6.148-2.55l69.602-69.598c3.398-3.395 3.398-8.899-.004-12.3zM252.86 301.535l-95.696 95.695a8.688 8.688 0 0 0 0 12.301c1.695 1.7 3.922 2.551 6.149 2.551s4.457-.855 6.152-2.55l95.695-95.696a8.688 8.688 0 0 0 0-12.3c-3.402-3.403-8.898-3.395-12.3 0zm0 0" />
    </svg>
    <svg xmlns="http://www.w3.org/2000/svg" width="511pt" viewBox="-51 0 511 511.999" height="511pt" id="n">
      <path d="M398.027 303.203c-3.789-3.828-8.605-5.855-13.91-5.855-3.297 0-6.781.882-10.363 2.472l-.16-.543c-13.953 2.852-28.54 6.442-42.645 9.91-36.086 8.887-73.183 17.958-96.914 13.848.317-13.05-13.597-30.574-30.433-44.363-10.27-8.402-21.13-15.024-30.582-18.637-8.25-3.144-14.235-3.52-18.622-2.57-37.425-66.75-36.257-169.45-23.265-239.078 1.312-7.055-2.043-13.856-8.371-16.922-5.985-2.895-12.98-1.414-17.395 3.668-29.62 34.187-55.129 85.14-69.219 137.453l-5.648-.559c-5.684-.543-13.969 1.985-20.883 17.47-4.129 9.237-7.117 21.6-8.41 34.816-2.68 27.199 2.008 55.367 18.523 56.988l4.422.437c1.313 21.528 5.016 42.035 11.036 61.215l-18.434 13.762c-13.29 9.926-2.75 36.472 13.59 58.37h.008c13.136 17.602 30.222 32.446 43.324 32.446 3.203 0 6.164-.883 8.773-2.824l11.223-8.387c19.203 17.809 42.23 32.805 68.621 44.68l-3.758 11.562c-1.863 5.731-1.031 14.813 13.504 25.543 8.852 6.543 21.3 12.614 35.055 17.079C219.988 509.37 233.44 512 244.766 512c13.351 0 23.722-3.656 26.668-12.715l5.808-17.875c25.293 3.168 52.485 4.84 81.23 4.84 1.665 0 3.356-.008 5.04-.016 22.504-.035 46.523-20.8 46.523-79.02 0-6.25.063-12.57.13-18.843.378-38.746.706-72.203-12.138-85.168zm-205.304-11.238c16.629 13.625 23.797 25.93 24.21 29.98l-15.042 18.364c-3.97.37-17.516-4.196-34.16-17.832-16.641-13.625-23.81-25.93-24.215-29.98l15.043-18.356c4.3-.446 17.543 4.207 34.164 17.824zm-174.43-95.969c2.102-21.406 8.371-34.195 11.512-36.773l23.617 2.328c2.586 3.14 6.226 16.922 4.113 38.324-2.101 21.395-8.37 34.195-11.512 36.773l-22.734-2.242-.887-.086c-2.574-3.14-6.214-16.914-4.109-38.324zM72.98 400.348c-4.027-.575-15.996-8.301-28.87-25.543-12.864-17.239-16.864-30.914-16.282-34.934l18.899-14.105c2.91.43 9.968 4.43 18.683 13.343.211.223.41.395.625.625 1.098 1.149 2.25 2.457 3.39 3.758.481.543.938 1.024 1.427 1.598.91 1.074 1.847 2.32 2.773 3.496.695.89 1.383 1.7 2.094 2.644 12.87 17.23 16.87 30.907 16.277 34.926l-10.808 8.051.007.012zm139.438 88.496c-23.887-7.762-35.785-18.121-37.313-21.696l8.25-25.367c1.254-.758 4.25-1.418 8.758-1.547 6.02-.171 14.723.618 25.61 3.426 2.722.703 5.582 1.527 8.558 2.5 23.887 7.762 35.785 18.125 37.313 21.695l-8.25 25.368c-3.332 2.011-19.035 3.39-42.926-4.38zm68.105-24.242c-.187-.868-.496-1.778-.855-2.704a9.076 9.076 0 0 0-.25-.609 21.895 21.895 0 0 0-1.547-2.965c-.086-.136-.187-.273-.273-.41a30.478 30.478 0 0 0-2.184-2.945c-.137-.172-.266-.336-.41-.508a42.313 42.313 0 0 0-3.23-3.313c-.239-.222-.497-.445-.747-.675a61.138 61.138 0 0 0-4.367-3.575c-8.851-6.539-21.3-12.609-35.055-17.078a197.542 197.542 0 0 0-5.246-1.613c-.359-.102-.73-.187-1.097-.293-1.399-.394-2.801-.777-4.2-1.133-.351-.086-.695-.16-1.039-.238-1.414-.344-2.824-.68-4.222-.98-.36-.079-.715-.137-1.063-.208-1.39-.28-2.777-.558-4.14-.789-.371-.062-.73-.109-1.09-.171a118.61 118.61 0 0 0-4.008-.602c-.387-.05-.766-.082-1.152-.129-1.278-.144-2.551-.289-3.801-.387-.406-.035-.8-.039-1.203-.066-1.211-.078-2.406-.145-3.582-.18-.422-.011-.824 0-1.235 0a61.618 61.618 0 0 0-3.304.035c-.45.016-.871.059-1.309.082a54.663 54.663 0 0 0-2.969.243c-.465.05-.91.136-1.363.195-.887.129-1.77.266-2.61.437-.472.106-.91.227-1.374.344-.774.192-1.547.387-2.266.63-.465.151-.887.331-1.332.495a24.7 24.7 0 0 0-1.934.801c-.437.21-.84.453-1.261.684-.54.308-1.086.62-1.586.964-.406.282-.774.598-1.14.899-.438.363-.868.715-1.255 1.117-.355.36-.652.746-.972 1.133-.332.414-.66.824-.942 1.273-.277.438-.508.899-.746 1.371-.156.309-.351.575-.488.895-23.32-10.68-43.727-23.922-60.863-39.504.082-.145.128-.352.21-.504.442-.808.817-1.71 1.145-2.695.102-.309.215-.594.3-.93a20.68 20.68 0 0 0 .645-4.394c.016-.336-.02-.711-.02-1.055.012-1.39-.1-2.91-.331-4.55a35.67 35.67 0 0 0-.278-1.747 52.128 52.128 0 0 0-1.757-6.953c-2.012-6.07-5.29-12.75-9.36-19.524-2.379-3.957-4.953-7.941-7.883-11.863a148.915 148.915 0 0 0-3.714-4.758 79.747 79.747 0 0 0-1.04-1.246c-.98-1.183-1.976-2.34-2.988-3.476-.414-.461-.824-.926-1.246-1.39a118.64 118.64 0 0 0-5.195-5.349c-.942-.91-1.88-1.8-2.832-2.66a78.12 78.12 0 0 0-2.406-2.078 63.027 63.027 0 0 0-1.543-1.27c-2.938-2.363-5.891-4.398-8.836-6.027-.489-.277-.98-.543-1.47-.789a43.052 43.052 0 0 0-2.437-1.16 32.003 32.003 0 0 0-3.41-1.246c-.172-.05-.36-.145-.531-.2-5.606-17.44-9.133-36.175-10.55-55.855l4.027.395c.46.043.925.07 1.414.07.148 0 .308-.035.464-.035.293-.008.594-.043.903-.07.472-.04.941-.11 1.441-.211.336-.07.66-.157 1.004-.25.48-.137.953-.301 1.441-.5.372-.145.747-.301 1.125-.489.473-.234.946-.515 1.426-.808.403-.25.801-.496 1.211-.79.473-.35.953-.765 1.434-1.187.402-.36.816-.695 1.219-1.105.5-.508.996-1.11 1.492-1.7.386-.456.773-.874 1.152-1.39.566-.758 1.117-1.649 1.676-2.531.308-.5.625-.918.933-1.461a51.722 51.722 0 0 0 2.543-5.024c4.13-9.238 7.118-21.61 8.414-34.812 1.297-13.207.782-25.91-1.46-35.778-.473-2.058-.993-3.93-1.579-5.632-4.05-11.864-10.492-15.094-15.488-15.582l-2.746-.278c12.68-45.672 34.367-89.879 59.555-121.351-6.446 38.918-21.367 161.449 27.93 245.742l-2.223 2.71-9.016 10.997a14.5 14.5 0 0 0-1.484 2.277c-.145.266-.258.54-.387.817a14.141 14.141 0 0 0-.937 2.738c-.145.61-.247 1.254-.317 1.93-.035.308-.058.62-.066.93-.043.738-.028 1.519.035 2.343.016.23.039.461.066.695.094.891.25 1.82.48 2.809.016.074.044.152.063.223.653 2.703 1.864 5.757 3.742 9.195.336.61.672 1.219 1.032 1.828.254.438.437.832.722 1.277.16.27.395.543.567.801a78.505 78.505 0 0 0 4.59 6.36 106.378 106.378 0 0 0 4.98 5.84c.2.21.406.425.602.644 1.93 2.066 3.949 4.11 6.078 6.11.136.128.273.25.41.378 2.277 2.121 4.637 4.2 7.066 6.184 10.258 8.402 21.13 15.031 30.582 18.637a54.277 54.277 0 0 0 4.996 1.632c.465.13.903.239 1.348.344a40.72 40.72 0 0 0 3.309.668c.36.063.746.133 1.086.184 1.222.144 2.386.238 3.46.238.051 0 .094-.016.145-.016a20.818 20.818 0 0 0 4.133-.422c.309-.066.574-.16.875-.238.898-.242 1.734-.515 2.496-.851.32-.145.629-.293.918-.454.672-.359 1.281-.746 1.84-1.16.222-.164.453-.316.66-.488a14.554 14.554 0 0 0 1.855-1.848l10.793-13.168c27.625 7.274 67.582-2.55 109.711-12.921l12.348-3.032c-16.793 21.68-30.504 53.985-30.504 84.371 0 7.29.379 13.985 1.082 20.133 2.102 18.434 7.152 31.895 13.777 41.254-17.816-.648-34.945-1.984-51.207-3.976zm112.48-76.403a1717.6 1717.6 0 0 0-.128 19.016c0 38.144-11.273 61.851-29.414 61.851-18.133 0-29.406-23.707-29.406-61.851 0-26.469 14.86-57.094 28.261-75.473 8.457-10.656 16.793-17.215 21.801-17.215.645 0 1.063.121 1.707.766 7.797 7.871 7.453 43.937 7.18 72.906zm0 0" />
      <path d="M251.172 470.008c-16.055-10.344-36.48-16.434-60.7-18.098-4.695-.25-8.816 3.246-9.152 7.985-.32 4.73 3.254 8.824 7.985 9.152 21.289 1.457 38.984 6.637 52.586 15.402a8.59 8.59 0 0 0 11.863-2.578c2.559-3.98 1.41-9.297-2.582-11.863zM83.387 380.738c-7.582-16.492-16.957-30.504-27.852-41.64-3.324-3.391-8.758-3.442-12.14-.137-3.391 3.324-3.442 8.758-.137 12.14 9.523 9.727 17.773 22.106 24.531 36.805a8.579 8.579 0 0 0 7.8 5c1.204 0 2.415-.25 3.583-.793 4.316-1.965 6.207-7.066 4.215-11.375zM155.445 284.992c-3.66 3.024-4.172 8.422-1.16 12.09 10.25 12.422 21.445 22.707 33.266 30.547a8.554 8.554 0 0 0 4.742 1.433 8.56 8.56 0 0 0 7.156-3.835c2.63-3.95 1.547-9.282-2.402-11.903-10.414-6.91-20.34-16.043-29.516-27.172a8.599 8.599 0 0 0-12.086-1.16zM33.18 230.879a8.91 8.91 0 0 0 2.472.36 8.592 8.592 0 0 0 8.223-6.114c5.438-18.055 7.695-34.926 6.742-50.137-.293-4.75-4.722-8.261-9.11-8.035-4.737.3-8.335 4.379-8.034 9.106.832 13.18-1.211 28.023-6.055 44.12-1.367 4.544 1.21 9.333 5.762 10.7zm0 0" />
    </svg>
    <svg xmlns="http://www.w3.org/2000/svg" width="511pt" viewBox="-57 1 511 511.998" height="511pt" id="o">
      <path d="M120.074 258.277c15.574-9.164 27.836-28.82 20.137-52.082a8.817 8.817 0 0 0-11.149-5.605c-4.625 1.527-7.14 6.523-5.605 11.148 4.918 14.875-3.566 26.164-12.324 31.32-8.809 5.172-22.863 7.126-33.508-4.433-3.309-3.582-8.89-3.82-12.473-.52-3.586 3.301-3.824 8.891-.523 12.473 9.34 10.145 20.746 14.215 31.719 14.215 8.57.008 16.879-2.48 23.726-6.516zM313.621 309.418c-4.625 1.523-7.14 6.52-5.605 11.148 4.914 14.872-3.567 26.172-12.325 31.329-8.808 5.183-22.87 7.125-33.507-4.442-3.313-3.582-8.883-3.82-12.477-.52-3.582 3.301-3.82 8.891-.52 12.473 9.34 10.145 20.747 14.223 31.72 14.223 8.577 0 16.886-2.488 23.738-6.524 15.57-9.16 27.832-28.82 20.132-52.082-1.527-4.628-6.53-7.16-11.156-5.605zM171.16 339.066c-4.59-1.632-9.64.793-11.254 5.387-5.207 14.77-18.84 18.54-28.918 17.23-10.136-1.288-22.449-8.351-23.8-24.019-.415-4.855-4.696-8.57-9.551-8.039-4.856.414-8.457 4.687-8.043 9.55 2.101 24.47 21.18 37.727 39.152 40.024 1.934.246 3.91.371 5.906.371 16.543 0 34.621-8.633 41.887-29.246 1.633-4.594-.777-9.633-5.379-11.258zM208.2 296.773c1.933.247 3.902.372 5.905.372 16.543 0 34.625-8.625 41.887-29.247 1.625-4.601-.785-9.64-5.383-11.253-4.59-1.633-9.64.792-11.254 5.382-5.21 14.77-18.812 18.477-28.921 17.235-10.133-1.29-22.45-8.36-23.797-24.024-.418-4.855-4.707-8.562-9.555-8.039-4.852.414-8.457 4.688-8.039 9.551 2.098 24.469 21.176 37.738 39.156 40.023zM236.645 388.758c-4.688 1.351-7.38 6.25-6.04 10.926 4.344 15.05-4.574 26.007-13.523 30.828-8.996 4.84-23.117 6.242-33.316-5.719-3.16-3.719-8.739-4.16-12.446-.996-3.71 3.156-4.16 8.73-1 12.445 9.403 11.043 21.356 15.457 32.86 15.457 7.968 0 15.73-2.125 22.254-5.633 15.914-8.554 28.925-27.726 22.129-51.27-1.34-4.687-6.231-7.39-10.918-6.038zM329.41 220.875c-10.539 11.59-24.539 9.746-33.332 4.645-8.836-5.13-17.441-16.422-12.598-31.383 1.5-4.637-1.039-9.614-5.675-11.114-4.614-1.503-9.621 1.04-11.114 5.676-7.574 23.356 4.856 43 20.536 52.09 6.777 3.93 14.968 6.348 23.418 6.348 11.035 0 22.5-4.121 31.832-14.39a8.827 8.827 0 0 0-.59-12.474c-3.61-3.273-9.192-3-12.477.602zm0 0" />
      <path d="M397.738 251.586c0-19.824-10.082-37.922-26.64-48.41-1.688-22.828-16.782-42.399-38.375-49.875-.637-1.848-1.5-3.559-2.313-5.297 19.656-16.094 33.277-35.203 40.402-56.973a8.815 8.815 0 0 0-5.542-11.105c-60.07-20.426-94.2-10.098-111.137.219-9.766-50.758-42.817-71.184-55.977-77.434C196.54 1.07 194.38 0 191.941 0h-1.863c-2.297 0-4.254.969-5.746 2.48-12.809 5.97-46.559 26.254-56.445 77.657-16.95-10.313-51.094-20.63-111.137-.219-4.582 1.55-7.055 6.504-5.543 11.102 7.82 23.898 23.914 45.156 46.793 62.023-23.465 7.504-39.848 29.148-39.848 54.406 0 3.582.344 7.168 1.016 10.692C7.383 228.953.5 244.355.5 260.414c0 15.414 6.293 30.152 17.168 40.863a57.394 57.394 0 0 0-8.34 29.758c0 24.664 15.367 45.875 37.809 53.906a57.3 57.3 0 0 0-2.5 16.711 57.25 57.25 0 0 0 38.531 54.16c7.945 22.922 29.52 38.532 54.16 38.532a57.02 57.02 0 0 0 24.567-5.528C172.62 503.305 189.559 512 207.949 512c17.153 0 33.102-7.559 43.942-20.535a56.308 56.308 0 0 0 17.851 2.879c27.125 0 50.528-19.457 56.09-45.426 25.969-5.563 45.426-28.965 45.426-56.09 0-4.223-.477-8.414-1.418-12.555a57.281 57.281 0 0 0 27.902-49.238c0-14.91-5.851-29.133-16.023-39.726 10.168-10.59 16.02-24.813 16.02-39.723zM31.145 93.836c72.394-21.758 95.964 8.14 96.132 8.36 2.157 3.034 5.97 4.406 9.543 3.417a8.832 8.832 0 0 0 6.473-7.797c4.324-53.097 36.676-73.496 47.723-78.953 11.043 5.457 43.402 25.856 47.722 78.953.297 3.657 2.86 6.692 6.38 7.707 3.534 1.024 7.347-.3 9.554-3.222.246-.317 23.832-30.219 96.219-8.457-6.368 14.644-16.493 27.832-30.2 39.379-.363-.391-.761-.723-1.128-1.106a73.416 73.416 0 0 0-2.004-1.969 58.464 58.464 0 0 0-4.973-4.164c-.379-.285-.75-.574-1.137-.84-1.941-1.367-3.984-2.57-6.082-3.683a56.699 56.699 0 0 0-1.949-.977c-2.184-1.05-4.414-2.004-6.719-2.773-.16-.055-.312-.125-.469-.176-2.472-.805-5.03-1.37-7.617-1.828a52.179 52.179 0 0 0-1.976-.309c-2.657-.39-5.344-.644-8.07-.644a57.26 57.26 0 0 0-47.782 25.61c-10.629-10.587-25.16-16.782-40.492-16.782-14.91 0-29.133 5.852-39.727 16.023-10.593-10.167-24.812-16.023-39.722-16.023-2.297 0-4.555.176-6.797.441-.727.086-1.442.211-2.156.317-1.508.238-3 .531-4.473.89-.82.196-1.637.391-2.45.618-1.382.398-2.741.882-4.085 1.386-1.746.645-3.442 1.399-5.11 2.207-.699.344-1.414.653-2.101 1.036-1.352.73-2.649 1.535-3.938 2.375-.336.218-.668.437-1.004.668-2.957 2.003-5.773 4.21-8.324 6.761-18.144-12.933-31.535-28.773-39.261-46.445zm332 204.695c10.609 7.453 16.937 19.606 16.937 32.504a39.675 39.675 0 0 1-24.246 36.598l-7.797 3.305 2.984 7.925c1.711 4.555 2.579 9.25 2.579 13.965 0 20.426-15.934 37.8-36.274 39.547l-7.406.637-.637 7.406c-1.746 20.34-19.12 36.273-39.547 36.273-5.914 0-11.66-1.316-17.09-3.921l-7.046-3.372-4.211 6.575c-7.352 11.504-19.86 18.37-33.446 18.37-14.875 0-28.383-8.226-35.258-21.476l-4.609-8.883-8.234 5.688a39.496 39.496 0 0 1-22.52 7.015c-18.246 0-34.074-12.375-38.496-30.109l-1.281-5.144-5.145-1.282c-17.726-4.414-30.113-20.242-30.113-38.496 0-6.55 1.555-12.8 4.629-18.586l5.809-10.937-12.235-1.922c-19.414-3.055-33.512-19.527-33.512-39.176a39.726 39.726 0 0 1 9.332-25.558l6.125-7.282-7.722-5.562c-10.367-7.469-16.563-19.516-16.563-32.219 0-12.676 5.891-24.3 16.149-31.902l4.976-3.692-1.78-5.93a39.82 39.82 0 0 1-1.688-11.44 39.576 39.576 0 0 1 32.953-39.098l4.441-.762 1.984-4.043c1.07-2.18 2.368-4.176 3.762-6.082.051-.063.121-.086.164-.156a40.131 40.131 0 0 1 13.41-11.512c.301-.16.594-.328.903-.477.941-.468 1.914-.867 2.886-1.254.68-.265 1.36-.52 2.047-.75.805-.265 1.606-.52 2.426-.734.98-.254 1.98-.457 2.977-.637.636-.113 1.261-.254 1.906-.336 1.715-.226 3.426-.367 5.172-.367 12.898 0 25.047 6.328 32.504 16.938l7.222 10.277 7.223-10.277c7.457-10.61 19.606-16.938 32.5-16.938 14.215 0 27.43 7.703 34.508 20.098l9.844 17.258 6.203-18.875a39.653 39.653 0 0 1 37.718-27.313c2.051 0 4.043.203 6.012.512.602.09 1.196.223 1.785.336a41.01 41.01 0 0 1 4.157 1.07c.586.188 1.175.356 1.75.567 1.793.664 3.53 1.414 5.199 2.312.324.176.617.406.941.59a39.92 39.92 0 0 1 3.852 2.535c.625.465 1.226.98 1.816 1.48a40.22 40.22 0 0 1 2.508 2.313c.602.602 1.2 1.195 1.766 1.84.84.953 1.605 1.976 2.347 3.015.364.504.77.965 1.106 1.485.008.02.035.027.043.043a39.518 39.518 0 0 1 5.215 12.015l1.28 5.145 5.145 1.281c17.727 4.414 30.114 20.242 30.07 39.153l-.16 5.566 4.97 2.543c13.39 6.844 21.714 20.394 21.714 35.375 0 12.894-6.328 25.043-16.937 32.5l-10.278 7.223zm0 0" />
    </svg>
    <svg xmlns="http://www.w3.org/2000/svg" width="511pt" viewBox="-62 0 511 511.999" height="511pt" id="p">
      <path d="M232.059 174.898c.312-1.98.043-4.062-1.094-5.902-12.8-20.672-16.047-65.016-16.078-65.457-.34-4.781-4.465-8.355-9.262-8.05a8.676 8.676 0 0 0-8.05 9.257c.128 1.875 3.183 43.649 16.097 68.84-.14.012-.285.02-.426.035-17.668.668-130.516 8.652-137.164 103.145-3.695 52.574 8.148 79.293 50.703 114.34 51.844 42.687 74.969 63.644 80.055 113.109a8.679 8.679 0 0 0 8.637 7.785 8.686 8.686 0 0 0 8.636-7.793c4.91-47.766 26.91-69.945 71.575-107.035 0 0 .007 0 .007-.008l1.79-1.477.007-.007c1.832-1.52 3.63-3.012 5.54-4.582 42.554-35.051 54.41-61.77 50.702-114.34-5.558-79.012-85.351-97.52-121.675-101.86zm-16.7 289.891c-11.453-29.023-33.113-49.965-65.68-77.23 19.255-25.985 42.173-40.344 65.231-40.344 23.055 0 46.008 14.3 65.274 40.308-32.176 26.954-53.532 47.754-64.825 77.266zm78.114-88.34c-22.528-30.015-50.106-46.59-78.563-46.59-28.453 0-56.039 16.575-78.558 46.598-36.891-30.746-46.196-52.25-42.95-98.465 2.508-35.625 23.328-61.058 61.883-75.57 27.594-10.387 55.086-11.395 59.625-11.488 4.54.093 32.031 1.101 59.625 11.488 38.559 14.52 59.375 39.945 61.883 75.57 3.246 46.211-6.055 67.703-42.945 98.457zm0 0" />
      <path d="m147.273 158.332 43.372-9.07a8.683 8.683 0 0 0 6.109-4.867 8.635 8.635 0 0 0-.277-7.801l-21.32-38.852c-24.516-44.683-74.509-67.66-124.38-57.246L7.402 49.562a8.713 8.713 0 0 0-6.109 4.872 8.673 8.673 0 0 0 .277 7.8l21.325 38.848c20.585 37.508 59.113 59.73 100.457 59.73 7.902 0 15.914-.816 23.921-2.48zM38.105 92.734 22.425 64.16l31.9-6.676c42.386-8.879 84.792 10.676 105.62 48.606l15.68 28.578-31.898 6.672c-42.348 8.879-84.793-10.672-105.622-48.606zM385.926 2.547a8.623 8.623 0 0 0-7.41-2.45l-43.832 6.528c-50.41 7.508-89.325 46.418-96.829 96.82l-6.527 43.832a8.693 8.693 0 0 0 2.45 7.41 8.674 8.674 0 0 0 6.132 2.543c.426 0 .852-.027 1.277-.097l43.833-6.524c50.41-7.507 89.312-46.422 96.816-96.82l6.527-43.832a8.658 8.658 0 0 0-2.437-7.41zm-21.254 48.691c-6.367 42.797-39.406 75.836-82.203 82.215l-32.239 4.797 4.801-32.238c6.367-42.797 39.414-75.836 82.211-82.203L369.48 19zm0 0" />
    </svg>
    <svg xmlns="http://www.w3.org/2000/svg" width="512pt" viewBox="-34 0 511 512" height="512pt" id="q">
      <path d="M442.36 157.406c-4.07-15-13.79-27.531-27.352-35.308-13.567-7.778-29.309-9.817-44.293-5.743l-1.492.415-56.309 38.906c5.621-7.555 10.293-18.719 10.293-39.516C323.207 20.148 273.086 0 231.039 0c-86.332 0-96.32 66.64-96.32 116.773 0 20.586 8.293 33.762 13.949 41.559l-72.012-45.691-2.46-1.079c-31.028-8.433-63.2 9.97-71.645 41.04-8.39 30.847 9.719 62.753 40.394 71.464l52.801 22.852c18.008 11.184 45.352 35.887 32.02 77.887l-41.903 73.144c-27.98 8.766-45.37 37.207-39.972 66.508C50.969 492.004 75.805 512 104.96 512h16.285c.629 0 1.258-.035 1.879-.082l1.148-.063a42.976 42.976 0 0 0 2.164-.125c2.903-.261 5.868-.773 9.29-1.625l1.695-.449a57.337 57.337 0 0 0 8.168-3.082 49.425 49.425 0 0 0 2.515-1.215 59.874 59.874 0 0 0 6.872-4.23c.98-.692 1.937-1.39 2.812-2.11a58.768 58.768 0 0 0 5.691-5.273c.817-.86 1.625-1.715 2.399-2.633a55.602 55.602 0 0 0 4.824-6.707l50.75-71.879c3.531-5.004 11.625-5.004 15.137 0l49.644 70.27c.34.574.707 1.098.899 1.265 1.617 2.622 3.262 4.93 5.047 7.051.773.918 1.582 1.77 2.398 2.621a57.362 57.362 0 0 0 5.64 5.239 50.412 50.412 0 0 0 2.84 2.136 59.264 59.264 0 0 0 6.919 4.258c.832.43 1.648.817 2.449 1.188 2.73 1.265 5.488 2.308 8.168 3.082l2.215.574c2.949.738 5.914 1.25 8.796 1.508a40.96 40.96 0 0 0 2.192.129l1.148.062c.63.055 1.246.09 1.887.09h16.285c29.156 0 54-19.996 59.059-47.543 5.398-29.309-11.992-57.75-39.973-66.508l-41.902-73.144c-13.14-41.426 13.48-66.059 31.008-77.239l40.742-18.73c14.672-4.184 26.922-13.797 34.566-27.133 7.774-13.574 9.82-29.305 5.742-44.297zM23.882 187.97c-5.387-9.406-6.809-20.293-3.988-30.66 2.812-10.356 9.55-19.032 18.945-24.422 9.035-5.184 19.422-6.7 29.398-4.305l1.422.91-29.633 74.078c-6.668-3.55-12.27-8.847-16.144-15.601zm86.699 202.984 76.98 38.488-7.093 10.051-75.938-37.969zm46.035 82.332-.976 1.383c-1.063 1.707-2.203 3.363-3.504 4.898-.532.63-1.09 1.211-1.664 1.813a41.422 41.422 0 0 1-3.989 3.695c-.609.5-1.238.95-1.894 1.418a40.515 40.515 0 0 1-4.77 2.938c-.558.289-1.105.554-1.715.836a39.423 39.423 0 0 1-5.714 2.144l-1.5.387a37.803 37.803 0 0 1-6.07 1.035l-19.864.207c-20.156 0-37.96-14.113-41.39-32.824-3.766-20.418 8.503-40.09 28.042-46.055l78.383 39.192zM274.47 435.04l73.18-43.906 6.367 11.156-72.121 43.266zm120.05 26.176c-3.44 18.71-21.246 32.82-41.402 32.82L336.168 494l-2.938-.164c-2.066-.188-4.078-.547-6.574-1.164l-1.008-.27c-1.957-.566-3.843-1.293-5.714-2.148a40.857 40.857 0 0 1-1.66-.809 40.238 40.238 0 0 1-4.817-2.96 42.62 42.62 0 0 1-1.922-1.446 40.474 40.474 0 0 1-3.933-3.656c-.567-.594-1.133-1.176-1.66-1.805-1.305-1.539-2.434-3.18-3.532-4.941-.289-.477-.61-.918-1.078-1.535l-9.055-12.82 74.836-44.895c19.16 6.195 31.125 25.633 27.407 45.828zm-41.257-229.719-1.035.567c-17.766 11.19-57.082 43.257-38.723 99.203l25.242 44.254-74.672 44.796-12.808-18.144a27.254 27.254 0 0 0-22.243-11.524 27.27 27.27 0 0 0-22.25 11.536l-8.757 12.414-78.508-39.254 24.308-42.414.747-1.664c18.62-56.715-21.747-88.82-39.965-99.985l-47.973-20.855 28.457-71.149 60.926 38.66 1.25.657c5.773 2.476 12.379 1.578 17.254-2.39a16.643 16.643 0 0 0 5.765-16.376c-.734-3.504-2.808-6.305-5.449-9.855-4.832-6.504-12.144-16.313-12.144-33.207 0-48.856 9.304-98.809 78.351-98.809 49.934 0 74.207 32.121 74.207 98.195 0 22.637-6.262 28.852-10.836 33.399-2.613 2.594-5.586 5.539-6.59 10.246-1.347 6.281.914 12.668 5.899 16.664 4.957 3.973 11.633 4.797 17.418 2.11l47.992-33.048 33.91 67.82zm67.773-38.723c-2.98 5.207-7.043 9.485-11.777 12.836l-35.184-70.37 2.766-1.903c9.918-2.309 20.246-.8 29.238 4.348 9.402 5.386 16.133 14.054 18.945 24.421 2.82 10.375 1.395 21.262-3.988 30.668zm0 0" />
      <path d="M229.043 296.422c-17.336 0-31.438 14.101-31.438 31.437s14.102 31.438 31.438 31.438 31.437-14.102 31.437-31.438-14.109-31.437-31.437-31.437zm0 44.91c-7.43 0-13.473-6.043-13.473-13.473 0-7.425 6.047-13.472 13.473-13.472 7.43 0 13.473 6.047 13.473 13.472 0 7.43-6.043 13.473-13.473 13.473zM229.043 215.578c-17.336 0-31.438 14.102-31.438 31.438s14.102 31.441 31.438 31.441 31.437-14.105 31.437-31.441-14.109-31.438-31.437-31.438zm0 44.914c-7.43 0-13.473-6.047-13.473-13.476 0-7.426 6.047-13.473 13.473-13.473 7.43 0 13.473 6.047 13.473 13.473.004 7.43-6.043 13.476-13.473 13.476zM278.445 71.86c0 9.921-8.043 17.964-17.965 17.964s-17.964-8.043-17.964-17.965 8.043-17.964 17.964-17.964 17.965 8.042 17.965 17.964zM215.57 71.86c0 9.921-8.043 17.964-17.965 17.964s-17.964-8.043-17.964-17.965 8.043-17.964 17.964-17.964 17.965 8.042 17.965 17.964zM269.465 107.79a8.976 8.976 0 0 0-8.985 8.983c0 10.758-15.566 21.332-31.34 21.332-16.21-.171-31.535-10.535-31.535-21.332 0-4.968-4.015-8.984-8.984-8.984s-8.98 4.016-8.98 8.984c0 23.2 25.5 39.055 49.402 39.297 23.371 0 49.402-16.14 49.402-39.297a8.98 8.98 0 0 0-8.98-8.984zm0 0" />
    </svg>
    <svg xmlns="http://www.w3.org/2000/svg" width="512pt" viewBox="0 -26 512 512" height="512pt" id="r">
      <path d="M495.863 240.43C506.426 225.29 512 207.797 512 189.844c0-39.442-26.938-76.016-68.633-93.168-15.387-6.332-27.238-18.57-31.71-32.723C400.272 27.855 374.382 7.332 332.5 1.207c-34.84-5.094-67.559 6.184-85.375 29.445-7.04 9.2-23.145 12.895-39.074 9.004-12.613-3.07-25.738-4.703-39.016-4.812-.476 0-.937-.008-1.418-.008-58.914 0-107.562 31.504-115.949 75.281-2.918 15.223-1.125 30.43 5.34 45.2 7.648 17.503.703 36.37-18.61 50.464C13.645 223.863 0 247.801 0 273.18c0 33.672 48.82 57.64 89.77 71.816 25.234 8.719 41.824 25.555 45.507 46.04l.215 1.183c7.84 40.3 50.254 68.582 101.836 68.582 1.73 0 3.473-.035 5.23-.102 39.153-1.433 76.657-17.996 100.352-44.304 7.297-8.098 19.055-12.614 29.34-11.114 17.816 2.543 35.977 1.188 54.016-4.101 41.777-12.23 73.64-45.645 79.304-83.16 2.903-19.215-.738-38.04-10.535-54.434-4.36-7.305-4.047-16.18.828-23.156zm-7.168 75.039c-4.683 31.078-31.699 58.93-67.226 69.324-15.66 4.59-31.43 5.812-46.778 3.594h-.011c-15.856-2.282-33.313 4.238-44.442 16.586-20.66 22.937-53.664 37.402-88.3 38.675-45.204 1.766-83.192-21.336-89.833-55.503-4.828-26.872-25.511-48.485-56.746-59.29-49.023-16.953-78.293-37.773-78.293-55.68 0-19.777 11.153-38.823 31.403-53.605 25.84-18.875 35.097-46.113 24.176-71.09-5.06-11.546-6.477-23.367-4.208-35.14 6.836-35.738 48.438-61.434 99.157-61.434.437 0 .863.008 1.289.008 11.965.113 23.781 1.57 35.125 4.336 22.664 5.531 45.449-.578 56.668-15.195 14.047-18.348 40.586-27.121 69.36-22.95 35.245 5.157 56.003 21.36 65.339 50.997 5.973 18.933 21.496 35.14 41.5 43.375 35.266 14.503 58.059 44.882 58.059 77.378 0 14.446-4.512 28.563-13.063 40.817-8.766 12.578-9.336 28.543-1.484 41.676 7.734 12.937 10.613 27.855 8.308 43.12zm0 0" />
      <path d="M320 119.469c-63.523 0-115.2 51.668-115.2 115.199 0 63.527 51.677 115.2 115.2 115.2s115.2-51.68 115.2-115.2c0-63.523-51.677-115.2-115.2-115.2zm0 213.332c-54.11 0-98.133-44.024-98.133-98.133 0-54.113 44.024-98.137 98.133-98.137s98.133 44.024 98.133 98.137c0 54.11-44.024 98.133-98.133 98.133zm0 0" />
      <path d="M320 153.602a81.13 81.13 0 0 0-23.844 3.566c-4.504 1.39-7.031 6.168-5.648 10.668a8.546 8.546 0 0 0 10.668 5.648A63.792 63.792 0 0 1 320 170.668c4.719 0 8.531-3.816 8.531-8.535s-3.812-8.531-8.531-8.531zM267.766 172.672c-18.329 15.453-28.832 38.043-28.832 61.996a8.526 8.526 0 0 0 8.535 8.535 8.526 8.526 0 0 0 8.531-8.535c0-18.91 8.305-36.746 22.766-48.938 3.601-3.039 4.062-8.421 1.027-12.023a8.534 8.534 0 0 0-12.027-1.035zM141.578 81.86c-1.922-4.301-6.95-6.227-11.266-4.333-17.996 8.012-32.664 20.547-43.578 37.274-2.586 3.949-1.468 9.23 2.473 11.808a8.527 8.527 0 0 0 11.805-2.473c9.086-13.929 21.281-24.355 36.23-31.011 4.309-1.922 6.238-6.973 4.336-11.266zM167.688 85.293c11-1.05 18.68-.063 18.867-.043.402.059.793.086 1.187.086 4.18 0 7.84-3.074 8.438-7.34.66-4.668-2.594-8.984-7.262-9.644-.39-.051-9.648-1.313-22.883-.04-4.695.45-8.125 4.626-7.664 9.317.45 4.683 4.574 8.105 9.316 7.664zM220.809 400.41l-1.274.145c-19.883 2.175-38.015-11.383-41.394-30.934-.805-4.652-5.223-7.723-9.856-6.953a8.522 8.522 0 0 0-6.957 9.855c4.559 26.403 27.64 45.329 54.05 45.329 2.032 0 4.09-.11 6.161-.34l1.39-.164c4.68-.578 7.997-4.848 7.41-9.524a8.514 8.514 0 0 0-9.53-7.414zM166.238 357.137c4.02-2.457 5.282-7.703 2.817-11.73-8.375-13.692-19.082-20.337-19.543-20.61-4-2.492-9.27-1.195-11.727 2.824a8.515 8.515 0 0 0 2.824 11.727c.078.05 7.735 4.914 13.895 14.976a8.528 8.528 0 0 0 7.285 4.078 8.46 8.46 0 0 0 4.45-1.265zm0 0" />
    </svg>
  </defs>
  <g data-name="229-can.svg">
    <g transform="rotate(-28 627.784 -844.917) scale(.183)">
      <path fill="transparent" d="M0 0h683v683H0z" />
      <use xlink:href="#a" />
    </g>
    <g transform="rotate(-28 371.784 181.843) scale(.183)">
      <path fill="transparent" d="M0 0h683v683H0z" />
      <use xlink:href="#a" />
    </g>
  </g>
  <g transform="rotate(103 46.64 240.997) scale(.183)" data-name="228-candy.svg">
    <path fill="transparent" d="M0 0h683v683H0z" />
    <use xlink:href="#b" />
  </g>
  <g transform="rotate(42 -33.404 456.245) scale(.183)" data-name="130-kitchen.svg">
    <path fill="transparent" d="M0 0h683v683H0z" />
    <use xlink:href="#c" />
  </g>
  <g transform="matrix(.184 0 0 .184 177.281 34.148)" data-name="110-cheese.svg">
    <path fill="transparent" d="M0 0h681v681H0z" />
    <use xlink:href="#d" />
  </g>
  <g transform="rotate(6 -224.157 453.544) scale(.183)" data-name="106-pizza.svg">
    <path fill="transparent" d="M0 0h683v683H0z" />
    <use xlink:href="#e" />
  </g>
  <g transform="rotate(-158 124.39 120.395) scale(.184)" data-name="138-meat.svg">
    <path fill="transparent" d="M0 0h681v681H0z" />
    <use xlink:href="#f" />
  </g>
  <g data-name="205-water.svg">
    <g transform="rotate(7.004 98.051 3647.748) scale(.18741)">
      <path fill="transparent" d="M0 0h683v683H0z" />
      <use xlink:href="#g" />
    </g>
    <g transform="rotate(7.004 -158.225 -537.815) scale(.18741)">
      <path fill="transparent" d="M0 0h683v683H0z" />
      <use xlink:href="#g" />
    </g>
  </g>
  <g transform="rotate(14.002 -1052.24 416.04) scale(.18741)" data-name="104-pizza.svg">
    <path fill="transparent" d="M0 0h683v683H0z" />
    <use xlink:href="#h" />
  </g>
  <g transform="rotate(-14.001 366.004 -1200.99) scale(.18796)" data-name="164-pumpkin.svg">
    <path fill="transparent" d="M0 0h681v681H0z" />
    <use xlink:href="#i" />
  </g>
  <g transform="rotate(-16.002 1207.151 -947.87) scale(.18741)" data-name="204-grater.svg">
    <path fill="transparent" d="M0 0h683v683H0z" />
    <use xlink:href="#j" />
  </g>
  <g transform="rotate(9.003 -1896.657 1761.556) scale(.18741)" data-name="205-water.svg">
    <path fill="transparent" d="M0 0h683v683H0z" />
    <use xlink:href="#k" />
  </g>
  <g data-name="165-cherries.svg">
    <g transform="rotate(13.002 -1487.84 792.1) scale(.18741)">
      <path fill="transparent" d="M0 0h683v683H0z" />
      <use xlink:href="#l" />
    </g>
    <g transform="rotate(13.002 759.042 536.019) scale(.18741)">
      <path fill="transparent" d="M0 0h683v683H0z" />
      <use xlink:href="#l" />
    </g>
  </g>
  <g data-name="194-rolling pin.svg">
    <g transform="rotate(62 -271.884 342.838) scale(.18741)">
      <path fill="transparent" d="M0 0h683v683H0z" />
      <use xlink:href="#m" />
    </g>
    <g transform="rotate(62 154.172 86.834) scale(.18741)">
      <path fill="transparent" d="M0 0h683v683H0z" />
      <use xlink:href="#m" />
    </g>
  </g>
  <g data-name="131-octopus.svg">
    <g transform="rotate(101 145.613 464.17) scale(.18796)">
      <path fill="transparent" d="M0 0h681v681H0z" />
      <use xlink:href="#n" />
    </g>
    <g transform="rotate(101 356.643 208.168) scale(.18796)">
      <path fill="transparent" d="M0 0h681v681H0z" />
      <use xlink:href="#n" />
    </g>
    <g transform="rotate(101 -110.388 253.14) scale(.18796)">
      <path fill="transparent" d="M0 0h681v681H0z" />
      <use xlink:href="#n" />
    </g>
    <g transform="rotate(101 100.642 -2.862) scale(.18796)">
      <path fill="transparent" d="M0 0h681v681H0z" />
      <use xlink:href="#n" />
    </g>
  </g>
  <g data-name="176-Raspberry.svg">
    <g transform="rotate(-5.004 3487.056 -4754.456) scale(.18796)">
      <path fill="transparent" d="M0 0h681v681H0z" />
      <use xlink:href="#o" />
    </g>
    <g transform="rotate(-5.004 3230.656 1108.908) scale(.18796)">
      <path fill="transparent" d="M0 0h681v681H0z" />
      <use xlink:href="#o" />
    </g>
  </g>
  <g data-name="154-radish.svg">
    <g transform="matrix(.18796 0 0 .18796 233 463.34)">
      <path fill="transparent" d="M0 0h681v681H0z" />
      <use xlink:href="#p" />
    </g>
    <g transform="matrix(.18796 0 0 .18796 233 -48.66)">
      <path fill="transparent" d="M0 0h681v681H0z" />
      <use xlink:href="#p" />
    </g>
  </g>
  <g data-name="074-gingerbread.svg">
    <g transform="rotate(10.003 -2132.804 2253.452) scale(.18741)">
      <path fill="transparent" d="M0 0h683v683H0z" />
      <use xlink:href="#q" />
    </g>
    <g transform="rotate(10.003 793.29 1997.317) scale(.18741)">
      <path fill="transparent" d="M0 0h683v683H0z" />
      <use xlink:href="#q" />
    </g>
  </g>
  <g transform="matrix(.1874 0 0 .1874 375.063 159.697)" data-name="087-egg.svg">
    <path fill="transparent" d="M0 0h683v683H0z" />
    <use xlink:href="#r" />
  </g>
</svg>
