<svg xmlns="http://www.w3.org/2000/svg" xmlns:xlink="http://www.w3.org/1999/xlink" width="512" height="512" viewBox="0 0 512 512">
  <defs>
    <svg xmlns="http://www.w3.org/2000/svg" width="512pt" viewBox="-113 0 512 512.002" height="512pt" id="a">
      <path d="M271.46 148.707c-13.702-21.95-35.046-47.844-60.093-72.89-25.047-25.047-50.937-46.387-72.89-60.094C112.074-.762 94.69-4.247 85.375 5.09c-9.79 9.789-5.41 28.539 13.39 57.32l2.215 3.399 26.332 3.761-11.945 15.93 4.414 5.43c9.656 11.902 20.489 23.82 31.969 35.558-4.219-.172-8.445-.375-12.645-.375C59.797 126.113 0 153.125 0 188.933V449.18c0 35.808 59.797 62.824 139.105 62.824 79.305 0 139.102-27.016 139.102-62.824V204.563c1.402-.735 2.738-1.594 3.898-2.754 9.325-9.325 5.84-26.7-10.644-53.102zm-132.362-4.64c10.77 0 21.644.593 32.379 1.777.636.582 1.308 1.176 1.957 1.77 1.57 1.433 3.168 2.87 4.78 4.323 1.466 1.313 2.911 2.614 4.4 3.922a522.591 522.591 0 0 0 7.85 6.73c1.224 1.024 2.442 2.013 3.673 3.028a395.584 395.584 0 0 0 6.316 5.098c.969.773 1.942 1.535 2.918 2.297 6.453 5.027 12.961 9.773 19.375 14.054.594.395 1.176.774 1.777 1.157a234.644 234.644 0 0 0 7.45 4.675c.925.559 1.851 1.114 2.765 1.645a160.68 160.68 0 0 0 6.219 3.383 122.072 122.072 0 0 0 6.84 3.277c.984.43 1.992.914 2.95 1.3.648.263 1.339.63 1.964.86-12.895 12.739-41.883 24.305-80.606 28.637-1.66.18-3.304.371-5 .531-1.667.153-3.363.285-5.07.414-2.308.168-4.648.32-7.02.438-1.37.07-2.745.152-4.144.199-3.86.14-7.773.242-11.785.242-71.399 0-121.152-23.648-121.152-44.87 0-21.227 49.761-44.888 121.164-44.888zM17.94 315.722c6.625 2.242 25.418 7.261 25.418 7.261 59.743 14.008 67.426 15.813 73.375 64.024.7 5.722.215 13.453-6.074 17.832-4.922 3.426-25.496 12.238-83.867-17.934a177.8 177.8 0 0 1-8.848-4.898c-.004 0-.004-66.285-.004-66.285zm242.313 133.476c0 21.223-49.754 44.871-121.156 44.871-71.399 0-121.153-23.648-121.153-44.87v-10.985c24.34 21.922 70.61 37.441 121.153 37.441 50.543 0 96.816-15.527 121.156-37.441zm0-44.87c0 21.5-50.879 53.378-121.156 53.378S17.945 425.82 17.945 404.328v-1.797c.196.11.41.235.61.332 34.675 17.914 58.925 23.871 75.851 23.871 12.332-.007 20.766-3.168 26.5-7.16 10.645-7.402 15.492-19.754 13.633-34.758-7.387-59.949-28.117-65.234-87.68-79.21 0 0-21.304-6.145-28.914-8.93v-31.52c23.47 18.84 67.91 31.008 121.153 31.008 53.246 0 97.687-12.168 121.156-31.008zm0-170.985c0 21.226-49.754 44.875-121.156 44.875-71.399 0-121.153-23.649-121.153-44.875v-12.59c.5.406 1.137.754 1.66 1.148a87.595 87.595 0 0 0 6.567 4.536c.953.59 1.887 1.183 2.883 1.765a117.73 117.73 0 0 0 9.226 4.82c.43.196.805.422 1.246.625 3.723 1.7 7.72 3.262 11.883 4.75 1.164.422 2.395.797 3.598 1.204 3.21 1.066 6.531 2.07 9.969 3.015 1.375.375 2.722.754 4.128 1.102a229.532 229.532 0 0 0 13.606 3.015c.344.063.664.153 1.016.215 5.03.934 10.285 1.7 15.632 2.371 1.543.196 3.121.348 4.692.52 4.074.441 8.219.808 12.437 1.097 1.68.114 3.34.243 5.035.32 5.754.298 11.586.505 17.57.505 5.747 0 11.364-.2 16.919-.485 1.715-.09 3.41-.18 5.097-.297 4.434-.304 8.805-.683 13.086-1.16 2.918-.312 5.735-.707 8.563-1.11 2.34-.331 4.676-.675 6.953-1.062 2.988-.492 5.914-1.02 8.785-1.605.457-.09.899-.207 1.356-.293a221.272 221.272 0 0 0 18.867-4.82c.277-.082.554-.168.824-.25 9.387-2.918 17.824-6.328 25.227-10.207.296-.153.593-.305.882-.457 5.41-2.887 10.446-5.93 14.602-9.27zm9.008-44.457-1.418-.082c-12.492-.727-44.809-19.223-86.27-58.09l-2.144-2.02h-.04c-3.472-3.304-7-6.715-10.597-10.312-10.992-10.996-21.27-22.195-30.637-33.367l21.7-28.934-48.247-6.89C98.605 28.503 98.13 20.042 98.301 17.894c9.539-1.641 49.117 19.359 100.379 70.601 51.277 51.309 72.414 91.11 70.582 100.39zm0 0" />
      <path d="m94.262 153.742 8.902 15.578-62.812 35.899-8.903-15.578zm63.258 15.266-80.778 53.844-9.953-14.934 80.777-53.844zm36.32 8.695-71.797 53.848-10.758-14.352 71.797-53.847zm27.148 17.777-44.87 35.899-11.22-14.027 44.872-35.899zm0 0" />
    </svg>
    <svg xmlns="http://www.w3.org/2000/svg" width="512pt" viewBox="0 0 512 512.002" height="512pt" id="b">
      <path d="M490.734 116.914h-14.859a2.882 2.882 0 0 1-2.875-2.871V99.18c0-11.711-9.527-21.246-21.234-21.246h-14.871a2.868 2.868 0 0 1-2.868-2.864V60.207c0-11.703-9.523-21.234-21.234-21.234h-14.867a2.885 2.885 0 0 1-2.875-2.875V21.246C395.066 9.523 385.539 0 373.828 0h-18.965a21.237 21.237 0 0 0-19.52 12.867l-15.835 36.946c-26.528 32.062-54.192 63.273-82.711 93.703a2000.046 2000.046 0 0 1-31.817 33.187c-.542.55-1.074 1.113-1.628 1.66a2003.59 2003.59 0 0 1-32.938 32.754c-.375.367-.75.746-1.137 1.113a2051.481 2051.481 0 0 1-34.132 32.368l-.825.773a2004.57 2004.57 0 0 1-35.308 31.918c-.192.176-.383.352-.578.516l-9.93 8.77.039.019c-12.785 11.133-25.691 22.125-38.734 32.918l-37.235 15.953A20.761 20.761 0 0 0 0 354.55v19.77c0 11.44 9.316 20.753 20.758 20.753h15.836a2.383 2.383 0 0 1 2.379 2.39v15.825c0 11.445 9.312 20.758 20.757 20.758h15.836a2.385 2.385 0 0 1 2.387 2.39v15.836c0 11.442 9.317 20.758 20.758 20.758h15.836a2.376 2.376 0 0 1 2.379 2.38v15.831c0 11.445 9.316 20.758 20.758 20.758h19.765a20.713 20.713 0 0 0 19.078-12.582l15.953-37.227c26.454-31.972 54.036-63.093 82.465-93.449a2017.348 2017.348 0 0 1 32.57-33.965 1997.53 1997.53 0 0 1 34.59-34.418c.11-.101.211-.21.32-.312a2017.63 2017.63 0 0 1 70.7-65.453l10.379-9.156-.059-.028c12.79-11.133 25.684-22.129 38.735-32.918l36.953-15.836a21.216 21.216 0 0 0 12.855-19.52v-18.991c-.015-11.704-9.543-21.23-21.254-21.23zM359.691 258.238c-.707.66-1.421 1.32-2.128 1.98a2053.776 2053.776 0 0 0-29.56 28.2c-.788.773-1.581 1.543-2.366 2.316a2028.104 2028.104 0 0 0-29.203 29.063c-.41.422-.825.844-1.239 1.266-9.894 10.078-19.703 20.226-29.382 30.496L121.358 282c.145-.129.286-.27.43-.395a2040.106 2040.106 0 0 0 30.055-27.472c.965-.903 1.937-1.801 2.902-2.703a2055.363 2055.363 0 0 0 28.961-27.63c1-.972 1.992-1.948 2.996-2.921a2088.682 2088.682 0 0 0 28.59-28.453c.672-.688 1.344-1.38 2.012-2.059 9.71-9.89 19.343-19.863 28.851-29.949l144.453 69.559a2032.901 2032.901 0 0 0-30.918 28.261zM177.461 451.48l-17.844 40.688a2.363 2.363 0 0 1-2.187 1.434h-19.766a2.384 2.384 0 0 1-2.387-2.387v-15.836c0-11.438-9.316-20.75-20.75-20.75H98.691a2.385 2.385 0 0 1-2.386-2.39v-15.837c0-11.441-9.317-20.757-20.758-20.757H59.719a2.381 2.381 0 0 1-2.387-2.387v-15.824c0-11.446-9.312-20.758-20.75-20.758H20.758a2.386 2.386 0 0 1-2.39-2.39V354.52c0-.954.577-1.817 1.44-2.196l38.45-16.476 2.234-1.36c15.531-12.832 30.817-25.984 45.969-39.285l146.234 70.414c-25.855 27.988-51.023 56.563-75.234 85.863zM493.6 157.11c0 1.148-.68 2.175-1.726 2.636l-38.164 16.352-2.23 1.359c-15.532 12.828-30.817 25.984-45.973 39.281l-146.227-70.41c25.867-27.96 51.035-56.543 75.239-85.844l17.718-40.379a2.833 2.833 0 0 1 2.625-1.734h18.969a2.875 2.875 0 0 1 2.863 2.875v14.86c0 11.71 9.528 21.246 21.246 21.246h14.872a2.868 2.868 0 0 1 2.863 2.867v14.867c0 11.703 9.527 21.238 21.234 21.238h14.871a2.876 2.876 0 0 1 2.867 2.875v14.86c0 11.71 9.524 21.246 21.243 21.246h14.863a2.875 2.875 0 0 1 2.875 2.863v18.941zm0 0" />
      <path d="M220.254 213.773c-23.274 23.274-23.274 61.145 0 84.426 11.648 11.649 26.93 17.453 42.226 17.453 15.286 0 30.575-5.824 42.215-17.453 11.278-11.277 17.485-26.27 17.485-42.222 0-15.954-6.215-30.934-17.485-42.215-11.27-11.278-26.261-17.489-42.215-17.489-15.957 0-30.945 6.23-42.226 17.5zm83.559 42.211c0 11.043-4.301 21.422-12.106 29.239-16.11 16.109-42.324 16.109-58.453 0-16.11-16.121-16.11-42.344 0-58.453 7.816-7.817 18.187-12.106 29.234-12.106 11.051 0 21.422 4.297 29.227 12.106 7.797 7.796 12.098 18.175 12.098 29.214zM366.398 67.637a9.178 9.178 0 0 0-12.988 0l-12.984 12.988a9.171 9.171 0 0 0 0 12.988 9.177 9.177 0 0 0 12.988 0l12.988-12.988c3.578-3.582 3.578-9.395-.004-12.988zM392.375 93.613a9.178 9.178 0 0 0-12.988 0l-12.985 12.996c-3.593 3.594-3.593 9.407 0 12.989a9.145 9.145 0 0 0 6.493 2.691 9.177 9.177 0 0 0 6.496-2.691l12.984-12.996c3.582-3.582 3.582-9.407 0-12.989zM418.36 119.598a9.178 9.178 0 0 0-12.989 0l-12.988 12.988a9.178 9.178 0 0 0 0 12.988 9.173 9.173 0 0 0 6.496 2.688 9.157 9.157 0 0 0 6.492-2.688l12.988-12.988c3.582-3.582 3.582-9.399 0-12.988zM431.348 145.582l-12.989 12.988a9.174 9.174 0 0 0 0 12.985 9.16 9.16 0 0 0 6.496 2.691c2.348 0 4.7-.898 6.493-2.691l12.988-12.985a9.178 9.178 0 0 0 0-12.988 9.178 9.178 0 0 0-12.988 0zM93.613 340.426a9.171 9.171 0 0 0-12.988 0L67.641 353.41a9.171 9.171 0 0 0 0 12.988 9.145 9.145 0 0 0 6.492 2.692 9.177 9.177 0 0 0 6.496-2.692l12.984-12.988c3.59-3.59 3.59-9.402 0-12.984zM119.598 366.41a9.171 9.171 0 0 0-12.989 0l-12.988 12.985a9.178 9.178 0 0 0 0 12.988 9.16 9.16 0 0 0 6.496 2.691 9.161 9.161 0 0 0 6.492-2.691l12.989-12.988c3.582-3.59 3.582-9.403 0-12.985zM145.57 392.387a9.167 9.167 0 0 0-12.984 0l-12.988 12.984a9.178 9.178 0 0 0 0 12.988c1.793 1.793 4.144 2.692 6.496 2.692s4.699-.903 6.492-2.692l12.988-12.988c3.578-3.59 3.578-9.402-.004-12.984zM158.57 418.36l-12.988 12.988a9.167 9.167 0 0 0 0 12.984 9.151 9.151 0 0 0 6.492 2.691 9.16 9.16 0 0 0 6.496-2.691l12.989-12.984a9.178 9.178 0 0 0 0-12.989c-3.594-3.59-9.407-3.59-12.989 0zm0 0" />
    </svg>
    <svg xmlns="http://www.w3.org/2000/svg" width="512pt" viewBox="-151 0 511 512" height="512pt" id="c">
      <path d="M52.57 303.73c0 4.793-3.886 8.676-8.68 8.676-4.788 0-8.675-3.883-8.675-8.676s3.887-8.68 8.676-8.68a8.68 8.68 0 0 1 8.68 8.68zM52.57 338.441c0 4.793-3.886 8.676-8.68 8.676a8.676 8.676 0 0 1-8.675-8.676c0-4.793 3.887-8.68 8.676-8.68a8.68 8.68 0 0 1 8.68 8.68zM174.156 303.73c0 4.793-3.883 8.676-8.676 8.676s-8.68-3.883-8.68-8.676 3.887-8.68 8.68-8.68 8.676 3.887 8.676 8.68zM174.156 338.441c0 4.793-3.883 8.676-8.676 8.676s-8.68-3.883-8.68-8.676 3.887-8.68 8.68-8.68 8.676 3.887 8.676 8.68zm0 0" />
      <path d="M78.605 0a8.67 8.67 0 0 0-8.68 8.68v112.812c0 11.297-7.28 20.844-17.355 24.438V8.68A8.67 8.67 0 0 0 43.89 0a8.673 8.673 0 0 0-8.68 8.68v137.25c-10.073-3.594-17.355-13.14-17.355-24.438V8.68A8.67 8.67 0 0 0 9.18 0 8.67 8.67 0 0 0 .5 8.68v112.812c0 20.95 14.934 38.477 34.71 42.512v88.89c-14.925 3.88-26.034 17.348-26.034 33.477V477.29c0 19.145 15.57 34.711 34.71 34.711 19.145 0 34.712-15.566 34.712-34.71V286.37c0-16.129-11.106-29.598-26.032-33.476v-88.891c19.778-4.035 34.711-21.555 34.711-42.512V8.68A8.664 8.664 0 0 0 78.605 0zM61.25 286.371V477.29c0 9.57-7.785 17.356-17.36 17.356-9.57 0-17.355-7.786-17.355-17.356V286.371c0-9.57 7.785-17.355 17.356-17.355 9.574 0 17.359 7.785 17.359 17.355zM190.914 14.598C181.144 4.773 167.144 0 148.125 0a8.67 8.67 0 0 0-8.68 8.68v251.66c0 .945.258 1.812.54 2.664-5.669 6.176-9.22 14.336-9.22 23.367V477.29c0 19.14 15.57 34.711 34.712 34.711 19.144 0 34.71-15.57 34.71-34.71V286.37c0-11.113-5.343-20.922-13.5-27.281 22.137-28.672 22.196-71.082 22.18-132.738l.051-19.145c.21-41.41.394-74.117-18.004-92.61zm-8.078 462.691c0 9.57-7.785 17.356-17.36 17.356-9.57 0-17.355-7.786-17.355-17.356V286.371c0-9.57 7.785-17.355 17.356-17.355 9.574 0 17.359 7.785 17.359 17.355zm8.73-370.168-.054 19.238c.02 61.04-.043 101.903-21.617 125.75-1.458-.191-2.907-.449-4.415-.449-3.011 0-5.882.504-8.68 1.23V17.868c9.634 1.074 16.864 3.992 21.81 8.965 13.3 13.383 13.148 42.902 12.956 80.29zm0 0" />
    </svg>
    <svg xmlns="http://www.w3.org/2000/svg" width="512pt" viewBox="-69 0 512 512.002" height="512pt" id="d">
      <path d="M347.738 143.434c.844-.243 1.676-.485 2.528-.739a8.643 8.643 0 0 0 5.605-5.187c.512-1.328.633-2.727.477-4.106-.043-1.484-.364-2.941-1.145-4.242-16.117-26.625-44.527-44.328-84.55-52.773 4.917-6.778 8.59-14.086 10.925-21.88.348-1.16.406-2.335.277-3.472-.105-3.433-2.167-6.61-5.562-7.87-31.824-11.845-51.203-6.872-61.805-.704-2.902-3.316-6.968-5.719-11.925-7.219L200.227 7.93a8.683 8.683 0 0 0-3.743-6.41 8.667 8.667 0 0 0-7.332-1.172l-43.386 12.636a8.674 8.674 0 0 0-5.805 11.09L146 42.062c-10.754-5.968-29.95-10.472-61.059 1.102-3.394 1.258-5.457 4.438-5.562 7.871-.133 1.137-.07 2.313.277 3.473 2.45 8.183 6.293 15.777 11.43 22.738-39.606 8.41-66.102 25.582-80.68 52.25-.703 1.285-.972 2.707-.972 4.14-.121 1.364.027 2.75.562 4.052a8.7 8.7 0 0 0 5.54 5.015c3.089.922 6.16 1.762 9.222 2.516C8.125 168.375 0 200.707 0 243.44c-.016 118.516 115.879 268.563 186.902 268.563 71.02 0 186.918-150.047 186.918-268.582-.011-43.817-8.558-76.715-26.082-99.988zM32.297 128.535c15.152-19.129 40.664-31.05 77.61-36.277a8.672 8.672 0 0 0 7.09-6.09c.276-.938.355-1.89.312-2.836.113-2.578-.887-5.129-2.871-6.89-6.434-5.696-11.372-12.118-14.81-19.153 32.485-9.383 42.802 4.184 43.15 4.652 2.023 3.121 5.824 4.625 9.433 3.696a8.169 8.169 0 0 0 1.512-.54l1.3 3.872 9.805 29.234a8.66 8.66 0 0 0 3.332 4.383c.043.027.07.078.113.105.157.106.348.114.512.211.703.407 1.442.711 2.23.91.15.036.27.137.415.165.203.035.418-.028.617-.008.332.043.652.164 1 .164.59 0 1.187-.063 1.777-.184l25.488-5.328a8.69 8.69 0 0 0 6.875-9.234l-2.238-26.188a8.987 8.987 0 0 0 3.914 2.29c3.504.972 7.325-.419 9.469-3.368.457-.633 10.785-14.207 43.234-4.844-3.316 6.664-8.039 12.844-14.18 18.434-1.952 1.77-2.917 4.305-2.784 6.863-.036.946.043 1.91.336 2.848a8.658 8.658 0 0 0 7.09 6.031c37.706 5.274 64.331 17.52 80.976 37.23-35.383 8.712-54.367 4.532-64.203-.93-9.477-5.257-11.48-12.233-11.516-12.355-.945-4.16-4.668-7.023-9.031-6.734a8.686 8.686 0 0 0-8.07 7.863c-4.356 47.121-37.118 64.754-48.895 69.614-11.773-4.86-44.535-22.493-48.89-69.614-.34-3.68-3.004-6.691-6.586-7.586a8.433 8.433 0 0 0-2.06-.25 8.779 8.779 0 0 0-7.331 3.98c-.957 1.438-22.781 33.34-94.125 15.864zM183.828 19.961l1.977 23.152v.02l3.437 40.074-10.414 2.168-12.789-38.133v-.008l-6.754-20.14zm3.07 474.684c-61.39 0-169.562-145.235-169.562-251.223 0-43.59 8.93-74.55 27.059-94.73 43.683 7.187 69.66-3.61 83.492-13.614 11.914 49.125 51.894 65.535 60.531 68.54.922.32 1.883.484 2.855.484a8.73 8.73 0 0 0 2.852-.485c8.43-2.933 46.734-18.62 59.637-65.078a48.906 48.906 0 0 0 5.648 3.836c16.246 9.477 39.418 11.074 68.844 5.07 18.902 20.149 28.21 51.52 28.21 95.977-.01 105.988-108.175 251.223-169.566 251.223zm0 0" />
      <path d="M82.754 188.066s-13.156 45.942-13.156 50.375a16.52 16.52 0 0 0 4.867 11.754 16.48 16.48 0 0 0 11.742 4.868 16.48 16.48 0 0 0 11.742-4.868 16.507 16.507 0 0 0 4.867-11.754c0-4.433-13.156-50.375-13.156-50.375-1.058-3.394-5.86-3.394-6.906 0zM185.398 222.777s-13.156 45.942-13.156 50.38c0 4.433 1.727 8.605 4.867 11.75a16.474 16.474 0 0 0 11.743 4.866 16.48 16.48 0 0 0 11.742-4.867 16.505 16.505 0 0 0 4.867-11.75c0-4.437-13.156-50.379-13.156-50.379-1.051-3.39-5.856-3.39-6.907 0zM289.258 187.96c-1.059-3.394-5.86-3.394-6.91 0 0 0-13.157 45.942-13.157 50.38a16.5 16.5 0 0 0 4.872 11.75 16.474 16.474 0 0 0 11.742 4.867c4.433 0 8.61-1.727 11.738-4.867a16.486 16.486 0 0 0 4.871-11.75c0-4.445-13.156-50.38-13.156-50.38zM124.652 300.984s-13.16 45.942-13.16 50.38a16.5 16.5 0 0 0 4.871 11.75 16.474 16.474 0 0 0 11.742 4.866c4.434 0 8.61-1.726 11.739-4.867a16.48 16.48 0 0 0 4.87-11.75c0-4.437-13.155-50.379-13.155-50.379-1.051-3.394-5.856-3.394-6.907 0zM185.398 378.879s-13.156 45.941-13.156 50.379c0 4.433 1.727 8.61 4.867 11.75a16.474 16.474 0 0 0 11.743 4.867 16.48 16.48 0 0 0 11.742-4.867 16.492 16.492 0 0 0 4.867-11.75c0-4.438-13.156-50.38-13.156-50.38-1.051-3.39-5.856-3.39-6.907 0zM246.145 300.883s-13.157 45.941-13.157 50.375c0 4.433 1.727 8.61 4.867 11.75 3.133 3.144 7.31 4.87 11.743 4.87s8.609-1.726 11.742-4.87a16.492 16.492 0 0 0 4.867-11.75c0-4.434-13.156-50.375-13.156-50.375-1.047-3.395-5.856-3.395-6.906 0zm0 0" />
    </svg>
    <svg xmlns="http://www.w3.org/2000/svg" width="512pt" viewBox="-2 0 512 512.004" height="512pt" id="e">
      <path d="M506.742 157.871c.23-1.836.461-3.648.633-5.492.21-2.336.344-4.574.453-6.79.07-1.44.129-2.87.152-4.312.032-2.246 0-4.41-.082-6.523-.05-1.473-.12-2.922-.23-4.375a102.885 102.885 0 0 0-.594-5.55 98.454 98.454 0 0 0-.734-4.864c-.274-1.45-.606-2.82-.938-4.192-.422-1.8-.855-3.605-1.398-5.359-.234-.715-.516-1.36-.758-2.055-.703-2.023-1.34-4.066-2.223-6.004-.363-.785-.898-1.398-1.289-2.164a60.211 60.211 0 0 0-4.082-6.859 58.186 58.186 0 0 0-3.203-4.254 57.655 57.655 0 0 0-5.32-5.55c-1.207-1.098-2.445-2.176-3.754-3.173-2.742-2.074-5.523-3.898-8.32-5.406-.688-.363-1.403-.687-2.11-1.027-4.078-1.996-8.117-3.516-11.832-4.563a94.27 94.27 0 0 0-4.152-1.714c10.187-13.77 14.61-28.383 11.785-40.575-1.933-8.37-8.098-19.761-26.418-26.46-5.23-1.895-11.023.773-12.926 6.003-1.902 5.239.778 11.02 6.004 12.922 7.918 2.89 12.532 6.95 13.723 12.078 1.77 7.676-3.356 19.239-13.055 29.793-17.789-3.886-42.066-5.476-64.355 5.352-.043.02-.094.039-.14.058-.02.012-.052.032-.075.043-.965.473-1.953.868-2.91 1.391-1.418.777-2.711 1.754-4.07 2.621-.817.512-1.641 1.016-2.438 1.563a72.869 72.869 0 0 0-5.832 4.46 56.511 56.511 0 0 0-2.145 1.872 80.344 80.344 0 0 0-5.39 5.37c-.574.634-1.13 1.302-1.692 1.966-1.754 2.054-3.445 4.171-5.035 6.445-.383.555-.746 1.148-1.117 1.71-1.672 2.513-3.285 5.079-4.777 7.84-.11.2-.2.423-.301.626-5.461 10.304-9.68 22.277-12.559 36.027l-2.39 10.59s-2.668 12.379-3.946 17.98C282.79 317.566 158.047 397.344 10.711 478.945 2.41 483.527-2 494.184.89 502.675c1.964 5.782 7 9.329 12.89 9.329.746 0 1.512-.059 2.29-.172 12.5-1.883 27.85-3.082 45.628-4.46 110.52-8.622 316.25-24.669 422.309-273.24.867-1.804 12.004-25.503 18.816-54.542l.09-.082.703-3.172c.043-.191.063-.352.102-.543a220.58 220.58 0 0 0 2.246-11.969c.324-2.058.535-3.98.777-5.953zm-27.902 15.086c-1.945-31.406-23.582-50.422-24.66-51.36l-19.297-16.6 2.719 25.316c1.511 14.152-8.149 21.574-17.196 25.394 1.469-25.789-15.172-42.812-16.027-43.668l-8.5-8.512-6.879 9.871c-3.203 4.594-15.836 10.157-41.602 13.36.11-.344.23-.676.352-1.008 2.469-7 5.41-13.258 8.852-18.719.164-.25.312-.5.464-.754a72.073 72.073 0 0 1 3.637-5.109c.172-.219.352-.422.524-.633 3.82-4.754 8.128-8.722 12.894-11.918.496-.332.988-.664 1.5-.976a54.357 54.357 0 0 1 4.504-2.547c.395-.192.785-.356 1.191-.535 5.348-2.508 10.918-4.079 16.5-4.954.582-.093 1.168-.203 1.743-.273a70.114 70.114 0 0 1 6.898-.566c1.594-.059 3.184-.11 4.746-.09 1.34.02 2.64.11 3.95.183 2.062.121 4.085.293 6.07.532 1.07.132 2.148.261 3.183.414 1.211.183 2.399.375 3.555.586 1.18.218 2.309.453 3.437.695 1.48.312 2.899.644 4.27.988 1.219.313 2.426.614 3.547.934.816.234 1.578.465 2.336.687 1.039.313 2.035.625 2.96.934.516.172 1.071.344 1.544.516 1.308.453 2.508.886 3.492 1.27.262.097.453.179.695.272.828.32 1.594.633 2.098.848.05.02.12.047.172.07.531.23.894.391.933.403l1.645.605c3.574.965 6.86 2.235 9.86 3.785.202.102.35.243.554.344 2.789 1.5 5.36 3.223 7.637 5.238.12.11.218.243.351.352a37.645 37.645 0 0 1 5.832 6.738c.293.434.535.918.817 1.364a44.155 44.155 0 0 1 3.66 7.261c.261.684.511 1.39.754 2.094.886 2.59 1.582 5.352 2.125 8.27.132.695.312 1.37.425 2.078.555 3.597.864 7.422.915 11.492.011.574-.02 1.168-.02 1.754-.012 4.058-.21 8.308-.703 12.832-.02.183-.031.363-.05.535-.563 5.035-1.411 10.352-2.56 15.953a80.222 80.222 0 0 1-5.847 4.254zM60.129 487.285c-9.73.754-18.758 1.469-27.067 2.266C179.2 407.91 301.598 325.734 336.56 171.75a238.846 238.846 0 0 1 3.87-14.766l.313-1.48c.371-2.762.883-5.328 1.36-7.95 29.312-2.89 44.976-8.44 53.437-13.527 3.754 7.012 7.27 18.332 2.305 32.075l-5.52 15.277 16.149-1.852c13.437-1.53 34.96-8.945 44.558-26.289 4.293 8.653 7.465 20.418 4.828 34.59l-3.03 16.29 15.843-4.805c.242-.07 2.66-.836 6.324-2.458-5.539 16.61-11.121 28.516-11.332 28.97C364.2 463.554 173.852 478.41 60.13 487.284zm0 0" />
      <path d="M407.148 214.129c-5.5-.93-10.617 3.012-11.41 8.52-.215 1.492-24.285 150.73-242.426 221.011-5.296 1.711-8.199 7.383-6.5 12.68 1.372 4.27 5.329 6.98 9.59 6.98 1.028 0 2.067-.16 3.094-.48C389.473 388.73 414.715 232.168 415.68 225.53c.785-5.511-3.02-10.61-8.532-11.402zm0 0" />
    </svg>
    <svg xmlns="http://www.w3.org/2000/svg" width="511pt" viewBox="-2 0 511 512" height="511pt" id="f">
      <path d="M96.324 347.602c-12.617-12.586-33.113-12.586-45.707 0-6.097 6.097-9.472 14.222-9.472 22.863 0 8.633 3.375 16.758 9.472 22.855 6.305 6.305 14.578 9.45 22.852 9.45 8.277 0 16.554-3.145 22.855-9.45 6.098-6.097 9.473-14.222 9.473-22.855 0-8.64-3.363-16.754-9.473-22.863zm-15.234 30.48a10.758 10.758 0 0 1-15.235 0 10.735 10.735 0 0 1-3.16-7.617c0-2.887 1.121-5.582 3.16-7.617a10.718 10.718 0 0 1 7.618-3.149c2.757 0 5.515 1.047 7.617 3.149v.011a10.623 10.623 0 0 1 3.156 7.606 10.74 10.74 0 0 1-3.156 7.617zm0 0" />
      <path d="M508.168 147.469c-1.629-7.918-6.906-14.578-14.105-17.754-4.86-2.168-6.668-7.125-9.094-15.02-2.469-8.105-6.961-23.082-23.922-21.64-5.742.57-10.785-1.067-14.235-4.5-3.437-3.438-5.042-8.504-4.503-14.235 1.132-12.242-2.672-23.418-10.73-31.488-7.606-7.594-18.005-11.27-29.977-10.86-.141-.679-.282-1.433-.399-2.07-1.543-8.148-4.719-24.933-28.144-28.093-4.137-1.313-15.485-4.051-24.903 1.726-4.492 2.77-10.086 8.426-11.261 20.762l-.247 67.488H226.633c-17.133 0-33.75 2.078-49.805 5.711-5.754-21.683-15.281-42.195-28.879-60.969l-5.344-7.379-8.167 4.028c-2.047 1.015-50.31 25.355-63.618 67.219-5.386 16.925-4.367 34.136 3.004 51.289C28.883 193.039.5 252.14.5 317.883V512h192.621c60.805 0 117.957-23.676 160.95-66.68 5.214-5.215 10.128-10.664 14.773-16.277 4.742.387 9.656.664 14.937.664 30.395 0 69.047-7.453 107.461-35.289l7.38-5.344-4.052-8.168c-1.238-2.511-28.941-57.097-76.129-65.781 1.36-10.129 2.309-20.355 2.297-30.742V175.012l68.067.636.863-.14c4.902-.754 9.3-3.094 12.75-6.778l.031-.03c5.168-5.583 7.305-13.524 5.719-21.231zM91.293 136.89c-3.117-10.118-3.082-19.989.055-29.88 7.625-24.105 31.828-41.898 44.62-49.878 9.255 14.418 16.063 29.824 20.352 45.976-9.738 3.204-19.113 7.145-28.23 11.586-2.207 1.067-4.461 2.059-6.625 3.2-3.02 1.597-5.918 3.351-8.86 5.066-3.003 1.758-5.988 3.523-8.91 5.418-2.652 1.726-5.226 3.523-7.789 5.355-1.531 1.075-3.125 2.036-4.613 3.157zm323.355 199.34c27.165 5.078 47.329 32.347 55.957 46.195-31.097 20.023-61.863 25.668-86.515 25.722 14.015-21.539 24.058-45.222 30.062-70.16.153-.593.36-1.164.496-1.758zm72.004-182.153-87.464-.8v131.117c0 12.464-1.25 24.726-3.395 36.742l-.281 1.52c-.614 3.253-1.356 6.495-2.133 9.718-.332 1.39-.676 2.77-1.031 4.148-7.082 26.961-19.676 52.543-36.985 74.653l-4.168 5.324c-3.922 4.676-7.984 9.246-12.347 13.605-38.922 38.922-90.676 60.368-145.715 60.368H22.05V317.895c0-62.594 28.328-118.637 72.754-156.204 16.843-14.222 35.539-25.492 55.84-33.586.16-.062.32-.105.472-.168a204.257 204.257 0 0 1 20.582-6.91c17.508-4.89 35.883-7.715 54.942-7.715h131.48l.281-87.917c.227-2.305.797-3.36 1.055-3.512 1.066-.668 4.797-.399 7.297.515l2.691.668c8.73.97 9.203 3.45 10.582 10.84 1.121 5.832 4.075 21.281 22.078 19.656 5.723-.539 10.786 1.067 14.247 4.504 3.437 3.446 5.043 8.512 4.503 14.243-1.132 12.242 2.672 23.418 10.73 31.476 7.825 7.813 18.673 11.57 30.58 10.809.722 1.562 1.585 4.37 2.21 6.39 2.684 8.79 6.746 22.086 20.938 28.414 1.023.45 1.574 1.551 1.746 2.422.097.446.226 1.543-.422 2.242zm1.465 1.645v-.301l6.43 5.96zm0 0" />
      <path d="M73.469 268.25v21.555c83.187 0 150.855 67.668 150.855 150.851h21.551c0-95.058-77.344-172.406-172.406-172.406zm0 0" />
      <path d="M108.543 233.188v21.55c83.187 0 150.855 67.672 150.855 150.856h21.551c0-95.07-77.344-172.406-172.406-172.406zm0 0" />
      <path d="M142.043 199.68v21.55c83.187 0 150.855 67.668 150.855 150.856h21.551c0-95.063-77.332-172.406-172.406-172.406zm0 0" />
      <path d="M177.117 164.605v21.551c83.188 0 150.856 67.668 150.856 150.856h21.55c0-95.063-77.335-172.407-172.406-172.407zm0 0" />
    </svg>
    <svg xmlns="http://www.w3.org/2000/svg" width="512pt" viewBox="-5 0 512 512.001" height="512pt" id="g">
      <path d="M502.695 372.352H446.84V171.828c0-45.914-18.953-90.941-52.02-123.543C362.668 16.57 320.926-.465 277.016.008 185.87 1.238 111.715 76.39 111.715 167.555v40.039c-25.313-18.34-59.738-18.906-84.285-.102A69.94 69.94 0 0 0 .156 258.395c-1.332 20.144 6.031 39.832 20.274 54.074.504.492 50.23 49.394 77.21 74.847 8.946 8.45 14.075 20.387 14.075 32.75V512H446.84v-83.781h55.855zm-74.472 121.02H130.332v-37.235h297.89zm0-55.856H130.332v-17.461c0-17.457-7.25-34.332-19.91-46.285-26.84-25.332-76.438-74.09-76.883-74.532-10.379-10.386-15.781-24.836-14.805-39.629.977-14.937 8.09-28.203 20.016-37.347 20.219-15.489 49.793-12.825 68.805 6.172 1.36 1.359 2.996 2.246 4.707 2.914l32.527 29.492a9.3 9.3 0 0 0 6.258 2.41 9.298 9.298 0 0 0 6.898-3.05c3.442-3.81 3.164-9.7-.644-13.157l-27.442-24.883c.25-1.023.465-2.066.465-3.156v-51.45c0-81.034 65.918-147.847 146.934-148.925 38.613-.707 75.906 14.707 104.484 42.906 29.54 29.137 46.473 69.336 46.473 110.293V437.52h.008zm55.855-27.926H446.84v-18.617h37.238zm0 0" />
      <path d="m257.934 337.844-16.684-16.688 16.684-16.695-13.164-13.16-16.692 16.691-16.691-16.691-13.164 13.16 16.691 16.695-16.691 16.688 13.164 13.164 16.691-16.692 16.692 16.692zM347.168 351.008l13.164-13.164-16.68-16.688 16.68-16.695-13.164-13.16-16.691 16.691-16.688-16.691-13.164 13.16 16.688 16.695-16.688 16.688 13.164 13.164 16.688-16.692zM207.535 365.773l-16.695 16.692-16.688-16.692-13.164 13.16 16.692 16.692-16.692 16.691 13.164 13.164 16.688-16.69 16.695 16.69 13.16-13.164-16.68-16.691 16.68-16.691zM300.625 365.773l-16.691 16.692-16.692-16.692-13.164 13.16 16.692 16.692-16.692 16.691 13.164 13.164 16.692-16.69 16.691 16.69 13.164-13.164-16.684-16.691 16.684-16.691zM393.715 365.773l-16.692 16.692-16.691-16.692-13.164 13.16 16.691 16.692-16.691 16.691 13.164 13.164 16.691-16.69 16.692 16.69 13.164-13.164-16.684-16.691 16.684-16.691zm0 0" />
    </svg>
    <svg xmlns="http://www.w3.org/2000/svg" width="512pt" viewBox="0 -9 512.003 512" height="512pt" id="h">
      <path d="M404.016 45.145c-16.63-2.153-33.243-.872-49.504 3.812C331.18 18.176 294.828 0 255.996 0c-38.832 0-75.184 18.188-98.516 48.957-16.261-4.668-32.875-5.957-49.503-3.812C46.94 53.055.523 105.289.004 166.648c-.484 57.407 38.023 107.176 93.644 121.02 13.207 3.281 22.95 14.59 24.239 28.14l7.398 77.712h-.008l4.23 44.394c1.798 18.941 25.774 31.945 35.856 36.606 1.442.664 2.598 1.156 3.364 1.476 27.738 11.676 57.503 17.512 87.27 17.512 29.757 0 59.495-5.836 87.19-17.496 6.196-2.559 37.208-16.453 39.274-38.098l4.23-44.394h-.011l7.398-77.711c1.29-13.551 11.035-24.86 24.242-28.141 55.649-13.852 94.164-63.613 93.68-121.02-.535-61.359-46.95-113.593-107.984-121.503zm-67.618 414.582c-51.105 21.52-109.718 21.53-160.859-.02-11.008-4.59-27.664-15.219-28.45-23.465l-1.093-11.457c34.914 16.88 71.832 25.426 109.992 25.426 38.16 0 75.078-8.547 109.992-25.426l-1.093 11.457c-.77 8.246-17.438 18.883-28.489 23.485zm77.68-189.204c-20.453 5.094-35.547 22.625-37.55 43.606l-8.548 89.707c-35.343 18.988-72.984 28.707-111.984 28.707s-76.64-9.719-111.988-28.707l-8.543-89.707c-2.004-20.988-17.098-38.512-37.55-43.606-47.673-11.863-80.677-54.52-80.263-103.726.45-52.594 40.254-97.356 92.594-104.137 4.45-.574 8.906-.875 13.356-.875 11.59 0 23.136 1.961 34.453 5.856l6.39 2.199 3.797-5.598c19.766-29.156 52.57-46.582 87.754-46.582 35.188 0 67.992 17.426 87.758 46.59l3.793 5.598 6.394-2.2c15.66-5.386 31.743-7.062 47.809-4.98 52.328 6.773 92.14 51.539 92.594 104.133.41 49.21-32.594 91.867-80.266 103.722zm0 0" />
      <path d="M166.625 300.21c-4.836.599-8.27 5.017-7.66 9.853l8.828 70.62c.555 4.465 4.36 7.731 8.746 7.731.371 0 .734-.027 1.102-.07 4.84-.598 8.273-5.016 7.664-9.852l-8.828-70.62c-.61-4.845-5.067-8.22-9.852-7.661zM229.512 317.797a8.826 8.826 0 0 0-8.828 8.828v70.621c0 4.879 3.957 8.824 8.828 8.824a8.823 8.823 0 0 0 8.828-8.824v-70.621a8.824 8.824 0 0 0-8.828-8.828zM345.367 300.21c-4.793-.558-9.25 2.817-9.851 7.661l-8.829 70.621c-.601 4.84 2.825 9.254 7.66 9.852.372.043.743.07 1.106.07 4.387 0 8.192-3.266 8.746-7.73l8.828-70.622c.61-4.835-2.824-9.253-7.66-9.851zM282.477 317.797a8.826 8.826 0 0 0-8.829 8.828v70.621c0 4.879 3.957 8.824 8.829 8.824a8.823 8.823 0 0 0 8.828-8.824v-70.621a8.824 8.824 0 0 0-8.828-8.828zM141.336 88.277c-73.695-.625-88.04 59.297-88.164 59.907-1.05 4.757 1.969 9.46 6.726 10.504.637.14 1.282.203 1.899.203 4.055 0 7.715-2.809 8.617-6.938.106-.469 10.691-47.043 70.734-46.027 4.723-.328 8.872-3.867 8.926-8.73.051-4.868-3.867-8.864-8.738-8.919zM206.465 54.805c-3.86 2.98-4.574 8.527-1.59 12.382 2.977 3.86 8.527 4.555 12.383 1.598.363-.293 37.27-28.09 77.824.238a8.82 8.82 0 0 0 12.297-2.18c2.789-3.991 1.82-9.5-2.18-12.288-40.879-28.54-82.457-12.305-98.734.25zm0 0" />
    </svg>
    <svg xmlns="http://www.w3.org/2000/svg" width="511pt" viewBox="0 0 511.999 511" height="511pt" id="i">
      <path d="M486.266 74.953c-1.657-2.148-7.239-7.941-7.637-8.332-3.715-3.437-7.738-6.312-11.934-8.75l11.434-30.476c2.672-7.114.738-15.004-4.902-20.094-5.66-5.086-13.707-6.18-20.5-2.774l-18.864 9.438L389.27 1.223c-7.665-2.172-15.618.644-20.184 7.254-4.531 6.613-4.36 15.027.453 21.421l24.234 32.32c-2.52 1.895-4.972 3.91-7.257 6.204-13.829 13.828-20.829 32.902-19.25 52.41-.329 50.828-9.723 106.832-74.836 171.945-65.008 65-122.407 74.477-170.028 75.04-5.465-.505-14.05.05-16.406.245-14.5 1.985-27.613 8.485-37.918 18.79-2.344 2.343-4.402 4.851-6.324 7.421L29.402 370.02c-6.406-4.833-14.8-4.997-21.422-.43-6.601 4.531-9.449 12.457-7.246 20.16l12.743 44.582-9.438 18.871C.645 460 1.727 468.047 6.816 473.707c3.57 3.961 8.504 6.098 13.59 6.098 2.18 0 4.383-.387 6.512-1.188l30.742-11.531c2.496 4.309 5.457 8.453 9.008 12.281 0 0 5.793 5.578 7.727 7.063 21.503 17.523 49.59 25.851 81.343 25.851 71.848 0 162.457-42.668 237.996-118.199C502.672 285.145 543.23 144.867 486.266 74.953zm-96.594-52.328 39.34 11.234c4.441 1.27 9.129.84 13.277-1.214l14.797-7.41-9.477 25.238a66.224 66.224 0 0 0-35.535 2.023zM50.238 447.985l-25.472 9.57 7.398-14.797a18.33 18.33 0 0 0 1.238-13.254l-11.246-39.356 29.957 22.465c-3.828 11.371-4.465 23.551-1.883 35.29-.011 0 0 .05.008.081zm329.035-68.387c-101.609 101.601-229.84 141.554-292.16 90.78-1.605-1.25-5.793-5.343-5.812-5.343-3.922-4.258-6.805-9.066-8.852-14.133l-.156-.398c-4.594-11.79-4-25.188 1.629-36.754l.625-1.277c2.11-3.993 4.644-7.809 8-11.168 7.113-7.114 16.191-11.614 25.578-12.926 3.672-.254 10.02-.488 12.547-.192l.664.09H122c48.84-.5 114.004-10.16 184.89-81.047 70.712-70.71 80.544-134.093 80.82-186.75l-.038-.96c-1.2-13.633 3.64-27 13.293-36.641 2.906-2.906 6.183-5.172 9.57-7.145l2.73-1.332c11.56-5.617 24.965-6.199 36.766-1.636l3.543 1.382c3.817 1.875 7.492 4.114 10.754 7.114.043.043 4.434 4.504 5.887 6.406 50.605 62.09 10.656 190.332-90.942 291.93zm0 0" />
      <path d="M417.613 163.676c-5.59-.625-10.664 3.449-11.281 9.082-9.547 88.078-77.719 174.633-169.656 215.367-5.172 2.293-7.492 8.332-5.211 13.5 1.687 3.816 5.433 6.09 9.367 6.09 1.379 0 2.781-.277 4.133-.883 99.93-44.273 171.246-135.289 181.715-231.875.613-5.629-3.442-10.676-9.067-11.281zM203.043 400.09c-13.469 3.59-26.988 5.61-40.148 5.976-5.66.172-10.102 4.883-9.95 10.52.164 5.559 4.707 9.95 10.223 9.95h.297c14.75-.43 29.836-2.673 44.847-6.673 5.458-1.453 8.711-7.062 7.247-12.527-1.454-5.469-7.102-8.7-12.516-7.246zm0 0" />
    </svg>
    <svg xmlns="http://www.w3.org/2000/svg" width="511pt" viewBox="-2 0 511 511.999" height="511pt" id="j">
      <path d="M262.25 295.125c-.926-2.414-2.027-4.773-3.238-7.066-.782-1.48-1.692-2.883-2.59-4.317a72.849 72.849 0 0 0-1.965-3.027 71.163 71.163 0 0 0-3.258-4.309c-.66-.804-1.367-1.566-2.054-2.34a70.114 70.114 0 0 0-6.934-6.734c-.887-.754-1.738-1.559-2.664-2.262-1.168-.89-2.371-1.664-3.582-2.476a66.224 66.224 0 0 0-4.356-2.684c-1.011-.562-2.015-1.117-3.058-1.62-2.645-1.29-5.328-2.446-8.09-3.298-2.254-.695-4.488-1.176-6.715-1.547a32.355 32.355 0 0 0-1.375-.199c-4.547-.621-8.988-.574-13.2.14-.093.02-.198.04-.296.06-5.547.991-10.695 3.066-15.098 6.312-.441.324-.746.777-1.175 1.11-1.184.952-2.266 2.034-3.317 3.152-.734.78-1.535 1.488-2.187 2.34a35.57 35.57 0 0 0-3.676 5.785c-.02.039-.012.078-.031.117-2.758 5.492-4.286 11.804-4.286 18.758 0 25.796 20.075 52.234 45.704 60.171 4.84 1.5 9.664 2.235 14.304 2.235 8.332 0 16.094-2.38 22.38-7.008 9.456-6.973 14.671-18.082 14.671-31.262 0-6.754-1.434-13.527-3.926-20.02.012-.003.012-.003.012-.011zm-69.035-18.11c.906-.952 1.945-1.745 3.062-2.433.641-.398 1.34-.707 2.047-1.012.973-.43 1.977-.82 3.055-1.078.793-.183 1.625-.262 2.465-.344 1.242-.132 2.484-.257 3.812-.18.352.016.715.048 1.078.094 1.957.192 3.985.543 6.082 1.192 1.977.613 3.899 1.453 5.79 2.39.39.188.773.391 1.156.59 3.84 2.063 7.449 4.727 10.66 7.852.16.16.332.312.496.484a52.208 52.208 0 0 1 8.004 10.336c.324.563.648 1.117.957 1.692.2.37.34.761.543 1.136-4.758 5.309-12.77 6.875-21.957 4.059-11.38-3.535-21.828-12.848-27.66-24.375.132-.152.277-.266.41-.402zm46.941 54.044c-4.918 3.628-11.91 4.285-19.691 1.898-12.188-3.781-22.926-14.277-28.399-26.14 6.793 5.995 14.559 10.667 22.743 13.206 4.832 1.493 9.609 2.22 14.183 2.22 6.465 0 12.512-1.513 17.813-4.25-.582 5.632-2.828 10.257-6.649 13.066zM393.547 323.156c-10.371-3.207-20.637-1.824-28.223 3.774-7.265 5.36-11.433 14.175-11.433 24.195 0 19.242 14.941 38.938 34.015 44.84 3.676 1.137 7.332 1.703 10.88 1.703 6.433 0 12.452-1.856 17.343-5.465 7.27-5.355 11.434-14.164 11.434-24.183-.012-19.254-14.95-38.97-34.016-44.864zm11.234 53.672c-2.695 1.985-6.695 2.309-11.242.895-11.144-3.446-20.555-15.633-20.555-26.598 0-2.79.633-6.582 3.668-8.828 1.594-1.164 3.63-1.766 5.97-1.766 1.636 0 3.401.285 5.273.867 11.144 3.45 20.554 15.637 20.554 26.614 0 2.789-.629 6.578-3.668 8.816zM126.117 304.059c-10.363-3.211-20.64-1.825-28.222 3.77-7.27 5.358-11.434 14.175-11.434 24.194 0 19.247 14.937 38.938 34.012 44.844 3.68 1.133 7.336 1.7 10.879 1.7 6.437 0 12.453-1.852 17.343-5.465 7.27-5.356 11.434-14.165 11.434-24.184-.008-19.254-14.95-38.969-34.012-44.86zm11.23 53.664c-2.69 1.988-6.695 2.3-11.242.898-11.144-3.45-20.55-15.633-20.55-26.601 0-2.786.629-6.579 3.664-8.825 1.597-1.164 3.633-1.765 5.972-1.765 1.633 0 3.399.285 5.274.867 11.144 3.45 20.55 15.637 20.55 26.61 0 2.792-.628 6.581-3.667 8.816zM326.691 389.406c-7.738-2.379-15.511-1.336-21.32 2.95-5.586 4.124-8.785 10.832-8.785 18.414 0 13.898 10.746 28.101 24.46 32.351 2.712.84 5.427 1.262 8.063 1.262 4.891 0 9.485-1.422 13.258-4.203 5.586-4.125 8.797-10.84 8.797-18.426-.023-13.906-10.77-28.106-24.473-32.348zm4.325 35.375c-.84.621-2.493.653-4.325.09-5.77-1.789-11.004-8.512-11.004-14.11 0-.687.106-2.359 1.024-3.027.43-.324 1.086-.488 1.89-.488.723 0 1.555.137 2.434.402 5.77 1.786 11 8.5 11 14.098.004.688-.101 2.348-1.02 3.035zM314.227 329.559c2.71.84 5.425 1.261 8.07 1.261 4.883 0 9.484-1.425 13.258-4.203 5.59-4.125 8.789-10.832 8.789-18.414 0-13.898-10.746-28.101-24.461-32.351-7.766-2.399-15.52-1.329-21.313 2.953-5.586 4.125-8.797 10.84-8.797 18.422-.007 13.878 10.739 28.09 24.454 32.332zm-4.325-35.38c.438-.324 1.098-.484 1.887-.484.727 0 1.559.133 2.438.399 5.77 1.785 11 8.511 11 14.105 0 .692-.106 2.36-1.02 3.031-.82.622-2.492.637-4.328.086-5.77-1.785-11-8.5-11-14.097-.012-.688.094-2.36 1.023-3.04zM105.555 207.895c0-14.872-11.512-30.086-26.211-34.653-8.242-2.57-16.473-1.414-22.586 3.106-5.895 4.343-9.285 11.441-9.285 19.476 0 14.88 11.52 30.094 26.218 34.64 2.895.9 5.778 1.337 8.575 1.337 5.168 0 10.039-1.5 14.011-4.43 5.907-4.348 9.278-11.441 9.278-19.476zm-20.614 4.09c-1.175.867-3.293.964-5.597.238-6.797-2.11-12.77-9.762-12.77-16.399 0-1.12.203-3.133 1.512-4.11.648-.476 1.574-.714 2.664-.714.887 0 1.883.16 2.941.484 6.801 2.114 12.762 9.774 12.762 16.41-.004 1.118-.195 3.133-1.512 4.09zm0 0" />
      <path d="M468.773 337.82c.153-.66.442-1.222.668-1.836.223-.59.375-1.222.653-1.757.015-.04.054-.067.074-.102a12.803 12.803 0 0 1 1.91-2.656c.965-1.043 2.121-1.864 3.418-2.504.262-.133.547-.23.813-.344a14.824 14.824 0 0 1 4.05-1.031c.2-.016.383-.074.59-.094 1.223-.105 2.516-.039 3.832.117.153.016.293 0 .45.016h.007c.106.012.239.07.356.086 1.183.191 2.36.48 3.66.898.762.25 1.601.614 2.434.957.503.211 1.019.383 1.527.602.547.25 1.11.383 1.68.515.203.047.394.145.593.18.696.125 1.395.145 2.09.117.086 0 .176.016.262.008a9.03 9.03 0 0 0 2.195-.43c.04-.007.074-.007.121-.015.469-.152.899-.414 1.34-.64.277-.145.574-.231.828-.403 1.95-1.25 3.305-3.16 3.957-5.309.258-.879.43-1.777.43-2.71v-21.34c0-20.555-9.656-40.325-25.848-52.98L314.91 90.183c-3.504-3.317-8.918-3.508-12.625-.442-2.988 2.465-7.41 2.973-12.484 1.395-11.863-3.676-21.883-16.657-21.883-28.348 0-2.418.469-4.566 1.387-6.379a9.574 9.574 0 0 0-1.957-11.242l-28.465-26.914c-.25-.23-.504-.45-.774-.649C215.883.66 188.613-4.64 168.262 4.281L27.004 72.421C10.938 79.364.547 95.642.508 114.009l-.008.039v150.48a9.583 9.583 0 0 0 3.438 7.344 9.61 9.61 0 0 0 7.832 2.055c3.18-.602 6.57-.344 10.039.734 14.336 4.442 26.449 20.145 26.449 34.309 0 5.465-1.883 9.867-5.301 12.386-3.824 2.82-9.312 3.317-15.504 1.399-3.793-1.176-7.64-3.317-11.41-6.352-2.875-2.293-6.8-2.77-10.125-1.164A9.533 9.533 0 0 0 .5 323.844V344.5c0 20.547 13.918 38.379 33.469 43.238l417.234 122.907A44.724 44.724 0 0 0 462.137 512c9.832 0 19.43-3.258 27.406-9.484 10.926-8.528 17.18-21.356 17.18-35.215v-79.656a9.46 9.46 0 0 0-2.282-6.188 9.554 9.554 0 0 0-5.757-3.25c-.204-.027-.403-.113-.602-.152-8.465-1.586-16.832-7.555-22.543-15.34a38.978 38.978 0 0 1-5.976-12.137c-.344-1.207-.727-2.398-.93-3.613a27.822 27.822 0 0 1-.363-4.926c.02-.824.175-1.559.27-2.324.073-.633.093-1.305.233-1.895zM34.941 89.785l141.301-68.168c13.668-5.969 33.207-1.699 49.895 10.86l23.593 22.312c-.601 2.563-.898 5.227-.898 7.996 0 19.988 15.52 40.45 35.34 46.59 8.031 2.492 15.988 2.281 22.77-.457L458.956 252.73l-164.316-48.94c-4.196-16.267-17.473-31.11-33.825-36.165-10.703-3.313-21.328-1.89-29.199 3.89-3.867 2.844-6.828 6.56-8.824 10.887L30.348 125.125c-5.914-1.137-9.352-5.207-10.2-12.113-.058-.43-.27-.82-.394-1.239.773-9.753 6.398-18.187 15.187-21.988zM277.043 214.22c0 3.027-.695 7.164-4.04 9.617-2.94 2.18-7.257 2.531-12.187 1.012a25.775 25.775 0 0 1-4.343-1.793c-8.453-4.375-15.293-13.23-17.078-22.102a21.957 21.957 0 0 1-.45-4.367c.04-.207.164-1.25.18-1.453.02-.227-.066-.438-.055-.656.293-2.668 1.262-5.645 3.903-7.594 1.75-1.293 3.984-1.942 6.543-1.942 1.757 0 3.668.309 5.664.926 11.097 3.442 20.46 14.996 21.644 26.047.008.086-.012.164-.012.25zm210.555 253.086c0 7.93-3.578 15.28-9.836 20.152-6.258 4.902-14.23 6.57-21.567 4.77L38.973 369.32a25.548 25.548 0 0 1-19.371-24.824v-4.25c.734.266 1.472.524 2.207.746 11.937 3.707 23.761 2.137 32.472-4.27 8.426-6.21 13.067-16.074 13.067-27.757 0-22.54-17.528-45.625-39.895-52.55a41.974 41.974 0 0 0-7.86-1.661v-112.98c1.958.84 4.04 1.468 6.22 1.878l194.324 57.891c.058.46.21.91.289 1.367.16 1.004.398 1.996.629 3a44.83 44.83 0 0 0 1.129 4.078c.332 1.02.714 2.016 1.125 3.008a51.31 51.31 0 0 0 1.738 3.813 49.78 49.78 0 0 0 1.586 2.91 55.026 55.026 0 0 0 2.293 3.527c.64.914 1.281 1.824 1.976 2.711.891 1.117 1.844 2.16 2.82 3.2.755.812 1.489 1.632 2.29 2.386 1.07 1.02 2.218 1.937 3.375 2.867.808.656 1.593 1.344 2.441 1.957 1.328.945 2.734 1.746 4.149 2.551.761.437 1.488.945 2.28 1.344 2.235 1.129 4.536 2.093 6.915 2.828 2.398.746 4.785 1.164 7.144 1.433.641.075 1.262.102 1.891.149.734.05 1.492.176 2.227.176 1.308 0 2.578-.137 3.847-.278.239-.03.489-.02.727-.058 2.187-.305 4.277-.88 6.293-1.614.469-.175.926-.367 1.386-.566 1.997-.848 3.926-1.832 5.672-3.121 1.692-1.25 3.153-2.711 4.489-4.27.355-.402.68-.82 1.011-1.242 1.157-1.5 2.2-3.094 3.04-4.824.074-.152.171-.277.246-.43a29.902 29.902 0 0 0 1.75-4.668l172.503 51.348c11.72 2.512 20.22 13.016 20.22 25.004v8.55a39.067 39.067 0 0 0-8.567-.202c-2.367.21-4.633.68-6.801 1.32-.754.219-1.469.531-2.195.808-1.512.567-2.97 1.215-4.368 2-.675.38-1.335.774-1.984 1.204a31.068 31.068 0 0 0-4.098 3.285c-.324.304-.718.504-1.03.828-.106.105-.165.25-.266.363-.176.184-.375.309-.547.5-.008.008-.008.008-.02.016-.906 1.004-1.555 2.246-2.34 3.375-.629.914-1.363 1.754-1.898 2.738-.094.172-.23.297-.317.461-.773 1.48-1.23 3.113-1.785 4.707-.277.813-.687 1.559-.906 2.398-.562 2.102-.824 4.344-1.012 6.61-.058.637-.23 1.23-.261 1.883 0 .101-.04.199-.04.304-.066 2.453.176 5.024.536 7.614.058.39.011.754.066 1.144.45 2.723 1.168 5.399 2.055 8.035.066.188.074.38.144.563.313.914.735 1.863 1.453 3.41.485 1.144.954 2.293 1.516 3.41.203.43.363.867.594 1.297.543 1.023 1.191 1.977 1.812 2.941.547.891 1.09 1.77 1.672 2.63l-.008.007c.383.64.782 1.281 1.176 1.797a57.537 57.537 0 0 0 4.746 5.652c.2.239.617.746.848.977.66.676 1.375 1.25 2.055 1.89.316.293.64.59.964.887a61.05 61.05 0 0 0 4.938 4.012c.309.219.602.45.91.664a54.164 54.164 0 0 0 5.492 3.39c.285.153.555.337.84.477 2.176 1.13 4.39 2.14 6.649 2.934V467.3h-.043zm0 0" />
    </svg>
    <svg xmlns="http://www.w3.org/2000/svg" width="512pt" viewBox="0 -22 512 512" height="512pt" id="k">
      <path d="M202.035 164.598c0 10.847 4.23 21.062 11.918 28.742a8.81 8.81 0 0 0 6.242 2.59c2.262 0 4.52-.868 6.243-2.59a8.813 8.813 0 0 0 0-12.48c-4.344-4.344-6.747-10.118-6.747-16.258 0-6.145 2.395-11.918 6.746-16.262 15.844-15.848 15.844-41.64 0-57.485a8.813 8.813 0 0 0-12.48 0 8.813 8.813 0 0 0 0 12.48c8.961 8.97 8.961 23.552 0 32.52-7.691 7.692-11.922 17.895-11.922 28.743zM105.93 164.598c0 10.847 4.23 21.062 11.918 28.742a8.803 8.803 0 0 0 6.242 2.59 8.81 8.81 0 0 0 6.242-2.59 8.813 8.813 0 0 0 0-12.48c-4.352-4.344-6.746-10.118-6.746-16.258 0-6.145 2.394-11.918 6.746-16.262 15.844-15.848 15.844-41.64 0-57.485a8.813 8.813 0 0 0-12.48 0 8.813 8.813 0 0 0 0 12.48c8.957 8.97 8.957 23.552 0 32.52-7.692 7.692-11.922 17.895-11.922 28.743zM157.898 138.117c0 10.848 4.23 21.063 11.918 28.742a8.799 8.799 0 0 0 6.243 2.586c2.257 0 4.52-.863 6.242-2.586a8.82 8.82 0 0 0 0-12.48c-4.344-4.344-6.746-10.117-6.746-16.262 0-6.14 2.394-11.918 6.746-16.258 15.844-15.847 15.844-41.64 0-57.484a8.818 8.818 0 0 0-12.485 0 8.82 8.82 0 0 0 0 12.48c8.961 8.97 8.961 23.551 0 32.52-7.687 7.688-11.918 17.89-11.918 28.742zM123.586 317.793c-19.8 0-35.309 11.625-35.309 26.484 0 14.856 15.508 26.48 35.309 26.48 19.8 0 35.309-11.624 35.309-26.48 0-14.859-15.508-26.484-35.31-26.484zm0 35.312c-10.777 0-17.656-5.226-17.656-8.828 0-3.601 6.879-8.828 17.656-8.828s17.656 5.227 17.656 8.828c0 3.602-6.879 8.828-17.656 8.828zM150.07 247.172c-19.8 0-35.312 11.629-35.312 26.484s15.512 26.485 35.312 26.485c19.797 0 35.309-11.63 35.309-26.485 0-14.86-15.508-26.484-35.309-26.484zm0 35.312c-10.78 0-17.656-5.226-17.656-8.828s6.875-8.828 17.656-8.828c10.778 0 17.653 5.227 17.653 8.828s-6.875 8.828-17.653 8.828zM238.344 282.484c19.8 0 35.312-11.629 35.312-26.484 0-14.86-15.511-26.484-35.312-26.484-19.797 0-35.309 11.625-35.309 26.484 0 14.855 15.508 26.484 35.309 26.484zm0-35.312c10.781 0 17.656 5.226 17.656 8.828s-6.875 8.828-17.656 8.828c-10.778 0-17.653-5.226-17.653-8.828s6.875-8.828 17.653-8.828zM326.621 291.309c19.8 0 35.309-11.625 35.309-26.48 0-14.86-15.508-26.485-35.309-26.485-19.8 0-35.312 11.625-35.312 26.484 0 14.856 15.511 26.48 35.312 26.48zm0-35.309c10.777 0 17.656 5.227 17.656 8.828s-6.879 8.828-17.656 8.828-17.656-5.226-17.656-8.828S315.844 256 326.62 256zM441.379 300.137c0-14.856-15.512-26.48-35.309-26.48-19.8 0-35.312 11.624-35.312 26.48 0 14.86 15.512 26.484 35.312 26.484 19.797 0 35.309-11.625 35.309-26.484zm-35.309 8.828c-10.777 0-17.656-5.223-17.656-8.828 0-3.602 6.875-8.828 17.656-8.828 10.778 0 17.657 5.226 17.657 8.828 0 3.605-6.88 8.828-17.657 8.828zM353.105 326.621c-19.8 0-35.312 11.625-35.312 26.484 0 14.856 15.512 26.48 35.312 26.48 19.797 0 35.31-11.624 35.31-26.48 0-14.859-15.513-26.484-35.31-26.484zm0 35.309c-10.78 0-17.656-5.223-17.656-8.825 0-3.605 6.875-8.828 17.656-8.828 10.778 0 17.653 5.223 17.653 8.828 0 3.602-6.875 8.825-17.653 8.825zM256 344.277c-19.8 0-35.309 11.625-35.309 26.48 0 14.86 15.508 26.485 35.309 26.485s35.309-11.625 35.309-26.484c0-14.856-15.508-26.48-35.309-26.48zm0 35.309c-10.777 0-17.656-5.227-17.656-8.828 0-3.602 6.875-8.828 17.656-8.828 10.777 0 17.656 5.226 17.656 8.828 0 3.601-6.879 8.828-17.656 8.828zM213.68 320.16c-3.567-.77-7.078.758-9.047 3.574a13.888 13.888 0 0 0-12.164 7.75c-6.18.246-11.653 4.653-12.985 10.973a8.824 8.824 0 0 0 8.653 10.648 8.814 8.814 0 0 0 7.218-3.77 13.888 13.888 0 0 0 12.165-7.75c6.18-.245 11.652-4.651 12.984-10.972 1-4.777-2.059-9.457-6.824-10.453zM298.988 322.64c-2.566-4.484-7.476-6.867-12.629-6.956a13.78 13.78 0 0 0-5.332-5.067c-3.265-1.754-7.02-2.144-10.55-1.05-4.668 1.413-7.309 6.34-5.887 11a8.812 8.812 0 0 0 7.476 6.222 13.754 13.754 0 0 0 5.473 5.324c2.234 1.2 4.723 1.668 7.16 1.64a13.773 13.773 0 0 0 5.32 5.067 13.802 13.802 0 0 0 6.524 1.66c1.352 0 2.703-.195 4.027-.601 4.668-1.41 7.309-6.336 5.887-10.996a8.8 8.8 0 0 0-7.469-6.242zM239.316 296.156c-2.57-4.484-7.398-6.949-12.632-6.957a13.781 13.781 0 0 0-5.332-5.066c-3.266-1.746-7.02-2.133-10.547-1.047-4.672 1.41-7.309 6.336-5.89 10.996 1.05 3.496 4.07 5.844 7.48 6.223a13.754 13.754 0 0 0 5.472 5.324c2.23 1.2 4.73 1.668 7.156 1.64a13.784 13.784 0 0 0 5.325 5.067 13.79 13.79 0 0 0 6.523 1.66c1.348 0 2.7-.191 4.024-.598 4.671-1.414 7.308-6.34 5.89-11a8.791 8.791 0 0 0-7.469-6.242zm0 0" />
      <path d="M510.64 393.648c.114-1.402.098-2.816-.238-4.23l-68.449-176.305 43.309-175.695c.07-.297-.028-.598.015-.898.055-.407.239-.778.239-1.211V8.829A8.819 8.819 0 0 0 476.687 0H35.31a8.826 8.826 0 0 0-8.829 8.828v26.484a8.829 8.829 0 0 0 8.829 8.829h1.316l37.05 163.007c-1.538 1.555-2.827 3.375-3.48 5.582L1.961 388.254l-.363 1.176c-.391 1.648-.391 3.3-.168 4.925-.828 1.543-1.43 3.239-1.43 5.118v54.363c0 7.73 6.293 14.027 14.027 14.027h483.946c7.734 0 14.027-6.297 14.027-14.027V398.37c0-1.738-.566-3.293-1.36-4.723zm-206.714-5.234h-.274c-6.34 0-11.777 4.422-13.242 10.77-.265 1.148-.707 2.214-1.113 3.308-.23.63-.379 1.29-.652 1.899-.391.859-.918 1.636-1.387 2.449-.434.75-.801 1.543-1.305 2.258-.363.511-.82.953-1.21 1.437-.75.93-1.466 1.89-2.321 2.738-.215.204-.461.372-.68.575-5.148 4.828-11.988 8.226-19.633 9.41-1.988.308-4.035.469-6.109.469s-4.125-.16-6.11-.47c-7.734-1.19-14.663-4.652-19.82-9.57-.148-.148-.336-.261-.484-.414-.899-.898-1.668-1.898-2.453-2.886-.352-.442-.766-.84-1.086-1.297-.567-.805-.98-1.676-1.457-2.524-.406-.726-.89-1.414-1.235-2.175-.343-.75-.539-1.57-.812-2.348-.336-.953-.742-1.879-.965-2.867-1.457-6.34-6.894-10.762-13.234-10.762H95.098c-26.418-17.09-42.133-48.976-42.133-70.621 0-52.64 92.98-97.102 203.035-97.102 110.05 0 203.035 44.461 203.035 97.102 0 21.645-15.715 53.531-42.133 70.621zM86.043 220.691h50.855c-25.007 8.192-46.468 18.934-63.136 31.59zm352.191 31.582c-16.664-12.656-38.125-23.39-63.132-31.582h50.855zm34.543 88.86 18.38 47.281h-46.802c13.875-14.125 23.508-31.23 28.422-47.281zM44.137 17.656h423.722v8.828H290.691a8.84 8.84 0 0 0-7.043 3.496 8.832 8.832 0 0 0-1.457 7.73 7.43 7.43 0 0 1 .29 2.013c0 6.27-9.067 13.242-22.067 13.242-13.004 0-22.07-6.973-22.07-13.242 0-.668.097-1.32.289-2.012a8.842 8.842 0 0 0-1.453-7.73 8.825 8.825 0 0 0-7.047-3.497H44.137zm176.933 26.48c2.676 15.169 18.996 26.485 39.344 26.485 20.348 0 36.66-11.316 39.344-26.484h165.668l-39.168 158.898H90.855L54.73 44.137zM39.223 341.126c4.914 16.055 14.547 33.164 28.433 47.29H20.844zm455.12 109.082H17.657V406.07h187.5c6.258 20.922 26.762 35.309 50.856 35.309 24.09 0 44.593-14.39 50.855-35.309h187.48v44.137zm0 0" />
    </svg>
    <svg xmlns="http://www.w3.org/2000/svg" width="512pt" viewBox="0 0 512 512" height="512pt" id="l">
      <path d="M430.64 7.297 423.82 0 181.164 242.652l14.586 48.594c.625 5.875-3.578 11.945-9.8 13.977l-15.505 5.062-4.617 14.297c-3.23 10.012-10.16 17.133-18.984 19.957h-.008c-3.16 0-12.535-6.125-17.563-9.422-9.984-6.535-18.644-12.168-26.75-11.058l-3.218.437L0 423.82l7.285 6.832C65.293 484.97 138.68 512 211.977 512c76.582 0 153.07-29.508 211.793-88.23 114.925-114.934 117.949-297.868 6.87-416.473zM118.704 351.293c11.84 7.734 23.05 15.031 33.371 11.8 15.301-4.773 27.024-16.652 32.164-32.577l1.575-4.918 6.136-2c15.465-5.055 25.266-20.5 22.809-35.926l-11.762-39.52 169.512-169.5c35.594 35.54 54.887 79.696 55.918 128.235 1.191 55.504-22.934 112.14-66.176 155.379-43.238 43.238-99.809 67.449-155.379 66.175-48.535-1.035-92.695-20.336-128.23-55.921l28.328-28.329c3.336 1.614 8.39 4.918 11.734 7.102zm291.402 58.8C304.953 515.239 138.961 520.247 27.91 423.239l37.258-37.258c38.758 38.653 88.465 60.649 141.3 61.77 1.442.027 2.88.047 4.321.047 59.352 0 119.309-26.047 165.14-71.887 46.942-46.941 73.126-108.719 71.84-169.46-1.132-52.829-23.12-102.544-61.777-141.302l37.258-37.253c97.004 111.066 91.996 277.058-13.145 382.199zM71.887 178.043c0 8.008-6.492 14.496-14.496 14.496-8.008 0-14.496-6.488-14.496-14.496 0-8.004 6.488-14.496 14.496-14.496 8.004 0 14.496 6.492 14.496 14.496zm0 0" />
      <path d="M187.863 390.668c0 8.008-6.492 14.5-14.496 14.5-8.008 0-14.496-6.492-14.496-14.5 0-8.004 6.488-14.496 14.496-14.496 8.004 0 14.496 6.492 14.496 14.496zM279.367 261.46c0 8.005-6.488 14.497-14.496 14.497-8.004 0-14.496-6.492-14.496-14.496 0-8.008 6.492-14.496 14.496-14.496 8.008 0 14.496 6.488 14.496 14.496zM327.21 213.621c0 8.004-6.491 14.496-14.495 14.496-8.008 0-14.5-6.492-14.5-14.496 0-8.008 6.492-14.5 14.5-14.5 8.004 0 14.496 6.492 14.496 14.5zM299.867 377.64c0 8.008-6.492 14.497-14.496 14.497-8.008 0-14.496-6.489-14.496-14.496s6.488-14.496 14.496-14.496c8.004 0 14.496 6.488 14.496 14.496zM347.707 329.8c0 8.005-6.488 14.497-14.496 14.497-8.004 0-14.496-6.492-14.496-14.496 0-8.008 6.492-14.496 14.496-14.496 8.008 0 14.496 6.488 14.496 14.496zM395.55 281.96c0 8.005-6.491 14.497-14.5 14.497-8.003 0-14.495-6.492-14.495-14.496 0-8.008 6.492-14.5 14.496-14.5 8.008 0 14.5 6.492 14.5 14.5zM375.05 165.781c0 8.004-6.491 14.496-14.495 14.496-8.008 0-14.496-6.492-14.496-14.496 0-8.008 6.488-14.496 14.496-14.496 8.004 0 14.496 6.488 14.496 14.496zM245.203 363.965c0 8.008-6.492 14.496-14.496 14.496-8.008 0-14.496-6.488-14.496-14.496 0-8.004 6.488-14.496 14.496-14.496 8.004 0 14.496 6.492 14.496 14.496zM294.176 313.352c0 8.003-6.492 14.496-14.496 14.496-8.008 0-14.496-6.493-14.496-14.496 0-8.008 6.488-14.497 14.496-14.497 8.004 0 14.496 6.489 14.496 14.497zM342.5 265.027c0 8.008-6.492 14.496-14.5 14.496-8.004 0-14.496-6.488-14.496-14.496 0-8.007 6.492-14.496 14.496-14.496 8.008 0 14.5 6.489 14.5 14.496zM100.879 274.691c0 8.008-6.488 14.496-14.496 14.496s-14.496-6.488-14.496-14.496c0-8.007 6.488-14.496 14.496-14.496s14.496 6.489 14.496 14.496zM158.867 197.375c0 8.004-6.488 14.496-14.496 14.496s-14.496-6.492-14.496-14.496c0-8.008 6.488-14.496 14.496-14.496s14.496 6.488 14.496 14.496zM388.715 220.453c0 8.008-6.488 14.496-14.496 14.496s-14.496-6.488-14.496-14.496 6.488-14.496 14.496-14.496 14.496 6.488 14.496 14.496zm0 0" />
    </svg>
    <svg xmlns="http://www.w3.org/2000/svg" width="511pt" viewBox="1 -23 511.998 511" height="511pt" id="m">
      <path d="M127.035 129.977c0 10.488 4.086 20.351 11.52 27.777a8.51 8.51 0 0 0 6.035 2.5 8.507 8.507 0 0 0 6.031-2.5 8.518 8.518 0 0 0 0-12.066c-4.195-4.196-6.52-9.778-6.52-15.711 0-5.93 2.313-11.52 6.52-15.715 7.426-7.426 11.52-17.29 11.52-27.785 0-10.497-4.086-20.364-11.52-27.786-3.336-3.34-8.738-3.34-12.062 0a8.513 8.513 0 0 0 0 12.063c4.195 4.207 6.507 9.797 6.507 15.73 0 5.93-2.312 11.52-6.52 15.715-7.425 7.426-11.51 17.29-11.51 27.778zM314.77 129.977c0 10.488 4.085 20.351 11.52 27.777a8.51 8.51 0 0 0 6.034 2.5 8.507 8.507 0 0 0 6.031-2.5 8.525 8.525 0 0 0 0-12.066c-4.199-4.196-6.52-9.778-6.52-15.711 0-5.93 2.313-11.52 6.52-15.715 7.422-7.426 11.52-17.29 11.52-27.785 0-10.497-4.086-20.364-11.52-27.786-3.335-3.34-8.738-3.34-12.066 0a8.52 8.52 0 0 0 0 12.063c4.2 4.207 6.512 9.797 6.512 15.73 0 5.93-2.313 11.52-6.52 15.715-7.426 7.426-11.511 17.29-11.511 27.778zM217.25 96.86c0 13.335 5.195 25.863 14.637 35.3a8.507 8.507 0 0 0 6.031 2.5 8.547 8.547 0 0 0 6.043-2.5 8.54 8.54 0 0 0 0-12.066c-6.223-6.219-9.637-14.461-9.637-23.235s3.422-17.023 9.637-23.246c9.437-9.425 14.633-21.965 14.633-35.3s-5.196-25.864-14.633-35.31a8.518 8.518 0 0 0-12.066 0 8.52 8.52 0 0 0 0 12.063c6.21 6.223 9.632 14.465 9.632 23.246 0 8.762-3.422 17.016-9.632 23.235-9.45 9.441-14.645 21.976-14.645 35.312zM400.613 333.215c.16.012.29.094.453.094C464.305 333.309 512 289.285 512 230.91a8.534 8.534 0 0 0-8.535-8.535h-77.176c.238-5.605.375-11.29.375-17.066a8.53 8.53 0 0 0-8.531-8.536H187.734v-8.53a8.534 8.534 0 0 0-8.535-8.536 8.53 8.53 0 0 0-8.531 8.535v8.531H59.734a8.534 8.534 0 0 0-8.535 8.536c0 82.824 25.113 148.32 71.262 187.734H8.535A8.531 8.531 0 0 0 0 401.578c0 12.926 61.148 35.488 61.766 35.719 35.113 12.621 94.359 27.672 177.168 27.672 158.574 0 232.464-54.262 235.535-56.574a8.539 8.539 0 0 0 2.96-9.524 8.54 8.54 0 0 0-8.09-5.828H355.403c18.594-15.879 33.72-36.055 45.211-59.828zm93.918-93.774c-4.07 42.883-38.793 73.715-86.375 76.528 8.739-22.809 14.457-48.461 17-76.528zM238.934 447.895c-100.883 0-165.57-22.227-198.47-37.793H436.48c-33.785 15.699-98.867 37.793-197.546 37.793zm-87.723-54.852c-51.766-32.266-81-95.59-82.852-179.2h102.305v17.067h-17.066a8.527 8.527 0 0 0-8.532 8.531v64a8.53 8.53 0 0 0 8.532 8.536h51.199a8.534 8.534 0 0 0 8.535-8.536v-64a8.53 8.53 0 0 0-8.535-8.53H187.73v-17.067h221.774c-1.852 83.61-31.086 146.933-82.852 179.199zm45.055-145.066v46.933h-34.133v-46.933zm0 0" />
    </svg>
    <svg xmlns="http://www.w3.org/2000/svg" width="511pt" viewBox="0 0 511.999 511" height="511pt" id="n">
      <path d="M440.086 72.258c-27.406-27.399-57.29-49.215-84.164-61.43C326.379-2.598 303.098-2.949 290.3 9.86c-.012.016-.028.024-.043.043-38.352 38.368-77.742 101.13-100.352 159.91-20.379 52.981-25.347 96.618-14.937 126.715l-56.547 56.547c-18.8 18.801-44.82 28.676-71.563 26.973-4.297-.262-8.664.105-13 1.094-16.152 3.691-28.976 16.488-32.683 32.605-3.09 13.441-.028 27.234 8.41 37.816 6.559 8.247 15.633 13.754 25.71 15.782-.23 9.144 2.95 20.082 15.544 32.488 8.234 8.106 18.43 12.516 28.836 12.516.37 0 .738 0 1.101-.008 23.993-.735 42.77-20.106 42.77-44.617-.324-28.621 9.27-54.157 27-71.887l60.426-60.426c11.261 4.785 24.597 7.238 39.875 7.238 25.656 0 56.625-6.742 91.675-20.218 58.79-22.621 121.551-61.992 159.918-100.352l.043-.043c28.387-28.367-10.968-98.34-62.398-149.777zM195.25 326.184l-57.172 57.183c-21.121 21.121-32.543 51.145-32.172 84.863 0 14.403-11.273 26.028-25.656 26.461-5.766.395-11.969-2.464-17.027-7.441-11.766-11.582-11.032-19.055-9.278-25.727l2.977-11.308-11.688.23c-.582.016-1.156.078-1.109.133-8.113 0-15.668-3.644-20.727-10-5.144-6.45-6.918-14.582-5.011-22.875 2.172-9.418 9.965-17.195 19.41-19.36 2.691-.609 5.375-.835 7.984-.679 31.625 1.977 62.746-9.723 85.137-32.105l52.375-52.375c.176.265.414.46.59.722 2.004 2.844 4.148 5.551 6.574 7.989a58.069 58.069 0 0 0 4.793 4.289zm140.945-20.223c-54.476 20.965-98.242 24.644-123.215 10.883a49.327 49.327 0 0 1-4.515-2.867c-.266-.188-.567-.352-.832-.547a42.327 42.327 0 0 1-4.43-3.785c-.09-.09-.187-.153-.273-.239-.028-.027-.043-.054-.07-.082-1.723-1.73-3.286-3.707-4.739-5.824-.309-.441-.59-.898-.883-1.352-1.36-2.125-2.629-4.394-3.734-6.867-.063-.133-.133-.254-.191-.386l-.399-.903c-10.594-25.613-6.055-67.086 13.477-117.851 17.652-45.895 45.816-94.211 75.41-130.442.406 2.598 1.008 5.317 1.715 8.086.203.785.449 1.598.668 2.399.629 2.25 1.351 4.546 2.171 6.894.317.91.63 1.809.973 2.734a150.093 150.093 0 0 0 3.953 9.649c12.215 26.867 34.035 56.762 61.43 84.156 27.394 27.406 57.289 49.223 84.164 61.438 3.379 1.535 6.656 2.843 9.867 4.035.899.336 1.774.637 2.664.945 2.516.871 4.98 1.64 7.38 2.293.687.188 1.386.406 2.066.582 2.664.672 5.277 1.238 7.793 1.633-36.243 29.602-84.555 57.758-130.45 75.418zM444.191 205c-24.996-11.36-53.046-31.906-78.992-57.855-25.941-25.938-46.488-53.989-57.847-78.985-9.86-21.691-11.57-38.816-4.563-45.824 2.86-2.852 7.387-4.262 13.23-4.262 8.493 0 19.743 2.985 32.606 8.828 24.996 11.356 53.043 31.895 78.98 57.844 53.575 53.586 77.141 110.098 62.41 124.828-7.007 6.988-24.128 5.285-45.824-4.574zm0 0" />
      <path d="M415.125 97.227c-24.102-24.106-45.418-38.641-59.035-46.579-7.293-4.253-16.2-3.113-22.137 2.836-5.95 5.946-7.086 14.852-2.844 22.145 7.938 13.625 22.465 34.922 46.579 59.035 24.113 24.113 45.417 38.64 59.035 46.574 2.941 1.715 6.144 2.555 9.304 2.555 4.688 0 9.293-1.836 12.84-5.395 5.95-5.949 7.09-14.843 2.832-22.144-7.941-13.617-22.469-34.926-46.574-59.027zm30.477 68.761c-12.72-7.41-32.664-21.023-55.446-43.8-22.781-22.782-36.39-42.727-43.797-55.438l.84-.848c12.727 7.414 32.676 21.035 55.446 43.805 22.773 22.773 36.39 42.719 43.804 55.445zM327.676 164.066c-7.73-7.742-14.766-16.125-20.317-24.265-7.125-10.422-18.863-16.363-31.64-15.754-12.719.547-24.028 7.457-30.23 18.492-5.973 10.59-11.145 21.324-15.376 31.887a8.83 8.83 0 0 0 4.91 11.484c4.536 1.797 9.665-.398 11.473-4.918 3.945-9.847 8.781-19.875 14.367-29.804 3.196-5.676 9.032-9.223 15.621-9.508 6.621-.317 12.657 2.738 16.313 8.086 6.246 9.144 13.793 18.164 22.418 26.777 8.62 8.617 17.633 16.16 26.777 22.41a8.788 8.788 0 0 0 4.969 1.547 8.823 8.823 0 0 0 7.3-3.852 8.826 8.826 0 0 0-2.304-12.265c-8.27-5.64-16.426-12.473-24.281-20.317zM331.047 260.32c-43.73 24.618-83.996 32.11-97.887 18.211-4.637-4.625-6.972-12.066-6.957-22.11a8.82 8.82 0 0 0-8.816-8.843h-.008a8.826 8.826 0 0 0-8.828 8.817c-.016 14.898 4.054 26.55 12.129 34.617 8.554 8.55 20.61 12.101 34.472 12.09 25.703 0 57.567-12.204 84.567-27.395 4.242-2.39 5.742-7.777 3.36-12.012a8.823 8.823 0 0 0-12.032-3.375zm0 0" />
    </svg>
    <svg xmlns="http://www.w3.org/2000/svg" width="512pt" viewBox="-4 0 512 512" height="512pt" id="o">
      <path d="m404.664 96.996-.039-.031c-.16-.113-.363-.172-.523-.274.418-5.734-2.11-11.265-7.164-14.5-24.551-15.738-72.051-38.714-119.106-19.867v-35.75C277.832 11.922 267.215 0 254.168 0h-21.203c-13.059 0-23.672 11.922-23.672 26.574V65.73c-21.215-3.777-67.43-7.515-111.84 19.008-6.734 4.008-9.5 11.973-6.723 19.344.278.754.793 1.32 1.165 1.996-.973.258-1.985.477-2.946.734-2.254.602-4.41 1.72-6.277 3.254C30.132 153.777 0 216.102 0 281.04 0 408.395 113.152 512 252.25 512S504.5 408.395 504.5 281.04c.004-72.856-36.387-139.938-99.836-184.044zM209.25 85.16c4.688.98 9.512-.203 13.23-3.246 3.75-3.043 5.887-7.574 5.887-12.41v-42.93c0-4.215 2.48-7.496 4.598-7.496h21.203c2.125 0 4.586 3.281 4.586 7.496v40.528c0 5.437 2.73 10.445 7.308 13.382a15.85 15.85 0 0 0 15.278 1.079c34.863-15.938 71.738-2.376 95.328 10.718-22.242-.285-40.348 1.48-54.215 4.895-6.277 1.535-10.941 6.648-11.887 13.027-.96 6.535 2.118 12.918 7.832 16.293 13.868 8.156 22.95 17.313 28.977 26.309 4.34 6.476 7.137 12.867 8.777 18.73-20.898-17.11-44.336-23.398-60.394-25.648a126.755 126.755 0 0 0-13.242-1.164c-4.387-.141-8.547 1.468-11.692 4.558-3.12 3.063-4.875 7.348-4.808 11.742.761 48.989-16.168 81.852-26.012 96.72-9.395-19.915-12.293-62.763-11.77-97.966.133-8.129-5.921-15.043-14.109-16.101a57.926 57.926 0 0 0-7.418-.469c-.477 0-.965.086-1.434.106-1.296.027-2.601.171-3.91.277-1.965.16-3.93.351-5.902.687-1.281.207-2.559.485-3.836.762a96.449 96.449 0 0 0-6.074 1.516c-1.23.355-2.453.734-3.676 1.144a112.706 112.706 0 0 0-6.227 2.281c-1.164.47-2.32.926-3.472 1.43-2.117.926-4.215 1.91-6.293 2.945-1.09.536-2.176 1.06-3.254 1.622a173.661 173.661 0 0 0-6.344 3.539c-.98.574-1.965 1.109-2.937 1.699a204.96 204.96 0 0 0-6.684 4.262c-.719.476-1.46.925-2.168 1.402a246.562 246.562 0 0 0-8.422 5.96 143.417 143.417 0 0 1 10.77-16.663c.203-.266.394-.57.582-.828a138.28 138.28 0 0 1 11.715-13.536l.058-.058a126.202 126.202 0 0 1 14.145-12.352c.61-.457 1.258-.98 1.84-1.398.343-.25.62-.422.953-.66 1.176-.828 2.336-1.64 3.367-2.32 5-3.27 7.746-8.993 7.125-14.954a15.902 15.902 0 0 0-10.024-13.25c-.488-.191-1.085-.285-1.593-.465a70.008 70.008 0 0 0-6.703-1.984 72.83 72.83 0 0 0-4.465-.992c-.219-.04-.41-.106-.64-.145-.141-.027-.274.012-.419-.007-10.883-1.91-23.722-2.196-38.687-.594 35.976-14.914 70.59-10.488 85.152-7.473zm42.992 407.774c-128.566 0-233.176-95.051-233.176-211.887 0-59.09 27.48-115.918 75.344-155.942 20.574-5.472 42.715-9.863 65.137-13.046.754.132 1.586.207 2.308.363.602.121 1.223.238 1.793.371-.855.617-1.812 1.398-2.718 2.086-.993.766-1.938 1.453-2.973 2.293-.91.734-1.871 1.61-2.805 2.402-1.156.985-2.27 1.887-3.464 2.969-1.125 1.02-2.29 2.203-3.442 3.316-1.059 1.024-2.09 1.957-3.168 3.055-1.926 1.965-3.871 4.129-5.82 6.352-.324.37-.637.675-.961 1.05-9.14 10.625-18.317 24.18-25.746 41.13-2.985 6.835-.989 14.468 4.969 18.972a15.999 15.999 0 0 0 19.878-.402c16.301-13.418 46.758-35.32 71.739-33.668-.25 26.832 1.172 85.03 17.12 109.87a16.028 16.028 0 0 0 13 7.364h.477c5.094 0 9.891-2.43 12.918-6.582 9.891-13.59 32.551-51.086 32.477-109.059 13.934.914 42.273 5.598 64.8 27.602 4.926 4.797 12.079 5.934 18.192 2.871 6.18-3.07 9.625-9.492 8.758-16.367a83.09 83.09 0 0 0-3.09-14.106c-.07-.222-.105-.421-.176-.648-1.468-4.61-3.566-9.426-6.218-14.3-.364-.677-.63-1.337-1.02-2.013-1.191-2.07-2.648-4.148-4.102-6.218-.503-.727-.894-1.453-1.43-2.176-1.238-1.66-2.745-3.309-4.167-4.961-.973-1.133-1.805-2.277-2.863-3.402-1.239-1.32-2.766-2.606-4.141-3.903-1.508-1.43-2.879-2.879-4.55-4.293-1.438-1.21-3.184-2.375-4.759-3.566-1.898-1.441-3.656-2.91-5.754-4.313 4.77-.82 10.723-1.562 17.973-2.09.285-.015.582-.035.875-.054a316.11 316.11 0 0 1 10.57-.508c1.508-.047 3.063-.074 4.657-.094.734-.011 1.457-.027 2.21-.039 2.91-.027 5.993-.011 9.188.04l3.426.304c2.82.383 5.656.715 8.488 1.059l2.363.277c57.88 40.488 91.067 101.68 91.067 167.98 0 116.86-104.61 211.91-233.184 211.91zm0 0" />
      <path d="M57.785 292.914c-.765-5.21-5.523-8.883-10.828-8.05-5.207.761-8.812 5.609-8.05 10.824 2.09 14.19 6.765 27.507 13.898 39.546a9.533 9.533 0 0 0 13.066 3.336c4.543-2.68 6.027-8.547 3.348-13.066-5.79-9.746-9.746-21.02-11.434-32.59zM48.875 263.984c.219.016.45.028.668.028 4.969 0 9.156-3.844 9.5-8.88.762-10.866 2.984-21.405 6.617-31.335 1.805-4.957-.734-10.434-5.683-12.234-4.98-1.793-10.438.734-12.239 5.683-4.234 11.617-6.84 23.914-7.734 36.57-.352 5.247 3.605 9.805 8.871 10.168zm0 0" />
    </svg>
  </defs>
  <g data-name="229-can.svg">
    <g transform="rotate(38 84.993 883.405) scale(.183)">
      <path fill="transparent" d="M0 0h683v683H0z" />
      <use xlink:href="#a" />
    </g>
    <g transform="rotate(38 -171.007 139.927) scale(.183)">
      <path fill="transparent" d="M0 0h683v683H0z" />
      <use xlink:href="#a" />
    </g>
  </g>
  <g data-name="228-candy.svg">
    <g transform="rotate(56 -242.887 704.347) scale(.183)">
      <path fill="transparent" d="M0 0h683v683H0z" />
      <use xlink:href="#b" />
    </g>
    <g transform="rotate(56 238.58 448.347) scale(.183)">
      <path fill="transparent" d="M0 0h683v683H0z" />
      <use xlink:href="#b" />
    </g>
    <g transform="rotate(56 -498.887 222.88) scale(.183)">
      <path fill="transparent" d="M0 0h683v683H0z" />
      <use xlink:href="#b" />
    </g>
    <g transform="rotate(56 -17.42 -33.12) scale(.183)">
      <path fill="transparent" d="M0 0h683v683H0z" />
      <use xlink:href="#b" />
    </g>
  </g>
  <g data-name="186-cutlery.svg">
    <g transform="rotate(-27 1067.044 -374.995) scale(.183)">
      <path fill="transparent" d="M0 0h683v683H0z" />
      <use xlink:href="#c" />
    </g>
    <g transform="rotate(-27 .727 -630.995) scale(.183)">
      <path fill="transparent" d="M0 0h683v683H0z" />
      <use xlink:href="#c" />
    </g>
  </g>
  <g data-name="187-strawberry.svg">
    <g transform="rotate(60 141.98 461.978) scale(.183)">
      <path fill="transparent" d="M0 0h683v683H0z" />
      <use xlink:href="#d" />
    </g>
    <g transform="rotate(60 -114.02 18.573) scale(.183)">
      <path fill="transparent" d="M0 0h683v683H0z" />
      <use xlink:href="#d" />
    </g>
  </g>
  <g transform="rotate(-9 621.114 -740.148) scale(.183)" data-name="160-chili.svg">
    <path fill="transparent" d="M0 0h683v683H0z" />
    <use xlink:href="#e" />
  </g>
  <g transform="matrix(.184 0 0 .184 102.481 242.881)" data-name="135-fish.svg">
    <path fill="transparent" d="M0 0h681v681H0z" />
    <use xlink:href="#f" />
  </g>
  <g transform="rotate(33 60.136 549.825) scale(.183)" data-name="130-kitchen.svg">
    <path fill="transparent" d="M0 0h683v683H0z" />
    <use xlink:href="#g" />
  </g>
  <g data-name="125-chef.svg">
    <g transform="rotate(-7 3313.051 -425.54) scale(.183)">
      <path fill="transparent" d="M0 0h683v683H0z" />
      <use xlink:href="#h" />
    </g>
    <g transform="rotate(-7 -872.512 -681.54) scale(.183)">
      <path fill="transparent" d="M0 0h683v683H0z" />
      <use xlink:href="#h" />
    </g>
  </g>
  <g transform="rotate(61 32.724 350.13) scale(.184)" data-name="108-sausage.svg">
    <path fill="transparent" d="M0 0h681v681H0z" />
    <use xlink:href="#i" />
  </g>
  <g data-name="110-cheese.svg">
    <g transform="matrix(.184 0 0 .184 210.281 450.148)">
      <path fill="transparent" d="M0 0h681v681H0z" />
      <use xlink:href="#j" />
    </g>
    <g transform="matrix(.184 0 0 .184 210.281 -61.852)">
      <path fill="transparent" d="M0 0h681v681H0z" />
      <use xlink:href="#j" />
    </g>
  </g>
  <g transform="rotate(11 -62.989 343.461) scale(.183)" data-name="106-pizza.svg">
    <path fill="transparent" d="M0 0h683v683H0z" />
    <use xlink:href="#k" />
  </g>
  <g transform="rotate(17 -763.535 986.343) scale(.183)" data-name="208-watermelon.svg">
    <path fill="transparent" d="M0 0h683v683H0z" />
    <use xlink:href="#l" />
  </g>
  <g data-name="224-tea.svg">
    <g transform="matrix(.18219 -.02237 .02237 .18219 455.349 287.62)">
      <path fill="transparent" d="M0 0h681v681H0z" />
      <use xlink:href="#m" />
    </g>
    <g transform="scale(.18355) rotate(-7 12655.416 3306.541)">
      <path fill="transparent" d="M0 0h681v681H0z" />
      <use xlink:href="#m" />
    </g>
  </g>
  <g transform="scale(.18355) rotate(-33 3757.46 -2193.398)" data-name="138-meat.svg">
    <path fill="transparent" d="M0 0h681v681H0z" />
    <use xlink:href="#n" />
  </g>
  <g data-name="161-tomato.svg">
    <g transform="scale(.18302) rotate(55 -582.063 3847.263)">
      <path fill="transparent" d="M0 0h683v683H0z" />
      <use xlink:href="#o" />
    </g>
    <g transform="scale(.18302) rotate(55 2104.976 2448.479)">
      <path fill="transparent" d="M0 0h683v683H0z" />
      <use xlink:href="#o" />
    </g>
    <g transform="scale(.18302) rotate(55 -1980.847 1160.224)">
      <path fill="transparent" d="M0 0h683v683H0z" />
      <use xlink:href="#o" />
    </g>
    <g transform="scale(.18302) rotate(55 706.192 -238.56)">
      <path fill="transparent" d="M0 0h683v683H0z" />
      <use xlink:href="#o" />
    </g>
  </g>
</svg>
