<svg xmlns="http://www.w3.org/2000/svg" xmlns:xlink="http://www.w3.org/1999/xlink" width="512" height="512" viewBox="0 0 512 512">
  <defs>
    <svg xmlns="http://www.w3.org/2000/svg" width="512" viewBox="0 0 512 512" height="512" id="a">
      <path d="M502 215.877h-30.163v-20.122c0-16.587-13.495-30.082-30.082-30.082h-20.122v-.04c0-16.587-13.495-30.082-30.082-30.082H371.47c-16.587 0-30.082 13.495-30.082 30.082v50.245H170.612v-50.245c0-16.587-13.495-30.082-30.082-30.082h-20.081c-16.587 0-30.082 13.495-30.082 30.082v.04H70.245c-16.587 0-30.082 13.495-30.082 30.082v20.122H10c-5.523 0-10 4.477-10 10v60.245c0 5.522 4.477 10 10 10h30.163v20.123c0 16.587 13.495 30.081 30.082 30.081h20.122v.041c0 16.587 13.495 30.082 30.082 30.082h20.081c16.587 0 30.082-13.495 30.082-30.082v-50.245h170.775v50.245c0 16.587 13.495 30.082 30.082 30.082h20.081c16.587 0 30.082-13.495 30.082-30.082v-.041h20.122c16.587 0 30.082-13.494 30.082-30.081v-20.123H502c5.522 0 10-4.478 10-10v-60.245c0-5.522-4.478-10-10-10zM20 276.122v-40.245h20.163v40.245zm50.245 50.204c-5.56 0-10.082-4.522-10.082-10.081v-120.49c0-5.559 4.522-10.082 10.082-10.082h20.122v140.653zm80.367 20.041c0 5.56-4.523 10.082-10.082 10.082h-20.081c-5.56 0-10.082-4.522-10.082-10.082V165.633c0-5.559 4.522-10.082 10.082-10.082h20.081c5.559 0 10.082 4.523 10.082 10.082zm20-70.245v-40.245h170.775v40.245zm231.021 70.245c0 5.56-4.522 10.082-10.082 10.082H371.47c-5.56 0-10.082-4.522-10.082-10.082V165.633c0-5.559 4.522-10.082 10.082-10.082h20.081c5.56 0 10.082 4.523 10.082 10.082zm50.204-30.122c0 5.559-4.522 10.081-10.082 10.081h-20.122V185.673h20.122c5.56 0 10.082 4.523 10.082 10.082zM492 276.122h-20.163v-40.245H492z" />
    </svg>
    <svg xmlns="http://www.w3.org/2000/svg" width="512" viewBox="0 0 512.005 512.005" height="512" id="b">
      <path d="M506.648 376.372 402.487 137.018a69.8 69.8 0 0 0-12.803-19.593C400.278 55.8 352.574.002 290.773.002c-55.343 0-100.367 45.024-100.367 100.367 0 62.875 57.674 110.899 120.081 98.419-2.899 29.208 1.061 58.997 11.543 87.726-51.682-24.057-109.136-13.963-149.949 20.936-17.793-11.655-38.712-18.181-61.701-18.037C50.108 289.897.835 338.843.011 399.136-.835 461.238 49.12 512.002 111.3 512.002c22.612 0 44.138-6.649 62.635-19.29 27.804 12.635 60.292 19.29 94.385 19.29 40.475 0 80.883-10.922 116.877-31.589 21.337-10.798 41.512-15.697 61.727-14.986 47.193 1.417 78.05-46.963 59.724-89.055zM210.406 100.37c0-44.315 36.053-80.367 80.367-80.367s80.367 36.053 80.367 80.367c0 44.315-36.053 80.368-80.367 80.368-44.314-.001-80.367-36.054-80.367-80.368zm237.167 345.068c-23.711-.835-47.143 4.808-71.661 17.259-.156.079-.31.162-.462.249-33.022 19.009-70.066 29.057-107.131 29.057-33.309 0-64.782-6.855-91.019-19.825a10.006 10.006 0 0 0-10.514 1.027c-16.049 12.298-35.235 18.798-55.487 18.798-50.855 0-91.987-41.488-91.291-92.594.676-49.407 41.606-90 91.303-90 20.262 0 39.431 6.489 55.474 18.789a9.998 9.998 0 0 0 13.078-.788c43.284-42.362 111.602-45.488 158.456-7.481a9.998 9.998 0 0 0 12.702-.084 9.998 9.998 0 0 0 2.371-12.479c-19.476-35.614-27.917-75.532-21.917-115.26 22.572-10.054 40.775-28.199 50.901-50.733 2.012 3.772-5.11-11.999 105.934 242.983 12.355 28.376-7.983 62.136-40.737 61.082z" />
      <path d="M290.773 50.206c-27.66 0-50.163 22.503-50.163 50.163s22.503 50.164 50.163 50.164 50.163-22.504 50.163-50.164-22.502-50.163-50.163-50.163zm0 80.327c-16.632 0-30.163-13.531-30.163-30.164 0-16.632 13.531-30.163 30.163-30.163s30.163 13.531 30.163 30.163c0 16.633-13.531 30.164-30.163 30.164z" />
    </svg>
    <svg xmlns="http://www.w3.org/2000/svg" width="512" viewBox="0 0 512 512" height="512" id="c">
      <path d="M462.538 233.444 270.964 130.289c-18.994-10.228-42.255-3.566-52.955 15.162-14.209 24.866-40.828 40.313-69.469 40.313-48.973 0-68.886-39.882-70.308-41.229a42.618 42.618 0 0 0-35.53-19.016C19.156 125.52 0 144.676 0 168.223v178.154C0 368.501 17.999 386.5 40.122 386.5h431.756c22.123 0 40.122-17.999 40.122-40.123v-30.122a93.933 93.933 0 0 0-49.462-82.811zm28.788 72.811H384.211c-16.049-27.693-14.233-63.038 5.839-89.127l63.005 33.926a73.95 73.95 0 0 1 38.271 55.201zM42.702 145.52a22.657 22.657 0 0 1 18.89 10.11c1.576 1.479 26.194 50.135 86.948 50.135 35.8 0 69.073-19.309 86.834-50.392 5.275-9.232 16.74-12.517 26.107-7.475l14.817 7.978-9.382 16.057c-2.786 4.768-1.18 10.893 3.589 13.679a9.998 9.998 0 0 0 13.679-3.589l9.734-16.659 26.612 14.329-10.259 17.564c-2.786 4.77-1.178 10.894 3.591 13.679 4.759 2.781 10.887 1.187 13.679-3.591l10.61-18.164 34.124 18.374c-21.009 29.208-24.384 66.875-10.448 98.699H109.87c-4.708-47.376-42.495-85.162-89.87-89.87v-48.162c0-12.518 10.185-22.702 22.702-22.702zM20 236.532c36.33 4.533 65.19 33.393 69.723 69.723H20zm472 109.845c0 11.096-9.026 20.123-20.122 20.123H40.122C29.026 366.5 20 357.473 20 346.377v-20.122h472z" />
    </svg>
    <svg xmlns="http://www.w3.org/2000/svg" width="512" viewBox="0 0 512 512" height="512" id="d">
      <path d="M243.428 130.53c-69.184 0-125.469 56.285-125.469 125.47s56.285 125.47 125.469 125.47c69.185 0 125.47-56.285 125.47-125.47s-56.285-125.47-125.47-125.47zm0 230.94c-58.155 0-105.469-47.313-105.469-105.47 0-58.156 47.314-105.47 105.469-105.47 58.156 0 105.47 47.313 105.47 105.47 0 58.156-47.313 105.47-105.47 105.47z" />
      <path d="m439.243 328.519-29.187-16.847c12.056-35.99 12.077-75.289 0-111.343l29.187-16.847c4.781-2.76 6.422-8.879 3.661-13.661l-25.102-43.476c-2.762-4.783-8.876-6.423-13.66-3.66l-29.275 16.9a176.964 176.964 0 0 0-40.029-33.547l-13.48-80.904A29.992 29.992 0 0 0 291.685 0h-96.513a29.994 29.994 0 0 0-29.675 25.135l-13.478 80.901C101.524 136.929 67.755 192.593 67.755 256s33.769 119.071 84.264 149.964l13.479 80.904A29.993 29.993 0 0 0 195.172 512h96.513a29.993 29.993 0 0 0 29.674-25.135l13.479-80.901a176.994 176.994 0 0 0 40.029-33.547l29.275 16.9c4.776 2.757 10.896 1.129 13.66-3.66l25.102-43.477c2.76-4.781 1.121-10.9-3.661-13.661zm-33.761-183.515 15.101 26.155-18.049 10.418a175.7 175.7 0 0 0-15.141-26.131zM185.225 28.425A10.055 10.055 0 0 1 195.172 20h96.513c4.948 0 9.131 3.543 9.945 8.422l11.018 66.128c-43.378-18.669-93.664-19.27-138.44 0zm116.406 455.15a10.053 10.053 0 0 1-9.946 8.425h-96.513a10.053 10.053 0 0 1-9.946-8.422l-11.017-66.128c43.467 18.708 93.754 19.231 138.439 0zm-58.203-71.901c-85.838 0-155.673-69.835-155.673-155.674s69.835-155.674 155.673-155.674c85.839 0 155.674 69.835 155.674 155.674s-69.835 155.674-155.674 155.674zm162.054-44.678-18.089-10.442a175.7 175.7 0 0 0 15.141-26.131l18.049 10.418z" />
      <path d="M243.429 208.176c-17.702-13.906-43.479-12.704-59.785 3.602-17.602 17.603-17.601 46.243 0 63.845l52.714 52.715c3.905 3.903 10.237 3.904 14.142 0l52.715-52.715c17.631-17.633 17.65-46.193 0-63.845-16.307-16.306-42.085-17.508-59.786-3.602zm45.644 53.303-45.644 45.643-45.643-45.643c-9.804-9.804-9.804-25.756 0-35.56 9.799-9.799 25.755-9.807 35.559-.001 1.917 1.533 4.37 5.942 10.083 5.942h.001c5.714 0 8.152-4.396 10.084-5.941 9.803-9.806 25.755-9.804 35.56 0 9.819 9.821 9.832 25.731 0 35.56z" />
    </svg>
    <svg xmlns="http://www.w3.org/2000/svg" width="512" viewBox="0 0 512 512" height="512" id="e">
      <path d="M371.429 71.01V30.082C371.429 13.495 357.934 0 341.347 0H180.694c-16.587 0-30.082 13.495-30.082 30.082v40.204h-.041c-38.733 0-70.245 31.512-70.245 70.244v301.225c0 38.733 31.512 70.245 70.245 70.245h210.857c38.733 0 70.245-31.512 70.245-70.245V140.53c.001-35.337-26.232-64.65-60.244-69.52zM100.326 190.694h311.348v200.897H100.326zM351.429 30.082v40.204h-30.204V20h20.122c5.559 0 10.082 4.522 10.082 10.082zm-80.408 40.204V20h30.204v50.286zm-50.205 0V20h30.204v50.286zm-50.204-40.204c0-5.56 4.522-10.082 10.082-10.082h20.122v50.286h-30.204zM100.326 140.53c0-27.705 22.54-50.244 50.245-50.244h210.857c27.705 0 50.245 22.539 50.245 50.244v30.164H100.326zM361.429 492H150.571c-27.705 0-50.245-22.54-50.245-50.245v-30.163h311.348v30.163c0 27.705-22.54 50.245-50.245 50.245z" />
      <path d="M295.066 286.671a9.997 9.997 0 0 0-8.944-5.528h-40.244l33.184-44.244c3.314-4.418 2.418-10.687-2-14-4.418-3.314-10.686-2.418-14 2l-45.184 60.244a10 10 0 0 0 8 16h40.244l-33.184 44.245c-3.314 4.418-2.418 10.686 2 14 4.398 3.3 10.67 2.439 14-2l45.184-60.245a9.999 9.999 0 0 0 .944-10.472z" />
    </svg>
    <svg xmlns="http://www.w3.org/2000/svg" width="512" viewBox="0 0 512 512" height="512" id="f">
      <path d="M358.675 0H218.144c-49.806 0-90.326 40.521-90.326 90.326v34.314l-32.199 15.104a55.455 55.455 0 0 0-31.795 46.683c-4.825 75.682 11.578 150.883 47.427 217.665v51.219c0 31.259 25.431 56.69 56.689 56.69h184.208c31.259 0 56.69-25.431 56.69-56.69v-51.792l29.477-73.69a148.797 148.797 0 0 0 10.686-55.495V90.327C449.001 40.521 408.481 0 358.675 0zM147.818 90.326c0-38.778 31.548-70.326 70.326-70.326h140.531c38.778 0 70.326 31.548 70.326 70.326v40.164c0 27.705-22.54 50.244-50.245 50.244H244.321c2.226-12.499.78-25.763-4.994-38.073-14.91-31.784-52.897-45.51-84.682-30.604l-6.827 3.202zM131.25 455.31v-43.719h102.373c-20.559 22.869-20.617 57.475 0 80.408H167.94c-20.231.001-36.69-16.458-36.69-36.689zm257.588 0c0 20.23-16.459 36.69-36.69 36.69h-73.759c-22.169 0-40.204-18.035-40.204-40.204s18.035-40.204 40.204-40.204h110.449zm40.163-180.977c0 16.537-3.114 32.71-9.257 48.067l-27.677 69.191h-264.82C94.293 328.865 79.269 258.503 83.783 187.7a35.456 35.456 0 0 1 20.33-29.849l59.026-27.688c21.799-10.228 47.854-.81 58.08 20.991 10.168 21.677.852 47.684-20.767 57.975l-47.855 22.779c-4.986 2.374-7.105 8.341-4.731 13.327 2.373 4.988 8.344 7.105 13.327 4.732l47.855-22.779c12.356-5.881 21.939-15.292 28.151-26.454h141.557c19.677 0 37.48-8.143 50.245-21.224z" />
    </svg>
    <svg xmlns="http://www.w3.org/2000/svg" width="512" viewBox="0 0 512 512" height="512" id="g">
      <path d="M200.775 215.879c-44.27 0-80.285 36.016-80.285 80.285 0 44.27 36.016 80.286 80.285 80.286s80.286-36.017 80.286-80.286-36.016-80.285-80.286-80.285zm0 140.571c-33.241 0-60.285-27.044-60.285-60.286 0-33.241 27.044-60.285 60.285-60.285 33.242 0 60.286 27.044 60.286 60.285 0 33.242-27.043 60.286-60.286 60.286z" />
      <path d="M502 145.593H361.429c-5.522 0-10 4.478-10 10v30.163h-62.52l-8.147-32.588a9.998 9.998 0 0 0-9.701-7.575h-70.286c-65.444 0-121.26 41.973-141.969 100.408h-8.644C22.503 246.001 0 268.504 0 296.164s22.503 50.163 50.163 50.163h8.644c20.709 58.436 76.525 100.408 141.969 100.408 73.543 0 136.216-53.336 148.424-125.119l155.635-45.984a10 10 0 0 0 7.166-9.59V155.593c-.001-5.523-4.479-10-10.001-10zM50.163 326.327C33.531 326.327 20 312.796 20 296.164s13.531-30.163 30.163-30.163h3.078a151.28 151.28 0 0 0 0 60.326zm287.245-22.081a10 10 0 0 0-7.089 8.346c-8.156 65.072-63.848 114.144-129.544 114.144-71.997 0-130.571-58.574-130.571-130.571s58.574-130.571 130.571-130.571h62.479l8.146 32.588a9.998 9.998 0 0 0 9.701 7.575h80.327c5.522 0 10-4.478 10-10v-30.163h50.285v113.744zM492 258.569l-50.286 14.858V165.593H492zM321.266 115.389c5.522 0 10-4.478 10-10V75.267c0-5.522-4.478-10-10-10s-10 4.478-10 10v30.122c0 5.522 4.477 10 10 10zM355.882 113.709c4.575 3.05 10.791 1.842 13.867-2.773l20.081-30.122c3.063-4.596 1.822-10.804-2.773-13.867-4.596-3.065-10.805-1.824-13.867 2.773l-20.081 30.122c-3.064 4.596-1.823 10.804 2.773 13.867zM272.781 110.936c3.073 4.61 9.285 5.828 13.867 2.773 4.596-3.063 5.837-9.271 2.773-13.867l-20.08-30.122c-3.063-4.596-9.271-5.838-13.867-2.773-4.596 3.063-5.837 9.271-2.773 13.867z" />
    </svg>
    <svg xmlns="http://www.w3.org/2000/svg" width="512" viewBox="0 0 512 512" height="512" id="h">
      <path d="M496.418 73.542c3.735-20.193-6.683-41.102-25.907-49.886-19.225-8.784-41.851-2.977-54.674 13.065-19.648-2.743-39.315 7.664-47.812 26.256-12.297 26.912 8.606 39.967-3.234 79.605-17.687 1.02-35.01 6.792-50.161 17.077a99.901 99.901 0 0 0-11.91-7.455c5.69-41.04 30.151-44.22 30.151-73.847 0-20.442-13.56-38.078-32.575-43.751C295.303 14.686 277.137 0 256 0c-21.138 0-39.303 14.686-44.297 34.606-19.016 5.673-32.575 23.309-32.575 43.751 0 29.62 24.485 32.803 30.154 73.846a100.161 100.161 0 0 0-11.913 7.457c-15.151-10.287-32.474-16.058-50.161-17.078-11.836-39.627 9.063-52.694-3.234-79.604-8.496-18.593-28.164-29.003-47.812-26.255-12.82-16.044-35.446-21.849-54.673-13.067-19.225 8.784-29.643 29.693-25.907 49.886-14.938 13.063-19.94 34.74-11.444 53.333 12.309 26.939 35.84 19.66 58.082 54.583-21.45 27.984-27.737 67.023-11.604 102.314 8.631 18.893 36.365 62.673 70.764 106.596 27.57 35.205 66.663 79.813 98.426 95.525C231.233 503.428 243.149 512 256 512s24.767-8.572 36.194-26.108c31.762-15.712 70.855-60.32 98.426-95.525 34.398-43.923 62.133-87.702 70.763-106.594 15.439-33.779 10.768-73.147-11.618-102.291 22.231-34.931 45.786-27.668 58.098-54.607 8.495-18.593 3.492-40.27-11.445-53.333zm-297.29 4.815c0-12.954 9.685-23.903 22.526-25.467a10 10 0 0 0 8.763-9.177C231.417 30.416 242.654 20 256 20s24.583 10.416 25.583 23.714a9.999 9.999 0 0 0 8.763 9.177c12.842 1.564 22.526 12.513 22.526 25.467 0 19.19-21.317 24.122-29.157 66.133A99.042 99.042 0 0 0 266 141.072V80.286c0-5.522-4.478-10-10-10-5.523 0-10 4.478-10 10v60.785a99.163 99.163 0 0 0-17.71 3.418c-7.788-41.829-29.162-47.128-29.162-66.132zm-176.8 40.205c-5.384-11.782-1.126-25.766 9.904-32.525a10 10 0 0 0 4.156-11.988c-4.617-12.511 1.274-26.655 13.413-32.201 12.139-5.549 26.688-.744 33.124 10.936a9.998 9.998 0 0 0 11.784 4.705c12.332-3.915 25.689 2.02 31.073 13.802 7.957 17.411-9.378 30.78.951 72.235a100.056 100.056 0 0 0-17.516 4.292L83.952 92.523c-2.297-5.024-8.231-7.232-13.252-4.939-5.023 2.296-7.234 8.229-4.939 13.252l25.263 55.286a99.613 99.613 0 0 0-14.697 10.464c-24.494-34.808-46.093-30.723-53.999-48.024zm114.797 259.473c-33.448-42.71-60.163-84.726-68.318-102.577-18.339-40.113-.705-87.415 39.421-105.75 23.811-10.879 51.196-9.504 73.717 3.83-16.042 17.755-25.754 41.231-25.754 66.843 0 26.529 10.713 93.96 26.661 152.057 5.885 21.439 12.032 40.179 18.367 56.055-18.48-16.161-40.336-40.122-64.094-70.458zM256 492c-5.252 0-12.458-5.662-20.75-19.086-14.594-24.048-25.691-58.736-33.111-85.77-16.801-61.204-25.808-123.888-25.945-146.245h54.705c5.523 0 10-4.478 10-10s-4.477-10-10-10h-52.293c8.719-34.619 40.107-60.327 77.394-60.327 44.007 0 79.809 35.803 79.809 79.81 0 11.279-2.392 33.509-7.025 60.844h-77.805c-5.522 0-10 4.477-10 10 0 5.522 4.478 10 10 10h74.177c-8.394 43.495-25.298 113.61-48.406 151.689C268.458 486.338 261.252 492 256 492zm187.192-216.539c-8.154 17.849-34.869 59.864-68.317 102.574-23.758 30.336-45.614 54.297-64.093 70.457 26.786-67.127 45.028-173.767 45.028-208.111 0-25.687-9.756-49.135-25.754-66.843 22.272-13.186 49.634-14.832 73.719-3.829 40.322 18.411 57.622 65.919 39.417 105.752zm46.48-156.899c-7.978 17.458-29.421 13.079-54.013 48.044a98.558 98.558 0 0 0-14.684-10.479l25.265-55.291c2.295-5.023.084-10.956-4.939-13.252-5.023-2.293-10.957-.084-13.252 4.939l-25.266 55.293a100.031 100.031 0 0 0-17.516-4.291c10.285-41.28-6.949-54.949.951-72.235 5.383-11.782 18.739-17.713 31.073-13.802a10.004 10.004 0 0 0 11.784-4.705c6.435-11.68 20.986-16.48 33.124-10.936 12.139 5.546 18.03 19.69 13.413 32.201a10.001 10.001 0 0 0 4.156 11.988c11.03 6.761 15.287 20.744 9.904 32.526z" />
    </svg>
    <svg xmlns="http://www.w3.org/2000/svg" width="512" viewBox="0 0 512 512" height="512" id="i">
      <path d="M511.957 259.582C513.894 116.033 398.288 0 256 0 113.851 0-1.911 115.879.044 259.582c-.01.301-.006.603.011.904C2.436 399.922 116.006 512 256 512c142.066 0 253.605-114.474 255.945-251.515.017-.301.022-.602.012-.903zm-52.436 115.767C402.624 340.445 330.817 321.306 256 321.306s-146.624 19.14-203.521 54.043a234.958 234.958 0 0 1-19.486-42.116c56.439-45.99 137.262-72.254 223.007-72.254 85.746 0 166.568 26.264 223.007 72.254a234.958 234.958 0 0 1-19.486 42.116zM256 240.98c-87.057 0-169.572 25.944-229.126 71.605a235.28 235.28 0 0 1-6.719-48.456C76.1 211.799 163.85 180.653 256 180.653s179.9 31.145 235.845 83.475a235.27 235.27 0 0 1-6.718 48.456C425.572 266.924 343.057 240.98 256 240.98zm0-80.327c-83.087 0-170.425 23.936-235.241 76.436a234.239 234.239 0 0 1 15.46-67.073c56.204-44.309 136.113-69.69 219.781-69.69s163.578 25.381 219.781 69.69a234.246 234.246 0 0 1 15.46 67.073C426.42 184.585 339.079 160.653 256 160.653zM256 20c85.108 0 159.831 45.289 201.354 113.028C398.811 97.706 327.217 80.326 256 80.326c-70.973 0-142.66 17.289-201.354 52.702C96.169 65.289 170.892 20 256 20zM116.758 446.42c42.689-16.247 90.457-24.787 139.242-24.787s96.552 8.54 139.242 24.787C356.183 475.059 308.036 492 256 492s-100.183-16.941-139.242-45.58zm296.293-14.428C365.437 412.119 311.295 401.633 256 401.633S146.563 412.12 98.949 431.992a237.92 237.92 0 0 1-35.611-39.842c53.711-32.841 121.671-50.844 192.662-50.844 70.992 0 138.952 18.003 192.663 50.844a237.97 237.97 0 0 1-35.612 39.842z" />
    </svg>
    <svg xmlns="http://www.w3.org/2000/svg" width="512" viewBox="0 0 512 512" height="512" id="j">
      <path d="M413.684 208.766c-14.299-14.299-22.174-33.309-22.174-53.53V10c0-5.523-4.478-10-10-10h-60.244c-5.522 0-10 4.477-10 10v105.429c0 30.474-24.792 55.266-55.266 55.266s-55.266-24.792-55.266-55.266V10c0-5.523-4.478-10-10-10H130.49c-5.522 0-10 4.477-10 10v145.235c0 20.221-7.875 39.231-22.174 53.53-18.075 18.076-28.03 42.109-28.03 67.673V502c0 5.522 4.478 10 10 10h351.428c5.522 0 10-4.478 10-10V276.439c0-25.564-9.955-49.597-28.03-67.673zm-301.225 14.142c18.076-18.076 28.031-42.109 28.031-67.673V20h40.244v95.429c0 41.502 33.764 75.266 75.266 75.266s75.266-33.764 75.266-75.266V20h40.244v135.235c0 25.563 9.955 49.597 28.031 67.673 14.299 14.298 22.173 33.309 22.173 53.53v165.357h-50.285V261.021c0-5.523-4.478-10-10-10H150.571c-5.523 0-10 4.478-10 10v180.775H90.286V276.439c0-20.222 7.874-39.233 22.173-53.531zm238.97 218.888H160.571V271.021h190.857v170.775zM90.286 492v-30.204h331.428V492z" />
      <path d="M224.497 349.029c4.242 3.535 10.549 2.963 14.084-1.281l7.419-8.902v52.746h-15.102c-5.522 0-10 4.478-10 10s4.478 10 10 10h50.203c5.522 0 10-4.478 10-10s-4.478-10-10-10H266v-80.367a10.001 10.001 0 0 0-17.683-6.401l-25.102 30.122c-3.534 4.242-2.961 10.547 1.282 14.083z" />
    </svg>
    <svg xmlns="http://www.w3.org/2000/svg" width="512" viewBox="0 0 512 512" height="512" id="k">
      <path d="M466.857 210.857H401.55v-.041c0-16.587-13.494-30.082-30.081-30.082h-30.164V85.152C341.306 38.199 303.106 0 256.153 0h-.307c-46.953 0-85.152 38.199-85.152 85.152v95.582H140.53c-16.587 0-30.081 13.495-30.081 30.082v.041H45.143C20.251 210.857 0 231.108 0 256s20.251 45.143 45.143 45.143h65.307v.041c0 16.587 13.494 30.082 30.081 30.082h30.164v95.582c0 46.953 38.199 85.152 85.152 85.152h.307c46.953 0 85.152-38.199 85.152-85.152v-95.582h30.164c16.587 0 30.081-13.495 30.081-30.082v-.041h65.307C491.749 301.143 512 280.892 512 256s-20.251-45.143-45.143-45.143zM45.143 281.143C31.279 281.143 20 269.863 20 256s11.279-25.143 25.143-25.143h65.307v50.285H45.143zm95.387 30.123c-5.559 0-10.081-4.522-10.081-10.082v-90.367c0-5.56 4.522-10.082 10.081-10.082h30.164v110.531zm180.776 115.582c0 35.925-29.228 65.152-65.152 65.152h-.307c-35.925 0-65.152-29.228-65.152-65.152V85.153c0-35.925 29.228-65.152 65.152-65.152h.307c35.925 0 65.152 29.228 65.152 65.152zm60.245-125.664c0 5.56-4.523 10.082-10.081 10.082h-30.164V200.734h30.164c5.559 0 10.081 4.522 10.081 10.082zm85.306-20.041H401.55v-50.285h65.307C480.721 230.857 492 242.137 492 256s-11.279 25.143-25.143 25.143z" />
      <path d="M281.102 98.4h-50.203c-5.522 0-10 4.478-10 10s4.478 10 10 10h50.203c5.522 0 10-4.478 10-10s-4.478-10-10-10zM281.102 196.8h-50.203c-5.522 0-10 4.477-10 10 0 5.522 4.478 10 10 10h50.203c5.522 0 10-4.478 10-10 0-5.523-4.478-10-10-10zM281.102 295.2h-50.203c-5.522 0-10 4.478-10 10s4.478 10 10 10h50.203c5.522 0 10-4.478 10-10s-4.478-10-10-10zM281.102 393.6h-50.203c-5.522 0-10 4.477-10 10 0 5.522 4.478 10 10 10h50.203c5.522 0 10-4.478 10-10 0-5.523-4.478-10-10-10z" />
    </svg>
    <svg xmlns="http://www.w3.org/2000/svg" width="512" viewBox="0 0 512 512" height="512" id="l">
      <path d="M512 298.674c0-22.124-17.999-40.123-40.122-40.123H451.9l-1.931-11.589c-5.082-30.49-29.033-53.471-58.778-57.905C386.439 118.615 327.625 62.755 256 62.755c-71.622 0-130.435 55.855-135.19 126.301-29.746 4.434-53.697 27.415-58.779 57.907L60.1 258.551H40.122C17.999 258.551 0 276.55 0 298.674v28.455c0 24.873 17.614 45.702 41.021 50.688-.682 39.125 30.839 71.428 70.218 71.428H400.76c39.417 0 70.899-32.352 70.218-71.428C494.386 372.831 512 352.001 512 327.129zM256 82.755c60.323 0 109.986 46.483 115.072 105.511H340.7c-4.969-42.34-41.047-75.307-84.7-75.307s-79.731 32.966-84.7 75.307h-30.372C146.014 129.238 195.677 82.755 256 82.755zm64.54 105.511H191.46c4.827-31.28 31.929-55.307 64.54-55.307s59.712 24.027 64.54 55.307zM81.76 250.25c4.055-24.327 24.897-41.984 49.56-41.984h249.36c24.663 0 45.506 17.657 49.561 41.984l20.081 120.49c.461 2.767.686 5.542.686 8.301H60.993c0-2.759.224-5.535.686-8.302zM20 327.129v-28.455c0-11.096 9.026-20.123 20.122-20.123h16.645L43.549 357.86C30.001 354.205 20 341.815 20 327.129zm380.761 102.116H111.239a50.177 50.177 0 0 1-46.065-30.204h381.65a50.173 50.173 0 0 1-46.063 30.204zM492 327.129c0 14.686-10.001 27.076-23.549 30.731l-13.218-79.309h16.645c11.096 0 20.122 9.027 20.122 20.123z" />
      <path d="M170.653 348.837h170.693c5.522 0 10-4.478 10-10V248.47c0-5.522-4.478-10-10-10H170.653c-5.522 0-10 4.478-10 10v90.367c0 5.522 4.478 10 10 10zm10-90.367h150.693v70.367H180.653z" />
    </svg>
    <svg xmlns="http://www.w3.org/2000/svg" width="512" viewBox="0 0 512 512" height="512" id="m">
      <path d="M411.633 120.49h-10.082V81.828c0-16.54-13.428-30.101-30.122-30.073V10c0-5.523-4.478-10-10-10h-60.245c-5.522 0-10 4.477-10 10v47.611L138.309 68.936c-15.622 1.156-27.859 14.334-27.859 29.999v21.556h-10.082c-5.522 0-10 4.478-10 10v50.204c0 5.522 4.478 10 10 10h15.996l26.698 284.926c1.942 20.74 19.116 36.38 39.947 36.38h145.982c20.831 0 38.005-15.64 39.947-36.38l26.698-284.926h15.996c5.522 0 10-4.478 10-10V130.49c.001-5.522-4.477-10-9.999-10zM311.184 20h40.245v33.149l-40.245 2.981zM130.449 98.935c0-5.25 4.101-9.666 9.336-10.054l230.939-17.106c5.797-.448 10.826 4.147 10.826 10.054v38.662H130.449zM328.991 492H183.009c-10.447 0-19.061-7.844-20.035-18.245l-20.421-217.94c11.128 5.635 20.98 15.205 45.672 15.205 36.53 0 38.309-20.082 67.775-20.082 29.955 0 30.824 20.082 67.775 20.082 24.656 0 34.461-9.527 45.672-15.205l-5.196 55.45h-42.986c-5.522 0-10 4.478-10 10s4.478 10 10 10h41.112l-3.771 40.244h-37.341c-5.522 0-10 4.478-10 10s4.478 10 10 10h35.467l-3.771 40.245h-31.696c-5.522 0-10 4.477-10 10 0 5.522 4.478 10 10 10h29.822l-2.061 22c-.974 10.402-9.587 18.246-20.035 18.246zm42.543-258.447c-20.584 5.943-23.744 17.468-47.759 17.468-29.955 0-30.824-20.082-67.775-20.082-36.53 0-38.309 20.082-67.775 20.082-23.985 0-27.276-11.554-47.758-17.468l-4.016-42.858h239.1zm30.099-62.859H110.367V140.49h291.266z" />
    </svg>
    <svg xmlns="http://www.w3.org/2000/svg" width="512" viewBox="0 0 512.125 512.125" height="512" id="n">
      <path d="M496.801 352.174c-10.293-16.728-24.636-28.512-41.238-34.15 6.904-15.671 6.432-33.488-1.986-47.64a9.994 9.994 0 0 0-5.068-4.245c-11.16-4.206-23.671-3.981-35.209.242a148.256 148.256 0 0 0-2.128-16.201c-1.026-5.427-6.251-8.99-11.685-7.968-5.427 1.026-8.994 6.258-7.968 11.685 3.973 21.003 2.638 42.869-3.86 63.235l-2.245 7.038c-10.734-6.197-22.471-9.631-34.323-10.021V80.419c0-16.542-13.458-30-30-30h-72.046c-4.131-11.676-15.276-20.066-28.35-20.066h-10.419C207.848 13.361 193.199.254 175.547.254c-17.653 0-32.303 13.106-34.73 30.099h-10.418c-13.074 0-24.219 8.39-28.35 20.066H30c-16.542 0-30 13.458-30 30v351.287c0 16.542 13.458 30 30 30h250.113c14.952 30.12 42.455 50.166 72.918 50.164 13.1 0 25.493-3.715 36.279-10.116 8.295 4.931 17.251 8.059 26.71 9.32 72.5 9.668 122.856-90.522 80.781-158.9zm-58.783-68.359c4.018 9.354 2.864 20.807-3.02 30.506-9.117-.262-18.219 1.281-26.963 4.506a149.365 149.365 0 0 0 5.323-30.319c7.699-4.848 16.638-6.554 24.66-4.693zM331.09 80.419v235.972c-11.003 2.876-21.227 8.399-30.165 16.27V70.419h20.165c5.513 0 10 4.487 10 10zM70.165 391.542V70.419h31.882c4.131 11.676 15.276 20.065 28.35 20.065h90.297c13.074 0 24.219-8.39 28.35-20.065h31.882V358.27c-5.441 10.178-9.189 21.432-11.11 33.271H70.165zm60.231-341.189h20.066c5.522 0 10-4.478 10-10v-5.017c0-8.316 6.767-15.082 15.083-15.082s15.082 6.766 15.082 15.082v5.017c0 5.522 4.478 10 10 10h20.066c5.551 0 10.066 4.516 10.066 10.066s-4.516 10.065-10.066 10.065h-90.297c-5.551 0-10.066-4.516-10.066-10.065 0-5.55 4.516-10.066 10.066-10.066zM30 441.707c-5.514 0-10-4.486-10-10V80.419c0-5.514 4.486-10 10-10h20.165v331.122c0 5.523 4.478 10 10 10h208.164c.105 9.933 1.33 19.813 4.178 30.165H30zm388.665 49.544c-8.404-1.121-16.299-4.332-23.465-9.546a10 10 0 0 0-11.759-.005c-8.242 5.985-17.291 9.365-26.896 10.047-55.957 3.952-89.576-80.234-53.041-132.125 20.036-28.46 54.173-34.137 80.761-11.928 3.691 3.202 9.173 3.224 12.885.192 27.607-22.535 63.258-16.692 82.617 14.77 33.558 54.535-6.192 135.92-61.102 128.595z" />
      <path d="M150.462 120.65H110.33c-5.522 0-10 4.478-10 10v40.133c0 5.522 4.478 10 10 10h40.132c5.522 0 10-4.478 10-10V130.65c0-5.523-4.478-10-10-10zm-10 40.133H120.33V140.65h20.132zM150.462 210.948H110.33c-5.522 0-10 4.477-10 10v40.132c0 5.522 4.478 10 10 10h40.132c5.522 0 10-4.478 10-10v-40.132c0-5.523-4.478-10-10-10zm-10 40.132H120.33v-20.132h20.132zM150.462 301.245H110.33c-5.522 0-10 4.478-10 10v40.132c0 5.522 4.478 10 10 10h40.132c5.522 0 10-4.478 10-10v-40.132c0-5.523-4.478-10-10-10zm-10 40.132H120.33v-20.132h20.132zM190.595 160.716h50.165c5.522 0 10-4.477 10-10 0-5.522-4.478-10-10-10h-50.165c-5.522 0-10 4.478-10 10 0 5.523 4.477 10 10 10zM240.76 231.013h-50.165c-5.522 0-10 4.477-10 10 0 5.522 4.478 10 10 10h50.165c5.522 0 10-4.478 10-10s-4.478-10-10-10zM240.76 321.311h-50.165c-5.522 0-10 4.478-10 10 0 5.523 4.478 10 10 10h50.165c5.522 0 10-4.477 10-10 0-5.522-4.478-10-10-10z" />
    </svg>
    <svg xmlns="http://www.w3.org/2000/svg" width="512" viewBox="0 0 512 512" height="512" id="o">
      <path d="M447.658 361.47H331.304l20.35-228.398c1.562-17.536-12.282-32.661-29.882-32.661h-91.454L246.401 20h92.212c5.522 0 10-4.477 10-10s-4.478-10-10-10h-100.41a10 10 0 0 0-9.806 8.039l-18.475 92.371H84.345c-17.575 0-31.446 15.095-29.883 32.662l28.637 321.469c1.389 15.586 14.235 27.339 29.883 27.339h117.303c23.921 18.856 54.091 30.12 86.844 30.12 77.488 0 140.53-63.042 140.53-140.53-.001-5.523-4.478-10-10.001-10zm-185.876 68.2 45.346-37.099v58.626c-17.465-2.178-33.203-9.973-45.346-21.527zm-75.184-68.2c-5.522 0-10 4.478-10 10 0 10.351 1.135 20.44 3.269 30.16H98.465L79.737 191.39h246.641l-15.154 170.08H186.598zm102.514 20-40.004 32.728c-6.124-9.715-10.242-20.816-11.728-32.728zm38.016 11.102 45.346 37.099c-12.144 11.554-27.882 19.349-45.346 21.528zm58.02 21.626-40.004-32.728h51.732c-1.485 11.912-5.603 23.013-11.728 32.728zM321.772 120.41c5.834 0 10.485 4.987 9.96 10.887l-3.572 40.093H216.122l10.197-50.979h95.453zm-237.427 0h121.578l-10.196 50.979H77.955l-3.571-40.092c-.519-5.823 4.046-10.887 9.961-10.887zm18.676 332.357-2.774-31.137h85.613a140.652 140.652 0 0 0 23.775 40.25h-96.653a9.947 9.947 0 0 1-9.961-9.113zM317.128 492c-63.094 0-115.02-48.729-120.119-110.53h20.249c5.037 50.683 47.932 90.367 99.87 90.367 51.951 0 94.835-39.7 99.87-90.367h20.249C432.148 443.271 380.222 492 317.128 492z" />
    </svg>
    <svg xmlns="http://www.w3.org/2000/svg" width="512" viewBox="0 0 511.985 511.985" height="512" id="p">
      <path d="M503.134 66.533 445.452 8.851c-11.802-11.801-31.004-11.801-42.808 0L341.385 70.11l-7.32-7.32c-3.975-3.957-10.299-3.835-14.143 0L93.716 288.997c-15.55-9.235-35.997-7.175-49.36 6.186L2.928 336.61c-5.088 5.09-3.288 13.747 3.418 16.38l33.838 13.28 13.279 33.838a9.998 9.998 0 0 0 5.656 5.656l33.834 13.274 13.276 33.834a9.99 9.99 0 0 0 5.655 5.656l33.834 13.276 13.275 33.832a10 10 0 0 0 16.38 3.419l41.428-41.428c13.362-13.363 15.423-33.81 6.186-49.36l226.206-226.206c3.905-3.905 3.905-10.237 0-14.143l-7.32-7.32 61.259-61.26c11.803-11.8 11.803-31.003.002-42.805zM315.066 95.932l-8.234 112.912a10 10 0 0 0 8.708 10.648l69.123 8.818-174.932 174.931-100.987-100.987zM202.66 453.486l-30.627 30.627-9.29-23.675a9.992 9.992 0 0 0-5.656-5.656l-33.833-13.276-13.276-33.834a9.994 9.994 0 0 0-5.656-5.657L70.487 388.74l-13.279-33.838a9.995 9.995 0 0 0-5.655-5.655l-23.682-9.294 30.628-30.628c8.004-8.004 21.027-8.004 29.031 0l115.13 115.13c8.004 8.004 8.004 21.027 0 29.031zm199.884-243.058-75.077-9.577 7.91-108.463 92.603 92.604zm86.448-115.23-61.259 61.259-72.205-72.205 61.258-61.259c4.005-4.004 10.52-4.005 14.523 0l57.683 57.683c4.004 4.004 4.004 10.518 0 14.522z" />
      <path d="M261.532 306.276a10.002 10.002 0 0 0-2.416-10.233l-29.032-29.031 55.755-7.965c5.468-.781 9.267-5.847 8.485-11.313-.781-5.468-5.851-9.263-11.314-8.485l-75.554 10.793a9.998 9.998 0 0 0-5.657 16.97l29.032 29.031-55.755 7.965c-5.468.781-9.267 5.847-8.485 11.313.778 5.445 5.823 9.268 11.313 8.485l75.554-10.793a9.999 9.999 0 0 0 8.074-6.737z" />
    </svg>
    <svg xmlns="http://www.w3.org/2000/svg" width="512" viewBox="0 0 512 512" height="512" id="q">
      <path d="M466.857 70.286h-80.255c4.322-19.001 11.301-37.654 20.829-55.596C410.973 8.02 406.115 0 398.6 0H113.4c-7.522 0-12.369 8.027-8.832 14.69 9.529 17.943 16.508 36.598 20.829 55.596H45.143C20.189 70.286 0 90.473 0 115.429v70.285c0 24.893 20.251 45.144 45.143 45.144h55.229C86.144 266.119 71.94 302.893 69.278 349.82c-2.871 50.787 8.956 103.477 35.154 156.604a10 10 0 0 0 8.969 5.577H398.6a10 10 0 0 0 8.969-5.577c26.198-53.127 38.025-105.816 35.154-156.605-2.662-46.925-16.865-83.699-31.094-118.96h55.228c24.892 0 45.143-20.251 45.143-45.144V115.43c0-24.893-20.251-45.144-45.143-45.144zM492 115.429c0 13.899-11.241 25.143-25.143 25.143h-83.61c-2.291-16.755-2.347-33.301-.184-50.285h83.794C480.721 90.286 492 101.565 492 115.429zM382.555 20c-16.947 37.519-24.627 79.038-19.475 120.571H148.92c5.044-40.656-2.13-82.174-19.475-120.571zM45.143 90.286h83.794c2.163 16.972 2.108 33.523-.184 50.285h-83.61C31.279 140.571 20 129.292 20 115.429c0-13.899 11.241-25.143 25.143-25.143zm374.86 235.311L256 380.996 91.997 325.597c2.526-15.779 6.393-30.486 10.955-44.536h306.096c4.563 14.051 8.43 28.758 10.955 44.536zM119.674 492c-21.761-45.962-34.003-95.393-30.083-146.106L246 398.728V492zm272.652 0H266v-93.272l156.41-52.834c3.92 50.796-8.358 100.219-30.084 146.106zm9.68-230.939H109.994c3.755-9.989 7.73-19.771 11.944-30.204h268.123c4.163 10.306 8.175 20.176 11.945 30.204zm64.851-50.204H45.142C31.279 210.857 20 199.578 20 185.714v-32.812a44.882 44.882 0 0 0 25.143 7.669H61.5v20.123c0 5.522 4.478 10 10 10s10-4.478 10-10v-20.123H123v20.123c0 5.522 4.478 10 10 10 5.523 0 10-4.478 10-10v-20.123h41.5v20.123c0 5.522 4.477 10 10 10s10-4.478 10-10v-20.123H246v20.123c0 5.522 4.477 10 10 10 5.522 0 10-4.478 10-10v-20.123h41.5v20.123c0 5.522 4.478 10 10 10s10-4.478 10-10v-20.123H369v20.123c0 5.522 4.478 10 10 10s10-4.478 10-10v-20.123h41.5v20.123c0 5.522 4.478 10 10 10s10-4.478 10-10v-20.123h16.357c9.091 0 17.769-2.67 25.143-7.635v32.778c0 13.864-11.279 25.143-25.143 25.143z" />
    </svg>
    <svg xmlns="http://www.w3.org/2000/svg" width="512" viewBox="0 0 512 512" height="512" id="r">
      <path d="M502 0H261.178c-5.512 0-9.984 4.46-10 9.972l-.172 60.314h-50.231c-5.523 0-10 4.478-10 10v90.408H70.401c-5.512 0-9.984 4.46-10 9.972l-.171 60.314H10c-5.523 0-10 4.477-10 10v120.49c0 2.087.652 4.121 1.867 5.818l48.337 67.566V502c0 5.522 4.478 10 10 10h220.819c5.522 0 10-4.478 10-10v-58.517l29.779-99.263c.279-.932.422-1.899.422-2.873v-.041h150.572c5.522 0 10-4.478 10-10v-58.507l29.781-99.272a9.98 9.98 0 0 0 .422-2.873V10C512 4.477 507.522 0 502 0zM271.023 492H70.204v-40.245h200.819zm-50.125-60.245H120.33V381.47h100.568zm80.327-91.876-27.563 91.876h-32.763V371.47c0-5.522-4.478-10-10-10H110.33c-5.522 0-10 4.478-10 10v60.285H65.423L20 368.261V260.979h40.173l-.085 30.135c-.016 5.522 4.449 10.013 9.972 10.028h.029c5.509 0 9.983-4.459 9.999-9.972.059-18.916.279-97.492.285-100.477h40.117v80.367c0 5.523 4.478 10 10 10 5.523 0 10-4.477 10-10v-80.367h40.244v80.367c0 5.523 4.477 10 10 10 5.522 0 10-4.477 10-10v-80.367h40.167c0 2.798-.002 79.572.003 80.43.161 5.782 4.63 9.934 10.077 9.934a9.985 9.985 0 0 0 9.92-11.713v-78.651h40.323v149.186zm110.449-78.818h-90.449v-50.286h90.449zm50.123 60.245H321.225v-40.244h140.572zM492 169.186l-27.562 91.876h-32.764v-60.286c0-5.523-4.478-10-10-10H321.225v-10.081c0-5.522-4.478-10-10-10H210.776V90.286h40.174l-.086 30.135c-.016 5.522 4.448 10.013 9.972 10.028h.029c5.509 0 9.983-4.458 9.999-9.972l.286-100.478h40.116v80.367c0 5.522 4.478 10 10 10s10-4.478 10-10V20h40.244v80.367c0 5.522 4.478 10 10 10s10-4.478 10-10V20h40.167v80.367c0 5.522 4.478 10 10 10s10-4.478 10-10V20H492z" />
    </svg>
  </defs>
  <g transform="rotate(-9.999 2315.154 -1271.802) scale(.24414)" data-name="004-dumbbell.svg">
    <path fill="transparent" d="M0 0h512v512H0z" />
    <use xlink:href="#a" />
  </g>
  <g data-name="001-muscle.svg">
    <g transform="rotate(20 -1056.237 1697.694) scale(.24414)">
      <path fill="transparent" d="M0 0h512v512H0z" />
      <use xlink:href="#b" />
    </g>
    <g transform="rotate(20 395.612 1441.705) scale(.24414)">
      <path fill="transparent" d="M0 0h512v512H0z" />
      <use xlink:href="#b" />
    </g>
    <g transform="rotate(20 -1312.226 245.846) scale(.24414)">
      <path fill="transparent" d="M0 0h512v512H0z" />
      <use xlink:href="#b" />
    </g>
    <g transform="rotate(20 139.622 -10.143) scale(.24414)">
      <path fill="transparent" d="M0 0h512v512H0z" />
      <use xlink:href="#b" />
    </g>
  </g>
  <g transform="rotate(-2.997 5740.022 -4555.2) scale(.24414)" data-name="015-sneakers.svg">
    <path fill="transparent" d="M0 0h512v512H0z" />
    <use xlink:href="#c" />
  </g>
  <g data-name="021-smartwatch.svg">
    <g transform="rotate(19 -1284.245 558.188) scale(.24414)">
      <path fill="transparent" d="M0 0h512v512H0z" />
      <use xlink:href="#d" />
    </g>
    <g transform="rotate(19 245.551 302.2) scale(.24414)">
      <path fill="transparent" d="M0 0h512v512H0z" />
      <use xlink:href="#d" />
    </g>
  </g>
  <g transform="rotate(-25 840.174 172.95) scale(.24414)" data-name="029-vitamin.svg">
    <path fill="transparent" d="M0 0h512v512H0z" />
    <use xlink:href="#e" />
  </g>
  <g transform="rotate(-6.999 1672.055 -1143.939) scale(.24414)" data-name="011-boxing gloves.svg">
    <path fill="transparent" d="M0 0h512v512H0z" />
    <use xlink:href="#f" />
  </g>
  <g data-name="049-whistle.svg">
    <g transform="rotate(50 74.075 604.369) scale(.24414)">
      <path fill="transparent" d="M0 0h512v512H0z" />
      <use xlink:href="#g" />
    </g>
    <g transform="rotate(50 -181.923 55.375) scale(.24414)">
      <path fill="transparent" d="M0 0h512v512H0z" />
      <use xlink:href="#g" />
    </g>
  </g>
  <g transform="rotate(-29 609.295 -410.074) scale(.24414)" data-name="014-carrot.svg">
    <path fill="transparent" d="M0 0h512v512H0z" />
    <use xlink:href="#h" />
  </g>
  <g data-name="028-yoga ball.svg">
    <g transform="translate(278.42 478.419) scale(.24414)">
      <path fill="transparent" d="M0 0h512v512H0z" />
      <use xlink:href="#i" />
    </g>
    <g transform="translate(278.42 -33.581) scale(.24414)">
      <path fill="transparent" d="M0 0h512v512H0z" />
      <use xlink:href="#i" />
    </g>
  </g>
  <g transform="rotate(28 114.156 785.856) scale(.24414)" data-name="040-tank top.svg">
    <path fill="transparent" d="M0 0h512v512H0z" />
    <use xlink:href="#j" />
  </g>
  <g data-name="032-roller.svg">
    <g transform="rotate(-30 471.636 -751.913) scale(.24414)">
      <path fill="transparent" d="M0 0h512v512H0z" />
      <use xlink:href="#k" />
    </g>
    <g transform="rotate(-30 215.64 203.492) scale(.24414)">
      <path fill="transparent" d="M0 0h512v512H0z" />
      <use xlink:href="#k" />
    </g>
  </g>
  <g transform="rotate(-6.999 726.684 -559.138) scale(.24414)" data-name="024-gym bag.svg">
    <path fill="transparent" d="M0 0h512v512H0z" />
    <use xlink:href="#l" />
  </g>
  <g transform="rotate(-32 332.537 -288.303) scale(.24414)" data-name="044-protein shake.svg">
    <path fill="transparent" d="M0 0h512v512H0z" />
    <use xlink:href="#m" />
  </g>
  <g transform="rotate(13.999 -756.328 385.31) scale(.24414)" data-name="012-nutrition.svg">
    <path fill="transparent" d="M0 0h512v512H0z" />
    <use xlink:href="#n" />
  </g>
  <g transform="rotate(-4.998 3840.287 -1384.383) scale(.24414)" data-name="010-orange juice.svg">
    <path fill="transparent" d="M0 0h512v512H0z" />
    <use xlink:href="#o" />
  </g>
  <g data-name="047-energy bar.svg">
    <g transform="rotate(-33 977.267 20.068) scale(.24414)">
      <path fill="transparent" d="M0 0h512v512H0z" />
      <use xlink:href="#p" />
    </g>
    <g transform="rotate(-33 113.025 -235.928) scale(.24414)">
      <path fill="transparent" d="M0 0h512v512H0z" />
      <use xlink:href="#p" />
    </g>
  </g>
  <g data-name="034-slim.svg">
    <g transform="rotate(37 -194.105 799.732) scale(.24414)">
      <path fill="transparent" d="M0 0h512v512H0z" />
      <use xlink:href="#q" />
    </g>
    <g transform="rotate(37 -450.102 34.629) scale(.24414)">
      <path fill="transparent" d="M0 0h512v512H0z" />
      <use xlink:href="#q" />
    </g>
  </g>
  <g data-name="036-gloves.svg">
    <g transform="rotate(9.999 -2146.78 2642.57) scale(.24414)">
      <path fill="transparent" d="M0 0h512v512H0z" />
      <use xlink:href="#r" />
    </g>
    <g transform="rotate(9.999 779.313 2386.613) scale(.24414)">
      <path fill="transparent" d="M0 0h512v512H0z" />
      <use xlink:href="#r" />
    </g>
    <g transform="rotate(9.999 -2402.738 -283.524) scale(.24414)">
      <path fill="transparent" d="M0 0h512v512H0z" />
      <use xlink:href="#r" />
    </g>
    <g transform="rotate(9.999 523.356 -539.48) scale(.24414)">
      <path fill="transparent" d="M0 0h512v512H0z" />
      <use xlink:href="#r" />
    </g>
  </g>
</svg>
