<svg xmlns="http://www.w3.org/2000/svg" xmlns:xlink="http://www.w3.org/1999/xlink" width="512" height="512" viewBox="0 0 512 512">
  <defs>
    <svg xmlns="http://www.w3.org/2000/svg" width="512" viewBox="0 0 512 512" height="512" id="a">
      <path d="M509.071 2.929A10.002 10.002 0 0 0 498.363.685L380.875 46.552a10 10 0 0 0-1.463 17.917l33.886 20.09-26.026 26.026-36.122-36.122a10 10 0 0 0-13.688-.427l-16.601 14.648c-28.531-15.741-59.422-25.879-91.927-30.159-46.846-6.168-94.107.396-137.254 18.988l-3.415-5.124c-4.806-7.197-12.127-12.092-20.614-13.783-8.487-1.688-17.125.026-24.322 4.831-7.197 4.806-12.092 12.127-13.783 20.614-1.69 8.487.025 17.125 4.826 24.314l19.243 28.876c6.191 9.291 16.475 14.386 26.982 14.386a32.27 32.27 0 0 0 5.263-.431l41.371 108.337-29.166 25.737c-16.863 14.879-26.552 35.963-27.283 59.368-.699 22.379 6.88 44.324 20.997 61.441l-13.097 13.097-22.083-10.673a9.999 9.999 0 0 0-11.423 1.932L2.929 452.681a10 10 0 0 0 2.719 16.074l25.345 12.25 12.25 25.345a9.998 9.998 0 0 0 16.074 2.719l42.247-42.247a10 10 0 0 0 1.932-11.423l-10.673-22.083 13.307-13.307c16.05 12.459 36.01 19.358 56.494 19.358.946 0 1.896-.015 2.844-.044 23.405-.731 44.489-10.42 59.368-27.283l24.964-28.292 111.014 42.393c-1.954 12.174 3.139 25.027 13.943 32.241l28.868 19.237a32.21 32.21 0 0 0 17.943 5.445c10.469-.001 20.755-5.056 26.993-14.397 9.92-14.857 5.904-35.016-8.96-44.941l-5.116-3.409c18.591-43.147 25.154-90.409 18.988-137.254-4.407-33.476-15.01-65.199-31.541-94.4l14.137-16.022a10 10 0 0 0-.427-13.688l-34.229-34.229 26.026-26.026 20.09 33.886a10 10 0 0 0 17.917-1.463l45.867-117.488a9.991 9.991 0 0 0-2.242-10.704zm-165.42 92.319 29.479 29.479-183.217 183.217c-6.092-3.607-13.061-5.531-20.327-5.531-1.507 0-3.001.083-4.477.246l-14.246-37.304zM155.444 328.271c3.899-3.899 9.021-5.849 14.142-5.849s10.243 1.949 14.142 5.849c7.798 7.798 7.798 20.486 0 28.284-7.798 7.799-20.486 7.799-28.284 0-7.798-7.797-7.798-20.486 0-28.284zm-85.185-202.12L51.011 97.266a12.317 12.317 0 0 1-1.849-9.307 12.322 12.322 0 0 1 5.275-7.889 12.307 12.307 0 0 1 9.308-1.849 12.31 12.31 0 0 1 7.883 5.267l8.11 12.169a10 10 0 0 0 12.58 3.503c41.762-19.654 88.101-26.85 134.007-20.806 27.618 3.636 53.971 11.851 78.524 24.459l-20.135 17.766a215.606 215.606 0 0 0-61.72-17.745c-46.86-6.167-95.239 3.467-136.234 27.136-5.647 3.268-12.897 1.59-16.501-3.819zm33.955 17.042c35.867-18.743 75.847-25.838 116.169-20.53a195.73 195.73 0 0 1 47.748 12.547L143.246 245.404zM90.772 345.262c.557-17.828 7.846-33.808 20.525-44.995l23.553-20.783 11.573 30.306a40.524 40.524 0 0 0-5.122 4.338c-7.555 7.555-11.716 17.6-11.716 28.285 0 7.265 1.925 14.234 5.531 20.327l-29.114 29.114c-10.274-13.161-15.757-29.717-15.23-46.592zM55.127 484.978l-7.642-15.811a9.999 9.999 0 0 0-4.652-4.652l-15.811-7.642 27.271-27.271 18.947 9.157 9.158 18.947zM209.84 398.81c-11.187 12.679-27.167 19.968-44.995 20.525-15.969.49-31.643-4.384-44.429-13.608l28.844-28.844c6.092 3.607 13.061 5.531 20.327 5.531 10.685 0 20.729-4.161 28.285-11.716a40.524 40.524 0 0 0 4.338-5.122l27.641 10.556zm165.816-157.695a195.537 195.537 0 0 1 13.68 50.502c5.305 40.296-1.792 80.295-20.533 116.168l-104.872-40.048zm57.99 44.561c6.043 45.906-1.151 92.245-20.806 134.007a10.001 10.001 0 0 0 3.503 12.58l12.161 8.104c5.686 3.796 7.222 11.511 3.426 17.196-3.797 5.686-11.511 7.223-17.205 3.42l-28.868-19.237c-5.55-3.706-7.162-11.304-3.593-16.938.081-.128.159-.258.234-.389 23.659-41.388 32.88-88.213 26.667-135.413a215.45 215.45 0 0 0-18.976-64.363l17.674-20.031c13.359 25.259 22.018 52.467 25.783 81.064zm-18.787-119.22L243.98 360.118l-34.64-13.228c.163-1.476.246-2.97.246-4.477 0-7.265-1.925-14.234-5.531-20.327L387.273 138.87zm39.416-61.709-16.198-27.322a9.996 9.996 0 0 0-3.502-3.502l-27.322-16.198L484.39 27.61z" />
    </svg>
    <svg xmlns="http://www.w3.org/2000/svg" width="512" viewBox="0 0 512 512" height="512" id="b">
      <path d="M341.87 324.832c-70.762 9.739-105.699-14.737-142.686-40.652-34.569-24.22-70.311-49.267-133.661-39.868a10 10 0 0 0-7.704 5.905c-12.266 28.217-15.84 59.192-10.336 89.577 5.635 31.109 20.475 59.414 42.915 81.854 30.217 30.217 69.909 45.325 109.602 45.325 39.692 0 79.384-15.108 109.602-45.325 23.316-23.317 38.361-52.829 43.508-85.347a10 10 0 0 0-11.24-11.469zm-46.411 82.674c-26.321 26.321-60.884 39.48-95.459 39.477-34.566-.003-69.145-13.162-95.459-39.477-38.178-38.177-49.862-94.208-30.501-144.152 51.904-6.07 80.606 14.042 113.668 37.206 34.488 24.164 73.299 51.35 142.937 45.626-6.021 23.17-18.035 44.169-35.186 61.32z" />
      <path d="m509.071 66.615-63.64-63.639a9.999 9.999 0 0 0-14.504.382l-59.938 66.598-10.411-10.411c-3.905-3.905-10.237-3.905-14.143 0s-3.905 10.237 0 14.143l-26.747 26.748c-20.278 20.277-32.96 28.884-61.565 20.22-70.813-21.446-147.273-2.299-199.545 49.971C20.804 208.401 0 258.625 0 312.047s20.804 103.646 58.579 141.421c38.995 38.995 90.2 58.485 141.421 58.485 51.209 0 102.436-19.5 141.421-58.485 52.271-52.271 71.419-128.732 49.972-199.545-8.663-28.604-.058-41.288 20.22-61.565l26.747-26.747c3.905 3.905 10.237 3.905 14.143 0s3.905-10.237 0-14.143l-10.411-10.411 66.598-59.939a10 10 0 0 0 .381-14.503zM397.47 178.216c-20.956 20.956-37.319 41.554-25.219 81.505 19.305 63.74 2.073 132.561-44.973 179.605-70.181 70.183-184.375 70.182-254.558 0C38.724 405.329 20 360.127 20 312.047s18.724-93.282 52.721-127.279c34.299-34.299 80.171-52.751 127.211-52.751a180.62 180.62 0 0 1 52.393 7.779c39.952 12.102 60.548-4.263 81.505-25.219l26.747-26.748 63.64 63.64zm30.46-51.32-42.779-42.779 53.591-59.546 48.734 48.733z" />
      <path d="M276.316 275.91c19.299 0 35-15.701 35-35s-15.701-35-35-35-35 15.701-35 35 15.702 35 35 35zm0-50c8.271 0 15 6.729 15 15s-6.729 15-15 15-15-6.729-15-15 6.729-15 15-15zM187.12 214.938c5.523 0 10-4.477 10-10s-4.477-10-10-10h-.007c-5.523 0-9.997 4.477-9.997 10s4.481 10 10.004 10zM139.12 340.438h-.007c-5.523 0-9.997 4.477-9.997 10s4.481 10 10.004 10 10-4.477 10-10-4.477-10-10-10zM221.62 380.938h-.007c-5.523 0-9.997 4.477-9.997 10s4.481 10 10.004 10 10-4.477 10-10-4.477-10-10-10z" />
    </svg>
    <svg xmlns="http://www.w3.org/2000/svg" width="512" viewBox="0 0 512 512" height="512" id="c">
      <path d="M446 53.5c-15.43 0-28.383 10.81-31.686 25.253-47.863 10.395-89.027.315-122.541-29.995A37.574 37.574 0 0 0 293.5 37.5C293.5 16.822 276.678 0 256 0s-37.5 16.822-37.5 37.5c0 3.834.588 7.633 1.727 11.258-33.516 30.311-74.682 40.389-122.541 29.995C94.383 64.31 81.43 53.5 66 53.5c-17.921 0-32.5 14.579-32.5 32.5 0 15.302 10.396 28.071 24.658 31.559L76 160.973v151.478c0 108.974 63.328 179.791 178.318 199.406a9.999 9.999 0 0 0 3.364 0C372.672 492.242 436 421.425 436 312.451V160.973l17.842-43.415C468.104 114.071 478.5 101.302 478.5 86c0-17.921-14.579-32.5-32.5-32.5zm-30 247H266V169h150zm-170 0H96V169h150zm-149.876 20H246v169.422C176.584 475.339 99.605 433.563 96.124 320.5zM266 489.922V320.5h149.876C412.395 433.563 335.416 475.339 266 489.922zm180.428-391.43a9.998 9.998 0 0 0-8.918 6.193L419.298 149H92.702L74.49 104.686a9.996 9.996 0 0 0-8.918-6.193A12.443 12.443 0 0 1 53.5 86c0-6.893 5.607-12.5 12.5-12.5S78.5 79.107 78.5 86c0 .161-.005.32-.011.479a10 10 0 0 0 7.533 10.07c28.035 7.114 54.681 8.043 79.192 2.765 27.546-5.933 52.435-19.715 73.976-40.966a10.001 10.001 0 0 0 1.638-12.12 17.47 17.47 0 0 1-2.328-8.729c0-9.649 7.851-17.5 17.5-17.5s17.5 7.851 17.5 17.5c0 3.073-.805 6.092-2.328 8.729a10 10 0 0 0 1.638 12.12c21.541 21.251 46.43 35.033 73.976 40.966 24.514 5.278 51.158 4.35 79.192-2.765a10 10 0 0 0 7.533-10.07A12.66 12.66 0 0 1 433.5 86c0-6.893 5.607-12.5 12.5-12.5s12.5 5.607 12.5 12.5c0 6.78-5.303 12.268-12.072 12.492z" />
      <path d="M256.004 89.5h-.008c-5.522 0-9.996 4.478-9.996 10s4.481 10 10.004 10 10-4.478 10-10-4.478-10-10-10zM198.392 111.251h-.008c-5.522 0-9.996 4.478-9.996 10s4.481 10 10.004 10 10-4.478 10-10-4.478-10-10-10zM313.608 111.251c-5.522 0-10 4.478-10 10s4.478 10 10 10h.008c5.522 0 9.996-4.478 9.996-10s-4.481-10-10.004-10zM148.5 244.75H161v12.5c0 5.522 4.478 10 10 10s10-4.478 10-10v-12.5h12.5c5.522 0 10-4.478 10-10s-4.478-10-10-10H181v-12.5c0-5.522-4.478-10-10-10s-10 4.478-10 10v12.5h-12.5c-5.522 0-10 4.478-10 10s4.478 10 10 10zM311.004 365.496h-.008c-5.522 0-9.996 4.478-9.996 10s4.481 10 10.004 10 10-4.478 10-10-4.478-10-10-10zM351.003 365.496h-.007c-5.522 0-9.997 4.478-9.997 10s4.481 10 10.004 10 10-4.478 10-10-4.478-10-10-10zM311.004 405.496h-.008c-5.522 0-9.996 4.478-9.996 10s4.481 10 10.004 10 10-4.478 10-10-4.478-10-10-10zM341 267.25c17.921 0 32.5-14.579 32.5-32.5s-14.579-32.5-32.5-32.5-32.5 14.579-32.5 32.5 14.579 32.5 32.5 32.5zm0-45c6.893 0 12.5 5.607 12.5 12.5s-5.607 12.5-12.5 12.5-12.5-5.607-12.5-12.5 5.607-12.5 12.5-12.5zM200.996 385.496h.008c5.522 0 9.996-4.478 9.996-10s-4.481-10-10.004-10-10 4.478-10 10 4.478 10 10 10zM160.997 365.496c-5.522 0-10 4.478-10 10s4.478 10 10 10h.007c5.522 0 9.997-4.478 9.997-10s-4.481-10-10.004-10zM200.996 405.496c-5.522 0-10 4.478-10 10s4.478 10 10 10h.008c5.522 0 9.996-4.478 9.996-10s-4.481-10-10.004-10z" />
    </svg>
    <svg xmlns="http://www.w3.org/2000/svg" width="512" viewBox="0 0 512 512" height="512" id="d">
      <path d="M431 222c-5.198 0-10.231.725-15.001 2.079V55c0-5.523-4.478-10-10-10-19.299 0-35-15.701-35-35 0-5.523-4.478-10-10-10H151c-5.523 0-10 4.477-10 10 0 19.299-15.701 35-35 35-5.523 0-10 4.477-10 10v169.079A54.858 54.858 0 0 0 81 222c-30.327 0-55 24.673-55 55 0 26.914 19.429 49.374 45 54.089V502c0 5.523 4.477 10 10 10h45a10 10 0 0 0 8.321-4.453L161.352 467h189.296l27.032 40.547A9.999 9.999 0 0 0 386 512h45c5.522 0 10-4.477 10-10V331.089c25.57-4.715 45-27.175 45-54.089 0-30.327-24.673-55-55-55zM136 367c0-19.299 15.701-35 35-35h170c19.299 0 35 15.701 35 35v15H136zm195-55H181V93.52a100.593 100.593 0 0 0 28.52-28.521h92.96A100.58 100.58 0 0 0 331 93.52zM116 64.089c22.328-4.117 39.972-21.761 44.089-44.089H351.91c4.117 22.328 21.762 39.972 44.089 44.089v170.516C383.792 244.701 376 259.958 376 277v47.604c-7.071-5.847-15.622-9.964-25-11.693V87.952a9.999 9.999 0 0 0-4.991-8.655 80.496 80.496 0 0 1-29.307-29.306A10 10 0 0 0 308.047 45H203.952a9.999 9.999 0 0 0-8.655 4.991 80.478 80.478 0 0 1-29.306 29.306A10 10 0 0 0 161 87.952v224.959c-9.378 1.73-17.93 5.846-25 11.693V277c0-17.043-7.792-32.3-20-42.396zM431 312c-5.522 0-10 4.477-10 10v170h-29.648l-27.032-40.547A9.999 9.999 0 0 0 356 447H156a9.998 9.998 0 0 0-8.32 4.453L120.648 492H91V322c0-5.523-4.477-10-10-10-19.299 0-35-15.701-35-35s15.701-35 35-35 35 15.701 35 35v115c0 5.523 4.477 10 10 10h260c5.522 0 10-4.477 10-10V277c0-19.299 15.701-35 35-35s35 15.701 35 35-15.701 35-35 35z" />
      <path d="M226.01 149.219H226c-5.523 0-9.995 4.477-9.995 10s4.482 10 10.005 10 10-4.477 10-10-4.477-10-10-10zM226.01 259.218H226c-5.523 0-9.995 4.477-9.995 10s4.482 10 10.005 10 10-4.477 10-10-4.477-10-10-10zM256.005 94.219h-.011c-5.523 0-9.995 4.477-9.995 10s4.482 10 10.005 10c5.522 0 10-4.477 10-10s-4.476-10-9.999-10zM285.999 149.219h-.011c-5.522 0-9.995 4.477-9.995 10s4.483 10 10.006 10 10-4.477 10-10-4.477-10-10-10zM256.005 204.218h-.011c-5.523 0-9.995 4.477-9.995 10s4.482 10 10.005 10c5.522 0 10-4.477 10-10s-4.476-10-9.999-10zM285.999 259.218h-.011c-5.522 0-9.995 4.477-9.995 10s4.483 10 10.006 10 10-4.477 10-10-4.477-10-10-10zM81 267h-.011c-5.523 0-9.995 4.477-9.995 10S75.477 287 81 287s10-4.477 10-10-4.477-10-10-10zM431.011 267h-.012c-5.522 0-9.994 4.477-9.994 10s4.483 10 10.006 10 10-4.477 10-10-4.478-10-10-10z" />
    </svg>
    <svg xmlns="http://www.w3.org/2000/svg" width="512" viewBox="0 0 512.003 512.003" height="512" id="e">
      <path d="M425.219 320.014c.52-4.943.784-9.971.784-15.013 0-50.043-25.744-97.308-70.632-129.676-3.365-2.427-6.558-4.624-9.374-6.562-14.81-10.192-20.578-14.163-21.401-27.27a9.995 9.995 0 0 0 4.903-8.604c0-4.367-2.801-8.081-6.704-9.443 1.411-10.87 7.834-20.138 15.136-30.675 9.881-14.258 21.08-30.418 21.08-53.66a10 10 0 0 0-7.078-9.563c-3.386-1.034-4.646-2.592-7.407-6.005a122.01 122.01 0 0 0-1.967-2.389c-4.301-5.058-10.191-11.984-21.254-14.083-11.855-2.244-18.808 3.029-23.41 6.521-3.271 2.482-6.184 3.371-9.74 2.964-.063-.008-.128-.014-.192-.021-3.795-.357-5.628-1.981-9.413-5.619l-.098-.095C273.926 6.472 267.727.516 256.44.032c-11.548-.504-18.167 5.361-22.61 9.295-3.652 3.236-5.271 4.572-8.851 4.537-3.505.008-5.134-1.301-8.853-4.594-4.379-3.877-11.008-9.755-22.545-9.238-11.288.484-17.486 6.44-22.014 10.79l-.097.094c-3.785 3.638-5.618 5.262-9.413 5.619-.064.007-.129.013-.192.021-3.56.406-6.469-.482-9.741-2.965-4.6-3.491-11.548-8.764-23.408-6.52-11.063 2.099-16.954 9.025-21.254 14.082a122.24 122.24 0 0 0-1.969 2.39c-2.761 3.413-4.021 4.971-7.405 6.005a10 10 0 0 0-7.078 9.563c0 23.242 11.199 39.402 21.079 53.659 7.302 10.537 13.725 19.806 15.136 30.676-3.903 1.362-6.704 5.076-6.704 9.443 0 4.412 2.857 8.156 6.822 9.484-1.026 12.411-6.864 16.43-21.338 26.39-2.816 1.938-6.009 4.136-9.374 6.562C51.744 207.694 26 254.959 26 305.001c0 45.083 21.215 85.464 59.737 113.702 36.33 26.631 86.144 41.298 140.263 41.298 3.189 0 6.402-.052 9.593-.154 18.18 18.693 43.589 30.322 71.663 30.322 5.024 0 10.067-.383 15.041-1.139 17.312 14.342 39.518 22.972 63.703 22.972 55.141 0 100-44.859 100-100 .001-41.228-25.078-76.708-60.781-91.988zM256.647 172.533c-4.803 4.8-12.613 4.802-17.412 0-3.955-3.954-5.615-14.883-6.436-23.847 8.964.82 19.893 2.48 23.847 6.436 4.801 4.8 4.8 12.611.001 17.411zm-69.289 0c-4.799-4.801-4.8-12.612 0-17.412 3.954-3.955 14.883-5.615 23.847-6.436-.82 8.965-2.481 19.893-6.436 23.847-4.798 4.802-12.61 4.801-17.411.001zm-40.069-49.644c-.846-9.381-4.013-17.499-8.142-25h171.727c-4.129 7.501-7.296 15.619-8.143 25zm-35.89-77.572c4.463-2.791 7.253-6.239 9.644-9.195.534-.66 1.078-1.333 1.655-2.013 3.691-4.34 5.801-6.641 9.745-7.388 3.01-.573 3.976.058 7.591 2.8 7.31 5.548 15.384 7.873 24.004 6.916 10.841-1.056 16.88-6.86 21.293-11.103l.096-.092c3.753-3.606 5.419-5.075 9.014-5.23 3.31-.146 4.751.977 8.494 4.29 4.56 4.037 10.797 9.563 21.938 9.562h.213c11.205 0 17.445-5.526 22.066-9.619 3.679-3.256 5.117-4.391 8.43-4.231 3.594.154 5.26 1.623 9.012 5.229l.097.093c4.413 4.242 10.452 10.047 21.293 11.103 8.615.956 16.694-1.367 24.003-6.915 3.618-2.745 4.587-3.375 7.593-2.801 3.943.747 6.053 3.047 9.745 7.389.576.679 1.12 1.352 1.653 2.012 2.392 2.956 5.183 6.405 9.646 9.195-1.582 12.461-7.776 22.445-14.719 32.572H126.118c-6.944-10.129-13.139-20.113-14.719-32.574zM97.563 402.573c-33.731-24.727-51.562-58.467-51.562-97.571 0-43.537 22.718-84.89 62.328-113.453 3.188-2.299 6.15-4.338 9.016-6.31 15.752-10.841 28.41-19.553 29.999-42.35h24.109c-10.804 12.681-10.216 31.805 1.763 43.785l.001.001c6.299 6.299 14.573 9.448 22.848 9.448s16.549-3.149 22.848-9.449a27.468 27.468 0 0 0 3.089-3.711 27.41 27.41 0 0 0 3.09 3.712c6.3 6.3 14.572 9.448 22.848 9.448 8.273 0 16.55-3.15 22.848-9.448l.001-.001c11.979-11.98 12.567-31.104 1.763-43.785h32.108c1.589 22.797 14.247 31.509 29.998 42.35 2.865 1.972 5.828 4.011 9.016 6.31 39.611 28.563 62.329 69.915 62.329 113.453 0 2.997-.108 5.986-.321 8.946a100.114 100.114 0 0 0-19.68-1.945c-5.094 0-10.101.383-14.993 1.122a99.838 99.838 0 0 0-63.751-22.955c-55.141 0-100 44.859-100 100 0 18.11 4.839 35.111 13.292 49.778-47.763-.933-91.264-14.12-122.987-37.375zm129.694-12.403c0-44.112 35.888-80 80-80a79.89 79.89 0 0 1 38.929 10.103c-35.385 15.418-60.185 50.732-60.185 91.73 0 21.661 6.923 41.734 18.671 58.126-42.92-1.37-77.415-36.712-77.415-79.959zm158.744 101.833c-44.112 0-80-35.888-80-80s35.888-80 80-80 80 35.888 80 80-35.887 80-80 80z" />
      <path d="M393.073 371.698a10.003 10.003 0 0 0-14.142 0l-33.233 33.234c-3.905 3.905-3.905 10.237 0 14.143l33.233 33.233c1.953 1.953 4.512 2.929 7.071 2.929s5.118-.977 7.071-2.929l33.234-33.233a10.001 10.001 0 0 0 0-14.142zm-7.072 59.396-19.091-19.091 19.091-19.092 19.092 19.092z" />
    </svg>
    <svg xmlns="http://www.w3.org/2000/svg" width="512" viewBox="0 0 512 512" height="512" id="f">
      <path d="M90 386.998c-19.299 0-35 15.701-35 35s15.701 35 35 35 35-15.701 35-35-15.701-35-35-35zm0 50c-8.271 0-15-6.729-15-15s6.729-15 15-15 15 6.729 15 15-6.729 15-15 15z" />
      <path d="M422 331.998a89.657 89.657 0 0 0-28.881 4.752l-68.169-68.17a10.001 10.001 0 0 0-14.142 0l-7.694 7.694-115.457-115.457c8.466-9.933 14.869-24.344 18.17-35.08 2.958-9.616 1.325-18.94-.116-27.167-.573-3.269-1.114-6.356-1.358-9.303-.239-2.88-.147-5.955-.051-9.21.223-7.535.476-16.076-3.468-24.633-3.835-8.32-10.752-13.11-16.855-17.337-3.091-2.141-6.012-4.163-8.306-6.457-2.614-2.615-4.984-5.53-7.494-8.616-5.88-7.231-12.544-15.428-23.064-19.365-8.121-3.04-16.038-2.615-23.021-2.239-2.922.158-5.683.305-8.307.206-2.671-.101-5.446-.408-8.384-.734C97.737.03 89.047-.933 80.14 1.846c-12.038 3.758-22.289 7.52-33.687 17.766l-.091-.092a10.001 10.001 0 0 0-14.142 0c-42.888 42.889-42.888 112.675 0 155.564C45.701 188.567 62.104 198.13 80 203.176V332.55c-44.938 4.99-80 43.201-80 89.448 0 49.626 40.374 90 90 90 37.219 0 69.234-22.71 82.916-55h166.169c13.682 32.29 45.696 55 82.916 55 49.626 0 90-40.374 90-90s-40.375-90-90.001-90zm-48.013 13.905c-15.434 9.773-27.705 24.108-34.902 41.095h-118.41l97.204-97.204zm-102.693-37.809L159.025 195.826a109.604 109.604 0 0 0 21.369-13.987l108.577 108.578zM86.098 20.938c4.908-1.53 10.556-.905 17.098-.178 3.164.351 6.436.714 9.836.843 3.54.134 6.893-.046 10.134-.221 5.756-.31 10.729-.577 14.937.998 5.438 2.036 9.664 7.233 14.558 13.253 2.717 3.342 5.527 6.798 8.869 10.14 3.569 3.568 7.55 6.325 11.062 8.758 4.577 3.17 8.53 5.907 10.079 9.267 1.977 4.289 1.821 9.562 1.64 15.669-.109 3.664-.221 7.453.111 11.454.319 3.851.965 7.536 1.589 11.102 1.205 6.876 2.245 12.814.7 17.836-3.102 10.089-8.216 20.31-13.266 26.748L60.616 33.776c7.398-6.47 14.005-9.256 25.482-12.838zM39.68 41.124 166.175 167.62c-35.237 28.124-87.363 25.774-119.814-6.678-32.7-32.701-34.927-84.513-6.681-119.818zm69.289 166.174c10.107.085 20.02-1.18 29.53-3.714l118.653 118.652-64.762 64.762h-19.474C160.477 357.64 132.882 336.202 100 332.55V206.854c2.967.267 5.959.416 8.969.444zM90 491.998c-38.598 0-70-31.402-70-70s31.402-70 70-70 70 31.402 70 70-31.402 70-70 70zm88.75-55c.822-4.879 1.25-9.891 1.25-15s-.428-10.121-1.25-15h154.5c-.822 4.879-1.25 9.891-1.25 15s.428 10.121 1.25 15zm243.25 55c-38.598 0-70-31.402-70-70s31.402-70 70-70 70 31.402 70 70-31.402 70-70 70z" />
      <path d="M422 386.998c-19.299 0-35 15.701-35 35s15.701 35 35 35 35-15.701 35-35-15.701-35-35-35zm0 50c-8.271 0-15-6.729-15-15s6.729-15 15-15 15 6.729 15 15-6.729 15-15 15zM300.126 366.173c5.523 0 10-4.478 10-10s-4.477-10-10-10h-.007c-5.523 0-9.997 4.478-9.997 10s4.481 10 10.004 10z" />
    </svg>
    <svg xmlns="http://www.w3.org/2000/svg" width="512" viewBox="0 0 512 512" height="512" id="g">
      <path d="M386.127 74.216C355.04 37.428 310.788 11.846 258.154.235a10.036 10.036 0 0 0-4.309 0c-52.633 11.611-96.886 37.194-127.973 73.982C93.246 112.827 76 163.082 76 219.55V377c0 68.131 66.869 135 135 135 5.523 0 10-4.478 10-10V309.55c0-5.522-4.477-10-10-10h-30c-19.299 0-35-15.701-35-35s15.701-35 35-35h36.279c4.152 22.206 16.129 40.331 33.692 50.548a10 10 0 0 0 10.057 0c17.563-10.217 29.54-28.342 33.692-50.548H331c19.299 0 35 15.701 35 35s-15.701 35-35 35h-30c-5.523 0-10 4.478-10 10V502c0 5.522 4.477 10 10 10 68.131 0 135-66.869 135-135V219.55c0-56.468-17.246-106.724-49.873-145.334zM126 264.55c0 30.327 24.673 55 55 55h20v171.865C147.444 485.21 96 430.628 96 377V219.55c0-81.389 38.069-145.183 104.405-179.302l14.689 169.302H181c-30.327 0-55 24.673-55 55zm130-5.153c-11.329-8.885-18.534-23.381-20.038-40.712L219.72 31.476c11.411-4.542 23.517-8.301 36.28-11.226 12.764 2.925 24.87 6.684 36.281 11.226l-16.244 187.209c-1.504 17.332-8.709 31.829-20.037 40.712zM416 377c0 53.628-51.444 108.21-105 114.415V319.55h20c30.327 0 55-24.673 55-55s-24.673-55-55-55h-34.095l14.69-169.302C377.931 74.367 416 138.161 416 219.55z" />
      <path d="M171 364.549c5.523 0 10-4.478 10-10s-4.477-10-10-10h-.007c-5.523 0-9.997 4.478-9.997 10s4.481 10 10.004 10zM171 439.549c5.523 0 10-4.478 10-10s-4.477-10-10-10h-.007c-5.523 0-9.997 4.478-9.997 10s4.481 10 10.004 10zM136 402.05c5.523 0 10-4.478 10-10s-4.477-10-10-10h-.007c-5.523 0-9.997 4.478-9.997 10s4.481 10 10.004 10zM341 344.549c-5.523 0-10 4.478-10 10s4.477 10 10 10h.007c5.523 0 9.997-4.478 9.997-10s-4.481-10-10.004-10zM341 419.549c-5.523 0-10 4.478-10 10s4.477 10 10 10h.007c5.523 0 9.997-4.478 9.997-10s-4.481-10-10.004-10zM376.001 382.05c-5.523 0-10 4.478-10 10s4.477 10 10 10h.007c5.523 0 9.997-4.478 9.997-10s-4.481-10-10.004-10z" />
    </svg>
    <svg xmlns="http://www.w3.org/2000/svg" width="512" viewBox="0 0 511.974 511.974" height="512" id="h">
      <path d="M478.232 93.828c21.435-21.437 21.435-56.314 0-77.751-21.436-21.436-56.314-21.436-77.75 0a56.39 56.39 0 0 0-2.227 2.361c-42.715-13.733-89.799-2.566-121.81 29.442-19.472 19.473-31.751 45.302-34.576 72.728-2.542 24.683 2.676 49.638 14.75 71.135L20.595 427.767c-3.905 3.905-3.905 10.237 0 14.143l31.804 31.805a10.001 10.001 0 0 0 14.142 0l7.063-7.063 42.394 42.394c1.953 1.952 4.512 2.929 7.071 2.929s5.119-.977 7.071-2.929l31.804-31.804a10 10 0 0 0 1.25-12.617l-9.58-14.376 13.141-13.141 14.376 9.58a9.994 9.994 0 0 0 12.616-1.25l31.805-31.804a10.003 10.003 0 0 0 0-14.142l-42.395-42.394L302.565 237.69c21.496 12.073 46.45 17.288 71.135 14.75 27.427-2.824 53.255-15.104 72.728-34.576 32.01-32.011 43.176-79.096 29.442-121.809a56.528 56.528 0 0 0 2.362-2.227zM204.34 406.563 185.403 425.5l-14.376-9.58a10 10 0 0 0-12.616 1.25l-24.733 24.732a10 10 0 0 0-1.251 12.617l9.581 14.376-18.937 18.937-35.323-35.323 81.269-81.269zM464.09 79.685a35.203 35.203 0 0 1-5.562 4.532 10 10 0 0 0-3.818 12.009c14.558 37.12 5.756 79.314-22.424 107.494-33.421 33.421-86.31 38.882-125.753 12.988a10.002 10.002 0 0 0-12.56 1.288L59.47 452.5l-17.662-17.662 234.504-234.503a10 10 0 0 0 1.288-12.56c-25.894-39.445-20.432-92.332 12.988-125.753 28.18-28.18 70.375-36.981 107.494-22.424a9.997 9.997 0 0 0 12.009-3.818 35.37 35.37 0 0 1 4.533-5.562c13.637-13.64 35.826-13.639 49.465 0 13.638 13.639 13.638 35.829.001 49.467z" />
      <path d="M308.25 79.685c-29.326 29.327-29.326 77.047.001 106.374 14.663 14.663 33.925 21.994 53.187 21.994s38.523-7.331 53.188-21.994c29.326-29.327 29.326-77.047 0-106.374-29.328-29.325-77.047-29.327-106.376 0zm92.232 92.232c-21.528 21.528-56.56 21.528-78.09 0-21.528-21.529-21.528-56.56 0-78.089 10.766-10.766 24.903-16.147 39.045-16.147 14.139 0 28.282 5.384 39.045 16.147 21.528 21.529 21.528 56.559 0 78.089zM446.426 47.878c-3.905-3.905-10.234-3.902-14.14.003s-3.903 10.239.002 14.145c1.953 1.952 4.512 2.929 7.071 2.929s5.118-.977 7.071-2.929c3.905-3.905 3.905-10.237 0-14.143z" />
      <path d="M338.456 109.891c-6.139 6.139-9.52 14.301-9.52 22.981s3.381 16.843 9.52 22.98c6.336 6.336 14.659 9.504 22.981 9.504s16.646-3.168 22.981-9.504c12.671-12.671 12.671-33.289 0-45.962-12.671-12.671-33.29-12.671-45.962.001zm31.82 31.819c-4.873 4.875-12.805 4.875-17.678 0h-.001c-2.36-2.36-3.66-5.499-3.66-8.838s1.3-6.478 3.661-8.839c2.438-2.438 5.638-3.655 8.839-3.655s6.402 1.218 8.839 3.654c4.873 4.875 4.873 12.805 0 17.678z" />
    </svg>
    <svg xmlns="http://www.w3.org/2000/svg" width="512" viewBox="0 0 512 512" height="512" id="i">
      <path d="M204.062 249.343c5.522 0 10-4.477 10-10v-10.001c0-5.523-4.478-10-10-10s-10 4.477-10 10v10.001c0 5.523 4.478 10 10 10zM307.938 249.343c5.522 0 10-4.477 10-10v-10.001c0-5.523-4.478-10-10-10s-10 4.477-10 10v10.001c0 5.523 4.477 10 10 10z" />
      <path d="M446 80c0-19.299-15.701-35-35-35-15.896 0-29.376 10.684-33.614 25.249-30.582.341-61.204-8.661-87.681-25.805A35.007 35.007 0 0 0 291 35c0-19.299-15.701-35-35-35s-35 15.701-35 35c0 3.212.439 6.388 1.295 9.444-26.479 17.145-57.074 26.159-87.681 25.805C130.375 55.685 116.896 45 101 45c-19.299 0-35 15.701-35 35 0 16.403 11.191 30.184 26.513 33.969l13.482 37.746c-.139 21.418-2.868 36.102-5.752 51.624-1.483 7.983-3.018 16.238-4.165 25.422-3.143 25.139 2.314 50.168 15.872 73.654-7.792 6.597-14.165 16.005-17.694 26.408-3.952 11.65-6.173 29.85 5.688 50.393 6.459 11.188 15.036 20.751 24.09 29.686A149.232 149.232 0 0 0 106 480.001V502c0 5.523 4.478 10 10 10h280c5.522 0 10-4.477 10-10v-21.999c0-24.853-6.217-49.293-18.034-71.098 9.054-8.935 17.631-18.498 24.09-29.687 11.86-20.543 9.64-38.743 5.688-50.393-3.529-10.404-9.902-19.812-17.693-26.409 13.558-23.486 19.014-48.514 15.872-73.653-1.147-9.184-2.682-17.439-4.165-25.422-2.885-15.522-5.613-30.206-5.752-51.622l13.481-37.748C434.808 110.184 446 96.403 446 80zm-103.988 80c.535 8.44 2.217 18.131 3.981 28.287 4.176 24.052 9.373 53.985-2.166 67.699-5.365 6.377-14.487 9.477-27.887 9.477-10.755 0-18.94-2.831-27.606-5.828-9.462-3.273-19.247-6.657-32.334-6.657-13.088 0-22.873 3.384-32.336 6.657-8.665 2.997-16.851 5.828-27.605 5.828-13.399 0-22.521-3.1-27.887-9.477-11.538-13.714-6.341-43.647-2.165-67.7 1.763-10.155 3.445-19.846 3.98-28.286zM152.868 268.862c9.268 11.016 23.799 16.601 43.19 16.601 14.116 0 24.756-3.68 34.143-6.926 8.624-2.982 16.072-5.558 25.799-5.558s17.174 2.576 25.798 5.558c9.387 3.247 20.026 6.926 34.143 6.926 19.392 0 33.923-5.585 43.191-16.602 17.532-20.838 11.706-54.392 6.566-83.996-1.576-9.08-3.083-17.76-3.638-24.865h24.123c.707 18.985 3.346 33.191 5.911 46.993 1.496 8.05 2.909 15.654 3.983 24.249 4.527 36.221-13.582 65.415-29.571 83.527-28.708 32.52-74.149 55.232-110.506 55.232s-81.799-22.713-110.507-55.233c-15.989-18.112-34.099-47.306-29.57-83.527 1.074-8.595 2.487-16.198 3.983-24.249 2.565-13.802 5.204-28.008 5.911-46.993h24.122c-.554 7.106-2.061 15.785-3.638 24.865-5.14 29.605-10.965 63.159 6.567 83.998zM256 416.425a47.285 47.285 0 0 1-17.496-27.751c5.937.874 11.791 1.327 17.496 1.327 5.706 0 11.559-.453 17.496-1.327A47.285 47.285 0 0 1 256 416.425zm-138.737-47.209c-12.251-21.22-3.717-40.539 5.969-50.012a171.126 171.126 0 0 0 7.268 8.8c23.225 26.309 55.358 46.492 87.186 56 1.492 19.974 11.946 38.36 28.315 49.884V492h-40.258c-9.195-42.389-34.186-65.796-56.394-86.596-12.534-11.738-24.371-22.826-32.086-36.188zM126 480.001c0-19.712 4.515-39.123 13.136-56.755 19.008 17.883 37.918 36.977 46.052 68.754H126zM386 492h-59.189c8.135-31.776 27.044-50.87 46.052-68.753A129.235 129.235 0 0 1 386 480.001zm8.736-122.784c-7.715 13.361-19.553 24.449-32.086 36.188-22.208 20.8-47.198 44.207-56.394 86.595H266v-58.112c16.369-11.524 26.823-29.91 28.315-49.884 31.827-9.508 63.96-29.691 87.184-55.999a171.69 171.69 0 0 0 7.269-8.801c9.685 9.474 18.219 28.793 5.968 50.013zm7.927-267.604L388.953 140H123.047l-13.711-38.388a10 10 0 0 0-8.992-6.628A14.957 14.957 0 0 1 86 80c0-8.271 6.729-15 15-15 8.245 0 14.974 6.708 14.999 14.955a10 10 0 0 0 9.352 9.949c40.375 2.622 81.277-9.345 115.179-33.696a10 10 0 0 0 2.682-13.364A14.951 14.951 0 0 1 241 35c0-8.271 6.729-15 15-15s15 6.729 15 15c0 2.78-.765 5.492-2.212 7.844a10 10 0 0 0 2.682 13.364c33.9 24.35 74.791 36.317 115.18 33.696a10 10 0 0 0 9.352-9.949C396.025 71.708 402.754 65 411 65c8.271 0 15 6.729 15 15 0 8.06-6.301 14.642-14.345 14.984a9.998 9.998 0 0 0-8.992 6.628z" />
      <path d="M236 310.531c6.073 3.506 12.988 5.359 19.999 5.359s13.927-1.853 20-5.359c4.783-2.761 6.422-8.877 3.66-13.66-2.76-4.782-8.873-6.421-13.66-3.661-3.037 1.753-6.495 2.68-10 2.68s-6.962-.927-9.999-2.68c-4.784-2.761-10.899-1.122-13.66 3.661-2.762 4.782-1.123 10.899 3.66 13.66zM256.003 78.889h-.007c-5.522 0-9.996 4.477-9.996 10s4.48 10 10.003 10 10-4.477 10-10-4.478-10-10-10zM203.875 98.639h-.007c-5.522 0-9.997 4.477-9.997 10s4.481 10 10.004 10 10-4.477 10-10-4.478-10-10-10zM308.124 98.639c-5.522 0-10 4.477-10 10s4.478 10 10 10h.008c5.522 0 9.996-4.477 9.996-10s-4.482-10-10.004-10z" />
    </svg>
    <svg xmlns="http://www.w3.org/2000/svg" width="512" viewBox="0 0 512 512" height="512" id="j">
      <path d="M204.063 219.342c-5.522 0-10 4.477-10 10v10.001c0 5.523 4.478 10 10 10s10-4.477 10-10v-10.001c0-5.523-4.478-10-10-10zM307.938 219.342c-5.522 0-10 4.477-10 10v10.001c0 5.523 4.478 10 10 10s10-4.477 10-10v-10.001c0-5.523-4.478-10-10-10z" />
      <path d="M428.5 212.501c0-60.264-31.605-116.182-82.891-147.414l4.177-24.704a9.999 9.999 0 0 0-2.51-8.447 9.987 9.987 0 0 0-8.217-3.183l-41.797 3.634-34.73-29.96a10 10 0 0 0-13.064 0l-34.729 29.959-41.797-3.634a10.003 10.003 0 0 0-10.727 11.63l4.177 24.704C115.106 96.319 83.5 152.238 83.5 212.501c0 73.347 17.693 137.312 49.955 181.153C115.723 418.662 106 448.626 106 480.001V502c0 5.523 4.478 10 10 10h280c5.522 0 10-4.477 10-10v-21.999c0-31.318-9.732-61.306-27.464-86.333C410.8 349.83 428.5 285.83 428.5 212.501zM217.209 52.679a9.996 9.996 0 0 0 7.398-2.391L256 23.207l31.394 27.082a9.988 9.988 0 0 0 7.398 2.39l33.118-2.88-6.747 39.898C300.571 83.258 278.707 80 256 80s-44.57 3.257-65.162 9.696l-6.747-39.898zM103.5 212.501c0-50.571 25.18-97.684 66.52-125.957l3.065 18.125a10 10 0 0 0 13.409 7.681C207.781 104.271 231.817 100 256 100s48.22 4.271 69.508 12.35a10.009 10.009 0 0 0 8.52-.672 10 10 0 0 0 4.889-7.009l3.065-18.125c41.341 28.273 66.519 75.385 66.519 125.957 0 66.748-15.229 124.838-43.08 165.121-3-3.196-6.152-6.277-9.451-9.232 6.867-12.27 8.219-29.367-.816-54.401C374.386 291.318 386 261.991 386 230.002v-15.001c0-1.281-.246-2.55-.725-3.739-14.141-35.08-43.645-43.627-69.675-51.169-21.63-6.267-40.31-11.679-50.94-30.091a10 10 0 0 0-17.32 0c-10.631 18.412-29.311 23.824-50.94 30.091-26.03 7.542-55.533 16.09-69.674 51.169a10.002 10.002 0 0 0-.726 3.739v15.001c0 31.989 11.614 61.317 30.847 83.988-9.034 25.032-7.682 42.129-.817 54.398a152.65 152.65 0 0 0-9.454 9.228c-27.85-40.282-43.076-98.345-43.076-165.115zM256 340.002c-60.654 0-110-49.346-110-110v-12.991c10.743-24.604 31.74-30.689 55.966-37.708 18.56-5.377 39.16-11.346 54.034-27.49 14.874 16.144 35.475 22.113 54.035 27.49 24.226 7.019 45.223 13.104 55.965 37.708v12.991c0 60.654-49.346 110-110 110zm-83.227-10.206c20.165 16.845 45.492 27.706 73.227 29.826v38.172c-10.95-7.312-23.51-12.079-35.123-16.487-28.813-10.937-47.233-17.928-38.104-51.511zM266 397.793v-38.172c27.735-2.12 53.063-12.981 73.228-29.826 9.13 33.584-9.29 40.575-38.104 51.511-11.613 4.408-24.173 9.176-35.124 16.487zm-140 82.208c0-37.132 15.737-71.995 43.426-96.761 10.075 7.549 22.747 12.359 34.354 16.764 16.014 6.078 32.539 12.351 42.22 24.313V492h-64.999v-11.999c0-5.523-4.478-10-10-10s-10 4.477-10 10V492H126zM386 492h-35v-11.999c0-5.523-4.478-10-10-10s-10 4.477-10 10V492h-65v-67.683c9.68-11.962 26.207-18.235 42.221-24.313 11.606-4.405 24.277-9.214 34.352-16.763C370.248 408.012 386 442.938 386 480.001z" />
      <path d="M266 268.21c-3.037 1.753-6.495 2.68-10 2.68s-6.963-.927-9.998-2.68c-4.785-2.762-10.899-1.122-13.661 3.66-2.762 4.783-1.123 10.899 3.659 13.661a40.05 40.05 0 0 0 20 5.359 40.056 40.056 0 0 0 20-5.359c4.783-2.761 6.422-8.877 3.66-13.66-2.759-4.783-8.874-6.421-13.66-3.661z" />
    </svg>
    <svg xmlns="http://www.w3.org/2000/svg" width="512" viewBox="0 0 512.002 512.002" height="512" id="k">
      <path d="M380.226 137.752h-45.634a10 10 0 0 0-9.938 8.88l-4.07 36.12h-27.76l-4.069-36.12a10 10 0 0 0-9.938-8.88h-12.816V88.043h91.407a10.002 10.002 0 0 0 8.543-15.199l-17.54-28.823 17.54-28.823A10 10 0 0 0 357.409 0H256.001c-5.522 0-10 4.478-10 10v127.752h-12.817a10 10 0 0 0-9.938 8.88l-4.069 36.12h-27.761l-4.069-36.12a10 10 0 0 0-9.938-8.88h-45.634c-5.522 0-10 4.478-10 10v110.001c0 5.522 4.478 10 10 10h34.646l-12.565 233.712c-.297 5.515 3.934 10.227 9.448 10.522.184.01.364.015.546.015 5.276 0 9.69-4.131 9.977-9.463l9.935-184.786H328.24l9.934 184.786c.286 5.332 4.699 9.463 9.977 9.463.181 0 .363-.005.546-.015 5.515-.296 9.745-5.007 9.448-10.522L345.58 267.753h34.646c5.522 0 10-4.478 10-10V147.752c0-5.523-4.477-10-10-10zM266.001 20h73.616l-11.455 18.823a10 10 0 0 0 0 10.396l11.455 18.823h-73.616zm61.164 277.753H184.837l1.613-30h139.102zm43.061-50h-228.45v-90.001h26.697l4.069 36.12a10 10 0 0 0 9.938 8.88h45.634a10 10 0 0 0 9.938-8.88l4.069-36.12h27.761l4.069 36.12a10 10 0 0 0 9.938 8.88h45.633a10 10 0 0 0 9.938-8.88l4.07-36.12h26.697v90.001z" />
      <path d="M296 435.503v-40c0-22.056-17.944-40-40-40s-39.999 17.944-39.999 40v40c-5.522 0-10 4.478-10 10s4.478 10 10 10H296c5.522 0 10-4.478 10-10s-4.477-10-10-10zm-20 0h-39.999v-40c0-11.028 8.972-20 20-20 11.027 0 19.999 8.972 19.999 20z" />
    </svg>
    <svg xmlns="http://www.w3.org/2000/svg" width="512" viewBox="0 0 512.002 512.002" height="512" id="l">
      <path d="M344.001 70.001a10.002 10.002 0 0 0-8-4h-160a10.002 10.002 0 0 0-8 4l-60 80a10 10 0 0 0-2 6v200a10 10 0 0 0 2 6l60 80c1.889 2.518 4.853 4 8 4h160c3.147 0 6.111-1.482 8-4l60-80a10 10 0 0 0 2-6v-200a10 10 0 0 0-2-6zm-7.297 348.395-37.234-58.911 21.882-29.177 59.421 29.328zm-205.475-58.759 59.421-29.328 21.882 29.177-37.234 58.911zm-5.228-187.549 57.667 28.463v110.901l-57.667 28.463zm49.297-78.483 37.234 58.911-21.882 29.177-59.421-29.328zm205.475 58.76-59.421 29.328-21.882-29.177 37.234-58.911zm-98.439 196.636h-52.666l-26-34.667V197.668l26-34.667h52.666l26 34.667v116.666zm-.51-206h-51.647l-36.026-57H317.85zm-51.646 226h51.647l36.026 57H194.152zm98.156-57.55v-110.9l57.667-28.463v167.826zM66.001 256.001c0-5.523-4.478-10-10-10H10c-5.522 0-10 4.477-10 10s4.478 10 10 10h46.001c5.522 0 10-4.477 10-10zM502.002 246.001h-46c-5.522 0-10 4.477-10 10s4.478 10 10 10h46c5.522 0 10-4.477 10-10s-4.478-10-10-10zM67.836 126.59l-19.918-11.5c-4.785-2.762-10.898-1.122-13.66 3.66-2.762 4.783-1.123 10.899 3.66 13.66l19.918 11.5a9.998 9.998 0 0 0 13.66-3.66c2.762-4.782 1.123-10.898-3.66-13.66zM474.085 379.592l-19.919-11.5c-4.784-2.762-10.898-1.123-13.66 3.66s-1.123 10.899 3.66 13.66l19.919 11.5a9.998 9.998 0 0 0 13.66-3.66c2.762-4.783 1.123-10.899-3.66-13.66zM57.836 368.091l-19.919 11.5c-4.783 2.761-6.422 8.877-3.66 13.66a9.997 9.997 0 0 0 13.66 3.66l19.919-11.5c4.783-2.761 6.422-8.877 3.66-13.66-2.761-4.782-8.877-6.421-13.66-3.66zM449.177 145.252a9.954 9.954 0 0 0 4.99-1.342l19.918-11.5c4.783-2.761 6.422-8.877 3.66-13.66-2.761-4.783-8.877-6.422-13.66-3.66l-19.918 11.5c-4.783 2.761-6.422 8.877-3.66 13.66a9.994 9.994 0 0 0 8.67 5.002z" />
    </svg>
    <svg xmlns="http://www.w3.org/2000/svg" width="512" viewBox="0 0 512.002 512.002" height="512" id="m">
      <path d="M356.001 187.002h-10.115a85.813 85.813 0 0 0 2.312-19.813c0-10.456-2.197-21.903-6.53-34.021a9.999 9.999 0 0 0-18.315-1.196c-4.195 8.183-10.906 7.812-13.601 7.271-4.099-.823-8.41-3.915-8.803-8.965-.538-6.946 1.487-10.734 4.053-15.529 6.109-11.423 9.963-22.771-4.834-46.024-5.3-8.329-11.336-14.04-16.661-19.078-10.163-9.618-17.506-16.565-17.506-39.647A10 10 0 0 0 253.413.34c-29.067 7.79-41.608 36.112-31.951 72.155 2.934 10.95-3.387 17.423-19.622 30.645-16.946 13.799-38.036 30.974-38.036 64.048 0 6.697.776 13.325 2.313 19.813h-10.116c-5.523 0-10 4.478-10 10 0 28.967 11.171 56.313 31.455 77.001a10.001 10.001 0 0 0 7.141 2.999h16.845l2.439 25h-9.284c-5.523 0-10 4.478-10 10s4.477 10 10 10h11.235l15.217 155.971c1.923 19.718 16.623 34.029 34.953 34.029 18.331 0 33.03-14.312 34.953-34.029l15.217-155.971h11.235c5.522 0 10-4.478 10-10s-4.478-10-10-10h-9.283l2.439-25h16.844c2.687 0 5.26-1.081 7.141-2.999 20.283-20.688 31.454-48.034 31.454-77.001-.001-5.522-4.479-9.999-10.001-9.999zm-172.197-19.814c0-23.568 14.895-35.698 30.665-48.54 15.416-12.554 32.889-26.782 26.312-51.328-2.625-9.795-6.238-30.656 6.402-41.798 3.388 20.493 13.48 30.041 22.581 38.65 4.917 4.652 9.562 9.046 13.532 15.286 9.726 15.284 7.836 18.817 4.071 25.855-3.101 5.797-7.348 13.735-6.356 26.509 1.039 13.395 11.008 24.255 24.805 27.026 7.563 1.517 14.972.331 21.32-3.109.707 4.003 1.062 7.827 1.062 11.448A65.987 65.987 0 0 1 325.155 187h-49.319l.002-.388c0-21.224-11.562-40.77-30.176-51.009a10.006 10.006 0 0 0-9.64 0c-18.614 10.24-30.177 29.785-30.177 51.009l.002.388h-19a65.99 65.99 0 0 1-3.043-19.812zm42.043 19.814a38.217 38.217 0 0 1 14.995-30.73 38.218 38.218 0 0 1 14.996 30.342l-.002.388zm45.2 289.029c-.773 7.937-6.19 15.971-15.046 15.971s-14.273-8.034-15.047-15.971l-15.027-154.029h60.149zm16.98-174.029h-64.052l-2.439-25h68.93zm35.05-45H188.925c-12.582-14.036-20.328-31.407-22.376-50h178.904c-2.049 18.592-9.795 35.963-22.376 50zM116.001 127.829h-20c-5.523 0-10 4.478-10 10s4.477 10 10 10h20c5.523 0 10-4.478 10-10s-4.477-10-10-10zM141.767 51.669l-17.321-10c-4.782-2.761-10.898-1.122-13.66 3.66-2.762 4.783-1.123 10.899 3.66 13.66l17.321 10a9.995 9.995 0 0 0 13.66-3.66c2.762-4.783 1.123-10.9-3.66-13.66zM416.001 127.829h-20c-5.522 0-10 4.478-10 10s4.478 10 10 10h20c5.522 0 10-4.478 10-10s-4.478-10-10-10zM401.215 45.329c-2.761-4.782-8.877-6.421-13.66-3.66l-17.32 10c-4.783 2.762-6.422 8.877-3.66 13.66a9.997 9.997 0 0 0 13.66 3.66l17.32-10c4.783-2.762 6.422-8.877 3.66-13.66z" />
    </svg>
    <svg xmlns="http://www.w3.org/2000/svg" width="512" viewBox="0 0 512 512" height="512" id="n">
      <path d="M106.252 139.333h299.496c5.522 0 10-4.477 10-10s-4.478-10-10-10H106.252c-5.522 0-10 4.477-10 10s4.477 10 10 10zM380.253 172.666H131.747c-5.522 0-10 4.477-10 10s4.478 10 10 10h248.506c5.522 0 10-4.477 10-10s-4.478-10-10-10z" />
      <path d="M502 291c5.522 0 10-4.477 10-10V56c0-5.523-4.478-10-10-10h-45c-5.522 0-10 4.477-10 10v10H65V56c0-5.523-4.478-10-10-10H10C4.478 46 0 50.477 0 56v225c0 5.523 4.478 10 10 10h10.572l9.116 155H10c-5.522 0-10 4.477-10 10s4.478 10 10 10h492c5.522 0 10-4.477 10-10s-4.478-10-10-10h-19.688l9.117-155zM447 86v95.911c-22.327 4.117-39.972 21.761-44.089 44.089H109.089c-4.117-22.328-21.762-39.972-44.089-44.089V86zM20 66h25v125c0 5.523 4.478 10 10 10 19.299 0 35 15.701 35 35 0 5.523 4.478 10 10 10h312c5.522 0 10-4.477 10-10 0-19.299 15.701-35 35-35 5.522 0 10-4.477 10-10V66h25v205H20zm201 225h25v33.75c0 5.523 4.478 10 10 10s10-4.477 10-10V291h25v27.5c0 19.299-15.701 35-35 35s-35-15.701-35-35zm246.424 67.5h-39.745c-5.522 0-10 4.477-10 10s4.478 10 10 10h38.568l-3.971 67.5H49.724l-3.971-67.5h36.498c5.522 0 10-4.477 10-10s-4.478-10-10-10H44.577L40.606 291H201v27.5c0 30.327 24.673 55 55 55 24.673 0 45.603-16.331 52.55-38.75h89.202c5.522 0 10-4.477 10-10s-4.478-10-10-10H311V291h160.395z" />
      <path d="M130.751 324.749c0-5.523-4.478-10-10-10h-42.5c-5.522 0-10 4.477-10 10s4.478 10 10 10h42.5c5.522 0 10-4.477 10-10zM358.751 412.25c0 5.523 4.478 10 10 10h72c5.522 0 10-4.477 10-10s-4.478-10-10-10h-72c-5.522 0-10 4.477-10 10zM256 402.25H126.251c-5.522 0-10 4.477-10 10s4.478 10 10 10H256c5.522 0 10-4.477 10-10s-4.478-10-10-10zM157.393 378.5h20.428c5.522 0 10-4.477 10-10s-4.478-10-10-10h-20.428c-5.522 0-10 4.477-10 10s4.477 10 10 10zM364.607 368.5c0-5.523-4.478-10-10-10H334.18c-5.522 0-10 4.477-10 10s4.478 10 10 10h20.428c5.522 0 9.999-4.477 9.999-10z" />
    </svg>
    <svg xmlns="http://www.w3.org/2000/svg" width="512" viewBox="0 0 512 512" height="512" id="o">
      <path d="M457.961 292.194 406 281.802V150C406 67.29 338.71 0 256 0S106 67.29 106 150v131.802l-51.961 10.393A9.998 9.998 0 0 0 46 302c0 115.795 94.205 210 210 210s210-94.205 210-210a10 10 0 0 0-8.039-9.806zM256 492c-102.029 0-185.534-80.845-189.827-181.837l51.788-10.357A10 10 0 0 0 126 290V150c0-71.683 58.317-130 130-130s130 58.317 130 130v140a10 10 0 0 0 8.039 9.806l51.788 10.357C441.534 411.155 358.029 492 256 492z" />
      <path d="M256 320c49.626 0 90-40.374 90-90v-80c0-49.626-40.374-90-90-90s-90 40.374-90 90v80c0 49.626 40.374 90 90 90zm-70-170c0-38.598 31.402-70 70-70s70 31.402 70 70v80c0 38.598-31.402 70-70 70s-70-31.402-70-70zM155.142 341.428c-3.907-3.904-10.237-3.904-14.143.002-1.335 1.336-3.11 2.071-4.999 2.071s-3.664-.736-5-2.072c-3.906-3.904-10.236-3.904-14.143 0-3.905 3.905-3.905 10.237 0 14.143 5.114 5.113 11.912 7.93 19.143 7.93 7.232 0 14.03-2.816 19.144-7.931 3.904-3.907 3.903-10.239-.002-14.143zM220.999 341.43c-1.335 1.336-3.11 2.071-4.999 2.071s-3.664-.736-5-2.072c-3.906-3.904-10.236-3.904-14.143 0-3.905 3.905-3.905 10.237 0 14.143 5.114 5.113 11.912 7.93 19.143 7.93 7.232 0 14.03-2.816 19.144-7.931 3.904-3.906 3.903-10.238-.002-14.143-3.908-3.905-10.238-3.905-14.143.002zM300.999 341.43c-1.335 1.336-3.11 2.071-4.999 2.071s-3.664-.736-5-2.072c-3.906-3.904-10.236-3.904-14.143 0-3.905 3.905-3.905 10.237 0 14.143 5.114 5.113 11.912 7.93 19.143 7.93 7.232 0 14.03-2.816 19.144-7.931 3.904-3.906 3.903-10.238-.002-14.143-3.907-3.905-10.237-3.905-14.143.002zM381 341.429c-1.336 1.336-3.111 2.072-5 2.072s-3.664-.736-5-2.072c-3.906-3.904-10.236-3.904-14.143 0-3.905 3.905-3.905 10.237 0 14.143 5.114 5.113 11.912 7.93 19.143 7.93s14.028-2.816 19.143-7.93c3.905-3.905 3.905-10.237 0-14.143-3.907-3.905-10.237-3.905-14.143 0zM195.143 391.429c-3.906-3.904-10.236-3.904-14.143 0a7.121 7.121 0 0 1-5 2.071 7.026 7.026 0 0 1-5.001-2.072c-3.907-3.905-10.237-3.903-14.143.002-3.904 3.906-3.903 10.238.002 14.143 5.114 5.112 11.912 7.928 19.142 7.928 7.231 0 14.029-2.815 19.143-7.929 3.905-3.906 3.905-10.238 0-14.143zM275.143 391.429c-3.906-3.904-10.236-3.904-14.143 0a7.121 7.121 0 0 1-5 2.071 7.026 7.026 0 0 1-5.001-2.072c-3.907-3.905-10.237-3.903-14.143.002-3.904 3.906-3.903 10.238.002 14.143 5.114 5.112 11.912 7.928 19.142 7.928 7.231 0 14.029-2.815 19.143-7.929 3.905-3.906 3.905-10.238 0-14.143zM341.001 391.428c-1.336 1.336-3.112 2.072-5.001 2.072s-3.665-.736-5.001-2.072c-3.906-3.905-10.236-3.903-14.143.002-3.904 3.906-3.903 10.238.002 14.143 5.114 5.112 11.912 7.928 19.142 7.928s14.027-2.815 19.142-7.928c3.905-3.904 3.906-10.236.002-14.143-3.905-3.905-10.235-3.907-14.143-.002zM221 441.429a7.121 7.121 0 0 1-5 2.071 7.026 7.026 0 0 1-5.001-2.072c-3.907-3.905-10.237-3.903-14.143.002-3.904 3.906-3.903 10.238.002 14.143 5.114 5.112 11.912 7.928 19.142 7.928 7.231 0 14.029-2.815 19.143-7.929 3.905-3.905 3.905-10.237 0-14.143-3.907-3.905-10.237-3.905-14.143 0zM301 441.429a7.121 7.121 0 0 1-5 2.071 7.026 7.026 0 0 1-5.001-2.072c-3.907-3.905-10.237-3.903-14.143.002-3.904 3.906-3.903 10.238.002 14.143 5.114 5.112 11.912 7.928 19.142 7.928 7.231 0 14.029-2.815 19.143-7.929 3.905-3.905 3.905-10.237 0-14.143-3.907-3.905-10.237-3.905-14.143 0z" />
    </svg>
    <svg xmlns="http://www.w3.org/2000/svg" width="512" viewBox="0 0 512 512" height="512" id="p">
      <path d="M416 0H96c-5.523 0-10 4.478-10 10v45c0 5.522 4.477 10 10 10h10v130.001c0 70.663 49.115 130.069 115 145.876V365c-5.523 0-10 4.478-10 10s4.477 10 10 10v21.999c0 20.843-11.976 33.146-22.788 40.001H166c-5.523 0-10 4.478-10 10v45c0 5.522 4.477 10 10 10h180c5.523 0 10-4.478 10-10v-45c0-5.522-4.477-10-10-10h-32.212C302.976 440.145 291 427.842 291 406.999V385c5.523 0 10-4.478 10-10s-4.477-10-10-10v-24.123c65.885-15.807 115-75.213 115-145.876V65h10c5.523 0 10-4.478 10-10V10c0-5.522-4.477-10-10-10zM106 20h300v25H106zm230 472H176v-25h160zm-51.661-45h-56.677C235.12 437.374 241 424.298 241 406.999V385h30.001v21.999c0 17.299 5.88 30.375 13.338 40.001zm-13.338-82H241v-20.745a151.14 151.14 0 0 0 30.001 0zM386 195.001C386 266.683 327.683 325 256 325c-71.682 0-130-58.317-130-129.999V65h260z" />
      <path d="M169.537 222.63a10.016 10.016 0 0 0 8.108 2.234l46.19-7.698-7.698 46.19A10 10 0 0 0 226 275h60a10 10 0 0 0 9.863-11.643l-7.698-46.19 46.19 7.698a9.997 9.997 0 0 0 11.644-9.864v-60a10 10 0 0 0-11.644-9.864l-46.19 7.698 7.698-46.19A10 10 0 0 0 286 95h-60a10 10 0 0 0-9.863 11.643l7.698 46.19-46.19-7.698a10 10 0 0 0-11.644 9.864v60a10 10 0 0 0 3.536 7.631zm16.464-55.825 48.355 8.06a9.998 9.998 0 0 0 11.507-11.508L237.805 115h36.391l-8.059 48.356a10 10 0 0 0 2.792 8.715 10.014 10.014 0 0 0 8.715 2.793l48.355-8.06v36.391l-48.355-8.06a9.998 9.998 0 0 0-11.507 11.508L274.196 255h-36.391l8.059-48.356a10 10 0 0 0-2.792-8.715 10.018 10.018 0 0 0-8.715-2.793l-48.355 8.06v-36.391z" />
    </svg>
    <svg xmlns="http://www.w3.org/2000/svg" width="512" viewBox="0 0 512 512" height="512" id="q">
      <path d="M446.855 183.152c-11.956-21.798-33.841-37.553-58.544-42.144-16.219-3.015-39.708-2.513-66.109 13.326.219-5.166.281-10.29.182-15.361-1.115-57.428-21.849-104.676-59.959-136.636a10 10 0 0 0-12.852 0c-38.11 31.96-58.843 79.208-59.958 136.636a248.332 248.332 0 0 0 .182 15.361c-26.426-15.853-49.934-16.343-66.156-13.317-24.682 4.602-46.55 20.353-58.497 42.135-10.763 19.623-12.059 43.302-3.467 63.341 9.055 21.118 27.892 36.417 53.041 43.08a10 10 0 0 0 12.209-12.298c-2.996-10.984-1.595-19.609 3.945-24.285 5.982-5.05 16.445-5.451 26.035-.996 13.959 6.484 22.941 21.062 24.823 39.755h-6.642c-5.523 0-10 4.477-10 10v45c0 5.523 4.477 10 10 10h6.81c-1.066 12.705-6.305 21.129-14.739 23.411-8.283 2.245-17.439-1.972-22.27-10.245a10.003 10.003 0 0 0-15.667-2.069c-9.781 9.67-14.587 21.93-13.898 35.454.599 11.773 5.538 23.947 13.907 34.28 10.4 12.841 24.869 21.735 40.741 25.045a67.112 67.112 0 0 0 13.721 1.424c9.587 0 19.12-2.079 28.307-6.177a91.9 91.9 0 0 0 .643 2.545c5.866 21.893 19.145 39.274 38.401 50.267a9.998 9.998 0 0 0 9.916 0c19.256-10.992 32.535-28.374 38.401-50.267.226-.843.44-1.692.643-2.545 9.184 4.096 18.713 6.176 28.305 6.176a67.13 67.13 0 0 0 13.066-1.291c15.977-3.167 30.582-11.988 41.123-24.84 8.484-10.344 13.517-22.563 14.17-34.406.751-13.607-4.051-25.94-13.887-35.666a10.006 10.006 0 0 0-8.34-2.803 10.004 10.004 0 0 0-7.327 4.872c-4.831 8.274-13.988 12.488-22.27 10.245-8.434-2.282-13.672-10.706-14.739-23.411h6.809c5.523 0 10-4.477 10-10v-45c0-5.523-4.477-10-10-10h-6.642c1.882-18.693 10.863-33.271 24.823-39.755 9.59-4.455 20.053-4.055 26.035.995 5.54 4.677 6.941 13.302 3.945 24.286a10 10 0 0 0 12.209 12.298c25.148-6.663 43.985-21.962 53.041-43.081 8.59-20.037 7.294-43.716-3.47-63.339zM256 23.411c58.111 55.437 61.954 158.362 10 257.869V155.512c0-5.523-4.477-10-10-10s-10 4.477-10 10V281.28c-51.954-99.507-48.111-202.432 10-257.869zm70.913 288.339v25H185.087v-25zm-161.581-77.894c-16.771-7.79-35.361-6.279-47.362 3.852-7.77 6.559-12.035 16.004-12.509 27.097-11.806-6.015-20.608-15.012-25.402-26.193-6.188-14.431-5.208-31.568 2.621-45.841 9.094-16.581 25.777-28.578 44.627-32.092 15.061-2.807 38.357-1.557 64.865 19.669 5.112 36.838 17.659 75.023 36.749 111.401h-27.11c-2.086-26.764-15.39-48.097-36.479-57.893zm-20.561 191.136c-7.244-8.944-12.45-22.028-7.709-33.767 9.839 8.253 22.956 11.587 35.32 8.242 17.334-4.691 28.161-20.492 29.562-42.717h28.039c-14.337 28.092-21.396 55.56-20.691 80.078-25.742 14.767-51.24 4.563-64.521-11.836zm135.269 30.249c-3.989 14.889-12.064 26.62-24.04 34.947-11.976-8.328-20.05-20.058-24.04-34.947-7.3-27.245.066-62.135 20.742-98.492h6.596c20.675 36.357 28.041 71.248 20.742 98.492zm59.578-55.775c12.364 3.344 25.486.012 35.326-8.248 4.798 11.834-.531 25.016-7.913 34.015-13.351 16.278-38.74 26.255-64.324 11.592.705-24.517-6.354-51.985-20.691-80.076h28.04c1.401 22.225 12.228 38.027 29.562 42.717zm92.323-160.855c-4.794 11.181-13.597 20.179-25.402 26.193-.475-11.093-4.74-20.539-12.509-27.098-11.999-10.129-30.59-11.642-47.361-3.851-21.089 9.796-34.393 31.129-36.479 57.894h-27.111c19.09-36.378 31.637-74.563 36.749-111.401 26.487-21.211 49.769-22.475 64.83-19.676 18.866 3.506 35.562 15.505 44.663 32.098 7.828 14.273 8.807 31.41 2.62 45.841z" />
    </svg>
    <svg xmlns="http://www.w3.org/2000/svg" width="512" viewBox="0 0 512.002 512.002" height="512" id="r">
      <path d="M325.782 146.219c-22.056 0-40 17.944-40 40s17.944 40 40 40c22.057 0 40.001-17.944 40.001-40 0-22.055-17.944-40-40.001-40zm0 60c-11.028 0-20-8.972-20-20s8.972-20 20-20 20.001 8.972 20.001 20c0 11.029-8.973 20-20.001 20z" />
      <path d="M479.846 155.717c-9.86-3.93-21.497-7.232-30.078-8.693a129.748 129.748 0 0 0-8.596-20.782c4.842-6.839 10.99-17.52 15.638-28.619 8.686-20.741 8.898-34.833.649-43.081-8.25-8.25-22.342-8.038-43.081.648-11.1 4.648-21.784 10.798-28.622 15.64a129.67 129.67 0 0 0-20.779-8.594c-1.46-8.581-4.762-20.22-8.694-30.082C347.659 10.518 337.682 0 325.782 0s-21.877 10.518-30.502 32.155c-3.931 9.862-7.234 21.501-8.694 30.082a129.697 129.697 0 0 0-20.778 8.594c-6.838-4.842-17.521-10.991-28.622-15.639-20.74-8.686-34.831-8.897-43.081-.649-8.249 8.249-8.037 22.341.648 43.082 4.648 11.099 10.797 21.781 15.638 28.619a129.733 129.733 0 0 0-8.595 20.781c-8.581 1.46-20.219 4.762-30.079 8.693-21.637 8.625-32.155 18.603-32.155 30.503s10.519 21.877 32.155 30.502c9.867 3.933 21.513 7.237 30.096 8.696a129.791 129.791 0 0 0 9.835 23.09L3.074 448.828a9.999 9.999 0 0 0-.144 14.283l45.962 45.962a10.004 10.004 0 0 0 7.071 2.929h.101a9.993 9.993 0 0 0 7.111-3.073l200.323-208.577a129.669 129.669 0 0 0 23.085 9.826c1.458 8.583 4.763 20.235 8.698 30.107 8.625 21.637 18.602 32.155 30.502 32.155s21.877-10.518 30.502-32.155c3.936-9.872 7.241-21.526 8.698-30.11a129.721 129.721 0 0 0 20.748-8.584c6.837 4.844 17.534 11.004 28.648 15.658 10.635 4.453 19.52 6.679 26.767 6.679 6.887 0 12.295-2.011 16.314-6.03 8.249-8.249 8.036-22.341-.649-43.082-4.654-11.113-10.813-21.809-15.657-28.646a129.728 129.728 0 0 0 8.59-20.75c8.583-1.458 20.233-4.763 30.103-8.697 21.638-8.625 32.155-18.603 32.155-30.502 0-11.902-10.518-21.879-32.156-30.504zm-50.292 67.026c-11.053 31.441-35.82 56.207-67.25 67.245-6.195-10.44-20.048-17.549-36.521-17.549-16.476 0-30.329 7.11-36.523 17.552-31.433-11.036-56.202-35.801-67.255-67.244 10.445-6.192 17.558-20.048 17.558-36.527 0-16.487-7.12-30.349-17.573-36.537a109.904 109.904 0 0 1 67.258-67.254C295.436 92.881 309.296 100 325.782 100s30.346-7.119 36.535-17.571a109.91 109.91 0 0 1 67.259 67.254c-10.454 6.188-17.574 20.049-17.574 36.536 0 16.476 7.11 30.33 17.552 36.524zm-9.5-148.223c14.206-6.257 21.29-6.324 23.19-5.763.56 1.897.493 8.984-5.763 23.19a148.319 148.319 0 0 1-8.087 15.677 130.07 130.07 0 0 0-25.019-25.017 148.46 148.46 0 0 1 15.679-8.087zM313.047 41.65c5.777-15.271 10.938-20.575 12.735-21.548 1.797.973 6.958 6.277 12.735 21.548 4.786 12.649 7.213 24.806 7.264 28.243a6.667 6.667 0 0 0 0 .2C345.666 74.166 337.9 80 325.782 80c-12.11 0-19.873-5.827-19.998-9.9v-.218c.055-3.451 2.482-15.596 7.263-28.232zm-98.965 50.298c-6.256-14.207-6.321-21.294-5.762-23.19 1.895-.558 8.982-.495 23.19 5.763a148.242 148.242 0 0 1 15.678 8.087 130.052 130.052 0 0 0-25.02 25.018 148.631 148.631 0 0 1-8.086-15.678zm-54.417 94.272c.973-1.797 6.276-6.958 21.547-12.735 12.619-4.774 24.747-7.201 28.218-7.264l.141.001.091-.001c4.073.123 9.901 7.887 9.901 19.999 0 12.11-5.827 19.874-9.9 19.998-.07-.001-.14 0-.209.001-3.439-.052-15.594-2.479-28.24-7.264-15.273-5.778-20.577-10.938-21.549-12.735zm-14.456 208.422-35.502-20.497 28.501-27.373 34.08 19.676zm-41.346 43.05-37.674-21.751 28.5-27.372 36.252 20.93zm-48.045 50.024-31.531-31.532 26.884-25.82 38.423 22.184zm130.737-136.124-33.33-19.243 69.544-66.792a130.116 130.116 0 0 0 23.678 23.676zm151.962-20.802c-5.777 15.271-10.938 20.575-12.735 21.547-1.797-.973-6.958-6.277-12.735-21.547-4.784-12.646-7.211-24.799-7.264-28.24l.001-.216c.132-4.073 7.894-9.894 19.998-9.894 12.112 0 19.876 5.829 19.999 9.902l.001.19c-.045 3.415-2.472 15.589-7.265 28.258zm98.965-50.298c6.256 14.206 6.322 21.293 5.763 23.19-1.901.56-8.986.493-23.19-5.762a148.4 148.4 0 0 1-15.708-8.105 130.11 130.11 0 0 0 25.03-25.03 148.184 148.184 0 0 1 8.105 15.707zm32.87-81.537c-12.648 4.785-24.803 7.213-28.241 7.264l-.211-.001c-4.073-.127-9.899-7.89-9.899-19.998 0-12.112 5.829-19.876 9.902-19.999l.091.001.141-.001c3.471.063 15.599 2.49 28.217 7.264 15.271 5.777 20.574 10.938 21.547 12.735-.972 1.796-6.275 6.957-21.547 12.735z" />
    </svg>
  </defs>
  <g transform="rotate(-20 565.215 47.928) scale(.24414)" data-name="017-crossbow.svg">
    <path fill="transparent" d="M0 0h512v512H0z" />
    <use xlink:href="#a" />
  </g>
  <g transform="rotate(-3.998 2819.48 -2403.09) scale(.24414)" data-name="011-potion.svg">
    <path fill="transparent" d="M0 0h512v512H0z" />
    <use xlink:href="#b" />
  </g>
  <g transform="rotate(-3.998 694.792 -58.7) scale(.24414)" data-name="044-crest.svg">
    <path fill="transparent" d="M0 0h512v512H0z" />
    <use xlink:href="#c" />
  </g>
  <g data-name="008-throne.svg">
    <g transform="rotate(-19 379.907 -1108.332) scale(.24414)">
      <path fill="transparent" d="M0 0h512v512H0z" />
      <use xlink:href="#d" />
    </g>
    <g transform="rotate(-19 123.919 421.464) scale(.24414)">
      <path fill="transparent" d="M0 0h512v512H0z" />
      <use xlink:href="#d" />
    </g>
  </g>
  <g data-name="029-money bag.svg">
    <g transform="rotate(9.999 -1095.22 2737.356) scale(.24414)">
      <path fill="transparent" d="M0 0h512v512H0z" />
      <use xlink:href="#e" />
    </g>
    <g transform="rotate(9.999 -1351.177 -188.737) scale(.24414)">
      <path fill="transparent" d="M0 0h512v512H0z" />
      <use xlink:href="#e" />
    </g>
  </g>
  <g transform="rotate(19 -24.434 1063.646) scale(.24414)" data-name="036-catapult.svg">
    <path fill="transparent" d="M0 0h512v512H0z" />
    <use xlink:href="#f" />
  </g>
  <g transform="rotate(-7.999 1730.72 -1808.615) scale(.24414)" data-name="027-helmet.svg">
    <path fill="transparent" d="M0 0h512v512H0z" />
    <use xlink:href="#g" />
  </g>
  <g data-name="038-key.svg">
    <g transform="rotate(9.999 -618.592 2432.505) scale(.24414)">
      <path fill="transparent" d="M0 0h512v512H0z" />
      <use xlink:href="#h" />
    </g>
    <g transform="rotate(9.999 -874.548 -493.589) scale(.24414)">
      <path fill="transparent" d="M0 0h512v512H0z" />
      <use xlink:href="#h" />
    </g>
  </g>
  <g data-name="016-king.svg">
    <g transform="rotate(2.997 -8008.172 1891.156) scale(.24414)">
      <path fill="transparent" d="M0 0h512v512H0z" />
      <use xlink:href="#i" />
    </g>
    <g transform="rotate(2.997 1768.073 1635.635) scale(.24414)">
      <path fill="transparent" d="M0 0h512v512H0z" />
      <use xlink:href="#i" />
    </g>
  </g>
  <g transform="rotate(-4.998 989.255 -1328.481) scale(.24414)" data-name="004-queen.svg">
    <path fill="transparent" d="M0 0h512v512H0z" />
    <use xlink:href="#j" />
  </g>
  <g transform="translate(209.91 42.69) scale(.24414)" data-name="042-tower.svg">
    <path fill="transparent" d="M0 0h512v512H0z" />
    <use xlink:href="#k" />
  </g>
  <g transform="rotate(95 -30.026 243.66) scale(.24414)" data-name="005-gemstone.svg">
    <path fill="transparent" d="M0 0h512v512H0z" />
    <use xlink:href="#l" />
  </g>
  <g data-name="033-torch.svg">
    <g transform="rotate(28 -782.247 647.19) scale(.24414)">
      <path fill="transparent" d="M0 0h512v512H0z" />
      <use xlink:href="#m" />
    </g>
    <g transform="rotate(28 244.513 391.196) scale(.24414)">
      <path fill="transparent" d="M0 0h512v512H0z" />
      <use xlink:href="#m" />
    </g>
  </g>
  <g transform="rotate(17 -940.093 927.923) scale(.24414)" data-name="015-treasure.svg">
    <path fill="transparent" d="M0 0h512v512H0z" />
    <use xlink:href="#n" />
  </g>
  <g data-name="045-chainmail.svg">
    <g transform="rotate(-3.998 6617.689 -4035.46) scale(.24414)">
      <path fill="transparent" d="M0 0h512v512H0z" />
      <use xlink:href="#o" />
    </g>
    <g transform="rotate(-3.998 -713.192 -4291.19) scale(.24414)">
      <path fill="transparent" d="M0 0h512v512H0z" />
      <use xlink:href="#o" />
    </g>
  </g>
  <g data-name="047-goblet.svg">
    <g transform="rotate(-9 2771.409 -2907.592) scale(.25)">
      <path fill="transparent" d="M0 0h512v512H0z" />
      <use xlink:href="#p" />
    </g>
    <g transform="rotate(-9 -481.38 -3163.592) scale(.25)">
      <path fill="transparent" d="M0 0h512v512H0z" />
      <use xlink:href="#p" />
    </g>
    <g transform="rotate(-9 2515.409 345.196) scale(.25)">
      <path fill="transparent" d="M0 0h512v512H0z" />
      <use xlink:href="#p" />
    </g>
    <g transform="rotate(-9 -737.38 89.196) scale(.25)">
      <path fill="transparent" d="M0 0h512v512H0z" />
      <use xlink:href="#p" />
    </g>
  </g>
  <g transform="rotate(-71 463.645 -26.902) scale(.25)" data-name="022-fleur de lis.svg">
    <path fill="transparent" d="M0 0h512v512H0z" />
    <use xlink:href="#q" />
  </g>
  <g data-name="014-mace.svg">
    <g transform="rotate(-96 468.223 92.409) scale(.25)">
      <path fill="transparent" d="M0 0h512v512H0z" />
      <use xlink:href="#r" />
    </g>
    <g transform="rotate(-96 237.72 -163.591) scale(.25)">
      <path fill="transparent" d="M0 0h512v512H0z" />
      <use xlink:href="#r" />
    </g>
    <g transform="rotate(-96 212.223 322.912) scale(.25)">
      <path fill="transparent" d="M0 0h512v512H0z" />
      <use xlink:href="#r" />
    </g>
    <g transform="rotate(-96 -18.28 66.912) scale(.25)">
      <path fill="transparent" d="M0 0h512v512H0z" />
      <use xlink:href="#r" />
    </g>
  </g>
</svg>
