<svg xmlns="http://www.w3.org/2000/svg" xmlns:xlink="http://www.w3.org/1999/xlink" width="512" height="512" viewBox="0 0 512 512">
  <defs>
    <svg xmlns="http://www.w3.org/2000/svg" width="512" viewBox="0 0 512 512" height="512" id="a">
      <path d="m429.108 256.013 54.932-54.932c37.279-37.312 37.279-98.021 0-135.332l-.003-.003-37.787-37.787c-37.31-37.28-98.018-37.279-135.333.003L256 82.879l-54.92-54.92c-37.311-37.28-98.02-37.279-135.334.003L27.959 65.749c-37.279 37.311-37.279 98.02.003 135.335L82.878 256l-54.92 54.92c-37.278 37.31-37.278 98.019.004 135.334l37.787 37.787C84.405 502.681 108.908 512 133.413 512s49.012-9.321 67.67-27.962l54.93-54.93 54.908 54.933C329.576 502.681 354.079 512 378.584 512c24.505-.001 49.013-9.321 67.67-27.962l37.787-37.787c37.279-37.312 37.279-98.021-.005-135.335zM42.105 186.947c-29.493-29.519-29.493-77.547-.003-107.061l37.78-37.781c29.517-29.493 77.546-29.493 107.061-.003l54.916 54.917L97.019 241.86zm144.842 282.948c-29.518 29.491-77.547 29.492-107.061.003l-37.781-37.781c-29.493-29.517-29.493-77.547-.003-107.061L325.053 42.104c14.761-14.748 34.145-22.12 53.533-22.12 19.384 0 38.772 7.374 53.528 22.118l37.781 37.781c29.493 29.517 29.493 77.546.003 107.061zm282.951-37.781-37.78 37.781c-14.761 14.748-34.145 22.121-53.534 22.12-19.384-.002-38.771-7.374-53.526-22.116l-54.906-54.931L414.97 270.152l54.925 54.902c29.493 29.516 29.493 77.546.003 107.06z" />
      <path d="M240.997 364.954c-42.466-9.335-84.613-51.469-93.951-93.924-1.186-5.392-6.523-8.806-11.913-7.617-5.392 1.186-8.803 6.519-7.617 11.913 5.296 24.076 19.51 48.631 40.023 69.14 20.515 20.51 45.079 34.722 69.165 40.017a10.03 10.03 0 0 0 2.156.235c4.592 0 8.729-3.184 9.755-7.854 1.186-5.392-2.225-10.725-7.618-11.91zM231.975 241.972a10 10 0 0 0 7.091-2.935c3.904-3.904 3.904-10.235 0-14.14-3.904-3.904-10.235-3.904-14.14 0l-.028.028c-3.904 3.904-3.89 10.221.014 14.125a9.954 9.954 0 0 0 7.063 2.922zM272.963 272.935l-.028.028c-3.904 3.904-3.89 10.221.014 14.125a9.953 9.953 0 0 0 7.063 2.921 10 10 0 0 0 7.091-2.935c3.904-3.904 3.904-10.235 0-14.14-3.905-3.903-10.236-3.903-14.14.001zM220.702 301.282a10 10 0 0 0 7.091-2.935c3.904-3.904 3.904-10.235 0-14.14-3.904-3.904-10.235-3.904-14.14 0l-.028.028c-3.904 3.904-3.89 10.221.014 14.125a9.954 9.954 0 0 0 7.063 2.922zM261.662 332.244l-.028.028c-3.904 3.904-3.89 10.221.014 14.125a9.953 9.953 0 0 0 7.063 2.921 10 10 0 0 0 7.091-2.935c3.904-3.904 3.904-10.235 0-14.14-3.905-3.903-10.236-3.903-14.14.001zM172.665 253.273a10 10 0 0 0 7.091-2.935c3.904-3.904 3.904-10.235 0-14.14-3.904-3.904-10.235-3.904-14.14 0l-.028.028c-3.904 3.904-3.89 10.221.014 14.125a9.954 9.954 0 0 0 7.063 2.922zM284.208 213.653c-3.904 3.904-3.904 10.235 0 14.14 1.952 1.952 4.511 2.928 7.07 2.928s5.118-.976 7.07-2.928l.028-.028c3.904-3.904 3.89-10.221-.014-14.125-3.905-3.904-10.249-3.891-14.154.013zM332.245 261.662c-3.904 3.904-3.904 10.235 0 14.14 1.952 1.952 4.511 2.928 7.07 2.928s5.118-.976 7.07-2.928l.028-.028c3.904-3.904 3.89-10.221-.014-14.125-3.905-3.904-10.249-3.892-14.154.013zM236.198 165.616c-3.904 3.904-3.904 10.235 0 14.14 1.952 1.952 4.511 2.928 7.07 2.928s5.118-.976 7.07-2.928l.028-.028c3.904-3.904 3.89-10.221-.014-14.125s-10.248-3.891-14.154.013zM384.484 236.703c-5.295-24.086-19.507-48.649-40.018-69.165-20.509-20.512-45.063-34.726-69.139-40.022-5.393-1.186-10.726 2.224-11.913 7.617-1.186 5.393 2.224 10.726 7.617 11.913 42.455 9.338 84.589 51.485 93.924 93.951 1.027 4.67 5.163 7.853 9.755 7.853.711 0 1.433-.076 2.156-.235 5.393-1.186 8.804-6.519 7.618-11.912z" />
    </svg>
    <svg xmlns="http://www.w3.org/2000/svg" width="512" viewBox="0 0 512 512" height="512" id="b">
      <path d="M510.631 117.993a9.999 9.999 0 0 0-8.579-4.949c-50.072-.259-54.18-1.617-86.152-12.189-2.145-.71-4.409-1.458-6.81-2.248-28.179-9.272-51.702-15.892-76.476-9.878-18.713 4.541-37.767 15.546-66.628 39.031V98.357c22.62-4.64 39.684-24.701 39.684-48.672C305.67 22.288 283.382 0 255.986 0s-49.684 22.288-49.684 49.685c0 23.971 17.065 44.032 39.684 48.672v29.403c-28.86-23.485-47.913-34.49-66.624-39.031-24.77-6.011-48.286.604-76.449 9.877-2.388.785-4.637 1.529-6.769 2.233-32.015 10.586-36.128 11.946-86.196 12.205a9.997 9.997 0 0 0-8.693 14.85c28.973 52.229 75.272 84.032 133.893 91.971 9.923 1.344 19.805 1.946 29.5 1.946 30.691-.001 59.46-6.04 81.337-13.718v38.998h-68.773c-28.052 0-50.875 22.835-50.875 50.902 0 28.053 22.822 50.875 50.875 50.875h68.773v45.933h-29.061c-20.05 0-36.362 16.325-36.362 36.391 0 20.05 16.312 36.361 36.362 36.361h29.061V502c0 5.522 4.477 10 10 10s10-4.478 10-10v-34.446h69.113c5.523 0 10-4.478 10-10s-4.477-10-10-10h-69.113v-32.752h55.592c23.676 0 42.938-19.274 42.938-42.966s-19.262-42.967-42.938-42.967h-55.592v-61.777h112.001c5.523 0 10-4.478 10-10s-4.477-10-10-10h-112v-39.001c21.886 7.679 50.662 13.72 81.357 13.719 9.692 0 19.577-.603 29.495-1.945 58.616-7.938 104.92-39.74 133.906-91.969a10.002 10.002 0 0 0-.113-9.903zM216.925 447.554c-9.022 0-16.362-7.34-16.362-16.361 0-9.038 7.34-16.391 16.362-16.391h29.061v32.752zm104.653-98.685c12.648 0 22.938 10.303 22.938 22.967 0 12.663-10.29 22.966-22.938 22.966h-55.592v-45.933zm-75.592-20h-68.773c-17.024 0-30.875-13.851-30.875-30.875 0-17.04 13.85-30.902 30.875-30.902h68.773zM226.302 49.685c0-16.368 13.316-29.685 29.684-29.685s29.684 13.316 29.684 29.685c0 16.367-13.316 29.684-29.684 29.684s-29.684-13.317-29.684-29.684zM27.765 132.851c37.415-.708 45.597-3.413 74.658-13.022 2.121-.701 4.36-1.441 6.74-2.225 54.556-17.961 70.686-20.242 136.822 36.202v32.931c-46.093 18.085-156.442 36.68-218.22-53.886zm238.221 53.885v-32.93c66.135-56.443 82.271-54.161 136.855-36.2a3277.4 3277.4 0 0 1 6.78 2.237c29.026 9.599 37.195 12.301 74.61 13.008-61.791 90.548-172.146 71.961-218.245 53.885z" />
    </svg>
    <svg xmlns="http://www.w3.org/2000/svg" width="512" viewBox="0 0 512 512" height="512" id="c">
      <path d="M470.734 128.336c-22.738 0-41.237 18.512-41.237 41.266v1.678l-139.13-57.575-.202-.081c-29.695-11.539-38.635-11.539-68.33 0l-.202.081-139.13 57.575v-1.678c0-22.754-18.512-41.266-41.266-41.266C18.499 128.336 0 146.848 0 169.602v59.47c0 18.412 7.67 34.726 22.798 48.485 11.854 10.782 26.799 18.73 39.705 24.678v23.525a10 10 0 0 0 6.176 9.24l152.954 63.296.202.081c14.848 5.77 24.506 8.654 34.165 8.654s19.317-2.885 34.165-8.654l.202-.081L443.321 335a10 10 0 0 0 6.176-9.24v-23.527c12.903-5.951 27.845-13.902 39.693-24.675 15.135-13.763 22.81-30.076 22.81-48.486v-59.47c0-22.754-18.512-41.266-41.266-41.266zm-241.552 3.89c24.785-9.627 28.852-9.627 53.637 0l146.679 60.699v34.905l-153.681-63.541c-18.534-7.322-21.129-7.32-39.661 0l-153.653 63.54v-34.904zM20 229.071v-59.47c0-11.726 9.527-21.266 21.237-21.266 11.726 0 21.266 9.54 21.266 21.266v110.44C39.062 268.196 20 253.132 20 229.071zm262.818 150.703c-24.785 9.627-28.852 9.627-53.637 0L82.503 319.075v-69.601l161.001-66.586c6.452-2.549 10.347-4.088 12.482-4.088s6.029 1.539 12.481 4.088l161.029 66.587v69.601zM492 229.071c0 24.043-19.061 39.111-42.503 50.966V169.602c0-11.726 9.527-21.266 21.237-21.266 11.726 0 21.266 9.54 21.266 21.266z" />
      <path d="m353.61 292.454-84.45 34.964c-12.645 4.898-13.693 4.9-26.318.001l-84.481-34.966a9.998 9.998 0 0 0-13.064 5.416c-2.111 5.103.312 10.952 5.416 13.064l84.584 35.008.204.082c8.71 3.382 14.598 5.073 20.488 5.073s11.784-1.69 20.506-5.071c.07-.027.141-.056.211-.085l84.556-35.008c5.103-2.112 7.527-7.962 5.414-13.064-2.114-5.103-7.962-7.525-13.066-5.414z" />
    </svg>
    <svg xmlns="http://www.w3.org/2000/svg" width="512" viewBox="0 0 512 512" height="512" id="d">
      <path d="M314.061 225.094v-27.309h6.695c5.522 0 10-4.478 10-10v-41.419h24.838c5.522 0 10-4.478 10-10s-4.478-10-10-10h-54.288l-9.144-99.311C290.675 11.379 278.918 0 264.206 0h-16.412c-14.519 0-26.538 11.644-27.958 27.081l-9.167 99.285h-54.262c-5.522 0-10 4.478-10 10s4.478 10 10 10h24.838v41.419c0 5.522 4.478 10 10 10h6.695v27.309c-44.306 4.985-78.858 42.676-78.858 88.292v155.646c0 23.692 19.262 42.967 42.938 42.967h187.933c23.692 0 42.967-19.274 42.967-42.967V313.387c-.001-45.616-34.553-83.307-78.859-88.293zm-174.98 98.293h233.838v119.887H139.081zM239.752 28.916c.407-4.431 3.301-8.916 8.042-8.916h16.412c4.725 0 7.623 4.499 8.042 8.917l8.972 97.449h-50.466zm71.004 117.45v31.419H201.244v-31.419zm-16.695 51.419v26.743H217.94v-26.743zm-86.122 46.743h96.121c34.572 0 63.265 25.613 68.124 58.858H139.816c4.859-33.244 33.551-58.858 68.123-58.858zM349.952 492H162.02c-12.648 0-22.938-10.303-22.938-22.967v-5.76H372.92v5.76C372.919 481.697 362.616 492 349.952 492z" />
      <path d="M284.53 373.315h-18.545v-18.544c0-5.522-4.478-10-10-10s-10 4.478-10 10v18.544h-18.544c-5.522 0-10 4.478-10 10s4.478 10 10 10h18.544v18.573c0 5.522 4.478 10 10 10s10-4.478 10-10v-18.573h18.545c5.522 0 10-4.478 10-10s-4.477-10-10-10z" />
    </svg>
    <svg xmlns="http://www.w3.org/2000/svg" width="512" viewBox="0 0 512 512" height="512" id="e">
      <path d="M322.31 202.509v-75.446h.97c18.939 0 34.349-15.422 34.349-34.377 0-18.643-14.931-33.853-33.461-34.327l8.005-46.668A10.002 10.002 0 0 0 322.315 0h-132.63a10.002 10.002 0 0 0-9.857 11.69l8.005 46.668c-18.53.474-33.461 15.684-33.461 34.327 0 18.956 15.409 34.377 34.349 34.377h.97v75.446c-71.315 27.334-118.74 95.888-118.74 172.813 0 42.648 13.144 82.074 37.008 111.014C121.359 502.59 135.661 512 169.105 512h173.761c33.469 0 47.774-9.41 61.175-25.663 23.865-28.941 37.009-68.367 37.009-111.015 0-76.925-47.425-145.479-118.74-172.813zM310.454 20l-6.576 38.336h-95.757L201.546 20zm-121.733 87.063c-7.912 0-14.349-6.45-14.349-14.377 0-7.912 6.437-14.349 14.349-14.349H323.28c7.912 0 14.349 6.437 14.349 14.349 0 7.928-6.437 14.377-14.349 14.377zm14.184 111.933a9.999 9.999 0 0 0 6.785-9.469v-82.464h92.619v82.464a10 10 0 0 0 6.785 9.469c39.664 13.466 71.618 40.998 91.08 75.915h-288.35c19.464-34.917 51.417-62.449 91.081-75.915zM388.61 473.614C378.128 486.328 369.035 492 342.866 492H169.105c-26.145 0-35.233-5.672-45.717-18.387-20.918-25.367-32.438-60.274-32.438-98.291 0-21.131 4.014-41.553 11.424-60.412h307.252a164.998 164.998 0 0 1 11.424 60.412c0 38.016-11.521 72.924-32.44 98.292z" />
      <path d="M169.871 416.219c-19.378 0-35.143-15.752-35.143-35.115 0-19.377 15.765-35.143 35.143-35.143s35.143 15.765 35.143 35.143c0 19.363-15.765 35.115-35.143 35.115zm0-50.257c-8.35 0-15.143 6.793-15.143 15.143 0 8.334 6.793 15.115 15.143 15.115s15.143-6.78 15.143-15.115c0-8.35-6.793-15.143-15.143-15.143zM277.358 366.784h-.057c-5.522 0-10-4.477-10-10s4.478-10 10-10 10.028 4.477 10.028 10-4.448 10-9.971 10zM203.914 461.346h-.057c-5.522 0-10-4.477-10-10s4.478-10 10-10 10.028 4.477 10.028 10-4.448 10-9.971 10zM332.321 451.368c-19.378 0-35.143-15.765-35.143-35.143 0-19.377 15.765-35.143 35.143-35.143 19.362 0 35.114 15.765 35.114 35.143.001 19.378-15.751 35.143-35.114 35.143zm0-50.285c-8.35 0-15.143 6.793-15.143 15.143s6.793 15.143 15.143 15.143c8.334 0 15.114-6.793 15.114-15.143.001-8.351-6.78-15.143-15.114-15.143z" />
    </svg>
    <svg xmlns="http://www.w3.org/2000/svg" width="512" viewBox="0 0 511.999 511.999" height="512" id="f">
      <path d="M220.393 116.938h-.727c-24.531 0-45.919-12.063-64.802-22.713l-3.318-1.869c-4.815-2.705-6.527-8.8-3.823-13.616 2.705-4.816 8.801-6.527 13.616-3.823l3.35 1.887c17.551 9.898 35.699 20.133 55.075 20.133h.533c19.495 0 37.672-10.25 55.254-20.166l3.294-1.854c4.812-2.704 10.912-.993 13.615 3.823 2.705 4.815.993 10.911-3.822 13.616l-3.263 1.837c-18.913 10.665-40.337 22.745-64.982 22.745z" />
      <path d="M433.187 108.354c-12.03-34.788-38.557-63.182-71.774-76.507-32.953-13.219-69.232-10.293-102.157 8.235-19.713 11.075-30.456 16.889-38.889 16.889l-.188-.001a7.073 7.073 0 0 0-.206 0c-8.42.089-19.19-5.731-39.044-16.886-28.368-15.953-58.829-20.4-88.097-12.858-26.46 6.818-50.436 23.267-67.51 46.316C7.102 98.14-1.786 128.161.298 158.073c2.337 33.546 18.195 65.254 45.859 91.698 22.635 21.628 37.462 45.753 36.255 93.194l-.078 2.758c-.641 21.871-2.345 79.968 29.775 127.79 7.757 11.564 20.283 16.951 32.69 14.064 12.611-2.938 22.275-13.803 24.046-27.029 9.226-68.443 19.448-125.097 51.231-125.097 31.809 0 42.033 56.654 51.258 125.089 1.772 13.234 11.436 24.1 24.047 27.037 2.217.516 4.436.768 6.632.768 10.097 0 19.688-5.333 26.056-14.827 28.354-42.216 30.352-92.417 29.989-118.66a129.78 129.78 0 0 0 24.352 2.305c71.455 0 129.589-58.133 129.589-129.589 0-53.442-32.522-99.429-78.812-119.22zM311.462 462.373c-3.148 4.692-7.245 6.727-11.544 5.726-3.799-.885-7.98-4.386-8.763-10.222-4.821-35.771-9.935-70.021-19.425-95.882-11.493-31.318-28.389-46.543-51.654-46.543-23.253 0-40.141 15.225-51.63 46.544-9.487 25.862-14.6 60.111-19.423 95.889-.78 5.828-4.962 9.329-8.761 10.213-4.299 1.001-8.396-1.033-11.547-5.731-28.547-42.502-27.035-94.047-26.39-116.057l.08-2.832c1.477-58.02-19.521-86.275-42.43-108.166-52.413-50.1-47.099-111.369-18.582-149.865 26.26-35.449 76.559-57.834 129.735-27.928 23.303 13.093 35.224 19.453 48.613 19.453h.669c13.414-.001 25.338-6.361 48.646-19.457 35.297-19.864 65.656-14.83 84.908-7.106 23.186 9.301 42.507 27.422 54.195 50.15a129.712 129.712 0 0 0-25.752-2.574c-71.455 0-129.589 58.133-129.589 129.588 0 55.84 35.502 103.544 85.119 121.727.637 23.418.858 72.378-26.475 113.073zm70.948-125.209c-60.428 0-109.589-49.161-109.589-109.589 0-60.427 49.161-109.588 109.589-109.588s109.589 49.161 109.589 109.588-49.162 109.589-109.589 109.589z" />
      <path d="M445.989 194.303h-30.336v-30.307c0-5.523-4.478-10-10-10h-46.515c-5.522 0-10 4.477-10 10v30.307h-30.335c-5.522 0-10 4.477-10 10v46.543c0 5.523 4.478 10 10 10h30.335v30.335c0 5.523 4.478 10 10 10h46.515c5.522 0 10-4.477 10-10v-30.335h30.336c5.522 0 10-4.477 10-10v-46.543c0-5.523-4.478-10-10-10zm-10 46.543h-30.336c-5.522 0-10 4.477-10 10v30.335h-26.515v-30.335c0-5.523-4.478-10-10-10h-30.335v-26.543h30.335c5.522 0 10-4.477 10-10v-30.307h26.515v30.307c0 5.523 4.478 10 10 10h30.336z" />
    </svg>
    <svg xmlns="http://www.w3.org/2000/svg" width="512" viewBox="0 0 512 512" height="512" id="g">
      <path d="M375.27 327.624c-8.385-8.402-19.572-13.029-31.501-13.029-11.93 0-23.117 4.627-31.492 13.019l-31.602 31.573c-4.44 4.451-10.384 6.902-16.734 6.902s-12.294-2.451-16.743-6.91l-94.384-94.384c-4.451-4.441-6.902-10.385-6.902-16.735s2.451-12.293 6.902-16.735l.011-.011 31.56-31.588c8.384-8.384 13.001-19.569 13.001-31.494s-4.617-23.11-13.001-31.494l-59.159-59.159c-17.366-17.365-45.622-17.366-62.988 0L48.639 91.177C17.273 122.528 0 164.384 0 209.035c0 44.65 17.273 86.513 48.637 117.877l136.452 136.451C216.452 494.727 258.315 512 302.966 512s86.507-17.273 117.855-48.637l13.6-13.599c17.365-17.366 17.365-45.622 0-62.988zm45.008 107.997-13.602 13.602C379.105 476.808 342.272 492 302.966 492c-39.309 0-76.149-15.193-103.735-42.779L62.779 312.77C35.193 285.184 20 248.343 20 209.035c0-39.307 15.192-76.139 42.779-103.714l13.599-13.6c4.784-4.784 11.068-7.176 17.352-7.176s12.568 2.392 17.352 7.176l59.159 59.159c4.607 4.607 7.144 10.769 7.144 17.352s-2.537 12.745-7.146 17.355l-31.552 31.581c-8.238 8.22-12.775 19.191-12.775 30.892s4.537 22.672 12.767 30.885l94.369 94.369c8.22 8.238 19.191 12.775 30.893 12.775 11.7 0 22.672-4.537 30.882-12.764l31.601-31.573c4.606-4.616 10.767-7.157 17.346-7.157 6.578 0 12.738 2.542 17.352 7.164l59.158 59.159c9.567 9.567 9.567 25.136-.002 34.703z" />
      <path d="M343.046 371.445c-3.907-3.904-10.237-3.902-14.143.004-3.904 3.906-3.902 10.238.004 14.142l47.543 47.514a9.971 9.971 0 0 0 7.069 2.927c2.561 0 5.12-.977 7.073-2.931 3.904-3.906 3.902-10.238-.004-14.142zM133.481 186.023a9.966 9.966 0 0 0 7.071-2.929c3.905-3.905 3.905-10.237 0-14.143L93.01 121.41c-3.905-3.905-10.237-3.905-14.143 0-3.905 3.905-3.905 10.237 0 14.143l47.542 47.542a9.975 9.975 0 0 0 7.072 2.928zM471.565 40.435C445.491 14.36 410.821 0 373.942 0c-36.878 0-71.548 14.36-97.623 40.435-42.363 42.363-52.623 106.665-25.546 160.035 13.557 28.062-.373 44.442-13.844 60.284l-1.257 1.48a10 10 0 0 0 5.772 16.293c7.192 1.358 15.551 2.536 24.55 2.536 16.101 0 34.252-3.768 51.446-17.013 52.142 23.429 113.312 12.414 154.122-28.367l.003-.002C497.64 209.605 512 174.936 512 138.058s-14.36-71.549-40.435-97.623zm-14.139 181.101c-36.249 36.223-91.274 44.99-136.926 21.814a10 10 0 0 0-11.206 1.475c-13.185 11.834-27.772 16.994-46.908 16.15 11.722-16.245 21.308-38.438 6.346-69.31-.027-.057-.056-.113-.084-.169-23.2-45.647-14.434-100.671 21.814-136.919C312.759 32.28 342.406 20 373.942 20c31.537 0 61.184 12.28 83.48 34.577C479.721 76.874 492 106.521 492 138.058s-12.279 61.183-34.574 83.478z" />
      <path d="M439.363 104.116h-31.479V72.608c0-5.523-4.478-10-10-10H350.03c-5.522 0-10 4.477-10 10v31.508h-31.507c-5.522 0-10 4.477-10 10v47.854c0 5.523 4.478 10 10 10h31.507v31.508c0 5.523 4.478 10 10 10h47.854c5.522 0 10-4.477 10-10V171.97h31.479c5.522 0 10-4.477 10-10v-47.854c0-5.523-4.477-10-10-10zm-10 47.854h-31.479c-5.522 0-10 4.477-10 10v31.508H360.03V161.97c0-5.523-4.478-10-10-10h-31.507v-27.854h31.507c5.522 0 10-4.477 10-10V82.608h27.854v31.508c0 5.523 4.478 10 10 10h31.479z" />
    </svg>
    <svg xmlns="http://www.w3.org/2000/svg" width="512" viewBox="0 0 512 512" height="512" id="h">
      <path d="M100.449 341.298h24.469v24.469c0 5.523 4.477 10 10 10s10-4.477 10-10v-24.469h24.469c5.523 0 10-4.477 10-10s-4.477-10-10-10h-24.469V296.83c0-5.523-4.477-10-10-10s-10 4.477-10 10v24.469h-24.469c-5.523 0-10 4.477-10 10s4.477 9.999 10 9.999z" />
      <path d="M470.277 391.59c0-13.67-5.291-26.49-14.898-36.096-9.621-9.621-22.445-14.919-36.112-14.919-8.797 0-17.24 2.207-24.71 6.338V233.138c0-50.997-41.502-92.486-92.514-92.486h-.686v-30.797h24.838c13.235 0 24.002-10.78 24.002-24.031V24.002C350.197 10.768 339.43 0 326.195 0H110.087C96.852 0 86.084 10.768 86.084 24.002v61.822c0 13.25 10.768 24.031 24.002 24.031h24.809v30.797h-.658c-51.013 0-92.514 41.489-92.514 92.486V448.31c0 24.519 19.948 44.468 44.468 44.468h223.748a51.235 51.235 0 0 0 3.834 4.305c9.962 9.946 23.039 14.918 36.114 14.917 13.077-.001 26.154-4.975 36.101-14.923l69.39-69.39c9.608-9.607 14.899-22.426 14.899-36.097zM106.083 85.824V24.002c0-2.17 1.833-4.003 4.003-4.003h216.108c2.17 0 4.003 1.833 4.003 4.003v61.822c0 2.185-1.833 4.032-4.003 4.032h-24.838V62.779c0-5.523-4.477-10-10-10-5.522 0-10 4.477-10 10v27.077h-28.812V62.779c0-5.523-4.477-10-10-10s-10 4.477-10 10v27.077h-28.813V62.779c0-5.523-4.477-10-10-10s-10 4.477-10 10v27.077H154.89V62.779c0-5.523-4.477-10-10-10s-10 4.477-10 10v27.077h-24.809c-2.164 0-3.998-1.846-3.998-4.032zm48.812 24.031h126.464v30.797H154.895zm53.246 138.129v166.658H61.722V247.984zM86.191 472.779c-13.492 0-24.469-10.977-24.469-24.469v-13.669H218.14c5.523 0 10-4.477 10-10V237.985c0-5.523-4.477-10-10-10H61.926c2.655-37.571 34.062-67.334 72.311-67.334h167.806c39.985 0 72.515 32.517 72.515 72.487v130.951l-60.798 60.773c-12.959 12.981-17.467 31.254-13.537 47.917zm285.656 10.157c-12.103 12.103-31.818 12.1-43.938 0-12.104-12.103-12.101-31.817-.002-43.937l27.619-27.608 43.944 43.922zm69.39-69.391-27.626 27.626-43.941-43.919 27.629-27.618c5.843-5.843 13.645-9.061 21.969-9.061 8.325 0 16.126 3.218 21.97 9.061 5.83 5.83 9.041 13.627 9.041 21.955-.001 8.33-3.212 16.127-9.042 21.956z" />
    </svg>
    <svg xmlns="http://www.w3.org/2000/svg" width="512" viewBox="0 0 512 512" height="512" id="i">
      <path d="M510.317 228.01c0-47.085-38.306-85.392-85.391-85.392-47.069 0-85.363 38.307-85.363 85.392 0 43.685 32.992 79.788 75.363 84.758v68.137c0 61.258-49.837 111.095-111.095 111.095s-111.095-49.837-111.095-111.095v-44.832c13.503-4.257 23.323-16.896 23.323-31.787v-11.169c19.584-7.991 41.61-23.303 73.605-50.939 6.731-5.804 10.799-13.893 11.454-22.778.437-5.928-.689-11.727-3.209-16.934 41.79-42.723 65.719-87.321 65.898-123.248.098-19.727-6.696-36.569-20.185-50.048-15.71-15.74-38.006-22.286-59.563-17.87C277.448 4.348 268.118 0 257.786 0c-19.979 0-36.234 16.255-36.234 36.234s16.255 36.234 36.234 36.234c19.995 0 36.263-16.255 36.263-36.234 0-2.079-.186-4.115-.524-6.099 13.224-1.091 26.359 3.56 35.952 13.173 9.715 9.708 14.403 21.421 14.331 35.81-.15 30.177-22.307 70.411-59.618 108.769a33.318 33.318 0 0 0-13.851-4.128c-8.901-.651-17.49 2.19-24.197 7.991-29.43 25.397-47.316 38.292-63.402 38.292s-33.964-12.895-63.384-38.295c-10.885-9.384-26.159-10.484-38.048-3.864-37.31-38.357-59.469-78.593-59.624-108.773-.074-14.386 4.608-26.098 14.315-35.805 9.608-9.608 22.754-14.259 35.977-13.165a36.333 36.333 0 0 0-.523 6.094c0 19.979 16.255 36.234 36.234 36.234s36.234-16.255 36.234-36.234S127.667 0 107.688 0C97.361 0 88.037 4.349 81.43 11.304c-21.54-4.416-43.842 2.127-59.574 17.859C8.37 42.65 1.583 59.49 1.684 79.213c.185 35.925 24.112 80.518 65.891 123.235-6.399 13.247-3.426 29.672 8.226 39.724 31.968 27.612 53.991 42.921 73.612 50.939v11.175c0 14.891 9.819 27.53 23.322 31.787v44.832C172.735 453.191 231.544 512 303.83 512s131.095-58.809 131.095-131.095v-68.137c42.388-4.968 75.392-41.072 75.392-84.758zM257.786 52.469c-8.952 0-16.234-7.283-16.234-16.234S248.834 20 257.786 20c8.967 0 16.263 7.283 16.263 16.234s-7.296 16.235-16.263 16.235zM107.688 20c8.952 0 16.234 7.283 16.234 16.234s-7.283 16.234-16.234 16.234-16.234-7.283-16.234-16.234S98.736 20 107.688 20zm75.048 297.609c-7.346 0-13.322-5.977-13.322-13.322V286.16a10 10 0 0 0-6.845-9.489c-18.743-6.231-40.093-20.611-73.694-49.634l-.007-.006c-5.559-4.793-6.18-13.219-1.393-18.771 2.632-3.044 6.355-4.604 10.1-4.604 3.091 0 6.198 1.064 8.715 3.234 33.149 28.62 54.075 43.152 76.449 43.152 22.373 0 43.305-14.532 76.477-43.158 2.672-2.31 6.104-3.434 9.666-3.179 3.563.261 6.801 1.877 9.105 4.542a13.237 13.237 0 0 1 3.186 9.681 13.215 13.215 0 0 1-4.575 9.107c-33.646 29.062-54.994 43.441-73.683 49.63a10 10 0 0 0-6.856 9.493v18.127c0 7.347-5.976 13.324-13.323 13.324zm242.19-24.236c-36.042 0-65.363-29.322-65.363-65.363 0-36.057 29.322-65.392 65.363-65.392 36.057 0 65.391 29.334 65.391 65.392 0 36.041-29.335 65.363-65.391 65.363z" />
      <path d="M424.926 185.895c-23.223 0-42.115 18.893-42.115 42.115s18.893 42.115 42.115 42.115c23.238 0 42.143-18.893 42.143-42.115s-18.905-42.115-42.143-42.115zm0 64.23c-12.194 0-22.115-9.92-22.115-22.115s9.921-22.115 22.115-22.115c12.21 0 22.143 9.921 22.143 22.115s-9.933 22.115-22.143 22.115z" />
    </svg>
    <svg xmlns="http://www.w3.org/2000/svg" width="512" viewBox="0 0 512 512" height="512" id="j">
      <path d="M503.168 8.836C491.593-2.74 472.92-2.967 459.743 8.303l-171.9 146.78-19.187-19.187c-5.761-5.761-13.442-8.932-21.633-8.932h-.028c-8.183.008-15.85 3.184-21.578 8.932-5.774 5.773-8.95 13.465-8.943 21.657.007 8.178 3.187 15.847 8.955 21.594l1.187 1.187s-13.079 13.083-14.051 14.061c-8.14 8.183-11.894 11.85-15.574 13.053-3.962 1.294-10.606.747-23.995-.97-47.556-6.107-94.259 9.806-128.125 43.671-59.823 59.823-59.823 157.162 0 216.985C74.788 497.049 114.07 512 153.365 512c39.286 0 78.585-14.959 108.492-44.867 33.865-33.865 49.782-80.565 43.672-128.122-1.718-13.402-2.266-20.051-.967-24.018 1.206-3.687 4.884-7.446 13.089-15.599.965-.958 14.021-14.006 14.021-14.006l1.187 1.187c5.748 5.767 13.417 8.948 21.595 8.955h.027c8.182 0 15.863-3.175 21.629-8.943 5.754-5.753 8.922-13.431 8.922-21.619s-3.168-15.866-8.921-21.619l-19.187-19.187L503.697 52.269c11.259-13.161 11.037-31.828-.529-43.433zM59.017 452.989c-20.571-20.571-33.593-46.68-37.684-74.968 27.587 6.011 52.547 19.645 72.777 39.875s33.864 45.189 39.874 72.777c-28.287-4.091-54.396-17.113-74.967-37.684zm95.636 39.062c-6.128-33.574-22.055-63.956-46.399-88.3-24.344-24.343-54.725-40.271-88.299-46.399.299-31.811 11.652-61.856 32.25-85.728L240.382 459.8c-23.873 20.599-53.918 31.952-85.729 32.251zm148.899-206.846c-9.507 9.448-15.246 15.15-18.001 23.566-2.781 8.495-1.76 17.993.137 32.787 4.888 38.033-6.43 75.423-31.172 104.091L66.348 257.48c24.286-20.96 54.835-32.278 86.73-32.278 5.756 0 11.557.369 17.372 1.116 14.776 1.894 24.266 2.914 32.753.144 8.41-2.747 14.106-8.473 23.543-17.959.962-.966 14.013-14.021 14.013-14.021l76.766 76.765c.001-.001-13.02 13.012-13.973 13.958zm61.477-20.236c0 2.845-1.087 5.5-3.063 7.475-1.989 1.99-4.647 3.084-7.485 3.084h-.01c-2.829-.003-5.471-1.094-7.455-3.084L239.562 164.989l-.013-.013c-1.977-1.97-3.068-4.613-3.071-7.441a10.514 10.514 0 0 1 3.097-7.508c1.964-1.971 4.606-3.058 7.439-3.061h.01c2.848 0 5.507 1.091 7.489 3.074l107.455 107.454c1.974 1.975 3.061 4.63 3.061 7.475zM488.492 39.274 342.736 209.975l-40.705-40.705L472.738 23.509c4.504-3.851 11.542-5.272 16.275-.541 4.743 4.759 3.331 11.802-.521 16.306z" />
    </svg>
    <svg xmlns="http://www.w3.org/2000/svg" width="512" viewBox="0 0 512 512" height="512" id="k">
      <path d="M326.737 368.767h-39.656c-5.523 0-10 4.478-10 10s4.477 10 10 10h39.656c5.523 0 10-4.478 10-10s-4.477-10-10-10zM224.437 368.767h-39.656c-5.523 0-10 4.478-10 10s4.477 10 10 10h39.656c5.523 0 10-4.478 10-10s-4.477-10-10-10z" />
      <path d="M469.742 44.262H42.258C18.957 44.262 0 63.219 0 86.52v305.484c0 23.301 18.957 42.258 42.258 42.258h10.239v23.477c0 5.522 4.477 10 10 10s10-4.478 10-10v-23.477h366.979v23.477c0 5.522 4.477 10 10 10s10-4.478 10-10v-23.477h10.267c23.301 0 42.258-18.957 42.258-42.258V86.52c-.001-23.301-18.958-42.258-42.259-42.258zM20 86.52c0-12.273 9.985-22.258 22.258-22.258h427.484c12.273 0 22.258 9.984 22.258 22.258v101.314h-68.887a10 10 0 0 0-9.002 5.646l-23.267 48.096-47.654-124.391a9.999 9.999 0 0 0-9.01-6.417 9.964 9.964 0 0 0-9.412 5.812l-32.81 71.255h-69.251a10 10 0 0 0-9.002 5.646l-23.269 48.1-47.682-124.396a9.998 9.998 0 0 0-9.01-6.415c-4-.145-7.728 2.157-9.411 5.812l-32.81 71.255H20zm77.929 121.314a9.998 9.998 0 0 0 9.083-5.817l25.562-55.515 47.461 123.82a10 10 0 0 0 8.915 6.412 10.012 10.012 0 0 0 9.424-5.637l30.604-63.264h69.384a9.998 9.998 0 0 0 9.083-5.817l25.56-55.51L380.44 270.32a10 10 0 0 0 18.34.777l30.604-63.264H492v115.408H20V207.834zm371.813 206.428H42.258c-12.273 0-22.258-9.984-22.258-22.258v-48.762h472v48.762c0 12.273-9.985 22.258-22.258 22.258z" />
      <path d="M122.08 368.767c-5.523 0-10 4.478-10 10s4.477 10 10 10h.057c5.523 0 9.972-4.478 9.972-10s-4.506-10-10.029-10zM389.892 368.767h-.028c-5.523 0-9.986 4.478-9.986 10s4.491 10 10.014 10 10-4.478 10-10-4.477-10-10-10zM72.078 368.767c-5.523 0-10 4.478-10 10s4.477 10 10 10h.057c5.523 0 9.972-4.478 9.972-10s-4.506-10-10.029-10zM439.894 368.767h-.028c-5.523 0-9.986 4.478-9.986 10s4.491 10 10.014 10 10-4.478 10-10-4.477-10-10-10z" />
    </svg>
    <svg xmlns="http://www.w3.org/2000/svg" width="512" viewBox="0 0 512 512" height="512" id="l">
      <path d="m217.009 367.298.108-204.085c.114-9.941-1.497-20.499-13.843-30.374l-49.453-39.573V10c0-5.523-4.478-10-10-10s-10 4.477-10 10v83.267l-49.41 39.56c-12.404 9.889-14.001 20.453-13.858 30.401l.108 204.069c-16.499 2.8-29.106 17.187-29.106 34.471v24.973c0 5.523 4.478 10 10 10h82.267V492H80.553c-5.522 0-10 4.477-10 10s4.478 10 10 10h126.564c5.522 0 10-4.477 10-10s-4.478-10-10-10h-53.296v-55.258h82.294c5.522 0 10-4.477 10-10v-24.973c0-17.285-12.606-31.672-29.106-34.471zm-126.348-.502-.069-130.771h106.487l-.069 130.771zm6.234-218.343 46.929-37.573 46.956 37.576c5.479 4.382 6.424 7.628 6.339 14.575l-.001.117-.028 52.877H90.581l-.028-52.877-.001-.147c-.106-6.92.834-10.156 6.343-14.548zm129.22 268.289H61.555v-14.973c0-8.256 6.717-14.973 14.974-14.973h134.614c8.256 0 14.973 6.717 14.973 14.973v14.973zM416.077 296.811v-28.67h12.195c5.522 0 10-4.477 10-10s-4.478-10-10-10H323.647c-5.522 0-10 4.477-10 10s4.478 10 10 10h12.195v28.67c-29.993.089-54.368 24.518-54.368 54.531v123.276c0 20.613 16.77 37.382 37.383 37.382h114.205c20.613 0 37.383-16.77 37.383-37.382V351.341c0-30.004-24.372-54.426-54.368-54.53zm-80.071 19.999h9.837c5.522 0 10-4.477 10-10v-38.67h40.234v38.67c0 5.523 4.478 10 10 10h9.808c19.057 0 34.561 15.491 34.561 34.531v3.861H301.475v-3.861c0-19.04 15.49-34.531 34.531-34.531zM433.062 492H318.857c-9.585 0-17.383-7.798-17.383-17.382v-99.415h148.971v99.415c0 9.584-7.798 17.382-17.383 17.382z" />
      <path d="M400.493 423.601h-14.548v-14.547c0-5.523-4.478-10-10-10s-10 4.477-10 10v14.547h-14.519c-5.522 0-10 4.477-10 10s4.478 10 10 10h14.519v14.52c0 5.523 4.478 10 10 10s10-4.477 10-10v-14.52h14.548c5.522 0 10-4.477 10-10s-4.477-10-10-10z" />
    </svg>
    <svg xmlns="http://www.w3.org/2000/svg" width="512" viewBox="0 0 512 512" height="512" id="m">
      <path d="M394.555 46.034h-95.091c.046-.83.07-1.663.07-2.5C299.533 19.529 280.004 0 256 0s-43.533 19.529-43.533 43.533c0 .836.024 1.67.072 2.5h-95.093c-21.347 0-38.714 17.367-38.714 38.714v225.917c0 19.413 1.933 27.705 10.336 44.35l24.381 48.45c10.187 20.207 18.399 27.381 44.22 27.381h1.82v28.635c0 17.924 14.583 32.507 32.507 32.507 17.909 0 32.478-14.583 32.478-32.507v-28.635H246V502c0 5.523 4.477 10 10 10s10-4.477 10-10v-71.154h21.527v28.635c0 17.924 14.583 32.507 32.506 32.507 17.924 0 32.507-14.583 32.507-32.507v-28.635h1.792c25.82 0 34.033-7.174 44.223-27.388l24.372-48.431c8.409-16.657 10.342-24.948 10.342-44.361V84.748c0-21.347-17.367-38.714-38.714-38.714zm18.714 264.631c0 17.236-1.659 22.399-8.202 35.359l-24.374 48.437c-7 13.883-8.261 16.385-26.361 16.385H342.54c-5.523 0-10 4.477-10 10v38.635c0 6.896-5.61 12.507-12.507 12.507-6.896 0-12.506-5.61-12.506-12.507v-38.635c0-5.523-4.477-10-10-10h-83.054c-5.523 0-10 4.477-10 10v38.635c0 6.896-5.598 12.507-12.478 12.507-6.896 0-12.507-5.61-12.507-12.507v-38.635c0-5.523-4.477-10-10-10h-11.82c-18.101 0-19.362-2.501-26.358-16.378l-24.383-48.455c-6.537-12.949-8.196-18.112-8.196-35.348V84.748c0-10.319 8.395-18.714 18.714-18.714h107.459a9.999 9.999 0 0 0 9.271-13.748 23.241 23.241 0 0 1-1.708-8.752C232.467 30.557 243.024 20 256 20s23.533 10.557 23.533 23.533c0 3.05-.565 5.995-1.68 8.752a10 10 0 0 0 9.271 13.748h107.431c10.319 0 18.714 8.395 18.714 18.714z" />
      <path d="M381.289 88.042h-250.55c-5.523 0-10 4.477-10 10v212.623c0 12.169.36 14.633 5.832 25.476l23.782 47.196a9.999 9.999 0 0 0 8.93 5.5h193.433a9.999 9.999 0 0 0 8.93-5.5l23.78-47.191c5.5-10.901 5.863-13.361 5.863-25.481V98.042c0-5.522-4.477-10-10-10zm-10 222.623c0 9.102 0 9.102-3.721 16.476l-21.011 41.696H165.442l-21.013-41.701c-3.69-7.313-3.69-7.313-3.69-16.471V108.042h230.55z" />
      <path d="M185.164 346.857h141.701c5.523 0 10-4.477 10-10s-4.477-10-10-10H185.164c-5.523 0-10 4.477-10 10s4.477 10 10 10zM256 258.219c13.895 0 26.946-5.399 36.75-15.203 19.094-19.095 19.387-49.681.695-72.727l-.002-.003-29.678-36.566a9.998 9.998 0 0 0-15.53 0l-29.68 36.569c-18.691 23.046-18.399 53.632.708 72.738 9.83 9.797 22.877 15.192 36.737 15.192zm-21.914-75.328 21.914-27 21.914 27c10.068 12.415 14.578 32.099.693 45.983-6.026 6.026-14.055 9.345-22.607 9.345-8.531 0-16.564-3.323-22.607-9.345-13.886-13.885-9.373-33.571.693-45.983zM224.026 286.833c-5.523 0-10 4.477-10 10s4.477 10 10 10h63.948c5.523 0 10-4.477 10-10s-4.477-10-10-10z" />
    </svg>
    <svg xmlns="http://www.w3.org/2000/svg" width="512" viewBox="0 0 512 512" height="512" id="n">
      <path d="m397.127 249.671-44.674-72.113c-8.003-12.915-15.562-25.113-36.109-25.113h-.517v-25.154c12.896-.563 23.215-11.227 23.215-24.259V24.286C339.043 10.895 328.148 0 314.757 0H197.263c-13.392 0-24.286 10.895-24.286 24.286v78.745c0 13.023 10.304 23.682 23.187 24.259v25.154h-.488c-20.575 0-28.134 12.199-36.14 25.117l-44.638 72.102c-12.978 20.907-12.87 28.294-10.49 50.691l18.536 175.987C125.11 497.003 140.511 512 159.563 512h192.865c19.028 0 34.44-14.989 36.647-35.654l18.537-176.036c2.351-22.371 2.452-29.749-10.485-50.639zM197.263 20h117.494c2.323 0 4.286 1.963 4.286 4.286v18.8H192.976v-18.8c0-2.323 1.963-4.286 4.287-4.286zm-4.287 83.031V63.086h53.019V75.11c0 5.523 4.477 10 10 10s10-4.477 10-10V63.086h53.047v39.945c0 2.324-1.963 4.287-4.286 4.287H197.263c-2.324 0-4.287-1.963-4.287-4.287zm23.187 24.287h79.664v25.126h-79.664zm-84.267 132.883 44.642-72.108c7.845-12.66 10.043-15.648 19.137-15.648h120.669c9.066 0 11.264 2.988 19.108 15.647l44.672 72.111c9.91 16.002 9.647 18.509 7.598 38.018l-14.51 137.796H138.807l-14.511-137.775c-2.074-19.519-2.341-22.027 7.6-38.041zM352.428 492H159.563c-10.215 0-15.832-9.198-16.729-17.749l-1.921-18.234h230.192l-1.919 18.22c-.913 8.555-6.547 17.763-16.758 17.763z" />
      <path d="M182.976 348.926h36.317v36.317c0 5.523 4.477 10 10 10h53.432c5.523 0 10-4.477 10-10v-36.317h36.317c5.523 0 10-4.477 10-10v-53.432c0-5.523-4.477-10-10-10h-36.317v-36.317c0-5.523-4.477-10-10-10h-53.432c-5.523 0-10 4.477-10 10v36.317h-36.317c-5.523 0-10 4.477-10 10v53.432c0 5.523 4.477 10 10 10zm10-53.432h36.317c5.523 0 10-4.477 10-10v-36.317h33.432v36.317c0 5.523 4.477 10 10 10h36.317v33.432h-36.317c-5.523 0-10 4.477-10 10v36.317h-33.432v-36.317c0-5.523-4.477-10-10-10h-36.317z" />
    </svg>
    <svg xmlns="http://www.w3.org/2000/svg" width="512" viewBox="0 0 512 512" height="512" id="o">
      <path d="M39.27 53.918c1.029 22.168 19.953 41.04 42.182 42.067l31.208 1.445a10 10 0 0 0 10.452-10.459l-1.474-31.346c-1.03-22.152-19.953-41.01-42.181-42.037l-31.181-1.446a10 10 0 0 0-10.452 10.45l1.445 31.322a.008.008 0 0 1 .001.004zm39.262-20.351c11.982.554 22.573 11.081 23.127 22.993l.958 20.384-20.241-.938c-11.982-.554-22.573-11.092-23.128-23.013l-.939-20.364zM192.32 151.865c.154 0 .31-.003.464-.011l31.206-1.446c22.231-1.027 41.154-19.885 42.184-42.038v-.003l1.445-31.351c.13-2.81-.93-5.544-2.919-7.532s-4.723-3.05-7.533-2.917l-31.18 1.446c-22.229 1.027-41.152 19.897-42.182 42.061l-1.474 31.322a10.002 10.002 0 0 0 9.989 10.469zm11.464-40.858c.554-11.922 11.145-22.462 23.128-23.016l20.224-.938-.94 20.393c-.556 11.905-11.146 22.43-23.129 22.984l-20.24.938zM59.951 156.35c0 5.523 4.478 10 10 10h.028c5.522 0 9.986-4.477 9.986-10s-4.492-10-10.015-10-9.999 4.477-9.999 10zM205.304 32.132h.057c5.522 0 9.972-4.477 9.972-10s-4.506-10-10.028-10-10 4.477-10 10 4.476 10 9.999 10zM188.947 348.784h31.499v31.527c0 5.523 4.478 10 10 10h47.876c5.522 0 10-4.477 10-10v-31.527h31.527c5.522 0 10-4.477 10-10v-47.876c0-5.523-4.478-10-10-10h-31.527v-31.527c0-5.523-4.478-10-10-10h-47.876c-5.522 0-10 4.477-10 10v31.527h-31.499c-5.522 0-10 4.477-10 10v47.876c0 5.523 4.478 10 10 10zm10-47.876h31.499c5.522 0 10-4.477 10-10v-31.527h27.876v31.527c0 5.523 4.478 10 10 10h31.527v27.876h-31.527c-5.522 0-10 4.477-10 10v31.527h-27.876v-31.527c0-5.523-4.478-10-10-10h-31.499z" />
      <path d="M502 191.222h-73.801l13.635-28.793c31.152-6.972 54.009-35.042 54.009-67.447 0-38.118-31.012-69.129-69.13-69.129s-69.129 31.011-69.129 69.129c0 5.929.751 11.792 2.237 17.497l-60.113 78.744H10c-5.522 0-10 4.477-10 10s4.478 10 10 10h16.39v53.58c0 38.494 10.9 76.058 31.523 108.631a206.116 206.116 0 0 0 61.544 62.373c-12.397 8.083-20.615 22.062-20.615 37.933v16.129c0 5.523 4.478 10 10 10h291.085c5.522 0 10-4.477 10-10V473.74c0-15.868-8.209-29.845-20.595-37.929a206.03 206.03 0 0 0 61.538-62.38c20.613-32.57 31.509-70.134 31.509-108.63v-53.58H502c5.522 0 10-4.477 10-10s-4.478-9.999-10-9.999zm-123.18-70.671a9.997 9.997 0 0 0 1.498-9.348 49.355 49.355 0 0 1-2.734-16.222c0-27.09 22.039-49.129 49.129-49.129 27.091 0 49.13 22.04 49.13 49.129 0 24.352-18.159 45.259-42.239 48.631a10 10 0 0 0-7.651 5.624l-19.883 41.986h-81.2zm11.107 353.188v6.129H118.842v-6.129c0-13.92 11.317-25.246 25.234-25.261l.021.001.028-.002h220.547l.028.002.021-.001c13.901.016 25.206 11.341 25.206 25.261zm72.452-208.938c0 69.261-38.295 131.76-100.097 163.676H146.515C84.695 396.553 46.39 334.054 46.39 264.801v-53.58h415.989z" />
    </svg>
    <svg xmlns="http://www.w3.org/2000/svg" width="512" viewBox="0 0 512.01 512.01" height="512" id="p">
      <path d="m500.199 87.193-75.408-75.38c-15.75-15.749-41.402-15.752-57.193 0l-181.65 181.65c-23.031 23.031-26.158 43.454-29.182 63.205-3.444 22.495-7.006 45.756-41.124 79.874L12.353 439.831C4.388 447.796.001 458.42.001 469.747s4.387 21.951 12.36 29.924c8.244 8.226 19.073 12.339 29.904 12.339 10.833 0 21.669-4.116 29.92-12.348l103.289-103.317c34.117-34.117 57.368-37.67 79.854-41.107 19.746-3.018 40.164-6.138 63.195-29.169l181.687-181.66c15.734-15.771 15.734-41.434-.011-57.216zm-442.15 398.32c-8.701 8.683-22.86 8.683-31.555.008-4.188-4.188-6.494-9.79-6.494-15.774s2.306-11.585 6.494-15.773l44.576-44.575 31.551 31.531zM486.06 130.275l-181.679 181.65c-18.395 18.395-33.258 20.667-52.075 23.542-24.478 3.741-52.221 7.981-90.976 46.735l-.001.001-44.569 44.581-31.549-31.529 44.572-44.572c38.753-38.753 43.002-66.504 46.75-90.989 2.883-18.825 5.159-33.694 23.555-52.09l181.643-181.64c3.994-3.985 9.235-5.977 14.474-5.977 5.234 0 10.466 1.99 14.444 5.968l75.402 75.374c7.964 7.983 7.964 20.972.009 28.946z" />
      <path d="M365.943 97.888a10 10 0 0 0-14.143.001l-114.832 114.86c-3.905 3.905-3.904 10.236 0 14.142l48.156 48.156a10 10 0 0 0 14.143-.001L414.1 160.185c3.904-3.905 3.903-10.236-.001-14.142zm-73.748 155.944-34.014-34.014 100.691-100.716 34.014 34.014zM401.306 62.52c-3.907-3.904-10.237-3.902-14.143.004-3.904 3.906-3.902 10.238.004 14.142l48.186 48.156a9.971 9.971 0 0 0 7.069 2.927c2.561 0 5.12-.977 7.073-2.931 3.904-3.906 3.902-10.238-.004-14.142zM232.109 279.877c-3.906-3.905-10.223-3.89-14.128.014-3.905 3.905-3.891 10.251.014 14.157 1.953 1.953 4.512 2.929 7.071 2.929s5.119-.976 7.071-2.929c3.905-3.905 3.905-10.237 0-14.143z" />
    </svg>
    <svg xmlns="http://www.w3.org/2000/svg" width="512" viewBox="0 0 512 512" height="512" id="q">
      <path d="m388.462 258.716-24.394-48.439c15.276-.191 27.646-12.67 27.646-27.99V153.09c0-15.439-12.561-28-28-28h-42.937c-4.587-7.332-7.525-17.983-7.525-27.983V57.253C313.252 25.684 287.569 0 256 0s-57.252 25.684-57.252 57.253v39.854c0 10-2.938 20.651-7.525 27.983h-42.937c-15.439 0-28 12.561-28 28v29.196c0 15.32 12.37 27.799 27.646 27.99l-24.387 48.426c-7.54 14.918-9.381 22.807-9.381 40.198v177.39c0 19.69 16.02 35.71 35.71 35.71h212.254c19.69 0 35.71-16.02 35.71-35.71V298.901c-.001-17.391-1.842-25.28-9.376-40.185zM218.748 97.107V57.253C218.748 36.711 235.459 20 256 20s37.252 16.711 37.252 37.253v39.854c0 9.629 1.91 19.381 5.282 27.983h-85.069c3.372-8.602 5.283-18.354 5.283-27.983zm-78.462 85.18V153.09c0-4.336 3.664-8 8-8h215.429c4.336 0 8 3.664 8 8v29.196c0 4.336-3.664 8-8 8H148.286c-4.337 0-8-3.663-8-7.999zm30.034 27.999h171.36l28.926 57.438c4.269 8.447 6.179 13.14 6.883 21.177H134.51c.705-8.038 2.615-12.733 6.889-21.189zM362.127 492H149.873c-8.663 0-15.71-7.047-15.71-15.71V308.901h243.674V476.29c0 8.663-7.047 15.71-15.71 15.71z" />
      <path d="m293.443 376.617-29.678-36.566a10.002 10.002 0 0 0-15.53 0l-29.68 36.569c-18.684 23.037-18.391 53.611.695 72.697 9.822 9.822 22.873 15.231 36.75 15.231s26.928-5.409 36.75-15.231c19.086-19.087 19.379-49.661.695-72.698a.002.002 0 0 1-.002-.002zm-14.836 58.559c-6.044 6.044-14.073 9.373-22.607 9.373s-16.563-3.329-22.607-9.374c-13.877-13.876-9.367-33.55.693-45.955l21.914-27 21.914 27c10.061 12.408 14.569 32.08.693 45.956z" />
    </svg>
  </defs>
  <g transform="rotate(-7.999 1478.305 -96.476) scale(.24414)" data-name="037-band aid.svg">
    <path fill="transparent" d="M0 0h512v512H0z" />
    <use xlink:href="#a" />
  </g>
  <g transform="rotate(26 -257.636 514.853) scale(.24414)" data-name="046-pharmacy.svg">
    <path fill="transparent" d="M0 0h512v512H0z" />
    <use xlink:href="#b" />
  </g>
  <g transform="rotate(-5.999 829.12 -288.624) scale(.24414)" data-name="039-medical mask.svg">
    <path fill="transparent" d="M0 0h512v512H0z" />
    <use xlink:href="#c" />
  </g>
  <g transform="rotate(-156 205.894 74.528) scale(.24414)" data-name="034-nasal spray.svg">
    <path fill="transparent" d="M0 0h512v512H0z" />
    <use xlink:href="#d" />
  </g>
  <g transform="rotate(-3.998 4274.596 -2897.081) scale(.24414)" data-name="019-flask.svg">
    <path fill="transparent" d="M0 0h512v512H0z" />
    <use xlink:href="#e" />
  </g>
  <g transform="rotate(-2.997 1160.876 -3151.3) scale(.24414)" data-name="013-dental care.svg">
    <path fill="transparent" d="M0 0h512v512H0z" />
    <use xlink:href="#f" />
  </g>
  <g transform="rotate(-4.998 3776.87 -880.354) scale(.24414)" data-name="008-emergency call.svg">
    <path fill="transparent" d="M0 0h512v512H0z" />
    <use xlink:href="#g" />
  </g>
  <g data-name="023-medicine.svg">
    <g transform="rotate(-11.999 1877.395 -2071.309) scale(.24414)">
      <path fill="transparent" d="M0 0h512v512H0z" />
      <use xlink:href="#h" />
    </g>
    <g transform="rotate(-11.999 1621.425 364.369) scale(.24414)">
      <path fill="transparent" d="M0 0h512v512H0z" />
      <use xlink:href="#h" />
    </g>
  </g>
  <g data-name="012-stethoscope.svg">
    <g transform="rotate(-36 403.281 -533.324) scale(.24414)">
      <path fill="transparent" d="M0 0h512v512H0z" />
      <use xlink:href="#i" />
    </g>
    <g transform="rotate(-36 147.285 254.563) scale(.24414)">
      <path fill="transparent" d="M0 0h512v512H0z" />
      <use xlink:href="#i" />
    </g>
  </g>
  <g data-name="038-enema.svg">
    <g transform="rotate(-95 349.952 -28.24) scale(.24414)">
      <path fill="transparent" d="M0 0h512v512H0z" />
      <use xlink:href="#j" />
    </g>
    <g transform="rotate(-95 93.953 206.341) scale(.24414)">
      <path fill="transparent" d="M0 0h512v512H0z" />
      <use xlink:href="#j" />
    </g>
  </g>
  <g transform="rotate(-2.997 6630.772 -6413.249) scale(.24414)" data-name="026-electrocardiogram.svg">
    <path fill="transparent" d="M0 0h512v512H0z" />
    <use xlink:href="#k" />
  </g>
  <g transform="rotate(13.999 -577.782 1464.993) scale(.24414)" data-name="004-injection.svg">
    <path fill="transparent" d="M0 0h512v512H0z" />
    <use xlink:href="#l" />
  </g>
  <g data-name="006-blood bag.svg">
    <g transform="rotate(3.998 -6386.305 7291.635) scale(.24414)">
      <path fill="transparent" d="M0 0h512v512H0z" />
      <use xlink:href="#m" />
    </g>
    <g transform="rotate(3.998 944.576 7035.904) scale(.24414)">
      <path fill="transparent" d="M0 0h512v512H0z" />
      <use xlink:href="#m" />
    </g>
    <g transform="rotate(3.998 -6642.036 -39.246) scale(.24414)">
      <path fill="transparent" d="M0 0h512v512H0z" />
      <use xlink:href="#m" />
    </g>
    <g transform="rotate(3.998 688.845 -294.977) scale(.24414)">
      <path fill="transparent" d="M0 0h512v512H0z" />
      <use xlink:href="#m" />
    </g>
  </g>
  <g data-name="011-hand sanitizer.svg">
    <g transform="rotate(-2.997 8651.62 -4507.144) scale(.24414)">
      <path fill="transparent" d="M0 0h512v512H0z" />
      <use xlink:href="#n" />
    </g>
    <g transform="rotate(-2.997 -1124.625 -4762.666) scale(.24414)">
      <path fill="transparent" d="M0 0h512v512H0z" />
      <use xlink:href="#n" />
    </g>
  </g>
  <g data-name="009-mortar.svg">
    <g transform="rotate(3.998 -6386.17 5517.665) scale(.24414)">
      <path fill="transparent" d="M0 0h512v512H0z" />
      <use xlink:href="#o" />
    </g>
    <g transform="rotate(3.998 944.712 5261.934) scale(.24414)">
      <path fill="transparent" d="M0 0h512v512H0z" />
      <use xlink:href="#o" />
    </g>
  </g>
  <g data-name="003-thermometer.svg">
    <g transform="rotate(132 -10.456 308.873) scale(.24414)">
      <path fill="transparent" d="M0 0h512v512H0z" />
      <use xlink:href="#p" />
    </g>
    <g transform="rotate(132 103.523 52.874) scale(.24414)">
      <path fill="transparent" d="M0 0h512v512H0z" />
      <use xlink:href="#p" />
    </g>
  </g>
  <g data-name="002-eyedropper.svg">
    <g transform="rotate(31 -617.485 566.912) scale(.25)">
      <path fill="transparent" d="M0 0h512v512H0z" />
      <use xlink:href="#q" />
    </g>
    <g transform="rotate(31 305.62 310.912) scale(.25)">
      <path fill="transparent" d="M0 0h512v512H0z" />
      <use xlink:href="#q" />
    </g>
  </g>
</svg>
