<svg xmlns="http://www.w3.org/2000/svg" xmlns:xlink="http://www.w3.org/1999/xlink" width="512" height="512" viewBox="0 0 512 512">
  <defs>
    <svg xmlns="http://www.w3.org/2000/svg" viewBox="0 0 512.001 512.001" width="512.001" height="512.001" id="a">
      <path d="m474.001 496.001-48-63.999c5.522 0 10-4.478 10-10v-80c0-5.522-4.478-10-10-10H414.77l4.117-55.3a9.994 9.994 0 0 0-1.619-6.239l-64.596-98.154-45.721-92.347 68.164-62.595c3.397-3.119 4.221-8.159 1.991-12.197S370.172-.862 365.724.354L211.756 42.271a9.994 9.994 0 0 0-6.779 6.254l-67.573 187.268-41.669 45.183a10.003 10.003 0 0 0-2.394 9.021l9.664 42.006H86.001c-5.522 0-10 4.478-10 10v80c0 5.522 4.478 10 10 10l-48 63.999a10 10 0 0 0 8 16h420a10 10 0 0 0 8-16.001zm-58-83.999h-75v-60h75zM114.015 290.655l39.461-42.789a10.004 10.004 0 0 0 2.055-3.385l66.495-184.278 109.269-29.748-68.668 63.058c-4.068 3.735-4.338 10.061-.602 14.129 3.733 4.066 10.061 4.338 14.129.602L291.61 94.05l43.41 87.682c.181.366.385.72.608 1.061l63.061 95.821-3.975 53.389h-56.012c-6.386-20.265-25.355-35.001-47.701-35.001h-70c-22.346 0-41.315 14.736-47.701 35.001h-49.772zm206.986 56.347v69.999c0 16.543-13.458 30.001-30 30.001h-70c-16.542 0-30-13.458-30-30.001v-69.999c0-16.543 13.458-30.001 30-30.001h70c16.542 0 30 13.458 30 30.001zm-225 5h75v60h-75zm-30 139.999 44.25-58.999a10.1 10.1 0 0 0 .661-1H173.3c6.386 20.264 25.355 35 47.701 35h70c22.346 0 41.315-14.736 47.701-35h62.388c.198.342.418.676.661 1l44.25 58.999z" />
      <path d="M226.001 342.001c-5.522 0-10 4.478-10 10v60.001c0 5.522 4.478 10 10 10h60.001c5.522 0 10-4.478 10-10v-60.001c0-5.522-4.478-10-10-10zm50.001 60.001h-40.001v-40.001h40.001z" />
    </svg>
    <svg xmlns="http://www.w3.org/2000/svg" viewBox="0 0 512.001 512.001" width="512.001" height="512.001" id="b">
      <path d="M422 251.497v-70.998c0-5.522-4.478-10-10-10V151c0-24.147-17.205-44.35-40-48.995V96c0-19.299-15.7-35-34.999-35h-90.5c-19.299 0-35 15.701-35 35v5.791c-27.395 5.276-37.468 35.489-40.987 46.047l-1.887 5.662H69.685c-1.11-4.313-5.026-7.5-9.685-7.5H10c-5.522 0-10 4.478-10 10v60c0 5.522 4.478 10 10 10h50c4.659 0 8.575-3.187 9.685-7.5h77.275l-10.834 32.501h-36.125c-55.141 0-100 44.859-100 100s44.859 100 100 100h312c55.141 0 100-44.859 100-100 0-51.766-39.537-94.471-90.001-99.504zm-20-60.998v60.502H229.296l20.471-60.502zM246.501 81h90.5C345.271 81 352 87.729 352 96v5H231.501v-5c0-8.271 6.728-15 15-15zM50 206H20v-40h30zm20-7.5v-25h91.96l-8.333 25zm119.487-44.338C199.286 124.77 210.941 121 220.001 121H362c16.542 0 30 13.458 30 30v19.499H242.595a10 10 0 0 0-9.473 6.795l-24.94 73.707h-50.973zm222.514 276.839h-312c-44.112 0-80-35.888-80-80s35.888-80 80-80h312c44.112 0 80 35.888 80 80s-35.888 80-80 80z" />
      <path d="M412.458 296.002h-.029l-.421-.002H100.009c-30.328 0-55.001 24.673-55.001 55 0 30.328 24.673 55.001 55.001 55.001h311.999c30.327 0 55-24.673 55-55.001 0-30.177-24.43-54.756-54.55-54.998zM291.003 351c0 19.296-15.699 34.995-34.995 34.995S221.013 370.296 221.013 351s15.699-34.995 34.995-34.995 34.995 15.699 34.995 34.995zm-77.384 35.001h-71.215c7.87-9.516 12.605-21.716 12.605-35.001 0-13.284-4.734-25.484-12.604-35h71.214c-7.871 9.516-12.606 21.715-12.606 35s4.735 25.485 12.606 35.001zM298.397 316h71.215c-7.87 9.516-12.604 21.716-12.604 35 0 13.285 4.735 25.485 12.605 35.001h-71.216c7.871-9.516 12.607-21.716 12.607-35.001-.001-13.285-4.736-25.484-12.607-35zM65.008 351c0-19.299 15.701-35 35.001-35 19.299 0 35 15.701 35 35s-15.701 35-35 35l-.051.001c-19.277-.028-34.95-15.718-34.95-35.001zm347.051 35.001-.051-.001c-19.299 0-35-15.701-35-35s15.701-35 35-35l.389.002.113.001.333.006.229.006c18.808.565 33.936 16.041 33.936 34.983 0 19.285-15.674 34.975-34.949 35.003z" />
      <path d="M246.001 351.001c0 5.522 4.478 10 10 10h.007c5.522 0 9.996-4.478 9.996-10s-4.48-10-10.003-10-10 4.478-10 10zM412.001 341c-5.522 0-10 4.478-10 10s4.478 10 10 10h.007c5.522 0 9.996-4.478 9.996-10s-4.481-10-10.003-10zM100.001 361h.008c5.522 0 9.996-4.478 9.996-10s-4.481-10-10.004-10-10 4.478-10 10 4.478 10 10 10z" />
    </svg>
    <svg xmlns="http://www.w3.org/2000/svg" viewBox="0 0 512 512" width="512" height="512" id="c">
      <path d="M446 194.956c0-22.858-18.597-41.454-41.455-41.454a41.184 41.184 0 0 0-21.453 6.001V71.462c0-11.035-4.321-21.436-12.168-29.283-7.848-7.849-18.249-12.171-29.286-12.171a41.204 41.204 0 0 0-21.794 6.204C317.251 15.834 299.76 0 278.72 0c-21.139 0-38.633 15.904-41.147 36.374a41.175 41.175 0 0 0-21.764-6.199c-22.86 0-41.458 18.597-41.458 41.456v50.252a41.196 41.196 0 0 0-21.467-6.004h-45.435C84.594 115.879 66 134.473 66 157.328s18.594 41.449 41.449 41.449h3.986v94.35c0 32.473 12.744 62.746 38.937 92.439V502c0 5.522 4.477 10 10 10h213.514c5.523 0 10-4.478 10-10V385.83c4.792-4.804 9.739-9.439 14.549-13.946C421.82 349.973 446 327.316 446 289.047zm-314.061 108.19a39.67 39.67 0 0 1 27.057-10.675c21.854 0 39.633 17.779 39.633 39.634 0 19.771-14.626 36.546-34.116 39.252-19.482-22.386-30.208-44.825-32.574-68.211zM245.722 492v-.543c0-26.669 21.699-48.365 48.37-48.365a10 10 0 0 0 9.086-5.823c11.283-24.548 34.478-41.421 60.709-44.875V492zm139.039-134.711c-4.98 4.666-10.103 9.466-15.161 14.544-34.281 1.524-65.529 21.274-81.836 51.549-34.745 3.203-62.042 32.512-62.042 68.075V492h-55.349V390.652c27.777-5.363 48.257-29.859 48.257-58.547 0-32.882-26.751-59.634-59.633-59.634a59.633 59.633 0 0 0-27.561 6.756v-80.449h.841c5.523 0 10-4.478 10-10s-4.477-10-10-10H107.45c-11.827 0-21.449-9.622-21.449-21.449s9.622-21.449 21.449-21.449h45.435c11.824 0 21.446 9.619 21.449 21.443 0 .196.006.391.018.584v30.068c0 5.522 4.477 10 10 10s10-4.478 10-10V71.631c0-11.831 9.626-21.456 21.458-21.456 11.681 0 21.244 9.422 21.453 21.064v116.735c0 5.522 4.477 10 10 10s10-4.478 10-10V71.742c.002-.098.004-.197.003-.296 0-.106-.002-.212-.003-.317V41.457c0-11.831 9.626-21.457 21.458-21.457 11.771 0 21.397 9.575 21.457 21.295v146.68c0 5.522 4.477 10 10 10s10-4.478 10-10V71.826c.004-.121.007-.242.007-.365 0-11.83 9.625-21.454 21.455-21.454 5.695 0 11.073 2.242 15.143 6.312s6.311 9.447 6.311 15.142v123.234l-.001.173.001.138V235.7c-17.651 5.226-31.647 14.951-44.603 30.808-3.494 4.277-2.86 10.577 1.417 14.071a9.954 9.954 0 0 0 6.321 2.256 9.983 9.983 0 0 0 7.75-3.673c11.911-14.579 24.225-22.321 41.175-25.891a10 10 0 0 0 7.94-9.785v-48.752c.118-11.725 9.705-21.234 21.453-21.234 11.83 0 21.454 9.624 21.455 21.454v94.091c-.002 29.603-19.113 47.51-41.241 68.244z" />
    </svg>
    <svg xmlns="http://www.w3.org/2000/svg" viewBox="0 0 512.002 512.002" width="512.002" height="512.002" id="d">
      <path d="m457.32 235.99 47.195-63.894a10 10 0 0 0-5.029-15.475l-75.737-23.951.625-79.431a10 10 0 0 0-13.165-9.565l-75.35 25.141-46.182-64.628a9.997 9.997 0 0 0-16.272 0l-46.182 64.628-75.35-25.141a9.999 9.999 0 0 0-13.165 9.565l.625 79.431-75.736 23.951a9.998 9.998 0 0 0-5.029 15.475l33.141 44.868-5.455 5.456c-19.903 19.903-33.609 44.979-39.636 72.515a149.21 149.21 0 0 0-3.102 42.185L8.46 372.175c-3.905 3.905-3.906 10.237 0 14.143 1.953 1.952 4.512 2.929 7.071 2.929s5.119-.977 7.071-2.929l24.679-24.679a148.838 148.838 0 0 0 4.002 13.713c1.428 4.141 5.305 6.742 9.453 6.742a10 10 0 0 0 3.261-.549c5.221-1.801 7.994-7.493 6.193-12.714-15.899-46.103-4.042-98.021 30.206-132.269l18.755-18.755c4.812-4.812 11.314-7.452 18.249-7.367 7.022.062 13.631 2.836 18.607 7.812l56.737 56.736c4.083 4.083 6.333 9.545 6.333 15.38s-2.249 11.298-6.333 15.381c-8.48 8.481-22.28 8.481-30.761 0l-28.435-28.436c-3.906-3.903-10.237-3.904-14.142 0-3.905 3.905-3.906 10.237 0 14.143 19.76 19.76 19.759 51.912-.001 71.672-3.905 3.905-3.905 10.237 0 14.143 3.905 3.904 10.237 3.904 14.143 0 14.335-14.336 21.214-33.348 20.635-52.172 11.468 7.663 25.921 9.036 38.46 4.125a41.534 41.534 0 0 0 11.825 23.849c6.77 6.77 15.486 10.92 24.914 11.941a42.004 42.004 0 0 0-2.18 13.417c0 11.177 4.33 21.661 12.191 29.522a41.451 41.451 0 0 0 19.694 11.028c-34.251 32.824-85.121 43.969-130.383 28.361-5.223-1.805-10.914.972-12.714 6.192-1.801 5.222.972 10.914 6.193 12.714a148.216 148.216 0 0 0 13.713 4.002l-24.679 24.679c-3.905 3.905-3.905 10.237 0 14.143 1.953 1.952 4.512 2.929 7.071 2.929s5.119-.977 7.071-2.929l35.056-35.057a149.066 149.066 0 0 0 42.183-3.103c27.537-6.026 52.611-19.732 72.515-39.634l31.273-31.273 84.824 28.301a9.996 9.996 0 0 0 9.043-1.396 9.999 9.999 0 0 0 4.122-8.169l-.625-79.431 75.737-23.951a9.998 9.998 0 0 0 5.029-15.475zm-290.906-35.238 27.292-27.292c8.48-8.479 22.28-8.482 30.762.001 8.48 8.479 8.479 22.278-.001 30.76l-27.104 27.103-27.213-27.214a47.393 47.393 0 0 0-3.736-3.358zm45.091 44.714 27.084-27.083.02-.019 9.979-9.979c8.481-8.481 22.28-8.481 30.76 0 8.481 8.48 8.481 22.28 0 30.761l-41.417 41.417c-1.767-7.417-5.54-14.21-11.046-19.716zm27.104 62.703 44.868-44.868.057-.056c8.48-8.458 22.271-8.448 30.74.02 8.48 8.481 8.48 22.281-.001 30.762L269.37 338.93c-4.083 4.084-9.545 6.333-15.38 6.333-5.834 0-11.297-2.248-15.381-6.332-8.481-8.481-8.481-22.281 0-30.762zm28.592 70.262c0-5.834 2.249-11.296 6.333-15.38l9.978-9.979 34.791-34.792c.082-.079.164-.16.244-.243 8.49-8.371 22.208-8.334 30.65.109 8.481 8.481 8.481 22.281 0 30.762l-44.945 44.945-.049.047c-8.48 8.383-22.239 8.342-30.67-.09-4.083-4.082-6.332-9.544-6.332-15.379zm143.475-55.962a9.998 9.998 0 0 0-6.984 9.613l.574 72.823-62.07-20.709 21.144-21.144c16.278-16.279 16.278-42.767 0-59.047-6.967-6.966-15.804-10.95-24.911-11.953 4.915-14.571 1.577-31.337-10.013-42.928-6.965-6.965-15.802-10.949-24.912-11.951 4.916-14.572 1.577-31.338-10.014-42.93-11.589-11.589-28.354-14.926-42.926-10.013-1.003-9.107-4.988-17.944-11.955-24.912-16.279-16.278-42.766-16.276-59.045 0l-32.224 32.225c-14.403-3.223-29.975.478-41.316 11.14L82.97 171.471l69.436-21.959a9.998 9.998 0 0 0 6.984-9.613l-.573-72.823 69.082 23.05a10 10 0 0 0 11.301-3.673l42.34-59.252 42.341 59.252a10 10 0 0 0 11.301 3.673l69.082-23.05-.573 72.823a9.997 9.997 0 0 0 6.984 9.613l69.437 21.959-43.269 58.578a9.999 9.999 0 0 0 0 11.883l43.269 58.578z" />
    </svg>
    <svg xmlns="http://www.w3.org/2000/svg" viewBox="0 0 511.988 511.988" width="511.988" height="511.988" id="e">
      <path d="M184.599 165.379c-27.669 0-50.18 22.511-50.18 50.18V245.2c0 27.669 22.511 50.18 50.18 50.18s50.18-22.511 50.18-50.18v-29.641c0-27.669-22.511-50.18-50.18-50.18zm30.18 79.821c0 16.642-13.538 30.18-30.18 30.18s-30.18-13.538-30.18-30.18v-29.641c0-16.642 13.538-30.18 30.18-30.18s30.18 13.538 30.18 30.18zM268.669 299.225l-7.128-4.752a9.998 9.998 0 0 0-11.094 0l-7.128 4.752c-4.596 3.063-5.837 9.272-2.773 13.867 3.063 4.596 9.272 5.837 13.867 2.773l1.581-1.054 1.581 1.054a9.952 9.952 0 0 0 5.538 1.681 9.99 9.99 0 0 0 8.329-4.454c3.064-4.594 1.823-10.803-2.773-13.867z" />
      <path d="M472.983 395.55c-7.104-1.903-15.274-3.039-23.844-3.326l-45.443-45.443c16.937-14.33 26.042-36.726 26.042-65.912v-81.364c0-18.505-2.293-36.518-6.725-53.613l26.129-26.129c8.571-.287 16.742-1.423 23.845-3.326 32.192-8.63 40.943-31.982 38.655-49.358-2.316-17.591-15.229-31.069-32.071-34.661-3.592-16.842-17.07-29.756-34.662-32.072-17.379-2.298-40.729 6.463-49.357 38.657-1.903 7.102-3.039 15.272-3.325 23.844l-7.876 7.875a177.794 177.794 0 0 0-2.624-2.995c-32.019-35.696-76.671-55.355-125.732-55.355s-93.714 19.66-125.733 55.358c-.886.988-1.76 1.986-2.623 2.993l-7.877-7.877c-.287-8.57-1.423-16.74-3.326-23.844C107.808 6.808 84.448-1.93 67.079.344 49.487 2.661 36.008 15.576 32.416 32.418 15.574 36.01 2.661 49.488.345 67.078c-2.288 17.377 6.463 40.729 38.654 49.359 7.103 1.903 15.273 3.039 23.846 3.326l26.129 26.13c-4.432 17.095-6.725 35.107-6.725 53.612v81.364c0 29.186 9.105 51.582 26.042 65.911l-45.442 45.443c-8.569.287-16.739 1.422-23.843 3.326C6.811 404.175-1.942 427.527.345 444.903c2.316 17.593 15.231 31.073 32.075 34.665 3.592 16.844 17.072 29.76 34.665 32.075 1.706.226 3.47.344 5.271.344 16.548-.001 36.304-9.97 44.083-39.003 1.903-7.103 3.039-15.273 3.325-23.845l53.417-53.416c4.404 8.458 12.065 14.922 21.286 17.678v23.836c0 23.367 19.011 42.378 42.378 42.378h38.137c23.367 0 42.378-19.011 42.378-42.378v-23.824c9.284-2.751 16.997-9.231 21.424-17.712l53.438 53.438c.287 8.568 1.422 16.739 3.326 23.843 7.779 29.036 27.533 39.004 44.082 39.004a40.704 40.704 0 0 0 5.271-.343c17.593-2.316 31.073-15.232 34.665-32.076 16.844-3.592 29.76-17.072 32.076-34.665 2.288-17.374-6.465-40.726-38.659-49.352zM357.569 245.2c0 4.996-1.22 9.711-3.378 13.865-.2.323-.381.656-.541.996-5.193 9.14-15.018 15.319-26.261 15.319-16.642 0-30.18-13.538-30.18-30.18v-59.82h60.359v59.82zm10-79.821H287.21c-1.268 0-2.48.237-3.597.667l-24.248-25.668h141.198c5.957 18.222 9.175 38.104 9.175 59.127v81.364c0 6.194-.456 11.944-1.364 17.248l-33.815-35.796a49.955 49.955 0 0 0 3.009-17.122v-69.82c.001-5.522-4.477-10-9.999-10zm41.657-91.248a10.001 10.001 0 0 0 2.929-7.062c.009-8.377.947-16.293 2.716-22.89 5.271-19.67 17.628-25.298 27.428-24.007 8.775 1.155 18.22 8.313 18.22 21.298 0 5.522 4.477 10 10 10 12.983 0 20.141 9.444 21.296 18.219 1.291 9.803-4.337 22.157-24.004 27.429-6.599 1.769-14.514 2.708-22.891 2.717a10.005 10.005 0 0 0-7.062 2.929l-21.702 21.701c-5.144-13.391-11.698-26.034-19.575-37.689zM255.994 32.372c60.97 0 111.511 34.769 136.63 88.007h-273.26c25.118-53.239 75.659-88.007 136.63-88.007zM74.13 102.764a10.001 10.001 0 0 0-7.062-2.929c-8.378-.009-16.293-.948-22.891-2.717-19.667-5.271-25.295-17.626-24.004-27.43 1.155-8.773 8.312-18.218 21.296-18.218 5.523 0 10-4.478 10-10 0-12.984 9.444-20.143 18.22-21.298 9.813-1.287 22.156 4.338 27.427 24.007 1.769 6.6 2.708 14.515 2.717 22.89a10.005 10.005 0 0 0 2.929 7.062l12.646 12.646c-7.877 11.656-14.432 24.298-19.575 37.689zm28.636 335.091a10.001 10.001 0 0 0-2.929 7.062c-.009 8.377-.947 16.293-2.716 22.892-5.271 19.669-17.616 25.292-27.426 24.008-8.776-1.155-18.222-8.314-18.222-21.301 0-5.522-4.478-10-10-10-12.986 0-20.145-9.445-21.3-18.222-1.29-9.803 4.339-22.154 24.009-27.425 6.601-1.769 14.516-2.708 22.89-2.717a10.005 10.005 0 0 0 7.062-2.929l51.674-51.674c11.435 4.944 24.964 7.511 40.396 7.511h2.933v6.424zm172.216 21.762h-38.137c-12.339 0-22.378-10.039-22.378-22.378v-23.803a35.785 35.785 0 0 0 15.723-9.534c6.503 6.751 15.632 10.958 25.724 10.958s19.22-4.207 25.723-10.958a35.782 35.782 0 0 0 15.724 9.534v23.803c-.001 12.339-10.04 22.378-22.379 22.378zm47.852-80.48c0 8.67-6.942 15.723-15.475 15.723-8.67 0-15.724-7.053-15.724-15.722v-17.646c0-5.522-4.478-10-10-10s-10 4.478-10 10v17.646c0 8.669-7.053 15.722-15.723 15.722s-15.724-7.053-15.724-15.722v-17.646c0-5.522-4.478-10-10-10s-10 4.478-10 10v17.646c0 8.669-7.053 15.722-15.723 15.722-8.453 0-15.331-7.053-15.331-15.723v-24.076c0-5.522-4.478-10-10-10h-12.933c-42.437 0-63.954-21.597-63.954-64.191v-81.364c0-21.023 3.218-40.905 9.175-59.127h120.427l45.358 48.014V245.2c0 27.669 22.511 50.18 50.18 50.18 14.231 0 27.098-5.956 36.239-15.505l37.351 39.539c-9.969 17.048-28.417 25.647-55.194 25.647h-12.95c-5.522 0-10 4.478-10 10v24.076zm168.98 63.157c-1.155 8.776-8.314 18.222-21.301 18.222-5.522 0-10 4.478-10 10 0 12.986-9.445 20.146-18.222 21.301-9.807 1.294-22.155-4.34-27.425-24.009-1.769-6.601-2.708-14.516-2.717-22.891a10.005 10.005 0 0 0-2.929-7.062l-66.387-66.387v-6.407h2.95c15.432 0 28.96-2.567 40.395-7.511l51.674 51.673a10.001 10.001 0 0 0 7.062 2.929c8.374.009 16.289.948 22.891 2.717 19.67 5.27 25.299 17.622 24.009 27.425z" />
    </svg>
    <svg xmlns="http://www.w3.org/2000/svg" viewBox="0 0 512.001 512.001" width="512.001" height="512.001" id="f">
      <path d="M457.002 51.002c-5.523 0-10 4.478-10 10v57.997H212.5a10 10 0 0 0-8.289 4.405l-25.462 37.722-25.461-37.722a10 10 0 0 0-8.04-4.402 10.027 10.027 0 0 0-8.249 3.997l-14.5 19.334L108 122.999a10 10 0 0 0-8-4H65V61.002c0-5.522-4.477-10-10-10-30.327 0-55 24.673-55 54.999v300C0 436.327 24.673 461 55 461h334.503a10 10 0 0 0 8.944-5.528l13.556-27.111 13.556 27.111a9.999 9.999 0 0 0 8.944 5.528h22.5c30.327 0 54.999-24.673 54.999-54.999v-300c-.001-30.326-24.673-54.999-55-54.999zM20 106.001c0-15.825 10.558-29.23 25-33.544v279.455c-9.379 1.729-17.928 5.845-25 11.692zm0 300c0-19.299 15.701-35 35-35 5.523 0 10-4.478 10-10V138.999h30L114.5 165a10.002 10.002 0 0 0 16 0l14.071-18.762 25.89 38.356a10 10 0 0 0 16.578 0l30.777-45.596h179.188v48.256c0 50.314-40.934 91.248-91.248 91.248h-99.508c-22.391 0-43.994 6.73-62.317 19.204a60.389 60.389 0 0 1-.114-3.721c0-33.084 26.916-60 60-60 5.523 0 10-4.478 10-10s-4.477-10-10-10c-44.112 0-80 35.888-80 80 0 6.487.776 12.796 2.241 18.84C106.25 333.492 95 361.187 95 389.752V441H55c-19.299 0-35-15.7-35-34.999zM457.002 441h-16.319l-19.736-39.473a9.999 9.999 0 0 0-17.888 0L383.322 441H114.999v-51.248c0-20.305 6.945-40.083 19.396-56.04 13.813 24.045 39.758 40.273 69.421 40.273h51c5.523 0 10-4.478 10-10s-4.477-10-10-10h-51c-24.272 0-45.223-14.487-54.663-35.268 16.206-13.08 36.238-20.215 57.094-20.215h99.508c61.342 0 111.248-49.905 111.248-111.248v-48.256h30V361c0 5.522 4.477 10 10 10 19.298 0 34.999 15.701 34.999 35s-15.701 35-35 35zm34.999-77.396c-7.071-5.848-15.621-9.963-24.999-11.692V72.457c14.441 4.313 24.999 17.719 24.999 33.544z" />
      <path d="m265.584 208.074-8.838 8.838c-3.905 3.905-3.905 10.237 0 14.143 1.953 1.952 4.512 2.929 7.071 2.929s5.119-.977 7.071-2.929l8.839-8.839 8.839 8.839c1.953 1.952 4.512 2.929 7.071 2.929s5.119-.977 7.071-2.929c3.905-3.905 3.905-10.237 0-14.143l-8.838-8.838 8.839-8.839c3.905-3.905 3.905-10.237 0-14.143-3.905-3.904-10.237-3.904-14.143 0l-8.839 8.839-8.839-8.839c-3.905-3.904-10.237-3.904-14.142 0-3.905 3.905-3.905 10.237 0 14.143zM329.816 328.985c-19.299 0-35 15.701-35 35s15.701 34.999 35 34.999 35-15.7 35-34.999-15.701-35-35-35zm0 49.999c-8.271 0-15-6.729-15-14.999 0-8.271 6.729-15 15-15s15 6.729 15 15c-.001 8.271-6.729 14.999-15 14.999z" />
    </svg>
    <svg xmlns="http://www.w3.org/2000/svg" viewBox="0 0 512 512" width="512" height="512" id="g">
      <path d="M476 492h-19.999V383.98h10c5.522 0 10-4.478 10-10v-40c0-5.522-4.478-10-10-10h-50v-60.208h10c5.522 0 10-4.478 10-10v-40c0-5.522-4.478-10-10-10h-21.027c-22.794-58.026-77.166-97.583-138.973-101.458V70.253c15.551.846 23.423 3.684 31.686 6.662C308.711 80.89 320.111 85 346.001 85c5.522 0 10-4.478 10-10V25c0-5.522-4.478-10-10-10-22.416 0-31.741-3.356-41.613-6.909C293.335 4.113 281.906 0 256.001 0c-5.522 0-10 4.478-10 10v92.315c-61.738 3.882-116.176 43.461-138.972 101.457H86.001c-5.522 0-10 4.478-10 10v40c0 5.522 4.478 10 10 10h10v60.208h-50c-5.522 0-10 4.478-10 10v40c0 5.522 4.478 10 10 10h10V492H36c-5.522 0-10 4.478-10 10s4.478 10 10 10h440c5.522 0 10-4.478 10-10s-4.478-10-10-10zM266.001 20.255c15.479.847 23.354 3.682 31.613 6.654 9.517 3.425 19.312 6.95 38.387 7.864v29.972c-15.45-.847-23.301-3.677-31.532-6.645-9.515-3.43-19.312-6.962-38.468-7.875zm-10 101.746c54.98 0 104.538 32.353 127.244 81.771H128.759c22.718-49.398 72.335-81.771 127.242-81.771zm-160 101.771h320v20h-320zm20 40h280v60.208h-40v-20c0-5.522-4.478-10-10-10s-10 4.478-10 10v20h-40v-20c0-5.522-4.478-10-10-10s-10 4.478-10 10v20h-40v-20c0-5.522-4.478-10-10-10s-10 4.478-10 10v20h-40v-20c0-5.522-4.478-10-10-10s-10 4.478-10 10v20h-40zm-60 80.208h400v20h-400zm250 148.02h-100v-58.02h100zm20 0v-68.02c0-5.522-4.478-10-10-10h-120c-5.522 0-10 4.478-10 10V492h-110V383.98h360V492z" />
      <path d="M131.001 412.99c-5.522 0-10 4.478-10 10v29.999c0 5.522 4.478 10 10 10s10-4.478 10-10V422.99c0-5.522-4.478-10-10-10zM381.001 412.99c-5.522 0-10 4.478-10 10v29.999c0 5.522 4.478 10 10 10s10-4.478 10-10V422.99c0-5.522-4.478-10-10-10z" />
    </svg>
    <svg xmlns="http://www.w3.org/2000/svg" viewBox="0 0 512.002 512.002" width="512.002" height="512.002" id="h">
      <path d="M410.473 201.161a10.003 10.003 0 0 0-10.472.944l-20.667 15.5-20.666-15.5a10 10 0 0 0-12 0l-20.667 15.5-20.667-15.5a9.999 9.999 0 0 0-12 0l-20.666 15.5-20.667-15.5a10 10 0 0 0-16 8v60c0 3.147 1.482 6.111 4 8l26.667 20a9.999 9.999 0 0 0 12 0l20.666-15.5 20.667 15.5c1.777 1.333 3.889 2 6 2s4.223-.667 6-2l20.667-15.5 20.666 15.5a10 10 0 0 0 12 0l26.667-20c2.518-1.889 4-4.853 4-8v-60a10 10 0 0 0-5.528-8.944zm-14.472 63.945-16.667 12.5-20.666-15.5a10 10 0 0 0-12 0l-20.667 15.5-20.667-15.5c-1.778-1.333-3.889-2-6-2s-4.223.667-6 2l-20.666 15.5-16.667-12.5v-35l10.667 8a9.999 9.999 0 0 0 12 0l20.666-15.5 20.667 15.5a9.999 9.999 0 0 0 12 0l20.667-15.5 20.666 15.5a10 10 0 0 0 12 0l10.667-8zM273.501 183.259c20.678 0 37.5-16.822 37.5-37.5v-7.185a10.002 10.002 0 0 0-11.71-9.853c-16.534 2.873-34.058-1.818-46.869-12.545a10 10 0 0 0-16.42 7.667v21.916c-.001 20.678 16.821 37.5 37.499 37.5zm-17.5-41.278c10.756 5.073 22.653 7.694 34.59 7.556-1.731 7.84-8.736 13.722-17.09 13.722-9.649 0-17.5-7.85-17.5-17.5zM352.712 128.722a9.998 9.998 0 0 0-11.71 9.853v7.185c0 20.677 16.822 37.5 37.5 37.5s37.5-16.822 37.5-37.5v-21.916a10 10 0 0 0-16.42-7.667c-12.812 10.727-30.338 15.415-46.87 12.545zm43.289 17.037c0 9.649-7.851 17.5-17.5 17.5-8.354 0-15.358-5.882-17.09-13.723 11.923.142 23.835-2.483 34.59-7.556z" />
      <path d="M419.01 46.993C388.706 16.689 348.572 0 306.001 0c-42.572 0-82.706 16.688-113.009 46.991S146.001 117.428 146.001 160v97.014c-.006 8.264-6.735 14.988-15 14.988-8.271 0-15-6.729-15-15 0-19.299-15.701-35-35-35s-35 15.701-35 35c0 55.872 21.905 108.547 61.679 148.321 18.77 18.77 40.414 33.56 63.911 43.947-13.391 7.65-16.833 16.33-16.833 23.227 0 27.143 52.481 39.505 101.244 39.505 48.762 0 101.243-12.362 101.243-39.505 0-6.905-3.446-15.583-16.83-23.228 23.496-10.387 45.138-25.176 63.908-43.945 39.774-39.774 61.679-92.449 61.679-148.321V160c-.001-42.57-16.69-82.704-46.992-113.007zm-81.764 425.473c-.183 1.108-4.55 6.699-21.314 11.855-16.104 4.953-37.388 7.68-59.931 7.68s-43.827-2.728-59.931-7.68c-16.765-5.156-21.132-10.748-21.314-11.795.218-1.323 5.468-7.665 25.447-13.046 17.967 4.96 36.696 7.521 55.798 7.521s37.831-2.561 55.798-7.521c19.969 5.378 25.228 11.715 25.447 12.986zm108.755-215.465c0 104.766-85.233 190-190 190s-190-85.234-190-190c0-8.271 6.729-15 15-15s15 6.729 15 15c0 19.299 15.702 35 35 35a34.793 34.793 0 0 0 15-3.381v18.382c0 5.523 4.477 10 10 10s10-4.477 10-10V160c0-77.196 62.804-140 140-140s140 62.804 140 140z" />
    </svg>
    <svg xmlns="http://www.w3.org/2000/svg" viewBox="0 0 511.999 511.999" width="511.999" height="511.999" id="i">
      <path d="M438.071 247.928 396 205.857v-65.858C396 62.804 333.197 0 256 0S116 62.804 116 139.999v65.857l-42.071 42.071A10.003 10.003 0 0 0 71 254.998v45c0 5.522 4.477 10 10 10h30v12.5c0 17.921 14.579 32.5 32.5 32.5h57.723l-44.437 137h-12.731c-5.523 0-10 4.478-10 10s4.477 10 10 10h223.89c5.522 0 10-4.478 10-10s-4.478-10-10-10h-12.732l-44.436-137h57.722c17.921 0 32.5-14.579 32.5-32.5v-12.5h30c5.522 0 10-4.478 10-10v-45c0-2.651-1.053-5.194-2.928-7.07zM256 20c66.168 0 120 53.831 120 119.999v60h-58.26c14.606-24.682 22.784-49.538 22.784-69.98 0-24.473-9.89-48.359-27.133-65.534C297.53 48.687 277.089 40 255.875 40h-.624c-21.291 0-41.734 8.688-57.595 24.485-17.243 17.175-27.133 41.062-27.133 65.534 0 25.682 11.856 51.576 22.78 69.98H136v-60C136 73.831 189.832 20 256 20zm-39.04 179.999c-16.833-24.985-26.435-50.335-26.435-69.98 0-19.193 7.744-37.914 21.247-51.363C223.856 66.62 239.29 60 255.333 60h.462c15.963 0 31.399 6.62 43.482 18.656 13.503 13.448 21.247 32.17 21.247 51.363 0 19.661-9.598 44.997-26.435 69.98zm117.228 292H177.811l44.437-137h67.504zm46.811-169.5c0 6.893-5.607 12.5-12.5 12.5h-225c-6.892 0-12.5-5.607-12.5-12.5v-12.5h250zm40-32.5H91v-30.857l39.143-39.143h251.715L421 259.141v30.858z" />
      <path d="M380.999 244.999h-50c-5.522 0-10 4.478-10 10s4.478 10 10 10h50c5.522 0 10-4.478 10-10s-4.477-10-10-10zM280.999 244.999h-50c-5.523 0-10 4.478-10 10s4.477 10 10 10h50c5.522 0 10-4.478 10-10s-4.477-10-10-10zM181 244.999h-50c-5.523 0-10 4.478-10 10s4.477 10 10 10h50c5.523 0 10-4.478 10-10s-4.477-10-10-10zM294.06 144.567c-1.43-5.335-6.916-8.502-12.247-7.071l-5 1.34c-5.335 1.43-8.501 6.913-7.071 12.247 1.197 4.469 5.237 7.415 9.653 7.415a9.98 9.98 0 0 0 2.594-.344l5-1.34c5.334-1.429 8.501-6.913 7.071-12.247zM233.114 138.836l-5-1.34c-5.335-1.431-10.818 1.736-12.248 7.071-1.43 5.334 1.736 10.817 7.071 12.247l5 1.34a10.03 10.03 0 0 0 2.595.344c4.415 0 8.456-2.947 9.653-7.415 1.429-5.334-1.737-10.817-7.071-12.247z" />
    </svg>
    <svg xmlns="http://www.w3.org/2000/svg" viewBox="0 0 512.001 512.001" width="512.001" height="512.001" id="j">
      <path d="M187.852 375.115c-4.781-2.761-10.898-1.122-13.66 3.66l-27.188 47.09c-2.762 4.783-1.123 10.898 3.66 13.66a9.995 9.995 0 0 0 13.66-3.66l27.188-47.09c2.762-4.783 1.123-10.899-3.66-13.66zM143.266 362.34c-4.783-2.762-10.899-1.124-13.66 3.66l-24.51 42.452c-2.762 4.783-1.123 10.898 3.66 13.66a9.995 9.995 0 0 0 13.66-3.66L146.926 376c2.762-4.783 1.123-10.898-3.66-13.66z" />
      <path d="M446 316H327.156c-22.91 0-42.471 14.609-49.859 35h-42.594c-7.387-20.391-26.949-35-49.858-35H66c-5.523 0-10 4.478-10 10v75c0 46.869 38.131 85 85 85h11.852c43.487 0 79.45-32.826 84.415-75h37.467c4.965 42.174 40.928 75 84.415 75h11.853C417.869 486 456 447.87 456 401v-75c0-5.522-4.478-10-10-10zm-208.148 55h36.296v20h-36.296zm-20 30c0 35.841-29.159 65-65 65H141c-35.841 0-65-29.159-65-65v-65h108.845c18.2 0 33.007 14.807 33.007 33.007zM436 401c0 35.841-29.158 65-64.999 65h-11.853c-35.841 0-65-29.159-65-65v-31.993c0-18.2 14.808-33.007 33.008-33.007H436z" />
      <path d="M326.904 422.113a9.997 9.997 0 0 0 13.66-3.66L365.074 376c2.762-4.783 1.123-10.898-3.66-13.66-4.785-2.762-10.9-1.122-13.66 3.66l-24.51 42.452c-2.762 4.784-1.123 10.899 3.66 13.661zM368.813 439.525a9.997 9.997 0 0 0 13.66-3.66l27.188-47.09c2.762-4.783 1.123-10.898-3.66-13.66-4.785-2.762-10.897-1.122-13.66 3.66l-27.188 47.09c-2.761 4.783-1.123 10.898 3.66 13.66zM502.001 206h-84.53l-.209-.813c-7.423-28.882-18.64-72.527-31.889-108.636C367.471 47.759 351.046 26 332.118 26c-20.622 0-40.512 7.43-58.06 13.985-11.759 4.393-22.89 8.551-31.129 9.119-3.596-1.77-7.162-3.61-10.703-5.438C215.405 34.981 198.012 26 179.421 26c-18.479 0-34.512 20.901-51.988 67.771-12.961 34.763-23.779 76.013-31.678 106.133-.55 2.098-1.083 4.132-1.6 6.096H10c-5.523 0-10 4.478-10 10 0 38.599 31.402 70 70 70h372.001c38.598 0 70-31.402 70-70.001 0-5.522-4.478-9.999-10-9.999zM179.421 46c13.732 0 28.255 7.498 43.63 15.438 18.744 9.679 39.959 20.648 64.458 20.062 5.521-.132 9.891-4.716 9.758-10.236-.132-5.521-4.737-9.88-10.236-9.758a62.738 62.738 0 0 1-11.328-.792c1.771-.653 3.556-1.32 5.355-1.992C297.019 52.758 315.109 46 332.118 46c1.372 0 13.995 1.611 34.479 57.439 4.936 13.45 9.602 28.056 13.894 42.56H131.287c4.568-15.409 9.553-30.939 14.886-45.241C166.017 47.537 178.107 46 179.421 46zm-64.319 158.977c3.058-11.661 6.559-25.013 10.448-38.978h260.662c4.022 14.507 7.597 28.293 10.609 40H114.833l.269-1.022zM442.001 266H70c-24.146 0-44.349-17.207-48.996-40h469.992c-4.645 22.794-24.85 40-48.995 40z" />
    </svg>
    <svg xmlns="http://www.w3.org/2000/svg" viewBox="0 0 512.016 512.016" width="512.016" height="512.016" id="k">
      <path d="m509.963 162.741-44.486-58.383 23.675-68.791a10 10 0 0 0-12.71-12.71l-68.791 23.675-58.383-44.486a9.999 9.999 0 0 0-16.057 8.22l1.942 72.935-59.677 41.273a10 10 0 0 0 2.762 17.786l32.165 9.848L10.228 452.283C3.637 458.874.007 467.664.007 477.032c0 9.369 3.63 18.158 10.222 24.749 6.823 6.823 15.786 10.234 24.749 10.234s17.925-3.412 24.749-10.234L359.9 201.607l9.847 32.164a10.002 10.002 0 0 0 17.787 2.762l41.273-59.676 72.936 1.942a9.979 9.979 0 0 0 9.167-5.439 10 10 0 0 0-.947-10.619zM45.584 487.639c-5.849 5.849-15.365 5.848-21.214 0-2.813-2.813-4.363-6.58-4.363-10.606s1.55-7.793 4.364-10.606l255.385-255.385 21.213 21.213zm269.527-269.527-21.213-21.213 38.159-38.159 16.241 4.972 4.972 16.241zm108.817-61.393a10.012 10.012 0 0 0-8.491 4.308l-32.61 47.15-16.961-55.4a10.002 10.002 0 0 0-6.635-6.635l-55.4-16.961 47.15-32.609a10.002 10.002 0 0 0 4.308-8.491l-1.53-57.468 46.025 35.07a9.996 9.996 0 0 0 9.315 1.501l54.471-18.747-18.747 54.471a10.002 10.002 0 0 0 1.501 9.315l35.07 46.026z" />
      <path d="m143.682 100.907-15.798 33.374a9.999 9.999 0 0 0 11.285 14.023l36.402-8.389 27.331 25.467a10 10 0 0 0 16.784-6.502l3.005-36.802 32.648-17.708a10 10 0 0 0-.909-18.015l-34.513-14.433-7.076-36.375a10.001 10.001 0 0 0-17.362-4.652l-24.316 27.963-37.107-4.758a10 10 0 0 0-9.795 15.148zm30.244-21.532a9.998 9.998 0 0 0 8.817-3.357l14.378-16.535 4.184 21.509a10 10 0 0 0 5.958 7.316l20.18 8.439-19.047 10.331a9.999 9.999 0 0 0-5.199 7.976l-1.766 21.622-16.114-15.015a10.001 10.001 0 0 0-9.063-2.429l-21.462 4.946 9.282-19.607a10 10 0 0 0-.515-9.507l-11.33-18.471zM476.463 299.169l-36.375-7.077-14.433-34.513a9.998 9.998 0 0 0-8.721-6.129 10.027 10.027 0 0 0-9.295 5.22l-17.708 32.649-36.801 3.005a10.001 10.001 0 0 0-6.503 16.783l25.466 27.331-8.389 36.402a10 10 0 0 0 14.023 11.285l33.374-15.798 31.66 19.421a9.99 9.99 0 0 0 5.229 1.476 10.002 10.002 0 0 0 9.919-11.271l-4.757-37.106 27.963-24.316a10 10 0 0 0-4.652-17.362zm-40.472 30.097a10 10 0 0 0-3.357 8.817l2.782 21.696-18.471-11.33a10 10 0 0 0-9.507-.515l-19.607 9.282 4.946-21.462a9.999 9.999 0 0 0-2.428-9.062l-15.014-16.114 21.621-1.766a10.002 10.002 0 0 0 7.977-5.199l10.331-19.047 8.439 20.179a10 10 0 0 0 7.316 5.958l21.51 4.185z" />
    </svg>
    <svg xmlns="http://www.w3.org/2000/svg" viewBox="0 0 512.002 512.002" width="512.002" height="512.002" id="l">
      <path d="M460.447 47.629a9.998 9.998 0 0 0-7.674-5.539 9.987 9.987 0 0 0-8.855 3.339c-15.011 17.21-40.08 30.712-71.152 38.445-5.562-31.419-12.954-58.989-22.318-78.245A9.998 9.998 0 0 0 342.774.09a9.986 9.986 0 0 0-8.855 3.339C309.323 31.623 258.393 49.14 201.001 49.14S92.679 31.623 68.084 3.428A9.984 9.984 0 0 0 59.229.089a9.998 9.998 0 0 0-7.674 5.539C26.995 56.132 16.001 163.83 16.001 248.161c0 46.253 16.686 87.394 51.009 125.773 29.036 32.467 70.091 62.604 129.203 94.846a10.003 10.003 0 0 0 9.576 0 912.056 912.056 0 0 0 18.153-10.163c22.625 17.244 49.604 34.347 82.271 52.164a10.003 10.003 0 0 0 9.576 0c59.112-32.241 100.167-62.379 129.203-94.846 34.324-38.38 51.009-79.521 51.009-125.773 0-84.329-10.994-192.027-35.554-242.533zM201.001 448.592c-115.592-63.928-165-124.054-165-200.431 0-87.773 11.283-174.804 28.05-220.677 30.625 26.299 80.415 41.655 136.95 41.655s106.325-15.356 136.95-41.655c16.768 45.874 28.05 132.904 28.05 220.677 0 76.377-49.408 136.503-165 200.431zm110 42.002c-26.583-14.698-49.131-28.871-68.44-43.028 39.979-24.525 69.843-48.373 92.431-73.631 34.324-38.38 51.01-79.521 51.01-125.773 0-45.572-3.211-97.969-10.038-144.476 29.573-7.107 54.077-18.765 71.992-34.185 16.764 45.879 28.045 132.902 28.045 220.662 0 76.376-49.408 136.502-165 200.431z" />
      <path d="M141.353 210.731c22.004-5.896 38.459-24.459 42.944-48.446a10 10 0 0 0-2.236-8.345c-15.877-18.529-39.411-26.378-61.413-20.483-22.004 5.896-38.459 24.459-42.943 48.446a10 10 0 0 0 2.236 8.345c12.387 14.457 29.431 22.412 46.775 22.412 4.887-.001 9.8-.633 14.637-1.929zm-15.529-57.956c13.052-3.498 27.1.557 37.668 10.613-4.124 13.993-14.264 24.527-27.314 28.024-13.05 3.498-27.098-.556-37.667-10.613 4.123-13.993 14.263-24.527 27.313-28.024zM260.648 210.731a56.501 56.501 0 0 0 14.638 1.929c17.343-.001 34.389-7.956 46.775-22.412a10.004 10.004 0 0 0 2.236-8.345c-4.485-23.987-20.94-42.551-42.944-48.446-22.006-5.898-45.536 1.953-61.413 20.483a10.004 10.004 0 0 0-2.236 8.345c4.486 23.987 20.941 42.55 42.944 48.446zm15.53-57.956c13.05 3.497 23.19 14.031 27.314 28.025-10.569 10.058-24.618 14.11-37.667 10.612-13.05-3.497-23.19-14.031-27.314-28.025 10.567-10.056 24.616-14.111 37.667-10.612zM201.001 225.707c-57.391 0-105.171 44.862-108.777 102.135a10 10 0 0 0 15.945 8.654c27.106-20.142 59.207-30.788 92.832-30.788s65.726 10.646 92.832 30.788a9.995 9.995 0 0 0 10.735.763 10 10 0 0 0 5.21-9.417c-3.607-57.273-51.387-102.135-108.777-102.135zm0 60.001c-29.969 0-58.862 7.489-84.748 21.828 11.563-35.984 45.387-61.829 84.748-61.829 39.36 0 73.184 25.845 84.747 61.828-25.885-14.338-54.777-21.827-84.747-21.827z" />
    </svg>
    <svg xmlns="http://www.w3.org/2000/svg" viewBox="0 0 512.001 512.001" width="512.001" height="512.001" id="m">
      <path d="M308.437 156.002H60c-5.523 0-10 4.477-10 10v212c0 5.523 4.477 10 10 10h248.437c5.523 0 10-4.477 10-10v-212c0-5.523-4.478-10-10-10zm-10 212H70v-192h228.437z" />
      <path d="M502.001 106.002H199.58l40.15-64.729c2.911-4.693 1.466-10.858-3.227-13.769-4.693-2.912-10.858-1.467-13.769 3.227l-38.516 62.094-38.516-62.094c-2.912-4.694-9.077-6.139-13.769-3.227-4.693 2.911-6.138 9.076-3.227 13.769l40.151 64.729H10c-5.523 0-10 4.477-10 10v312c0 5.523 4.477 10 10 10h15v38c0 5.523 4.477 10 10 10h71.341c4.258 0 8.05-2.697 9.447-6.719l14.336-41.28h251.754l14.335 41.28a10 10 0 0 0 9.447 6.719h71.341c5.523 0 10-4.477 10-10v-38h15c5.523 0 10-4.477 10-10v-312c0-5.523-4.477-10-10-10zM20 126.002h328.437v292H20zm79.229 340H45v-28h63.951zm367.772 0h-54.228l-9.723-28h63.951zm25-48H368.437v-292h123.565v292z" />
      <path d="M410.219 226.002h40c5.523 0 10-4.477 10-10s-4.477-10-10-10h-40c-5.523 0-10 4.477-10 10s4.477 10 10 10zM410.219 276.002h40c5.523 0 10-4.477 10-10s-4.477-10-10-10h-40c-5.523 0-10 4.477-10 10s4.477 10 10 10zM450.219 306.001h-40c-5.523 0-10 4.477-10 10s4.477 10 10 10h40c5.523 0 10-4.477 10-10s-4.477-10-10-10zM199.684 335.213a9.995 9.995 0 0 0 13.66-3.66l37.01-64.103c2.762-4.783 1.123-10.899-3.66-13.66-4.782-2.761-10.899-1.123-13.66 3.66l-37.01 64.103c-2.762 4.783-1.123 10.899 3.66 13.66zM121.743 290.214a9.995 9.995 0 0 0 13.66-3.66l37.009-64.104c2.762-4.783 1.123-10.899-3.66-13.66-4.783-2.762-10.899-1.123-13.66 3.66l-37.009 64.104c-2.762 4.783-1.123 10.899 3.66 13.66zM148.65 333.607a9.995 9.995 0 0 0 13.66-3.66l59.688-103.383c2.762-4.783 1.123-10.899-3.66-13.66-4.783-2.76-10.899-1.123-13.66 3.66L144.99 319.947c-2.761 4.783-1.122 10.899 3.66 13.66z" />
    </svg>
    <svg xmlns="http://www.w3.org/2000/svg" viewBox="0 0 512.002 512.002" width="512.002" height="512.002" id="n">
      <path d="M478.501 304.002h-15.565V10c0-5.522-4.478-10-10-10s-10 4.478-10 10v40h-40.001V10c0-5.522-4.478-10-10-10s-10 4.478-10 10v40H134.066V10c0-5.522-4.478-10-10-10s-10 4.478-10 10v40h-40V10c0-5.522-4.478-10-10-10s-10 4.478-10 10v294.002H33.501c-5.522 0-10 4.478-10 10v188c0 5.522 4.478 10 10 10h445c5.522 0 10-4.478 10-10v-188c0-5.523-4.478-10-10-10zm-75.566 0v-34h40.001v34zm-268.869 0v-34h248.868v34zm268.869-134.001h40.001v30h-40.001zm40.001-20h-40.001V120h40.001zm-40.001 70h40.001v30.001h-40.001zM442.936 70v30h-40.001V70zm-60.001 0v180.002H134.066V70zM74.066 170.001h40v30h-40zm40-20h-40V120h40zm-40 70h40v30.001h-40zm40-150.001v30h-40V70zm-40 200.002h40v34h-40zm394.435 222h-425v-168h425z" />
      <path d="m93.574 414.817 11.698 4.847c5.917 2.45 8.736 9.258 6.285 15.176-1.178 2.845-3.413 5.068-6.295 6.263-2.882 1.192-6.037 1.2-8.881.024l-5.849-2.423c-5.102-2.112-10.952.31-13.065 5.411-2.114 5.103.309 10.952 5.411 13.065l5.85 2.424a31.457 31.457 0 0 0 12.049 2.41c4.107 0 8.22-.812 12.139-2.435 7.818-3.238 13.898-9.308 17.12-17.088 6.67-16.105-1.005-34.636-17.11-41.307l-11.698-4.846c-2.844-1.178-5.067-3.413-6.261-6.295-1.194-2.883-1.203-6.036-.024-8.881 2.45-5.916 9.259-8.736 15.176-6.287l5.849 2.423c5.104 2.114 10.953-.309 13.065-5.411 2.114-5.103-.309-10.952-5.411-13.065l-5.85-2.424c-16.11-6.669-34.638 1.007-41.308 17.112-6.67 16.108 1.006 34.638 17.11 41.307zM157.434 462.002c5.522 0 10-4.478 10-10v-34h24.001v34c0 5.522 4.478 10 10 10s10-4.478 10-10v-88c0-5.522-4.478-10-10-10s-10 4.478-10 10v34h-24.001v-34c0-5.522-4.478-10-10-10s-10 4.478-10 10v88c0 5.522 4.477 10 10 10zM258.436 462.002c17.645 0 31.999-14.355 31.999-32v-44c0-17.645-14.355-32-32-32s-31.999 14.355-31.999 32v44c0 17.644 14.355 32 32 32zm-12-76c0-6.617 5.383-12 11.999-12h.001c6.616 0 11.999 5.383 11.999 12v44c0 6.617-5.383 12-12 12-6.616 0-11.999-5.383-11.999-12zM315.436 462.003c5.522 0 10-4.478 10-10v-34.002h5.82l19.235 38.474a9.997 9.997 0 0 0 13.416 4.472c4.94-2.47 6.942-8.477 4.473-13.416l-16.491-32.984c10.403-5.289 17.546-16.099 17.546-28.546 0-17.645-14.354-32-31.999-32h-22c-5.522 0-10 4.478-10 10v88.002c0 5.522 4.477 10 10 10zm10-88.002h12c6.616 0 11.999 5.383 11.999 12 0 6.576-5.316 11.932-11.875 11.998a7.753 7.753 0 0 0-.341.002h-11.783zM389.435 374.003h9.25v77.999c0 5.522 4.478 10 10 10s10-4.478 10-10v-77.999h9.25c5.522 0 10-4.478 10-10s-4.478-10-10-10h-38.5c-5.522 0-10 4.478-10 10s4.477 10 10 10zM210.872 204.475c3.912 6.748 11.02 10.521 18.311 10.521 3.584 0 7.213-.912 10.528-2.83l58.562-33.777a21.099 21.099 0 0 0 7.883-7.795 20.96 20.96 0 0 0 2.131-16.019c-1.453-5.447-4.941-10.003-9.836-12.835l-57.817-33.348a21.05 21.05 0 0 0-11.49-3.392C217.486 105 208 114.479 208 126.132v67.751c-.004 3.684.99 7.347 2.872 10.592zM228 126.133a1.14 1.14 0 0 1 1.144-1.132c.238 0 .446.062.636.19.196.133.397.258.603.376l58.064 33.49c.265.153.438.38.517.673.078.292.041.572-.111.835a1.06 1.06 0 0 1-.409.407 4.125 4.125 0 0 0-.113.064l-58.622 33.811a1.121 1.121 0 0 1-1.534-.407 1.138 1.138 0 0 1-.173-.547v-67.76z" />
    </svg>
    <svg xmlns="http://www.w3.org/2000/svg" viewBox="0 0 512 512" width="512" height="512" id="o">
      <path d="M412.864 136.277c-25.6-32.349-60.865-56.264-99.996-67.978l4.106-57.588A10.002 10.002 0 0 0 307 0H205a10 10 0 0 0-9.974 10.711l4.106 57.588c-39.145 11.718-74.42 35.646-100.021 68.011C70.907 171.964 56 214.735 56 260v242c0 5.523 4.478 10 10 10h380c5.522 0 10-4.477 10-10V260c0-45.28-14.916-88.062-43.136-123.723zm-36.455 254.292V492h-30V366.591l54.304-29.018a9.999 9.999 0 0 0 5.287-8.82v-65.249c0-2.982-1.331-5.808-3.629-7.708l-36.602-30.253a10 10 0 0 0-10.287-1.494l-73.398 31.235a10 10 0 0 0-6.084 9.202v36.749l-20 20-20-20v-36.75c0-4.01-2.395-7.631-6.084-9.202l-73.397-31.235a9.998 9.998 0 0 0-10.287 1.494l-36.603 30.253a10.002 10.002 0 0 0-3.629 7.708v65.249a10 10 0 0 0 5.287 8.82l54.304 29.018V492h-29.999V390.57a10 10 0 0 0-5.287-8.82L76 352.731V260c0-5.351.236-10.656.698-15.905l69.176-57.178 106.21 45.199a10.007 10.007 0 0 0 7.832 0l106.21-45.199 69.176 57.179c.462 5.249.698 10.554.698 15.904v92.731l-54.304 29.018a10.001 10.001 0 0 0-5.287 8.82zm-196.106-38.792L126 322.759v-54.546l28.284-23.378L216 271.099v34.279c0 2.652 1.054 5.196 2.929 7.071l30 30c3.906 3.905 10.236 3.905 14.143 0l30-30a10.001 10.001 0 0 0 2.929-7.071v-34.279l61.717-26.264L386 268.213v54.546l-54.304 29.018a9.999 9.999 0 0 0-5.287 8.82V492H185.591V360.597a10 10 0 0 0-5.288-8.82zM296.261 20l-8.574 120.255h-63.375L215.738 20zm-95.67 68.78 4.434 62.186a10 10 0 0 0 9.975 9.289h82a10 10 0 0 0 9.975-9.289l4.434-62.187c58.942 19.107 103.089 66.692 118.57 124.968l-55.8-46.122a10 10 0 0 0-10.287-1.494L256 212.047l-107.892-45.915a9.998 9.998 0 0 0-10.287 1.494l-55.798 46.12c15.484-58.271 59.631-105.858 118.568-124.966zM76 375.408l39.592 21.156V492H76zM396.409 492v-95.436L436 375.408V492z" />
    </svg>
  </defs>
  <g data-name="034-fantasy.svg">
    <g transform="rotate(5 -681.05 4778.657) scale(.244)">
      <path fill="transparent" d="M0 0h512v512H0z" />
      <use xlink:href="#a" />
    </g>
    <g transform="rotate(5 -937.05 -1084.707) scale(.244)">
      <path fill="transparent" d="M0 0h512v512H0z" />
      <use xlink:href="#a" />
    </g>
  </g>
  <g transform="rotate(6 -88.81 1953.018) scale(.244)" data-name="039-war.svg">
    <path fill="transparent" d="M0 0h512v512H0z" />
    <use xlink:href="#b" />
  </g>
  <g transform="rotate(-5 4368.81 -3839.655) scale(.244)" data-name="027-zombie.svg">
    <path fill="transparent" d="M0 0h512v512H0z" />
    <use xlink:href="#c" />
  </g>
  <g transform="matrix(.244 0 0 .244 159.536 152.597)" data-name="047-action movie.svg">
    <path fill="transparent" d="M0 0h512v512H0z" />
    <use xlink:href="#d" />
  </g>
  <g data-name="049-pirates.svg">
    <g transform="rotate(1 -23439.312 13663.135) scale(.244)">
      <path fill="transparent" d="M0 0h512v512H0z" />
      <use xlink:href="#e" />
    </g>
    <g transform="rotate(1 5895.382 13407.135) scale(.244)">
      <path fill="transparent" d="M0 0h512v512H0z" />
      <use xlink:href="#e" />
    </g>
  </g>
  <g data-name="031-adventure.svg">
    <g transform="rotate(-11 1402.275 -1870.123) scale(.244)">
      <path fill="transparent" d="M0 0h512v512H0z" />
      <use xlink:href="#f" />
    </g>
    <g transform="rotate(-11 1146.275 788.54) scale(.244)">
      <path fill="transparent" d="M0 0h512v512H0z" />
      <use xlink:href="#f" />
    </g>
  </g>
  <g data-name="030-politics.svg">
    <g transform="rotate(-2 9060.278 -13830.423) scale(.244)">
      <path fill="transparent" d="M0 0h512v512H0z" />
      <use xlink:href="#g" />
    </g>
    <g transform="rotate(-2 8804.278 835.807) scale(.244)">
      <path fill="transparent" d="M0 0h512v512H0z" />
      <use xlink:href="#g" />
    </g>
  </g>
  <g data-name="023-horror.svg">
    <g transform="rotate(-6 5009.889 -2838.3) scale(.244)">
      <path fill="transparent" d="M0 0h512v512H0z" />
      <use xlink:href="#h" />
    </g>
    <g transform="rotate(-6 125.118 -3094.3) scale(.244)">
      <path fill="transparent" d="M0 0h512v512H0z" />
      <use xlink:href="#h" />
    </g>
  </g>
  <g transform="rotate(13 -320.6 1408.33) scale(.244)" data-name="028-alien.svg">
    <path fill="transparent" d="M0 0h512v512H0z" />
    <use xlink:href="#i" />
  </g>
  <g transform="rotate(4 -2362.501 435.447) scale(.25)" data-name="033-detective.svg">
    <path fill="transparent" d="M0 0h512v512H0z" />
    <use xlink:href="#j" />
  </g>
  <g data-name="006-magical.svg">
    <g transform="rotate(-9 3148.193 -2576.265) scale(.25)">
      <path fill="transparent" d="M0 0h512v512H0z" />
      <use xlink:href="#k" />
    </g>
    <g transform="rotate(-9 -104.596 -2832.265) scale(.25)">
      <path fill="transparent" d="M0 0h512v512H0z" />
      <use xlink:href="#k" />
    </g>
    <g transform="rotate(-9 2892.193 676.523) scale(.25)">
      <path fill="transparent" d="M0 0h512v512H0z" />
      <use xlink:href="#k" />
    </g>
    <g transform="rotate(-9 -360.596 420.523) scale(.25)">
      <path fill="transparent" d="M0 0h512v512H0z" />
      <use xlink:href="#k" />
    </g>
  </g>
  <g transform="rotate(-16 1140.322 -183.808) scale(.25)" data-name="026-drama.svg">
    <path fill="transparent" d="M0 0h512v512H0z" />
    <use xlink:href="#l" />
  </g>
  <g transform="rotate(-7 386.613 -55.762) scale(.25)" data-name="002-series.svg">
    <path fill="transparent" d="M0 0h512v512H0z" />
    <use xlink:href="#m" />
  </g>
  <g data-name="035-short.svg">
    <g transform="rotate(4 -5847.52 1646.651) scale(.25)">
      <path fill="transparent" d="M0 0h512v512H0z" />
      <use xlink:href="#n" />
    </g>
    <g transform="rotate(4 1483.362 1390.651) scale(.25)">
      <path fill="transparent" d="M0 0h512v512H0z" />
      <use xlink:href="#n" />
    </g>
  </g>
  <g transform="rotate(5 -2785.202 3022.406) scale(.25)" data-name="010-historical.svg">
    <path fill="transparent" d="M0 0h512v512H0z" />
    <use xlink:href="#o" />
  </g>
</svg>
