<svg xmlns="http://www.w3.org/2000/svg" xmlns:xlink="http://www.w3.org/1999/xlink" width="512" height="512" viewBox="0 0 512 512">
  <defs>
    <svg xmlns="http://www.w3.org/2000/svg" width="512" viewBox="0 0 512.001 512.001" height="512" id="a">
      <path d="M371.351 234.376c-13.92-19.416-27.157-37.884-35.221-61.527 11.682-5.083 19.87-16.737 19.87-30.269 0-13.348-7.968-24.869-19.397-30.058 2.942-6.82 6.956-14.177 10.881-21.371 10.487-19.224 20.393-37.381 14.202-51.938-3.008-7.074-9.178-11.933-18.338-14.44-15.768-4.316-22.771-9.765-28.952-14.572C307.949 5.186 301.283 0 289 0c-11.291 0-18.968 4.59-25.74 8.639-6.921 4.138-12.898 7.711-23.76 7.711-6.814 0-14.426-3.451-22.484-7.104-16.152-7.322-38.275-17.354-59.7 4.538-9.248 9.45-12.221 21.198-8.835 34.919 2.61 10.58 8.742 21.375 14.671 31.813 5.934 10.446 12.025 21.171 14.358 31.135-12.548 4.673-21.51 16.775-21.51 30.93 0 13.531 8.189 25.185 19.871 30.268-8.064 23.643-21.302 42.111-35.221 61.528C118.699 264.999 96 296.663 96 348.729 96 438.757 167.775 512 256 512s160-73.243 160-163.271c0-52.067-22.698-83.731-44.649-114.353zM171.61 27.771c11.107-11.353 20.377-7.913 37.147-.311 9.639 4.37 19.605 8.889 30.742 8.889 16.385 0 26.164-5.847 34.022-10.545C279.159 22.435 283.231 20 289 20c5.42 0 7.673 1.753 13.117 5.987 6.894 5.362 16.334 12.706 35.95 18.077 1.669.456 4.565 1.451 5.215 2.977 2.401 5.648-7.081 23.03-13.355 34.532-5.056 9.268-10.248 18.785-13.702 28.017h-27.137c.852-10.25 3.53-19.561 6.076-23.971 2.762-4.782 1.123-10.898-3.66-13.66a9.999 9.999 0 0 0-13.66 3.66c-4.619 8-7.943 21.059-8.809 33.971h-22.98c-.895-16.482-5.055-33.33-10.91-43.471-2.761-4.783-8.877-6.422-13.66-3.66s-6.422 8.878-3.66 13.66c3.538 6.127 7.268 19.3 8.193 33.471H197.53c-2.577-13.581-9.88-26.438-16.988-38.951-12.993-22.875-17.764-33.843-8.932-42.868zm17.381 101.819h134.02c7.163 0 12.99 5.828 12.99 12.991s-5.827 12.99-12.99 12.99h-134.02c-7.163 0-12.99-5.828-12.99-12.991s5.827-12.99 12.99-12.99zM256 492.001c-77.196 0-140-64.271-140-143.271 0-45.639 19.869-73.355 40.905-102.7 14.872-20.746 30.21-42.143 39.116-70.458h119.957c8.907 28.314 24.245 49.711 39.116 70.458C376.131 275.373 396 303.091 396 348.729c0 79-62.803 143.272-140 143.272z" />
      <path d="M365.039 325.218c-16.755-35.395-42.258-39.524-62.75-42.843-10.89-1.764-20.294-3.286-26.916-9.119-7.656-6.744-12.135-19.904-13.69-40.232a10.002 10.002 0 0 0-14.249-8.276c-35.395 16.755-39.525 42.258-42.844 62.75-1.763 10.89-3.286 20.294-9.119 26.916-6.743 7.656-19.903 12.135-40.232 13.69a10.002 10.002 0 0 0-8.276 14.25c16.756 35.394 42.259 39.524 62.751 42.843 10.89 1.763 20.294 3.286 26.916 9.119 7.656 6.743 12.135 19.903 13.69 40.232a10 10 0 0 0 14.249 8.276c35.394-16.756 39.523-42.259 42.842-62.751 1.764-10.889 3.286-20.294 9.119-26.916 6.744-7.656 19.904-12.135 40.232-13.69a10 10 0 0 0 8.277-14.249zm-77.371 51.658c-2.513 15.516-4.745 29.312-19.353 40.514-7.967-44.249-33.034-48.312-55.405-51.936-15.516-2.513-29.312-4.746-40.514-19.354 44.249-7.967 48.312-33.034 51.936-55.405 2.513-15.516 4.746-29.312 19.354-40.514 7.965 44.258 33.033 48.313 55.405 51.937 15.516 2.512 29.312 4.745 40.513 19.353-44.249 7.967-48.312 33.034-51.936 55.405z" />
      <path d="M256.004 323.786h-.008c-5.522 0-9.996 4.478-9.996 10s4.481 10 10.004 10 10-4.478 10-10-4.477-10-10-10z" />
    </svg>
    <svg xmlns="http://www.w3.org/2000/svg" width="512" viewBox="0 0 512 512" height="512" id="b">
      <path d="M509.071 147.032 364.967 2.929A10.001 10.001 0 0 0 357.896 0H154.103a10.001 10.001 0 0 0-7.071 2.929L2.929 147.032A10.003 10.003 0 0 0 0 154.104v203.793c0 2.652 1.054 5.195 2.929 7.071l144.104 144.104a10.001 10.001 0 0 0 7.071 2.929h203.792c2.652 0 5.196-1.054 7.071-2.929l144.104-144.104a10.003 10.003 0 0 0 2.929-7.071V154.104c0-2.653-1.054-5.196-2.929-7.072zM492 353.754 353.754 492H158.246L20 353.754V158.246L158.245 20h195.509L492 158.246z" />
      <path d="M339.257 45H172.743a10.001 10.001 0 0 0-7.071 2.929L47.929 165.672A10.003 10.003 0 0 0 45 172.743v166.515c0 2.652 1.054 5.195 2.929 7.071l117.743 117.742a10.001 10.001 0 0 0 7.071 2.929h166.514c2.652 0 5.196-1.054 7.071-2.929l117.743-117.743a10.003 10.003 0 0 0 2.929-7.071V172.743c0-2.652-1.054-5.195-2.929-7.071L346.328 47.929A10.001 10.001 0 0 0 339.257 45zM447 335.114 335.115 447h-158.23L65 335.115V176.886L176.885 65h158.23L447 176.886z" />
      <path d="M106 256c0 82.71 67.29 150 150 150s150-67.29 150-150-67.29-150-150-150-150 67.29-150 150zm20 0c0-46.23 24.256-86.901 60.71-109.955C179.901 157.809 176 171.457 176 186c0 44.112 35.888 80 80 80 33.084 0 60 26.916 60 60 0 32.954-26.705 59.788-59.61 59.999L256 386c-71.682 0-130-58.317-130-130zm260 0c0 46.23-24.256 86.901-60.71 109.955C332.099 354.191 336 340.543 336 326c0-44.112-35.888-80-80-80-33.084 0-60-26.916-60-60 0-32.954 26.705-59.788 59.61-59.999L256 126c71.682 0 130 58.317 130 130z" />
      <path d="M288.5 326c0-17.921-14.58-32.5-32.5-32.5s-32.5 14.579-32.5 32.5 14.58 32.5 32.5 32.5 32.5-14.579 32.5-32.5zm-45 0c0-6.893 5.607-12.5 12.5-12.5s12.5 5.607 12.5 12.5-5.607 12.5-12.5 12.5-12.5-5.607-12.5-12.5zM223.5 186c0 17.921 14.58 32.5 32.5 32.5s32.5-14.579 32.5-32.5-14.58-32.5-32.5-32.5-32.5 14.579-32.5 32.5zm45 0c0 6.893-5.607 12.5-12.5 12.5s-12.5-5.607-12.5-12.5 5.607-12.5 12.5-12.5 12.5 5.607 12.5 12.5z" />
    </svg>
    <svg xmlns="http://www.w3.org/2000/svg" width="512" viewBox="0 0 512 512" height="512" id="c">
      <path d="M183.662 299.913c16.716 4.612 34.227 2.438 49.306-6.121l.015-.009c13.967-7.958 32.039-7.959 46.048.009 9.903 5.621 20.855 8.487 31.941 8.487 5.795 0 11.627-.783 17.365-2.366 16.716-4.611 30.635-15.456 39.193-30.535 8.559-15.08 10.733-32.591 6.122-49.306-4.611-16.716-15.456-30.635-30.528-39.189-26.621-15.141-56.748-23.143-87.124-23.143-30.375 0-60.503 8.002-87.117 23.138-15.08 8.56-25.925 22.479-30.536 39.194s-2.437 34.226 6.122 49.305c8.559 15.08 22.478 25.925 39.193 30.536zm-26.035-74.522c3.19-11.565 10.694-21.196 21.135-27.123 48.364-27.504 106.112-27.505 154.483.005 10.434 5.922 17.938 15.553 21.128 27.118s1.686 23.681-4.236 34.115-15.553 17.937-27.119 21.128-23.682 1.687-34.108-4.231c-10.159-5.777-21.543-8.666-32.924-8.666-11.377 0-22.751 2.887-32.891 8.661-10.435 5.923-22.549 7.426-34.115 4.236-11.566-3.191-21.197-10.694-27.119-21.129-5.92-10.434-7.425-22.549-4.234-34.114z" />
      <path d="m198.752 248.365 9.659 2.589c.868.232 1.738.344 2.595.344 4.415 0 8.456-2.947 9.653-7.414 1.43-5.335-1.736-10.818-7.07-12.248l-9.659-2.589c-5.336-1.429-10.818 1.736-12.248 7.07-1.43 5.335 1.735 10.819 7.07 12.248zM300.994 251.298c.857 0 1.728-.111 2.595-.344l9.659-2.589c5.334-1.43 8.5-6.913 7.07-12.248s-6.914-8.501-12.248-7.07l-9.659 2.589c-5.334 1.43-8.5 6.913-7.07 12.248 1.197 4.468 5.238 7.414 9.653 7.414z" />
      <path d="m486.072 339.072-35.355-35.355a10.001 10.001 0 0 0-14.142 0L381.191 359.1a189.178 189.178 0 0 0-20.773-15.833 171.867 171.867 0 0 0 13.888-12.461c31.724-31.723 49.194-73.738 49.194-118.305V167.5c0-44.567-17.471-86.582-49.194-118.306S300.567 0 256 0s-86.582 17.471-118.306 49.194S88.5 122.934 88.5 167.5v45.001c0 44.566 17.471 86.582 49.195 118.305a172.057 172.057 0 0 0 13.888 12.461 189.315 189.315 0 0 0-20.774 15.833l-55.383-55.383a10.001 10.001 0 0 0-14.142 0l-35.355 35.355c-3.905 3.905-3.905 10.237 0 14.143l61.416 61.416C73.561 441.221 66 471.111 66 502c0 5.522 4.477 10 10 10h360c5.523 0 10-4.478 10-10 0-30.889-7.561-60.779-21.344-87.369l61.416-61.417c3.905-3.904 3.905-10.236 0-14.142zM257.265 492l-74.383-128.836a165.163 165.163 0 0 0 33.96 12.218L284.171 492zm-14.984-112.556a169.335 169.335 0 0 0 27.438 0L256 403.206zm25.266 43.762 27.611-47.824a165.113 165.113 0 0 0 33.961-12.218l-48.118 83.345zM108.5 212.501V167.5c0-77.972 60.814-142.006 137.5-147.164v50.239c0 5.522 4.477 10 10 10s10-4.478 10-10V20.336c76.686 5.158 137.5 69.193 137.5 147.164v45.001C403.5 293.832 337.331 360 256 360s-147.5-66.168-147.5-147.499zM47.142 346.144l21.213-21.213 48.137 48.137a190.674 190.674 0 0 0-18.662 23.764zm112.103 16.08L234.171 492h-80.67v-10.72c0-5.522-4.477-10-10-10s-10 4.478-10 10V492H86.295c3.086-52.134 30.154-100.128 72.95-129.776zM378.499 492v-10.72c0-5.522-4.477-10-10-10s-10 4.478-10 10V492h-51.234l-14.717-25.491 60.208-104.285c42.795 29.649 69.863 77.642 72.949 129.776zm35.671-95.168a190.674 190.674 0 0 0-18.662-23.764l48.137-48.137 21.213 21.213z" />
    </svg>
    <svg xmlns="http://www.w3.org/2000/svg" width="512" viewBox="0 0 512.003 512.003" height="512" id="d">
      <path d="M167.012 334.952c-18.465 0-33.488 15.022-33.488 33.488s15.023 33.488 33.488 33.488c18.466 0 33.489-15.022 33.489-33.488s-15.023-33.488-33.489-33.488zm0 46.977c-7.438 0-13.488-6.051-13.488-13.488s6.051-13.488 13.488-13.488 13.489 6.051 13.489 13.488-6.051 13.488-13.489 13.488z" />
      <path d="M511.513 120.986a10.001 10.001 0 0 0-8.368-6.845l-87.354-10.045a9.997 9.997 0 0 0-8.83 3.539l-9.279 11.154a76.976 76.976 0 0 0-15.419-11.218l7.734-12.262a10 10 0 0 0 .638-9.491L354.087 5.844a10 10 0 0 0-18.192 0L299.348 85.82a10 10 0 0 0 .638 9.491l7.734 12.262a76.982 76.982 0 0 0-15.42 11.218l-9.279-11.154a9.998 9.998 0 0 0-8.83-3.539l-87.354 10.045a10 10 0 0 0-5.621 17.301l64.768 59.472a9.998 9.998 0 0 0 9.224 2.326l14.057-3.568a76.708 76.708 0 0 0 5.887 18.137l-13.465 5.374a10 10 0 0 0-6.094 7.305l-15.624 77.206-2.157-.248a10 10 0 0 0-8.83 3.539l-9.279 11.154a77.004 77.004 0 0 0-15.419-11.218l7.734-12.262a9.998 9.998 0 0 0 .637-9.491l-36.547-79.976a9.999 9.999 0 0 0-18.19 0l-36.547 79.976a10 10 0 0 0 .637 9.491l7.734 12.262a76.976 76.976 0 0 0-15.419 11.218l-9.279-11.154a9.999 9.999 0 0 0-8.83-3.539L8.858 307.49a10 10 0 0 0-5.621 17.301l64.768 59.471a10 10 0 0 0 9.224 2.326l14.057-3.567a76.725 76.725 0 0 0 5.888 18.137l-13.465 5.374a10.002 10.002 0 0 0-6.094 7.305L60.174 500.02a10 10 0 0 0 14.716 10.692l76.576-43.22a10.002 10.002 0 0 0 5.063-8.054l.951-14.474a77.875 77.875 0 0 0 19.067 0l.951 14.474a10.002 10.002 0 0 0 5.063 8.054l76.576 43.22a9.996 9.996 0 0 0 10.793-.619 9.999 9.999 0 0 0 3.924-10.073l-17.442-86.183a10 10 0 0 0-6.094-7.305l-13.465-5.374a76.68 76.68 0 0 0 5.888-18.137l14.057 3.567a9.998 9.998 0 0 0 9.224-2.326l64.768-59.472a10 10 0 0 0-5.621-17.301l-45.529-5.235 49.806-28.112a10 10 0 0 0 5.063-8.054l.95-14.474a77.875 77.875 0 0 0 19.067 0l.951 14.474a10 10 0 0 0 5.063 8.054l76.575 43.22a10 10 0 0 0 14.717-10.692l-17.441-86.183a10.003 10.003 0 0 0-6.095-7.305l-13.465-5.374a76.678 76.678 0 0 0 5.887-18.137l14.058 3.568a10 10 0 0 0 9.224-2.326l64.768-59.472a10.004 10.004 0 0 0 2.745-10.455zM256.475 365.873l-19.928-5.058a10.008 10.008 0 0 0-8.48 1.707 10.005 10.005 0 0 0-3.976 7.684 56.831 56.831 0 0 1-9.855 30.356 9.999 9.999 0 0 0 4.555 14.922l19.089 7.618 12.028 59.435-52.81-29.806-1.346-20.498a10 10 0 0 0-12.769-8.947c-10.343 3.006-21.601 3.006-31.943 0a9.997 9.997 0 0 0-12.769 8.947l-1.346 20.498-52.81 29.806 12.028-59.435 19.088-7.618a10.003 10.003 0 0 0 4.556-14.921 56.856 56.856 0 0 1-9.856-30.358 10.002 10.002 0 0 0-12.456-9.39l-19.927 5.058-44.666-41.014 60.243-6.927 13.147 15.803c1.938 2.33 4.822 3.638 7.857 3.604a10.002 10.002 0 0 0 7.73-3.868c6.69-8.622 15.623-15.119 25.831-18.789a9.999 9.999 0 0 0 5.075-14.745l-10.959-17.374 25.204-55.154 25.204 55.154-10.959 17.374a9.996 9.996 0 0 0 5.075 14.745c10.208 3.67 19.14 10.167 25.831 18.789a10.002 10.002 0 0 0 7.73 3.868c3.06.034 5.92-1.273 7.857-3.604l13.147-15.803 60.243 6.926zm177.979-193.349-19.928-5.058a10.002 10.002 0 0 0-12.455 9.39 56.847 56.847 0 0 1-9.856 30.358 10 10 0 0 0 4.555 14.92l19.089 7.619 12.028 59.435-52.81-29.806-1.347-20.498a10 10 0 0 0-12.77-8.947c-10.334 3.006-21.604 3.006-31.94 0a10 10 0 0 0-12.77 8.947l-1.346 20.498-52.81 29.807 12.027-59.436 19.089-7.619a9.996 9.996 0 0 0 4.555-14.92 56.853 56.853 0 0 1-9.856-30.358 10.002 10.002 0 0 0-12.455-9.39l-19.927 5.058-44.667-41.014 60.243-6.927 13.147 15.803c1.937 2.33 4.836 3.637 7.857 3.604a10.004 10.004 0 0 0 7.73-3.868c6.69-8.622 15.623-15.119 25.831-18.789a9.999 9.999 0 0 0 5.075-14.745l-10.959-17.374 25.204-55.154 25.204 55.154-10.959 17.374a10.001 10.001 0 0 0 5.075 14.745c10.208 3.67 19.14 10.167 25.83 18.789a10 10 0 0 0 7.73 3.868c3.021.04 5.92-1.273 7.857-3.604l13.147-15.803 60.243 6.927z" />
      <path d="M344.991 141.604c-18.466 0-33.488 15.022-33.488 33.488s15.022 33.489 33.488 33.489 33.488-15.023 33.488-33.489-15.022-33.488-33.488-33.488zm0 46.977c-7.438 0-13.488-6.052-13.488-13.489s6.051-13.488 13.488-13.488 13.488 6.051 13.488 13.488-6.05 13.489-13.488 13.489z" />
    </svg>
    <svg xmlns="http://www.w3.org/2000/svg" width="512" viewBox="0 0 512.001 512.001" height="512" id="e">
      <path d="M450 217.001H295v-45c0-23.447-6.76-45.344-18.432-63.846l42.35-42.349c3.905-3.905 3.905-10.237 0-14.143-3.906-3.906-10.237-3.904-14.143 0l-40.374 40.374C242.412 67.48 210.479 52.002 175 52.002c-5.523 0-10 4.478-10 10v154.999h-45c-66.168 0-120 53.832-120 120 0 5.522 4.477 10 10 10h155v45c0 66.168 53.832 120 120 120 5.523 0 10-4.478 10-10v-155h45c66.168 0 120-53.832 120-120 0-5.522-4.477-10-10-10zM250.238 106.2l-.773.773c-3.905 3.905-3.905 10.237 0 14.143a9.968 9.968 0 0 0 7.071 2.929 9.989 9.989 0 0 0 5.333-1.538C270.222 137.109 275 154.008 275 172.001v55c0 5.522 4.477 10 10 10l98.319.001c-18.444 21.909-45.819 34.999-74.737 34.999h-45.298c-3.352-11.134-12.149-19.932-23.283-23.283v-45.297c0-40.202-20.964-77.911-55-99.471V72.499c25.92 2.586 48.959 15.112 65.237 33.701zM230 296.751c-8.133 0-14.75-6.617-14.75-14.75s6.617-14.75 14.75-14.75 14.75 6.617 14.75 14.75-6.617 14.75-14.75 14.75zm-110-59.75h55c5.523 0 10-4.478 10-10v-98.318c21.909 18.445 35 45.82 35 74.738v45.297c-11.134 3.352-19.932 12.15-23.283 23.284H151.42c-40.202 0-77.91 20.963-99.47 54.999H20.496c5.035-50.46 47.739-90 99.504-90zm65 155v-55c0-5.522-4.477-10-10-10H76.682c18.444-21.909 45.819-34.999 74.737-34.999h45.298c3.352 11.134 12.149 19.932 23.284 23.283v45.298c0 40.202 20.964 77.91 54.999 99.469v31.453c-50.462-5.034-90-47.739-90-99.504zm155-65h-55c-5.523 0-10 4.478-10 10v98.318c-21.909-18.444-34.999-45.818-34.999-74.736v-45.299c11.134-3.352 19.931-12.149 23.282-23.283h45.298c40.202 0 77.911-20.963 99.47-54.999h31.453c-5.035 50.461-47.74 89.999-99.504 89.999zM411.301 110.7a9.97 9.97 0 0 0 7.071-2.929l90.7-90.7c3.905-3.905 3.905-10.237 0-14.143-3.905-3.904-10.237-3.904-14.143 0l-90.7 90.7c-3.905 3.905-3.905 10.237 0 14.143a9.976 9.976 0 0 0 7.072 2.929z" />
      <path d="M321.325 119.966c1.953 1.952 4.512 2.929 7.071 2.929s5.119-.977 7.071-2.929l60.16-60.16c3.905-3.905 3.905-10.237 0-14.143-3.905-3.904-10.237-3.904-14.143 0l-60.16 60.16c-3.904 3.906-3.904 10.238.001 14.143zM430.506 138.063l-38.471 38.472c-3.905 3.905-3.905 10.237 0 14.143 1.953 1.952 4.512 2.929 7.071 2.929s5.119-.977 7.071-2.929l38.471-38.472c3.905-3.905 3.905-10.237 0-14.143-3.904-3.904-10.237-3.904-14.142 0zM494.93 144.349l-26.464 26.465c-3.905 3.905-3.905 10.237 0 14.143 1.953 1.952 4.512 2.929 7.071 2.929s5.119-.977 7.071-2.929l26.464-26.465c3.905-3.905 3.905-10.237 0-14.143-3.906-3.904-10.237-3.904-14.142 0z" />
    </svg>
    <svg xmlns="http://www.w3.org/2000/svg" width="512" viewBox="0 0 512.002 512.002" height="512" id="f">
      <path d="M502.002 456.001h-16v-40c0-5.523-4.478-10-10-10h-10v-100h18.499c7.851 0 18.762-2.689 26.159-15.5 2.762-4.783 1.123-10.899-3.66-13.661-4.782-2.761-10.898-1.123-13.66 3.66-1.953 3.382-3.963 4.972-7.021 5.387-29.04-13.053-54.646-42.573-62.658-72.475a10 10 0 0 0-9.659-7.412H404v-70h30.501c7.851 0 18.763-2.689 26.159-15.5 2.762-4.783 1.123-10.899-3.66-13.661-4.784-2.763-10.898-1.123-13.66 3.66-1.953 3.382-3.963 4.972-7.021 5.387-29.034-13.053-54.651-42.594-62.658-72.475a10 10 0 0 0-9.659-7.412h-216a10 10 0 0 0-9.659 7.412c-8.006 29.88-33.622 59.421-62.658 72.475-3.059-.415-5.068-2.004-7.02-5.386-2.762-4.783-8.877-6.424-13.66-3.662-4.783 2.761-6.423 8.877-3.662 13.66 7.396 12.812 18.308 15.501 26.159 15.501h30.5v70h-10a10 10 0 0 0-9.659 7.412c-8.012 29.902-33.616 59.422-62.658 72.475-3.059-.415-5.068-2.005-7.021-5.387-2.761-4.782-8.877-6.421-13.66-3.66s-6.422 8.878-3.66 13.661C8.741 303.311 19.653 306 27.503 306h18.501v100h-10c-5.522 0-10 4.477-10 10v40h-16c-5.522 0-10 4.477-10 10s4.478 10 10 10h492c5.522 0 10-4.477 10-10s-4.48-9.999-10.002-9.999zm-346.631-400h201.26c7.809 22.349 23.519 43.98 42.832 60H112.539c19.316-16.02 35.023-37.65 42.832-60zm-27.37 80H384v70h-32.999v-30c0-5.523-4.478-10-10-10s-10 4.477-10 10v30h-22.5v-30c0-5.523-4.478-10-10-10s-10 4.477-10 10v30h-22.5v-30c0-5.523-4.478-10-10-10s-10 4.477-10 10v30h-22.5v-30c0-5.523-4.478-10-10-10s-10 4.477-10 10v30h-22.5v-30c0-5.523-4.478-10-10-10s-10 4.477-10 10v30h-33zm-22.629 90.001h301.259c7.811 22.359 23.514 43.985 42.826 60H62.546c19.313-16.016 35.015-37.641 42.826-60zm-39.37 80h380v100h-22.5v-30c0-5.523-4.478-10-10-10s-10 4.477-10 10v30h-22.5v-30c0-5.523-4.478-10-10-10s-10 4.477-10 10v30h-22.5v-30c0-5.523-4.478-10-10-10s-10 4.477-10 10v30h-22.5v-65c0-5.523-4.478-10-10-10h-60c-5.522 0-10 4.477-10 10v65h-22.499v-30c0-5.523-4.478-10-10-10s-10 4.477-10 10v30h-22.5v-30c0-5.523-4.478-10-10-10s-10 4.477-10 10v30h-22.5v-30c0-5.523-4.478-10-10-10s-10 4.477-10 10v30H66.002zm210 99.999h-40v-55h40zm-230 20h420v30h-420z" />
    </svg>
    <svg xmlns="http://www.w3.org/2000/svg" width="512" viewBox="0 0 512.005 512.005" height="512" id="g">
      <path d="M503.459 439.109c-33.272-4.897-81.097-28.019-121.838-58.905-20.045-15.196-37.078-31.136-50.678-47.267 32.437-18.726 56.88-49.156 68.144-84.921h54.474c17.888 0 32.44-14.553 32.44-32.44 0-14.649-9.76-27.062-23.119-31.076-4.153-26.175-26.878-46.246-54.202-46.246-5.595 0-11.055.832-16.235 2.426-11.39-24.978-29.285-46.209-52.11-61.727-24.973-16.978-54.135-25.952-84.333-25.952-30.811 0-61.298 9.705-86.46 27.427a39.236 39.236 0 0 0-27.221-5.916c-10.264-10.404-24.151-16.258-38.998-16.258-27.324 0-50.049 20.071-54.202 46.246-13.359 4.014-23.119 16.426-23.119 31.076 0 17.888 14.553 32.44 32.44 32.44h51.696a149.8 149.8 0 0 0-4.136 34.985 149.96 149.96 0 0 0 21.968 78.153 149.942 149.942 0 0 0 53.09 51.784c-13.599 16.13-30.632 32.07-50.676 47.265-40.741 30.886-88.566 54.008-121.839 58.905-5.464.804-9.241 5.886-8.438 11.35.804 5.464 5.888 9.24 11.35 8.438 36.358-5.352 87.782-29.984 131.01-62.754 17.303-13.118 42.043-34.249 62.109-60.703 1.171.522 2.338 1.424 4.132 2.862 3.907 3.131 9.811 7.862 19.934 7.862s16.026-4.731 19.934-7.862c3.288-2.635 4.47-3.469 7.427-3.469s4.139.833 7.427 3.469c3.907 3.131 9.811 7.862 19.934 7.862s16.027-4.731 19.934-7.862c1.795-1.438 2.962-2.34 4.133-2.862 20.066 26.455 44.806 47.586 62.109 60.703 43.227 32.77 94.65 57.403 131.009 62.754.494.073.983.108 1.469.108 4.878 0 9.149-3.575 9.881-8.545.802-5.465-2.976-10.546-8.44-11.35zm-59.897-245.974c0 5.523 4.478 10 10 10 6.859 0 12.44 5.581 12.44 12.44s-5.581 12.44-12.44 12.44H334.733c-6.859 0-12.44-5.581-12.44-12.44s5.581-12.44 12.44-12.44c5.522 0 10-4.477 10-10 0-6.223 2.901-11.867 7.961-15.482 3.332-2.381 7.177-3.605 11.085-3.605 2.071 0 4.161.344 6.2 1.042a10.003 10.003 0 0 0 11.136-3.327c6.669-8.585 16.717-13.509 27.566-13.509 19.233 0 34.881 15.647 34.881 34.881zm-397.56-57.56c0-6.86 5.581-12.44 12.44-12.44 5.522 0 10-4.477 10-10 0-19.233 15.647-34.881 34.881-34.881 10.851 0 20.898 4.924 27.566 13.509a10.001 10.001 0 0 0 11.136 3.327c5.89-2.015 12.188-1.08 17.285 2.563 5.06 3.616 7.961 9.259 7.961 15.482 0 5.523 4.478 10 10 10 6.859 0 12.44 5.581 12.44 12.44s-5.581 12.44-12.44 12.44H58.443c-6.86.001-12.441-5.58-12.441-12.44zm80 67.426c0-11.851 1.612-23.597 4.796-34.985h46.474c17.888 0 32.44-14.553 32.44-32.44 0-14.75-9.896-27.233-23.396-31.158a38.405 38.405 0 0 0-3.247-9.025c21.412-14.483 47.041-22.391 72.934-22.391 51.808 0 97.807 30.039 118.71 77.002a54.966 54.966 0 0 0-5.029 4.509 39.233 39.233 0 0 0-28.618 6.869c-7.953 5.684-13.307 13.807-15.376 23.036-13.5 3.925-23.396 16.408-23.396 31.158 0 17.888 14.553 32.44 32.44 32.44h43.224c-10.809 29.224-31.923 53.835-59.339 68.911-11.768-16.883-19.653-33.773-23.176-50.042a9.999 9.999 0 0 0-9.773-7.883h-59.332a10 10 0 0 0-9.773 7.883c-3.523 16.269-11.409 33.159-23.177 50.043-41.66-22.866-67.386-66.188-67.386-113.927zM290.79 322.693c-3.289 2.635-4.471 3.469-7.428 3.469s-4.139-.833-7.427-3.469c-3.907-3.131-9.811-7.862-19.934-7.862s-16.026 4.731-19.934 7.862c-3.288 2.635-4.47 3.469-7.427 3.469s-4.139-.833-7.427-3.469c-1.437-1.151-3.144-2.519-5.23-3.788 7.746-12.46 14.133-25.836 18.146-39.903h43.743c4.014 14.067 10.4 27.443 18.146 39.903-2.084 1.269-3.791 2.637-5.228 3.788z" />
    </svg>
    <svg xmlns="http://www.w3.org/2000/svg" width="512" viewBox="0 0 512.001 512.001" height="512" id="h">
      <path d="M494.239 420.105c-9.516-13.745-22.138-24.773-36.857-32.286a85.393 85.393 0 0 0 3.167-23.137c0-2.277-.09-4.552-.269-6.816 22.591-2.669 40.169-21.938 40.169-45.234 0-25.116-20.434-45.55-45.55-45.55a45.666 45.666 0 0 0-17.826 3.6 190.733 190.733 0 0 0-12.955-43.571l20.137-20.136c11.714-11.714 11.714-30.775 0-42.491l-21.649-21.649c13.673-16.889 21.138-37.886 21.138-59.763 0-5.523-4.477-10-10-10s-10 4.477-10 10c0 16.562-5.419 32.484-15.38 45.522l-20.805-20.805c-5.659-5.66-13.204-8.776-21.245-8.776s-15.586 3.117-21.245 8.776l-20.11 20.11c-44.696-19.265-95.323-20.628-140.858-4.089-3.087-15.136-10.642-29.013-21.942-39.986-14.54-14.12-33.712-21.896-53.984-21.896-42.734 0-77.5 34.766-77.5 77.5 0 8.136 1.24 16.077 3.693 23.701C12.713 180.501 0 206.729 0 234.765c0 20.277 6.478 39.501 18.734 55.594 10.533 13.831 24.989 24.508 41.193 30.538 4.054 42.516 22.325 83.919 54.812 116.406a190.004 190.004 0 0 0 47.108 34.458c.069 4.191.365 8.406.884 12.553.633 5.059 4.94 8.759 9.91 8.759.414 0 .833-.025 1.254-.078 5.48-.686 9.367-5.685 8.681-11.165a96.663 96.663 0 0 1-.745-11.954c0-52.49 42.704-95.194 95.194-95.194a95.9 95.9 0 0 1 20.245 2.163 9.989 9.989 0 0 0 8.516-2.09 9.997 9.997 0 0 0 3.595-7.998 68.13 68.13 0 0 1-.033-2.076c0-36.172 29.428-65.6 65.6-65.6 14.341 0 27.962 4.543 39.39 13.14a10.002 10.002 0 0 0 15.73-5.637c2.783-11.483 12.993-19.503 24.83-19.503 14.088 0 25.55 11.461 25.55 25.55s-11.462 25.55-25.55 25.55c-1.523 0-3.046-.134-4.525-.398a10 10 0 0 0-11.5 12.092 65.992 65.992 0 0 1 1.676 14.806c0 8.551-1.623 16.87-4.823 24.726a10.003 10.003 0 0 0 5.581 13.072c30.795 12.189 50.694 41.469 50.694 74.675a81.929 81.929 0 0 1-.182 5.262c-.362 5.511 3.812 10.272 9.322 10.635a9.996 9.996 0 0 0 10.635-9.322c.147-2.233.223-4.437.225-6.55v-.107c0-20.483-6.142-40.183-17.762-56.967zM359.211 121.931c1.882-1.882 4.404-2.918 7.103-2.918 2.698 0 5.221 1.036 7.103 2.918l56.696 56.695c3.917 3.917 3.917 10.29 0 14.206l-15.418 15.418a190.107 190.107 0 0 0-30.679-40.222c-12.265-12.265-25.801-22.502-40.187-30.715zM20 234.765c0-24.038 11.951-46.38 31.968-59.764a10 10 0 0 0 3.588-12.356c-3.24-7.329-4.882-15.14-4.882-23.217 0-31.706 25.794-57.5 57.5-57.5 29.312 0 53.339 21.512 57.011 49.941-18.225 8.965-35.304 21.018-50.446 36.16-36.117 36.118-54.663 83.254-55.638 130.688C35.554 286.594 20 261.917 20 234.765zm257.027 119.917c-56.704 0-103.97 41.183-113.459 95.21a170.066 170.066 0 0 1-34.686-26.731c-65.566-65.565-66.429-171.707-2.591-238.342l164.449 164.45a85.604 85.604 0 0 0-.89 6.126 115.932 115.932 0 0 0-12.823-.713zm97.922-75.599c-34.043 0-63.508 19.975-77.29 48.821L140.951 171.195c66.876-55.238 166.367-51.579 228.921 10.976 27.512 27.511 44.872 63.898 48.965 102.572a45.296 45.296 0 0 0-3.139 4.632c-12.439-6.763-26.315-10.292-40.749-10.292z" />
      <path d="M383.667 388.583c-2.956 0-5.902.388-8.757 1.153-5.334 1.429-8.5 6.913-7.071 12.248 1.43 5.334 6.911 8.5 12.248 7.071a13.87 13.87 0 0 1 3.58-.471c7.627 0 13.832 6.205 13.832 13.832 0 5.523 4.477 10 10 10s10-4.477 10-10c0-18.656-15.177-33.833-33.832-33.833zM219.75 86.428c18.61 0 33.75-15.14 33.75-33.75s-15.14-33.75-33.75-33.75S186 34.068 186 52.678s15.14 33.75 33.75 33.75zm0-47.5c7.582 0 13.75 6.168 13.75 13.75s-6.168 13.75-13.75 13.75S206 60.26 206 52.678s6.168-13.75 13.75-13.75z" />
    </svg>
    <svg xmlns="http://www.w3.org/2000/svg" width="512" viewBox="0 0 512 512" height="512" id="i">
      <path d="M502 56H150V26c0-5.523-4.477-10-10-10H30c-5.523 0-10 4.477-10 10v30H10C4.477 56 0 60.477 0 66v380c0 5.523 4.477 10 10 10h10v30c0 5.523 4.477 10 10 10h110c5.523 0 10-4.477 10-10v-30h352c5.522 0 10-4.477 10-10V66c0-5.523-4.478-10-10-10zM40 36h90v20H40zm110 40v25H20V76zm0 315H20V121h130zm20-270h277v270H170zM20 436v-25h130v25zm110 40H40v-20h90zm362-40H170v-25h287c5.522 0 10-4.477 10-10V111c0-5.523-4.478-10-10-10H170V76h322z" />
      <path d="M408.5 149.333h-200c-5.523 0-10 4.477-10 10s4.477 10 10 10h200c5.522 0 10-4.477 10-10s-4.477-10-10-10zM408.5 197.666h-200c-5.523 0-10 4.477-10 10s4.477 10 10 10h200c5.522 0 10-4.477 10-10s-4.477-10-10-10zM408.5 246h-200c-5.523 0-10 4.477-10 10s4.477 10 10 10h200c5.522 0 10-4.477 10-10s-4.477-10-10-10zM408.5 294.333h-200c-5.523 0-10 4.477-10 10s4.477 10 10 10h200c5.522 0 10-4.477 10-10s-4.477-10-10-10zM308.5 342.666h-100c-5.523 0-10 4.477-10 10s4.477 10 10 10h100c5.522 0 10-4.477 10-10s-4.477-10-10-10z" />
    </svg>
    <svg xmlns="http://www.w3.org/2000/svg" width="512" viewBox="0 0 512.001 512.001" height="512" id="j">
      <path d="M499.851 80.327c-15.006-15.005-38.923-16.082-55.197-3.141h-51.458l-21.184-12.519V10c0-5.523-4.478-10-10-10H10.01c-5.523 0-10 4.477-10 10v452.001c0 27.57 22.43 50 50 50h320c27.57 0 50-22.43 50-50v-19.999c0-5.523-4.478-10-10-10h-37.998V154.705l21.184-12.519h51.457c16.274 12.94 40.191 11.866 55.198-3.14 16.187-16.19 16.187-42.531 0-58.719zM400.01 452.002v9.999c0 16.542-13.458 30-30 30H89.986a49.743 49.743 0 0 0 10.023-30v-9.999zm-47.998-20H90.01c-5.523 0-10 4.477-10 10v19.999c0 16.542-13.458 30-30 30s-30-13.458-30-30V20h332.002v32.847l-10.925-6.456a10.007 10.007 0 0 0-7.581-1.075L196.011 80.719v-3.386c0-5.523-4.477-10-10-10s-10 4.477-10 10v64.706c0 5.523 4.477 10 10 10s10-4.477 10-10v-3.386l137.495 35.403a10.006 10.006 0 0 0 7.581-1.075l10.925-6.456zm133.697-307.099c-8.313 8.311-21.896 8.376-30.286.145a10.002 10.002 0 0 0-7.004-2.862h-57.958c-1.79 0-3.547.48-5.088 1.391l-50.894 30.078L196.011 118v-16.629L334.48 65.718l50.894 30.077a9.997 9.997 0 0 0 5.088 1.391h57.959a9.999 9.999 0 0 0 7.004-2.863c8.388-8.229 21.973-8.165 30.284.146 8.39 8.39 8.389 22.044 0 30.434z" />
      <path d="M60.296 268.187c5.523 0 10-4.477 10-10v-45c0-5.523-4.477-10-10-10s-10 4.477-10 10v45c0 5.523 4.477 10 10 10zM110.582 203.187c-5.523 0-10 4.477-10 10v45c0 5.523 4.477 10 10 10s10-4.477 10-10v-45c0-5.523-4.477-10-10-10zM160.867 203.187c-5.523 0-10 4.477-10 10v180c0 5.523 4.477 10 10 10s10-4.477 10-10v-180c0-5.523-4.477-10-10-10zM211.154 203.187c-5.523 0-10 4.477-10 10v180c0 5.523 4.477 10 10 10s10-4.477 10-10v-180c0-5.523-4.477-10-10-10zM261.439 203.187c-5.523 0-10 4.477-10 10v180c0 5.523 4.477 10 10 10 5.522 0 10-4.477 10-10v-180c0-5.523-4.478-10-10-10zM311.725 203.187c-5.522 0-10 4.477-10 10v90c0 5.523 4.478 10 10 10s10-4.477 10-10v-90c0-5.523-4.478-10-10-10zM110.582 293.187H60.296c-5.523 0-10 4.477-10 10v90c0 5.523 4.477 10 10 10h50.286c5.523 0 10-4.477 10-10v-90c0-5.523-4.477-10-10-10zm-10 90H70.296v-70h30.286z" />
    </svg>
    <svg xmlns="http://www.w3.org/2000/svg" width="512" viewBox="0 0 512.001 512.001" height="512" id="k">
      <path d="M456.001 492.001h-50.867l-9.372-42.169a10 10 0 0 0-9.762-7.83h-40.485l-3.189-64.098 91.732-5.11c17.912-.998 31.943-15.268 31.943-32.484 0-17.219-14.031-31.487-31.943-32.484l-95.483-5.32-6.972-140.125 82.453-4.594C431.969 156.789 446 142.52 446 125.303c0-17.218-14.031-31.486-31.943-32.484l-86.153-4.799-1.916-38.515C324.605 21.745 302.648 0 276 0h-39.999c-26.649 0-48.606 21.745-49.988 49.504l-1.916 38.515-86.153 4.799C80.031 93.816 66 108.085 66 125.303c0 17.217 14.031 31.486 31.944 32.484l82.453 4.594-6.971 140.124-95.481 5.32C60.032 308.822 46 323.091 46 340.31c0 17.217 14.031 31.486 31.944 32.484l91.731 5.11-3.189 64.098H126a10 10 0 0 0-9.762 7.831l-9.371 42.168H56c-5.523 0-10 4.478-10 10s4.477 10 10 10h400c5.522 0 10-4.478 10-10s-4.477-10-9.999-10zm-23.056-164.207c6.329.353 13.056 4.858 13.056 12.516 0 6.72-5.613 12.101-13.057 12.516l-91.612 5.104-1.758-35.337zm-20.002-215.007c6.33.353 13.057 4.859 13.057 12.516 0 6.72-5.613 12.101-13.057 12.516l-82.334 4.587-1.707-34.3zM99.057 137.818C91.614 137.403 86 132.022 86 125.303c0-7.656 6.727-12.163 13.056-12.516l84.041-4.682-1.706 34.301zm-20 215.007C71.614 352.41 66 347.029 66 340.31c0-7.657 6.727-12.163 13.056-12.516l93.37-5.202-1.758 35.337zM205.989 50.498C206.839 33.396 220.022 20 236.001 20H276c15.979 0 29.161 13.396 30.013 30.498l19.478 391.504h-138.98zm-71.967 411.504h243.956l6.667 29.999h-257.29z" />
      <path d="M256.001 191.505c-20.953 0-38 17.047-38 38s17.047 38 38 38 38-17.047 38-38-17.047-38-38-38zm0 56c-9.925 0-18-8.075-18-18s8.075-18 18-18 18 8.075 18 18-8.075 18-18 18z" />
    </svg>
    <svg xmlns="http://www.w3.org/2000/svg" width="512" viewBox="0 0 512 512" height="512" id="l">
      <path d="M442 0c-38.598 0-70 31.402-70 70 0 5.249.581 10.364 1.681 15.286l-89.684 89.684H164.801a10.003 10.003 0 0 0-7.071 2.929l-58.829 58.829a10 10 0 0 0 7.071 17.071h72.833L1.923 496.104A10 10 0 0 0 10.003 512a9.978 9.978 0 0 0 5.894-1.923l242.304-176.882v72.834a10.002 10.002 0 0 0 17.071 7.072l58.83-58.83a10.001 10.001 0 0 0 2.929-7.071V228.003l89.685-89.685a70.002 70.002 0 0 0 15.285 1.681c38.598 0 70-31.402 70-70C512 31.402 480.598 0 442 0zm-88.354 183.104-18.117-31.38 20.714-20.714 18.117 31.38zm-26.615 26.614-24.748-24.748 18.605-18.605 18.117 31.38zm-48.83 172.169v-68.373a9.999 9.999 0 0 0-15.897-8.077L55.857 456.144l150.707-206.449a10 10 0 0 0-8.077-15.896h-68.372l38.828-38.829h115.055l9.445 9.445-111.239 111.239c-3.905 3.905-3.905 10.237 0 14.143 1.953 1.953 4.512 2.929 7.071 2.929s5.118-.976 7.071-2.929l111.238-111.239 9.446 9.446v115.054zm110.8-234.139-18.117-31.38 10.828-10.828a70.534 70.534 0 0 0 24.749 24.748zM442 120c-27.57 0-50-22.43-50-50s22.43-50 50-50 50 22.43 50 50-22.429 50-50 50z" />
      <path d="M442 40c-16.542 0-30 13.458-30 30s13.458 30 30 30c16.543 0 30.001-13.458 30.001-30S458.543 40 442 40zm0 40c-5.514 0-10-4.486-10-10s4.486-10 10-10c5.515 0 10.001 4.486 10.001 10S447.515 80 442 80z" />
    </svg>
    <svg xmlns="http://www.w3.org/2000/svg" width="512" viewBox="0 0 512.002 512.002" height="512" id="m">
      <path d="M201.002 218.198c-5.522 0-10 4.478-10 10v5c0 5.522 4.478 10 10 10s10-4.478 10-10v-5c0-5.522-4.478-10-10-10zM311.001 218.198c-5.522 0-10 4.478-10 10v5c0 5.522 4.478 10 10 10s10-4.478 10-10v-5c0-5.522-4.478-10-10-10z" />
      <path d="M491.373 182.414C467.68 93.984 377.135 0 256.001 0 134.868 0 44.323 93.984 20.629 182.414a9.998 9.998 0 0 0 9.66 12.588h58.213v17.5c0 31.5 8.729 61.726 25.049 87.944-23.407 4.303-35.354 24.506-42.514 36.615-.886 1.498-1.723 2.916-2.527 4.213a10 10 0 0 0-.756 9.068c.469 1.144 10.081 23.454 45.038 26.859-29.674 34.112-46.79 78.326-46.79 124.801 0 5.522 4.478 10 10 10h360c5.522 0 10-4.478 10-10 0-46.475-17.116-90.689-46.791-124.802 34.952-3.408 44.57-25.715 45.039-26.858a9.996 9.996 0 0 0-.756-9.068c-.805-1.297-1.642-2.715-2.527-4.213-7.159-12.108-19.105-32.314-42.513-36.616 16.32-26.218 25.048-56.443 25.048-87.942v-17.5h58.213c3.109 0 6.041-1.446 7.934-3.912a10.007 10.007 0 0 0 1.724-8.677zm-76.085 260.308-51.788 29.9a10 10 0 0 0-5 8.66v10.72h-19.539l-66.021-112.85c24.851-2.503 48.562-10.501 69.718-23.406 33.856 20.064 59.226 51.052 72.63 86.976zm-126.327 49.28-67.632-115.605a167.319 167.319 0 0 0 28.878 3.506l65.582 112.099zm-140.459-19.38-51.788-29.899c13.404-35.925 38.773-66.912 72.63-86.976a165.787 165.787 0 0 0 23.746 11.99l72.699 124.266H153.502v-10.72a10 10 0 0 0-5-8.661zm107.56-112.62h-.171c-41.939-.031-79.839-17.655-106.702-45.877l67.188-38.792c22.96-13.194 56.288-13.192 79.23-.01l67.206 38.801c-26.874 28.233-64.792 45.861-106.751 45.878zm75.841-86.817-26.313-15.192c-29.197-16.779-69.98-16.778-99.195.01l-26.301 15.185c-9.22-14.432-14.093-31.088-14.093-48.186v-30h180v30c0 17.153-4.864 33.74-14.098 48.183zM246.001 22.061v152.941h-89.408c11.806-71.943 46.562-143.156 89.408-152.941zm20 152.941V22.061c42.846 9.785 77.602 80.998 89.408 152.941zM199.633 27.653c-8.965 9.134-17.445 20.55-25.318 34.157-17.868 30.882-31.542 71.755-37.974 113.192H43.797c21.588-62.853 78.62-125.936 155.836-147.349zm-91.132 167.349h37.5v30c0 20.622 5.79 40.717 16.757 58.195l-26.522 15.313c-17.448-24.227-27.735-53.938-27.735-86.007zM88.824 346.275c9.8-16.447 19.24-28.783 38.903-26.325a172.726 172.726 0 0 0 23.856 23.319 189.171 189.171 0 0 0-18.278 13.681c-27.482 3.187-39.702-5.408-44.481-10.675zm1.888 116.076 42.79 24.705v4.946H86.297a169.304 169.304 0 0 1 4.415-29.651zM378.5 492.002v-4.946l42.79-24.705a169.318 169.318 0 0 1 4.415 29.651zm44.692-145.701c-4.715 5.175-16.944 13.844-44.496 10.649a189.171 189.171 0 0 0-18.278-13.681 171.867 171.867 0 0 0 13.888-12.461 172.375 172.375 0 0 0 9.967-10.856c19.679-2.456 29.116 9.888 38.919 26.349zm-19.691-133.799c0 32.069-10.287 61.78-27.735 86.007l-26.527-15.315c10.981-17.486 16.762-37.5 16.762-58.192v-30h37.5zm-27.84-37.5c-6.432-41.437-20.105-82.31-37.974-113.192-7.873-13.607-16.354-25.023-25.318-34.157 77.217 21.413 134.249 84.496 155.836 147.35h-92.544z" />
    </svg>
    <svg xmlns="http://www.w3.org/2000/svg" width="512" viewBox="0 0 512 512" height="512" id="n">
      <path d="M413.002 98.998C349.162 35.158 264.283 0 174 0 114.752 0 56.313 15.658 5 45.283a9.997 9.997 0 0 0-3.66 13.66L146.68 310.68l-12.031-6.946c-4.785-2.761-10.898-1.122-13.66 3.66A61.293 61.293 0 0 0 112.788 338c0 30.348 22.2 55.609 51.213 60.396v43.127c-13.043 4.228-22.5 16.493-22.5 30.926 0 17.921 14.579 32.5 32.5 32.5s32.5-14.579 32.5-32.5c0-14.433-9.457-26.699-22.5-30.926v-43.135a61.26 61.26 0 0 0 20.606-7.377c4.783-2.762 6.422-8.877 3.66-13.66l-6.946-12.031 251.736 145.34a10.002 10.002 0 0 0 13.66-3.66C496.342 455.688 512 397.248 512 338c0-90.283-35.158-175.162-98.998-239.002zM260.146 328a87.7 87.7 0 0 0-6.509-24.432L454.22 187.762c22.613 42.009 36.055 89.654 37.625 140.238zm-78.826 2.68-31.691-54.89c24.382-9.51 52.767-3.89 71.619 14.961 18.851 18.852 24.473 47.236 14.961 71.619zm2.68-78.826V20.155c50.584 1.57 98.229 15.012 140.238 37.625L208.431 258.363A87.728 87.728 0 0 0 184 251.854zm260.191-81.396L243.679 286.223a85.824 85.824 0 0 0-17.903-17.903L341.541 67.809a320.512 320.512 0 0 1 102.65 102.649zM164 20.158V251.82a86.287 86.287 0 0 0-24.459 6.496L23.739 57.74A318.567 318.567 0 0 1 164 20.158zm10 464.791c-6.893 0-12.5-5.607-12.5-12.5s5.607-12.5 12.5-12.5 12.5 5.607 12.5 12.5-5.607 12.5-12.5 12.5zm0-105.736c-22.725 0-41.213-18.488-41.213-41.213 0-3.843.54-7.658 1.59-11.329l32.303 18.649 18.649 32.303a41.211 41.211 0 0 1-11.329 1.59zm280.26 109.048L253.684 372.459A86.287 86.287 0 0 0 260.18 348h231.662a318.567 318.567 0 0 1-37.582 140.261z" />
      <path d="M348.173 143.826h-7.855c-5.522 0-10 4.478-10 10s4.478 10 10 10h7.855v7.854c0 5.523 4.478 10 10 10 5.523 0 10-4.478 10-10v-7.854h7.854c5.522 0 10-4.478 10-10s-4.478-10-10-10h-7.854v-7.854c0-5.523-4.478-10-10-10-5.523 0-10 4.478-10 10zM265.534 72.487c-2.762-4.782-8.877-6.421-13.66-3.66l-6.802 3.927-3.927-6.802c-2.762-4.782-8.878-6.422-13.66-3.66-4.783 2.762-6.422 8.878-3.66 13.66l3.927 6.802-6.802 3.927c-4.783 2.762-6.422 8.877-3.66 13.66a9.997 9.997 0 0 0 13.66 3.66l6.803-3.928 3.928 6.803a9.997 9.997 0 0 0 13.66 3.66c4.783-2.762 6.422-8.878 3.66-13.66l-3.928-6.802 6.802-3.927c4.782-2.761 6.421-8.876 3.659-13.66zM127.05 86.682l-6.802-3.927 3.927-6.803c2.762-4.783 1.123-10.898-3.66-13.66-4.785-2.762-10.9-1.123-13.66 3.66l-3.927 6.803-6.803-3.928c-4.784-2.761-10.899-1.123-13.66 3.66-2.762 4.783-1.123 10.898 3.66 13.66l6.803 3.928-3.927 6.802c-2.762 4.783-1.123 10.898 3.66 13.66a9.997 9.997 0 0 0 13.66-3.66l3.927-6.802 6.802 3.927a9.997 9.997 0 0 0 13.66-3.66c2.762-4.783 1.123-10.899-3.66-13.66zM446.048 270.855l-6.803-3.928 3.928-6.803c2.762-4.783 1.123-10.898-3.66-13.66-4.784-2.762-10.899-1.122-13.66 3.66l-3.927 6.802-6.803-3.926c-4.781-2.763-10.898-1.123-13.66 3.66-2.762 4.782-1.123 10.898 3.66 13.66l6.802 3.927-3.927 6.802c-2.762 4.783-1.123 10.898 3.66 13.66a9.997 9.997 0 0 0 13.66-3.66l3.927-6.802 6.802 3.928a9.998 9.998 0 0 0 13.66-3.66c2.763-4.782 1.124-10.898-3.659-13.66zM436.048 387.824l-6.802 3.927-3.927-6.802c-2.761-4.781-8.877-6.422-13.66-3.66s-6.422 8.877-3.66 13.66l3.927 6.802-6.802 3.927c-4.783 2.762-6.422 8.877-3.66 13.66a9.997 9.997 0 0 0 13.66 3.66l6.802-3.927 3.927 6.802a9.997 9.997 0 0 0 13.66 3.66c4.783-2.762 6.422-8.877 3.66-13.66l-3.927-6.802 6.802-3.927c4.783-2.762 6.422-8.877 3.66-13.66-2.761-4.782-8.877-6.421-13.66-3.66z" />
    </svg>
    <svg xmlns="http://www.w3.org/2000/svg" width="512" viewBox="0 0 512.028 512.028" height="512" id="o">
      <path d="m488.986 112.216-9.846-23.771c2.867-4.674 4.399-10.07 4.4-15.71 0-8.047-3.119-15.598-8.782-21.26l-14.19-14.19c-10.012-10.013-25.389-11.472-36.967-4.38l-23.775-9.848C396.654 9.856 384.749.015 370.588.015h-20.067c-14.16 0-26.065 9.84-29.237 23.042l-23.775 9.848c-11.578-7.092-26.954-5.633-36.967 4.381l-14.19 14.189c-5.663 5.664-8.782 13.214-8.782 21.261 0 4.573 1.008 8.986 2.918 12.984l-8.348 8.348-10.666-10.666c-3.905-3.905-10.237-3.905-14.143 0l-7.118-7.118a10.001 10.001 0 0 0-14.142 0L16.127 246.226c-21.503 21.503-21.503 56.492 0 77.995 10.381 10.381 24.23 16.099 38.998 16.099 14.766 0 28.616-5.717 38.997-16.098L264.065 154.28c3.905-3.905 3.905-10.237 0-14.143l-7.119-7.119c3.905-3.906 3.905-10.237 0-14.143L246.28 108.21l8.348-8.348c3.997 1.909 8.41 2.917 12.983 2.917 8.047 0 15.597-3.119 21.26-8.782l14.19-14.189c5.663-5.664 8.782-13.214 8.782-21.261 0-3.218-.499-6.356-1.46-9.327l13.333-5.523c4.975 9.756 15.122 16.452 26.803 16.452h20.067c11.682 0 21.828-6.697 26.804-16.452l13.333 5.523a30.259 30.259 0 0 0-1.46 9.327c0 8.047 3.119 15.597 8.782 21.261l14.19 14.19c5.862 5.861 13.561 8.792 21.26 8.792 3.151 0 6.302-.491 9.327-1.473l5.524 13.335c-9.756 4.975-16.452 15.122-16.452 26.804v20.067c0 11.682 6.697 21.828 16.453 26.804l-5.523 13.333a30.259 30.259 0 0 0-9.327-1.46c-8.047 0-15.598 3.119-21.26 8.782l-14.19 14.189c-5.663 5.664-8.782 13.214-8.782 21.261 0 4.573 1.008 8.985 2.917 12.982l-8.349 8.349-10.666-10.665c-3.905-3.905-10.237-3.905-14.143 0l-7.118-7.118a10.001 10.001 0 0 0-14.142 0L187.822 417.921c-21.503 21.503-21.503 56.491 0 77.995 10.381 10.381 24.23 16.098 38.997 16.098 14.766 0 28.617-5.718 38.997-16.098L435.76 325.973c3.905-3.905 3.905-10.237 0-14.143l-7.119-7.119c3.905-3.906 3.905-10.237 0-14.143l-10.665-10.665 8.351-8.351a30.136 30.136 0 0 0 12.981 2.93c7.698-.001 15.399-2.932 21.261-8.792l14.19-14.19c10.013-10.013 11.473-25.39 4.381-36.968l9.848-23.775c13.201-3.172 23.042-15.077 23.042-29.237v-20.067c-.002-14.16-9.842-26.065-23.044-29.237zM79.979 310.078c-6.604 6.604-15.431 10.241-24.855 10.241s-18.251-3.637-24.854-10.241c-13.706-13.705-13.706-36.005 0-49.71l120.444-120.445 49.71 49.711zm134.588-134.587-49.71-49.711 28.284-28.285 49.71 49.711zm37.107 306.283c-6.604 6.604-15.43 10.24-24.854 10.24-9.425 0-18.252-3.637-24.856-10.241-13.705-13.706-13.705-36.005 0-49.71l120.445-120.445 49.711 49.711zm134.588-134.588-49.711-49.711 28.284-28.284 49.71 49.711zM288.921 65.664l-14.19 14.189c-3.925 3.925-10.312 3.924-14.236 0-3.925-3.925-3.925-10.312 0-14.237l14.19-14.189a10.036 10.036 0 0 1 7.118-2.944 10.036 10.036 0 0 1 7.205 3.033c1.83 1.876 2.837 4.367 2.837 7.029-.001 2.705-1.039 5.233-2.924 7.119zm81.667-25.516h-20.067c-5.511 0-10.001-4.452-10.065-9.949a9.283 9.283 0 0 0 0-.236c.064-5.497 4.554-9.948 10.065-9.948h20.067c5.511 0 10.002 4.452 10.065 9.948a9.283 9.283 0 0 0 0 .236c-.063 5.496-4.553 9.949-10.065 9.949zm75.791 39.706-14.19-14.19c-3.898-3.898-3.924-10.223-.08-14.154.058-.056.115-.113.171-.171 3.932-3.836 10.252-3.807 14.146.088l14.19 14.19c1.886 1.886 2.924 4.414 2.924 7.118 0 2.678-1.019 5.182-2.869 7.062l-.138.138c-3.933 3.843-10.258 3.816-14.154-.081zm14.236 157.505-14.189 14.19c-3.926 3.925-10.312 3.924-14.237 0-3.925-3.925-3.925-10.312 0-14.237l14.19-14.19c1.886-1.886 4.414-2.924 7.118-2.924 2.664 0 5.157 1.009 7.034 2.843.055.056.11.112.167.167 3.842 3.931 3.815 10.254-.083 14.151zm31.413-75.837c0 5.526-4.475 10.025-9.991 10.065h-.169c-5.508-.05-9.974-4.546-9.974-10.065v-20.067c0-5.514 4.457-10.007 9.958-10.065l.113.001.097-.001c5.504.054 9.966 4.549 9.966 10.066z" />
    </svg>
    <svg xmlns="http://www.w3.org/2000/svg" width="512" viewBox="0 0 512.015 512.015" height="512" id="p">
      <path d="M512.005 360.431c-4.012-91.938-43.07-176.238-85.867-239.732l14.432-14.432c14.379-14.38 14.379-37.778 0-52.159-14.381-14.379-37.778-14.378-52.158 0l-7.659 7.659c-11.171-12.682-21.813-23.523-31.315-32.264-8.969-8.292-20.635-12.593-32.836-12.117-12.205.479-23.494 5.682-31.786 14.651-17.118 18.515-15.981 47.504 2.534 64.622a932.473 932.473 0 0 1 29.825 28.686L10.785 431.736c-14.379 14.38-14.379 37.778 0 52.159 6.945 6.945 16.207 10.77 26.08 10.77s19.134-3.825 26.079-10.77l304.199-304.199c46.622 54.853 88.298 116.374 126.085 185.944a10 10 0 0 0 11.461 4.863 10 10 0 0 0 7.316-10.072zm-109.45-292.18c6.581-6.583 17.292-6.583 23.874-.001 6.582 6.583 6.582 17.293 0 23.875l-11.927 11.927a585.812 585.812 0 0 0-20.766-26.981zM179.501 339.053l-30.27-17.477 20.714-20.714 30.271 17.477zm-35.355 35.355-30.271-17.477 20.714-20.714 30.271 17.477zm-35.356 35.355-30.27-17.477 20.714-20.714 30.271 17.477zm-35.355 35.355-30.271-17.477 20.714-20.714 30.271 17.477zm-36.571 29.546c-4.53 0-8.77-1.744-11.937-4.912-6.582-6.583-6.582-17.292 0-23.874l3.597-3.597 30.271 17.477-9.994 9.994c-3.168 3.168-7.407 4.912-11.937 4.912zm177.992-170.967-30.271-17.477L331.13 139.676a944.855 944.855 0 0 1 22.869 24.878zm86.066-221.73c-5.042-4.665-7.967-11.014-8.236-17.878-.27-6.868 2.151-13.428 6.817-18.475 9.631-10.417 25.942-11.057 36.377-1.409 48.832 44.925 128.95 147.351 150.806 269.441-53.567-90.123-114.641-166.243-185.764-231.679z" />
      <path d="M328.017 58.544c-3.905-3.905-10.234-3.903-14.14.003-3.905 3.905-3.903 10.24.002 14.145 1.953 1.953 4.512 2.929 7.071 2.929s5.119-.976 7.071-2.929c3.905-3.905 3.905-10.237 0-14.143z" />
    </svg>
  </defs>
  <g data-name="049-pouch.svg">
    <g transform="rotate(-8.999 3395.08 14.69) scale(.24414)">
      <path fill="transparent" d="M0 0h512v512H0z" />
      <use xlink:href="#a" />
    </g>
    <g transform="rotate(-8.999 142.292 -241.256) scale(.24414)">
      <path fill="transparent" d="M0 0h512v512H0z" />
      <use xlink:href="#a" />
    </g>
  </g>
  <g transform="translate(231.5 192.662) scale(.24414)" data-name="036-yin yang.svg">
    <path fill="transparent" d="M0 0h512v512H0z" />
    <use xlink:href="#b" />
  </g>
  <g transform="rotate(-15.999 850.453 -173.237) scale(.24414)" data-name="037-ninja.svg">
    <path fill="transparent" d="M0 0h512v512H0z" />
    <use xlink:href="#c" />
  </g>
  <g data-name="033-shuriken.svg">
    <g transform="rotate(.992 -26808.416 9088.393) scale(.24414)">
      <path fill="transparent" d="M0 0h512v512H0z" />
      <use xlink:href="#d" />
    </g>
    <g transform="rotate(.992 2526.277 8836.696) scale(.24414)">
      <path fill="transparent" d="M0 0h512v512H0z" />
      <use xlink:href="#d" />
    </g>
  </g>
  <g transform="rotate(-7.999 776.64 -897.108) scale(.24414)" data-name="026-shuriken.svg">
    <path fill="transparent" d="M0 0h512v512H0z" />
    <use xlink:href="#e" />
  </g>
  <g data-name="024-dojo.svg">
    <g transform="rotate(7.999 -3289.884 3382.938) scale(.24414)">
      <path fill="transparent" d="M0 0h512v512H0z" />
      <use xlink:href="#f" />
    </g>
    <g transform="rotate(7.999 371.087 3127.005) scale(.24414)">
      <path fill="transparent" d="M0 0h512v512H0z" />
      <use xlink:href="#f" />
    </g>
    <g transform="rotate(7.999 -3545.816 -278.033) scale(.24414)">
      <path fill="transparent" d="M0 0h512v512H0z" />
      <use xlink:href="#f" />
    </g>
    <g transform="rotate(7.999 115.154 -533.965) scale(.24414)">
      <path fill="transparent" d="M0 0h512v512H0z" />
      <use xlink:href="#f" />
    </g>
  </g>
  <g data-name="015-fuji.svg">
    <g transform="rotate(3.998 -5566.162 954.127) scale(.24414)">
      <path fill="transparent" d="M0 0h512v512H0z" />
      <use xlink:href="#g" />
    </g>
    <g transform="rotate(3.998 1764.718 698.396) scale(.24414)">
      <path fill="transparent" d="M0 0h512v512H0z" />
      <use xlink:href="#g" />
    </g>
  </g>
  <g transform="translate(149.5 331.141) scale(.24414)" data-name="002-smoke bomb.svg">
    <path fill="transparent" d="M0 0h512v512H0z" />
    <use xlink:href="#h" />
  </g>
  <g data-name="003-scroll.svg">
    <g transform="rotate(-161 254.584 84.628) scale(.24414)">
      <path fill="transparent" d="M0 0h512v512H0z" />
      <use xlink:href="#i" />
    </g>
    <g transform="rotate(-161 -1.415 127.467) scale(.24414)">
      <path fill="transparent" d="M0 0h512v512H0z" />
      <use xlink:href="#i" />
    </g>
  </g>
  <g data-name="018-letter.svg">
    <g transform="rotate(18 -147.327 1760.685) scale(.24414)">
      <path fill="transparent" d="M0 0h512v512H0z" />
      <use xlink:href="#j" />
    </g>
    <g transform="rotate(18 -403.313 144.364) scale(.24414)">
      <path fill="transparent" d="M0 0h512v512H0z" />
      <use xlink:href="#j" />
    </g>
  </g>
  <g data-name="043-dummy.svg">
    <g transform="rotate(-4.998 4280.504 -4669.937) scale(.24414)">
      <path fill="transparent" d="M0 0h512v512H0z" />
      <use xlink:href="#k" />
    </g>
    <g transform="rotate(-4.998 4024.676 1193.427) scale(.24414)">
      <path fill="transparent" d="M0 0h512v512H0z" />
      <use xlink:href="#k" />
    </g>
  </g>
  <g data-name="020-kunai.svg">
    <g transform="rotate(-101 424.97 -9.694) scale(.24414)">
      <path fill="transparent" d="M0 0h512v512H0z" />
      <use xlink:href="#l" />
    </g>
    <g transform="rotate(-101 168.97 201.336) scale(.24414)">
      <path fill="transparent" d="M0 0h512v512H0z" />
      <use xlink:href="#l" />
    </g>
  </g>
  <g transform="rotate(29 -247.315 861.46) scale(.24414)" data-name="045-ninja.svg">
    <path fill="transparent" d="M0 0h512v512H0z" />
    <use xlink:href="#m" />
  </g>
  <g data-name="039-fan.svg">
    <g transform="rotate(26 -693.8 936.279) scale(.24414)">
      <path fill="transparent" d="M0 0h512v512H0z" />
      <use xlink:href="#n" />
    </g>
    <g transform="rotate(26 415.057 680.285) scale(.24414)">
      <path fill="transparent" d="M0 0h512v512H0z" />
      <use xlink:href="#n" />
    </g>
  </g>
  <g transform="rotate(146 186.142 120.356) scale(.24414)" data-name="011-nunchaku.svg">
    <path fill="transparent" d="M0 0h512v512H0z" />
    <use xlink:href="#o" />
  </g>
  <g transform="rotate(-38 692.408 -120.99) scale(.24414)" data-name="021-Sickle.svg">
    <path fill="transparent" d="M0 0h512v512H0z" />
    <use xlink:href="#p" />
  </g>
</svg>
