<svg xmlns="http://www.w3.org/2000/svg" xmlns:xlink="http://www.w3.org/1999/xlink" width="512" height="512" viewBox="0 0 512 512">
  <defs>
    <svg xmlns="http://www.w3.org/2000/svg" width="512" viewBox="0 0 512.087 512.087" height="512" id="a">
      <path d="M372.438 335.232c-13.25-13.248-34.835-13.254-48.134.004l-26.07 26.099-21.803 21.774c-7.242 7.242-16.921 11.23-27.256 11.23-10.334 0-20.014-3.988-27.256-11.23l-92.012-92.012c-15.029-15.029-15.029-39.483-.005-54.508l21.807-21.778 26.063-26.093c6.413-6.393 9.949-14.93 9.956-24.038.007-9.122-3.524-17.683-9.945-24.103l-43.04-43.04c-13.263-13.222-34.844-13.223-48.123.015L60.55 123.65l-.005.005a.018.018 0 0 0-.004.005l-19.84 19.812c-53 53.031-53 139.32.003 192.354L177.22 472.313c26.516 26.516 61.344 39.773 96.175 39.773 34.832 0 69.666-13.26 96.185-39.778l19.521-19.549c.095-.088.196-.168.289-.261.094-.094.174-.195.264-.292l25.815-25.786c6.413-6.413 9.944-14.965 9.944-24.079 0-9.115-3.532-17.667-9.944-24.079zm-271.682-223.53a14.031 14.031 0 0 1 9.937-4.098c3.594 0 7.187 1.363 9.918 4.087l43.03 43.029c2.639 2.639 4.09 6.17 4.087 9.944-.003 3.761-1.45 7.272-4.091 9.904l-19.007 19.028-62.875-62.875zm90.605 346.468L54.848 321.685c-45.21-45.236-45.21-118.839-.008-164.068l12.771-12.753 62.875 62.875-14.722 14.703c-22.827 22.827-22.827 59.971 0 82.798l92.012 92.012c11.02 11.02 25.722 17.088 41.398 17.088 15.677 0 30.379-6.068 41.394-17.083l14.727-14.708 62.87 62.87-12.734 12.752c-45.234 45.235-118.835 45.234-164.07-.001zm209.968-45.896-19.022 19-62.868-62.868 19.001-19.021c5.485-5.47 14.392-5.475 19.855-.011l43.03 43.03c2.635 2.635 4.086 6.164 4.086 9.937s-1.45 7.303-4.082 9.933zM300.737 87.533c-22.051 0-39.99 17.952-39.99 40.019 0 22.051 17.939 39.991 39.99 39.991a39.99 39.99 0 0 0 7.796-.769c-9.403 16.362-20.696 25.123-21.013 25.365-4.411 3.299-5.325 9.548-2.037 13.973a9.984 9.984 0 0 0 8.034 4.036 9.956 9.956 0 0 0 5.957-1.975c1.439-1.069 35.315-26.752 40.877-75.143.005-.039.003-.077.007-.116.237-1.756.37-3.544.37-5.363 0-22.066-17.94-40.018-39.991-40.018zm-19.99 40.019c0-11.038 8.968-20.019 19.99-20.019 11.023 0 19.991 8.98 19.991 20.019 0 11.023-8.968 19.991-19.991 19.991-11.022 0-19.99-8.968-19.99-19.991zM446.097 86.995H423.93c-5.523 0-10 4.478-10 10s4.477 10 10 10h12.167v93.719c0 5.522 4.477 10 10 10s10-4.478 10-10V96.995c0-5.522-4.477-10-10-10zM382.913 86.995h-22.167c-5.523 0-10 4.478-10 10s4.477 10 10 10h12.167v93.719c0 5.522 4.477 10 10 10s10-4.478 10-10V96.995c0-5.522-4.477-10-10-10z" />
      <path d="M467.138 43.091C439.086 15.304 401.885 0 362.362 0c-40.024 0-77.58 15.659-105.748 44.091-21.398 21.59-35.508 48.774-40.802 78.614-5.16 29.079-1.674 58.7 10.079 85.673 8.988 22.444 2.295 50.825-19.893 84.357a10 10 0 0 0 7.705 15.498c7.483.476 14.3.696 20.541.696 42.544 0 58.175-10.27 73.352-20.243l1.334-.876c25.763 9.906 53.632 12.451 80.944 7.343 29.785-5.569 56.838-19.934 78.237-41.537 57.744-58.289 57.309-152.728-.973-210.525zm-13.236 196.45c-37.406 37.766-93.184 48.701-142.102 27.856a9.988 9.988 0 0 0-9.22.72c-2.063 1.289-4.048 2.594-5.967 3.855-13.534 8.894-26.396 17.316-64.873 16.951 18.571-33.312 22.832-62.909 12.649-88.152-.036-.088-.072-.176-.11-.263-21.29-48.721-10.872-104.592 26.542-142.34C295.205 33.556 327.715 20 362.39 20c34.189 0 66.39 13.247 90.668 37.296 50.452 50.031 50.831 131.786.844 182.245z" />
    </svg>
    <svg xmlns="http://www.w3.org/2000/svg" width="512" viewBox="0 0 512 512" height="512" id="b">
      <path d="m422.763 175.616-46.969-82.005a10 10 0 0 0-8.678-5.03h-78.285l-4.005-13.365a10.001 10.001 0 0 0-9.579-7.129h-52.962a54.506 54.506 0 0 0 1.763-13.754C224.048 24.374 199.674 0 169.715 0s-54.333 24.374-54.333 54.333c0 28.052 21.348 51.206 48.642 54.062v23.159h-33.766c-23.348 0-42.343 18.982-42.343 42.314v32.342c0 5.522 4.478 10 10 10h11.401V502c0 5.522 4.478 10 10 10h216.166c5.522 0 10-4.478 10-10V216.21h11.4c5.522 0 10-4.478 10-10v-32.342c0-23.332-18.995-42.314-42.343-42.314h-22.831l-6.884-22.973h66.494l42.766 74.666v213.192c0 5.522 4.478 10 10 10s10-4.478 10-10V180.586a9.993 9.993 0 0 0-1.321-4.97zM135.382 54.333c0-18.932 15.401-34.333 34.333-34.333s34.333 15.401 34.333 34.333c0 4.78-.99 9.45-2.871 13.754h-11.138c-12.357 0-22.723 8.664-25.36 20.234-16.552-2.446-29.297-16.753-29.297-33.988zm-6.066 218.824h196.166v161.896H129.316zm0 218.843v-36.947h196.166V492zm196.166-238.843H129.316V216.21h196.166zm21.401-79.289v22.342H107.915v-22.342c0-12.305 10.023-22.314 22.343-22.314H294.19l.072.003.04-.003h30.237c12.321 0 22.344 10.009 22.344 22.314zm-162.86-42.314V94.103a6.022 6.022 0 0 1 6.016-6.016h77.766l13.026 43.467z" />
    </svg>
    <svg xmlns="http://www.w3.org/2000/svg" width="512" viewBox="0 0 512 512" height="512" id="c">
      <path d="M192.381 213.83c-5.522 0-9.999 4.477-9.999 9.999v14.838c0 5.522 4.477 9.999 9.999 9.999s9.999-4.477 9.999-9.999v-14.838c0-5.522-4.477-9.999-9.999-9.999zM319.619 213.83c-5.522 0-9.999 4.477-9.999 9.999v14.838c0 5.522 4.477 9.999 9.999 9.999s9.999-4.477 9.999-9.999v-14.838c0-5.522-4.477-9.999-9.999-9.999z" />
      <path d="M430.045 1.797c-15.257-5.423-32.225 1.564-46.55 19.173l-83.057 102.094c-14.224-3.043-29.135-4.615-44.424-4.615-15.298 0-30.218 1.573-44.45 4.618L128.505 20.969C114.179 3.363 97.21-3.628 81.955 1.797 63.006 8.532 52.138 32.453 52.138 67.424v129.369c0 37.913 14.524 54.887 26.194 68.526 2.859 3.341 5.58 6.533 7.821 9.758v5.266c0 25.607 5.593 50.62 16.624 74.344 9.776 21.023 23.742 40.322 40.561 56.134-2 18.53 1.762 35.2 11.218 46.418 6.514 7.728 17.925 15.583 37.224 15.048C203.814 496.317 228.738 512 256.015 512c27.26 0 52.173-15.683 64.206-39.711.624.017 1.247.033 1.854.033 18.183 0 29.068-7.605 35.37-15.082 9.455-11.218 13.217-27.887 11.217-46.418 16.82-15.812 30.786-35.111 40.562-56.134 11.031-23.724 16.624-48.737 16.624-74.344v-5.266c2.24-3.226 4.962-6.417 7.821-9.758 11.67-13.639 26.194-30.613 26.194-68.526V67.424c-.001-34.971-10.869-58.892-29.818-65.627zM72.136 196.793V67.424c0-30.197 8.897-44.075 16.517-46.783 6.709-2.386 15.804 2.459 24.339 12.949l77.484 95.245c-18.787 6.303-35.93 15.371-50.575 26.949-28.571 22.588-46.198 53.375-51.803 90.027-8.522-10.715-15.962-23.772-15.962-49.018zm183.879 295.208c-17.499 0-33.659-8.939-43.13-23.103 3.442-.967 7.529-2.295 11.824-3.691 10.187-3.312 24.137-7.848 31.306-7.848 7.143 0 21.083 4.533 31.261 7.843 4.302 1.399 8.394 2.727 11.841 3.696-9.468 14.164-25.618 23.103-43.102 23.103zm-.003-92.12c-9.379-3.06-17.682-8.869-23.594-16.556-4.894-6.353-6.88-11.665-5.449-14.574 2.214-4.501 13.684-9.157 29.046-9.157 15.345 0 26.804 4.654 29.018 9.154 1.432 2.91-.556 8.223-5.455 14.583-5.906 7.679-14.202 13.487-23.566 16.55zm86.142 44.47c-6.893 8.177-19.058 10.093-36.157 5.694-3.179-.818-7.725-2.297-12.536-3.861-8.986-2.923-18.812-6.112-27.447-7.737v-20.932c11.613-4.563 21.876-12.188 29.411-21.985 12.645-16.415 11.086-28.425 7.551-35.61-9.278-18.858-38.291-20.324-46.962-20.324-8.677 0-37.712 1.466-46.991 20.327-3.534 7.184-5.093 19.193 7.546 35.601 7.544 9.807 17.818 17.435 29.445 21.996v20.924c-8.651 1.625-18.492 4.819-27.49 7.745-4.806 1.562-9.346 3.039-12.522 3.856-17.096 4.4-29.264 2.483-36.158-5.694-9.73-11.544-9.277-35.759 1.102-58.883l29.477-65.623c13.365-29.77 33.622-46.844 55.575-46.844s42.209 17.074 55.576 46.846l29.475 65.618c10.382 23.127 10.835 47.342 1.105 58.886zm63.695-164.008c0 38.998-15.631 78.026-42.441 107.354a122.338 122.338 0 0 0-4.114-10.424l-29.475-65.619c-16.735-37.274-43.641-58.652-73.82-58.652s-57.084 21.378-73.819 58.65l-29.477 65.624a122.866 122.866 0 0 0-4.113 10.421c-26.81-29.328-42.441-68.356-42.441-107.354v-8.255c0-92.318 75.269-133.64 149.864-133.64 74.58 0 149.834 41.323 149.834 133.64v8.255zm34.015-83.55c0 25.246-7.44 38.303-15.962 49.018-5.604-36.651-23.23-67.437-51.799-90.027-14.645-11.58-31.789-20.649-50.576-26.952l77.482-95.24c8.537-10.492 17.635-15.336 24.339-12.95 7.62 2.708 16.517 16.586 16.517 46.783v129.368z" />
    </svg>
    <svg xmlns="http://www.w3.org/2000/svg" width="512" viewBox="0 0 512.017 512.017" height="512" id="d">
      <path d="m424.694 191.741-21.412-11.542a63.215 63.215 0 0 0 22.964-24.147c8.064-14.953 9.821-32.151 4.95-48.425-4.872-16.274-15.791-29.677-30.745-37.74s-32.151-9.82-48.426-4.95c-16.274 4.872-29.677 15.791-37.738 30.741-5.451 10.099-8.013 21.226-7.607 32.404l-38.031-20.506 27.733-51.459c4.822-8.927 5.872-19.213 2.956-28.965-2.917-9.755-9.445-17.78-18.39-22.602C272.024-.253 261.743-1.294 252 1.622c-9.754 2.918-17.772 9.441-22.57 18.357L205.847 63.68c-8.319-5.449-16.796-8.841-25.317-10.091-19.06-2.777-45.884-2.385-65.433 15.245-16.202 14.612-23.754 37.955-22.448 69.378 1.415 34.391-.012 44.137-18.359 69.253-25.109 34.441-17.104 75.017 3.781 97.299 7.606 8.11 16.802 15.352 26.559 20.996l-34.888 64.676c-9.968 18.451-3.051 41.58 15.419 51.559 18.451 9.968 41.581 3.051 51.562-15.426l46.139-85.565 56.677 30.568-28.283 52.423c-9.934 18.46-3.014 41.583 15.432 51.549l59.208 31.936a37.825 37.825 0 0 0 17.972 4.538c13.554-.001 26.702-7.245 33.585-19.985 9.915-18.464 2.993-41.584-15.44-51.543L296.3 426.635l33.397-61.898a37.921 37.921 0 0 0 13.729 12.595c18.458 9.933 41.582 3.013 51.549-15.435l51.856-96.197c14.283-26.478 4.355-59.654-22.137-73.959zm-92.806-86.568c5.528-10.252 14.717-17.737 25.873-21.077 11.155-3.339 22.946-2.135 33.198 3.394s17.737 14.716 21.077 25.872 2.135 22.945-3.393 33.197c-11.415 21.167-37.927 29.101-59.099 17.685-8.63-4.654-15.286-11.913-19.167-20.755-.027-.068-.059-.134-.088-.202a44.414 44.414 0 0 1-1.806-4.921c-3.335-11.16-2.126-22.947 3.405-33.193zM92.661 291.084c-14.883-15.879-20.716-46.452-2.216-71.829 22.316-30.548 23.702-45.025 22.187-81.869-1.047-25.197 4.289-43.264 15.86-53.699 13.781-12.429 34.337-12.468 49.145-10.308 6.068.89 12.326 3.567 18.671 7.977l-12.727 23.583c-9.915 18.465-2.993 41.584 15.438 51.54l52.5 28.31-44.61 82.74-21.396-11.545c-8.925-4.822-19.213-5.866-28.97-2.944-9.747 2.919-17.769 9.441-22.592 18.368l-19.822 36.747c-7.88-4.617-15.303-10.497-21.468-17.071zm336.567-34.877-51.853 96.191c-4.73 8.753-15.708 12.036-24.457 7.329-4.229-2.285-7.322-6.096-8.711-10.732-1.388-4.633-.896-9.507 1.382-13.725l.003-.006 40.052-74.259c2.622-4.861.807-10.927-4.054-13.549-4.859-2.621-10.927-.807-13.548 4.055L327.99 325.77l-.013.023-54.032 100.147a10.004 10.004 0 0 0 4.057 13.554l34.513 18.595c8.746 4.726 12.028 15.706 7.329 24.457-4.728 8.752-15.706 12.039-24.462 7.324l-59.194-31.928c-8.753-4.729-12.038-15.707-7.326-24.462l33.026-61.216a10.002 10.002 0 0 0-4.053-13.55l-68.779-37.096-5.528-2.966c-4.861-2.607-10.912-.787-13.529 4.065l-50.875 94.35c-4.736 8.768-15.707 12.055-24.456 7.329-8.768-4.737-12.055-15.708-7.326-24.462l64.207-119.028c2.284-4.229 6.096-7.322 10.732-8.711 4.634-1.386 9.507-.896 13.729 1.385l30.205 16.298a10.003 10.003 0 0 0 13.551-4.055l54.104-100.347c2.621-4.861.805-10.927-4.056-13.548l-61.295-33.052c-8.745-4.725-12.027-15.706-7.326-24.461l45.846-84.952c2.268-4.215 6.066-7.299 10.695-8.684 4.633-1.386 9.512-.896 13.732 1.375 4.232 2.281 7.327 6.09 8.712 10.723 1.385 4.63.891 9.506-1.396 13.738l-32.48 60.265c-2.619 4.859-.805 10.922 4.053 13.544l36.604 19.757 26.475 14.262c5.797 11.594 14.974 21.123 26.616 27.401a63.23 63.23 0 0 0 30.094 7.614c2.467 0 4.925-.152 7.363-.436l37.69 20.317c16.787 9.068 23.082 30.09 14.031 46.868z" />
    </svg>
    <svg xmlns="http://www.w3.org/2000/svg" width="512" viewBox="0 0 512 512" height="512" id="e">
      <path d="M498.167 158.012c8.92-8.921 13.833-20.817 13.833-33.496s-4.913-24.574-13.833-33.495c-8.921-8.921-20.822-13.834-33.51-13.834s-24.589 4.913-33.51 13.834l-14.424 14.423c-27.315-17.051-59.553-26.922-94.058-26.922H220.119c-10.932 0-19.826 8.906-19.826 19.854v29.843h-55V98.375c0-10.947-8.894-19.854-19.826-19.854H29.822C13.378 78.521 0 91.899 0 108.343v105.074c0 14.474 3.146 29.849 26.47 34.142l97.175 17.976c13.882 2.573 19.572 8.558 24.194 25.544 16.299 83.308 89.763 143.735 174.826 143.735 98.23 0 178.146-79.916 178.146-178.146 0-29.359-7.144-57.08-19.778-81.522zm-52.878-52.849c5.143-5.144 12.021-7.977 19.368-7.977s14.225 2.833 19.368 7.977c5.143 5.143 7.976 12.016 7.976 19.353s-2.833 14.21-7.976 19.354l-13.514 13.514a179.623 179.623 0 0 0-37.205-40.236zM20 213.417V108.343c0-5.323 4.498-9.821 9.822-9.821h29.474v134.77L30.1 227.891c-8.186-1.507-10.1-3.023-10.1-14.474zm302.665 201.396c-75.626 0-140.923-53.789-155.261-127.898a9.797 9.797 0 0 0-.161-.698c-4.844-18.007-13.037-35.358-39.957-40.348l-47.991-8.878V98.521h45.998v29.843c0 10.947 8.907 19.854 19.854 19.854h55.292c10.948 0 19.854-8.906 19.854-19.854V98.521h102.372c87.202 0 158.146 70.943 158.146 158.146s-70.944 158.146-158.146 158.146z" />
      <path d="M231.791 165.85c-24.276 24.276-37.646 56.55-37.646 90.874 0 34.325 13.37 66.599 37.646 90.875 25.054 25.054 57.964 37.581 90.875 37.581s65.82-12.527 90.875-37.581c50.108-50.108 50.108-131.641 0-181.749-50.111-50.109-131.643-50.109-181.75 0zm167.606 167.606c-42.31 42.311-111.154 42.311-153.464 0-20.499-20.498-31.789-47.749-31.789-76.732 0-28.982 11.29-56.233 31.789-76.731 21.155-21.155 48.943-31.733 76.732-31.733s55.577 10.578 76.732 31.733c42.311 42.309 42.311 111.153 0 153.463z" />
      <path d="M373.277 210.896c-17.853.81-31.675-6.637-42.255-22.736a10.002 10.002 0 0 0-8.357-4.508h-.005a9.998 9.998 0 0 0-8.357 4.517c-10.554 16.095-24.386 23.527-42.25 22.728-5.067-.219-9.52 3.391-10.322 8.41-8.232 51.456 10.743 89.335 56.397 112.583a9.991 9.991 0 0 0 9.076 0c45.684-23.264 64.658-61.144 56.396-112.589a9.999 9.999 0 0 0-10.323-8.405zm-50.612 100.746c-31.868-17.876-45.747-44.434-42.25-80.899 16.613-1.277 30.763-8.24 42.256-20.791 11.506 12.549 25.651 19.512 42.249 20.79 3.515 36.452-10.367 63.013-42.255 80.9z" />
    </svg>
    <svg xmlns="http://www.w3.org/2000/svg" width="512" viewBox="0 0 512 512" height="512" id="f">
      <path d="M75.763 248.695h171.294c5.522 0 10-4.477 10-10v-94.902c0-5.523-4.478-10-10-10H75.763c-5.522 0-10 4.477-10 10v94.902c0 5.523 4.477 10 10 10zm67.089-20v-74.902h37.116v74.902zm94.205 0h-37.089v-74.902h37.089zM85.763 153.792h37.089v74.902H85.763z" />
      <path d="m510.672 274.136-63.835-111.145a10.002 10.002 0 0 0-8.672-5.02h-18.828v-19.338c0-18.894-15.384-34.264-34.292-34.264-18.894 0-34.265 15.371-34.265 34.264v19.338h-27.961V98.694c0-5.523-4.478-10-10-10H10c-5.522 0-10 4.477-10 10V378.27c0 5.523 4.478 10 10 10h66.147c7.394 20.411 26.969 35.036 49.901 35.036s42.507-14.625 49.901-35.036h181.729c7.394 20.411 26.97 35.036 49.901 35.036s42.507-14.625 49.901-35.036H502c5.522 0 10-4.477 10-10v-99.154c0-1.747-.458-3.465-1.328-4.98zm-25.947-5.02h-93.16c-3.86 0-7.121-3.261-7.121-7.121v-32.087c0-3.86 3.261-7.121 7.121-7.121h66.551zM370.78 138.634c0-7.865 6.399-14.264 14.265-14.264 7.881 0 14.292 6.399 14.292 14.264v19.338H370.78zm-67.961-29.94V279.66H20V108.694zM20 299.661h282.819v68.609H179.055c-1.046-28.342-24.415-51.079-53.007-51.079s-51.961 22.738-53.006 51.079H20zm106.048 103.645c-16.115 0-29.566-11.594-32.469-26.878-.014-.077-.025-.155-.042-.232a33.039 33.039 0 0 1-.546-5.948c0-18.228 14.829-33.057 33.057-33.057 18.229 0 33.058 14.83 33.058 33.057-.001 18.228-14.83 33.058-33.058 33.058zm281.532 0c-16.103 0-29.546-11.576-32.463-26.841-.017-.094-.031-.188-.05-.281a33.085 33.085 0 0 1-.544-5.935c0-18.228 14.829-33.057 33.058-33.057 18.228 0 33.057 14.83 33.057 33.057a33.13 33.13 0 0 1-.546 5.948c-.016.076-.027.155-.042.232-2.904 15.282-16.355 26.877-32.47 26.877zm53.007-35.036c-1.046-28.342-24.414-51.079-53.006-51.079s-51.962 22.738-53.007 51.079h-31.753V177.972h109.558l14.252 24.815h-55.065c-14.955 0-27.121 12.167-27.121 27.121v32.087c0 14.955 12.166 27.121 27.121 27.121H492v24.276h-11.713c-5.522 0-10 4.477-10 10s4.478 10 10 10H492v34.877h-31.413z" />
    </svg>
    <svg xmlns="http://www.w3.org/2000/svg" width="512" viewBox="0 0 512 512" height="512" id="g">
      <path d="M512 384.401v-.002c-.006-30.044-.573-63.813-49.259-82.435a11.6 11.6 0 0 0-.261-.096l-43.689-15.332-58.946-68.227-.18-.202c-23.808-26.099-37.293-27.236-61.027-27.092-1.57.01-10.514.023-10.514.023v-22.97c0-18.206-14.799-33.018-32.988-33.018h-46.601c-18.206 0-33.018 14.812-33.018 33.018v23.029l-43.562.022c-34.817 0-46.805 23.854-56.914 50.459l-17.563 43.51h-14.03c-23.303 0-42.412 19.062-42.598 42.485L0 426.759a10 10 0 0 0 10 10.085h42.76c6.307 27.686 31.108 48.417 60.675 48.417 29.554 0 54.343-20.731 60.646-48.417h142.721c6.304 27.686 31.093 48.417 60.646 48.417 29.567 0 54.367-20.731 60.674-48.417H502c5.522 0 10-4.477 10-10v-42.443zM298.761 211.016c19.762-.128 27.186-.168 46.039 20.473l46.311 53.602H242.203v-74.027c0-.001 54.948-.038 56.558-.048zm-103.243-42.947c0-7.178 5.84-13.018 13.018-13.018h46.601c7.162 0 12.988 5.84 12.988 13.018v22.98l-72.606.038v-23.018zm-101.817 80.71c11.076-29.168 19.675-37.658 38.276-37.658l90.227-.047v74.017H79.047l14.579-36.118.075-.194zM43.449 305.09h367.813l44.461 15.603c31.61 12.135 35.676 29.894 36.199 53.785l-75.241.287c-10.714-8.72-24.371-13.96-39.233-13.96-14.863 0-28.521 5.246-39.233 13.975H152.668c-10.712-8.729-24.369-13.975-39.233-13.975-14.87 0-28.534 5.246-39.251 13.975H20.447l.404-47.039c.099-12.49 10.235-22.651 22.598-22.651zm272.095 111.755H175.34a61.71 61.71 0 0 0-6.498-22.066h153.201a61.69 61.69 0 0 0-6.499 22.066zM20.276 394.779h37.727a61.673 61.673 0 0 0-6.501 22.066H20.086zm93.159 70.483c-23.292 0-42.242-18.95-42.242-42.243 0-23.277 18.95-42.214 42.242-42.214 23.276 0 42.213 18.938 42.213 42.214 0 23.293-18.937 42.243-42.213 42.243zm264.014 0c-23.276 0-42.213-18.95-42.213-42.243 0-23.277 18.937-42.214 42.213-42.214 23.292 0 42.241 18.938 42.241 42.214 0 23.293-18.949 42.243-42.241 42.243zm61.932-48.417a61.693 61.693 0 0 0-6.54-22.142l59.159-.226v22.368z" />
      <path d="M223.473 349.935h32.513c5.522 0 10-4.477 10-10s-4.478-10-10-10h-32.513c-5.522 0-10 4.477-10 10s4.478 10 10 10zM232.203 86.736c5.522 0 10-4.477 10-10V36.738c0-5.523-4.478-10-10-10s-10 4.477-10 10v39.998c0 5.523 4.478 10 10 10zM171.474 105.067c1.953 1.953 4.512 2.929 7.071 2.929s5.118-.977 7.071-2.929c3.905-3.905 3.905-10.237 0-14.142l-28.289-28.29c-3.905-3.905-10.235-3.905-14.143 0-3.905 3.905-3.905 10.237 0 14.142zM285.834 107.996a9.97 9.97 0 0 0 7.071-2.929l28.289-28.29c3.905-3.905 3.905-10.237 0-14.142-3.906-3.905-10.236-3.905-14.143 0l-28.289 28.29c-3.905 3.905-3.905 10.237 0 14.142a9.972 9.972 0 0 0 7.072 2.929z" />
    </svg>
    <svg xmlns="http://www.w3.org/2000/svg" width="512" viewBox="0 0 512.006 512.006" height="512" id="h">
      <path d="M492.263 73.827c16.854-16.854 16.856-44.303-.008-61.205-16.867-16.83-44.314-16.83-61.189.008L19.724 423.971c-16.831 16.868-16.831 44.313.016 61.197 8.433 8.414 19.509 12.621 30.587 12.621 11.081 0 22.164-4.21 30.603-12.63l84.601-84.627 52.27 52.27-10.558 10.562a10 10 0 0 0 .004 14.146l23.74 23.712c6.935 6.954 16.195 10.783 26.074 10.783 9.878 0 19.137-3.83 26.059-10.771l44.306-44.277.013-.012c14.335-14.374 14.335-37.762-.01-52.145l-23.754-23.755a10.003 10.003 0 0 0-7.071-2.929h-.006a9.997 9.997 0 0 0-7.073 2.937l-10.539 10.542-52.258-52.237zM88.623 449.175l-32.909-32.909 24.153-24.153 32.905 32.905zm-54.741 21.851c-9.058-9.078-9.058-23.85-.007-32.92l7.697-7.697 32.911 32.911-7.688 7.69c-9.079 9.058-23.851 9.059-32.913.016zm257.243-63.259 5.486-5.499 16.666 16.666c6.567 6.586 6.568 17.301.001 23.887L268.971 487.1c-3.154 3.164-7.385 4.906-11.91 4.906-4.526 0-8.756-1.742-11.926-4.92l-16.675-16.654zm-26.278-2.026-32.906 32.917-59.34-59.34a10.002 10.002 0 0 0-14.143.001l-31.545 31.554L94.01 377.97 445.2 26.78c9.077-9.057 23.849-9.06 32.912-.016 9.068 9.088 9.072 23.856.008 32.92L205.513 332.291a9.995 9.995 0 0 0 .002 14.143z" />
    </svg>
    <svg xmlns="http://www.w3.org/2000/svg" width="512" viewBox="0 0 512.009 512.009" height="512" id="i">
      <path d="M233.175 365.832c-.633-5.486-5.593-9.403-11.08-8.787l-148.544 17.14c-5.484.634-9.418 5.591-8.788 11.076l5.941 51.709c4.983 43.143 41.717 75.04 84.141 75.04 3.232 0 6.502-.186 9.789-.565 22.421-2.572 42.54-13.786 56.65-31.575 14.106-17.785 20.449-39.922 17.86-62.334zm-27.56 101.608c-10.788 13.601-26.151 22.172-43.269 24.136-35.484 4.095-67.676-21.427-71.774-56.896l-4.8-41.773 128.682-14.848 4.823 41.771c1.976 17.103-2.877 34.011-13.662 47.61zM122.271 144.091c-23.617 2.721-44.502 18.081-60.396 44.421-27.038 44.809-34.161 112.775-16.568 158.096a10 10 0 0 0 10.468 6.315l178.759-20.636a10 10 0 0 0 8.755-8.529c6.826-48.121-15.573-112.676-52.104-150.159-21.473-22.035-45.306-32.237-68.914-29.508zm101.997 169.248L61.461 332.134C49.485 292.692 56.658 235.87 79 198.844c8.768-14.529 23.789-32.377 45.565-34.885a44.902 44.902 0 0 1 5.158-.297c19.55 0 36.241 12.712 47.14 23.895 30.184 30.971 50.097 84.664 47.405 125.782zM439.214 230.037l-148.686-15.832c-5.492-.589-10.417 3.393-11.002 8.884l-5.516 51.733c-4.941 46.481 28.856 88.318 75.342 93.261 3.033.322 6.046.479 9.03.479 42.752 0 79.609-32.354 84.231-75.796l5.485-51.731c.584-5.491-3.394-10.414-8.884-10.998zm-16.489 60.617c-3.777 35.504-35.753 61.322-71.258 57.54-35.52-3.776-61.345-35.742-57.569-71.255l4.455-41.788 128.804 13.715zM449.226 44.242C433.1 18.049 412.083 2.879 388.451.371c-23.646-2.525-47.379 7.892-68.655 30.111-36.197 37.802-58.031 102.553-50.789 150.615a10 10 0 0 0 8.83 8.454l89.483 9.522 89.479 9.493a10.003 10.003 0 0 0 10.41-6.409c17.182-45.465 9.451-113.355-17.983-157.915zm1.699 143.59-81.491-8.646-81.496-8.673c-3.048-41.098 16.395-94.964 46.304-126.199 11.737-12.258 30.304-26.376 52.094-24.056 21.788 2.312 36.965 20.021 45.86 34.469 22.667 36.819 30.348 93.566 18.729 133.105z" />
    </svg>
    <svg xmlns="http://www.w3.org/2000/svg" width="512" viewBox="0 0 512 512" height="512" id="j">
      <path d="M500.973 9.037a10 10 0 0 0-16.692-6.426c-41.971 38.276-70.638 43.258-111.978 39.286a10 10 0 0 0-8.028 2.883L147.421 261.634l-3.449-3.449c-9.648-9.648-22.275-13.28-34.641-9.965-13.134 3.522-23.892 14.286-27.406 27.422-3.308 12.364.329 24.982 9.974 34.616l23.18 23.18-90.049 90.075c-9.765 9.765-15.143 22.789-15.143 36.672 0 13.884 5.378 26.908 15.143 36.672C34.794 506.622 47.818 512 61.702 512s26.908-5.378 36.672-15.143l90.062-90.062 21.575 21.575c7.303 7.311 16.316 11.169 25.634 11.169 2.979 0 5.989-.395 8.984-1.196 13.143-3.519 23.908-14.285 27.427-27.427 3.31-12.364-.325-24.981-9.968-34.615l-3.449-3.449 192.989-192.988c21.379-21.38 36.274-50.7 44.27-87.146 5.808-26.477 7.658-56.978 5.075-83.681zM84.231 482.716C78.244 488.703 70.243 492 61.702 492s-16.542-3.297-22.53-9.285c-5.987-5.987-9.285-13.988-9.285-22.53 0-8.541 3.297-16.542 9.286-22.531l46.865-46.879 45.078 45.056zm61.026-61.027-45.08-45.058 29.043-29.052 45.073 45.073zm107.48-15.946c-1.652 6.168-7.113 11.629-13.281 13.281-5.504 1.473-10.651-.137-15.299-4.792l-28.645-28.645-.005-.005-.005-.005-89.466-89.466c-4.652-4.647-6.265-9.795-4.792-15.301 1.649-6.163 7.104-11.621 13.266-13.273 1.32-.354 2.619-.53 3.896-.53 4.054 0 7.882 1.78 11.422 5.32l118.121 118.12c4.651 4.646 6.262 9.792 4.788 15.296zm184.748-240.022-44.623 44.623-21.133-21.132c-3.905-3.905-10.237-3.905-14.142 0s-3.905 10.237 0 14.142l21.132 21.132-22.953 22.953-35.745-35.745c-3.905-3.905-10.237-3.905-14.143 0-3.905 3.905-3.905 10.237 0 14.143l35.745 35.745-22.938 22.938-21.118-21.118c-3.905-3.905-10.237-3.905-14.143 0-3.905 3.905-3.905 10.237 0 14.143l21.118 21.118-22.953 22.953-35.76-35.76c-3.905-3.904-10.237-3.904-14.143 0-3.905 3.905-3.905 10.237 0 14.143l35.76 35.76-22.952 22.952-82.933-82.933L375.116 62.224c37.789 3.047 69.043-1.983 107.012-31.593.61 44.799-10.47 100.918-44.643 135.09z" />
    </svg>
    <svg xmlns="http://www.w3.org/2000/svg" width="512" viewBox="0 0 512 512" height="512" id="k">
      <path d="M457.639 0H89.199C64.475 0 44.361 20.114 44.361 44.837V423.85c0 24.739 20.114 44.866 44.837 44.866h51.028V502a10 10 0 0 0 15.503 8.349l35.993-23.725 35.966 23.724a9.995 9.995 0 0 0 10.247.457 10 10 0 0 0 5.26-8.805v-33.285l214.444-.027c5.522 0 9.999-4.478 9.999-10V10c.001-5.523-4.477-10-9.999-10zm-10 379.013H122.102V20h325.537zM89.199 20h12.903v359.013H89.199a44.578 44.578 0 0 0-24.837 7.53V44.837C64.361 31.142 75.503 20 89.199 20zm0 428.716c-13.695 0-24.837-11.155-24.837-24.866 0-13.695 11.142-24.837 24.837-24.837h51.028v49.703zm133.997 34.708-25.964-17.126a9.997 9.997 0 0 0-11.01-.001l-25.995 17.135v-84.418h62.969zm20-34.709v-49.701h204.443v49.676z" />
      <path d="M329.173 197.011c.092.463.216.919.372 1.365a11.89 11.89 0 0 0 11.205 7.956 11.93 11.93 0 0 0 11.358-8.337l15.945-51.59 15.91 51.612c.052.166.107.331.167.494 1.717 4.688 6.204 7.822 11.182 7.821h.085a11.945 11.945 0 0 0 11.16-7.984c.155-.442.278-.894.37-1.354l16.412-82.458c1.078-5.417-2.438-10.682-7.855-11.76-5.416-1.081-10.682 2.439-11.76 7.855l-10.11 50.797-15.992-51.876a10 10 0 0 0-9.553-7.054h-.004a10 10 0 0 0-9.554 7.047l-16.009 51.797-10.066-50.871c-1.072-5.418-6.333-8.941-11.751-7.869-5.417 1.072-8.94 6.333-7.868 11.75zM224.223 205.578c5.162 1.966 10.938-.625 12.904-5.786l5.374-14.11h36.69l5.309 14.08a10.002 10.002 0 0 0 9.358 6.475 9.98 9.98 0 0 0 3.526-.646c5.168-1.949 7.777-7.717 5.828-12.885l-31.123-82.543a10.438 10.438 0 0 0-.133-.332c-1.873-4.477-6.203-7.318-11.086-7.309a11.832 11.832 0 0 0-10.999 7.61l-31.435 82.543c-1.965 5.16.626 10.938 5.787 12.903zm36.714-68.307 10.713 28.411h-21.532zM161.798 206.148c.64.097 1.189.18 10.347.18 4.469 0 10.987-.02 20.566-.067 5.523-.028 9.978-4.527 9.95-10.05-.027-5.506-4.5-9.95-9.999-9.95h-.051c-6.667.033-13.807.057-19.316.062v-73.91c0-5.523-4.477-10-10-10s-10 4.477-10 10v83.848a10 10 0 0 0 8.503 9.887zM199.499 246.065c0 5.523 4.477 10 10 10h158.029c5.522 0 10-4.477 10-10s-4.478-10-10-10H209.499c-5.523 0-10 4.477-10 10zM410.103 282.864H166.951c-5.523 0-10 4.477-10 10s4.477 10 10 10h243.151c5.522 0 10-4.477 10-10s-4.477-10-9.999-10z" />
    </svg>
    <svg xmlns="http://www.w3.org/2000/svg" width="512" viewBox="0 0 512.002 512.002" height="512" id="l">
      <path d="m375.903 136.099-75.306-75.306-.004-.004-22.603-22.602c-3.906-3.905-10.236-3.905-14.143 0-3.905 3.905-3.905 10.237 0 14.142l15.538 15.538-32.53 32.553c-.79.79-1.441 1.707-1.928 2.712l-39.909 82.465L25.054 365.534l-.001.001C8.897 381.69 0 403.25 0 426.242s8.897 44.552 25.053 60.707c16.155 16.156 37.71 25.053 60.693 25.053 22.982 0 44.537-8.897 60.692-25.052h.001l179.967-179.966 82.465-39.909a9.993 9.993 0 0 0 2.717-1.933l32.525-32.548 15.561 15.561c1.953 1.953 4.512 2.929 7.071 2.929s5.118-.977 7.071-2.929c3.905-3.905 3.905-10.237 0-14.142zm-119.1-11.594 130.694 130.693-64.925 31.42-97.189-97.188zM139.368 465.734l-93.103-93.127 167.018-166.991 93.102 93.102zm-100.173 7.072C26.817 460.429 20 443.892 20 426.242c0-14.244 4.445-27.759 12.664-38.952l92.022 92.046c-11.192 8.22-24.703 12.666-38.94 12.666-17.641 0-34.173-6.817-46.551-19.196zm365.316-228.878L268.069 107.486l25.459-25.477L429.97 218.45z" />
      <path d="M230.914 333.152c6.926-6.916 10.744-16.144 10.75-25.989.006-9.867-3.814-19.125-10.757-26.068-14.363-14.362-37.732-14.362-52.091-.002l-48.882 48.854c-14.318 14.357-14.318 37.717.009 52.083 6.937 6.937 16.187 10.758 26.046 10.758s19.11-3.82 26.046-10.757l48.862-48.861.005-.005a.022.022 0 0 1 .005-.004l.007-.009zm-26.054-42.838a16.78 16.78 0 0 1 11.904 4.923c3.163 3.163 4.903 7.393 4.9 11.913-.003 4.505-1.74 8.717-4.9 11.868l-.005.005c-6.564 6.559-17.241 6.558-23.814-.014-3.15-3.142-4.887-7.353-4.89-11.858-.003-4.517 1.735-8.746 4.895-11.908l.005-.005a16.782 16.782 0 0 1 11.905-4.924zm-36.967 77.574c-3.159 3.16-7.387 4.9-11.904 4.9s-8.745-1.74-11.895-4.89c-6.551-6.569-6.551-17.258-.012-23.816l25.714-25.699a36.4 36.4 0 0 0 9.017 14.777 36.583 36.583 0 0 0 14.796 9.012zM426.523 95.478a9.972 9.972 0 0 0 7.071-2.929l37.299-37.298c3.905-3.905 3.905-10.237 0-14.142s-10.235-3.905-14.143 0l-37.299 37.298c-3.905 3.905-3.905 10.237 0 14.142a9.972 9.972 0 0 0 7.072 2.929zM511.866 146.19c-.902-5.449-6.044-9.138-11.498-8.234l-45.269 7.488c-5.449.901-9.136 6.049-8.234 11.498.811 4.896 5.049 8.37 9.854 8.37.542 0 1.091-.044 1.644-.136l45.269-7.488c5.449-.901 9.136-6.049 8.234-11.498zM355.065 65.137c.551.091 1.098.135 1.638.135 4.808 0 9.048-3.477 9.855-8.375l7.46-45.269c.897-5.449-2.792-10.595-8.241-11.493a9.996 9.996 0 0 0-11.493 8.241l-7.46 45.269c-.897 5.449 2.792 10.594 8.241 11.492z" />
    </svg>
    <svg xmlns="http://www.w3.org/2000/svg" width="512" viewBox="0 0 512 512" height="512" id="m">
      <path d="M502 85.193h-35.184V62.708c0-5.523-4.477-10-10-10s-10 4.477-10 10v22.485H59.662c-31.178 0-56.544 25.366-56.544 56.544v85.917c0 3.586 1.92 6.897 5.032 8.679l29.975 17.159-7.046 36.008C31.064 289.571.186 447.37.186 447.37A9.998 9.998 0 0 0 10 459.29h61.623l.04.002.044-.002h57.997a10 10 0 0 0 9.814-8.08l21.832-111.569h67.111c29.584 0 53.653-24.068 53.653-53.652v-27.615h158.375a9.999 9.999 0 0 0 8.991-5.623l26.516-54.47H502c5.523 0 10-4.477 10-10V95.193c0-5.523-4.477-10-10-10zm-388.947 93.088 27.174-73.088h58.963l-27.197 73.088zm-89.935-36.544c0-20.15 16.394-36.544 36.544-36.544h59.227l-27.174 73.088H23.118zm25.627 161.629 19.877 3.888c10.958 2.15 18.127 12.804 15.979 23.756L63.419 439.29H22.147zm213.37-17.377c0 18.556-15.097 33.652-33.653 33.652h-63.198l11.989-61.268h28.198v25.574c0 5.523 4.477 10 10 10s10-4.477 10-10v-25.574h36.664zm172.12-47.615H169.021a10 10 0 0 0-9.814 8.08l-15.882 81.163-.005.023-21.848 111.65H83.798l20.429-104.435c4.271-21.768-9.975-42.954-31.76-47.228l-19.881-3.889 6.544-33.443a10 10 0 0 0-4.846-10.599l-31.166-17.84v-23.574h430.634zM492 178.281H193.332l27.197-73.088H492z" />
    </svg>
    <svg xmlns="http://www.w3.org/2000/svg" width="512" viewBox="0 0 512 512" height="512" id="n">
      <path d="M509.074 156.857c-3.904-3.907-10.234-3.91-14.142-.006l-24.534 24.512-9.712-9.712a10.003 10.003 0 0 0-14.142 0l-8.024 8.025c-14.109 14.121-32.965 21.898-53.092 21.898-20.129 0-38.993-7.778-53.115-21.902-29.27-29.27-29.27-76.917 0-106.211l8.021-8.022c3.905-3.905 3.905-10.236 0-14.142l-9.707-9.707 24.527-24.505c3.907-3.903 3.91-10.235.007-14.142-3.904-3.907-10.235-3.91-14.141-.006L316.486 27.45l-9.713-9.713a10 10 0 0 0-14.143.001L167.262 143.135c-7.962 7.962-12.346 18.581-12.346 29.903s4.385 21.941 12.346 29.903l3.658 3.658L56.831 320.687c-6.124-4.69-13.593-7.236-21.474-7.236-9.47 0-18.354 3.667-25.013 10.327-13.793 13.793-13.793 36.234.001 50.027l127.854 127.826c6.66 6.679 15.546 10.357 25.023 10.357 9.475 0 18.363-3.679 25.013-10.348 12.649-12.65 13.675-32.604 3.084-46.48L305.4 341.079l3.672 3.672c7.963 7.962 18.577 12.347 29.889 12.347 11.313 0 21.927-4.385 29.889-12.347l125.398-125.398c3.905-3.905 3.905-10.237 0-14.142l-9.706-9.706 24.527-24.506c3.906-3.903 3.909-10.235.005-14.142zm-290.157 69.455 24.533-24.533c1.114-1.114 2.429-1.281 3.117-1.281h.006a4.346 4.346 0 0 1 3.09 1.282l60.554 60.525c1.688 1.697 1.696 4.549.018 6.228l-24.548 24.548zm-44.834 261.196c-2.881 2.889-6.738 4.48-10.861 4.48-4.124 0-7.981-1.591-10.862-4.48l-.011-.011L24.486 359.662c-5.995-5.994-5.995-15.748 0-21.743 2.882-2.882 6.743-4.469 10.871-4.469 4.129 0 7.99 1.587 10.873 4.47l123.836 123.808c.087.094.166.194.258.285.092.092.191.171.286.258l3.474 3.473c5.99 6.01 5.995 15.768-.001 21.764zm3.324-46.72L71.199 334.604 185.061 220.74l93.273 93.273c.09.097.172.2.266.294s.197.176.294.266l12.363 12.363zm177.3-110.179c-4.184 4.184-9.776 6.489-15.747 6.489-5.97 0-11.562-2.305-15.747-6.489l-23.386-23.386 24.548-24.548c9.485-9.486 9.493-24.952-.002-34.495l-60.554-60.525c-4.583-4.606-10.699-7.147-17.221-7.156h-.033c-6.525 0-12.652 2.534-17.257 7.137l-24.533 24.533-23.371-23.371c-4.184-4.184-6.489-9.781-6.489-15.761s2.305-11.576 6.49-15.762L299.704 38.951l19.418 19.418-.954.954c-37.063 37.094-37.061 97.426.003 134.491 17.901 17.901 41.787 27.759 67.257 27.759 25.473 0 49.352-9.86 67.237-27.759l.95-.95 19.418 19.418z" />
      <path d="M381.436 62.52a9.999 9.999 0 0 0 9.478 2.635l16.431-4.075-7.079 39.043a10 10 0 0 0 11.624 11.623l39.026-7.079-4.061 16.44a10 10 0 0 0 2.637 9.469l16.072 16.072c1.953 1.953 4.512 2.929 7.071 2.929s5.118-.976 7.071-2.929c3.905-3.905 3.905-10.237 0-14.142l-12.082-12.081 6.413-25.956a10 10 0 0 0-11.493-12.238l-40.025 7.26 7.261-40.054a10 10 0 0 0-12.247-11.489l-25.951 6.435-12.077-12.077c-3.906-3.905-10.236-3.905-14.142 0-3.905 3.905-3.905 10.236 0 14.142zM163.915 291.493c-3.905-3.905-10.235-3.905-14.142 0-3.905 3.905-3.905 10.237 0 14.142l56.605 56.605c1.953 1.953 4.512 2.929 7.071 2.929s5.119-.977 7.071-2.929c3.905-3.905 3.905-10.237 0-14.142zM193.961 261.447c-3.905-3.905-10.235-3.905-14.142 0-3.905 3.905-3.905 10.237 0 14.142l56.605 56.605c1.953 1.953 4.512 2.929 7.071 2.929s5.119-.977 7.071-2.929c3.905-3.905 3.905-10.237 0-14.142z" />
    </svg>
    <svg xmlns="http://www.w3.org/2000/svg" width="512" viewBox="0 0 512 512" height="512" id="o">
      <path d="m373.355 283.252 32.604-65.212c21.458-21.888 52.536-65.124 74.491-103.731 13.165-23.148 22.347-43.198 27.292-59.589 6.707-22.234 5.487-37.522-3.73-46.74-9.217-9.217-24.505-10.437-46.737-3.729-16.391 4.945-36.438 14.128-59.588 27.292-38.606 21.956-81.842 53.035-103.728 74.494l-65.183 32.606a17.562 17.562 0 0 0-2.596 1.871L68.844 297.854c-3.905 3.905-3.905 10.237 0 14.143l9.012 9.012-40.017 39.997-20.761-20.761c-3.904-3.902-10.234-3.904-14.143 0-3.905 3.905-3.905 10.237 0 14.143l27.826 27.826.003.003.003.002 99.012 99.015.007.007a.023.023 0 0 1 .007.007l27.824 27.824c1.953 1.952 4.512 2.929 7.071 2.929s5.118-.977 7.071-2.929c3.905-3.905 3.905-10.237 0-14.143L151 474.168l40.006-40.007 8.999 9c1.953 1.952 4.512 2.929 7.071 2.929s5.118-.977 7.07-2.929l49.743-49.735c.069-.065.142-.122.21-.19s.125-.141.19-.21L371.47 285.861a7.819 7.819 0 0 0 1.885-2.609zm-116.336 88.76-117.012-117.04 93.241-93.243L350.27 278.778zm-120.162 88.015-84.876-84.879 40.016-39.997 84.866 84.867zm70.219-38.078-8.993-8.993-.007-.008-.008-.007L90.056 304.926l35.81-35.811 117.011 117.039zm154.596-160.054L250.129 150.324l47.742-23.881 87.685 87.686zm101.393-157.474c-21.233 37.338-47.846 73.545-65.565 93.37l-83.293-83.296c19.825-17.721 56.029-44.334 93.367-65.567 55.011-31.287 77.889-31.217 82.296-26.806 4.41 4.409 4.482 27.285-26.805 82.299z" />
    </svg>
    <svg xmlns="http://www.w3.org/2000/svg" width="512" viewBox="0 0 512 512" height="512" id="p">
      <path d="M85.825 161.855c-5.522 0-10 4.478-10 10v31.832c0 5.522 4.478 10 10 10s10-4.478 10-10v-31.832c0-5.522-4.477-10-10-10z" />
      <path d="M467.05 0c-20.347 0-36.9 16.554-36.9 36.9v10.876C358.208 72.67 261.121 86.399 155.507 86.561c-12.436-4.808-25.548-7.249-39.012-7.249C56.698 79.312 8.05 127.96 8.05 187.757c0 59.812 48.648 108.474 108.445 108.474 9.91 0 19.628-1.324 29.027-3.937l25.515 169.412C175.209 489.438 201.198 512 228.973 512h33.873a10 10 0 0 0 9.889-11.491l-20.479-135.88h16.061c21.206 0 38.459-17.253 38.459-38.46V299.29c45.945 6.561 87.747 16.147 123.374 28.475v10.877c0 20.347 16.554 36.9 36.9 36.9s36.9-16.554 36.9-36.9V36.9c0-20.346-16.554-36.9-36.9-36.9zm-439 187.757c0-48.769 39.677-88.445 88.445-88.445 9.312 0 18.407 1.45 27.134 4.27v168.379a87.98 87.98 0 0 1-27.134 4.269c-48.768 0-88.445-39.689-88.445-88.473zM228.973 492c-17.972 0-35.445-15.235-38.158-33.271l-25.557-169.694c18.877.179 37.458.798 55.655 1.834L251.226 492zm57.802-165.83c0 10.179-8.28 18.46-18.459 18.46h-19.075l-7.899-52.41a1021.382 1021.382 0 0 1 45.433 4.442zm-123.146-57.155V106.528c101.512-.816 195.139-14.062 266.521-37.639v237.763c-71.381-23.577-165.007-36.821-266.521-37.637zm320.321 69.628c0 9.319-7.581 16.9-16.9 16.9s-16.9-7.581-16.9-16.9V36.9c0-9.319 7.581-16.9 16.9-16.9s16.9 7.581 16.9 16.9z" />
    </svg>
    <svg xmlns="http://www.w3.org/2000/svg" width="512" viewBox="0 0 512 512" height="512" id="q">
      <path d="M179.721 244.556h152.53c5.522 0 10-4.477 10-10v-49.719c0-5.523-4.478-10-10-10h-152.53c-5.522 0-10 4.477-10 10v49.719c0 5.523 4.477 10 10 10zm10-49.719h132.53v29.719h-132.53zM218.526 265.573H193.44c-5.522 0-10 4.477-10 10s4.478 10 10 10h25.086c5.522 0 10-4.477 10-10s-4.477-10-10-10zM316.519 265.573h-25.086c-5.522 0-10 4.477-10 10s4.478 10 10 10h25.086c5.522 0 10-4.477 10-10s-4.478-10-10-10zM302.601 400.159H209.4c-5.522 0-10 4.477-10 10s4.478 10 10 10h93.201c5.522 0 10-4.477 10-10s-4.478-10-10-10zM209.399 374.267H302.6c5.522 0 10-4.477 10-10s-4.478-10-10-10h-93.201c-5.522 0-10 4.477-10 10s4.478 10 10 10z" />
      <path d="M387.49 298.987v-140c0-16.189-13.171-29.36-29.36-29.36h-4.881v-20.784c0-5.523-4.478-10-10-10s-10 4.477-10 10v20.784h-31.023v-20.784c0-5.523-4.478-10-10-10s-10 4.477-10 10v20.784h-57.327V33.074C224.898 14.837 210.062 0 191.825 0c-18.253 0-33.103 14.837-33.103 33.074v96.552h-4.853c-16.189 0-29.36 13.171-29.36 29.36v140c0 15.264 11.708 27.845 26.616 29.233v118.479c-15.148 2.966-26.616 16.337-26.616 32.342V502c0 5.523 4.478 10 10 10h242.98c5.522 0 10-4.477 10-10v-22.96c0-16.004-11.468-29.375-26.616-32.342V328.22c14.909-1.388 26.617-13.969 26.617-29.233zM171.126 446.08V328.347h169.748V446.08zm7.597-413.006c0-7.209 5.878-13.074 13.103-13.074 7.209 0 13.073 5.865 13.073 13.074v96.552h-26.176zM144.51 298.987v-140c0-5.161 4.199-9.36 9.36-9.36h204.26c5.074 0 9.36 4.287 9.36 9.36v140c0 5.161-4.199 9.36-9.36 9.36H153.87c-5.161 0-9.36-4.199-9.36-9.36zM367.49 479.04V492H144.51v-12.96c0-7.146 5.813-12.96 12.96-12.96h197.06c7.147 0 12.96 5.814 12.96 12.96z" />
    </svg>
    <svg xmlns="http://www.w3.org/2000/svg" width="512" viewBox="0 0 512 512" height="512" id="r">
      <path d="M502 215.877h-30.163v-20.122c0-16.587-13.495-30.082-30.082-30.082h-20.122v-.04c0-16.587-13.495-30.082-30.082-30.082H371.47c-16.587 0-30.082 13.495-30.082 30.082v50.245H170.612v-50.245c0-16.587-13.495-30.082-30.082-30.082h-20.081c-16.587 0-30.082 13.495-30.082 30.082v.04H70.245c-16.587 0-30.082 13.495-30.082 30.082v20.122H10c-5.523 0-10 4.477-10 10v60.245c0 5.522 4.477 10 10 10h30.163v20.123c0 16.587 13.495 30.081 30.082 30.081h20.122v.041c0 16.587 13.495 30.082 30.082 30.082h20.081c16.587 0 30.082-13.495 30.082-30.082v-50.245h170.775v50.245c0 16.587 13.495 30.082 30.082 30.082h20.081c16.587 0 30.082-13.495 30.082-30.082v-.041h20.122c16.587 0 30.082-13.494 30.082-30.081v-20.123H502c5.522 0 10-4.478 10-10v-60.245c0-5.522-4.478-10-10-10zM20 276.122v-40.245h20.163v40.245zm50.245 50.204c-5.56 0-10.082-4.522-10.082-10.081v-120.49c0-5.559 4.522-10.082 10.082-10.082h20.122v140.653zm80.367 20.041c0 5.56-4.523 10.082-10.082 10.082h-20.081c-5.56 0-10.082-4.522-10.082-10.082V165.633c0-5.559 4.522-10.082 10.082-10.082h20.081c5.559 0 10.082 4.523 10.082 10.082zm20-70.245v-40.245h170.775v40.245zm231.021 70.245c0 5.56-4.522 10.082-10.082 10.082H371.47c-5.56 0-10.082-4.522-10.082-10.082V165.633c0-5.559 4.522-10.082 10.082-10.082h20.081c5.56 0 10.082 4.523 10.082 10.082zm50.204-30.122c0 5.559-4.522 10.081-10.082 10.081h-20.122V185.673h20.122c5.56 0 10.082 4.523 10.082 10.082zM492 276.122h-20.163v-40.245H492z" />
    </svg>
    <svg xmlns="http://www.w3.org/2000/svg" width="512" viewBox="0 0 512 512" height="512" id="s">
      <path d="M489.082 276.5a144.636 144.636 0 0 0-53.701-49.392v-33.611c0-5.523-4.477-10-10-10h-47.655v-33.829h15.823c5.523 0 10-4.477 10-10V75.295c0-5.523-4.477-10-10-10h-51.646c-.224 0-.444.019-.665.034l-43.079-19.376v-22.73c0-5.523-4.477-10-10-10h-64.345c-5.523 0-10 4.477-10 10v22.729l-43.079 19.376c-.221-.015-.44-.034-.665-.034h-51.646c-5.523 0-10 4.477-10 10v64.374c0 5.523 4.477 10 10 10h15.823v33.829H86.591c-5.523 0-10 4.477-10 10v33.612a144.572 144.572 0 0 0-53.688 49.394C7.92 299.757 0 326.738 0 354.53c0 79.538 64.708 144.247 144.246 144.247 43.657 0 84.503-19.613 111.788-53.073 26.474 32.372 66.709 53.073 111.692 53.073C447.279 498.777 512 434.068 512 354.53c0-27.79-7.925-54.772-22.918-78.03zM351.902 85.295h31.646v44.374h-31.646zM233.813 33.223h44.345V64.87h-44.345zm-105.39 52.072h31.646v44.374h-31.646zm25.823 64.373h15.823c5.523 0 10-4.477 10-10V83.06l33.744-15.177v6.987c0 5.523 4.477 10 10 10h64.345c5.523 0 10-4.477 10-10v-6.987l33.744 15.177v56.608c0 5.523 4.477 10 10 10h15.823v33.829h-47.627c-5.523 0-10 4.477-10 10v33.611a144.534 144.534 0 0 0-44.096 36.215 144.45 144.45 0 0 0-44.1-36.218v-33.609c0-5.523-4.477-10-10-10h-47.656zm-10 329.109C75.736 478.777 20 423.04 20 354.53c0-47.672 27.826-91.727 70.89-112.235a10 10 0 0 0 5.701-9.028v-29.77h95.311v29.77a10 10 0 0 0 5.706 9.031c18.334 8.718 34.241 21.835 46.359 38.127a143.463 143.463 0 0 0-12.514 26.787c-16.833-30.899-49.612-51.914-87.206-51.914-54.717 0-99.233 44.516-99.233 99.233s44.516 99.233 99.233 99.233c37.598 0 70.379-21.019 87.211-51.923a143.705 143.705 0 0 0 12.539 26.762c-23.43 31.527-60.253 50.174-99.751 50.174zm79.233-124.247c0 43.689-35.544 79.233-79.233 79.233s-79.233-35.544-79.233-79.233 35.544-79.233 79.233-79.233 79.233 35.544 79.233 79.233zm144.247 124.247c-68.51 0-124.247-55.737-124.247-124.247 0-47.664 27.837-91.719 70.918-112.235a10 10 0 0 0 5.701-9.028v-29.77h95.283v29.77a9.998 9.998 0 0 0 5.701 9.028C464.163 262.812 492 306.866 492 354.53c0 68.51-55.749 124.247-124.274 124.247z" />
      <path d="M367.726 255.297c-54.717 0-99.233 44.516-99.233 99.233s44.516 99.233 99.233 99.233c54.733 0 99.261-44.516 99.261-99.233s-44.529-99.233-99.261-99.233zm0 178.466c-43.689 0-79.233-35.544-79.233-79.233s35.544-79.233 79.233-79.233c43.705 0 79.261 35.544 79.261 79.233s-35.557 79.233-79.261 79.233z" />
    </svg>
    <svg xmlns="http://www.w3.org/2000/svg" width="512" viewBox="0 0 512 512" height="512" id="t">
      <path d="m510.986 253.955-53.205-108.962c-1.688-3.456-5.219-5.624-9.054-5.612-.324.002-.643.003-.969.003-55.333 0-138.194-32.172-183.809-92.229a10.001 10.001 0 0 0-15.929.002c-45.587 60.059-128.438 92.227-183.777 92.227-.323 0-.649-.001-.97-.003h-.068a10.001 10.001 0 0 0-8.986 5.612L1.014 253.955a10 10 0 0 0 .875 10.237l51.77 71.788v48.133c0 19.34 11.596 46.397 66.839 65.466 35.904 12.393 84.021 19.219 135.488 19.219 100.709 0 202.327-26.186 202.327-84.685v-48.132l51.796-71.787a10 10 0 0 0 .877-10.239zm-311.721-27.196c22.572-1.151 41.582-10.621 56.721-28.247 15.141 17.628 34.147 27.098 56.721 28.248 4.615 41.245-7.264 72.739-36.165 95.991h-41.087c-28.92-23.248-40.808-54.739-36.19-95.992zM438.313 342.75v31.363H73.659V342.75zm-53.365 87.923c-33.859 11.688-79.659 18.124-128.962 18.124s-95.103-6.437-128.962-18.124c-20.656-7.13-44.669-18.939-51.475-36.561h360.873c-6.805 17.622-30.818 29.431-51.474 36.561zm58.249-107.923H305.375c24.216-27.766 32.938-63.823 25.935-107.544-.804-5.02-5.269-8.636-10.325-8.408-23.99 1.079-42.504-8.867-56.638-30.417a10 10 0 0 0-16.724 0c-14.134 21.55-32.663 31.498-56.638 30.417a9.993 9.993 0 0 0-10.325 8.408c-7.004 43.725 1.723 79.782 25.951 107.544H68.776l-47.163-65.4 47.873-98.042c31.394-.922 66.813-10.126 100.515-26.199 34.499-16.454 63.982-38.438 85.986-64.015 22.017 25.581 51.501 47.563 85.997 64.015 33.704 16.074 69.126 25.278 100.529 26.2l47.873 98.041z" />
      <path d="M134.864 257.526h-28.488c-5.523 0-10 4.477-10 10s4.477 10 10 10h28.488c5.523 0 10-4.477 10-10s-4.477-10-10-10zM405.624 257.526h-28.516c-5.523 0-10 4.477-10 10s4.477 10 10 10h28.516c5.523 0 10-4.477 10-10s-4.477-10-10-10z" />
    </svg>
  </defs>
  <g data-name="031-call.svg">
    <g transform="rotate(-5.999 1283.865 -3488.797) scale(.24414)">
      <path fill="transparent" d="M0 0h512v512H0z" />
      <use xlink:href="#a" />
    </g>
    <g transform="rotate(-5.999 1027.985 1395.974) scale(.24414)">
      <path fill="transparent" d="M0 0h512v512H0z" />
      <use xlink:href="#a" />
    </g>
  </g>
  <g data-name="039-tear gas.svg">
    <g transform="rotate(23 -149.357 1292.348) scale(.24414)">
      <path fill="transparent" d="M0 0h512v512H0z" />
      <use xlink:href="#b" />
    </g>
    <g transform="rotate(23 -405.349 34.068) scale(.24414)">
      <path fill="transparent" d="M0 0h512v512H0z" />
      <use xlink:href="#b" />
    </g>
  </g>
  <g data-name="050-police dog.svg">
    <g transform="rotate(-6.999 746.376 -3966.43) scale(.24414)">
      <path fill="transparent" d="M0 0h512v512H0z" />
      <use xlink:href="#c" />
    </g>
    <g transform="rotate(-6.999 490.464 219.132) scale(.24414)">
      <path fill="transparent" d="M0 0h512v512H0z" />
      <use xlink:href="#c" />
    </g>
  </g>
  <g data-name="046-crime scene.svg">
    <g transform="rotate(13.999 -1613.636 1991.565) scale(.24414)">
      <path fill="transparent" d="M0 0h512v512H0z" />
      <use xlink:href="#d" />
    </g>
    <g transform="rotate(13.999 471.317 1735.587) scale(.24414)">
      <path fill="transparent" d="M0 0h512v512H0z" />
      <use xlink:href="#d" />
    </g>
    <g transform="rotate(13.999 -1869.613 -93.387) scale(.24414)">
      <path fill="transparent" d="M0 0h512v512H0z" />
      <use xlink:href="#d" />
    </g>
    <g transform="rotate(13.999 215.34 -349.365) scale(.24414)">
      <path fill="transparent" d="M0 0h512v512H0z" />
      <use xlink:href="#d" />
    </g>
  </g>
  <g data-name="036-whistle.svg">
    <g transform="rotate(57 -167.064 540.915) scale(.24414)">
      <path fill="transparent" d="M0 0h512v512H0z" />
      <use xlink:href="#e" />
    </g>
    <g transform="rotate(57 304.43 284.917) scale(.24414)">
      <path fill="transparent" d="M0 0h512v512H0z" />
      <use xlink:href="#e" />
    </g>
  </g>
  <g transform="rotate(-5.999 2703.268 -117.742) scale(.24414)" data-name="024-prison.svg">
    <path fill="transparent" d="M0 0h512v512H0z" />
    <use xlink:href="#f" />
  </g>
  <g data-name="004-police car.svg">
    <g transform="rotate(-2.997 6568.947 -8367.628) scale(.24414)">
      <path fill="transparent" d="M0 0h512v512H0z" />
      <use xlink:href="#g" />
    </g>
    <g transform="rotate(-2.997 6313.425 1408.618) scale(.24414)">
      <path fill="transparent" d="M0 0h512v512H0z" />
      <use xlink:href="#g" />
    </g>
  </g>
  <g data-name="038-baton.svg">
    <g transform="rotate(-161 110.67 251.137) scale(.24414)">
      <path fill="transparent" d="M0 0h512v512H0z" />
      <use xlink:href="#h" />
    </g>
    <g transform="rotate(-161 67.83 -4.863) scale(.24414)">
      <path fill="transparent" d="M0 0h512v512H0z" />
      <use xlink:href="#h" />
    </g>
  </g>
  <g data-name="035-footprint.svg">
    <g transform="rotate(-2.997 9852.976 -1449.032) scale(.24414)">
      <path fill="transparent" d="M0 0h512v512H0z" />
      <use xlink:href="#i" />
    </g>
    <g transform="rotate(-2.997 76.73 -1704.554) scale(.24414)">
      <path fill="transparent" d="M0 0h512v512H0z" />
      <use xlink:href="#i" />
    </g>
  </g>
  <g transform="matrix(.18702 .15693 .15693 -.18702 113.948 427.346)" data-name="002-knife.svg">
    <path fill="transparent" d="M0 0h512v512H0z" />
    <use xlink:href="#j" />
  </g>
  <g transform="rotate(9.999 -776.868 530.297) scale(.24414)" data-name="023-law book.svg">
    <path fill="transparent" d="M0 0h512v512H0z" />
    <use xlink:href="#k" />
  </g>
  <g transform="scale(-.24414 .24414) rotate(65 -873.608 -619.387)" data-name="008-flashlight.svg">
    <path fill="transparent" d="M0 0h512v512H0z" />
    <use xlink:href="#l" />
  </g>
  <g data-name="007-gun.svg">
    <g transform="rotate(-29 834.444 -504.207) scale(.24414)">
      <path fill="transparent" d="M0 0h512v512H0z" />
      <use xlink:href="#m" />
    </g>
    <g transform="rotate(-29 578.45 485.671) scale(.24414)">
      <path fill="transparent" d="M0 0h512v512H0z" />
      <use xlink:href="#m" />
    </g>
  </g>
  <g data-name="005-stun gun.svg">
    <g transform="rotate(-25 1234.143 -155.483) scale(.24414)">
      <path fill="transparent" d="M0 0h512v512H0z" />
      <use xlink:href="#n" />
    </g>
    <g transform="rotate(-25 79.402 -411.476) scale(.24414)">
      <path fill="transparent" d="M0 0h512v512H0z" />
      <use xlink:href="#n" />
    </g>
  </g>
  <g data-name="044-bullet.svg">
    <g transform="scale(-.24414 .24414) rotate(77 -1225.618 729.856)">
      <path fill="transparent" d="M0 0h512v512H0z" />
      <use xlink:href="#o" />
    </g>
    <g transform="scale(-.24414 .24414) rotate(77 92.623 -318.72)">
      <path fill="transparent" d="M0 0h512v512H0z" />
      <use xlink:href="#o" />
    </g>
  </g>
  <g transform="scale(-.24414 .24414) rotate(-11 4608.14 7198.988)" data-name="030-megaphone.svg">
    <path fill="transparent" d="M0 0h512v512H0z" />
    <use xlink:href="#p" />
  </g>
  <g transform="matrix(-.24321 .02128 .02128 .24321 343.955 327.258)" data-name="015-walkie talkie.svg">
    <path fill="transparent" d="M0 0h512v512H0z" />
    <use xlink:href="#q" />
  </g>
  <g transform="rotate(8.999 -263.87 1182.148) scale(.24414)" data-name="004-dumbbell.svg">
    <path fill="transparent" d="M0 0h512v512H0z" />
    <use xlink:href="#r" />
  </g>
  <g transform="rotate(-30 593.408 -407.179) scale(.24414)" data-name="001-handcuff.svg">
    <path fill="transparent" d="M0 0h512v512H0z" />
    <use xlink:href="#s" />
  </g>
  <g data-name="016-police hat.svg">
    <g transform="rotate(-23 1495.706 -394.382) scale(.24414)">
      <path fill="transparent" d="M0 0h512v512H0z" />
      <use xlink:href="#t" />
    </g>
    <g transform="rotate(-23 237.426 -650.374) scale(.24414)">
      <path fill="transparent" d="M0 0h512v512H0z" />
      <use xlink:href="#t" />
    </g>
  </g>
</svg>
