<svg xmlns="http://www.w3.org/2000/svg" xmlns:xlink="http://www.w3.org/1999/xlink" width="512" height="512" viewBox="0 0 512 512">
  <defs>
    <svg xmlns="http://www.w3.org/2000/svg" width="512" viewBox="0 0 512 512" height="512" id="a">
      <path d="M416.914 164.547c-17.836-17.613-38.11-31.942-60.069-42.681 1.479-6.717 2.159-13.123 2.159-20.029C359.004 45.684 312.797 0 256 0S152.996 45.684 152.996 101.838c0 6.905.68 13.312 2.159 20.029-21.959 10.739-42.233 25.068-60.069 42.681C52.063 207.03 28.37 263.524 28.37 323.621c0 69.641 31.875 134.229 87.45 177.203a10.002 10.002 0 0 0 14.146-1.949l14.943-20.125C177.863 500.531 216.089 512 256 512c39.925 0 78.14-11.467 111.092-33.25l14.943 20.125a9.997 9.997 0 0 0 14.145 1.95c55.576-42.974 87.45-107.562 87.45-177.203 0-60.098-23.693-116.592-66.716-159.075zm-243.918-62.709C172.996 56.712 210.231 20 256 20s83.004 36.712 83.004 81.838c0 4.07-.305 7.938-.955 11.871C312.223 103.864 284.511 98.72 256 98.72s-56.223 5.145-82.05 14.989a71.992 71.992 0 0 1-.954-11.871zM256 492c-35.588 0-69.682-10.115-99.148-29.334L256 329.134l99.149 133.532C325.685 481.887 291.6 492 256 492zm135.866-13.432L266 309.053v-60.3c0-5.523-4.478-10-10-10-5.523 0-10 4.477-10 10v60.299L120.134 478.568C74.396 439.554 48.37 383.641 48.37 323.621c0-112.983 93.143-204.901 207.63-204.901s207.63 91.918 207.63 204.901c0 60.02-26.026 115.933-71.764 154.947z" />
      <path d="M375.062 241.725c0-18.976-15.577-34.415-34.725-34.415s-34.725 15.438-34.725 34.415 15.577 34.415 34.725 34.415 34.725-15.439 34.725-34.415zm-49.449 0c0-7.948 6.605-14.415 14.725-14.415s14.725 6.466 14.725 14.415-6.605 14.415-14.725 14.415-14.725-6.467-14.725-14.415zM256.214 144.849c-19.147 0-34.725 15.438-34.725 34.415s15.577 34.415 34.725 34.415 34.725-15.438 34.725-34.415-15.578-34.415-34.725-34.415zm0 48.829c-8.119 0-14.725-6.466-14.725-14.415s6.605-14.415 14.725-14.415 14.725 6.466 14.725 14.415-6.606 14.415-14.725 14.415zM171.662 207.311c-19.147 0-34.725 15.438-34.725 34.415s15.577 34.415 34.725 34.415 34.725-15.438 34.725-34.415-15.577-34.415-34.725-34.415zm0 48.829c-8.119 0-14.725-6.466-14.725-14.415s6.605-14.415 14.725-14.415 14.725 6.466 14.725 14.415-6.606 14.415-14.725 14.415zM384.07 291.003c-26.662 0-48.353 21.475-48.353 47.872s21.69 47.872 48.353 47.872 48.353-21.475 48.353-47.872-21.691-47.872-48.353-47.872zm0 75.743c-15.634 0-28.353-12.503-28.353-27.872s12.719-27.872 28.353-27.872 28.353 12.503 28.353 27.872-12.719 27.872-28.353 27.872zM127.93 291.003c-26.662 0-48.353 21.475-48.353 47.872s21.691 47.872 48.353 47.872 48.353-21.475 48.353-47.872-21.691-47.872-48.353-47.872zm0 75.743c-15.634 0-28.353-12.503-28.353-27.872s12.719-27.872 28.353-27.872 28.353 12.503 28.353 27.872-12.719 27.872-28.353 27.872z" />
    </svg>
    <svg xmlns="http://www.w3.org/2000/svg" width="512" viewBox="0 0 512.003 512.003" height="512" id="b">
      <path d="M422.908 104.654h-59.621c.011-.788.02-1.371.028-1.825.014-.87.02-1.311.02-1.753 0-36.955-39.443-71.737-41.122-73.2a10.002 10.002 0 0 0-13.137.001c-.347.302-6.24 5.468-13.444 13.712-14.239-22.355-32.432-38.338-33.341-39.13a10 10 0 0 0-13.136 0c-.909.792-19.102 16.774-33.34 39.129-7.204-8.245-13.096-13.41-13.443-13.712a10 10 0 0 0-13.137 0c-1.679 1.462-41.122 36.244-41.122 73.199 0 .443.006.885.02 1.759l.027 1.819H89.095c-25.18 0-45.666 20.485-45.666 45.666v12.815c0 5.522 4.477 10 10 10h10.662v41.443c0 49.721 29.647 92.648 72.191 112.033l-27.824 105.14a40.85 40.85 0 0 0-2.328-.067c-22.149 0-40.168 18.016-40.168 40.159S83.981 512 106.13 512c22.148 0 40.168-18.016 40.168-40.159 0-14.286-7.501-26.853-18.771-33.974l2.507-9.474h257.954l24.437 76.646c1.355 4.251 5.288 6.965 9.524 6.965 1.007 0 2.03-.153 3.041-.476 5.262-1.678 8.167-7.303 6.489-12.565l-55.055-172.674c42.167-19.536 71.487-62.263 71.487-111.709v-41.443h10.662c5.522 0 10-4.478 10-10V150.32c.001-25.181-20.484-45.666-45.665-45.666zM106.13 492c-11.121 0-20.168-9.043-20.168-20.159s9.047-20.159 20.168-20.159 20.168 9.043 20.168 20.159S117.251 492 106.13 492zm62.001-389.477c-.011-.72-.018-1.083-.018-1.447 0-18.821 16.43-40.034 27.664-51.749 3.778 3.93 8.686 9.45 13.324 15.916a9.999 9.999 0 0 0 17.11-1.438c8.323-17.034 21.595-31.928 29.512-39.958 7.918 8.032 21.189 22.925 29.512 39.958a10 10 0 0 0 17.11 1.438c4.638-6.467 9.546-11.987 13.323-15.916 11.238 11.72 27.665 32.931 27.665 51.749 0 .363-.006.725-.018 1.438-.008.515-.019 1.192-.032 2.14H168.162l-.031-2.131zm213.48 305.87H135.328l19.845-74.987a122.788 122.788 0 0 0 31.955 4.208h137.748c11.339 0 22.324-1.542 32.757-4.427zm46.301-193.814c0 56.814-46.222 103.036-103.036 103.036H187.128c-56.814 0-103.036-46.222-103.036-103.036v-41.443h343.82zm20.662-61.444H63.429v-2.815c0-14.152 11.514-25.666 25.666-25.666h333.812c14.152 0 25.666 11.514 25.666 25.666v2.815z" />
      <path d="M216.685 254.839h78.634c16.562 0 30.035-13.474 30.035-30.035s-13.474-30.035-30.035-30.035h-78.634c-16.562 0-30.035 13.474-30.035 30.035s13.473 30.035 30.035 30.035zm0-40.07h78.634c5.533 0 10.035 4.502 10.035 10.035s-4.502 10.035-10.035 10.035h-78.634c-5.533 0-10.035-4.502-10.035-10.035s4.502-10.035 10.035-10.035z" />
    </svg>
    <svg xmlns="http://www.w3.org/2000/svg" width="512" viewBox="0 0 512.02 512.02" height="512" id="c">
      <path d="M455.054 135.719 277.951 7.145a37.261 37.261 0 0 0-43.882 0L56.966 135.719c-16.674 12.105-20.401 35.531-8.31 52.22 5.86 8.09 14.518 13.41 24.378 14.98a37.81 37.81 0 0 0 5.953.474 36.92 36.92 0 0 0 14.144-2.808l15.283 185.608h-8.599c-5.523 0-10 4.477-10 10v7.332c0 25.668 20.883 46.551 46.551 46.551h73.906l8.442 53.503a10 10 0 0 0 9.878 8.441h54.837a10 10 0 0 0 9.878-8.441l8.442-53.503h73.906c25.668 0 46.551-20.883 46.551-46.551v-7.332c0-5.523-4.477-10-10-10h-8.599l15.283-185.611a37.08 37.08 0 0 0 14.202 2.804c11.95 0 23.267-5.775 30.273-15.447 12.09-16.688 8.363-40.115-8.311-52.22zM274.882 492.02h-37.745l-6.618-41.944H281.5zm100.772-61.945H136.366c-13.74 0-25.075-10.491-26.418-23.882h292.124c-1.343 13.392-12.678 23.882-26.418 23.882zm-247.172-43.882-16.315-198.151L256.01 83.614l143.844 104.429-16.315 198.151H128.482zm318.686-209.987a17.433 17.433 0 0 1-14.078 7.181 17.206 17.206 0 0 1-10.168-3.312L261.885 63.164a9.999 9.999 0 0 0-11.75 0L89.099 180.074a17.224 17.224 0 0 1-12.919 3.095 17.243 17.243 0 0 1-11.328-6.963c-5.628-7.768-3.895-18.669 3.864-24.301L245.818 23.33a17.32 17.32 0 0 1 10.192-3.319c3.571 0 7.144 1.106 10.191 3.319l177.103 128.574c7.758 5.632 9.491 16.534 3.864 24.302z" />
      <path d="M256.01 143.58c-37.929 0-68.787 30.858-68.787 68.787s30.858 68.787 68.787 68.787 68.787-30.858 68.787-68.787-30.858-68.787-68.787-68.787zm0 117.574c-26.901 0-48.787-21.886-48.787-48.787s21.886-48.787 48.787-48.787 48.787 21.886 48.787 48.787-21.886 48.787-48.787 48.787zM256.01 300.505c-18.87 0-34.222 15.352-34.222 34.222s15.352 34.222 34.222 34.222 34.222-15.352 34.222-34.222-15.352-34.222-34.222-34.222zm0 48.443c-7.842 0-14.222-6.38-14.222-14.222s6.38-14.222 14.222-14.222 14.222 6.38 14.222 14.222-6.38 14.222-14.222 14.222z" />
    </svg>
    <svg xmlns="http://www.w3.org/2000/svg" width="512" viewBox="0 0 512 512" height="512" id="d">
      <path d="M398.384 227.42h-46.972V77.305h.68c5.522 0 10-4.477 10-10V10c0-5.523-4.478-10-10-10H158.93c-5.522 0-10 4.477-10 10v57.305c0 5.523 4.478 10 10 10h.68v24.544H28.223c-5.522 0-10 4.477-10 10v57.304c0 5.523 4.478 10 10 10h.681V479c0 18.196 14.833 33 33.064 33h57.604c14.09 0 26.648-8.929 31.251-22.219l10.037-28.982h12.344l10.037 28.982c4.603 13.29 17.161 22.219 31.251 22.219h115.514c18.231 0 33.064-14.804 33.064-33v-54.582a95.23 95.23 0 0 0-1.071-14.267h98.712c18.232 0 33.065-14.803 33.065-32.999V322.57c.001-52.466-42.792-95.15-95.392-95.15zm75.393 95.15v16.38h-50.001v-87.144c29.118 10.412 50.001 38.203 50.001 70.764zM168.93 20h173.162v37.305H168.93zm10.679 57.305h151.803V237.42c0 5.523 4.478 10 10 10h56.972c1.813 0 3.611.064 5.393.19v91.339H311.03c-.434 0-.862.028-1.282.081-12.697-6.249-26.98-9.763-42.07-9.763h-46.972V179.153h.68c5.522 0 10-4.477 10-10v-57.304c0-5.523-4.478-10-10-10H179.61V77.305zM343.07 424.418v16.38h-50.979v-87.486c29.627 10.135 50.979 38.182 50.979 71.106zM38.223 121.849h173.163v37.304H38.223zm162.483 57.304v160.116c0 5.523 4.478 10 10 10h56.972c1.482 0 2.953.043 4.414.127v91.402h-131.47c-4.829-47.5-43.674-85.092-91.719-87.962V179.153zM48.903 372.881c37.008 2.784 66.91 31.46 71.588 67.917H48.903zm83.021 110.355c-1.815 5.242-6.779 8.764-12.353 8.764H61.968c-7.204 0-13.064-5.832-13.064-13v-18.202h90.791zM330.006 492H214.492c-5.573 0-10.537-3.522-12.353-8.764l-7.771-22.438h148.701V479c.001 7.168-5.859 13-13.063 13zm143.771-114.848c0 7.167-5.861 12.999-13.065 12.999H356.673a95.347 95.347 0 0 0-19.835-31.201h136.939z" />
    </svg>
    <svg xmlns="http://www.w3.org/2000/svg" width="512" viewBox="0 0 512.001 512.001" height="512" id="e">
      <path d="M466.667 135.143h-39.154l-6.768-38.812h13.542c5.523 0 10-4.478 10-10V68.34c0-27.734-22.563-50.298-50.297-50.298H151.8c-27.734 0-50.297 22.563-50.297 50.298v17.99c0 5.522 4.477 10 10 10h13.542l-13.513 77.493-51.627-62.893a9.999 9.999 0 0 0-13.357-1.921L4.373 137.724a10.001 10.001 0 0 0-3.496 12.36l82.671 184.219-13.619 78.1c-3.575 20.5 2.013 41.342 15.33 57.183 13.022 15.488 32 24.372 52.067 24.372h271.136c20.068 0 39.045-8.884 52.067-24.372 13.317-15.841 18.905-36.683 15.33-57.183l-15.172-87.005h5.978c24.997 0 45.334-20.354 45.334-45.373v-99.511c.002-25.017-20.335-45.371-45.332-45.371zM121.503 68.34c0-16.706 13.591-30.298 30.297-30.298h242.19c16.706 0 30.297 13.592 30.297 30.298v7.99H121.503zm278.94 27.991 44.537 255.41c-51.227 1.835-92.336 44.126-92.336 95.849 0 9.057 1.281 17.776 3.889 26.369H189.26c2.609-8.593 3.889-17.311 3.889-26.369 0-51.724-41.111-94.015-92.339-95.849l44.537-255.41h255.096zm-377.888 53.21 27.691-18.854 56.752 69.136-17.315 99.3zm78.013 307.175c-9.508-11.31-13.494-26.209-10.936-40.877l7.701-44.161h.008c41.8 0 75.808 34.054 75.808 75.911 0 9.211-1.617 17.707-5.052 26.369h-30.77c-14.148.001-27.546-6.284-36.759-17.242zm344.653 0c-9.212 10.958-22.61 17.242-36.758 17.242h-30.768c-3.435-8.663-5.052-17.159-5.052-26.369 0-41.857 34.007-75.911 75.807-75.911h.006l7.701 44.161c2.558 14.668-1.427 29.568-10.936 40.877zm46.78-176.69c0 13.991-11.365 25.373-25.334 25.373h-9.466L431 155.143h35.667c13.969 0 25.334 11.382 25.334 25.372z" />
      <path d="M180.636 320.178c-.808 14.486 4.556 28.772 14.925 39.153a51.304 51.304 0 0 0 39.116 14.947c9.665 10.813 23.55 17.119 38.218 17.119s28.553-6.306 38.218-17.119c14.472.799 28.747-4.565 39.116-14.947 10.37-10.381 15.733-24.667 14.925-39.153 10.804-9.674 17.102-23.57 17.102-38.249s-6.298-28.575-17.102-38.249c.808-14.486-4.555-28.772-14.925-39.153-10.371-10.382-24.641-15.746-39.116-14.947-9.665-10.813-23.551-17.119-38.218-17.119s-28.553 6.306-38.218 17.119c-14.468-.798-28.746 4.566-39.116 14.947s-15.733 24.667-14.925 39.153c-10.804 9.674-17.102 23.57-17.102 38.249s6.298 28.575 17.102 38.249zm16.287-63.932a10 10 0 0 0 4.116-9.942c-1.789-10.082 1.453-20.415 8.672-27.642a31.268 31.268 0 0 1 27.591-8.678 10.01 10.01 0 0 0 9.952-4.124c5.854-8.391 15.439-13.399 25.641-13.399s19.787 5.009 25.641 13.399a10.008 10.008 0 0 0 9.952 4.124 31.287 31.287 0 0 1 27.592 8.678c7.219 7.227 10.46 17.56 8.672 27.642a10 10 0 0 0 4.116 9.942c8.383 5.861 13.389 15.463 13.389 25.684s-5.005 19.822-13.389 25.684a10 10 0 0 0-4.116 9.942c1.789 10.082-1.453 20.415-8.672 27.642a31.277 31.277 0 0 1-27.591 8.678c-3.84-.68-7.722.928-9.952 4.124-5.854 8.391-15.439 13.399-25.641 13.399S253.109 366.39 247.255 358a10 10 0 0 0-9.952-4.124 31.285 31.285 0 0 1-27.592-8.678c-7.219-7.227-10.46-17.56-8.672-27.642a10 10 0 0 0-4.116-9.942c-8.383-5.861-13.389-15.463-13.389-25.684s5.005-19.823 13.389-25.684z" />
      <path d="M272.895 336.956c30.315 0 54.978-24.685 54.978-55.026s-24.663-55.026-54.978-55.026c-30.314 0-54.977 24.685-54.977 55.026s24.662 55.026 54.977 55.026zm0-90.053c19.287 0 34.978 15.713 34.978 35.026s-15.691 35.026-34.978 35.026-34.977-15.713-34.977-35.026 15.69-35.026 34.977-35.026z" />
    </svg>
    <svg xmlns="http://www.w3.org/2000/svg" width="512" viewBox="0 0 512 512" height="512" id="f">
      <path d="M369.47 87.226h-83.839l9.266-37.572c2.969-12.036.287-24.537-7.358-34.296C279.893 5.598 268.397 0 256 0s-23.893 5.598-31.538 15.357c-7.646 9.76-10.328 22.261-7.359 34.297l9.266 37.572H142.53c-36.447 0-66.1 29.547-66.1 65.865v64.527c0 5.523 4.477 10 10 10h22.266v150.929c0 56.314 45.988 102.128 102.516 102.128 15.807 0 30.026 9.938 35.385 24.73a10 10 0 0 0 18.804 0c5.357-14.792 19.578-24.73 35.385-24.73 56.527 0 102.517-45.814 102.517-102.128V227.618h22.266c5.522 0 10-4.477 10-10v-64.527c0-36.318-29.652-65.865-66.099-65.865zm2.336 20.058-45.209 37.86-44.086-37.919h86.958c.784.001 1.563.021 2.337.059zM256 204.267l-55.057-46.108L256 110.803l55.057 47.355zm70.425-32.891 42.136 36.242h-85.412zm-97.573 36.242h-85.413l42.136-36.242zm7.669-162.753a19.944 19.944 0 0 1 3.685-17.175C244.035 22.803 249.792 20 256 20s11.965 2.803 15.794 7.691a19.942 19.942 0 0 1 3.685 17.174l-10.446 42.361h-18.064zm-7.033 62.361-44.086 37.918-45.209-37.86a46.424 46.424 0 0 1 2.336-.058zM96.431 153.091c0-16.181 8.466-30.431 21.221-38.598l52.383 43.869-57.267 49.256H96.431zm286.872 74.527v85.893H128.697v-85.893zm-82.516 233.058c-17.663 0-34.037 8.12-44.787 21.328-10.751-13.208-27.125-21.328-44.788-21.328-45.5 0-82.516-36.843-82.516-82.128v-45.037h254.607v45.037c.001 45.285-37.016 82.128-82.516 82.128zm114.782-253.058h-16.338l-57.266-49.256 52.384-43.869c12.755 8.167 21.221 22.417 21.221 38.597v54.528z" />
    </svg>
    <svg xmlns="http://www.w3.org/2000/svg" width="512" viewBox="0 0 512.002 512.002" height="512" id="g">
      <path d="M392.171 153.137h-63.855c11.881-15.673 18.584-35.019 18.584-55.012 0-29.31-13.944-55.424-35.547-72.057l6.534-10.938c2.832-4.741 1.285-10.881-3.457-13.713-4.74-2.832-10.881-1.284-13.713 3.457l-6.453 10.803c-11.636-5.421-24.602-8.451-38.262-8.451-13.826 0-26.94 3.103-38.684 8.648l-6.571-11.001c-2.832-4.741-8.971-6.29-13.713-3.457-4.742 2.832-6.289 8.972-3.457 13.713l6.704 11.224c-21.393 16.646-35.178 42.629-35.178 71.771 0 19.996 6.701 39.34 18.582 55.012h-63.853c-49.805 0-90.324 40.52-90.324 90.324 0 36.459 20.755 68.175 54.165 82.771 19.992 8.733 41.403 9.976 61.108 4.259.464 74.646 41.115 143.616 106.326 180.231a10.002 10.002 0 0 0 9.792 0c65.21-36.615 105.861-105.584 106.326-180.23a87.998 87.998 0 0 0 24.539 3.486c12.251 0 24.664-2.545 36.569-7.746 33.41-14.596 54.165-46.312 54.165-82.771-.003-49.804-40.523-90.323-90.327-90.323zM185.102 98.125c0-39.094 31.805-70.898 70.899-70.898S326.9 59.031 326.9 98.125c0 21.601-9.496 41.478-26.167 55.012h-89.466c-16.67-13.534-26.165-33.407-26.165-55.012zm147.607 303.433H179.292a188.012 188.012 0 0 1-11.027-36.346h175.471a187.942 187.942 0 0 1-11.027 36.346zm-76.708 88.877c-28.305-17.032-51.172-40.94-66.932-68.877h133.864c-15.76 27.937-38.627 51.846-66.932 68.877zm91.226-161.237c0 5.374-.231 10.716-.685 16.015H165.459a187.588 187.588 0 0 1-.685-16.015c0-2.448.048-4.913.142-7.368a93.08 93.08 0 0 0 16.288-12.098c.16-.147.314-.301.464-.459l.384-.405h147.896l.384.405c.15.158.305.312.464.459a93.043 93.043 0 0 0 16.288 12.1c.095 2.454.143 4.917.143 7.366zm-146.225-40.331 54.999-58.049L311 288.867zm219.322 19.037c-25.917 11.321-54.895 6.478-75.704-12.633L263.26 209.4a10.002 10.002 0 0 0-14.518 0l-81.359 85.871c-20.811 19.109-49.79 23.952-75.704 12.633-26.012-11.364-42.171-36.058-42.171-64.443 0-38.777 31.547-70.324 70.324-70.324h272.34c38.777 0 70.324 31.547 70.324 70.324-.001 28.385-16.16 53.079-42.172 64.443z" />
    </svg>
    <svg xmlns="http://www.w3.org/2000/svg" width="512" viewBox="0 0 512 512" height="512" id="h">
      <path d="M492.597 81.295a70.63 70.63 0 0 0 .898-11.247C493.495 31.424 462.147 0 423.614 0c-22.145 0-42.446 10.199-55.618 27.615a54.41 54.41 0 0 0-8.578-.679c-27.589 0-50.431 20.759-53.793 47.511-12.525 6.083-20.775 18.884-20.775 33.292 0 20.403 16.565 37.002 36.927 37.002h144.984c20.361 0 36.927-16.599 36.927-37.002 0-10.074-4.052-19.55-11.091-26.444zm-25.836 43.446H321.776c-9.333 0-16.927-7.627-16.927-17.002 0-7.815 5.26-14.597 12.791-16.493a10 10 0 0 0 7.558-9.806v-.16c0-18.333 14.386-33.356 32.424-34.297a70.262 70.262 0 0 0-3.889 23.064c0 5.522 4.478 10 10 10s10-4.478 10-10a50.135 50.135 0 0 1 7.234-25.977C390.111 28.999 406.054 20 423.614 20c27.505 0 49.881 22.451 49.881 50.048 0 4.283-.538 8.533-1.601 12.632a10.003 10.003 0 0 0 4.161 10.847 17.004 17.004 0 0 1 7.632 14.213c.001 9.374-7.593 17.001-16.926 17.001zM304.38 301.238h26.107a10 10 0 0 0 8.115-15.842L259.256 175.18h16.519a9.999 9.999 0 0 0 8.311-15.56L203.811 39.628a10 10 0 0 0-16.624 0l-80.275 119.991a9.998 9.998 0 0 0 8.311 15.56h16.519L52.397 285.396a9.999 9.999 0 0 0 8.115 15.842H86.62L10.044 413.824a10 10 0 0 0 8.269 15.624h141.885V492H69.389c-5.522 0-10 4.478-10 10s4.478 10 10 10H321.61c5.522 0 10-4.478 10-10s-4.478-10-10-10h-90.809v-62.552h141.885a10.002 10.002 0 0 0 8.269-15.624zM195.499 63.173l61.555 92.007H133.945zM156.387 175.18h78.226l76.354 106.059H80.033zM210.802 492h-30.604v-62.552h30.604zM37.208 409.448l73.599-108.21h169.385l73.599 108.21z" />
    </svg>
    <svg xmlns="http://www.w3.org/2000/svg" width="512" viewBox="0 0 512 512" height="512" id="i">
      <path d="M401.045 96.842H295.964V41.737l27.95-24.173c4.177-3.613 4.635-9.928 1.021-14.105-3.614-4.179-9.93-4.634-14.105-1.022l-31.408 27.165a10 10 0 0 0-3.458 7.563v59.677h-35.869c-4.877-33.74-34.056-59.75-69.211-59.75-38.559 0-69.928 31.29-69.928 69.75 0 35.075 26.089 64.185 59.928 69.039V502c0 5.523 4.477 10 10 10h230.161c5.522 0 10-4.477 10-10V106.842c0-5.523-4.478-10-10-10zm-280.09 10c0-27.433 22.398-49.75 49.928-49.75 24.094 0 44.257 17.094 48.915 39.75h-48.915c-5.523 0-10 4.477-10 10v48.748c-22.753-4.629-39.928-24.728-39.928-48.748zM391.045 492H180.884V116.842h95.08v60.371h-59.048c-5.523 0-10 4.477-10 10v268.893c0 5.523 4.477 10 10 10h138.097c5.522 0 10-4.477 10-10V187.212c0-5.523-4.478-10-10-10h-59.049v-60.371h95.081zm-46.032-294.788v248.893H226.916V197.212z" />
    </svg>
    <svg xmlns="http://www.w3.org/2000/svg" width="512" viewBox="0 0 512 512" height="512" id="j">
      <path d="M387.902 103.812C349.01 37.838 300.933 0 256 0c-44.832 0-92.872 37.837-131.801 103.809-35.474 60.116-57.51 134.811-57.51 194.935 0 60.147 19.577 114.782 55.124 153.84C156.684 490.898 204.339 512 256 512s99.316-21.102 134.188-59.417c35.547-39.058 55.124-93.692 55.124-153.84-.001-60.169-21.999-134.862-57.41-194.931zM86.689 298.743c0-15.593 1.583-32.246 4.58-49.386 4.892 2.084 8.63 6.51 13.689 12.868 7.718 9.701 17.323 21.774 36.466 21.774 19.144 0 28.749-12.073 36.467-21.774C185.119 253.141 189.65 248 198.707 248c9.058 0 13.588 5.141 20.817 14.226 7.718 9.701 17.324 21.774 36.468 21.774s28.749-12.073 36.467-21.774c7.229-9.085 11.76-14.226 20.817-14.226 9.059 0 13.591 5.141 20.82 14.227 7.719 9.7 17.326 21.773 36.471 21.773s28.751-12.072 36.471-21.773c5.065-6.365 8.805-10.793 13.706-12.875 2.988 17.138 4.568 33.793 4.568 49.392 0 14.841-1.251 29.142-3.649 42.786H90.338c-2.398-13.645-3.649-27.946-3.649-42.787zm27.19-128.272h284.302c7.723 19.482 13.98 39.446 18.532 59.073-12.061 3.56-19.274 12.624-25.327 20.23-7.229 9.086-11.761 14.227-20.82 14.227s-13.591-5.141-20.82-14.227c-7.719-9.7-17.326-21.773-36.471-21.773-19.144 0-28.75 12.073-36.467 21.774-7.229 9.085-11.76 14.226-20.816 14.226-9.058 0-13.588-5.141-20.817-14.226-7.719-9.702-17.324-21.775-36.468-21.775s-28.749 12.073-36.466 21.774c-7.229 9.085-11.76 14.226-20.817 14.226-9.056 0-13.587-5.141-20.815-14.226-6.048-7.602-13.254-16.659-25.301-20.224 4.562-19.625 10.832-39.591 18.571-59.079zm27.545-56.498c16.762-28.405 35.869-52.005 55.256-68.246C217.057 28.655 237.015 20 256 20c19.047 0 39.043 8.656 59.434 25.729 19.391 16.234 38.492 39.832 55.239 68.24 6.884 11.677 13.235 23.923 18.984 36.502H122.419c5.755-12.575 12.114-24.82 19.005-36.498zM256 492c-78.589 0-139.916-52.156-161.206-130.471h322.412C395.916 439.844 334.589 492 256 492z" />
      <path d="M169.599 388.106h-22.864c-5.523 0-10 4.478-10 10s4.477 10 10 10h22.864c5.523 0 10-4.478 10-10s-4.477-10-10-10zM234.821 388.106h-22.864c-5.523 0-10 4.478-10 10s4.477 10 10 10h22.864c5.523 0 10-4.478 10-10s-4.477-10-10-10zM300.043 388.106h-22.864c-5.523 0-10 4.478-10 10s4.477 10 10 10h22.864c5.523 0 10-4.478 10-10s-4.477-10-10-10zM365.265 388.106h-22.864c-5.523 0-10 4.478-10 10s4.477 10 10 10h22.864c5.523 0 10-4.478 10-10s-4.477-10-10-10zM179.346 123.894h22.864c5.523 0 10-4.478 10-10s-4.477-10-10-10h-22.864c-5.523 0-10 4.478-10 10s4.477 10 10 10zM244.568 123.894h22.864c5.523 0 10-4.478 10-10s-4.477-10-10-10h-22.864c-5.523 0-10 4.478-10 10s4.477 10 10 10zM309.791 123.894h22.864c5.523 0 10-4.478 10-10s-4.477-10-10-10h-22.864c-5.523 0-10 4.478-10 10s4.477 10 10 10z" />
    </svg>
    <svg xmlns="http://www.w3.org/2000/svg" width="512" viewBox="0 0 512 512" height="512" id="k">
      <path d="M437.916 278.265c18.322-15.339 29.994-38.373 29.994-64.084 0-46.069-37.477-83.55-83.542-83.55h-43.173l8.346-17.389a10.002 10.002 0 0 0-9.016-14.327h-35.894c-2.293 0-4.517.788-6.298 2.232l-22.72 18.421c-.983-12.111-4.582-26.755-14.999-37.142-20.512-20.456-57.582-14.522-59.151-14.264a10.001 10.001 0 0 0-8.21 8.203c-.244 1.45-5.37 33.307 10.194 54.266h-75.816c-46.065 0-83.542 37.477-83.542 83.559 0 25.706 11.67 48.738 29.991 64.075C32.453 282.978 0 318.408 0 361.29c0 46.065 37.477 83.542 83.542 83.542h344.912c46.067 0 83.546-37.479 83.546-83.554 0-42.869-32.455-78.3-74.084-83.013zm-140.53-9.968c-8.401-8.377-9.796-23.759-9.409-34.004 9.393-.373 25.317.479 34.212 9.349 7.458 7.437 9.394 20.395 9.464 30.378a96.12 96.12 0 0 0 0 1.074c-.006.894-.026 1.76-.057 2.593-.488.019-.987.034-1.497.045h-3.376c-9.854-.205-22.158-2.275-29.337-9.435zm54.238 5.892c.049-10.01 1.965-23.07 9.463-30.547 8.418-8.395 23.886-9.783 34.167-9.393.377 9.359-.487 25.196-9.364 34.048-7.215 7.195-19.61 9.241-29.477 9.435h-3.21a80.226 80.226 0 0 1-1.522-.044 81.064 81.064 0 0 1-.058-2.764l.001-.735zM221.689 121.243c-8.412-8.389-9.799-23.801-9.407-34.045 10.298-.39 25.782.985 34.21 9.391 8.401 8.377 9.796 23.759 9.409 34.003-.388.016-.787.029-1.196.04h-4.613c-9.248-.255-21.156-2.163-28.403-9.389zm43.825 29.388c2.293 0 4.517-.788 6.298-2.232l36.365-29.483h16.458l-8.346 17.39a10 10 0 0 0 9.016 14.326h59.063c35.037 0 63.542 28.509 63.542 63.55 0 27.143-17.103 50.366-41.096 59.457 12.259-20.774 7.74-48.858 7.511-50.217a10.001 10.001 0 0 0-8.21-8.203c-1.568-.26-38.639-6.192-59.151 14.263a43.171 43.171 0 0 0-5.326 6.481 43.071 43.071 0 0 0-5.326-6.481c-20.512-20.454-57.585-14.522-59.151-14.263a10.001 10.001 0 0 0-8.211 8.204c-.244 1.45-5.376 33.353 10.229 54.311h-97.367c17.959-15.337 29.363-38.138 29.363-63.559 0-25.41-11.404-48.207-29.361-63.542h83.7zM64.09 214.173c0-35.037 28.505-63.542 63.542-63.542s63.542 28.505 63.542 63.559c0 35.037-28.505 63.542-63.542 63.542S64.09 249.227 64.09 214.173zM20 361.274c0-35.037 28.505-63.542 63.542-63.542s63.542 28.505 63.542 63.558c0 35.037-28.505 63.542-63.542 63.542S20 396.327 20 361.274zm408.454 63.558H137.721c17.959-15.337 29.363-38.138 29.363-63.558 0-25.41-11.404-48.207-29.361-63.542h290.732c35.039 0 63.546 28.507 63.546 63.554-.001 35.039-28.508 63.546-63.547 63.546z" />
      <path d="M330.126 369.293H210.443c-5.522 0-10 4.478-10 10s4.478 10 10 10h119.683c5.522 0 10-4.478 10-10s-4.478-10-10-10zM295.63 344.008h96.698c5.522 0 10-4.478 10-10s-4.478-10-10-10H295.63c-5.522 0-10 4.478-10 10s4.477 10 10 10zM256 194.596h87.979c5.522 0 10-4.478 10-10s-4.478-10-10-10H256c-5.522 0-10 4.478-10 10s4.478 10 10 10zM418.421 369.293h-32.232c-5.522 0-10 4.478-10 10s4.478 10 10 10h32.232c5.522 0 10-4.478 10-10s-4.478-10-10-10z" />
    </svg>
    <svg xmlns="http://www.w3.org/2000/svg" width="512" viewBox="0 0 512 512" height="512" id="l">
      <path d="M352.561 249.135c0-37.697-30.546-68.366-68.092-68.366-21.521 0-41.255 9.901-54.091 26.816a52.967 52.967 0 0 0-8.187-.634c-26.866 0-49.119 20.21-52.464 46.28-12.169 5.987-20.175 18.482-20.175 32.539 0 19.986 16.205 36.246 36.123 36.246h140.652c19.918 0 36.122-16.26 36.122-36.246 0-9.816-3.922-19.052-10.741-25.797.566-3.572.853-7.198.853-10.838zm-26.235 52.882H185.674c-8.89 0-16.123-7.288-16.123-16.246 0-7.47 5.011-13.951 12.187-15.761a10 10 0 0 0 7.555-9.753l-.001-.205c0-18.252 14.758-33.101 32.898-33.101 3.298 0 6.55.487 9.663 1.448a9.997 9.997 0 0 0 11.503-4.376c8.816-14.562 24.186-23.255 41.112-23.255 26.518 0 48.092 21.697 48.092 48.366 0 4.143-.52 8.251-1.544 12.212a10.004 10.004 0 0 0 4.154 10.838 16.255 16.255 0 0 1 7.277 13.586c.001 8.959-7.231 16.247-16.121 16.247z" />
      <path d="M427.225 30.938H84.775C38.03 30.938 0 68.966 0 115.71v94.087c0 26.021 21.171 47.192 47.194 47.192h32.68v176.88c0 26.022 21.171 47.193 47.194 47.193h257.863c26.023 0 47.194-21.171 47.194-47.193v-176.88h32.68c26.023 0 47.194-21.171 47.194-47.192V115.71c.001-46.744-38.029-84.772-84.774-84.772zm-119.571 20v14.539c0 28.481-23.172 51.653-51.653 51.653h-.002c-28.482 0-51.653-23.172-51.653-51.653V50.938zm104.472 354.656H99.874v-39.119h312.252zm-27.194 55.468H127.068c-14.995 0-27.194-12.199-27.194-27.193v-8.275h312.252v8.275c0 14.994-12.199 27.193-27.194 27.193zM492 209.797c0 14.994-12.199 27.192-27.194 27.192h-32.68v-95.41c0-5.522-4.478-10-10-10s-10 4.478-10 10v204.896H99.874V141.579c0-5.522-4.477-10-10-10s-10 4.478-10 10v95.41h-32.68C32.199 236.989 20 224.791 20 209.797V115.71c0-35.716 29.058-64.772 64.775-64.772h99.571v14.539c0 39.51 32.145 71.653 71.655 71.653s71.653-32.144 71.653-71.653V50.938h99.57c35.718 0 64.775 29.057 64.775 64.772v94.087z" />
    </svg>
    <svg xmlns="http://www.w3.org/2000/svg" width="512" viewBox="0 0 512 512" height="512" id="m">
      <path d="M418.661 122.544h-67.556V94.189C351.105 42.253 308.441 0 256 0s-95.105 42.253-95.105 94.189v28.354H93.339c-5.523 0-10 4.478-10 10V502c0 5.522 4.477 10 10 10h325.322c5.523 0 10-4.478 10-10V132.544c0-5.523-4.477-10-10-10zM180.895 94.189C180.895 53.281 214.587 20 256 20s75.105 33.281 75.105 74.189v28.354h-150.21zM266 386.416c0-45.784 34.686-83.618 79.166-88.603v39.691c0 45.784-34.691 83.619-79.166 88.603zm-10-45.629c-8.631-18.683-22.392-34.529-39.465-45.723 9.482-22.59 29.649-40.643 39.475-48.489 9.831 7.827 29.965 25.822 39.457 48.486-17.073 11.194-30.835 27.042-39.467 45.726zm-10 45.628v39.692c-44.475-4.983-79.166-42.818-79.166-88.603v-39.691C211.309 302.797 246 340.632 246 386.415zM408.661 492H266v-45.79c55.525-5.062 99.166-51.883 99.166-108.705v-50.248c0-5.522-4.484-10-10.007-10-14.866 0-29.047 2.988-41.976 8.393-15.463-34.992-49.96-58.767-51.559-59.855a9.998 9.998 0 0 0-11.25.001c-1.594 1.084-36.095 24.864-51.558 59.855-12.93-5.406-27.114-8.394-41.983-8.394-5.523 0-10 4.478-10 10v50.248c0 56.822 43.641 103.643 99.166 108.705V492h-142.66V142.544h57.556v41.486c0 5.522 4.477 10 10 10s10-4.478 10-10v-41.486h150.21v41.486c0 5.522 4.477 10 10 10s10-4.478 10-10v-41.486h57.556z" />
    </svg>
    <svg xmlns="http://www.w3.org/2000/svg" width="512" viewBox="0 0 512 512" height="512" id="n">
      <path d="M486.506 276.995a145.077 145.077 0 0 0 3.014-29.462c0-72.202-53.301-132.094-122.328-141.808-17.382-48.286-63.006-80.35-115.211-80.35-21.431 0-42.524 5.66-61.002 16.368-15.729 9.115-29.322 21.713-39.669 36.704a92.836 92.836 0 0 0-19.97-2.166c-49.055 0-89.369 38.418-92.854 86.962C15.49 172.279 0 194.667 0 220.085c0 33.652 27.187 61.029 60.603 61.029h13.712c-13.013 12.814-20.866 30.646-20.866 50.017 0 38.538 31.128 69.891 69.389 69.891H442.61c38.262 0 69.39-31.353 69.39-69.891 0-21.157-9.416-40.919-25.494-54.136zM20 220.085c0-18.859 12.622-35.227 30.695-39.802a10 10 0 0 0 7.546-9.752l-.001-.45c0-40.694 32.792-73.801 73.1-73.801a72.506 72.506 0 0 1 21.472 3.233 9.997 9.997 0 0 0 11.521-4.387c18.793-31.153 51.559-49.752 87.647-49.752 40.684 0 76.581 23.226 93.062 58.993-24.017.409-47.589 6.942-68.319 18.956-18.575 10.765-34.582 25.72-46.66 43.529a107.095 107.095 0 0 0-24.205-2.759c-55.497 0-101.309 42.579-106.945 97.022h-38.31C38.214 261.114 20 242.708 20 220.085zm422.61 160.937H122.838c-27.233 0-49.389-22.381-49.389-49.891 0-22.93 15.354-42.831 37.336-48.396a10.001 10.001 0 0 0 7.546-9.744l-.002-.547c0-48.718 39.266-88.353 87.529-88.353 4.603 0 9.175.36 13.679 1.073-9.296 19.366-14.162 40.678-14.162 62.368 0 5.523 4.478 10 10 10s10-4.477 10-10c0-22.601 6.128-44.718 17.722-63.96l.006-.011c22.375-37.079 61.38-59.216 104.344-59.216 67.311 0 122.071 55.261 122.071 123.187 0 10.533-1.318 20.992-3.917 31.086a9.998 9.998 0 0 0 4.143 10.818C483.681 298.713 492 314.3 492 331.131c0 27.51-22.156 49.891-49.39 49.891zM287.926 415.438a10 10 0 0 0-7.175 3.035c-5.315 5.475-22.658 24.421-22.658 38.339 0 16.44 13.383 29.814 29.833 29.814s29.833-13.375 29.833-29.814c0-13.918-17.343-32.864-22.658-38.339a10 10 0 0 0-7.175-3.035zm0 51.188c-5.422 0-9.833-4.403-9.833-9.792.128-2.697 4.288-9.395 9.827-16.279 5.496 6.853 9.705 13.611 9.839 16.271-.008 5.405-4.416 9.8-9.833 9.8zM381.252 415.438a10 10 0 0 0-7.175 3.035c-5.315 5.475-22.658 24.421-22.658 38.339 0 16.44 13.383 29.814 29.833 29.814 16.449 0 29.832-13.375 29.832-29.814 0-13.917-17.342-32.864-22.657-38.339a9.999 9.999 0 0 0-7.175-3.035zm0 51.188c-5.422 0-9.833-4.403-9.833-9.792.128-2.697 4.288-9.394 9.827-16.279 5.495 6.853 9.704 13.611 9.838 16.271-.008 5.405-4.416 9.8-9.832 9.8zM194.419 415.438a10 10 0 0 0-7.175 3.035c-5.315 5.475-22.658 24.421-22.658 38.339 0 16.44 13.383 29.814 29.833 29.814 16.449 0 29.832-13.375 29.832-29.814 0-13.917-17.342-32.864-22.657-38.339a9.999 9.999 0 0 0-7.175-3.035zm0 51.188c-5.422 0-9.833-4.403-9.833-9.792.128-2.697 4.288-9.394 9.827-16.279 5.495 6.853 9.704 13.611 9.838 16.271-.008 5.405-4.416 9.8-9.832 9.8z" />
    </svg>
    <svg xmlns="http://www.w3.org/2000/svg" width="512" viewBox="0 0 512.025 512.025" height="512" id="o">
      <path d="m363.099 290.448-88.418-149.466c2.094.074 4.306.118 6.615.118 23.215 0 56.24-4.393 77.921-26.06 35.694-35.671 24.544-102.08 24.052-104.89a10.003 10.003 0 0 0-8.127-8.125c-2.811-.49-69.255-11.633-104.945 24.034-10.573 10.566-17.034 23.829-20.879 37.337a48.886 48.886 0 0 0-3.089-3.392c-24.427-24.411-69.265-16.897-71.162-16.565-4.15.726-7.4 3.976-8.127 8.125-.332 1.896-7.852 46.714 16.579 71.128 14.923 14.913 37.457 17.911 53.167 17.911.297 0 .591-.001.884-.003l-88.644 149.847C90.484 293.516 43.881 342 43.881 401.158c0 61.132 49.764 110.866 110.933 110.866 44.991 0 83.811-26.906 101.199-65.463 17.388 38.557 56.209 65.463 101.199 65.463 61.168 0 110.933-49.734 110.933-110.866-.001-59.157-46.604-107.641-105.046-110.71zm-22.588 1.1c-37.743 5.719-69.304 30.515-84.499 64.208-15.195-33.693-46.756-58.489-84.499-64.208l84.499-142.841zM284.335 40.207c22.355-22.34 63.52-20.983 80.13-19.375 1.61 16.611 2.961 57.729-19.385 80.062-17.557 17.546-46.71 20.475-66.461 20.144l43.303-43.275c3.906-3.904 3.909-10.235.004-14.142-3.903-3.908-10.236-3.909-14.142-.005l-43.582 43.554c-.398-19.747 2.417-49.26 20.133-66.963zm-86.679 68.339c-12.325-12.316-12.617-34.626-11.811-46.17 11.575-.772 34.013-.449 46.247 11.775 8.46 8.455 11.248 21.618 11.903 32.775l-15.17-15.17c-3.905-3.903-10.237-3.904-14.142 0-3.905 3.905-3.906 10.237 0 14.143l14.403 14.403c-10.89-.813-23.372-3.704-31.43-11.756zm-42.843 383.479c-50.141 0-90.933-40.763-90.933-90.866s40.792-90.865 90.933-90.865 90.933 40.762 90.933 90.865-40.792 90.866-90.933 90.866zm202.399 0c-50.141 0-90.933-40.763-90.933-90.866s40.792-90.865 90.933-90.865 90.933 40.762 90.933 90.865-40.793 90.866-90.933 90.866z" />
      <path d="M363.715 342.273c-3.865 3.867-10.156 3.867-14.021 0-3.905-3.904-10.237-3.904-14.143 0-3.905 3.905-3.905 10.237 0 14.143 5.832 5.832 13.493 8.748 21.153 8.748s15.321-2.916 21.153-8.748c3.905-3.905 3.905-10.237 0-14.143-3.905-3.904-10.237-3.904-14.142 0zM161.824 342.273a9.848 9.848 0 0 1-7.011 2.904 9.846 9.846 0 0 1-7.01-2.904c-3.904-3.903-10.236-3.904-14.142 0-3.905 3.905-3.906 10.236 0 14.143 5.65 5.65 13.162 8.762 21.153 8.762s15.503-3.111 21.153-8.762c3.905-3.905 3.905-10.237 0-14.143-3.906-3.904-10.238-3.904-14.143 0z" />
    </svg>
    <svg xmlns="http://www.w3.org/2000/svg" width="512" viewBox="0 0 512.067 512.067" height="512" id="p">
      <path d="M415.077 276.716a42.732 42.732 0 0 0 6.465-22.663c0-23.53-18.955-42.673-42.255-42.673h-9.72a42.214 42.214 0 0 0 6.441-22.463v-.42c0-23.414-19.049-42.463-42.464-42.463h-95.781v-35.999h103.993c5.522 0 10-4.477 10-10s-4.478-10-10-10H113.77c-5.523 0-10 4.477-10 10s4.477 10 10 10h103.993v35.999h-95.782c-23.414 0-42.463 19.049-42.463 42.463v.42a42.211 42.211 0 0 0 6.441 22.463h-9.721c-23.299 0-42.255 19.143-42.255 42.673a42.73 42.73 0 0 0 6.465 22.663C17.984 277.675 0 296.431 0 319.35c0 22.929 18 41.692 40.479 42.635a42.725 42.725 0 0 0-6.495 22.711c0 23.53 18.956 42.673 42.255 42.673h3.849a42.293 42.293 0 0 0-6.446 22.496v.355c0 23.432 19.035 42.495 42.431 42.495h223.38c23.396 0 42.431-19.063 42.431-42.495v-.355a42.293 42.293 0 0 0-6.446-22.496h3.849c23.3 0 42.255-19.143 42.255-42.673 0-8.341-2.382-16.13-6.495-22.711 22.479-.944 40.479-19.706 40.479-42.635-.001-22.919-17.984-41.675-40.449-42.634zM99.518 188.917v-.42c0-12.386 10.077-22.463 22.463-22.463h211.563c12.387 0 22.464 10.077 22.464 22.463v.42c0 12.386-10.077 22.463-22.464 22.463H121.981c-12.386 0-22.463-10.077-22.463-22.463zm-23.28 42.463h303.049c12.271 0 22.255 10.171 22.255 22.673 0 11.998-9.195 21.849-20.782 22.624h-42.613c-.336 0-.669.017-.996.049H113.098a10.25 10.25 0 0 0-.996-.049H74.766c-11.588-.775-20.782-10.626-20.782-22.624-.001-12.502 9.983-22.673 22.254-22.673zm238.02 153.316c0 48.384-38.802 87.747-86.495 87.747s-86.495-39.363-86.495-87.747 38.801-87.747 86.495-87.747 86.495 39.363 86.495 87.747zM20 319.35c0-12.502 9.983-22.673 22.254-22.673h31.953c.673.032 1.35.049 2.031.049h90.096a108.163 108.163 0 0 0-36.356 45.297H42.254C29.983 342.023 20 331.852 20 319.35zm33.983 65.346c0-12.502 9.983-22.673 22.255-22.673h47.402c-1.554 7.312-2.373 14.898-2.373 22.673s.819 15.361 2.373 22.673H76.238c-12.271 0-22.255-10.171-22.255-22.673zm39.659 65.524v-.355c0-12.404 10.062-22.496 22.431-22.496h13.905a108.157 108.157 0 0 0 36.425 45.346h-50.33c-12.369 0-22.431-10.091-22.431-22.495zm268.242-.356v.355c0 12.404-10.062 22.495-22.431 22.495h-50.33a108.163 108.163 0 0 0 36.425-45.346h13.905c12.368.001 22.431 10.092 22.431 22.496zm17.403-42.495h-47.402c1.554-7.312 2.373-14.898 2.373-22.673s-.819-15.361-2.373-22.673h47.402c12.271 0 22.255 10.171 22.255 22.673s-9.983 22.673-22.255 22.673zm33.984-65.346h-87.722a108.163 108.163 0 0 0-36.356-45.297h90.095c.681 0 1.358-.017 2.031-.049h31.952c12.271 0 22.255 10.171 22.255 22.673s-9.984 22.673-22.255 22.673zM499.209 81.106c-5.255-5.265-12.096-8.919-20.446-10.943l11.781-11.804c3.901-3.909 3.896-10.241-.014-14.142s-10.241-3.896-14.143.014l-14.145 14.173a38.832 38.832 0 0 0-9.928-16.958c-7.019-7.033-16.243-11.055-26.112-11.419v-.675c0-5.523-4.478-10-10-10s-10 4.477-10 10v5.318a39.14 39.14 0 0 0-9.053 6.776 38.905 38.905 0 0 0-6.741 9.063h-5.302c-5.522 0-10 4.477-10 10s4.478 10 10 10h.675c.35 9.508 4.14 18.912 11.368 26.155 4.787 4.797 10.601 8.193 16.945 9.983l-14.167 14.195c-3.901 3.909-3.896 10.241.014 14.142a9.97 9.97 0 0 0 7.064 2.922 9.97 9.97 0 0 0 7.078-2.936l11.736-11.759c2.021 8.347 5.665 15.185 10.911 20.441 10.149 10.17 24.946 12.892 37.883 12.892 13.318 0 24.664-2.886 26.929-3.501a9.999 9.999 0 0 0 7.033-7.04c1.209-4.47 11.219-44.272-9.366-64.897zm-74.478 7.004c-5.07 0-9.839-1.98-13.426-5.574-7.419-7.434-7.419-19.528 0-26.962A18.849 18.849 0 0 1 424.731 50c5.071 0 9.84 1.98 13.427 5.574 7.412 7.427 7.419 19.507.02 26.942l-.04.04a18.848 18.848 0 0 1-13.407 5.554zm65.781 46.877c-11.29 1.986-30.906 3.273-39.625-5.463-5.766-5.778-7.037-16.034-6.944-24.473l8.351-8.367.021-.02.019-.02 8.343-8.359c8.38-.092 18.615 1.174 24.376 6.948 8.734 8.752 7.442 28.443 5.459 39.754z" />
    </svg>
    <svg xmlns="http://www.w3.org/2000/svg" width="512" viewBox="0 0 512 512" height="512" id="q">
      <path d="M373.458 347.78c-5.522 0-10 4.477-10 10s4.478 10 10 10h33.071c5.522 0 10-4.477 10-10s-4.478-10-10-10zM138.542 347.78h-33.071c-5.522 0-10 4.477-10 10s4.478 10 10 10h33.071c5.522 0 10-4.477 10-10s-4.478-10-10-10z" />
      <path d="M502 176.736H316.552l110.646-83.481c4.409-3.327 5.287-9.597 1.96-14.006-3.325-4.408-9.596-5.287-14.005-1.96l-118.458 89.375V24.466c0-5.523-4.478-10-10-10h-61.391c-5.522 0-10 4.477-10 10v142.198L96.847 77.289c-4.407-3.326-10.679-2.449-14.005 1.96-3.327 4.409-2.449 10.679 1.96 14.006l110.646 83.481H10c-5.522 0-10 4.477-10 10v53.229c0 5.523 4.478 10 10 10h20.231v151.312c0 53.076 43.181 96.256 96.257 96.256h259.023c53.076 0 96.257-43.18 96.257-96.256V249.966H502c5.522 0 10-4.477 10-10v-53.229c0-5.524-4.478-10.001-10-10.001zM235.305 34.466h41.391v142.27h-41.391zm188.589 162.27-30.923 33.229H119.03l-30.923-33.229zM256 377.151 137.642 249.966h236.717zM20 196.736h40.787l30.923 33.229H20zm441.769 204.541c0 42.048-34.209 76.256-76.257 76.256H126.488c-42.048 0-76.257-34.208-76.257-76.256V249.966h60.09l91.026 97.814H194.8c-5.522 0-10 4.477-10 10s4.478 10 10 10h25.16l28.72 30.862a9.999 9.999 0 0 0 14.64 0l28.72-30.862h25.16c5.522 0 10-4.477 10-10s-4.478-10-10-10h-6.548l91.026-97.814h60.09v151.311zM492 229.966h-71.71l30.923-33.229H492z" />
      <path d="M227.871 411.296H194.8c-5.522 0-10 4.477-10 10s4.478 10 10 10h33.071c5.522 0 10-4.477 10-10s-4.477-10-10-10zM317.2 411.296h-33.071c-5.522 0-10 4.477-10 10s4.478 10 10 10H317.2c5.522 0 10-4.477 10-10s-4.477-10-10-10zM406.529 411.296h-33.071c-5.522 0-10 4.477-10 10s4.478 10 10 10h33.071c5.522 0 10-4.477 10-10s-4.477-10-10-10zM138.542 411.296h-33.071c-5.522 0-10 4.477-10 10s4.478 10 10 10h33.071c5.522 0 10-4.477 10-10s-4.478-10-10-10z" />
    </svg>
  </defs>
  <g transform="rotate(5 -4016.441 2227.066) scale(.244)" data-name="003-ladybug.svg">
    <path fill="transparent" d="M0 0h512v512H0z" />
    <use xlink:href="#a" />
  </g>
  <g data-name="048-barbecue.svg">
    <g transform="rotate(-9 1958.05 -2310.57) scale(.244)">
      <path fill="transparent" d="M0 0h512v512H0z" />
      <use xlink:href="#b" />
    </g>
    <g transform="rotate(-9 1702.05 942.22) scale(.244)">
      <path fill="transparent" d="M0 0h512v512H0z" />
      <use xlink:href="#b" />
    </g>
  </g>
  <g data-name="017-bird house.svg">
    <g transform="rotate(4 -1760.165 6591.676) scale(.244)">
      <path fill="transparent" d="M0 0h512v512H0z" />
      <use xlink:href="#c" />
    </g>
    <g transform="rotate(4 -2016.165 -739.204) scale(.244)">
      <path fill="transparent" d="M0 0h512v512H0z" />
      <use xlink:href="#c" />
    </g>
  </g>
  <g transform="rotate(-5 4300.303 -3211.924) scale(.244)" data-name="014-boots.svg">
    <path fill="transparent" d="M0 0h512v512H0z" />
    <use xlink:href="#d" />
  </g>
  <g transform="rotate(13 -292.392 1193.323) scale(.244)" data-name="032-watering can.svg">
    <path fill="transparent" d="M0 0h512v512H0z" />
    <use xlink:href="#e" />
  </g>
  <g data-name="008-acorn.svg">
    <g transform="rotate(-32 1016.323 -8.829) scale(.244)">
      <path fill="transparent" d="M0 0h512v512H0z" />
      <use xlink:href="#f" />
    </g>
    <g transform="rotate(-32 123.545 -264.829) scale(.244)">
      <path fill="transparent" d="M0 0h512v512H0z" />
      <use xlink:href="#f" />
    </g>
  </g>
  <g data-name="046-bee.svg">
    <g transform="rotate(-40 1007.952 -272.26) scale(.244)">
      <path fill="transparent" d="M0 0h512v512H0z" />
      <use xlink:href="#g" />
    </g>
    <g transform="rotate(-40 304.597 -528.26) scale(.244)">
      <path fill="transparent" d="M0 0h512v512H0z" />
      <use xlink:href="#g" />
    </g>
    <g transform="rotate(-40 751.952 431.093) scale(.244)">
      <path fill="transparent" d="M0 0h512v512H0z" />
      <use xlink:href="#g" />
    </g>
    <g transform="rotate(-40 48.597 175.093) scale(.244)">
      <path fill="transparent" d="M0 0h512v512H0z" />
      <use xlink:href="#g" />
    </g>
  </g>
  <g transform="rotate(-13 816.603 -1448.907) scale(.244)" data-name="030-tree.svg">
    <path fill="transparent" d="M0 0h512v512H0z" />
    <use xlink:href="#h" />
  </g>
  <g transform="rotate(-15 500.707 13.31) scale(.25)" data-name="023-lemonade.svg">
    <path fill="transparent" d="M0 0h512v512H0z" />
    <use xlink:href="#i" />
  </g>
  <g transform="rotate(-7 823.208 -931.664) scale(.25)" data-name="042-egg.svg">
    <path fill="transparent" d="M0 0h512v512H0z" />
    <use xlink:href="#j" />
  </g>
  <g transform="rotate(-14 1118.781 -844.014) scale(.25)" data-name="039-stump.svg">
    <path fill="transparent" d="M0 0h512v512H0z" />
    <use xlink:href="#k" />
  </g>
  <g transform="rotate(-11 1321.911 -469.982) scale(.25)" data-name="028-t shirt.svg">
    <path fill="transparent" d="M0 0h512v512H0z" />
    <use xlink:href="#l" />
  </g>
  <g data-name="047-shopping bag.svg">
    <g transform="rotate(-4 4110.938 -7134.498) scale(.25)">
      <path fill="transparent" d="M0 0h512v512H0z" />
      <use xlink:href="#m" />
    </g>
    <g transform="rotate(-4 3854.938 196.382) scale(.25)">
      <path fill="transparent" d="M0 0h512v512H0z" />
      <use xlink:href="#m" />
    </g>
  </g>
  <g data-name="024-clouds.svg">
    <g transform="rotate(-5 5914.66 -3225.932) scale(.25)">
      <path fill="transparent" d="M0 0h512v512H0z" />
      <use xlink:href="#n" />
    </g>
    <g transform="rotate(-5 51.296 -3481.932) scale(.25)">
      <path fill="transparent" d="M0 0h512v512H0z" />
      <use xlink:href="#n" />
    </g>
  </g>
  <g data-name="037-cherries.svg">
    <g transform="rotate(30 -575.109 363.249) scale(.25)">
      <path fill="transparent" d="M0 0h512v512H0z" />
      <use xlink:href="#o" />
    </g>
    <g transform="rotate(30 380.296 107.249) scale(.25)">
      <path fill="transparent" d="M0 0h512v512H0z" />
      <use xlink:href="#o" />
    </g>
  </g>
  <g data-name="013-beehive.svg">
    <g transform="rotate(14 -1893.118 498.581) scale(.25)">
      <path fill="transparent" d="M0 0h512v512H0z" />
      <use xlink:href="#p" />
    </g>
    <g transform="rotate(14 191.835 242.581) scale(.25)">
      <path fill="transparent" d="M0 0h512v512H0z" />
      <use xlink:href="#p" />
    </g>
  </g>
  <g data-name="010-picnic basket.svg">
    <g transform="rotate(8 -2563.568 3373.341) scale(.25)">
      <path fill="transparent" d="M0 0h512v512H0z" />
      <use xlink:href="#q" />
    </g>
    <g transform="rotate(8 1097.402 3117.341) scale(.25)">
      <path fill="transparent" d="M0 0h512v512H0z" />
      <use xlink:href="#q" />
    </g>
    <g transform="rotate(8 -2819.568 -287.63) scale(.25)">
      <path fill="transparent" d="M0 0h512v512H0z" />
      <use xlink:href="#q" />
    </g>
    <g transform="rotate(8 841.402 -543.63) scale(.25)">
      <path fill="transparent" d="M0 0h512v512H0z" />
      <use xlink:href="#q" />
    </g>
  </g>
</svg>
