<svg xmlns="http://www.w3.org/2000/svg" xmlns:xlink="http://www.w3.org/1999/xlink" width="512" height="512" viewBox="0 0 512 512">
  <defs>
    <svg xmlns="http://www.w3.org/2000/svg" width="512" viewBox="0 0 512 512" height="512" id="a">
      <path d="M327.378 433.521c65.408 0 118.622-53.318 118.622-118.856s-53.214-118.856-118.622-118.856-118.622 53.318-118.622 118.856 53.214 118.856 118.622 118.856zm0-217.713c54.38 0 98.622 44.347 98.622 98.856s-44.242 98.856-98.622 98.856-98.622-44.347-98.622-98.856 44.242-98.856 98.622-98.856z" />
      <path d="M327.378 367.521c29.016 0 52.622-23.711 52.622-52.856s-23.606-52.856-52.622-52.856-52.622 23.711-52.622 52.856 23.606 52.856 52.622 52.856zm0-85.713c17.988 0 32.622 14.739 32.622 32.856s-14.634 32.856-32.622 32.856-32.622-14.739-32.622-32.856 14.634-32.856 32.622-32.856z" />
      <path d="M487.319 406.925C503.012 379.757 512 348.242 512 314.664c0-101.931-82.821-184.856-184.622-184.856-65.057 0-122.362 33.867-155.254 84.918-2.499-32.671-12.845-61.91-29.756-83.529-11.253-14.384-25.074-25.253-40.993-32.389V75.313c12.866-4.219 22.184-16.351 22.184-30.621 0-17.763-14.438-32.213-32.184-32.213-8.59 0-16.405 3.386-22.183 8.896-5.778-5.509-13.593-8.896-22.184-8.896-17.745 0-32.183 14.45-32.183 32.213 0 14.27 9.318 26.401 22.183 30.621v15.638C15.624 97.379 0 117.266 0 140.738c0 28.656 23.288 51.97 51.913 51.97 14.121 0 16.977 6.336 16.977 37.663v127.545c0 78.081 63.443 141.604 141.427 141.604h244.616c28.625 0 51.913-23.313 51.913-51.97a51.94 51.94 0 0 0-19.527-40.625zM327.378 149.808C418.15 149.808 492 223.762 492 314.664S418.15 479.52 327.378 479.52s-164.622-73.954-164.622-164.856 73.849-164.856 164.622-164.856zM57.008 88.861V75.313a32.21 32.21 0 0 0 12.184-7.304 32.203 32.203 0 0 0 12.183 7.303V92.07c-7.762-1.826-15.897-2.903-24.367-3.209zm34.366-56.382c6.718 0 12.184 5.479 12.184 12.213s-5.466 12.213-12.184 12.213-12.183-5.479-12.183-12.213 5.465-12.213 12.183-12.213zm-44.366 0c6.718 0 12.184 5.479 12.184 12.213s-5.466 12.213-12.184 12.213-12.183-5.479-12.183-12.213 5.465-12.213 12.183-12.213zm163.308 447.042c-66.955 0-121.427-54.552-121.427-121.604V230.371c0-15.034-.321-27.335-4.364-37.411-5.393-13.438-16.365-20.252-32.612-20.252-17.597 0-31.913-14.342-31.913-31.97s14.316-31.97 31.913-31.97c74.403 0 100.803 65.507 100.803 121.603v24.355c-6.454 18.804-9.96 38.969-9.96 59.938 0 71.869 41.173 134.289 101.142 164.856h-33.582zm244.617 0h-44.074c25.934-13.219 48.353-32.396 65.447-55.718a31.968 31.968 0 0 1 10.54 23.749c0 17.627-14.317 31.969-31.913 31.969z" />
    </svg>
    <svg xmlns="http://www.w3.org/2000/svg" width="512" viewBox="0 0 512 512" height="512" id="b">
      <path d="M416.914 164.547c-17.836-17.613-38.11-31.942-60.069-42.681 1.479-6.717 2.159-13.123 2.159-20.029C359.004 45.684 312.797 0 256 0S152.996 45.684 152.996 101.838c0 6.905.68 13.312 2.159 20.029-21.959 10.739-42.233 25.068-60.069 42.681C52.063 207.03 28.37 263.524 28.37 323.621c0 69.641 31.875 134.229 87.45 177.203a10.002 10.002 0 0 0 14.146-1.949l14.943-20.125C177.863 500.531 216.089 512 256 512c39.925 0 78.14-11.467 111.092-33.25l14.943 20.125a9.997 9.997 0 0 0 14.145 1.95c55.576-42.974 87.45-107.562 87.45-177.203 0-60.098-23.693-116.592-66.716-159.075zm-243.918-62.709C172.996 56.712 210.231 20 256 20s83.004 36.712 83.004 81.838c0 4.07-.305 7.938-.955 11.871C312.223 103.864 284.511 98.72 256 98.72s-56.223 5.145-82.05 14.989a71.992 71.992 0 0 1-.954-11.871zM256 492c-35.588 0-69.682-10.115-99.148-29.334L256 329.134l99.149 133.532C325.685 481.887 291.6 492 256 492zm135.866-13.432L266 309.053v-60.3c0-5.523-4.478-10-10-10-5.523 0-10 4.477-10 10v60.299L120.134 478.568C74.396 439.554 48.37 383.641 48.37 323.621c0-112.983 93.143-204.901 207.63-204.901s207.63 91.918 207.63 204.901c0 60.02-26.026 115.933-71.764 154.947z" />
      <path d="M375.062 241.725c0-18.976-15.577-34.415-34.725-34.415s-34.725 15.438-34.725 34.415 15.577 34.415 34.725 34.415 34.725-15.439 34.725-34.415zm-49.449 0c0-7.948 6.605-14.415 14.725-14.415s14.725 6.466 14.725 14.415-6.605 14.415-14.725 14.415-14.725-6.467-14.725-14.415zM256.214 144.849c-19.147 0-34.725 15.438-34.725 34.415s15.577 34.415 34.725 34.415 34.725-15.438 34.725-34.415-15.578-34.415-34.725-34.415zm0 48.829c-8.119 0-14.725-6.466-14.725-14.415s6.605-14.415 14.725-14.415 14.725 6.466 14.725 14.415-6.606 14.415-14.725 14.415zM171.662 207.311c-19.147 0-34.725 15.438-34.725 34.415s15.577 34.415 34.725 34.415 34.725-15.438 34.725-34.415-15.577-34.415-34.725-34.415zm0 48.829c-8.119 0-14.725-6.466-14.725-14.415s6.605-14.415 14.725-14.415 14.725 6.466 14.725 14.415-6.606 14.415-14.725 14.415zM384.07 291.003c-26.662 0-48.353 21.475-48.353 47.872s21.69 47.872 48.353 47.872 48.353-21.475 48.353-47.872-21.691-47.872-48.353-47.872zm0 75.743c-15.634 0-28.353-12.503-28.353-27.872s12.719-27.872 28.353-27.872 28.353 12.503 28.353 27.872-12.719 27.872-28.353 27.872zM127.93 291.003c-26.662 0-48.353 21.475-48.353 47.872s21.691 47.872 48.353 47.872 48.353-21.475 48.353-47.872-21.691-47.872-48.353-47.872zm0 75.743c-15.634 0-28.353-12.503-28.353-27.872s12.719-27.872 28.353-27.872 28.353 12.503 28.353 27.872-12.719 27.872-28.353 27.872z" />
    </svg>
    <svg xmlns="http://www.w3.org/2000/svg" width="512" viewBox="0 0 512.001 512.001" height="512" id="c">
      <path d="M509.595 401.757c-3.593-4.193-9.906-4.681-14.1-1.088-14.656 12.554-35.93 12.557-50.587-.001l-7.805-6.687c-22.196-19.016-54.417-19.016-76.612.002l-7.801 6.683c-14.657 12.556-35.932 12.558-50.589 0l-7.798-6.681c-22.197-19.018-54.418-19.017-76.615.001l-7.794 6.678c-14.657 12.558-35.932 12.557-50.59.001l-7.796-6.68c-22.196-19.019-54.417-19.018-76.614-.001l-7.798 6.681c-14.656 12.557-35.932 12.557-50.589 0-4.195-3.596-10.507-3.106-14.101 1.088-3.593 4.193-3.106 10.507 1.088 14.1 22.198 19.018 54.419 19.017 76.614.001l7.798-6.681c14.657-12.557 35.932-12.557 50.589 0l7.796 6.68c22.198 19.018 54.419 19.017 76.614-.001l7.795-6.678c14.657-12.557 35.933-12.558 50.589-.001l7.798 6.681c22.196 19.018 54.416 19.017 76.614.001l7.801-6.684c14.655-12.557 35.93-12.557 50.587 0l7.805 6.686c11.098 9.508 24.701 14.262 38.305 14.262s27.208-4.754 38.305-14.262c4.197-3.593 4.684-9.905 1.091-14.1z" />
      <path d="M84.067 335.267a60.02 60.02 0 0 0-9.174 6.482l-7.536 6.457c-4.045 3.466-4.962 9.545-1.764 13.806 3.503 4.668 10.154 5.342 14.515 1.605l7.797-6.681c14.557-12.472 36.032-12.472 50.589 0l7.797 6.68c22.197 19.018 54.418 19.018 76.615 0l7.794-6.679c14.656-12.559 35.932-12.557 50.59 0l7.797 6.681c11.1 9.51 24.701 14.264 38.307 14.263 13.603-.001 27.21-4.755 38.307-14.263l7.801-6.684c14.656-12.555 35.931-12.556 50.587-.001l7.547 6.466c4.044 3.465 10.191 3.438 13.91-.374 4.075-4.178 3.723-10.855-.638-14.592l-7.806-6.688a59.972 59.972 0 0 0-9.169-6.478l32.402-106.6a10.01 10.01 0 0 0-3.088-10.528c-1.869-1.599-4.305-2.38-6.765-2.38h-55.993L263.121 84.772a5.18 5.18 0 0 0-.142-.138c-3.839-3.641-9.854-3.654-13.804-.134a7.746 7.746 0 0 0-.296.272L117.511 215.759H61.518c-2.46 0-4.896.781-6.765 2.38-3.088 2.643-4.226 6.783-3.088 10.528zm268.622 13.164c-14.656 12.557-35.932 12.557-50.588 0l-7.798-6.681c-22.197-19.018-54.418-19.018-76.615 0l-7.794 6.679c-14.656 12.557-35.933 12.557-50.59 0l-7.796-6.68a61.373 61.373 0 0 0-1.999-1.639L256 239.515l106.49 100.593a60.126 60.126 0 0 0-1.999 1.64zm56.427-20.026a58.389 58.389 0 0 0-27.971 1.813l-99.996-94.458h156.128zM266 215.759v-99.873l100.165 99.873zm-20-99.873v99.873H145.836zm-15.148 119.873-99.997 94.46a58.385 58.385 0 0 0-27.97-1.813L74.724 235.76h156.128z" />
    </svg>
    <svg xmlns="http://www.w3.org/2000/svg" width="512" viewBox="0 0 512.003 512.003" height="512" id="d">
      <path d="M422.908 104.654h-59.621c.011-.788.02-1.371.028-1.825.014-.87.02-1.311.02-1.753 0-36.955-39.443-71.737-41.122-73.2a10.002 10.002 0 0 0-13.137.001c-.347.302-6.24 5.468-13.444 13.712-14.239-22.355-32.432-38.338-33.341-39.13a10 10 0 0 0-13.136 0c-.909.792-19.102 16.774-33.34 39.129-7.204-8.245-13.096-13.41-13.443-13.712a10 10 0 0 0-13.137 0c-1.679 1.462-41.122 36.244-41.122 73.199 0 .443.006.885.02 1.759l.027 1.819H89.095c-25.18 0-45.666 20.485-45.666 45.666v12.815c0 5.522 4.477 10 10 10h10.662v41.443c0 49.721 29.647 92.648 72.191 112.033l-27.824 105.14a40.85 40.85 0 0 0-2.328-.067c-22.149 0-40.168 18.016-40.168 40.159S83.981 512 106.13 512c22.148 0 40.168-18.016 40.168-40.159 0-14.286-7.501-26.853-18.771-33.974l2.507-9.474h257.954l24.437 76.646c1.355 4.251 5.288 6.965 9.524 6.965 1.007 0 2.03-.153 3.041-.476 5.262-1.678 8.167-7.303 6.489-12.565l-55.055-172.674c42.167-19.536 71.487-62.263 71.487-111.709v-41.443h10.662c5.522 0 10-4.478 10-10V150.32c.001-25.181-20.484-45.666-45.665-45.666zM106.13 492c-11.121 0-20.168-9.043-20.168-20.159s9.047-20.159 20.168-20.159 20.168 9.043 20.168 20.159S117.251 492 106.13 492zm62.001-389.477c-.011-.72-.018-1.083-.018-1.447 0-18.821 16.43-40.034 27.664-51.749 3.778 3.93 8.686 9.45 13.324 15.916a9.999 9.999 0 0 0 17.11-1.438c8.323-17.034 21.595-31.928 29.512-39.958 7.918 8.032 21.189 22.925 29.512 39.958a10 10 0 0 0 17.11 1.438c4.638-6.467 9.546-11.987 13.323-15.916 11.238 11.72 27.665 32.931 27.665 51.749 0 .363-.006.725-.018 1.438-.008.515-.019 1.192-.032 2.14H168.162l-.031-2.131zm213.48 305.87H135.328l19.845-74.987a122.788 122.788 0 0 0 31.955 4.208h137.748c11.339 0 22.324-1.542 32.757-4.427zm46.301-193.814c0 56.814-46.222 103.036-103.036 103.036H187.128c-56.814 0-103.036-46.222-103.036-103.036v-41.443h343.82zm20.662-61.444H63.429v-2.815c0-14.152 11.514-25.666 25.666-25.666h333.812c14.152 0 25.666 11.514 25.666 25.666v2.815z" />
      <path d="M216.685 254.839h78.634c16.562 0 30.035-13.474 30.035-30.035s-13.474-30.035-30.035-30.035h-78.634c-16.562 0-30.035 13.474-30.035 30.035s13.473 30.035 30.035 30.035zm0-40.07h78.634c5.533 0 10.035 4.502 10.035 10.035s-4.502 10.035-10.035 10.035h-78.634c-5.533 0-10.035-4.502-10.035-10.035s4.502-10.035 10.035-10.035z" />
    </svg>
    <svg xmlns="http://www.w3.org/2000/svg" width="512" viewBox="0 0 512.02 512.02" height="512" id="e">
      <path d="M455.054 135.719 277.951 7.145a37.261 37.261 0 0 0-43.882 0L56.966 135.719c-16.674 12.105-20.401 35.531-8.31 52.22 5.86 8.09 14.518 13.41 24.378 14.98a37.81 37.81 0 0 0 5.953.474 36.92 36.92 0 0 0 14.144-2.808l15.283 185.608h-8.599c-5.523 0-10 4.477-10 10v7.332c0 25.668 20.883 46.551 46.551 46.551h73.906l8.442 53.503a10 10 0 0 0 9.878 8.441h54.837a10 10 0 0 0 9.878-8.441l8.442-53.503h73.906c25.668 0 46.551-20.883 46.551-46.551v-7.332c0-5.523-4.477-10-10-10h-8.599l15.283-185.611a37.08 37.08 0 0 0 14.202 2.804c11.95 0 23.267-5.775 30.273-15.447 12.09-16.688 8.363-40.115-8.311-52.22zM274.882 492.02h-37.745l-6.618-41.944H281.5zm100.772-61.945H136.366c-13.74 0-25.075-10.491-26.418-23.882h292.124c-1.343 13.392-12.678 23.882-26.418 23.882zm-247.172-43.882-16.315-198.151L256.01 83.614l143.844 104.429-16.315 198.151H128.482zm318.686-209.987a17.433 17.433 0 0 1-14.078 7.181 17.206 17.206 0 0 1-10.168-3.312L261.885 63.164a9.999 9.999 0 0 0-11.75 0L89.099 180.074a17.224 17.224 0 0 1-12.919 3.095 17.243 17.243 0 0 1-11.328-6.963c-5.628-7.768-3.895-18.669 3.864-24.301L245.818 23.33a17.32 17.32 0 0 1 10.192-3.319c3.571 0 7.144 1.106 10.191 3.319l177.103 128.574c7.758 5.632 9.491 16.534 3.864 24.302z" />
      <path d="M256.01 143.58c-37.929 0-68.787 30.858-68.787 68.787s30.858 68.787 68.787 68.787 68.787-30.858 68.787-68.787-30.858-68.787-68.787-68.787zm0 117.574c-26.901 0-48.787-21.886-48.787-48.787s21.886-48.787 48.787-48.787 48.787 21.886 48.787 48.787-21.886 48.787-48.787 48.787zM256.01 300.505c-18.87 0-34.222 15.352-34.222 34.222s15.352 34.222 34.222 34.222 34.222-15.352 34.222-34.222-15.352-34.222-34.222-34.222zm0 48.443c-7.842 0-14.222-6.38-14.222-14.222s6.38-14.222 14.222-14.222 14.222 6.38 14.222 14.222-6.38 14.222-14.222 14.222z" />
    </svg>
    <svg xmlns="http://www.w3.org/2000/svg" width="512" viewBox="0 0 512 512" height="512" id="f">
      <path d="M477.629 305.662h-9.97c.281-.271.559-.545.836-.823 27.828-27.999 19.644-79.3 19.281-81.47a9.999 9.999 0 0 0-8.198-8.215c-2.161-.367-53.226-8.612-81.091 19.422-.226.228-.45.457-.672.688v-26.372c37.147-4.91 65.907-36.785 65.907-75.251V52.864a10.002 10.002 0 0 0-17.177-6.964l-21.724 22.387-30.374-26.959a10 10 0 0 0-13.276.001l-30.367 26.957-21.629-22.29a9.985 9.985 0 0 0-3.512-2.399 9.972 9.972 0 0 0-4.791-.678l-.016.002-.16.018a.445.445 0 0 0-.036.005l-.145.019-.041.006-.138.021-.055.009-.119.02-.068.012-.117.022-.062.012-.116.024-.07.015a4.35 4.35 0 0 0-.11.025l-.069.016-.117.029-.055.014a6.257 6.257 0 0 0-.13.035l-.047.013-.137.039-.038.011-.155.048-.013.004a9.994 9.994 0 0 0-4.128 2.559l-21.724 22.387-30.373-26.959a10.002 10.002 0 0 0-13.277.001l-30.368 26.957-21.628-22.288a9.999 9.999 0 0 0-7.57-3.126h-.004l-.173.007-.028.001a3.72 3.72 0 0 0-.149.009l-.052.004-.124.01-.078.007-.096.009-.099.01-.082.01-.106.013-.072.01-.114.016a1.637 1.637 0 0 1-.069.01l-.115.019-.064.011-.115.021-.067.013-.116.023-.063.013a4.573 4.573 0 0 0-.113.025l-.071.016-.103.025-.081.02-.091.024a2.632 2.632 0 0 0-.095.026l-.079.022-.103.03-.071.021-.118.037-.051.016-.139.046-.031.01a9.981 9.981 0 0 0-3.194 1.804l-.043.036-.078.068-.065.057-.068.061-.07.063-.072.067-.064.06a2.445 2.445 0 0 0-.073.071l-.06.058-.075.076-.055.055a.51.51 0 0 0-.023.024L161.193 68.29 130.82 41.331a10.002 10.002 0 0 0-13.277.001l-30.37 26.954-21.72-22.385a10 10 0 0 0-17.177 6.964v80.775c0 38.466 28.761 70.341 65.908 75.251v26.373c-.222-.231-.446-.46-.672-.688-27.864-28.034-78.931-19.787-81.09-19.422a10.001 10.001 0 0 0-8.199 8.215c-.362 2.17-8.547 53.471 19.282 81.47.276.278.555.552.836.823h-9.969C15.419 305.662 0 321.081 0 340.034v25.306c0 5.522 4.477 10 10 10h18.326l10.77 52.69c5.348 26.169 28.616 45.162 55.325 45.162h323.157c26.71 0 49.978-18.993 55.326-45.161l10.77-52.691H502c5.522 0 10-4.478 10-10v-25.306c0-18.953-15.419-34.372-34.371-34.372zm-64.956-56.986c15.322-15.418 42.955-15.55 56.161-14.592.955 13.299.843 41.194-14.524 56.655-15.322 15.417-42.954 15.55-56.161 14.592-.956-13.299-.843-41.194 14.524-56.655zm-34.858 48.98v8.006h-41.972c.281-.271.559-.545.836-.823 27.828-27.999 19.644-79.3 19.281-81.47a9.999 9.999 0 0 0-8.198-8.215c-2.161-.367-53.226-8.612-81.091 19.422-.226.228-.45.457-.672.688v-26.372c23.934-3.163 44.386-17.521 55.907-37.622 11.522 20.102 31.974 34.459 55.908 37.622v86.212c-.006.869-.006 1.721.001 2.552zm-111.812-2.169c.069-14.423 2.654-34.536 14.855-46.811 15.322-15.418 42.953-15.55 56.161-14.592.955 13.299.843 41.194-14.524 56.655-15.322 15.417-42.954 15.55-56.161 14.592-.17-2.372-.307-5.209-.329-8.356.001-.49.001-.986-.002-1.488zm-20.008 1.502a129.716 129.716 0 0 1-.328 8.342c-13.214.953-40.843.82-56.161-14.592-15.37-15.463-15.479-43.365-14.525-56.655 13.215-.951 40.842-.821 56.161 14.592 12.198 12.271 14.784 32.377 14.855 46.797a153.7 153.7 0 0 0-.002 1.516zM356.928 89.594l30.884-27.415L418.7 89.595c4 3.55 10.089 3.323 13.814-.516l11.208-11.55v56.111c0 30.827-25.08 55.907-55.907 55.907-30.828 0-55.908-25.08-55.908-55.907V77.531l11.205 11.548a10 10 0 0 0 13.816.515zm-131.816 0 30.884-27.415 30.889 27.415a9.999 9.999 0 0 0 13.814-.515l11.208-11.55v56.111c0 30.827-25.08 55.907-55.907 55.907-30.828 0-55.908-25.08-55.908-55.907V77.531l11.205 11.548a10.001 10.001 0 0 0 13.815.515zM68.277 133.641v-56.11l11.205 11.548a10.002 10.002 0 0 0 13.815.515l30.884-27.415 30.888 27.415a10 10 0 0 0 13.814-.515l11.209-11.551v56.112c0 30.827-25.08 55.907-55.908 55.907s-55.907-25.079-55.907-55.906zm65.908 75.251c23.934-3.163 44.386-17.521 55.908-37.622 11.522 20.102 31.974 34.459 55.908 37.622v26.373c-.222-.231-.446-.46-.672-.688-27.864-28.034-78.93-19.787-81.09-19.422a10.001 10.001 0 0 0-8.199 8.215c-.362 2.17-8.547 53.471 19.282 81.47.276.278.555.552.836.823h-41.972v-8.036c.007-.813.007-1.645 0-2.494v-86.241zm-91.019 25.192c13.215-.951 40.842-.821 56.161 14.592 15.37 15.463 15.479 43.365 14.525 56.655-13.217.953-40.843.82-56.161-14.592-15.371-15.463-15.48-43.365-14.525-56.655zm410.143 189.942c-3.454 16.899-18.48 29.166-35.73 29.166H94.421c-17.25 0-32.276-12.267-35.73-29.167L48.74 375.34h414.52zM492 355.34H20v-15.306c0-7.925 6.447-14.372 14.372-14.372h443.257c7.924 0 14.371 6.447 14.371 14.372z" />
    </svg>
    <svg xmlns="http://www.w3.org/2000/svg" width="512" viewBox="0 0 512 512" height="512" id="g">
      <path d="M398.384 227.42h-46.972V77.305h.68c5.522 0 10-4.477 10-10V10c0-5.523-4.478-10-10-10H158.93c-5.522 0-10 4.477-10 10v57.305c0 5.523 4.478 10 10 10h.68v24.544H28.223c-5.522 0-10 4.477-10 10v57.304c0 5.523 4.478 10 10 10h.681V479c0 18.196 14.833 33 33.064 33h57.604c14.09 0 26.648-8.929 31.251-22.219l10.037-28.982h12.344l10.037 28.982c4.603 13.29 17.161 22.219 31.251 22.219h115.514c18.231 0 33.064-14.804 33.064-33v-54.582a95.23 95.23 0 0 0-1.071-14.267h98.712c18.232 0 33.065-14.803 33.065-32.999V322.57c.001-52.466-42.792-95.15-95.392-95.15zm75.393 95.15v16.38h-50.001v-87.144c29.118 10.412 50.001 38.203 50.001 70.764zM168.93 20h173.162v37.305H168.93zm10.679 57.305h151.803V237.42c0 5.523 4.478 10 10 10h56.972c1.813 0 3.611.064 5.393.19v91.339H311.03c-.434 0-.862.028-1.282.081-12.697-6.249-26.98-9.763-42.07-9.763h-46.972V179.153h.68c5.522 0 10-4.477 10-10v-57.304c0-5.523-4.478-10-10-10H179.61V77.305zM343.07 424.418v16.38h-50.979v-87.486c29.627 10.135 50.979 38.182 50.979 71.106zM38.223 121.849h173.163v37.304H38.223zm162.483 57.304v160.116c0 5.523 4.478 10 10 10h56.972c1.482 0 2.953.043 4.414.127v91.402h-131.47c-4.829-47.5-43.674-85.092-91.719-87.962V179.153zM48.903 372.881c37.008 2.784 66.91 31.46 71.588 67.917H48.903zm83.021 110.355c-1.815 5.242-6.779 8.764-12.353 8.764H61.968c-7.204 0-13.064-5.832-13.064-13v-18.202h90.791zM330.006 492H214.492c-5.573 0-10.537-3.522-12.353-8.764l-7.771-22.438h148.701V479c.001 7.168-5.859 13-13.063 13zm143.771-114.848c0 7.167-5.861 12.999-13.065 12.999H356.673a95.347 95.347 0 0 0-19.835-31.201h136.939z" />
    </svg>
    <svg xmlns="http://www.w3.org/2000/svg" width="512" viewBox="0 0 512.001 512.001" height="512" id="h">
      <path d="M466.667 135.143h-39.154l-6.768-38.812h13.542c5.523 0 10-4.478 10-10V68.34c0-27.734-22.563-50.298-50.297-50.298H151.8c-27.734 0-50.297 22.563-50.297 50.298v17.99c0 5.522 4.477 10 10 10h13.542l-13.513 77.493-51.627-62.893a9.999 9.999 0 0 0-13.357-1.921L4.373 137.724a10.001 10.001 0 0 0-3.496 12.36l82.671 184.219-13.619 78.1c-3.575 20.5 2.013 41.342 15.33 57.183 13.022 15.488 32 24.372 52.067 24.372h271.136c20.068 0 39.045-8.884 52.067-24.372 13.317-15.841 18.905-36.683 15.33-57.183l-15.172-87.005h5.978c24.997 0 45.334-20.354 45.334-45.373v-99.511c.002-25.017-20.335-45.371-45.332-45.371zM121.503 68.34c0-16.706 13.591-30.298 30.297-30.298h242.19c16.706 0 30.297 13.592 30.297 30.298v7.99H121.503zm278.94 27.991 44.537 255.41c-51.227 1.835-92.336 44.126-92.336 95.849 0 9.057 1.281 17.776 3.889 26.369H189.26c2.609-8.593 3.889-17.311 3.889-26.369 0-51.724-41.111-94.015-92.339-95.849l44.537-255.41h255.096zm-377.888 53.21 27.691-18.854 56.752 69.136-17.315 99.3zm78.013 307.175c-9.508-11.31-13.494-26.209-10.936-40.877l7.701-44.161h.008c41.8 0 75.808 34.054 75.808 75.911 0 9.211-1.617 17.707-5.052 26.369h-30.77c-14.148.001-27.546-6.284-36.759-17.242zm344.653 0c-9.212 10.958-22.61 17.242-36.758 17.242h-30.768c-3.435-8.663-5.052-17.159-5.052-26.369 0-41.857 34.007-75.911 75.807-75.911h.006l7.701 44.161c2.558 14.668-1.427 29.568-10.936 40.877zm46.78-176.69c0 13.991-11.365 25.373-25.334 25.373h-9.466L431 155.143h35.667c13.969 0 25.334 11.382 25.334 25.372z" />
      <path d="M180.636 320.178c-.808 14.486 4.556 28.772 14.925 39.153a51.304 51.304 0 0 0 39.116 14.947c9.665 10.813 23.55 17.119 38.218 17.119s28.553-6.306 38.218-17.119c14.472.799 28.747-4.565 39.116-14.947 10.37-10.381 15.733-24.667 14.925-39.153 10.804-9.674 17.102-23.57 17.102-38.249s-6.298-28.575-17.102-38.249c.808-14.486-4.555-28.772-14.925-39.153-10.371-10.382-24.641-15.746-39.116-14.947-9.665-10.813-23.551-17.119-38.218-17.119s-28.553 6.306-38.218 17.119c-14.468-.798-28.746 4.566-39.116 14.947s-15.733 24.667-14.925 39.153c-10.804 9.674-17.102 23.57-17.102 38.249s6.298 28.575 17.102 38.249zm16.287-63.932a10 10 0 0 0 4.116-9.942c-1.789-10.082 1.453-20.415 8.672-27.642a31.268 31.268 0 0 1 27.591-8.678 10.01 10.01 0 0 0 9.952-4.124c5.854-8.391 15.439-13.399 25.641-13.399s19.787 5.009 25.641 13.399a10.008 10.008 0 0 0 9.952 4.124 31.287 31.287 0 0 1 27.592 8.678c7.219 7.227 10.46 17.56 8.672 27.642a10 10 0 0 0 4.116 9.942c8.383 5.861 13.389 15.463 13.389 25.684s-5.005 19.822-13.389 25.684a10 10 0 0 0-4.116 9.942c1.789 10.082-1.453 20.415-8.672 27.642a31.277 31.277 0 0 1-27.591 8.678c-3.84-.68-7.722.928-9.952 4.124-5.854 8.391-15.439 13.399-25.641 13.399S253.109 366.39 247.255 358a10 10 0 0 0-9.952-4.124 31.285 31.285 0 0 1-27.592-8.678c-7.219-7.227-10.46-17.56-8.672-27.642a10 10 0 0 0-4.116-9.942c-8.383-5.861-13.389-15.463-13.389-25.684s5.005-19.823 13.389-25.684z" />
      <path d="M272.895 336.956c30.315 0 54.978-24.685 54.978-55.026s-24.663-55.026-54.978-55.026c-30.314 0-54.977 24.685-54.977 55.026s24.662 55.026 54.977 55.026zm0-90.053c19.287 0 34.978 15.713 34.978 35.026s-15.691 35.026-34.978 35.026-34.977-15.713-34.977-35.026 15.69-35.026 34.977-35.026z" />
    </svg>
    <svg xmlns="http://www.w3.org/2000/svg" width="512" viewBox="0 0 512 512" height="512" id="i">
      <path d="M467.882 155.396C467.882 69.71 397.928 0 311.943 0c-19.32 0-38.14 3.471-55.989 10.321C238.594 3.656 219.746 0 200.057 0 114.072 0 44.118 69.71 44.118 155.396c0 73.266 51.146 134.851 119.726 151.165-5.647 9.502-8.578 19.645-8.578 29.936 0 21.2 14.891 38.998 34.791 43.541V502c0 5.522 4.478 10 10 10s10-4.478 10-10V380.037c19.901-4.542 34.792-22.34 34.792-43.541 0-10.259-2.949-20.402-8.631-29.923a154.961 154.961 0 0 0 19.734-6.102 154.912 154.912 0 0 0 19.765 6.111c-5.639 9.495-8.565 19.632-8.565 29.915 0 21.2 14.891 38.998 34.792 43.541V502c0 5.522 4.478 10 10 10s10-4.478 10-10V380.037c19.9-4.542 34.791-22.34 34.791-43.541 0-10.26-2.949-20.402-8.631-29.923 68.606-16.294 119.778-77.893 119.778-151.177zm-403.764 0C64.118 80.738 125.1 20 200.057 20s135.939 60.738 135.939 135.396S275.014 290.79 200.057 290.79 64.118 230.053 64.118 155.396zm160.731 181.1c0 13.6-11.122 24.663-24.792 24.663s-24.791-11.063-24.791-24.663c0-9.086 3.512-17.937 10.446-26.359a157.872 157.872 0 0 0 28.614.007c6.985 8.465 10.523 17.315 10.523 26.352zm111.885 0c0 13.6-11.121 24.663-24.791 24.663s-24.792-11.063-24.792-24.663c0-9.084 3.51-17.932 10.441-26.352a159.036 159.036 0 0 0 28.619 0c6.986 8.464 10.523 17.314 10.523 26.352zm-24.791-45.706c-10.154 0-20.142-1.096-29.878-3.271 44.343-27.431 73.931-76.399 73.931-132.124S326.409 50.703 282.068 23.272A136.827 136.827 0 0 1 311.943 20c74.957 0 135.938 60.738 135.938 135.396S386.9 290.79 311.943 290.79z" />
      <path d="M200.057 75.189c5.522 0 10-4.478 10-10v-9.036c0-5.522-4.478-10-10-10s-10 4.478-10 10v9.036c0 5.523 4.477 10 10 10zM210.057 254.637v-9.035c0-5.522-4.478-10-10-10s-10 4.478-10 10v9.035c0 5.522 4.478 10 10 10s10-4.478 10-10zM290.263 165.396h9.036c5.522 0 10-4.478 10-10s-4.478-10-10-10h-9.036c-5.522 0-10 4.478-10 10s4.477 10 10 10zM109.852 145.396h-9.036c-5.522 0-10 4.478-10 10s4.478 10 10 10h9.036c5.522 0 10-4.478 10-10s-4.478-10-10-10zM263.842 101.61a9.97 9.97 0 0 0 7.071-2.929l6.39-6.39c3.905-3.905 3.905-10.237 0-14.143-3.906-3.904-10.236-3.904-14.143 0l-6.39 6.39c-3.905 3.905-3.905 10.237 0 14.143a9.97 9.97 0 0 0 7.072 2.929zM129.2 212.109l-6.389 6.389c-3.905 3.905-3.905 10.237 0 14.143 1.953 1.952 4.512 2.929 7.071 2.929s5.118-.977 7.071-2.929l6.389-6.389c3.905-3.905 3.905-10.237 0-14.143-3.905-3.904-10.236-3.904-14.142 0zM270.912 212.109c-3.904-3.906-10.237-3.905-14.142.001-3.905 3.905-3.904 10.237.001 14.142l6.39 6.389c1.952 1.953 4.511 2.929 7.07 2.929s5.119-.977 7.071-2.93c3.905-3.905 3.904-10.237-.001-14.142zM129.2 98.681c1.952 1.953 4.512 2.93 7.071 2.93s5.118-.977 7.07-2.929c3.905-3.904 3.906-10.236.001-14.142l-6.389-6.39c-3.903-3.904-10.236-3.905-14.142-.001s-3.906 10.236-.001 14.142zM263.681 155.396c0-35.082-28.542-63.624-63.624-63.624s-63.623 28.542-63.623 63.624 28.541 63.624 63.623 63.624 63.624-28.542 63.624-63.624zm-107.247 0c0-24.055 19.569-43.624 43.623-43.624 24.055 0 43.624 19.569 43.624 43.624s-19.569 43.624-43.624 43.624c-24.054 0-43.623-19.57-43.623-43.624z" />
    </svg>
    <svg xmlns="http://www.w3.org/2000/svg" width="512" viewBox="0 0 512 512" height="512" id="j">
      <path d="M171.043 177.535c-21.933 0-39.775 17.843-39.775 39.775s17.843 39.775 39.775 39.775 39.775-17.843 39.775-39.775-17.842-39.775-39.775-39.775zm0 59.55c-10.904 0-19.775-8.871-19.775-19.775s8.871-19.775 19.775-19.775 19.775 8.871 19.775 19.775-8.871 19.775-19.775 19.775z" />
      <path d="M431.524 72.373C384.676 25.735 322.385.033 256.125 0h-.127C190.42 0 128.658 25.009 82.089 70.426 35.466 115.894 9.102 176.903 7.852 242.215a253.958 253.958 0 0 0-.046 5.231C7.864 281.994 36.232 310.1 71.04 310.1h141.504l-34.858 146.525c-.01.04-.019.079-.027.119l-.116.521c-2.896 13.282.365 27.01 8.947 37.665 8.738 10.848 21.751 17.07 35.702 17.07h67.617c13.951 0 26.964-6.222 35.702-17.07 8.582-10.655 11.843-24.383 8.946-37.67l-.115-.515-.028-.122L299.4 310.1h141.563c34.787 0 63.152-28.043 63.231-62.536v-.547c.001-65.969-25.808-127.992-72.67-174.644zM328.802 31.848c25.32 8.503 48.666 21.315 69.151 37.553-5.85 14.422-19.985 23.779-36.713 23.779-21.819 0-39.57-17.751-39.57-39.57 0-8.043 2.34-15.206 7.132-21.762zm-169.339 8.955c7.142 9.272 11.018 21.212 11.018 34.246 0 30.355-24.695 55.05-55.051 55.05-16.496 0-31.482-7.399-41.876-20.487 22.332-29.472 51.774-53.193 85.909-68.809zm155.454 420.723c1.6 7.338-.216 14.941-4.981 20.858-4.923 6.111-12.259 9.616-20.127 9.616h-67.617c-7.868 0-15.204-3.505-20.127-9.616-4.766-5.917-6.581-13.52-4.982-20.852l.076-.345L233.103 310.1h45.737l36.002 151.087zM288.464 290.1a68.443 68.443 0 0 1-.403-7.43c0-37.391 30.415-67.81 67.8-67.81 37.391 0 67.81 30.419 67.81 67.81 0 2.485-.135 4.968-.403 7.43zm195.731-42.559c-.052 22.673-18.156 41.26-40.831 42.493a88.66 88.66 0 0 0 .307-7.364c0-48.418-39.392-87.81-87.81-87.81-48.413 0-87.8 39.392-87.8 87.81 0 2.482.104 4.962.312 7.43H71.04c-23.8 0-43.194-19.15-43.234-42.689-.003-1.6.011-3.204.042-4.813.818-42.774 13.119-82.367 33.987-115.938 13.935 15.036 32.874 23.44 53.595 23.44 41.383 0 75.051-33.667 75.051-75.05 0-15.498-4.184-29.968-11.971-41.937C202.648 24.612 228.724 20 255.996 20h.119c18.108.009 35.73 2.128 52.631 6.123-4.703 8.403-7.076 17.602-7.076 27.487 0 32.847 26.723 59.57 59.57 59.57 22.32 0 42.152-11.897 52.324-30.216 43.496 41.365 70.63 99.622 70.63 164.053v.524z" />
    </svg>
    <svg xmlns="http://www.w3.org/2000/svg" width="512" viewBox="0 0 512 512" height="512" id="k">
      <path d="M369.47 87.226h-83.839l9.266-37.572c2.969-12.036.287-24.537-7.358-34.296C279.893 5.598 268.397 0 256 0s-23.893 5.598-31.538 15.357c-7.646 9.76-10.328 22.261-7.359 34.297l9.266 37.572H142.53c-36.447 0-66.1 29.547-66.1 65.865v64.527c0 5.523 4.477 10 10 10h22.266v150.929c0 56.314 45.988 102.128 102.516 102.128 15.807 0 30.026 9.938 35.385 24.73a10 10 0 0 0 18.804 0c5.357-14.792 19.578-24.73 35.385-24.73 56.527 0 102.517-45.814 102.517-102.128V227.618h22.266c5.522 0 10-4.477 10-10v-64.527c0-36.318-29.652-65.865-66.099-65.865zm2.336 20.058-45.209 37.86-44.086-37.919h86.958c.784.001 1.563.021 2.337.059zM256 204.267l-55.057-46.108L256 110.803l55.057 47.355zm70.425-32.891 42.136 36.242h-85.412zm-97.573 36.242h-85.413l42.136-36.242zm7.669-162.753a19.944 19.944 0 0 1 3.685-17.175C244.035 22.803 249.792 20 256 20s11.965 2.803 15.794 7.691a19.942 19.942 0 0 1 3.685 17.174l-10.446 42.361h-18.064zm-7.033 62.361-44.086 37.918-45.209-37.86a46.424 46.424 0 0 1 2.336-.058zM96.431 153.091c0-16.181 8.466-30.431 21.221-38.598l52.383 43.869-57.267 49.256H96.431zm286.872 74.527v85.893H128.697v-85.893zm-82.516 233.058c-17.663 0-34.037 8.12-44.787 21.328-10.751-13.208-27.125-21.328-44.788-21.328-45.5 0-82.516-36.843-82.516-82.128v-45.037h254.607v45.037c.001 45.285-37.016 82.128-82.516 82.128zm114.782-253.058h-16.338l-57.266-49.256 52.384-43.869c12.755 8.167 21.221 22.417 21.221 38.597v54.528z" />
    </svg>
    <svg xmlns="http://www.w3.org/2000/svg" width="512" viewBox="0 0 512 512" height="512" id="l">
      <path d="M408.93 73.897C370.436 36.16 320.005 14.395 266 12.001V10c0-5.523-4.478-10-10-10s-10 4.477-10 10v2.001c-54.005 2.395-104.436 24.159-142.93 61.896-40.912 40.11-63.444 93.454-63.444 150.206 0 4.911.173 9.874.515 14.749a10 10 0 0 0 9.976 9.301H246v71.4h-14.532c-5.522 0-10 4.477-10 10s4.478 10 10 10H246v30.935h-13.631c-5.522 0-10 4.477-10 10v55.469c0 5.46-4.577 9.903-10.202 9.903-5.626 0-10.203-4.443-10.203-9.903v-2.295c0-18.235-15.087-33.07-33.631-33.07s-33.631 14.835-33.631 33.07v2.295c0 41.93 34.751 76.043 77.465 76.043s77.464-34.113 77.464-76.043v-55.469c0-5.523-4.478-10-10-10H266V248.153h195.884a10 10 0 0 0 9.976-9.301c.342-4.875.515-9.838.515-14.749-.001-56.752-22.533-110.096-63.445-150.206zm-139.299 362.06c0 30.902-25.778 56.043-57.464 56.043-31.687 0-57.465-25.141-57.465-56.043v-2.295c0-7.207 6.115-13.07 13.631-13.07s13.631 5.863 13.631 13.07v2.295c0 16.489 13.549 29.903 30.203 29.903 16.653 0 30.202-13.415 30.202-29.903v-45.469h27.262zM59.626 224.103c0-84.437 55.848-156.339 133.267-182.138-8.911 9.377-17.16 20.839-24.553 34.244-21.878 39.668-33.927 92.191-33.927 147.895 0 1.346.008 2.697.022 4.05H59.669a195.848 195.848 0 0 1-.043-4.051zm94.81 4.05a365.445 365.445 0 0 1-.022-4.05c0-52.382 11.165-101.476 31.439-138.235 16.755-30.379 37.815-48.87 60.147-53.136v195.422h-91.564zm111.564 0V32.731c22.333 4.266 43.393 22.757 60.147 53.136 20.274 36.76 31.439 85.853 31.439 138.235 0 1.346-.008 2.697-.022 4.05H266zm186.331 0h-74.766c.014-1.353.022-2.704.022-4.05 0-55.703-12.049-108.227-33.927-147.895-7.393-13.405-15.642-24.866-24.553-34.244 77.419 25.799 133.267 97.701 133.267 182.138a195.7 195.7 0 0 1-.043 4.051z" />
    </svg>
    <svg xmlns="http://www.w3.org/2000/svg" width="512" viewBox="0 0 512.002 512.002" height="512" id="m">
      <path d="M392.171 153.137h-63.855c11.881-15.673 18.584-35.019 18.584-55.012 0-29.31-13.944-55.424-35.547-72.057l6.534-10.938c2.832-4.741 1.285-10.881-3.457-13.713-4.74-2.832-10.881-1.284-13.713 3.457l-6.453 10.803c-11.636-5.421-24.602-8.451-38.262-8.451-13.826 0-26.94 3.103-38.684 8.648l-6.571-11.001c-2.832-4.741-8.971-6.29-13.713-3.457-4.742 2.832-6.289 8.972-3.457 13.713l6.704 11.224c-21.393 16.646-35.178 42.629-35.178 71.771 0 19.996 6.701 39.34 18.582 55.012h-63.853c-49.805 0-90.324 40.52-90.324 90.324 0 36.459 20.755 68.175 54.165 82.771 19.992 8.733 41.403 9.976 61.108 4.259.464 74.646 41.115 143.616 106.326 180.231a10.002 10.002 0 0 0 9.792 0c65.21-36.615 105.861-105.584 106.326-180.23a87.998 87.998 0 0 0 24.539 3.486c12.251 0 24.664-2.545 36.569-7.746 33.41-14.596 54.165-46.312 54.165-82.771-.003-49.804-40.523-90.323-90.327-90.323zM185.102 98.125c0-39.094 31.805-70.898 70.899-70.898S326.9 59.031 326.9 98.125c0 21.601-9.496 41.478-26.167 55.012h-89.466c-16.67-13.534-26.165-33.407-26.165-55.012zm147.607 303.433H179.292a188.012 188.012 0 0 1-11.027-36.346h175.471a187.942 187.942 0 0 1-11.027 36.346zm-76.708 88.877c-28.305-17.032-51.172-40.94-66.932-68.877h133.864c-15.76 27.937-38.627 51.846-66.932 68.877zm91.226-161.237c0 5.374-.231 10.716-.685 16.015H165.459a187.588 187.588 0 0 1-.685-16.015c0-2.448.048-4.913.142-7.368a93.08 93.08 0 0 0 16.288-12.098c.16-.147.314-.301.464-.459l.384-.405h147.896l.384.405c.15.158.305.312.464.459a93.043 93.043 0 0 0 16.288 12.1c.095 2.454.143 4.917.143 7.366zm-146.225-40.331 54.999-58.049L311 288.867zm219.322 19.037c-25.917 11.321-54.895 6.478-75.704-12.633L263.26 209.4a10.002 10.002 0 0 0-14.518 0l-81.359 85.871c-20.811 19.109-49.79 23.952-75.704 12.633-26.012-11.364-42.171-36.058-42.171-64.443 0-38.777 31.547-70.324 70.324-70.324h272.34c38.777 0 70.324 31.547 70.324 70.324-.001 28.385-16.16 53.079-42.172 64.443z" />
    </svg>
    <svg xmlns="http://www.w3.org/2000/svg" width="512" viewBox="0 0 512 512" height="512" id="n">
      <path d="M492.597 81.295a70.63 70.63 0 0 0 .898-11.247C493.495 31.424 462.147 0 423.614 0c-22.145 0-42.446 10.199-55.618 27.615a54.41 54.41 0 0 0-8.578-.679c-27.589 0-50.431 20.759-53.793 47.511-12.525 6.083-20.775 18.884-20.775 33.292 0 20.403 16.565 37.002 36.927 37.002h144.984c20.361 0 36.927-16.599 36.927-37.002 0-10.074-4.052-19.55-11.091-26.444zm-25.836 43.446H321.776c-9.333 0-16.927-7.627-16.927-17.002 0-7.815 5.26-14.597 12.791-16.493a10 10 0 0 0 7.558-9.806v-.16c0-18.333 14.386-33.356 32.424-34.297a70.262 70.262 0 0 0-3.889 23.064c0 5.522 4.478 10 10 10s10-4.478 10-10a50.135 50.135 0 0 1 7.234-25.977C390.111 28.999 406.054 20 423.614 20c27.505 0 49.881 22.451 49.881 50.048 0 4.283-.538 8.533-1.601 12.632a10.003 10.003 0 0 0 4.161 10.847 17.004 17.004 0 0 1 7.632 14.213c.001 9.374-7.593 17.001-16.926 17.001zM304.38 301.238h26.107a10 10 0 0 0 8.115-15.842L259.256 175.18h16.519a9.999 9.999 0 0 0 8.311-15.56L203.811 39.628a10 10 0 0 0-16.624 0l-80.275 119.991a9.998 9.998 0 0 0 8.311 15.56h16.519L52.397 285.396a9.999 9.999 0 0 0 8.115 15.842H86.62L10.044 413.824a10 10 0 0 0 8.269 15.624h141.885V492H69.389c-5.522 0-10 4.478-10 10s4.478 10 10 10H321.61c5.522 0 10-4.478 10-10s-4.478-10-10-10h-90.809v-62.552h141.885a10.002 10.002 0 0 0 8.269-15.624zM195.499 63.173l61.555 92.007H133.945zM156.387 175.18h78.226l76.354 106.059H80.033zM210.802 492h-30.604v-62.552h30.604zM37.208 409.448l73.599-108.21h169.385l73.599 108.21z" />
    </svg>
    <svg xmlns="http://www.w3.org/2000/svg" width="512" viewBox="0 0 512.067 512.067" height="512" id="o">
      <path d="M415.077 276.716a42.732 42.732 0 0 0 6.465-22.663c0-23.53-18.955-42.673-42.255-42.673h-9.72a42.214 42.214 0 0 0 6.441-22.463v-.42c0-23.414-19.049-42.463-42.464-42.463h-95.781v-35.999h103.993c5.522 0 10-4.477 10-10s-4.478-10-10-10H113.77c-5.523 0-10 4.477-10 10s4.477 10 10 10h103.993v35.999h-95.782c-23.414 0-42.463 19.049-42.463 42.463v.42a42.211 42.211 0 0 0 6.441 22.463h-9.721c-23.299 0-42.255 19.143-42.255 42.673a42.73 42.73 0 0 0 6.465 22.663C17.984 277.675 0 296.431 0 319.35c0 22.929 18 41.692 40.479 42.635a42.725 42.725 0 0 0-6.495 22.711c0 23.53 18.956 42.673 42.255 42.673h3.849a42.293 42.293 0 0 0-6.446 22.496v.355c0 23.432 19.035 42.495 42.431 42.495h223.38c23.396 0 42.431-19.063 42.431-42.495v-.355a42.293 42.293 0 0 0-6.446-22.496h3.849c23.3 0 42.255-19.143 42.255-42.673 0-8.341-2.382-16.13-6.495-22.711 22.479-.944 40.479-19.706 40.479-42.635-.001-22.919-17.984-41.675-40.449-42.634zM99.518 188.917v-.42c0-12.386 10.077-22.463 22.463-22.463h211.563c12.387 0 22.464 10.077 22.464 22.463v.42c0 12.386-10.077 22.463-22.464 22.463H121.981c-12.386 0-22.463-10.077-22.463-22.463zm-23.28 42.463h303.049c12.271 0 22.255 10.171 22.255 22.673 0 11.998-9.195 21.849-20.782 22.624h-42.613c-.336 0-.669.017-.996.049H113.098a10.25 10.25 0 0 0-.996-.049H74.766c-11.588-.775-20.782-10.626-20.782-22.624-.001-12.502 9.983-22.673 22.254-22.673zm238.02 153.316c0 48.384-38.802 87.747-86.495 87.747s-86.495-39.363-86.495-87.747 38.801-87.747 86.495-87.747 86.495 39.363 86.495 87.747zM20 319.35c0-12.502 9.983-22.673 22.254-22.673h31.953c.673.032 1.35.049 2.031.049h90.096a108.163 108.163 0 0 0-36.356 45.297H42.254C29.983 342.023 20 331.852 20 319.35zm33.983 65.346c0-12.502 9.983-22.673 22.255-22.673h47.402c-1.554 7.312-2.373 14.898-2.373 22.673s.819 15.361 2.373 22.673H76.238c-12.271 0-22.255-10.171-22.255-22.673zm39.659 65.524v-.355c0-12.404 10.062-22.496 22.431-22.496h13.905a108.157 108.157 0 0 0 36.425 45.346h-50.33c-12.369 0-22.431-10.091-22.431-22.495zm268.242-.356v.355c0 12.404-10.062 22.495-22.431 22.495h-50.33a108.163 108.163 0 0 0 36.425-45.346h13.905c12.368.001 22.431 10.092 22.431 22.496zm17.403-42.495h-47.402c1.554-7.312 2.373-14.898 2.373-22.673s-.819-15.361-2.373-22.673h47.402c12.271 0 22.255 10.171 22.255 22.673s-9.983 22.673-22.255 22.673zm33.984-65.346h-87.722a108.163 108.163 0 0 0-36.356-45.297h90.095c.681 0 1.358-.017 2.031-.049h31.952c12.271 0 22.255 10.171 22.255 22.673s-9.984 22.673-22.255 22.673zM499.209 81.106c-5.255-5.265-12.096-8.919-20.446-10.943l11.781-11.804c3.901-3.909 3.896-10.241-.014-14.142s-10.241-3.896-14.143.014l-14.145 14.173a38.832 38.832 0 0 0-9.928-16.958c-7.019-7.033-16.243-11.055-26.112-11.419v-.675c0-5.523-4.478-10-10-10s-10 4.477-10 10v5.318a39.14 39.14 0 0 0-9.053 6.776 38.905 38.905 0 0 0-6.741 9.063h-5.302c-5.522 0-10 4.477-10 10s4.478 10 10 10h.675c.35 9.508 4.14 18.912 11.368 26.155 4.787 4.797 10.601 8.193 16.945 9.983l-14.167 14.195c-3.901 3.909-3.896 10.241.014 14.142a9.97 9.97 0 0 0 7.064 2.922 9.97 9.97 0 0 0 7.078-2.936l11.736-11.759c2.021 8.347 5.665 15.185 10.911 20.441 10.149 10.17 24.946 12.892 37.883 12.892 13.318 0 24.664-2.886 26.929-3.501a9.999 9.999 0 0 0 7.033-7.04c1.209-4.47 11.219-44.272-9.366-64.897zm-74.478 7.004c-5.07 0-9.839-1.98-13.426-5.574-7.419-7.434-7.419-19.528 0-26.962A18.849 18.849 0 0 1 424.731 50c5.071 0 9.84 1.98 13.427 5.574 7.412 7.427 7.419 19.507.02 26.942l-.04.04a18.848 18.848 0 0 1-13.407 5.554zm65.781 46.877c-11.29 1.986-30.906 3.273-39.625-5.463-5.766-5.778-7.037-16.034-6.944-24.473l8.351-8.367.021-.02.019-.02 8.343-8.359c8.38-.092 18.615 1.174 24.376 6.948 8.734 8.752 7.442 28.443 5.459 39.754z" />
    </svg>
  </defs>
  <g transform="rotate(-12.999 923.502 -387.53) scale(.24414)" data-name="044-snail.svg">
    <path fill="transparent" d="M0 0h512v512H0z" />
    <use xlink:href="#a" />
  </g>
  <g transform="rotate(7.999 -2188.34 1341.476) scale(.24414)" data-name="003-ladybug.svg">
    <path fill="transparent" d="M0 0h512v512H0z" />
    <use xlink:href="#b" />
  </g>
  <g data-name="027-paper boat.svg">
    <g transform="rotate(-3.998 5601.76 -5634.681) scale(.24414)">
      <path fill="transparent" d="M0 0h512v512H0z" />
      <use xlink:href="#c" />
    </g>
    <g transform="rotate(-3.998 5346.03 1696.2) scale(.24414)">
      <path fill="transparent" d="M0 0h512v512H0z" />
      <use xlink:href="#c" />
    </g>
  </g>
  <g data-name="048-barbecue.svg">
    <g transform="rotate(-1.996 7918.746 -11306.134) scale(.24414)">
      <path fill="transparent" d="M0 0h512v512H0z" />
      <use xlink:href="#d" />
    </g>
    <g transform="rotate(-1.996 7663.822 3360.096) scale(.24414)">
      <path fill="transparent" d="M0 0h512v512H0z" />
      <use xlink:href="#d" />
    </g>
  </g>
  <g data-name="017-bird house.svg">
    <g transform="rotate(5.999 -1007.308 4844.318) scale(.24414)">
      <path fill="transparent" d="M0 0h512v512H0z" />
      <use xlink:href="#e" />
    </g>
    <g transform="rotate(5.999 -1263.188 -40.453) scale(.24414)">
      <path fill="transparent" d="M0 0h512v512H0z" />
      <use xlink:href="#e" />
    </g>
  </g>
  <g data-name="033-flowers.svg">
    <g transform="rotate(2.997 -9117.603 9011.502) scale(.24414)">
      <path fill="transparent" d="M0 0h512v512H0z" />
      <use xlink:href="#f" />
    </g>
    <g transform="rotate(2.997 658.643 8755.98) scale(.24414)">
      <path fill="transparent" d="M0 0h512v512H0z" />
      <use xlink:href="#f" />
    </g>
    <g transform="rotate(2.997 -9373.125 -764.743) scale(.24414)">
      <path fill="transparent" d="M0 0h512v512H0z" />
      <use xlink:href="#f" />
    </g>
    <g transform="rotate(2.997 403.12 -1020.265) scale(.24414)">
      <path fill="transparent" d="M0 0h512v512H0z" />
      <use xlink:href="#f" />
    </g>
  </g>
  <g transform="rotate(-4.998 686.15 -1120.44) scale(.24414)" data-name="014-boots.svg">
    <path fill="transparent" d="M0 0h512v512H0z" />
    <use xlink:href="#g" />
  </g>
  <g transform="rotate(12.999 -279.062 1191.678) scale(.24414)" data-name="032-watering can.svg">
    <path fill="transparent" d="M0 0h512v512H0z" />
    <use xlink:href="#h" />
  </g>
  <g data-name="029-balloons.svg">
    <g transform="rotate(4.998 -4807.9 865.343) scale(.24414)">
      <path fill="transparent" d="M0 0h512v512H0z" />
      <use xlink:href="#i" />
    </g>
    <g transform="rotate(4.998 1055.464 609.515) scale(.24414)">
      <path fill="transparent" d="M0 0h512v512H0z" />
      <use xlink:href="#i" />
    </g>
  </g>
  <g transform="rotate(-45 509.346 -138.852) scale(.24414)" data-name="009-mushroom.svg">
    <path fill="transparent" d="M0 0h512v512H0z" />
    <use xlink:href="#j" />
  </g>
  <g data-name="008-acorn.svg">
    <g transform="rotate(-26 1168.868 -89.69) scale(.24414)">
      <path fill="transparent" d="M0 0h512v512H0z" />
      <use xlink:href="#k" />
    </g>
    <g transform="rotate(-26 60.01 -345.684) scale(.24414)">
      <path fill="transparent" d="M0 0h512v512H0z" />
      <use xlink:href="#k" />
    </g>
  </g>
  <g data-name="020-umbrella.svg">
    <g transform="rotate(13.999 -1384.592 1386.744) scale(.24414)">
      <path fill="transparent" d="M0 0h512v512H0z" />
      <use xlink:href="#l" />
    </g>
    <g transform="rotate(13.999 700.36 1130.766) scale(.24414)">
      <path fill="transparent" d="M0 0h512v512H0z" />
      <use xlink:href="#l" />
    </g>
  </g>
  <g data-name="046-bee.svg">
    <g transform="rotate(-12.999 2485.453 -1094.321) scale(.24414)">
      <path fill="transparent" d="M0 0h512v512H0z" />
      <use xlink:href="#m" />
    </g>
    <g transform="rotate(-12.999 238.57 -1350.296) scale(.24414)">
      <path fill="transparent" d="M0 0h512v512H0z" />
      <use xlink:href="#m" />
    </g>
  </g>
  <g data-name="030-tree.svg">
    <g transform="rotate(-12.999 787.56 -1585.39) scale(.24414)">
      <path fill="transparent" d="M0 0h512v512H0z" />
      <use xlink:href="#n" />
    </g>
    <g transform="rotate(-12.999 531.586 661.493) scale(.24414)">
      <path fill="transparent" d="M0 0h512v512H0z" />
      <use xlink:href="#n" />
    </g>
  </g>
  <g data-name="013-beehive.svg">
    <g transform="rotate(-24 984.3 -1035.492) scale(.24414)">
      <path fill="transparent" d="M0 0h512v512H0z" />
      <use xlink:href="#o" />
    </g>
    <g transform="rotate(-24 728.308 168.893) scale(.24414)">
      <path fill="transparent" d="M0 0h512v512H0z" />
      <use xlink:href="#o" />
    </g>
  </g>
</svg>
