<svg xmlns="http://www.w3.org/2000/svg" xmlns:xlink="http://www.w3.org/1999/xlink" width="512" height="512" viewBox="0 0 512 512">
  <defs>
    <svg xmlns="http://www.w3.org/2000/svg" width="512" viewBox="0 0 512.035 512.035" height="512" id="a">
      <path d="M256.016 362.674c-5.523 0-10 4.478-10 10v40c0 5.522 4.477 10 10 10s10-4.478 10-10v-40c0-5.523-4.477-10-10-10zM347.512 345.478c-2.762-4.783-8.878-6.423-13.66-3.66-4.783 2.761-6.422 8.877-3.66 13.66l20 34.642c7.046 11.254 23.54 1.657 17.32-10l-20-34.642zM178.18 341.817c-4.782-2.76-10.898-1.122-13.66 3.66l-20 34.642c-2.762 4.783-1.123 10.898 3.66 13.66 4.698 2.737 10.883 1.167 13.66-3.66l20-34.642c2.762-4.783 1.123-10.898-3.66-13.66z" />
      <path d="M476.016 63.234c5.523 0 10-4.478 10-10V10c0-5.522-4.477-10-10-10H365.084c-12.165 0-23.311 7.051-28.542 18.006l-60.228 104.318c-16.191-.517-32.713-.416-48.555.327-7.002-42.7-44.162-75.385-88.814-75.385-76.279-.646-118.175 91.796-68.317 148.527-31.52 18.813-41.325 40.207-43.594 72.563-.026.21-.046.421-.059.632C12.706 400.756 124.523 514.317 256.017 512c131.471 2.323 243.333-111.265 229.039-243.013a10.217 10.217 0 0 0-.059-.627c-2.232-30.11-10.318-49.98-36.545-68.018-11.537-40.791-54.053-61.294-103.464-70.872l38.241-66.235h92.787zm-337.07 4.032c38.598 0 70 31.402 70 70-3.519 92.737-136.495 92.712-140-.001 0-38.597 31.402-69.999 70-69.999zm117.07 424.736c-120.119.201-213.75-92.941-209.896-208.719 16.228 3.176 31.207-2.672 39.985-9.127 6.078-3.917 10.47-6.748 19.629-6.748 9.16 0 13.551 2.831 19.629 6.749 18.016 13.289 43.074 13.182 60.93-.001 6.078-3.917 10.47-6.748 19.628-6.748 9.16 0 13.551 2.831 19.629 6.749 17.96 13.251 43.012 13.223 60.93-.001 6.078-3.917 10.47-6.748 19.629-6.748 9.16 0 13.551 2.831 19.629 6.749 17.872 13.203 42.959 13.268 60.93-.001 6.078-3.917 10.47-6.748 19.629-6.748s13.551 2.831 19.629 6.749c8.768 6.459 23.772 12.301 39.985 9.126 3.853 115.779-89.776 208.918-209.895 208.719zm208.276-228.82c-2.159.552-4.733.914-7.899.914-20.051-.011-23.085-16.83-50.094-16.688-15.047 0-23.596 5.51-30.465 9.939-6.078 3.918-10.47 6.749-19.629 6.749s-13.551-2.831-19.628-6.749c-17.936-13.263-43.096-13.196-60.931.001-6.078 3.917-10.47 6.748-19.629 6.748s-13.551-2.831-19.629-6.749c-17.866-13.221-43.037-13.239-60.93.001-6.078 3.917-10.47 6.748-19.629 6.748s-13.551-2.831-19.629-6.749c-6.869-4.429-15.418-9.939-30.465-9.939-27.047-.131-29.989 16.66-50.094 16.689-3.167 0-5.741-.362-7.9-.914.633-4.87 1.439-9.709 2.418-14.499 4.214-15.353 16.292-28.324 35.934-38.613 41.665 31.54 105.173 17.571 130.368-27.11 72.828-2.608 223.494-2.539 245.414 65.724a204.246 204.246 0 0 1 2.417 14.497zm-46.961-78.791c-54.522-20.809-129.444-23.858-192.002-21.834a89.534 89.534 0 0 0 3.459-19.932c57.943-1.748 148.324-.64 188.543 41.766zM368.796 48.234l-44.932 77.825c-8.32-1.095-16.734-1.934-25.137-2.556.434-.839 55.461-95.894 55.782-96.706A11.66 11.66 0 0 1 365.084 20h100.932v23.234h-88.559a10.004 10.004 0 0 0-8.661 5z" />
      <path d="M95.645 162.266c2.777 4.827 8.962 6.397 13.66 3.66l19.641-11.34v22.679c0 5.522 4.477 10 10 10s10-4.478 10-10v-22.679l19.641 11.34c4.698 2.737 10.883 1.167 13.66-3.66 2.762-4.783 1.123-10.898-3.66-13.66l-19.641-11.34 19.641-11.34c4.783-2.762 6.422-8.877 3.66-13.66s-8.878-6.424-13.66-3.66l-19.641 11.34v-22.68c0-5.522-4.477-10-10-10s-10 4.478-10 10v22.679l-19.641-11.34c-4.781-2.76-10.898-1.123-13.66 3.66s-1.123 10.898 3.66 13.66l19.641 11.34-19.641 11.34c-4.783 2.762-6.422 8.877-3.66 13.661z" />
    </svg>
    <svg xmlns="http://www.w3.org/2000/svg" width="512" viewBox="0 0 512.002 512.002" height="512" id="b">
      <path d="M338.214 178.747 371.93 74.241a10 10 0 0 0-14.281-11.862c-15.59 8.45-33.571 23.357-50.741 41.776l4.713-93.652a9.999 9.999 0 0 0-16.866-7.761C281.463 15.335 267.6 35.688 256.009 59.25c-11.971-24.38-25.898-44.319-38.763-56.508a10 10 0 0 0-16.866 7.762l4.713 93.652c-17.17-18.419-35.151-33.326-50.742-41.776a10 10 0 0 0-14.281 11.862l33.717 104.505c-69.539 52.113-57.044 116.107-57.786 193.256-.001 77.196 62.802 140 140 140 77.195 0 139.999-62.804 139.999-140-.734-77.104 11.731-141.203-57.786-193.256zm26.986 240.93-16.949 12.397-24.846-18.174a10.004 10.004 0 0 0-11.809 0l-24.846 18.174-24.845-18.174a10.004 10.004 0 0 0-11.809 0l-24.846 18.174-24.845-18.174a10.004 10.004 0 0 0-11.809 0l-24.846 18.174-16.947-12.397a9.977 9.977 0 0 0-1.262-.787c-6.536-15.201-9.888-32.368-9.54-49.811l21.846 15.979a10.001 10.001 0 0 0 11.809 0l24.846-18.174 24.846 18.174a10.001 10.001 0 0 0 11.809 0l24.846-18.174 24.846 18.174a10.001 10.001 0 0 0 11.809 0l24.846-18.174 24.846 18.174c1.759 1.286 3.831 1.929 5.904 1.929s4.146-.643 5.904-1.929l21.846-15.979c.347 17.446-3.004 34.61-9.541 49.812a9.812 9.812 0 0 0-1.263.786zM146.882 242.084l10.964 8.02a10.001 10.001 0 0 0 11.809 0l24.846-18.174 24.846 18.174a10.004 10.004 0 0 0 11.809 0l24.846-18.174 24.846 18.174a10.004 10.004 0 0 0 11.809 0l24.846-18.174 24.846 18.174a9.989 9.989 0 0 0 5.904 1.929 9.989 9.989 0 0 0 5.904-1.929l10.964-8.02a119.02 119.02 0 0 1 10.043 35.699c.055-.713-26.347 19.041-26.912 19.338l-24.846-18.174a10.004 10.004 0 0 0-11.809 0l-24.846 18.174-24.846-18.174a10.004 10.004 0 0 0-11.809 0l-24.846 18.174-24.846-18.174a10.004 10.004 0 0 0-11.809 0l-24.846 18.174c-.167-.003-27.744-20.619-26.912-19.338a119.043 119.043 0 0 1 10.045-35.699zm10.964 75.497a10.004 10.004 0 0 0 11.809 0l24.846-18.174 24.846 18.174a10.004 10.004 0 0 0 11.809 0l24.846-18.174 24.846 18.174a10.004 10.004 0 0 0 11.809 0l24.846-18.174 24.846 18.174c1.759 1.286 3.831 1.929 5.904 1.929s4.146-.643 5.904-1.929l21.846-15.979v43.352c-.291-1.014-26.742 19.101-27.75 19.643l-24.846-18.174a10.001 10.001 0 0 0-11.809 0l-24.846 18.174-24.846-18.174a10.001 10.001 0 0 0-11.809 0l-24.846 18.174-24.846-18.174a10.001 10.001 0 0 0-11.809 0l-24.846 18.174c-1.099-.598-27.351-20.593-27.75-19.643v-43.353zM343.753 96.443l-23.044 71.431a139.352 139.352 0 0 0-16.636-7.368l1.197-23.778c12.325-15.567 25.688-29.49 38.483-40.285zm-53.63-56.679-5.65 112.275c-3.103-23.748-9.491-47.013-17.692-68.18 6.83-16.331 14.923-31.534 23.342-44.095zm-25.801 112.483c-12.238-.738-24.914.194-36.65 2.635l-5.783-114.896c17.641 26.435 36.137 67.314 42.433 112.261zm-96.073-55.804c12.794 10.794 26.158 24.719 38.485 40.284l1.197 23.779a139.352 139.352 0 0 0-16.636 7.368zm87.752 75.559c41.182 0 77.586 20.852 99.206 52.553l-6.956 5.088-24.846-18.174a10.004 10.004 0 0 0-11.809 0l-24.846 18.174-24.846-18.174a10.004 10.004 0 0 0-11.809 0l-24.846 18.174-24.846-18.174a10.004 10.004 0 0 0-11.809 0l-24.846 18.174-6.956-5.088c21.624-31.7 58.027-52.553 99.209-52.553zm0 320c-34.729 0-66.06-14.83-87.993-38.49a10.04 10.04 0 0 0 1.647-.977l24.846-18.174 24.846 18.174a10.004 10.004 0 0 0 11.809 0l24.846-18.174 24.846 18.174c1.759 1.286 3.831 1.929 5.904 1.929s4.146-.643 5.904-1.929l24.846-18.174 24.846 18.174a10.04 10.04 0 0 0 1.647.977c-21.934 23.66-53.265 38.49-87.994 38.49z" />
    </svg>
    <svg xmlns="http://www.w3.org/2000/svg" width="512" viewBox="0 0 512.114 512.114" height="512" id="c">
      <path d="M474.118 37.996c-50.662-50.661-133.096-50.661-183.758 0L163.149 165.207c-40.193 40.194-48.498 100.387-24.914 148.845L15.215 426.234C5.736 434.878.348 446.911.043 460.118c-1.216 28.196 23.765 53.171 51.951 51.952 13.208-.304 25.243-5.691 33.887-15.17l112.181-123.021c49.285 23.835 108.931 14.901 148.845-24.914l60.139-60.139v33.85c1.758 46.365 68.246 46.358 70 0V218.732c47.713-50.867 46.737-131.069-2.928-180.736zM71.102 483.423c-4.927 5.403-11.877 8.476-19.569 8.652-17.111.728-32.235-14.369-31.495-31.496.176-7.691 3.25-14.64 8.653-19.567L148.608 331.66c8.456 12.128 19.717 23.388 31.845 31.845zm261.662-148.601C225.836 433.907 78.24 286.18 177.293 179.349l29.753-29.753v29.079c1.785 46.399 68.249 46.332 70 0v-17c.749-19.854 29.24-19.886 30 0v84.007c1.743 46.341 68.241 46.379 70 0v-24.007c.739-19.863 29.256-19.87 30 0v38.865zm124.282-12.146c-.755 19.839-29.224 19.904-30 0v-101c0-19.299-15.701-35-35-35s-35 15.701-35 35v24.007c-.749 19.859-29.244 19.88-30 0v-84.007c-1.735-46.328-68.239-46.39-70 0v17c-.74 19.872-29.26 19.861-30 0v-49.079l77.457-77.457c109.916-99.669 255.409 50.61 153.279 158.774l-.004.011a9.974 9.974 0 0 0-.731 3.759v107.992z" />
      <path d="M196.018 241.861c-5.525-.005-10.004 4.474-10.004 10 .491 13.247 19.515 13.25 20.004 0 0-5.523-4.477-10-10-10zM265.018 241.361c-5.525-.005-10.004 4.474-10.004 10 .491 13.247 19.515 13.25 20.004 0 0-5.523-4.477-10-10-10zM227.026 302.861c-5.525-.005-10.004 4.474-10.004 10 .491 13.247 19.515 13.25 20.004 0 0-5.523-4.478-10-10-10zM297.018 298.361c-5.525-.005-10.004 4.474-10.004 10 .491 13.247 19.515 13.25 20.004 0 0-5.523-4.477-10-10-10z" />
    </svg>
    <svg xmlns="http://www.w3.org/2000/svg" width="512" viewBox="0 0 511.629 511.629" height="512" id="d">
      <path d="M482.26 392.782c-4.361-22.933-27.372-39.525-51.11-35.59 7.604-5.592 17.135-8.265 26.88-7.215a10 10 0 0 0 7.343-17.729c-11.186-9.015-16.396-23.358-13.598-37.431 2.8-14.073 13.103-25.33 26.888-29.379 9.471-2.793 9.521-16.393-.001-19.189-29.538-8.296-37.366-47.874-13.287-66.809a10 10 0 0 0-7.345-17.729c-30.453 3.649-52.85-29.938-37.843-56.639a10.002 10.002 0 0 0-13.57-13.569c-26.713 15.029-60.295-7.437-56.639-37.845a10 10 0 0 0-17.729-7.343c-18.914 24.11-58.561 16.196-66.809-13.29a10.001 10.001 0 0 0-19.19.001c-4.048 13.785-15.305 24.087-29.378 26.887-14.071 2.798-28.415-2.411-37.431-13.598-6.109-7.65-18.807-2.58-17.729 7.343 1.535 14.28-4.918 28.101-16.84 36.074C101.099 49.62 28.24 77.664 22.119 136.208c-34.21 11.351-26.956 61.368 9.509 62.116h27.408c6.33 19.787-5.911 42.442-26.01 47.925a10 10 0 0 0 0 19.19c29.534 8.297 37.372 47.871 13.289 66.81-7.7 6.2-2.498 18.799 7.345 17.729 30.438-3.653 52.856 29.935 37.843 56.639a10.002 10.002 0 0 0 13.57 13.569c26.707-15.028 60.297 7.435 56.638 37.845-1.103 9.781 11.546 15.078 17.729 7.343 18.908-24.106 58.564-16.2 66.809 13.29 2.744 9.443 16.387 9.551 19.19 0 1.734-5.902 4.91-11.35 9.147-15.791a33.386 33.386 0 0 0 19.455 6.227h179.104c45.831-1.073 53.018-64.752 9.115-76.318zM180.006 72.755c24.059 14.862 59.298 7.854 75.838-15.085 16.542 22.94 51.778 29.948 75.839 15.085 6.503 27.523 36.378 47.485 64.293 42.958-4.523 27.918 15.435 57.789 42.958 64.293-14.861 24.061-7.854 59.296 15.085 75.837-22.94 16.542-29.946 51.778-15.085 75.839a58.178 58.178 0 0 0-28.158 17.063 79.584 79.584 0 0 0-17.967-10.156c78.461-131.105-54.106-287.322-196.281-231.388-6.683-7.55-16.011-12.706-26.518-14.003a58.166 58.166 0 0 0 9.996-20.443zm106.459 319.727C174.829 417.951 80.71 302.386 128.166 198.325h69.008c43.017-.992 50.068-60.569 9.068-71.916a43.36 43.36 0 0 0-.325-1.404C333.029 77.369 447.01 220.04 372.434 333.362c-39.558-4.969-76.844 21.835-85.969 59.12zM19.844 166.54c0-6.498 5.286-11.785 11.784-11.785 5.522 0 10-4.477 10-10 .167-52.265 67.562-73.68 97.886-31.191a10 10 0 0 0 13.442 2.691c14.42-9.354 34.542 1.783 34.218 19.015 0 5.523 4.478 10 10 10 21.849.806 21.931 32.215 0 33.055H31.627c-6.497 0-11.783-5.287-11.783-11.785zm236.025 287.513c-16.534-22.966-51.788-29.988-75.863-15.118-6.505-27.526-36.373-47.481-64.293-42.959 4.525-27.918-15.436-57.788-42.958-64.293 14.862-24.062 7.852-59.296-15.086-75.838 17.19-12.677 26.324-36.318 21.947-57.52h26.871c-42.971 106.608 45.968 227.073 160.67 217.123-6.531 8.359-8.582 21.151-4.743 31.339a58.866 58.866 0 0 0-6.545 7.266zm217.275-4.955H294.04c-17.927-.663-18.018-26.436 0-27.136 5.522 0 10-4.477 10-10 .182-57.338 74.121-80.835 107.388-34.22a10 10 0 0 0 13.444 2.69c16.256-10.433 38.532 1.909 38.273 21.266 0 5.523 4.477 10 10 10 24.723.914 24.812 36.45-.001 37.4z" />
    </svg>
    <svg xmlns="http://www.w3.org/2000/svg" width="512" viewBox="0 0 511.999 511.999" height="512" id="e">
      <path d="M502 255.681h-91V215.68c0-5.523-4.478-10-10-10h-8.263c-35.636-146.172-237.898-146.07-273.474 0H111c-5.522 0-10 4.477-10 10v40.001H10c-5.522 0-10 4.477-10 10C.881 394.54 146.154 444.037 256.007 400.385c110.972 43.88 255.169-6.589 255.992-134.705.001-5.522-4.477-9.999-9.999-9.999zm-245.999-140c54.431 0 102.586 38.008 116.167 90H139.833c13.58-51.991 61.741-90 116.168-90zM121 225.68h270v30.001H121zm25 50.001h30.001v35.858l-7.929-7.929c-3.905-3.904-10.235-3.905-14.143 0l-7.93 7.93v-35.859zm30 120c-102.212 0-150.872-58.734-155.614-120H126v60a10.002 10.002 0 0 0 17.071 7.072l17.93-17.929 17.929 17.929a10.001 10.001 0 0 0 17.071-7.072v-60h247.443c-92.379 38.002-166.785 119.858-267.444 120zm160.001-.001c-17.465 0-34.797-2.399-52.469-7.291 70.839-35.442 126.88-84.453 207.763-109.21-6.296 59.985-55.029 116.501-155.294 116.501z" />
    </svg>
    <svg xmlns="http://www.w3.org/2000/svg" width="512" viewBox="0 0 511.632 511.632" height="512" id="f">
      <path d="M475.816 94.63h-.208c-13.694-121.181-190.371-131.068-199.682 0-5.56-.062-10.114 4.437-10.11 10v100c0 5.523 4.478 10 10 10h4.877c-.663 27.864-4.819 79.731-4.877 105.001 0 55.14 44.859 99.999 100 99.999s100-44.859 100-99.999c.023-23.598-3.317-75.476-4.539-105.001h4.539c5.522 0 10-4.477 10-10v-100c0-5.523-4.477-10-10-10zm-190 100v-80h180v80zm85-175c43.549 0 81.17 33.843 84.735 75H295.947c2.263-43.098 33.69-75 74.869-75zm82.227 231.417c1.3 24.92 2.773 53.166 2.773 68.584-4.024 105.984-155.992 105.956-160-.001.129-25.838 4.261-77.024 4.882-105H451.26c.419 10.254 1.086 23.052 1.783 36.417zM235.815 186.631h-.11c-9.357-131.171-186.05-121.074-199.682 0-5.594-.114-10.215 4.401-10.208 10v100c0 5.523 4.477 10 10 10h4.539c-1.223 29.534-4.559 81.398-4.539 105.001 0 55.14 44.86 100 100 100s100-44.859 100-100c-.064-25.282-4.217-77.125-4.877-105.001h4.876c5.523 0 10-4.477 10-10v-100c.001-5.523-4.476-10-9.999-10zM45.816 286.632v-80.001h180v80.001zm95-175c41.18 0 72.606 31.902 74.869 75H56.081c3.566-41.159 41.186-75 84.735-75zm72.576 245.549c1.192 20.575 2.424 41.851 2.424 54.452-4.023 105.983-155.992 105.958-160-.001.031-24.122 3.368-75.777 4.556-105h150.562c.341 14.014 1.414 32.526 2.458 50.549z" />
      <path d="M176.23 236.632H95.401c-13.228.48-13.267 19.504 0 20h80.829c5.523 0 10-4.477 10-10s-4.477-10-10-10zM416.23 144.63h-80.829c-13.228.48-13.267 19.504 0 20h80.829c5.522 0 10-4.477 10-10s-4.477-10-10-10z" />
    </svg>
    <svg xmlns="http://www.w3.org/2000/svg" width="512" viewBox="0 0 512 512" height="512" id="g">
      <path d="M462 91.138H338c0-27.57-22.43-50-50-50h-64c-27.57 0-50 22.43-50 50H50c-27.57 0-50 22.43-50 50v240c-.084 30.2 26.358 52.631 56.019 50 11.815 52.983 86.169 52.947 97.963 0h204.037c11.815 52.984 86.169 52.946 97.963 0 29.666 2.613 56.098-19.778 56.018-50.001V141.138c0-27.57-22.429-50-50-50zm-70 320v-260h30v260zm40.001-289.999c0 5.514-4.486 9.999-10 9.999H392c-5.514 0-10-4.485-10-9.999v-10.001h50.001zM362 111.138v10.001c0 8.865 3.866 16.844 10 22.341v267.658H140.001V143.48c6.134-5.497 10-13.476 10-22.341v-10.001zm-231.999 10.001c0 5.514-4.486 9.999-10 9.999H90c-5.514 0-10-4.485-10-9.999v-10.001h50.001zm-10 29.999v260H90v-260zm103.999-90h64c16.542 0 30 13.458 30 30H194c0-16.542 13.458-30 30-30zm-204 320v-240c0-16.542 13.458-30 30-30h10v10.001c0 8.865 3.866 16.844 10 22.341v267.658H50c-16.542 0-30-13.458-30-30zm85.001 70c-12.942 0-24.109-8.381-28.267-20h56.534c-4.159 11.619-15.326 20-28.267 20zm301.999 0c-12.941 0-24.108-8.381-28.266-20h56.534c-4.159 11.619-15.326 20-28.268 20zm85-70c0 16.542-13.458 30-30 30h-20V143.481c6.135-5.497 10.001-13.476 10.001-22.342v-10.001H462c16.542 0 30 13.458 30 30z" />
    </svg>
    <svg xmlns="http://www.w3.org/2000/svg" width="512" viewBox="0 0 512.006 512.006" height="512" id="h">
      <path d="M492.366 288.022c6.259 3.68 14.896-1.254 14.816-8.555l4.821-231.65a10.001 10.001 0 0 0-7.714-9.944L344.013.266a9.999 9.999 0 0 0-11.857 6.846l-47.57 157.608a10 10 0 0 0 4.755 11.652l57.798 31.785c-71.41 133.8-203.495 247.686-339.722 284.188-5.335 1.429-8.501 6.913-7.071 12.248 1.197 4.468 5.237 7.414 9.653 7.414 149.296-37.963 282.149-159.694 354.548-294.277zM306.072 162.748l42.516-140.865 143.251 33.612-4.309 207.042-113.856-62.613c10.909-22.243 20.093-44.73 27.379-67.169l36.743 63.641a9.997 9.997 0 0 0 8.67 5.002c7.442.181 12.599-8.587 8.65-15.002l-43.375-75.127L449.2 89.643c4.783-2.761 6.422-8.877 3.66-13.66-2.761-4.783-8.878-6.421-13.66-3.66L401.742 93.95l-13.751-23.817c-2.761-4.783-8.877-6.421-13.66-3.66s-6.422 8.877-3.66 13.66l13.751 23.817-37.457 21.626c-8.848 5.177-5.083 18.657 5.01 18.662a9.954 9.954 0 0 0 4.99-1.342l24.345-14.055c-6.833 20.757-15.254 41.317-25.077 61.493z" />
      <path d="M34.99 280.359h189.886c22.291 0 40.427-18.136 40.427-40.427 0-19.147-13.379-35.228-31.28-39.384-4.708-27.787-36.405-45.904-63.108-35.104-47.507-54.509-138.328-25.148-145.476 46.268-38.505 11.675-31.123 67.763 9.551 68.647zm0-49.974c5.522 0 10-4.477 10-10 0-34.908 28.399-63.307 63.308-63.307 20.461 0 39.765 9.973 51.637 26.678a10 10 0 0 0 13.444 2.691 27.072 27.072 0 0 1 14.345-4.095c14.972 0 27.152 12.181 27.152 27.152 0 5.523 4.477 10 10 10 27.008.999 27.102 39.817 0 40.855H34.991c-19.803-.734-19.9-29.202-.001-29.974zM489.219 397.442c-6.982-63.915-88.153-90.157-131.155-41.734-24.117-9.254-52.303 6.926-56.934 31.714-41.813 11.397-34.788 72.169 9.083 73.196h169.49c17.812 0 32.303-14.491 32.303-32.303-.001-14.502-9.605-26.802-22.787-30.873zm-9.517 43.176h-169.49c-22.696-.848-22.762-33.444 0-34.318 5.522 0 10-4.477 10-10-.32-17.821 20.464-29.352 35.396-19.67a9.998 9.998 0 0 0 13.444-2.69c31.169-43.687 100.495-21.661 100.65 32.074 0 5.522 4.478 9.999 10 9.999 16.239.584 16.348 23.973 0 24.605z" />
    </svg>
    <svg xmlns="http://www.w3.org/2000/svg" width="512" viewBox="0 0 511.948 511.948" height="512" id="i">
      <path d="M509.917 373.061c-13.43-70.867-26.97-156.646-62.324-254.186V75.888c0-16.487-12.633-29.901-28.162-29.901H92.517c-15.528 0-28.162 13.414-28.162 29.901v42.987C29.007 216.523 15.46 302.098 2.031 373.061c-7.483 38.951 5.865 64.662 37.588 72.396 10.635 2.593 117.137 18.808 142.775 20.325 22.188 1.312 38.948-4.047 48.567-34.491 5.538-17.529 16.165-58.462 25.104-96.822 8.696 37.224 19.087 78.354 24.923 96.822 9.641 30.418 26.252 35.795 48.566 34.491 25.637-1.518 132.14-17.732 142.776-20.325 31.722-7.734 45.071-33.445 37.587-72.396zM84.355 75.888c0-5.367 3.738-9.901 8.162-9.901h326.915c4.424 0 8.162 4.534 8.162 9.901v34.779H315.975V98.326c0-5.522-4.477-10-10-10s-10 4.478-10 10v12.341h-80.001V98.326c0-5.522-4.477-10-10-10s-10 4.478-10 10v12.341H84.355zM21.671 376.834C34.774 307.71 47.78 225.253 81.34 130.667h34.032c-18.813 80.788-48.755 221.23-56.273 297.951-20.406-3.683-45.519-3.636-37.428-51.784zm190.219 48.432c-6.574 20.807-14.632 21.364-28.313 20.552-16.37-.97-68.923-8.532-104.689-14.067 7.318-76.693 38.309-221.179 57.022-301.084h60.064v57.66c0 5.522 4.477 10 10 10s10-4.478 10-10v-57.66h30v156.551c-8.758 43.309-26.537 114.159-34.084 138.048zm116.481 20.552c-13.683.811-21.739.255-28.313-20.552-7.498-23.731-24.605-93.062-34.084-138.086V130.667h30v57.66c0 5.522 4.477 10 10 10s10-4.478 10-10v-57.66h60.064c18.714 79.904 49.704 224.388 57.022 301.084-35.766 5.534-88.32 13.097-104.689 14.067zm139.221-19.792c-1.553.379-6.926 1.317-14.743 2.592-7.519-76.723-37.461-217.164-56.273-297.951h34.032c29.471 81.55 45.678 170.076 55.464 223.527 1.582 8.639 2.947 16.1 4.204 22.64 8.014 41.708-14.288 47.145-22.684 49.192z" />
    </svg>
    <svg xmlns="http://www.w3.org/2000/svg" width="512" viewBox="0 0 512.399 512.399" height="512" id="j">
      <path d="M512.399 194.322c-.754-52.68-38.787-84.509-81.612-86.828-12.823-38.718-61.955-72.303-102.002-61.036-32.38-61.533-112.411-61.515-144.776.001-40.085-11.252-89.141 22.286-101.993 61.012-19.452.349-39.659 8.851-54.993 23.305-72.812 77.881 12.064 197.166 129.088 324.048-6.492 40.607 38.558 71.392 74.113 50.559l.018-.011c15.363-9.075 36.958-9.074 52.33.011a49.534 49.534 0 0 0 24.743 6.615c29.311.653 54.415-27.492 49.37-57.175 110.572-119.128 155.714-194.689 155.714-260.501zm-20 0c0 58.994-41.803 128.892-143.804 239.787a49.464 49.464 0 0 0-13.677-13.467c75.927-122.617 111.409-225.665 100.973-292.736 30.388 4.961 55.939 27.687 56.508 66.416zM370.305 70.21c98.378 47.788 26.667 209.347-53.162 341.147a153.858 153.858 0 0 0-12.203-4.747c38.963-169.462 50.036-276.974 31.48-341.471 9.609-2.085 21.899-.333 33.885 5.071zM256.398 20.013c72.157 2.671 74.201 98.711 65.164 181.754-5.506 53.514-17.596 120.646-35.947 199.642a148.748 148.748 0 0 0-58.434 0c-18.351-78.995-30.44-146.127-35.948-199.642-8.939-83.297-7.195-178.827 65.165-181.754zM142.635 70.141c11.94-5.353 24.17-7.077 33.74-5-18.556 64.471-7.481 172.033 31.48 341.469a154.244 154.244 0 0 0-12.203 4.747C115.905 279.692 43.976 117.845 142.635 70.141zM40.742 145.33c10.138-9.555 23.378-15.829 36.166-17.449-10.449 67.07 25.031 170.128 100.969 292.763a49.475 49.475 0 0 0-13.676 13.467C60.157 320.689-19.09 209.467 40.742 145.33zm292.516 331.713c-7.69 14.059-26.988 19.272-40.704 11.009-10.776-6.221-23.271-9.509-36.133-9.509a.28.28 0 0 0-.041 0c-12.859 0-25.35 3.285-36.121 9.499-14.26 8.196-32.528 3.26-40.723-10.999-8.272-13.742-3.068-33.021 11.009-40.726 20.227-11.651 42.998-17.81 65.852-17.81s45.626 6.158 65.861 17.815c14.063 7.699 19.28 26.987 11 40.721z" />
    </svg>
    <svg xmlns="http://www.w3.org/2000/svg" width="512" viewBox="0 0 511.908 511.908" height="512" id="k">
      <path d="M369.038 140.287c-5.351-83.149-87.956-74.63-103.513-132.547-1.208-5.206-6.295-8.536-11.547-7.575-60.262 12.008-83.479 41.217-86.086 78.297-26.977 9.195-38.059 42.821-31.694 67.408-14.89 10.005-22.905 25.123-21.812 41.847l-.003 68.772c-.338 24.215 27.009 40.182 47.854 28.131.187.523 69.014 210.348 69.213 210.818 8.44 21.996 40.166 21.922 48.605.006.353-.426 86.971-265.142 87.267-265.633 38.239-15.442 41.894-72.754 1.716-89.524zM193.15 58.407c8.748-17.48 27.915-30.082 55.697-36.729 19.463 54.552 92.321 52.784 99.706 114.318-84.791-10.545-150.908-32.136-160.618-52.74-.249-3.106-.517-13.395 5.215-24.849zm-46.567 210.281c-6.727 0-12.199-5.473-12.199-12.199l.003-69.118c-.856-9.55 3.169-17.937 11.766-24.093 36.284 36.058 89.447 50.427 133.353 61.183-32.467 1.787-61.145-.569-83.022-3.751-7.659-1.113-18.831-1.741-27.373 5.648-6.95 6.012-10.328 15.868-10.328 30.131-.001 6.727-5.474 12.199-12.2 12.199zm114.765 219.671c-2.201 4.941-9.155 4.848-11.185.005l-72.9-222.094a32.083 32.083 0 0 0 1.519-9.781c0-10.878 2.387-14.117 3.413-15.005 1.711-1.479 5.656-1.819 11.409-.982 36.407 5.295 90.811 8.401 150.668-4.608zm116.411-304.393c-.173 10.801-6.595 24.083-20.273 28.126-46.299 6.633-175.022-28.141-200.53-67.189-5.682-11.844-2.186-39.764 16.499-47.096 32.214 38.675 123.735 51.349 183.771 59.347 18.8 6.091 20.63 20.734 20.533 26.812z" />
      <path d="M292.629 284.725c-1.429-5.334-6.915-8.503-12.247-7.071l-51.375 13.766c-5.335 1.429-8.501 6.913-7.071 12.248 1.41 5.378 7.056 8.506 12.247 7.071l51.375-13.766c5.334-1.43 8.5-6.914 7.071-12.248zM266.507 333.625l-18.713 5.014c-12.713 3.902-7.663 22.32 5.176 19.318l18.713-5.014c12.664-3.863 7.728-22.302-5.176-19.318z" />
    </svg>
    <svg xmlns="http://www.w3.org/2000/svg" width="512" viewBox="0 0 512.002 512.002" height="512" id="l">
      <path d="M456.059 384.554V40c0-22.056-17.944-40-40-40s-40 17.944-40 40v344.554c-55.702 39.047-28.232 127.21 40.001 127.447 68.234-.239 95.7-88.412 39.999-127.447zM416.059 20c11.028 0 20 8.972 20 20v9.999h-7.5c-5.523 0-10 4.477-10 10s4.477 10 10 10h7.5V100h-40V40c0-11.028 8.972-20 20-20zm0 472.002c-27.57 0-50-22.43-50-50 0-17.794 9.583-34.391 25.007-43.315a10 10 0 0 0 4.993-8.656V120h40v29.999h-7.5c-5.523 0-10 4.477-10 10s4.477 10 10 10h7.5v30h-7.5c-5.523 0-10 4.477-10 10s4.477 10 10 10h7.5v30h-7.5c-5.523 0-10 4.477-10 10s4.477 10 10 10h7.5v30h-7.5c-5.523 0-10 4.477-10 10s4.477 10 10 10h7.5v30h-7.5c-5.523 0-10 4.477-10 10s4.477 10 10 10h7.5v20.034a10 10 0 0 0 4.993 8.656c43.878 25.699 25.922 93-24.993 93.313zM238.876 100.405c-9.221-2.53-11.674-15.038-4.154-20.888 7.682-6.158 2.516-18.813-7.345-17.728-4.468.481-8.79-1.538-11.282-5.267s-2.702-8.496-.548-12.44a10 10 0 0 0-13.57-13.569 11.987 11.987 0 0 1-12.44-.548 11.99 11.99 0 0 1-5.268-11.284c1.078-9.786-11.524-15.083-17.73-7.342-5.865 7.552-18.359 5.03-20.887-4.156-2.749-9.454-16.419-9.525-19.189 0a11.988 11.988 0 0 1-9.184 8.408 11.986 11.986 0 0 1-11.704-4.253C99.42 3.654 86.762 8.82 87.847 18.68c1.191 9.489-9.425 16.539-17.708 11.832-8.627-4.74-18.344 4.874-13.569 13.569 2.153 3.944 1.943 8.711-.549 12.44s-6.815 5.749-11.284 5.268c-9.784-1.077-15.084 11.522-7.344 17.729 3.499 2.82 5.129 7.304 4.254 11.703s-4.097 7.918-8.409 9.185c-9.454 2.748-9.525 16.419 0 19.189 9.22 2.53 11.675 15.037 4.155 20.887-7.684 6.156-2.516 18.817 7.343 17.729 9.487-1.19 16.542 9.423 11.832 17.708-4.742 8.629 4.875 18.345 13.569 13.569a11.989 11.989 0 0 1 12.441.55 11.984 11.984 0 0 1 5.267 11.282 10 10 0 0 0 17.729 7.345c5.865-7.551 18.361-5.032 20.888 4.155a10 10 0 0 0 19.19 0 11.984 11.984 0 0 1 9.184-8.408 11.982 11.982 0 0 1 11.703 4.254 10 10 0 0 0 17.729-7.345c-1.192-9.487 9.426-16.54 17.708-11.831a10 10 0 0 0 13.569-13.57c-4.73-8.306 2.377-18.892 11.832-17.707a10 10 0 0 0 7.342-17.729 11.987 11.987 0 0 1-4.253-11.704 11.987 11.987 0 0 1 8.408-9.184c9.456-2.75 9.527-16.419.002-19.191zm-28.023 24.471a31.973 31.973 0 0 0 1.073 16.549c-9.962 4.711-17.262 15.634-17.801 26.641-11.007.539-21.93 7.839-26.641 17.801-10.376-3.714-23.261-1.151-31.425 6.251-8.214-7.398-20.914-9.971-31.425-6.25-4.71-9.962-15.635-17.262-26.641-17.801-.54-11.007-7.839-21.93-17.801-26.641 3.715-10.375 1.15-23.261-6.251-31.425 7.402-8.164 9.964-21.05 6.251-31.426 9.962-4.71 17.262-15.634 17.801-26.641 11.007-.539 21.931-7.838 26.641-17.801 10.375 3.714 23.261 1.151 31.425-6.251 8.164 7.402 21.049 9.965 31.425 6.25 4.71 9.963 15.635 17.263 26.641 17.802.539 11.007 7.839 21.931 17.801 26.641-3.714 10.375-1.151 23.261 6.25 31.425a31.963 31.963 0 0 0-7.323 14.876z" />
      <path d="M136.059 55c-30.327 0-55 24.673-55 55 2.765 72.865 107.247 72.845 110.001-.001C191.059 79.673 166.386 55 136.059 55zm0 90c-19.299 0-35-15.701-35-35 1.76-46.369 68.248-46.356 70.001 0-.001 19.299-15.702 35-35.001 35zM136.059 250c-5.523 0-10 4.477-10 10v40c0 5.523 4.477 10 10 10s10-4.477 10-10v-40c0-5.522-4.477-10-10-10zM219.719 234.904c-2.761-4.783-8.878-6.422-13.66-3.66-4.783 2.761-6.422 8.877-3.66 13.66l20 34.64c7.046 11.254 23.54 1.656 17.32-10l-20-34.64zM305.603 196.339l-34.641-20c-11.679-6.222-21.241 10.3-10 17.32l34.641 19.999c4.698 2.737 10.883 1.167 13.66-3.66 2.762-4.782 1.123-10.897-3.66-13.659zM326.058 100h-39.999c-13.24.485-13.257 19.508 0 20h39.999c5.523 0 10-4.477 10-10s-4.477-10-10-10z" />
    </svg>
    <svg xmlns="http://www.w3.org/2000/svg" width="512" viewBox="0 0 511.922 511.922" height="512" id="m">
      <path d="M398.428 176.328c11.604-25.854 9.567-56.553-5.532-84.575l-4.867-82.341a10 10 0 0 0-9.982-9.41h-39.113c-5.372-.104-10.106 4.626-10 10l.001 50c0 28.876-15.996 48.646-42.778 52.883-12.562 1.975-22.133 7.064-30.228 16.396-8.095-9.332-17.662-14.421-30.217-16.395-26.793-4.238-42.788-24.009-42.788-52.885l-.001-50c0-5.523-4.478-10-10-10H133.81a10 10 0 0 0-9.982 9.41l-4.866 82.341c-23.067 41.68-15.078 92.33 22.695 118.79 25.203 80.93-23.612 111.869-22.845 188.659a9.999 9.999 0 0 0 6.343 9.308c55.728 22.508 74.453 57.951 99.503 93.847a9.997 9.997 0 0 0 3.11 2.879c13.693 8.902 42.598 8.928 56.321-.001a9.98 9.98 0 0 0 3.109-2.878c25.048-35.877 43.786-71.354 99.504-93.848a10 10 0 0 0 6.344-9.307c.766-76.794-48.05-107.723-22.846-188.659a83.428 83.428 0 0 0 28.228-34.214zm-222.963 150.42c-6.323 25.418-12.815 51.515-12.159 78.594-7.383-4.614-15.466-8.91-24.364-12.772 3.115-66.435 41.753-97.196 26.437-170.281a93.607 93.607 0 0 0 5.376 1.544c23.356 27.976 14.694 62.78 4.71 102.915zm197.45 65.821c-8.898 3.862-16.981 8.158-24.364 12.772 4.418-58.351-46.176-135.653-7.448-181.51a93.607 93.607 0 0 0 5.376-1.544c-15.316 73.09 23.321 103.844 26.436 170.282zm-39.347-187.507a9.985 9.985 0 0 0-5.282 3.044c-55.011 63.132 11.736 141.683-1.173 212.999-25.555 22.136-38.988 44.687-54.937 67.823-7.648 4.038-24.874 4.028-32.495 0-15.941-23.129-29.388-45.695-54.936-67.822-12.909-71.293 53.834-149.886-1.172-213a10.005 10.005 0 0 0-5.284-3.044c-21.145-4.575-38.135-18.033-46.613-36.924-9.396-20.934-7.321-45.305 5.843-68.622a9.983 9.983 0 0 0 1.274-4.326l4.443-75.188h19.686l.001 40c-.457 37.447 23.211 67.076 59.673 72.64 10.528 1.655 16.85 6.148 23.332 16.861v46.118c0 5.522 4.478 10 10 10s10-4.478 10-10v-46.118c6.482-10.713 12.805-15.207 23.343-16.863 36.454-5.566 60.12-35.195 59.663-72.639l-.001-40h19.687l4.444 75.188c.09 1.521.525 3 1.274 4.326 25.567 42.068 7.227 95.494-40.77 105.547z" />
    </svg>
    <svg xmlns="http://www.w3.org/2000/svg" width="512" viewBox="0 0 512.045 512.045" height="512" id="n">
      <path d="M501.992 312.524h-82.126c97.93-225.47-178.495-417.632-355.585-247.42-9.343 9.17-25.583 2.368-25.46-10.752 0-4.007 1.559-7.773 4.392-10.606 3.906-3.905 3.906-10.236.001-14.142-3.902-3.904-10.235-3.905-14.142-.001-18.915 18.609-10.26 51.513 15.263 58.392-95.55 124.187-28.409 311.025 124.225 346.476C275.181 581.22 511.504 506.275 511.992 322.52c0-5.519-4.477-9.996-10-9.996zm-360 0c-5.796-.022-10.352 4.944-9.998 10.699-64.45-58.839-96.385-146.655-76.567-204.745 18.657 71.151 79.347 140.383 140.825 194.046zm245.199 0h-5.248c-29.996-93.741-160.539-229.757-263.96-256.556C250.498 16.187 415.68 189.743 387.191 312.524zm-159.173 0c-54.24-41.077-115.667-110.296-140.646-164.185-32.907-69.425-9.012-93.359 60.436-60.436 77.003 34.545 188.479 149.44 213.09 224.621zm213.555 20c-16.456 145.627-222.76 145.518-239.161 0zm-21.582-112.002a200.74 200.74 0 0 1-9.798 61.89c-3.02-125.369-128.519-249.363-252.051-252.105 125.659-43.133 264.21 56.827 261.849 190.215zm-400.001 0c0-21.578 3.435-42.368 9.787-61.854 1.362 72.738 44.542 144.007 104.449 193.012a188.509 188.509 0 0 0 18.615 57.329C73.597 381.036 19.99 306.457 19.99 220.522zm302.002 272.002c-90.38 0-164.514-70.9-169.709-160h30.063c3.692 71.294 68.123 131.411 139.647 129.999 71.516 1.413 135.96-58.709 139.645-129.999h30.063c-5.195 89.099-79.329 160-169.709 160z" />
      <path d="M322 402.524c5.522 0 10-4.478 10-10-.49-13.251-19.518-13.249-20.004 0 0 5.522 4.482 10 10.004 10zM271.999 382.524c5.522 0 10-4.478 10-10-.49-13.251-19.517-13.248-20.004 0 0 5.522 4.482 10 10.004 10zM372 382.524c5.522 0 10-4.478 10-10-.49-13.251-19.518-13.249-20.004 0 0 5.522 4.482 10 10.004 10z" />
    </svg>
    <svg xmlns="http://www.w3.org/2000/svg" width="512" viewBox="0 0 512 512" height="512" id="o">
      <path d="M482 146h-1.999C467.687 107.938 464.471 46.424 416 46H96c-48.477.415-51.708 62.017-64.001 100C14.787 144.997-.061 158.672 0 176v30c0 5.522 4.478 10 10 10h16.625l2.927 20.001H15c-5.522 0-10 4.478-10 10s4.478 10 10 10h17.479l23.626 161.448c4.184 28.587 24.7 48.552 49.895 48.552h300c25.193 0 45.711-19.965 49.895-48.552l23.626-161.448H497c5.522 0 10-4.478 10-10s-4.478-10-10-10h-14.552L485.375 216H502c5.522 0 10-4.478 10-10v-30c0-16.542-13.458-30-30-30zM65.648 98.63C69.708 83.745 78.27 66 96 66h320c17.731 0 26.293 17.745 30.353 32.631L459.272 146H52.729zM336 446.001H176V266c0-5.514 4.486-10 10-10h140c5.514 0 10 4.486 10 10zm126.235-210h-8.236c-13.251.491-13.246 19.511 0 20h5.309l-23.203 158.552c-2.291 15.653-12.488 31.448-30.105 31.448h-50V266c0-16.542-13.458-30-30-30H186c-16.542 0-30 13.458-30 30v180.001h-50c-17.617 0-27.814-15.795-30.105-31.448L52.692 256.001h5.309c13.251-.491 13.246-19.512 0-20h-8.236L46.838 216h418.324zM492 196H20v-20c0-5.514 4.486-10 10-10h452c5.514 0 10 4.486 10 10z" />
      <path d="M301.001 336.566c11.236-7.019 1.685-23.543-10.002-17.32l-7.379 4.261L266 313.334v-8.522c0-5.522-4.478-10-10-10s-10 4.478-10 10v8.522l-17.62 10.173-7.379-4.261c-4.785-2.761-10.899-1.123-13.661 3.66-2.762 4.782-1.123 10.898 3.659 13.66l7.381 4.262v20.346l-7.38 4.261c-4.783 2.762-6.422 8.877-3.66 13.66 2.777 4.826 8.962 6.397 13.66 3.66l7.38-4.261L246 388.667v8.521c0 5.522 4.478 10 10 10s10-4.478 10-10v-8.521l17.62-10.173 7.38 4.261c4.698 2.737 10.884 1.167 13.66-3.66 2.762-4.783 1.123-10.898-3.66-13.66l-7.38-4.261v-20.346zM256 371.346l-17.62-10.173v-20.346L256 330.654l17.62 10.174v20.346z" />
    </svg>
  </defs>
  <g data-name="046-coconut.svg">
    <g transform="rotate(10.999 -2205.643 535.626) scale(.24414)">
      <path fill="transparent" d="M0 0h512v512H0z" />
      <use xlink:href="#a" />
    </g>
    <g transform="rotate(10.999 453.018 279.661) scale(.24414)">
      <path fill="transparent" d="M0 0h512v512H0z" />
      <use xlink:href="#a" />
    </g>
  </g>
  <g transform="rotate(13.999 -1096.46 867.142) scale(.24414)" data-name="020-pineapple.svg">
    <path fill="transparent" d="M0 0h512v512H0z" />
    <use xlink:href="#b" />
  </g>
  <g transform="translate(71.725 58.79) scale(.24414)" data-name="010-ice cream.svg">
    <path fill="transparent" d="M0 0h512v512H0z" />
    <use xlink:href="#c" />
  </g>
  <g data-name="004-sun.svg">
    <g transform="translate(342.612 471.55) scale(.24414)">
      <path fill="transparent" d="M0 0h512v512H0z" />
      <use xlink:href="#d" />
    </g>
    <g transform="translate(342.612 -40.45) scale(.24414)">
      <path fill="transparent" d="M0 0h512v512H0z" />
      <use xlink:href="#d" />
    </g>
  </g>
  <g data-name="015-pamela hat.svg">
    <g transform="rotate(42 90.214 809.438) scale(.25)">
      <path fill="transparent" d="M0 0h512v512H0z" />
      <use xlink:href="#e" />
    </g>
    <g transform="rotate(42 -165.786 142.536) scale(.25)">
      <path fill="transparent" d="M0 0h512v512H0z" />
      <use xlink:href="#e" />
    </g>
  </g>
  <g data-name="018-slippers.svg">
    <g transform="rotate(-42 747.655 47.37) scale(.25)">
      <path fill="transparent" d="M0 0h512v512H0z" />
      <use xlink:href="#f" />
    </g>
    <g transform="rotate(-42 80.753 -208.63) scale(.25)">
      <path fill="transparent" d="M0 0h512v512H0z" />
      <use xlink:href="#f" />
    </g>
  </g>
  <g data-name="044-suitcase.svg">
    <g transform="rotate(16 -72.035 1420.923) scale(.25)">
      <path fill="transparent" d="M0 0h512v512H0z" />
      <use xlink:href="#g" />
    </g>
    <g transform="rotate(16 -328.035 -400.611) scale(.25)">
      <path fill="transparent" d="M0 0h512v512H0z" />
      <use xlink:href="#g" />
    </g>
  </g>
  <g transform="matrix(.25 0 0 .25 216.033 73.195)" data-name="024-kite.svg">
    <path fill="transparent" d="M0 0h512v512H0z" />
    <use xlink:href="#h" />
  </g>
  <g transform="rotate(25 -558.05 873.448) scale(.25)" data-name="027-shorts.svg">
    <path fill="transparent" d="M0 0h512v512H0z" />
    <use xlink:href="#i" />
  </g>
  <g transform="rotate(-11 1687.343 19.27) scale(.25)" data-name="050-shell.svg">
    <path fill="transparent" d="M0 0h512v512H0z" />
    <use xlink:href="#j" />
  </g>
  <g data-name="019-ice cream.svg">
    <g transform="rotate(-6 695.738 -4523.269) scale(.25)">
      <path fill="transparent" d="M0 0h512v512H0z" />
      <use xlink:href="#k" />
    </g>
    <g transform="rotate(-6 439.738 361.502) scale(.25)">
      <path fill="transparent" d="M0 0h512v512H0z" />
      <use xlink:href="#k" />
    </g>
  </g>
  <g data-name="001-hot.svg">
    <g transform="rotate(13 -1460.125 2090.255) scale(.25)">
      <path fill="transparent" d="M0 0h512v512H0z" />
      <use xlink:href="#l" />
    </g>
    <g transform="rotate(13 786.758 1834.255) scale(.25)">
      <path fill="transparent" d="M0 0h512v512H0z" />
      <use xlink:href="#l" />
    </g>
    <g transform="rotate(13 -1716.125 -156.628) scale(.25)">
      <path fill="transparent" d="M0 0h512v512H0z" />
      <use xlink:href="#l" />
    </g>
    <g transform="rotate(13 530.758 -412.628) scale(.25)">
      <path fill="transparent" d="M0 0h512v512H0z" />
      <use xlink:href="#l" />
    </g>
  </g>
  <g transform="rotate(-18 692.096 -172.974) scale(.25)" data-name="034-swimsuit.svg">
    <path fill="transparent" d="M0 0h512v512H0z" />
    <use xlink:href="#m" />
  </g>
  <g data-name="040-watermelon.svg">
    <g transform="rotate(5 -2486.986 4808.382) scale(.25)">
      <path fill="transparent" d="M0 0h512v512H0z" />
      <use xlink:href="#n" />
    </g>
    <g transform="rotate(5 -2742.986 -1054.982) scale(.25)">
      <path fill="transparent" d="M0 0h512v512H0z" />
      <use xlink:href="#n" />
    </g>
  </g>
  <g transform="rotate(-11 1260.642 -1169.998) scale(.25)" data-name="030-ice box.svg">
    <path fill="transparent" d="M0 0h512v512H0z" />
    <use xlink:href="#o" />
  </g>
</svg>
