<svg xmlns="http://www.w3.org/2000/svg" xmlns:xlink="http://www.w3.org/1999/xlink" width="512" height="512" viewBox="0 0 512 512">
  <defs>
    <svg xmlns="http://www.w3.org/2000/svg" width="512" viewBox="0 0 512.035 512.035" height="512" id="a">
      <path d="M256.016 362.674c-5.523 0-10 4.478-10 10v40c0 5.522 4.477 10 10 10s10-4.478 10-10v-40c0-5.523-4.477-10-10-10zM347.512 345.478c-2.762-4.783-8.878-6.423-13.66-3.66-4.783 2.761-6.422 8.877-3.66 13.66l20 34.642c7.046 11.254 23.54 1.657 17.32-10l-20-34.642zM178.18 341.817c-4.782-2.76-10.898-1.122-13.66 3.66l-20 34.642c-2.762 4.783-1.123 10.898 3.66 13.66 4.698 2.737 10.883 1.167 13.66-3.66l20-34.642c2.762-4.783 1.123-10.898-3.66-13.66z" />
      <path d="M476.016 63.234c5.523 0 10-4.478 10-10V10c0-5.522-4.477-10-10-10H365.084c-12.165 0-23.311 7.051-28.542 18.006l-60.228 104.318c-16.191-.517-32.713-.416-48.555.327-7.002-42.7-44.162-75.385-88.814-75.385-76.279-.646-118.175 91.796-68.317 148.527-31.52 18.813-41.325 40.207-43.594 72.563-.026.21-.046.421-.059.632C12.706 400.756 124.523 514.317 256.017 512c131.471 2.323 243.333-111.265 229.039-243.013a10.217 10.217 0 0 0-.059-.627c-2.232-30.11-10.318-49.98-36.545-68.018-11.537-40.791-54.053-61.294-103.464-70.872l38.241-66.235h92.787zm-337.07 4.032c38.598 0 70 31.402 70 70-3.519 92.737-136.495 92.712-140-.001 0-38.597 31.402-69.999 70-69.999zm117.07 424.736c-120.119.201-213.75-92.941-209.896-208.719 16.228 3.176 31.207-2.672 39.985-9.127 6.078-3.917 10.47-6.748 19.629-6.748 9.16 0 13.551 2.831 19.629 6.749 18.016 13.289 43.074 13.182 60.93-.001 6.078-3.917 10.47-6.748 19.628-6.748 9.16 0 13.551 2.831 19.629 6.749 17.96 13.251 43.012 13.223 60.93-.001 6.078-3.917 10.47-6.748 19.629-6.748 9.16 0 13.551 2.831 19.629 6.749 17.872 13.203 42.959 13.268 60.93-.001 6.078-3.917 10.47-6.748 19.629-6.748s13.551 2.831 19.629 6.749c8.768 6.459 23.772 12.301 39.985 9.126 3.853 115.779-89.776 208.918-209.895 208.719zm208.276-228.82c-2.159.552-4.733.914-7.899.914-20.051-.011-23.085-16.83-50.094-16.688-15.047 0-23.596 5.51-30.465 9.939-6.078 3.918-10.47 6.749-19.629 6.749s-13.551-2.831-19.628-6.749c-17.936-13.263-43.096-13.196-60.931.001-6.078 3.917-10.47 6.748-19.629 6.748s-13.551-2.831-19.629-6.749c-17.866-13.221-43.037-13.239-60.93.001-6.078 3.917-10.47 6.748-19.629 6.748s-13.551-2.831-19.629-6.749c-6.869-4.429-15.418-9.939-30.465-9.939-27.047-.131-29.989 16.66-50.094 16.689-3.167 0-5.741-.362-7.9-.914.633-4.87 1.439-9.709 2.418-14.499 4.214-15.353 16.292-28.324 35.934-38.613 41.665 31.54 105.173 17.571 130.368-27.11 72.828-2.608 223.494-2.539 245.414 65.724a204.246 204.246 0 0 1 2.417 14.497zm-46.961-78.791c-54.522-20.809-129.444-23.858-192.002-21.834a89.534 89.534 0 0 0 3.459-19.932c57.943-1.748 148.324-.64 188.543 41.766zM368.796 48.234l-44.932 77.825c-8.32-1.095-16.734-1.934-25.137-2.556.434-.839 55.461-95.894 55.782-96.706A11.66 11.66 0 0 1 365.084 20h100.932v23.234h-88.559a10.004 10.004 0 0 0-8.661 5z" />
      <path d="M95.645 162.266c2.777 4.827 8.962 6.397 13.66 3.66l19.641-11.34v22.679c0 5.522 4.477 10 10 10s10-4.478 10-10v-22.679l19.641 11.34c4.698 2.737 10.883 1.167 13.66-3.66 2.762-4.783 1.123-10.898-3.66-13.66l-19.641-11.34 19.641-11.34c4.783-2.762 6.422-8.877 3.66-13.66s-8.878-6.424-13.66-3.66l-19.641 11.34v-22.68c0-5.522-4.477-10-10-10s-10 4.478-10 10v22.679l-19.641-11.34c-4.781-2.76-10.898-1.123-13.66 3.66s-1.123 10.898 3.66 13.66l19.641 11.34-19.641 11.34c-4.783 2.762-6.422 8.877-3.66 13.661z" />
    </svg>
    <svg xmlns="http://www.w3.org/2000/svg" width="512" viewBox="0 0 512.002 512.002" height="512" id="b">
      <path d="M338.214 178.747 371.93 74.241a10 10 0 0 0-14.281-11.862c-15.59 8.45-33.571 23.357-50.741 41.776l4.713-93.652a9.999 9.999 0 0 0-16.866-7.761C281.463 15.335 267.6 35.688 256.009 59.25c-11.971-24.38-25.898-44.319-38.763-56.508a10 10 0 0 0-16.866 7.762l4.713 93.652c-17.17-18.419-35.151-33.326-50.742-41.776a10 10 0 0 0-14.281 11.862l33.717 104.505c-69.539 52.113-57.044 116.107-57.786 193.256-.001 77.196 62.802 140 140 140 77.195 0 139.999-62.804 139.999-140-.734-77.104 11.731-141.203-57.786-193.256zm26.986 240.93-16.949 12.397-24.846-18.174a10.004 10.004 0 0 0-11.809 0l-24.846 18.174-24.845-18.174a10.004 10.004 0 0 0-11.809 0l-24.846 18.174-24.845-18.174a10.004 10.004 0 0 0-11.809 0l-24.846 18.174-16.947-12.397a9.977 9.977 0 0 0-1.262-.787c-6.536-15.201-9.888-32.368-9.54-49.811l21.846 15.979a10.001 10.001 0 0 0 11.809 0l24.846-18.174 24.846 18.174a10.001 10.001 0 0 0 11.809 0l24.846-18.174 24.846 18.174a10.001 10.001 0 0 0 11.809 0l24.846-18.174 24.846 18.174c1.759 1.286 3.831 1.929 5.904 1.929s4.146-.643 5.904-1.929l21.846-15.979c.347 17.446-3.004 34.61-9.541 49.812a9.812 9.812 0 0 0-1.263.786zM146.882 242.084l10.964 8.02a10.001 10.001 0 0 0 11.809 0l24.846-18.174 24.846 18.174a10.004 10.004 0 0 0 11.809 0l24.846-18.174 24.846 18.174a10.004 10.004 0 0 0 11.809 0l24.846-18.174 24.846 18.174a9.989 9.989 0 0 0 5.904 1.929 9.989 9.989 0 0 0 5.904-1.929l10.964-8.02a119.02 119.02 0 0 1 10.043 35.699c.055-.713-26.347 19.041-26.912 19.338l-24.846-18.174a10.004 10.004 0 0 0-11.809 0l-24.846 18.174-24.846-18.174a10.004 10.004 0 0 0-11.809 0l-24.846 18.174-24.846-18.174a10.004 10.004 0 0 0-11.809 0l-24.846 18.174c-.167-.003-27.744-20.619-26.912-19.338a119.043 119.043 0 0 1 10.045-35.699zm10.964 75.497a10.004 10.004 0 0 0 11.809 0l24.846-18.174 24.846 18.174a10.004 10.004 0 0 0 11.809 0l24.846-18.174 24.846 18.174a10.004 10.004 0 0 0 11.809 0l24.846-18.174 24.846 18.174c1.759 1.286 3.831 1.929 5.904 1.929s4.146-.643 5.904-1.929l21.846-15.979v43.352c-.291-1.014-26.742 19.101-27.75 19.643l-24.846-18.174a10.001 10.001 0 0 0-11.809 0l-24.846 18.174-24.846-18.174a10.001 10.001 0 0 0-11.809 0l-24.846 18.174-24.846-18.174a10.001 10.001 0 0 0-11.809 0l-24.846 18.174c-1.099-.598-27.351-20.593-27.75-19.643v-43.353zM343.753 96.443l-23.044 71.431a139.352 139.352 0 0 0-16.636-7.368l1.197-23.778c12.325-15.567 25.688-29.49 38.483-40.285zm-53.63-56.679-5.65 112.275c-3.103-23.748-9.491-47.013-17.692-68.18 6.83-16.331 14.923-31.534 23.342-44.095zm-25.801 112.483c-12.238-.738-24.914.194-36.65 2.635l-5.783-114.896c17.641 26.435 36.137 67.314 42.433 112.261zm-96.073-55.804c12.794 10.794 26.158 24.719 38.485 40.284l1.197 23.779a139.352 139.352 0 0 0-16.636 7.368zm87.752 75.559c41.182 0 77.586 20.852 99.206 52.553l-6.956 5.088-24.846-18.174a10.004 10.004 0 0 0-11.809 0l-24.846 18.174-24.846-18.174a10.004 10.004 0 0 0-11.809 0l-24.846 18.174-24.846-18.174a10.004 10.004 0 0 0-11.809 0l-24.846 18.174-6.956-5.088c21.624-31.7 58.027-52.553 99.209-52.553zm0 320c-34.729 0-66.06-14.83-87.993-38.49a10.04 10.04 0 0 0 1.647-.977l24.846-18.174 24.846 18.174a10.004 10.004 0 0 0 11.809 0l24.846-18.174 24.846 18.174c1.759 1.286 3.831 1.929 5.904 1.929s4.146-.643 5.904-1.929l24.846-18.174 24.846 18.174a10.04 10.04 0 0 0 1.647.977c-21.934 23.66-53.265 38.49-87.994 38.49z" />
    </svg>
    <svg xmlns="http://www.w3.org/2000/svg" width="512" viewBox="0 0 511.999 511.999" height="512" id="c">
      <path d="M502 255.681h-91V215.68c0-5.523-4.478-10-10-10h-8.263c-35.636-146.172-237.898-146.07-273.474 0H111c-5.522 0-10 4.477-10 10v40.001H10c-5.522 0-10 4.477-10 10C.881 394.54 146.154 444.037 256.007 400.385c110.972 43.88 255.169-6.589 255.992-134.705.001-5.522-4.477-9.999-9.999-9.999zm-245.999-140c54.431 0 102.586 38.008 116.167 90H139.833c13.58-51.991 61.741-90 116.168-90zM121 225.68h270v30.001H121zm25 50.001h30.001v35.858l-7.929-7.929c-3.905-3.904-10.235-3.905-14.143 0l-7.93 7.93v-35.859zm30 120c-102.212 0-150.872-58.734-155.614-120H126v60a10.002 10.002 0 0 0 17.071 7.072l17.93-17.929 17.929 17.929a10.001 10.001 0 0 0 17.071-7.072v-60h247.443c-92.379 38.002-166.785 119.858-267.444 120zm160.001-.001c-17.465 0-34.797-2.399-52.469-7.291 70.839-35.442 126.88-84.453 207.763-109.21-6.296 59.985-55.029 116.501-155.294 116.501z" />
    </svg>
    <svg xmlns="http://www.w3.org/2000/svg" width="512" viewBox="0 0 511.632 511.632" height="512" id="d">
      <path d="M475.816 94.63h-.208c-13.694-121.181-190.371-131.068-199.682 0-5.56-.062-10.114 4.437-10.11 10v100c0 5.523 4.478 10 10 10h4.877c-.663 27.864-4.819 79.731-4.877 105.001 0 55.14 44.859 99.999 100 99.999s100-44.859 100-99.999c.023-23.598-3.317-75.476-4.539-105.001h4.539c5.522 0 10-4.477 10-10v-100c0-5.523-4.477-10-10-10zm-190 100v-80h180v80zm85-175c43.549 0 81.17 33.843 84.735 75H295.947c2.263-43.098 33.69-75 74.869-75zm82.227 231.417c1.3 24.92 2.773 53.166 2.773 68.584-4.024 105.984-155.992 105.956-160-.001.129-25.838 4.261-77.024 4.882-105H451.26c.419 10.254 1.086 23.052 1.783 36.417zM235.815 186.631h-.11c-9.357-131.171-186.05-121.074-199.682 0-5.594-.114-10.215 4.401-10.208 10v100c0 5.523 4.477 10 10 10h4.539c-1.223 29.534-4.559 81.398-4.539 105.001 0 55.14 44.86 100 100 100s100-44.859 100-100c-.064-25.282-4.217-77.125-4.877-105.001h4.876c5.523 0 10-4.477 10-10v-100c.001-5.523-4.476-10-9.999-10zM45.816 286.632v-80.001h180v80.001zm95-175c41.18 0 72.606 31.902 74.869 75H56.081c3.566-41.159 41.186-75 84.735-75zm72.576 245.549c1.192 20.575 2.424 41.851 2.424 54.452-4.023 105.983-155.992 105.958-160-.001.031-24.122 3.368-75.777 4.556-105h150.562c.341 14.014 1.414 32.526 2.458 50.549z" />
      <path d="M176.23 236.632H95.401c-13.228.48-13.267 19.504 0 20h80.829c5.523 0 10-4.477 10-10s-4.477-10-10-10zM416.23 144.63h-80.829c-13.228.48-13.267 19.504 0 20h80.829c5.522 0 10-4.477 10-10s-4.477-10-10-10z" />
    </svg>
    <svg xmlns="http://www.w3.org/2000/svg" width="512" viewBox="0 0 520.669 520.669" height="512" id="e">
      <path d="M518.129 276.473c0-3.876.646-7.901 1.271-11.795 1.728-10.769 4.095-25.517-11.1-35.709-4.146-2.781-10.168-4.275-17.162-4.348C442.867 79.594 303.832 25.175 154.615 67.317c-5.333 1.427-8.499 6.911-7.07 12.245 16.16 59.133-38.934 84.599-59.022 133.98-19.761-22.644-40.012-27.443-48.807-28.426-11.873-1.322-22.282 1.514-28.56 7.79-15.608 15.608-11.489 35.227-7.505 54.199 5.247 22.118 5.241 36.636-.001 58.736-3.983 18.973-8.102 38.592 7.506 54.199 6.278 6.277 16.687 9.115 28.561 7.79 8.743-.977 28.802-5.723 48.449-28.019 28.526 75.275 109.259 127.971 195.326 127.392 91.045-.27 165.708-54.819 206.681-138.878 7.41.028 13.792-1.44 18.127-4.349 15.195-10.192 12.828-24.939 11.1-35.708-.625-3.892-1.271-7.919-1.271-11.795zm-185.441-98.79c5.174 7.059 9.26 12.634 9.26 23.642s-4.086 16.582-9.259 23.64c-5.849 7.98-13.129 17.912-13.129 35.464-.078 31.989 22.182 34.754 22.389 59.104-.181 24.289-22.479 27.157-22.388 59.105-.133 32.096 22.636 34.982 22.383 59.728a190.753 190.753 0 0 1-38.102 7.849c4.921-39.214-21.778-41.795-21.782-67.577.148-24.185 22.514-27.268 22.388-59.105.079-31.989-22.182-34.752-22.388-59.104.179-24.284 22.48-27.159 22.388-59.104.108-31.893-22.217-34.854-22.388-59.104.135-25.222 24.805-27.822 22.205-63.862 12.959 2.542 25.388 6.08 37.243 10.594-1.183 7.379-4.638 12.095-8.821 17.803-17.503 20.908-17.483 50.049.001 70.927zM169.059 84.259c11.968-2.926 23.71-5.245 35.209-6.967 4.181 28.733-22.383 31.571-21.951 64.929-.066 32.03 22.174 34.725 22.388 59.104-.175 24.259-22.497 27.211-22.388 59.104-.093 31.938 22.208 34.823 22.388 59.104-.21 24.369-22.461 27.096-22.388 59.105-.001 17.552 7.279 27.483 13.128 35.464 3.973 5.421 7.305 9.967 8.637 16.771-20.775-8.966-39.536-21.333-55.382-36.385-2.52-4.955-3.956-9.664-3.883-15.85 0-11.007 4.086-16.582 9.259-23.64 17.531-20.979 17.472-50.029 0-70.928-5.173-7.059-9.259-12.634-9.259-23.642s4.086-16.582 9.259-23.64c17.48-20.921 17.527-49.943.001-70.931-1.641-2.24-3.226-4.404-4.594-6.646 14.336-20.424 25.127-43.277 19.576-74.952zM93.162 308.51c-3.872-.602-7.844 1.181-9.957 4.551-18.25 28.924-38.045 34.038-45.709 34.894-6.693.748-10.961-.819-12.198-2.056-7.583-7.582-5.828-18.067-2.074-35.947 2.1-10.002 4.48-21.338 4.48-33.478s-2.38-23.476-4.48-33.478c-3.754-17.88-5.508-28.364 2.075-35.947 1.235-1.236 5.503-2.806 12.196-2.056 7.664.856 27.46 5.971 45.71 34.895a9.998 9.998 0 0 0 18.117-2.748c6.629-24.678 21.293-42.964 35.455-61.059 5.648 7.77 10.445 13.428 10.428 25.245 0 11.008-4.086 16.582-9.259 23.64-17.514 20.933-17.48 50.041.001 70.929 5.173 7.058 9.259 12.633 9.259 23.64 0 11.008-4.086 16.583-9.26 23.641-4.547 6.203-9.957 13.586-12.141 24.81-11.054-15.747-19.425-33.306-24.482-52.175a10.003 10.003 0 0 0-8.161-7.301zM224.7 438.437c.411-32.625-22.174-35.272-22.384-59.799.148-24.185 22.514-27.268 22.388-59.105.079-31.989-22.182-34.752-22.388-59.104.179-24.284 22.48-27.159 22.388-59.104.108-31.893-22.217-34.854-22.388-59.104.021-25.747 26.583-28.365 21.819-67.333 20.736-1.902 40.599-1.777 59.47.317 6.142 30.09-22.057 33.133-21.545 67.017-.062 32.041 22.171 34.715 22.388 59.104-.17 24.245-22.5 27.222-22.388 59.104-.089 31.952 22.205 34.813 22.388 59.104-.205 24.352-22.465 27.109-22.388 59.105-.537 34.367 28.917 37.523 21.136 68.585-19.642-.036-40.027-3.109-58.496-8.787zm272.521-131.108c-.673.38-4.644 1.596-11.767.633a9.986 9.986 0 0 0-10.397 5.661c-26.314 56.084-66.129 96.457-113.493 117.345-2.744-25.886-21.896-29.864-22.004-52.33.148-24.186 22.513-27.267 22.388-59.105.079-31.99-22.182-34.753-22.388-59.104.18-24.285 22.479-27.159 22.388-59.104.108-31.893-22.217-34.854-22.388-59.104.083-20.457 15.744-25.316 20.628-45.113 52.987 26.255 92.655 74.011 114.41 141.055a10.004 10.004 0 0 0 10.856 6.822c7.125-.969 11.094.254 11.705.594 3.963 2.658 4.29 4.743 2.494 15.931-.714 4.45-1.523 9.494-1.523 14.964 0 5.471.81 10.515 1.523 14.965 1.795 11.187 1.469 13.271-2.432 15.89z" />
      <path d="M410.72 214.723c-5.525-.004-10.004 4.475-10.004 10 .491 13.247 19.515 13.25 20.004 0 0-5.522-4.477-10-10-10z" />
    </svg>
    <svg xmlns="http://www.w3.org/2000/svg" width="512" viewBox="0 0 511.999 511.999" height="512" id="f">
      <path d="M256 .835c-141.159 0-256 114.841-256 256 12.87 339.152 499.181 339.06 511.999-.003C511.999 115.676 397.158.835 256 .835zM375.882 460.06a234.462 234.462 0 0 1-71.007 27.686c49.457-72.609 65.805-172.634 44.002-273.414 20.214-7.668 40.695-12.848 60.86-15.387 21.957 98.43.825 212.704-33.855 261.115zm-4.931-273.923c-40.883 10.9-81.106 31.351-116.68 59.28-23.668-9.509-45.624-21.511-65.312-35.443 77.475-69 173.876-102.044 260.034-88.828a235.479 235.479 0 0 1 30.499 59.824c-33.979-6.535-71.139-4.804-108.541 5.167zM78.599 101.353c25.866 74.474 93.282 132.764 168.377 162.687 3.598 25.251 4.183 50.267 1.961 74.283-98.529-32.607-175.364-99.61-206.977-180.87a236.677 236.677 0 0 1 36.639-56.1zm352.744-2.315c-87.559-6.459-182.272 29.393-258.592 98.614-16.748-13.672-31.474-28.818-43.755-45.012C203.267 84.404 312.809 45.567 372.072 51.402a237.629 237.629 0 0 1 59.271 47.636zM330.838 32.995c-73.85 10.336-158.881 53.347-213.331 103.058-10.255-16.301-18.086-33.449-23.112-51.056 58.391-57.426 156.609-80.384 236.443-52.002zM31.592 183.715c38.155 79.133 116.603 143.3 214.778 174.807-3.466 21.34-9.22 41.667-17.104 60.4C132.978 388.701 44.524 313.18 20.009 258.933c-.241-26.108 3.853-51.593 11.583-75.218zM24.72 303.93c45.873 58.794 125.645 110.934 195.925 133.234-9.014 17.078-19.984 32.471-32.764 45.651C105.548 457.951 42.062 389.222 24.72 303.93zm185.228 184.394c51.638-59.632 68.445-147.237 56.802-227.277 20.069-15.742 41.442-28.756 63.351-38.839 21.028 101.644 1.413 201.698-53.168 269.706-22.168 1.996-45.509.72-66.985-3.59zm202.588-55.018c27.88-69.104 33.117-164.077 17.31-236.017 19.298-.732 38.116 1.07 55.921 5.549 20.837 83.352-10.938 177.096-73.231 230.468z" />
    </svg>
    <svg xmlns="http://www.w3.org/2000/svg" width="512" viewBox="0 0 511.629 511.629" height="512" id="g">
      <path d="M482.26 392.782c-4.361-22.933-27.372-39.525-51.11-35.59 7.604-5.592 17.135-8.265 26.88-7.215a10 10 0 0 0 7.343-17.729c-11.186-9.015-16.396-23.358-13.598-37.431 2.8-14.073 13.103-25.33 26.888-29.379 9.471-2.793 9.521-16.393-.001-19.189-29.538-8.296-37.366-47.874-13.287-66.809a10 10 0 0 0-7.345-17.729c-30.453 3.649-52.85-29.938-37.843-56.639a10.002 10.002 0 0 0-13.57-13.569c-26.713 15.029-60.295-7.437-56.639-37.845a10 10 0 0 0-17.729-7.343c-18.914 24.11-58.561 16.196-66.809-13.29a10.001 10.001 0 0 0-19.19.001c-4.048 13.785-15.305 24.087-29.378 26.887-14.071 2.798-28.415-2.411-37.431-13.598-6.109-7.65-18.807-2.58-17.729 7.343 1.535 14.28-4.918 28.101-16.84 36.074C101.099 49.62 28.24 77.664 22.119 136.208c-34.21 11.351-26.956 61.368 9.509 62.116h27.408c6.33 19.787-5.911 42.442-26.01 47.925a10 10 0 0 0 0 19.19c29.534 8.297 37.372 47.871 13.289 66.81-7.7 6.2-2.498 18.799 7.345 17.729 30.438-3.653 52.856 29.935 37.843 56.639a10.002 10.002 0 0 0 13.57 13.569c26.707-15.028 60.297 7.435 56.638 37.845-1.103 9.781 11.546 15.078 17.729 7.343 18.908-24.106 58.564-16.2 66.809 13.29 2.744 9.443 16.387 9.551 19.19 0 1.734-5.902 4.91-11.35 9.147-15.791a33.386 33.386 0 0 0 19.455 6.227h179.104c45.831-1.073 53.018-64.752 9.115-76.318zM180.006 72.755c24.059 14.862 59.298 7.854 75.838-15.085 16.542 22.94 51.778 29.948 75.839 15.085 6.503 27.523 36.378 47.485 64.293 42.958-4.523 27.918 15.435 57.789 42.958 64.293-14.861 24.061-7.854 59.296 15.085 75.837-22.94 16.542-29.946 51.778-15.085 75.839a58.178 58.178 0 0 0-28.158 17.063 79.584 79.584 0 0 0-17.967-10.156c78.461-131.105-54.106-287.322-196.281-231.388-6.683-7.55-16.011-12.706-26.518-14.003a58.166 58.166 0 0 0 9.996-20.443zm106.459 319.727C174.829 417.951 80.71 302.386 128.166 198.325h69.008c43.017-.992 50.068-60.569 9.068-71.916a43.36 43.36 0 0 0-.325-1.404C333.029 77.369 447.01 220.04 372.434 333.362c-39.558-4.969-76.844 21.835-85.969 59.12zM19.844 166.54c0-6.498 5.286-11.785 11.784-11.785 5.522 0 10-4.477 10-10 .167-52.265 67.562-73.68 97.886-31.191a10 10 0 0 0 13.442 2.691c14.42-9.354 34.542 1.783 34.218 19.015 0 5.523 4.478 10 10 10 21.849.806 21.931 32.215 0 33.055H31.627c-6.497 0-11.783-5.287-11.783-11.785zm236.025 287.513c-16.534-22.966-51.788-29.988-75.863-15.118-6.505-27.526-36.373-47.481-64.293-42.959 4.525-27.918-15.436-57.788-42.958-64.293 14.862-24.062 7.852-59.296-15.086-75.838 17.19-12.677 26.324-36.318 21.947-57.52h26.871c-42.971 106.608 45.968 227.073 160.67 217.123-6.531 8.359-8.582 21.151-4.743 31.339a58.866 58.866 0 0 0-6.545 7.266zm217.275-4.955H294.04c-17.927-.663-18.018-26.436 0-27.136 5.522 0 10-4.477 10-10 .182-57.338 74.121-80.835 107.388-34.22a10 10 0 0 0 13.444 2.69c16.256-10.433 38.532 1.909 38.273 21.266 0 5.523 4.477 10 10 10 24.723.914 24.812 36.45-.001 37.4z" />
    </svg>
    <svg xmlns="http://www.w3.org/2000/svg" width="512" viewBox="0 0 512.002 512.002" height="512" id="h">
      <path d="M298.252 55.891V30c0-16.542-13.458-30-30-30h-24.501c-16.542 0-30 13.458-30 30v25.892c-271.185 57.15-237.263 448.793 42.255 456.11 279.568-7.349 313.376-399.009 42.246-456.111zM233.751 30c0-5.514 4.486-10 10-10h24.501c5.514 0 10 4.486 10 10v23.07c-14.604-1.421-29.897-1.421-44.501 0zm22.251 462.002c-115.795 0-210.001-94.206-210.001-210 10.558-278.21 409.485-278.136 420 .003 0 115.791-94.205 209.997-209.999 209.997z" />
      <path d="M256.002 102.002c-99.252 0-180 80.748-180 180 9.05 238.466 350.986 238.401 360-.002 0-99.25-80.748-179.998-180-179.998zm0 340c-88.225 0-160-71.775-160-160 8.043-211.97 311.989-211.913 320 .002 0 88.223-71.775 159.998-160 159.998z" />
      <path d="M349.89 188.114a10 10 0 0 0-12.061-1.595l-110.19 63.443a10 10 0 0 0-3.677 3.677l-63.443 110.19c-3.906 6.411 1.202 15.202 8.669 14.989a9.967 9.967 0 0 0 4.986-1.334l110.19-63.443a10 10 0 0 0 3.677-3.677l63.443-110.19a9.998 9.998 0 0 0-1.594-12.06zm-115.106 86.813 28.293 28.293-66.693 38.4zm42.435 14.151-28.293-28.293 66.693-38.4zM256.001 159.78c5.522 0 10-4.478 10-10-.49-13.251-19.518-13.248-20.004 0 0 5.523 4.482 10 10.004 10zM170.315 194.754c3.45-4.312 2.751-10.605-1.562-14.056-10.623-7.913-22.548 6.998-12.496 15.62 4.283 3.434 10.591 2.768 14.058-1.564zM123.779 272.002c-5.525 0-10.005 4.483-10 10.008.492 13.25 19.513 13.239 20-.008 0-5.523-4.477-10-10-10zM256.002 404.225c-5.522 0-10 4.478-10 10 .49 13.251 19.518 13.248 20.004 0 0-5.523-4.481-10-10.004-10zM342.426 368.426c-6.324 6.149-1.632 17.221 7.072 17.071 8.703.148 13.401-10.923 7.073-17.073-3.906-3.905-10.24-3.903-14.145.002zM388.224 271.998c-5.522 0-10 4.481-10 10.004.491 13.251 19.511 13.247 20 0 .004-5.525-4.475-10.004-10-10.004z" />
    </svg>
    <svg xmlns="http://www.w3.org/2000/svg" width="512" viewBox="0 0 512 512" height="512" id="i">
      <path d="M482 146h-1.999C467.687 107.938 464.471 46.424 416 46H96c-48.477.415-51.708 62.017-64.001 100C14.787 144.997-.061 158.672 0 176v30c0 5.522 4.478 10 10 10h16.625l2.927 20.001H15c-5.522 0-10 4.478-10 10s4.478 10 10 10h17.479l23.626 161.448c4.184 28.587 24.7 48.552 49.895 48.552h300c25.193 0 45.711-19.965 49.895-48.552l23.626-161.448H497c5.522 0 10-4.478 10-10s-4.478-10-10-10h-14.552L485.375 216H502c5.522 0 10-4.478 10-10v-30c0-16.542-13.458-30-30-30zM65.648 98.63C69.708 83.745 78.27 66 96 66h320c17.731 0 26.293 17.745 30.353 32.631L459.272 146H52.729zM336 446.001H176V266c0-5.514 4.486-10 10-10h140c5.514 0 10 4.486 10 10zm126.235-210h-8.236c-13.251.491-13.246 19.511 0 20h5.309l-23.203 158.552c-2.291 15.653-12.488 31.448-30.105 31.448h-50V266c0-16.542-13.458-30-30-30H186c-16.542 0-30 13.458-30 30v180.001h-50c-17.617 0-27.814-15.795-30.105-31.448L52.692 256.001h5.309c13.251-.491 13.246-19.512 0-20h-8.236L46.838 216h418.324zM492 196H20v-20c0-5.514 4.486-10 10-10h452c5.514 0 10 4.486 10 10z" />
      <path d="M301.001 336.566c11.236-7.019 1.685-23.543-10.002-17.32l-7.379 4.261L266 313.334v-8.522c0-5.522-4.478-10-10-10s-10 4.478-10 10v8.522l-17.62 10.173-7.379-4.261c-4.785-2.761-10.899-1.123-13.661 3.66-2.762 4.782-1.123 10.898 3.659 13.66l7.381 4.262v20.346l-7.38 4.261c-4.783 2.762-6.422 8.877-3.66 13.66 2.777 4.826 8.962 6.397 13.66 3.66l7.38-4.261L246 388.667v8.521c0 5.522 4.478 10 10 10s10-4.478 10-10v-8.521l17.62-10.173 7.38 4.261c4.698 2.737 10.884 1.167 13.66-3.66 2.762-4.783 1.123-10.898-3.66-13.66l-7.38-4.261v-20.346zM256 371.346l-17.62-10.173v-20.346L256 330.654l17.62 10.174v20.346z" />
    </svg>
    <svg xmlns="http://www.w3.org/2000/svg" width="512" viewBox="0 0 512.001 512.001" height="512" id="j">
      <path d="M485.096 214.807 422.066 76.82c-6.227-13.63-13.287-20.903-26.982-27.79-.361-.181-.732-.34-1.112-.477l-44.084-15.837-.235-9.584a9.997 9.997 0 0 0-5.751-8.808L315.383.948a10 10 0 0 0-8.724.112c-30.839 15.7-70.476 15.7-101.315 0a10 10 0 0 0-8.724-.112l-28.519 13.376a9.999 9.999 0 0 0-5.751 8.808l-.235 9.584-44.084 15.837a10 10 0 0 0-1.112.477c-13.695 6.887-20.756 14.16-26.982 27.791L26.905 214.807a9.998 9.998 0 0 0 3.796 12.635l75.303 47.063v207.496c0 16.542 13.458 30 30 30h93.583c5.522 0 10-4.477 10-10v-20.002h32.829v20.002c0 5.523 4.478 10 10 10h93.583c16.542 0 30-13.458 30-30V274.506l75.302-47.064a10 10 0 0 0 3.795-12.635zM317.669 24.11l12.141 5.694 2.215 90.087-37.389-10.903zm-135.477 5.694 12.141-5.694 23.033 84.878-37.389 10.903zM106.003 250.92l-57.26-35.787L108.127 85.13c4.247-9.296 8.007-13.244 17.25-17.965l36.21-13.009-1.94 78.919a10 10 0 0 0 12.796 9.845l47.143-13.749v60.957c-10.131.17-16.041 3.087-20.817 5.444-3.983 1.966-6.861 3.386-12.898 3.386-6.038 0-8.916-1.42-12.899-3.386-4.921-2.429-11.046-5.452-21.75-5.452-13.044.154-17.514 3.657-25.218 7.078v-8.24c-.489-13.248-19.511-13.25-20 0l-.001 61.962zm20 17.14c11.025-2.029 13.906-7.891 25.218-7.938 6.038 0 8.915 1.421 12.899 3.386 4.921 2.429 11.046 5.452 21.751 5.452 10.704 0 16.829-3.023 21.75-5.452 3.772-1.862 6.553-3.234 11.966-3.374v29.996c-10.131.17-16.041 3.087-20.817 5.444-3.983 1.966-6.861 3.386-12.898 3.386-6.038 0-8.916-1.42-12.899-3.386-4.921-2.429-11.046-5.452-21.75-5.452-13.044.154-17.514 3.657-25.218 7.078v-29.14zm93.583-27.929c-10.13.17-16.041 3.087-20.817 5.444-3.983 1.966-6.86 3.386-12.898 3.386s-8.916-1.42-12.899-3.386c-4.921-2.429-11.046-5.452-21.75-5.452-13.044.154-17.514 3.657-25.218 7.077v-29.14c11.025-2.029 13.906-7.892 25.218-7.938 6.037 0 8.915 1.421 12.899 3.386 4.921 2.429 11.046 5.452 21.751 5.452s16.829-3.023 21.75-5.452c3.772-1.862 6.554-3.234 11.966-3.374v29.997zm-93.583 77.93c11.025-2.029 13.906-7.892 25.218-7.938 6.037 0 8.915 1.421 12.899 3.386 4.921 2.429 11.046 5.452 21.751 5.452s16.829-3.023 21.75-5.452c3.772-1.862 6.554-3.234 11.966-3.374v29.996c-10.131.17-16.041 3.087-20.817 5.444-3.983 1.966-6.861 3.386-12.898 3.386-6.038 0-8.916-1.42-12.899-3.386-4.921-2.429-11.046-5.452-21.75-5.452-13.044.154-17.514 3.657-25.218 7.078v-29.14zm10 173.94c-5.514 0-10-4.486-10-10v-113.94c11.025-2.029 13.906-7.892 25.218-7.938 6.037 0 8.915 1.421 12.899 3.386 4.921 2.429 11.046 5.452 21.751 5.452s16.829-3.023 21.75-5.452c3.772-1.862 6.554-3.234 11.966-3.374V492h-83.584zm103.583-30.003c-.344-2.619.662-346.428-.348-348.771l-23.466-86.475c25.788 8.151 54.668 8.151 80.456 0l-23.465 86.468c-1.017 2.796 0 345.841-.349 348.777h-32.828zm146.412-164.797c-7.691-3.419-12.181-6.926-25.218-7.078-10.705 0-16.83 3.023-21.751 5.452-3.982 1.966-6.86 3.386-12.898 3.386s-8.916-1.42-12.898-3.386c-4.776-2.358-10.687-5.274-20.817-5.444v-29.996c5.412.14 8.193 1.513 11.965 3.374 4.922 2.429 11.046 5.452 21.751 5.452s16.829-3.023 21.751-5.452c3.982-1.966 6.86-3.386 12.898-3.386 11.312.046 14.195 5.91 25.218 7.938v29.14zm-93.583 12.934c5.412.14 8.193 1.513 11.965 3.374 4.921 2.429 11.046 5.452 21.751 5.452s16.83-3.023 21.751-5.452c3.982-1.966 6.86-3.386 12.898-3.386 11.312.046 14.194 5.911 25.218 7.938v29.14c-7.691-3.419-12.181-6.926-25.218-7.078-10.705 0-16.83 3.023-21.751 5.452-3.982 1.966-6.86 3.386-12.898 3.386s-8.916-1.42-12.898-3.386c-4.776-2.358-10.687-5.274-20.817-5.444v-29.996zm93.583-62.935c-7.691-3.419-12.182-6.925-25.218-7.077-10.705 0-16.829 3.023-21.751 5.452-3.982 1.966-6.86 3.386-12.898 3.386s-8.916-1.42-12.898-3.386c-4.777-2.357-10.687-5.274-20.817-5.444v-29.996c5.412.14 8.193 1.513 11.965 3.374 4.921 2.429 11.046 5.452 21.751 5.452s16.83-3.023 21.751-5.452c3.982-1.966 6.86-3.386 12.898-3.386 11.312.046 14.194 5.911 25.218 7.938V247.2zm-10 244.801h-83.583V360.135c5.412.14 8.193 1.513 11.965 3.374 4.921 2.429 11.046 5.452 21.751 5.452s16.83-3.023 21.751-5.452c3.982-1.966 6.86-3.386 12.898-3.386 11.312.046 14.194 5.911 25.218 7.938v113.94c0 5.514-4.486 10-10 10zm30-241.08v-61.96c-.489-13.248-19.511-13.25-20 0v8.24c-7.691-3.419-12.181-6.926-25.218-7.078-10.705 0-16.83 3.023-21.751 5.452-3.982 1.966-6.86 3.386-12.898 3.386s-8.916-1.42-12.898-3.386c-4.776-2.358-10.687-5.274-20.817-5.444v-60.957l47.143 13.748a9.997 9.997 0 0 0 12.796-9.845l-1.94-78.919 36.21 13.009c9.244 4.722 13.003 8.669 17.25 17.965l59.384 130.003z" />
    </svg>
    <svg xmlns="http://www.w3.org/2000/svg" width="512" viewBox="0 0 512.897 512.897" height="512" id="k">
      <path d="M486.448 256.448c0-18.891-2.289-37.257-6.605-54.835C581.359 85.528 427.251-68.423 311.284 33.053c-34.903-8.766-74.767-8.766-109.67 0C85.529-68.462-68.423 85.646 33.053 201.613c-8.767 34.903-8.767 74.768 0 109.671-101.514 116.086 52.593 270.035 168.56 168.56 34.903 8.766 74.767 8.766 109.67 0 116.085 101.516 270.035-52.594 168.559-168.56 4.317-17.579 6.606-35.945 6.606-54.836zM345.435 446.649l-26.656-64.856C346 368.202 368.201 346 381.793 318.779l64.856 26.657c-20.857 44.4-56.814 80.357-101.214 101.213zM66.247 345.435l64.856-26.657c13.591 27.221 35.793 49.424 63.015 63.015l-26.657 64.856c-44.4-20.857-80.357-56.814-101.214-101.214zM167.461 66.248l26.657 64.856c-27.221 13.591-49.423 35.793-63.014 63.014l-64.856-26.657c20.856-44.4 56.813-80.357 101.213-101.213zm-121.013 190.2c0-24.719 4.293-48.454 12.173-70.499l64.857 26.657c-9.315 27.33-9.315 60.353 0 87.683l-64.857 26.657c-7.88-22.044-12.173-45.779-12.173-70.498zm90 0c0-66.168 53.832-120 120.001-120 158.976 6.033 158.933 233.991-.002 240-66.167 0-119.999-53.832-119.999-120zm310.201-88.986-64.856 26.657c-13.591-27.221-35.793-49.424-63.014-63.015l26.657-64.856c44.4 20.856 80.356 56.813 101.213 101.214zm7.626 159.485-64.857-26.657c9.315-27.329 9.315-60.353 0-87.682l64.857-26.657c16.124 43.637 16.124 97.358 0 140.996zm-61.063-306.5c80.701-.604 128.183 93.963 79.727 158.294-23.192-64.417-74.366-115.591-138.783-138.783 16.981-12.524 37.824-19.511 59.056-19.511zm-66.265 38.174-26.657 64.857c-27.33-9.315-60.353-9.315-87.682 0L185.95 58.621c43.637-16.123 97.359-16.123 140.997 0zm-306.5 61.065c-.605-80.701 93.965-128.185 158.294-79.728C114.324 63.15 63.149 114.324 39.957 178.741c-12.524-16.982-19.51-37.824-19.51-59.055zm99.238 372.763c-80.701.604-128.182-93.962-79.728-158.293 23.192 64.417 74.367 115.591 138.784 138.783-16.981 12.524-37.824 19.51-59.056 19.51zm66.265-38.173 26.658-64.856c27.33 9.315 60.353 9.315 87.682 0l26.657 64.857c-43.638 16.122-97.36 16.122-140.997-.001zm306.499-61.065c.605 80.701-93.963 128.185-158.293 79.728 64.417-23.192 115.591-74.367 138.783-138.784 12.524 16.982 19.51 37.825 19.51 59.056z" />
    </svg>
    <svg xmlns="http://www.w3.org/2000/svg" width="512" viewBox="0 0 512.001 512.001" height="512" id="l">
      <path d="M445.582 190c0-104.767-85.233-190-190-190C43.974 3.769-6.19 290.542 187.863 367.53l-19.955 74.471h-12.327c-16.542 0-30 13.458-30 30v30c0 5.523 4.477 10 10 10h240c5.523 0 10-4.477 10-10v-30c0-16.542-13.458-30-30-30h-12.327l-19.955-74.471c71.43-27.337 122.283-96.606 122.283-177.53zm-360 0c0-93.738 76.262-170 170-170 225.218 8.547 225.157 331.488-.002 340-93.736 0-169.998-76.262-169.998-170zm280 282.001v20h-220v-20c0-5.514 4.486-10 10-10h200c5.514 0 10 4.486 10 10zm-43.032-30h-56.968v-29.27c0-5.523-4.477-10-10-10s-10 4.477-10 10v29.27h-56.968l18.306-68.317c30.832 8.379 66.493 8.379 97.325 0z" />
      <path d="M345.582 250a90.02 90.02 0 0 0-15.178-50h65.178c5.523 0 10-4.477 10-10 .613-71.168-81.375-114.845-140-74.822V50c0-5.523-4.477-10-10-10-71.168-.613-114.845 81.376-74.822 140h-65.178c-5.523 0-10 4.477-10 10-.613 71.169 81.375 114.845 140 74.822V330c0 5.523 4.477 10 10 10 49.626 0 90-40.375 90-90zm-132.908-60.025c.012-23.657 19.275-42.899 42.933-42.884 56.811 2.185 56.798 83.635.004 85.816-23.676.021-42.955-19.256-42.937-42.932zm52.908 129.312v-67.173c22.489-3.607 41.034-19.177 48.879-39.955 27.844 42.126.504 100.682-48.879 107.128zM384.869 180h-67.173c-3.607-22.489-19.177-41.034-39.955-48.88 42.126-27.842 100.682-.503 107.128 48.88zM245.582 60.712v67.173c-22.489 3.607-41.034 19.177-48.88 39.955-27.842-42.125-.503-100.681 48.88-107.128zM126.295 200h67.173c3.607 22.489 19.177 41.033 39.955 48.879-42.126 27.844-100.682.504-107.128-48.879z" />
      <path d="M255.586 200c5.523 0 10-4.477 10-10-.49-13.251-19.518-13.249-20.004 0 0 5.523 4.481 10 10.004 10z" />
    </svg>
    <svg xmlns="http://www.w3.org/2000/svg" width="512" viewBox="0 0 512.126 512.126" height="512" id="m">
      <path d="M421.514 294.583c-14.069-69.338-43.606-257.555-132.986-196.452-23.747 15.759-41.219 15.725-64.923 0-89.393-61.087-118.897 127.063-132.987 196.452-100.468 19.905-135.211 80.63-11.013 112.402 47.259 12.273 109.928 19.032 176.461 19.032s129.201-6.759 176.462-19.033c124.021-31.71 89.652-92.451-11.014-112.401zm-308.979-9.019c82.486 18.16 204.617 18.148 287.062 0 2.793 15.173 5.077 29.406 6.805 41.733-81.652 20.706-219.02 20.706-300.672 0 1.728-12.327 4.011-26.56 6.805-41.733zm65.787-175.929c24.39-14.566 40.884 21.124 77.744 20.369 36.924.749 53.249-34.92 77.744-20.37 23.793 9.572 51.929 100.536 61.981 156.285-78.95 17.439-200.369 17.474-279.449 0 10.082-55.833 38.168-146.683 61.98-156.284zM427.5 387.625c-89.36 24.335-253.508 24.335-342.869-.001-44.602-11.582-64.565-26.173-64.565-35.495 0-7.499 14.529-22.957 67.099-36.151a823.298 823.298 0 0 0-2.435 17.419 10 10 0 0 0 7.175 10.889C135.63 356.763 195.848 363 256.066 363s120.436-6.237 164.161-18.713a9.999 9.999 0 0 0 7.175-10.889 823.298 823.298 0 0 0-2.435-17.419c52.571 13.193 67.1 28.652 67.1 36.151-.001 9.321-19.966 23.912-64.567 35.495z" />
    </svg>
    <svg xmlns="http://www.w3.org/2000/svg" width="512" viewBox="0 0 512.002 512.002" height="512" id="n">
      <path d="M426.001 30c0-16.542-13.458-30-30-30H116C99.458 0 86 13.458 86 30c0 119.071 28.339 235.085 60 353.318v98.683c0 16.542 13.458 30 30 30h160c16.542 0 30-13.458 30-30V383.32C397.662 265.086 426.001 149.072 426.001 30zm-77.677 342.002H163.678C135.721 267.263 110.755 164.302 106.604 60h298.793c-4.15 104.302-29.116 207.263-57.073 312.002zm-182.323 20h180v50h-61.713c-9.454-26.509-47.13-26.492-56.574 0h-61.713zM116 20h280.001c5.514 0 10 4.486 10 10 0 3.335-.023 6.669-.068 10H106.069A740.348 740.348 0 0 1 106 30c0-5.514 4.486-10 10-10zm220.001 472.002H176c-5.514 0-10-4.486-10-10v-20h70c5.523 0 10-4.477 10-10 0-5.514 4.486-10 10-10s10 4.486 10 10c0 5.523 4.477 10 10 10h70v20c0 5.514-4.485 10-9.999 10z" />
      <path d="M358.818 186.407c-9.221-2.53-11.674-15.038-4.154-20.888 7.682-6.16 2.515-18.811-7.346-17.728a11.99 11.99 0 0 1-11.282-5.267 11.986 11.986 0 0 1-.548-12.441 10 10 0 0 0-13.57-13.568 11.983 11.983 0 0 1-12.439-.549 11.988 11.988 0 0 1-5.268-11.283c1.078-9.787-11.525-15.082-17.729-7.343-5.864 7.553-18.36 5.03-20.887-4.156-2.749-9.454-16.419-9.525-19.189 0a11.987 11.987 0 0 1-9.185 8.408 11.989 11.989 0 0 1-11.703-4.254c-6.158-7.683-18.814-2.516-17.729 7.344 1.191 9.488-9.425 16.539-17.708 11.831-8.629-4.74-18.344 4.874-13.569 13.569 2.153 3.944 1.943 8.711-.549 12.44s-6.816 5.749-11.284 5.267c-9.785-1.075-15.084 11.522-7.344 17.729a11.987 11.987 0 0 1 4.254 11.704 11.988 11.988 0 0 1-8.408 9.184c-9.454 2.748-9.525 16.419 0 19.189 9.221 2.53 11.674 15.038 4.155 20.887-7.685 6.16-2.516 18.81 7.343 17.729 9.487-1.191 16.542 9.425 11.832 17.708-4.742 8.628 4.877 18.346 13.57 13.569a11.985 11.985 0 0 1 12.44.549 11.985 11.985 0 0 1 5.267 11.283 10 10 0 0 0 17.729 7.344c5.865-7.553 18.361-5.031 20.888 4.155a10 10 0 0 0 19.19 0 11.984 11.984 0 0 1 9.185-8.408 11.986 11.986 0 0 1 11.703 4.254 10 10 0 0 0 17.729-7.344c-1.192-9.486 9.425-16.542 17.708-11.831a10 10 0 0 0 13.569-13.569c-4.731-8.31 2.378-18.889 11.833-17.708a9.998 9.998 0 0 0 7.342-17.729 11.987 11.987 0 0 1-4.253-11.704 11.987 11.987 0 0 1 8.408-9.184c9.454-2.749 9.524-16.418-.001-19.189zm-28.023 24.471a31.973 31.973 0 0 0 1.073 16.549c-9.963 4.71-17.262 15.634-17.801 26.641-11.007.539-21.931 7.838-26.641 17.801-10.374-3.714-23.261-1.151-31.425 6.25-8.214-7.397-20.915-9.97-31.425-6.25-4.71-9.963-15.635-17.262-26.641-17.801-.539-11.007-7.838-21.931-17.801-26.641 3.714-10.375 1.151-23.261-6.251-31.425 7.402-8.164 9.965-21.05 6.25-31.425 9.963-4.711 17.262-15.634 17.801-26.641 11.007-.539 21.931-7.838 26.641-17.8 10.376 3.712 23.261 1.151 31.425-6.251 8.164 7.402 21.052 9.965 31.425 6.251 4.71 9.963 15.635 17.262 26.641 17.801.539 11.007 7.839 21.931 17.8 26.641-3.713 10.376-1.15 23.261 6.251 31.425a31.963 31.963 0 0 0-7.322 14.875z" />
      <path d="M256.001 141.001c-30.328 0-55 24.673-55 55 2.765 72.865 107.247 72.845 110.001-.001-.001-30.326-24.674-54.999-55.001-54.999zm0 90c-19.299 0-35-15.701-35-35 1.76-46.369 68.248-46.357 70.001 0-.001 19.299-15.702 35-35.001 35z" />
    </svg>
    <svg xmlns="http://www.w3.org/2000/svg" width="512" viewBox="0 0 511.922 511.922" height="512" id="o">
      <path d="M398.428 176.328c11.604-25.854 9.567-56.553-5.532-84.575l-4.867-82.341a10 10 0 0 0-9.982-9.41h-39.113c-5.372-.104-10.106 4.626-10 10l.001 50c0 28.876-15.996 48.646-42.778 52.883-12.562 1.975-22.133 7.064-30.228 16.396-8.095-9.332-17.662-14.421-30.217-16.395-26.793-4.238-42.788-24.009-42.788-52.885l-.001-50c0-5.523-4.478-10-10-10H133.81a10 10 0 0 0-9.982 9.41l-4.866 82.341c-23.067 41.68-15.078 92.33 22.695 118.79 25.203 80.93-23.612 111.869-22.845 188.659a9.999 9.999 0 0 0 6.343 9.308c55.728 22.508 74.453 57.951 99.503 93.847a9.997 9.997 0 0 0 3.11 2.879c13.693 8.902 42.598 8.928 56.321-.001a9.98 9.98 0 0 0 3.109-2.878c25.048-35.877 43.786-71.354 99.504-93.848a10 10 0 0 0 6.344-9.307c.766-76.794-48.05-107.723-22.846-188.659a83.428 83.428 0 0 0 28.228-34.214zm-222.963 150.42c-6.323 25.418-12.815 51.515-12.159 78.594-7.383-4.614-15.466-8.91-24.364-12.772 3.115-66.435 41.753-97.196 26.437-170.281a93.607 93.607 0 0 0 5.376 1.544c23.356 27.976 14.694 62.78 4.71 102.915zm197.45 65.821c-8.898 3.862-16.981 8.158-24.364 12.772 4.418-58.351-46.176-135.653-7.448-181.51a93.607 93.607 0 0 0 5.376-1.544c-15.316 73.09 23.321 103.844 26.436 170.282zm-39.347-187.507a9.985 9.985 0 0 0-5.282 3.044c-55.011 63.132 11.736 141.683-1.173 212.999-25.555 22.136-38.988 44.687-54.937 67.823-7.648 4.038-24.874 4.028-32.495 0-15.941-23.129-29.388-45.695-54.936-67.822-12.909-71.293 53.834-149.886-1.172-213a10.005 10.005 0 0 0-5.284-3.044c-21.145-4.575-38.135-18.033-46.613-36.924-9.396-20.934-7.321-45.305 5.843-68.622a9.983 9.983 0 0 0 1.274-4.326l4.443-75.188h19.686l.001 40c-.457 37.447 23.211 67.076 59.673 72.64 10.528 1.655 16.85 6.148 23.332 16.861v46.118c0 5.522 4.478 10 10 10s10-4.478 10-10v-46.118c6.482-10.713 12.805-15.207 23.343-16.863 36.454-5.566 60.12-35.195 59.663-72.639l-.001-40h19.687l4.444 75.188c.09 1.521.525 3 1.274 4.326 25.567 42.068 7.227 95.494-40.77 105.547z" />
    </svg>
    <svg xmlns="http://www.w3.org/2000/svg" width="512" viewBox="0 0 511.629 511.629" height="512" id="p">
      <path d="M482.26 392.782c-4.361-22.933-27.372-39.525-51.11-35.59 7.604-5.592 17.135-8.265 26.88-7.215a10 10 0 0 0 7.343-17.729c-11.186-9.015-16.396-23.358-13.598-37.431 2.8-14.073 13.103-25.33 26.888-29.379 9.471-2.793 9.521-16.393-.001-19.189-29.538-8.296-37.366-47.874-13.287-66.809a10 10 0 0 0-7.345-17.729c-30.453 3.649-52.85-29.938-37.843-56.639a10.002 10.002 0 0 0-13.57-13.569c-26.713 15.029-60.295-7.437-56.639-37.845a10 10 0 0 0-17.729-7.343c-18.914 24.11-58.561 16.196-66.809-13.29a10.001 10.001 0 0 0-19.19.001c-4.048 13.785-15.305 24.087-29.378 26.887-14.071 2.798-28.415-2.411-37.431-13.598-6.109-7.65-18.807-2.58-17.729 7.343 1.535 14.28-4.918 28.101-16.84 36.074C101.099 49.62 28.24 77.664 22.119 136.208c-34.21 11.351-26.956 61.368 9.509 62.116h27.408c6.33 19.787-5.911 42.442-26.01 47.925a10 10 0 0 0 0 19.19c29.534 8.297 37.372 47.871 13.289 66.81-7.7 6.2-2.498 18.799 7.345 17.729 30.438-3.653 52.856 29.935 37.843 56.639a10.002 10.002 0 0 0 13.57 13.569c26.707-15.028 60.297 7.435 56.638 37.845-1.103 9.781 11.546 15.078 17.729 7.343 18.908-24.106 58.564-16.2 66.809 13.29 2.744 9.443 16.387 9.551 19.19 0 1.734-5.902 4.91-11.35 9.147-15.791a33.386 33.386 0 0 0 19.455 6.227h179.104c45.831-1.073 53.018-64.752 9.115-76.318zM180.006 72.755c24.059 14.862 59.298 7.854 75.838-15.085 16.542 22.94 51.778 29.948 75.839 15.085 6.503 27.523 36.378 47.485 64.293 42.958-4.523 27.918 15.435 57.789 42.958 64.293-14.861 24.061-7.854 59.296 15.085 75.837-22.94 16.542-29.946 51.778-15.085 75.839a58.178 58.178 0 0 0-28.158 17.063 79.584 79.584 0 0 0-17.967-10.156c78.461-131.105-54.106-287.322-196.281-231.388-6.683-7.55-16.011-12.706-26.518-14.003a58.166 58.166 0 0 0 9.996-20.443zm106.459 319.727C174.829 417.951 80.71 302.386 128.166 198.325h69.008c43.017-.992 50.068-60.569 9.068-71.916a43.36 43.36 0 0 0-.325-1.404C333.029 77.369 447.01 220.04 372.434 333.362c-39.558-4.969-76.844 21.835-85.969 59.12zM19.844 166.54c0-6.498 5.286-11.785 11.784-11.785 5.522 0 10-4.477 10-10 .167-52.265 67.562-73.68 97.886-31.191a10 10 0 0 0 13.442 2.691c14.42-9.354 34.542 1.783 34.218 19.015 0 5.523 4.478 10 10 10 21.849.806 21.931 32.215 0 33.055H31.627c-6.497 0-11.783-5.287-11.783-11.785zm236.025 287.513c-16.534-22.966-51.788-29.988-75.863-15.118-6.505-27.526-36.373-47.481-64.293-42.959 4.525-27.918-15.436-57.788-42.958-64.293 14.862-24.062 7.852-59.296-15.086-75.838 17.19-12.677 26.324-36.318 21.947-57.52h26.871c-42.971 106.608 45.968 227.073 160.67 217.123-6.531 8.359-8.582 21.151-4.743 31.339a58.866 58.866 0 0 0-6.545 7.266zm217.275-4.955H294.04c-17.927-.663-18.018-26.436 0-27.136 5.522 0 10-4.477 10-10 .182-57.338 74.121-80.835 107.388-34.22a10 10 0 0 0 13.444 2.69c16.256-10.433 38.532 1.909 38.273 21.266 0 5.523 4.477 10 10 10 24.723.914 24.812 36.45-.001 37.4z" />
    </svg>
    <svg xmlns="http://www.w3.org/2000/svg" width="512" viewBox="0 0 512 512" height="512" id="q">
      <path d="M212.185 33.652c-4.407-.783-8.57-1.523-12.448-2.562C178.201 24.252 169.864-.105 142.399 0c-27.468-.099-35.775 24.232-57.337 31.09-25.76 6.469-57.883 3.671-59.063 50.281C27.672 203.259 73.733 251.136 72.398 382c.002 0 .002 60 .002 60 3.451 92.594 136.446 92.844 140-.001V382c0-72.187 12.572-119.305 24.729-164.871 11.144-41.768 21.67-81.218 21.67-135.757 0-39.43-26.942-44.221-46.614-47.72zM142.4 332c24.169 0 44.387 17.237 49.007 40.064-25.816-26.527-72.206-26.52-98.015 0C98.012 349.237 118.23 332 142.4 332zm49.999 110c-2.511 66.236-97.494 66.227-100-.001V422c0-27.57 22.43-50 50-50s50 22.43 50 50zm25.405-230.028c-9.664 36.222-19.583 73.399-23.577 123.024a70.367 70.367 0 0 0-23.024-16.793l17.121-137.467c.683-5.481-3.207-10.478-8.688-11.16-5.477-.669-10.476 3.207-11.159 8.688l-16.734 134.357a70.793 70.793 0 0 0-18.69 0L116.32 178.263c-.683-5.48-5.676-9.358-11.159-8.688-5.48.683-9.37 5.679-8.688 11.16l17.12 137.467a70.353 70.353 0 0 0-23.024 16.793C83.258 233.734 46.68 182.477 45.999 81.372c-1.371-28.657 22.306-25.078 44.239-30.964 12.589-3.373 21.296-11.059 28.978-17.84 17.703-16.778 28.657-16.79 46.367 0 13.056 12.137 23.555 18.087 43.1 20.774 20.883 3.714 30.115 6.273 30.115 28.029.001 51.918-10.197 90.138-20.994 130.601zM464.33 294.872c-12.158-45.566-24.729-92.685-24.729-164.871V70c-3.451-92.594-136.447-92.844-140 .001v60c0 72.187-12.572 119.305-24.729 164.871-11.144 41.767-21.67 81.217-21.67 135.756 1.17 46.645 33.318 43.763 59.061 50.282 21.537 6.838 29.873 31.195 57.339 31.089 27.468.099 35.776-24.231 57.337-31.09 3.877-1.038 8.04-1.778 12.447-2.562 19.673-3.498 46.615-8.288 46.615-47.72-.001-54.538-10.527-93.989-21.671-135.755zM369.601 180c-24.169 0-44.388-17.238-49.008-40.064 25.816 26.528 72.207 26.521 98.016 0C413.989 162.762 393.77 180 369.601 180zm-50-110c2.511-66.235 97.495-66.228 100 .001V90c0 27.57-22.43 50-50 50s-50-22.43-50-50zm116.283 388.656c-4.629.823-9.415 1.675-14.122 2.936-23.055 5.339-34.532 30.457-52.161 30.409-17.494.116-29.24-25.138-52.162-30.408-21.911-5.886-45.622-2.306-44.237-30.965.68-101.113 37.257-152.349 44.57-253.624a70.346 70.346 0 0 0 23.025 16.793l-17.121 137.468c-.683 5.481 3.207 10.478 8.688 11.16 5.374.7 10.5-3.183 11.159-8.688l16.734-134.358a70.786 70.786 0 0 0 18.689 0l16.734 134.358c.658 5.503 5.785 9.39 11.159 8.687 5.48-.683 9.37-5.679 8.688-11.16l-17.121-137.468a70.357 70.357 0 0 0 23.025-16.793c7.31 101.267 43.894 152.517 44.572 253.624-.003 21.758-9.236 24.316-30.119 28.029z" />
    </svg>
  </defs>
  <g data-name="046-coconut.svg">
    <g transform="matrix(.244 0 0 .244 459.265 273.101)">
      <path fill="transparent" d="M0 0h512v512H0z" />
      <use xlink:href="#a" />
    </g>
    <g transform="matrix(.244 0 0 .244 -52.735 273.101)">
      <path fill="transparent" d="M0 0h512v512H0z" />
      <use xlink:href="#a" />
    </g>
  </g>
  <g data-name="020-pineapple.svg">
    <g transform="rotate(-32 892.04 -421.258) scale(.244)">
      <path fill="transparent" d="M0 0h512v512H0z" />
      <use xlink:href="#b" />
    </g>
    <g transform="rotate(-32 -.739 -677.258) scale(.244)">
      <path fill="transparent" d="M0 0h512v512H0z" />
      <use xlink:href="#b" />
    </g>
    <g transform="rotate(-32 636.04 471.52) scale(.244)">
      <path fill="transparent" d="M0 0h512v512H0z" />
      <use xlink:href="#b" />
    </g>
    <g transform="rotate(-32 -256.739 215.52) scale(.244)">
      <path fill="transparent" d="M0 0h512v512H0z" />
      <use xlink:href="#b" />
    </g>
  </g>
  <g data-name="015-pamela hat.svg">
    <g transform="rotate(34 -314.188 1066.847) scale(.25)">
      <path fill="transparent" d="M0 0h512v512H0z" />
      <use xlink:href="#c" />
    </g>
    <g transform="rotate(34 523.15 810.847) scale(.25)">
      <path fill="transparent" d="M0 0h512v512H0z" />
      <use xlink:href="#c" />
    </g>
    <g transform="rotate(34 -570.188 229.509) scale(.25)">
      <path fill="transparent" d="M0 0h512v512H0z" />
      <use xlink:href="#c" />
    </g>
    <g transform="rotate(34 267.15 -26.491) scale(.25)">
      <path fill="transparent" d="M0 0h512v512H0z" />
      <use xlink:href="#c" />
    </g>
  </g>
  <g data-name="018-slippers.svg">
    <g transform="rotate(-1 28227.804 -3502.185) scale(.25)">
      <path fill="transparent" d="M0 0h512v512H0z" />
      <use xlink:href="#d" />
    </g>
    <g transform="rotate(-1 -1106.89 -3758.185) scale(.25)">
      <path fill="transparent" d="M0 0h512v512H0z" />
      <use xlink:href="#d" />
    </g>
  </g>
  <g transform="rotate(-4 2681.157 -2843.623) scale(.25)" data-name="036-fish.svg">
    <path fill="transparent" d="M0 0h512v512H0z" />
    <use xlink:href="#e" />
  </g>
  <g data-name="014-volleyball.svg">
    <g transform="matrix(.25 0 0 .25 445.115 492.07)">
      <path fill="transparent" d="M0 0h512v512H0z" />
      <use xlink:href="#f" />
    </g>
    <g transform="matrix(.25 0 0 .25 445.115 -19.93)">
      <path fill="transparent" d="M0 0h512v512H0z" />
      <use xlink:href="#f" />
    </g>
    <g transform="matrix(.25 0 0 .25 -66.885 492.07)">
      <path fill="transparent" d="M0 0h512v512H0z" />
      <use xlink:href="#f" />
    </g>
    <g transform="matrix(.25 0 0 .25 -66.885 -19.93)">
      <path fill="transparent" d="M0 0h512v512H0z" />
      <use xlink:href="#f" />
    </g>
  </g>
  <g transform="matrix(.25 0 0 .25 90.602 360.584)" data-name="004-sun.svg">
    <path fill="transparent" d="M0 0h512v512H0z" />
    <use xlink:href="#g" />
  </g>
  <g transform="rotate(26 -94.499 317.738) scale(.25)" data-name="039-compass.svg">
    <path fill="transparent" d="M0 0h512v512H0z" />
    <use xlink:href="#h" />
  </g>
  <g transform="rotate(-7 2063.613 -447.78) scale(.25)" data-name="030-ice box.svg">
    <path fill="transparent" d="M0 0h512v512H0z" />
    <use xlink:href="#i" />
  </g>
  <g transform="rotate(-6 1081.934 -3154.307) scale(.25)" data-name="009-shirt.svg">
    <path fill="transparent" d="M0 0h512v512H0z" />
    <use xlink:href="#j" />
  </g>
  <g data-name="049-lifebuoy.svg">
    <g transform="rotate(-4 2051.845 -6626.2) scale(.25)">
      <path fill="transparent" d="M0 0h512v512H0z" />
      <use xlink:href="#k" />
    </g>
    <g transform="rotate(-4 1795.845 704.68) scale(.25)">
      <path fill="transparent" d="M0 0h512v512H0z" />
      <use xlink:href="#k" />
    </g>
  </g>
  <g data-name="007-fan.svg">
    <g transform="rotate(8 -3065.613 2600.853) scale(.25)">
      <path fill="transparent" d="M0 0h512v512H0z" />
      <use xlink:href="#l" />
    </g>
    <g transform="rotate(8 595.358 2344.853) scale(.25)">
      <path fill="transparent" d="M0 0h512v512H0z" />
      <use xlink:href="#l" />
    </g>
  </g>
  <g data-name="006-fedora hat.svg">
    <g transform="rotate(-5 5210.806 -1986.975) scale(.25)">
      <path fill="transparent" d="M0 0h512v512H0z" />
      <use xlink:href="#m" />
    </g>
    <g transform="rotate(-5 -652.558 -2242.975) scale(.25)">
      <path fill="transparent" d="M0 0h512v512H0z" />
      <use xlink:href="#m" />
    </g>
  </g>
  <g transform="rotate(2 -8654.734 5744.182) scale(.25)" data-name="022-sunscreen.svg">
    <path fill="transparent" d="M0 0h512v512H0z" />
    <use xlink:href="#n" />
  </g>
  <g transform="rotate(16 -1033.657 1210.904) scale(.25)" data-name="034-swimsuit.svg">
    <path fill="transparent" d="M0 0h512v512H0z" />
    <use xlink:href="#o" />
  </g>
  <g transform="matrix(-.25 0 0 .25 472.18 219.938)" data-name="004-sun.svg">
    <path fill="transparent" d="M0 0h512v512H0z" />
    <use xlink:href="#p" />
  </g>
  <g transform="rotate(-4 900.703 -2968.286) scale(.25)" data-name="037-fins.svg">
    <path fill="transparent" d="M0 0h512v512H0z" />
    <use xlink:href="#q" />
  </g>
</svg>
