<?xml version="1.0" encoding="UTF-8" standalone="no"?><svg xmlns="http://www.w3.org/2000/svg" xmlns:xlink="http://www.w3.org/1999/xlink"><symbol id="dash" xmlns="http://www.w3.org/2000/svg" width="16" height="16" viewBox="0 0 16 16"><path d="M4 8a.5.5 0 0 1 .5-.5h7a.5.5 0 0 1 0 1h-7A.5.5 0 0 1 4 8z"></path></symbol><symbol id="arrow-left" xmlns="http://www.w3.org/2000/svg" width="16" height="16" viewBox="0 0 16 16"><path fill-rule="evenodd" d="M15 8a.5.5 0 0 0-.5-.5H2.707l3.147-3.146a.5.5 0 1 0-.708-.708l-4 4a.5.5 0 0 0 0 .708l4 4a.5.5 0 0 0 .708-.708L2.707 8.5H14.5A.5.5 0 0 0 15 8z"></path></symbol><symbol id="eye" width="1em" height="1em" viewBox="0 0 16 16" xmlns="http://www.w3.org/2000/svg"><path fill-rule="evenodd" d="M16 8s-3-5.5-8-5.5S0 8 0 8s3 5.5 8 5.5S16 8 16 8zM1.173 8a13.134 13.134 0 0 0 1.66 2.043C4.12 11.332 5.88 12.5 8 12.5c2.12 0 3.879-1.168 5.168-2.457A13.134 13.134 0 0 0 14.828 8a13.133 13.133 0 0 0-1.66-2.043C11.879 4.668 10.119 3.5 8 3.5c-2.12 0-3.879 1.168-5.168 2.457A13.133 13.133 0 0 0 1.172 8z"></path><path fill-rule="evenodd" d="M8 5.5a2.5 2.5 0 1 0 0 5 2.5 2.5 0 0 0 0-5zM4.5 8a3.5 3.5 0 1 1 7 0 3.5 3.5 0 0 1-7 0z"></path></symbol><symbol id="box-arrow-in-down" xmlns="http://www.w3.org/2000/svg" width="16" height="16" viewBox="0 0 16 16"><path fill-rule="evenodd" d="M3.5 6a.5.5 0 0 0-.5.5v8a.5.5 0 0 0 .5.5h9a.5.5 0 0 0 .5-.5v-8a.5.5 0 0 0-.5-.5h-2a.5.5 0 0 1 0-1h2A1.5 1.5 0 0 1 14 6.5v8a1.5 1.5 0 0 1-1.5 1.5h-9A1.5 1.5 0 0 1 2 14.5v-8A1.5 1.5 0 0 1 3.5 5h2a.5.5 0 0 1 0 1h-2z"></path><path fill-rule="evenodd" d="M7.646 11.854a.5.5 0 0 0 .708 0l3-3a.5.5 0 0 0-.708-.708L8.5 10.293V1.5a.5.5 0 0 0-1 0v8.793L5.354 8.146a.5.5 0 1 0-.708.708l3 3z"></path></symbol><symbol id="code-slash" width="1em" height="1em" viewBox="0 0 16 16" xmlns="http://www.w3.org/2000/svg"><path fill-rule="evenodd" d="M4.854 4.146a.5.5 0 0 1 0 .708L1.707 8l3.147 3.146a.5.5 0 0 1-.708.708l-3.5-3.5a.5.5 0 0 1 0-.708l3.5-3.5a.5.5 0 0 1 .708 0zm6.292 0a.5.5 0 0 0 0 .708L14.293 8l-3.147 3.146a.5.5 0 0 0 .708.708l3.5-3.5a.5.5 0 0 0 0-.708l-3.5-3.5a.5.5 0 0 0-.708 0zm-.999-3.124a.5.5 0 0 1 .33.625l-4 13a.5.5 0 0 1-.955-.294l4-13a.5.5 0 0 1 .625-.33z"></path></symbol><symbol id="github" xmlns="http://www.w3.org/2000/svg" width="16" height="16" viewBox="0 0 16 16"><path d="M8 0C3.58 0 0 3.58 0 8c0 3.54 2.29 6.53 5.47 7.59.4.07.55-.17.55-.38 0-.19-.01-.82-.01-1.49-2.01.37-2.53-.49-2.69-.94-.09-.23-.48-.94-.82-1.13-.28-.15-.68-.52-.01-.53.63-.01 1.08.58 1.23.82.72 1.21 1.87.87 2.33.66.07-.52.28-.87.51-1.07-1.78-.2-3.64-.89-3.64-3.95 0-.87.31-1.59.82-2.15-.08-.2-.36-1.02.08-2.12 0 0 .67-.21 2.2.82.64-.18 1.32-.27 2-.27.68 0 1.36.09 2 .27 1.53-1.04 2.2-.82 2.2-.82.44 1.1.16 1.92.08 2.12.51.56.82 1.27.82 2.15 0 3.07-1.87 3.75-3.65 3.95.29.25.54.73.54 1.48 0 1.07-.01 1.93-.01 2.2 0 .21.15.46.55.38A8.012 8.012 0 0 0 16 8c0-4.42-3.58-8-8-8z"></path></symbol><symbol id="file-earmark-plus" width="1em" height="1em" viewBox="0 0 16 16" xmlns="http://www.w3.org/2000/svg"><path d="M9 1H4a2 2 0 0 0-2 2v10a2 2 0 0 0 2 2h5v-1H4a1 1 0 0 1-1-1V3a1 1 0 0 1 1-1h5v2.5A1.5 1.5 0 0 0 10.5 6H13v2h1V6L9 1z"></path><path fill-rule="evenodd" d="M13.5 10a.5.5 0 0 1 .5.5v2a.5.5 0 0 1-.5.5h-2a.5.5 0 0 1 0-1H13v-1.5a.5.5 0 0 1 .5-.5z"></path><path fill-rule="evenodd" d="M13 12.5a.5.5 0 0 1 .5-.5h2a.5.5 0 0 1 0 1H14v1.5a.5.5 0 0 1-1 0v-2z"></path></symbol><symbol id="grip-horizontal" xmlns="http://www.w3.org/2000/svg" width="16" height="16" viewBox="0 0 16 16"><path d="M2 8a1 1 0 1 1 0 2 1 1 0 0 1 0-2zm0-3a1 1 0 1 1 0 2 1 1 0 0 1 0-2zm3 3a1 1 0 1 1 0 2 1 1 0 0 1 0-2zm0-3a1 1 0 1 1 0 2 1 1 0 0 1 0-2zm3 3a1 1 0 1 1 0 2 1 1 0 0 1 0-2zm0-3a1 1 0 1 1 0 2 1 1 0 0 1 0-2zm3 3a1 1 0 1 1 0 2 1 1 0 0 1 0-2zm0-3a1 1 0 1 1 0 2 1 1 0 0 1 0-2zm3 3a1 1 0 1 1 0 2 1 1 0 0 1 0-2zm0-3a1 1 0 1 1 0 2 1 1 0 0 1 0-2z"></path></symbol><symbol id="grip-vertical" xmlns="http://www.w3.org/2000/svg" width="16" height="16" viewBox="0 0 16 16"><path d="M7 2a1 1 0 1 1-2 0 1 1 0 0 1 2 0zm3 0a1 1 0 1 1-2 0 1 1 0 0 1 2 0zM7 5a1 1 0 1 1-2 0 1 1 0 0 1 2 0zm3 0a1 1 0 1 1-2 0 1 1 0 0 1 2 0zM7 8a1 1 0 1 1-2 0 1 1 0 0 1 2 0zm3 0a1 1 0 1 1-2 0 1 1 0 0 1 2 0zm-3 3a1 1 0 1 1-2 0 1 1 0 0 1 2 0zm3 0a1 1 0 1 1-2 0 1 1 0 0 1 2 0zm-3 3a1 1 0 1 1-2 0 1 1 0 0 1 2 0zm3 0a1 1 0 1 1-2 0 1 1 0 0 1 2 0z"></path></symbol><symbol id="image" width="1.0625em" height="1em" viewBox="0 0 17 16" xmlns="http://www.w3.org/2000/svg"><path fill-rule="evenodd" d="M14.002 2h-12a1 1 0 0 0-1 1v9l2.646-2.354a.5.5 0 0 1 .63-.062l2.66 1.773 3.71-3.71a.5.5 0 0 1 .577-.094L15.002 9.5V3a1 1 0 0 0-1-1zm-12-1a2 2 0 0 0-2 2v10a2 2 0 0 0 2 2h12a2 2 0 0 0 2-2V3a2 2 0 0 0-2-2h-12zm4 4.5a1.5 1.5 0 1 1-3 0 1.5 1.5 0 0 1 3 0z"></path></symbol><symbol id="hr" width="1em" height="1em" viewBox="0 0 16 16" xmlns="http://www.w3.org/2000/svg"><path fill-rule="evenodd" d="M0 8a.5.5 0 0 1 .5-.5h15a.5.5 0 0 1 0 1H.5A.5.5 0 0 1 0 8z"></path><path d="M4 3h8a1 1 0 0 1 1 1v2.5h1V4a2 2 0 0 0-2-2H4a2 2 0 0 0-2 2v2.5h1V4a1 1 0 0 1 1-1zM3 9.5H2V12a2 2 0 0 0 2 2h8a2 2 0 0 0 2-2V9.5h-1V12a1 1 0 0 1-1 1H4a1 1 0 0 1-1-1V9.5z"></path></symbol><symbol id="eye-slash" width="1em" height="1em" viewBox="0 0 16 16" xmlns="http://www.w3.org/2000/svg"><path d="M13.359 11.238C15.06 9.72 16 8 16 8s-3-5.5-8-5.5a7.028 7.028 0 0 0-2.79.588l.77.771A5.944 5.944 0 0 1 8 3.5c2.12 0 3.879 1.168 5.168 2.457A13.134 13.134 0 0 1 14.828 8c-.058.087-.122.183-.195.288-.335.48-.83 1.12-1.465 1.755-.165.165-.337.328-.517.486l.708.709z"></path><path d="M11.297 9.176a3.5 3.5 0 0 0-4.474-4.474l.823.823a2.5 2.5 0 0 1 2.829 2.829l.822.822zm-2.943 1.299l.822.822a3.5 3.5 0 0 1-4.474-4.474l.823.823a2.5 2.5 0 0 0 2.829 2.829z"></path><path d="M3.35 5.47c-.18.16-.353.322-.518.487A13.134 13.134 0 0 0 1.172 8l.195.288c.335.48.83 1.12 1.465 1.755C4.121 11.332 5.881 12.5 8 12.5c.716 0 1.39-.133 2.02-.36l.77.772A7.029 7.029 0 0 1 8 13.5C3 13.5 0 8 0 8s.939-1.721 2.641-3.238l.708.709z"></path><path fill-rule="evenodd" d="M13.646 14.354l-12-12 .708-.708 12 12-.708.708z"></path></symbol><symbol id="link" width="1em" height="1em" viewBox="0 0 16 16" xmlns="http://www.w3.org/2000/svg"><path d="M6.354 5.5H4a3 3 0 0 0 0 6h3a3 3 0 0 0 2.83-4H9c-.086 0-.17.01-.25.031A2 2 0 0 1 7 10.5H4a2 2 0 1 1 0-4h1.535c.218-.376.495-.714.82-1z"></path><path d="M9 5.5a3 3 0 0 0-2.83 4h1.098A2 2 0 0 1 9 6.5h3a2 2 0 1 1 0 4h-1.535a4.02 4.02 0 0 1-.82 1H12a3 3 0 1 0 0-6H9z"></path></symbol><symbol id="list-ol" width="1em" height="1em" viewBox="0 0 16 16" xmlns="http://www.w3.org/2000/svg"><path fill-rule="evenodd" d="M5 11.5a.5.5 0 0 1 .5-.5h9a.5.5 0 0 1 0 1h-9a.5.5 0 0 1-.5-.5zm0-4a.5.5 0 0 1 .5-.5h9a.5.5 0 0 1 0 1h-9a.5.5 0 0 1-.5-.5zm0-4a.5.5 0 0 1 .5-.5h9a.5.5 0 0 1 0 1h-9a.5.5 0 0 1-.5-.5z"></path><path d="M1.713 11.865v-.474H2c.217 0 .363-.137.363-.317 0-.185-.158-.31-.361-.31-.223 0-.367.152-.373.31h-.59c.016-.467.373-.787.986-.787.588-.002.954.291.957.703a.595.595 0 0 1-.492.594v.033a.615.615 0 0 1 .569.631c.003.533-.502.8-1.051.8-.656 0-1-.37-1.008-.794h.582c.008.178.186.306.422.309.254 0 .424-.145.422-.35-.002-.195-.155-.348-.414-.348h-.3zm-.004-4.699h-.604v-.035c0-.408.295-.844.958-.844.583 0 .96.326.96.756 0 .389-.257.617-.476.848l-.537.572v.03h1.054V9H1.143v-.395l.957-.99c.138-.142.293-.304.293-.508 0-.18-.147-.32-.342-.32a.33.33 0 0 0-.342.338v.041zM2.564 5h-.635V2.924h-.031l-.598.42v-.567l.629-.443h.635V5z"></path></symbol><symbol id="list-ul" width="1em" height="1em" viewBox="0 0 16 16" xmlns="http://www.w3.org/2000/svg"><path fill-rule="evenodd" d="M5 11.5a.5.5 0 0 1 .5-.5h9a.5.5 0 0 1 0 1h-9a.5.5 0 0 1-.5-.5zm0-4a.5.5 0 0 1 .5-.5h9a.5.5 0 0 1 0 1h-9a.5.5 0 0 1-.5-.5zm0-4a.5.5 0 0 1 .5-.5h9a.5.5 0 0 1 0 1h-9a.5.5 0 0 1-.5-.5zm-3 1a1 1 0 1 0 0-2 1 1 0 0 0 0 2zm0 4a1 1 0 1 0 0-2 1 1 0 0 0 0 2zm0 4a1 1 0 1 0 0-2 1 1 0 0 0 0 2z"></path></symbol><symbol id="person" width="1em" height="1em" viewBox="0 0 16 16" xmlns="http://www.w3.org/2000/svg"><path fill-rule="evenodd" d="M13 14s1 0 1-1-1-4-6-4-6 3-6 4 1 1 1 1h10zm-9.995-.944v-.002.002zM3.022 13h9.956a.274.274 0 0 0 .014-.002l.008-.002c-.001-.246-.154-.986-.832-1.664C11.516 10.68 10.289 10 8 10c-2.29 0-3.516.68-4.168 1.332-.678.678-.83 1.418-.832 1.664a1.05 1.05 0 0 0 .022.004zm9.974.056v-.002.002zM8 7a2 2 0 1 0 0-4 2 2 0 0 0 0 4zm3-2a3 3 0 1 1-6 0 3 3 0 0 1 6 0z"></path></symbol><symbol id="list" width="1em" height="1em" viewBox="0 0 16 16" xmlns="http://www.w3.org/2000/svg"><path fill-rule="evenodd" d="M2.5 11.5A.5.5 0 0 1 3 11h10a.5.5 0 0 1 0 1H3a.5.5 0 0 1-.5-.5zm0-4A.5.5 0 0 1 3 7h10a.5.5 0 0 1 0 1H3a.5.5 0 0 1-.5-.5zm0-4A.5.5 0 0 1 3 3h10a.5.5 0 0 1 0 1H3a.5.5 0 0 1-.5-.5z"></path></symbol><symbol id="moon-fill" xmlns="http://www.w3.org/2000/svg" width="16" height="16" viewBox="0 0 16 16"><path d="M6 .278a.768.768 0 0 1 .08.858 7.208 7.208 0 0 0-.878 3.46c0 4.021 3.278 7.277 7.318 7.277.527 0 1.04-.055 1.533-.16a.787.787 0 0 1 .81.316.733.733 0 0 1-.031.893A8.349 8.349 0 0 1 8.344 16C3.734 16 0 12.286 0 7.71 0 4.266 2.114 1.312 5.124.06A.752.752 0 0 1 6 .278z"></path></symbol><symbol id="moon" xmlns="http://www.w3.org/2000/svg" width="16" height="16" viewBox="0 0 16 16"><path d="M6 .278a.768.768 0 0 1 .08.858 7.208 7.208 0 0 0-.878 3.46c0 4.021 3.278 7.277 7.318 7.277.527 0 1.04-.055 1.533-.16a.787.787 0 0 1 .81.316.733.733 0 0 1-.031.893A8.349 8.349 0 0 1 8.344 16C3.734 16 0 12.286 0 7.71 0 4.266 2.114 1.312 5.124.06A.752.752 0 0 1 6 .278zM4.858 1.311A7.269 7.269 0 0 0 1.025 7.71c0 4.02 3.279 7.276 7.319 7.276a7.316 7.316 0 0 0 5.205-2.162c-.337.042-.68.063-1.029.063-4.61 0-8.343-3.714-8.343-8.29 0-1.167.242-2.278.681-3.286z"></path></symbol><symbol id="mouse2" xmlns="http://www.w3.org/2000/svg" width="16" height="16" viewBox="0 0 16 16"><path d="M3 5.188C3 2.341 5.22 0 8 0s5 2.342 5 5.188v5.625C13 13.658 10.78 16 8 16s-5-2.342-5-5.188V5.189zm4.5-4.155C5.541 1.289 4 3.035 4 5.188V5.5h3.5V1.033zm1 0V5.5H12v-.313c0-2.152-1.541-3.898-3.5-4.154zM12 6.5H4v4.313C4 13.145 5.81 15 8 15s4-1.855 4-4.188V6.5z"></path></symbol><symbol id="pin-angle" xmlns="http://www.w3.org/2000/svg" width="16" height="16" viewBox="0 0 16 16"><path d="M9.828.722a.5.5 0 0 1 .354.146l4.95 4.95a.5.5 0 0 1 0 .707c-.48.48-1.072.588-1.503.588-.177 0-.335-.018-.46-.039l-3.134 3.134a5.927 5.927 0 0 1 .16 1.013c.046.702-.032 1.687-.72 2.375a.5.5 0 0 1-.707 0l-2.829-2.828-3.182 3.182c-.195.195-1.219.902-1.414.707-.195-.195.512-1.22.707-1.414l3.182-3.182-2.828-2.829a.5.5 0 0 1 0-.707c.688-.688 1.673-.767 2.375-.72a5.922 5.922 0 0 1 1.013.16l3.134-3.133a2.772 2.772 0 0 1-.04-.461c0-.43.108-1.022.589-1.503a.5.5 0 0 1 .353-.146zm.122 2.112v-.002.002zm0-.002v.002a.5.5 0 0 1-.122.51L6.293 6.878a.5.5 0 0 1-.511.12H5.78l-.014-.004a4.507 4.507 0 0 0-.288-.076 4.922 4.922 0 0 0-.765-.116c-.422-.028-.836.008-1.175.15l5.51 5.509c.141-.34.177-.753.149-1.175a4.924 4.924 0 0 0-.192-1.054l-.004-.013v-.001a.5.5 0 0 1 .12-.512l3.536-3.535a.5.5 0 0 1 .532-.115l.096.022c.087.017.208.034.344.034.114 0 .23-.011.343-.04L9.927 2.028c-.029.113-.04.23-.04.343a1.779 1.779 0 0 0 .062.46z"></path></symbol><symbol id="question-circle" xmlns="http://www.w3.org/2000/svg" width="16" height="16" viewBox="0 0 16 16"><path d="M8 15A7 7 0 1 1 8 1a7 7 0 0 1 0 14zm0 1A8 8 0 1 0 8 0a8 8 0 0 0 0 16z"></path><path d="M5.255 5.786a.237.237 0 0 0 .241.247h.825c.138 0 .248-.113.266-.25.09-.656.54-1.134 1.342-1.134.686 0 1.314.343 1.314 1.168 0 .635-.374.927-.965 1.371-.673.489-1.206 1.06-1.168 1.987l.003.217a.25.25 0 0 0 .25.246h.811a.25.25 0 0 0 .25-.25v-.105c0-.718.273-.927 1.01-1.486.609-.463 1.244-.977 1.244-2.056 0-1.511-1.276-2.241-2.673-2.241-1.267 0-2.655.59-2.75 2.286zm1.557 5.763c0 .533.425.927 1.01.927.609 0 1.028-.394 1.028-.927 0-.552-.42-.94-1.029-.94-.584 0-1.009.388-1.009.94z"></path></symbol><symbol id="sun-fill" xmlns="http://www.w3.org/2000/svg" width="16" height="16" viewBox="0 0 16 16"><path d="M8 12a4 4 0 1 0 0-8 4 4 0 0 0 0 8zM8 0a.5.5 0 0 1 .5.5v2a.5.5 0 0 1-1 0v-2A.5.5 0 0 1 8 0zm0 13a.5.5 0 0 1 .5.5v2a.5.5 0 0 1-1 0v-2A.5.5 0 0 1 8 13zm8-5a.5.5 0 0 1-.5.5h-2a.5.5 0 0 1 0-1h2a.5.5 0 0 1 .5.5zM3 8a.5.5 0 0 1-.5.5h-2a.5.5 0 0 1 0-1h2A.5.5 0 0 1 3 8zm10.657-5.657a.5.5 0 0 1 0 .707l-1.414 1.415a.5.5 0 1 1-.707-.708l1.414-1.414a.5.5 0 0 1 .707 0zm-9.193 9.193a.5.5 0 0 1 0 .707L3.05 13.657a.5.5 0 0 1-.707-.707l1.414-1.414a.5.5 0 0 1 .707 0zm9.193 2.121a.5.5 0 0 1-.707 0l-1.414-1.414a.5.5 0 0 1 .707-.707l1.414 1.414a.5.5 0 0 1 0 .707zM4.464 4.465a.5.5 0 0 1-.707 0L2.343 3.05a.5.5 0 1 1 .707-.707l1.414 1.414a.5.5 0 0 1 0 .708z"></path></symbol><symbol id="plus" xmlns="http://www.w3.org/2000/svg" width="16" height="16" viewBox="0 0 16 16"><path d="M8 4a.5.5 0 0 1 .5.5v3h3a.5.5 0 0 1 0 1h-3v3a.5.5 0 0 1-1 0v-3h-3a.5.5 0 0 1 0-1h3v-3A.5.5 0 0 1 8 4z"></path></symbol><symbol id="search" width="1em" height="1em" viewBox="0 0 16 16" xmlns="http://www.w3.org/2000/svg"><path fill-rule="evenodd" d="M10.442 10.442a1 1 0 0 1 1.415 0l3.85 3.85a1 1 0 0 1-1.414 1.415l-3.85-3.85a1 1 0 0 1 0-1.415z"></path><path fill-rule="evenodd" d="M6.5 12a5.5 5.5 0 1 0 0-11 5.5 5.5 0 0 0 0 11zM13 6.5a6.5 6.5 0 1 1-13 0 6.5 6.5 0 0 1 13 0z"></path></symbol><symbol id="text-left" xmlns="http://www.w3.org/2000/svg" width="16" height="16" viewBox="0 0 16 16"><path fill-rule="evenodd" d="M2 12.5a.5.5 0 0 1 .5-.5h7a.5.5 0 0 1 0 1h-7a.5.5 0 0 1-.5-.5zm0-3a.5.5 0 0 1 .5-.5h11a.5.5 0 0 1 0 1h-11a.5.5 0 0 1-.5-.5zm0-3a.5.5 0 0 1 .5-.5h7a.5.5 0 0 1 0 1h-7a.5.5 0 0 1-.5-.5zm0-3a.5.5 0 0 1 .5-.5h11a.5.5 0 0 1 0 1h-11a.5.5 0 0 1-.5-.5z"></path></symbol><symbol id="three-dots-vertical" width="1em" height="1em" viewBox="0 0 16 16" xmlns="http://www.w3.org/2000/svg"><path fill-rule="evenodd" d="M9.5 13a1.5 1.5 0 1 1-3 0 1.5 1.5 0 0 1 3 0zm0-5a1.5 1.5 0 1 1-3 0 1.5 1.5 0 0 1 3 0zm0-5a1.5 1.5 0 1 1-3 0 1.5 1.5 0 0 1 3 0z"></path></symbol><symbol id="sun" xmlns="http://www.w3.org/2000/svg" width="16" height="16" viewBox="0 0 16 16"><path d="M8 11a3 3 0 1 1 0-6 3 3 0 0 1 0 6zm0 1a4 4 0 1 0 0-8 4 4 0 0 0 0 8zM8 0a.5.5 0 0 1 .5.5v2a.5.5 0 0 1-1 0v-2A.5.5 0 0 1 8 0zm0 13a.5.5 0 0 1 .5.5v2a.5.5 0 0 1-1 0v-2A.5.5 0 0 1 8 13zm8-5a.5.5 0 0 1-.5.5h-2a.5.5 0 0 1 0-1h2a.5.5 0 0 1 .5.5zM3 8a.5.5 0 0 1-.5.5h-2a.5.5 0 0 1 0-1h2A.5.5 0 0 1 3 8zm10.657-5.657a.5.5 0 0 1 0 .707l-1.414 1.415a.5.5 0 1 1-.707-.708l1.414-1.414a.5.5 0 0 1 .707 0zm-9.193 9.193a.5.5 0 0 1 0 .707L3.05 13.657a.5.5 0 0 1-.707-.707l1.414-1.414a.5.5 0 0 1 .707 0zm9.193 2.121a.5.5 0 0 1-.707 0l-1.414-1.414a.5.5 0 0 1 .707-.707l1.414 1.414a.5.5 0 0 1 0 .707zM4.464 4.465a.5.5 0 0 1-.707 0L2.343 3.05a.5.5 0 1 1 .707-.707l1.414 1.414a.5.5 0 0 1 0 .708z"></path></symbol><symbol id="type-bold" width="1em" height="1em" viewBox="0 0 16 16" xmlns="http://www.w3.org/2000/svg"><path d="M8.21 13c2.106 0 3.412-1.087 3.412-2.823 0-1.306-.984-2.283-2.324-2.386v-.055a2.176 2.176 0 0 0 1.852-2.14c0-1.51-1.162-2.46-3.014-2.46H3.843V13H8.21zM5.908 4.674h1.696c.963 0 1.517.451 1.517 1.244 0 .834-.629 1.32-1.73 1.32H5.908V4.673zm0 6.788V8.598h1.73c1.217 0 1.88.492 1.88 1.415 0 .943-.643 1.449-1.832 1.449H5.907z"></path></symbol><symbol id="type-h3" width="1em" height="1em" viewBox="0 0 16 16" xmlns="http://www.w3.org/2000/svg"><path d="M7.637 13V3.669H6.379V7.62H1.758V3.67H.5V13h1.258V8.728h4.62V13h1.259zm3.625-4.272h1.018c1.142 0 1.935.67 1.949 1.674.013 1.005-.78 1.737-2.01 1.73-1.08-.007-1.853-.588-1.935-1.32H9.108c.069 1.327 1.224 2.386 3.083 2.386 1.935 0 3.343-1.155 3.309-2.789-.027-1.51-1.251-2.16-2.037-2.249v-.068c.704-.123 1.764-.91 1.723-2.229-.035-1.353-1.176-2.4-2.954-2.385-1.873.006-2.857 1.162-2.898 2.358h1.196c.062-.69.711-1.299 1.696-1.299.998 0 1.695.622 1.695 1.525.007.922-.718 1.592-1.695 1.592h-.964v1.074z"></path></symbol><symbol id="type-h1" width="1em" height="1em" viewBox="0 0 16 16" xmlns="http://www.w3.org/2000/svg"><path d="M8.637 13V3.669H7.379V7.62H2.758V3.67H1.5V13h1.258V8.728h4.62V13h1.259zm5.329 0V3.669h-1.244L10.5 5.316v1.265l2.16-1.565h.062V13h1.244z"></path></symbol><symbol id="type-strikethrough" width="1em" height="1em" viewBox="0 0 16 16" xmlns="http://www.w3.org/2000/svg"><path d="M8.527 13.164c-2.153 0-3.589-1.107-3.705-2.81h1.23c.144 1.06 1.129 1.703 2.544 1.703 1.34 0 2.31-.705 2.31-1.675 0-.827-.547-1.374-1.914-1.675L8.046 8.5h3.45c.468.437.675.994.675 1.697 0 1.826-1.436 2.967-3.644 2.967zM6.602 6.5H5.167a2.776 2.776 0 0 1-.099-.76c0-1.627 1.436-2.768 3.48-2.768 1.969 0 3.39 1.175 3.445 2.85h-1.23c-.11-1.08-.964-1.743-2.25-1.743-1.23 0-2.18.602-2.18 1.607 0 .31.083.581.27.814z"></path><path fill-rule="evenodd" d="M15 8.5H1v-1h14v1z"></path></symbol><symbol id="type-h2" width="1em" height="1em" viewBox="0 0 16 16" xmlns="http://www.w3.org/2000/svg"><path d="M7.638 13V3.669H6.38V7.62H1.759V3.67H.5V13h1.258V8.728h4.62V13h1.259zm3.022-6.733v-.048c0-.889.63-1.668 1.716-1.668.957 0 1.675.608 1.675 1.572 0 .855-.554 1.504-1.067 2.085l-3.513 3.999V13H15.5v-1.094h-4.245v-.075l2.481-2.844c.875-.998 1.586-1.784 1.586-2.953 0-1.463-1.155-2.556-2.919-2.556-1.941 0-2.966 1.326-2.966 2.74v.049h1.223z"></path></symbol><symbol id="x-lg" xmlns="http://www.w3.org/2000/svg" width="16" height="16" viewBox="0 0 16 16"><path d="M1.293 1.293a1 1 0 0 1 1.414 0L8 6.586l5.293-5.293a1 1 0 1 1 1.414 1.414L9.414 8l5.293 5.293a1 1 0 0 1-1.414 1.414L8 9.414l-5.293 5.293a1 1 0 0 1-1.414-1.414L6.586 8 1.293 2.707a1 1 0 0 1 0-1.414z"></path></symbol><symbol id="youtube" xmlns="http://www.w3.org/2000/svg" width="16" height="16" viewBox="0 0 16 16"><path d="M8.051 1.999h.089c.822.003 4.987.033 6.11.335a2.01 2.01 0 0 1 1.415 1.42c.101.38.172.883.22 1.402l.01.104.022.26.008.104c.065.914.073 1.77.074 1.957v.075c-.001.194-.01 1.108-.082 2.06l-.008.105-.009.104c-.05.572-.124 1.14-.235 1.558a2.007 2.007 0 0 1-1.415 1.42c-1.16.312-5.569.334-6.18.335h-.142c-.309 0-1.587-.006-2.927-.052l-.17-.006-.087-.004-.171-.007-.171-.007c-1.11-.049-2.167-.128-2.654-.26a2.007 2.007 0 0 1-1.415-1.419c-.111-.417-.185-.986-.235-1.558L.09 9.82l-.008-.104A31.4 31.4 0 0 1 0 7.68v-.122C.002 7.343.01 6.6.064 5.78l.007-.103.003-.052.008-.104.022-.26.01-.104c.048-.519.119-1.023.22-1.402a2.007 2.007 0 0 1 1.415-1.42c.487-.13 1.544-.21 2.654-.26l.17-.007.172-.006.086-.003.171-.007A99.788 99.788 0 0 1 7.858 2h.193zM6.4 5.209v4.818l4.157-2.408L6.4 5.209z"></path></symbol><symbol id="window" xmlns="http://www.w3.org/2000/svg" width="16" height="16" viewBox="0 0 16 16"><path d="M2.5 4a.5.5 0 1 0 0-1 .5.5 0 0 0 0 1zm2-.5a.5.5 0 1 1-1 0 .5.5 0 0 1 1 0zm1 .5a.5.5 0 1 0 0-1 .5.5 0 0 0 0 1z"></path><path d="M2 1a2 2 0 0 0-2 2v10a2 2 0 0 0 2 2h12a2 2 0 0 0 2-2V3a2 2 0 0 0-2-2H2zm13 2v2H1V3a1 1 0 0 1 1-1h12a1 1 0 0 1 1 1zM2 14a1 1 0 0 1-1-1V6h14v7a1 1 0 0 1-1 1H2z"></path></symbol><symbol id="x" xmlns="http://www.w3.org/2000/svg" width="16" height="16" viewBox="0 0 16 16"><path d="M4.646 4.646a.5.5 0 0 1 .708 0L8 7.293l2.646-2.647a.5.5 0 0 1 .708.708L8.707 8l2.647 2.646a.5.5 0 0 1-.708.708L8 8.707l-2.646 2.647a.5.5 0 0 1-.708-.708L7.293 8 4.646 5.354a.5.5 0 0 1 0-.708z"></path></symbol></svg>