<svg width="0" height="0" position="absolute"><symbol id="algolia" width="2196.2" height="500" xmlns="http://www.w3.org/2000/svg" viewBox="0 0 2196.2 500"><path fill="currentColor" fill-rule="evenodd" d="M1070.38,275.3V5.91c0-3.63-3.24-6.39-6.82-5.83l-50.46,7.94c-2.87,.45-4.99,2.93-4.99,5.84l.17,273.22c0,12.92,0,92.7,95.97,95.49,3.33,.1,6.09-2.58,6.09-5.91v-40.78c0-2.96-2.19-5.51-5.12-5.84-34.85-4.01-34.85-47.57-34.85-54.72Z"></path><rect fill="currentColor" x="1845.88" y="104.73" width="62.58" height="277.9" rx="5.9" ry="5.9"></rect><path fill="currentColor" fill-rule="evenodd" d="M1851.78,71.38h50.77c3.26,0,5.9-2.64,5.9-5.9V5.9c0-3.62-3.24-6.39-6.82-5.83l-50.77,7.95c-2.87,.45-4.99,2.92-4.99,5.83v51.62c0,3.26,2.64,5.9,5.9,5.9Z"></path><path fill="currentColor" fill-rule="evenodd" d="M1764.03,275.3V5.91c0-3.63-3.24-6.39-6.82-5.83l-50.46,7.94c-2.87,.45-4.99,2.93-4.99,5.84l.17,273.22c0,12.92,0,92.7,95.97,95.49,3.33,.1,6.09-2.58,6.09-5.91v-40.78c0-2.96-2.19-5.51-5.12-5.84-34.85-4.01-34.85-47.57-34.85-54.72Z"></path><path fill="currentColor" fill-rule="evenodd" d="M1631.95,142.72c-11.14-12.25-24.83-21.65-40.78-28.31-15.92-6.53-33.26-9.85-52.07-9.85-18.78,0-36.15,3.17-51.92,9.85-15.59,6.66-29.29,16.05-40.76,28.31-11.47,12.23-20.38,26.87-26.76,44.03-6.38,17.17-9.24,37.37-9.24,58.36,0,20.99,3.19,36.87,9.55,54.21,6.38,17.32,15.14,32.11,26.45,44.36,11.29,12.23,24.83,21.62,40.6,28.46,15.77,6.83,40.12,10.33,52.4,10.48,12.25,0,36.78-3.82,52.7-10.48,15.92-6.68,29.46-16.23,40.78-28.46,11.29-12.25,20.05-27.04,26.25-44.36,6.22-17.34,9.24-33.22,9.24-54.21,0-20.99-3.34-41.19-10.03-58.36-6.38-17.17-15.14-31.8-26.43-44.03Zm-44.43,163.75c-11.47,15.75-27.56,23.7-48.09,23.7-20.55,0-36.63-7.8-48.1-23.7-11.47-15.75-17.21-34.01-17.21-61.2,0-26.89,5.59-49.14,17.06-64.87,11.45-15.75,27.54-23.52,48.07-23.52,20.55,0,36.63,7.78,48.09,23.52,11.47,15.57,17.36,37.98,17.36,64.87,0,27.19-5.72,45.3-17.19,61.2Z"></path><path fill="currentColor" fill-rule="evenodd" d="M894.42,104.73h-49.33c-48.36,0-90.91,25.48-115.75,64.1-14.52,22.58-22.99,49.63-22.99,78.73,0,44.89,20.13,84.92,51.59,111.1,2.93,2.6,6.05,4.98,9.31,7.14,12.86,8.49,28.11,13.47,44.52,13.47,1.23,0,2.46-.03,3.68-.09,.36-.02,.71-.05,1.07-.07,.87-.05,1.75-.11,2.62-.2,.34-.03,.68-.08,1.02-.12,.91-.1,1.82-.21,2.73-.34,.21-.03,.42-.07,.63-.1,32.89-5.07,61.56-30.82,70.9-62.81v57.83c0,3.26,2.64,5.9,5.9,5.9h50.42c3.26,0,5.9-2.64,5.9-5.9V110.63c0-3.26-2.64-5.9-5.9-5.9h-56.32Zm0,206.92c-12.2,10.16-27.97,13.98-44.84,15.12-.16,.01-.33,.03-.49,.04-1.12,.07-2.24,.1-3.36,.1-42.24,0-77.12-35.89-77.12-79.37,0-10.25,1.96-20.01,5.42-28.98,11.22-29.12,38.77-49.74,71.06-49.74h49.33v142.83Z"></path><path fill="currentColor" fill-rule="evenodd" d="M2133.97,104.73h-49.33c-48.36,0-90.91,25.48-115.75,64.1-14.52,22.58-22.99,49.63-22.99,78.73,0,44.89,20.13,84.92,51.59,111.1,2.93,2.6,6.05,4.98,9.31,7.14,12.86,8.49,28.11,13.47,44.52,13.47,1.23,0,2.46-.03,3.68-.09,.36-.02,.71-.05,1.07-.07,.87-.05,1.75-.11,2.62-.2,.34-.03,.68-.08,1.02-.12,.91-.1,1.82-.21,2.73-.34,.21-.03,.42-.07,.63-.1,32.89-5.07,61.56-30.82,70.9-62.81v57.83c0,3.26,2.64,5.9,5.9,5.9h50.42c3.26,0,5.9-2.64,5.9-5.9V110.63c0-3.26-2.64-5.9-5.9-5.9h-56.32Zm0,206.92c-12.2,10.16-27.97,13.98-44.84,15.12-.16,.01-.33,.03-.49,.04-1.12,.07-2.24,.1-3.36,.1-42.24,0-77.12-35.89-77.12-79.37,0-10.25,1.96-20.01,5.42-28.98,11.22-29.12,38.77-49.74,71.06-49.74h49.33v142.83Z"></path><path fill="currentColor" fill-rule="evenodd" d="M1314.05,104.73h-49.33c-48.36,0-90.91,25.48-115.75,64.1-11.79,18.34-19.6,39.64-22.11,62.59-.58,5.3-.88,10.68-.88,16.14s.31,11.15,.93,16.59c4.28,38.09,23.14,71.61,50.66,94.52,2.93,2.6,6.05,4.98,9.31,7.14,12.86,8.49,28.11,13.47,44.52,13.47h0c17.99,0,34.61-5.93,48.16-15.97,16.29-11.58,28.88-28.54,34.48-47.75v50.26h-.11v11.08c0,21.84-5.71,38.27-17.34,49.36-11.61,11.08-31.04,16.63-58.25,16.63-11.12,0-28.79-.59-46.6-2.41-2.83-.29-5.46,1.5-6.27,4.22l-12.78,43.11c-1.02,3.46,1.27,7.02,4.83,7.53,21.52,3.08,42.52,4.68,54.65,4.68,48.91,0,85.16-10.75,108.89-32.21,21.48-19.41,33.15-48.89,35.2-88.52V110.63c0-3.26-2.64-5.9-5.9-5.9h-56.32Zm0,64.1s.65,139.13,0,143.36c-12.08,9.77-27.11,13.59-43.49,14.7-.16,.01-.33,.03-.49,.04-1.12,.07-2.24,.1-3.36,.1-1.32,0-2.63-.03-3.94-.1-40.41-2.11-74.52-37.26-74.52-79.38,0-10.25,1.96-20.01,5.42-28.98,11.22-29.12,38.77-49.74,71.06-49.74h49.33Z"></path><path fill="currentColor" d="M249.83,0C113.3,0,2,110.09,.03,246.16c-2,138.19,110.12,252.7,248.33,253.5,42.68,.25,83.79-10.19,120.3-30.03,3.56-1.93,4.11-6.83,1.08-9.51l-23.38-20.72c-4.75-4.21-11.51-5.4-17.36-2.92-25.48,10.84-53.17,16.38-81.71,16.03-111.68-1.37-201.91-94.29-200.13-205.96,1.76-110.26,92-199.41,202.67-199.41h202.69V407.41l-115-102.18c-3.72-3.31-9.42-2.66-12.42,1.31-18.46,24.44-48.53,39.64-81.93,37.34-46.33-3.2-83.87-40.5-87.34-86.81-4.15-55.24,39.63-101.52,94-101.52,49.18,0,89.68,37.85,93.91,85.95,.38,4.28,2.31,8.27,5.52,11.12l29.95,26.55c3.4,3.01,8.79,1.17,9.63-3.3,2.16-11.55,2.92-23.58,2.07-35.92-4.82-70.34-61.8-126.93-132.17-131.26-80.68-4.97-148.13,58.14-150.27,137.25-2.09,77.1,61.08,143.56,138.19,145.26,32.19,.71,62.03-9.41,86.14-26.95l150.26,133.2c6.44,5.71,16.61,1.14,16.61-7.47V9.48C499.66,4.25,495.42,0,490.18,0H249.83Z"></path></symbol><symbol id="algolia-mark" xmlns="http://www.w3.org/2000/svg" viewBox="0 0 500 500.34"><path fill="currentColor" d="M250,0C113.38,0,2,110.16,.03,246.32c-2,138.29,110.19,252.87,248.49,253.67,42.71,.25,83.85-10.2,120.38-30.05,3.56-1.93,4.11-6.83,1.08-9.52l-23.39-20.74c-4.75-4.22-11.52-5.41-17.37-2.92-25.5,10.85-53.21,16.39-81.76,16.04-111.75-1.37-202.04-94.35-200.26-206.1,1.76-110.33,92.06-199.55,202.8-199.55h202.83V407.68l-115.08-102.25c-3.72-3.31-9.43-2.66-12.43,1.31-18.47,24.46-48.56,39.67-81.98,37.36-46.36-3.2-83.92-40.52-87.4-86.86-4.15-55.28,39.65-101.58,94.07-101.58,49.21,0,89.74,37.88,93.97,86.01,.38,4.28,2.31,8.28,5.53,11.13l29.97,26.57c3.4,3.01,8.8,1.17,9.63-3.3,2.16-11.55,2.92-23.6,2.07-35.95-4.83-70.39-61.84-127.01-132.26-131.35-80.73-4.98-148.23,58.18-150.37,137.35-2.09,77.15,61.12,143.66,138.28,145.36,32.21,.71,62.07-9.42,86.2-26.97l150.36,133.29c6.45,5.71,16.62,1.14,16.62-7.48V9.49C500,4.25,495.75,0,490.51,0H250Z"></path></symbol><symbol id="google" width="48" height="48" xmlns="http://www.w3.org/2000/svg" viewBox="0 0 48 48"><path fill="#EA4335" d="M24 9.5c3.54 0 6.71 1.22 9.21 3.6l6.85-6.85C35.9 2.38 30.47 0 24 0 14.62 0 6.51 5.38 2.56 13.22l7.98 6.19C12.43 13.72 17.74 9.5 24 9.5z"></path><path fill="#4285F4" d="M46.98 24.55c0-1.57-.15-3.09-.38-4.55H24v9.02h12.94c-.58 2.96-2.26 5.48-4.78 7.18l7.73 6c4.51-4.18 7.09-10.36 7.09-17.65z"></path><path fill="#FBBC05" d="M10.53 28.59c-.48-1.45-.76-2.99-.76-4.59s.27-3.14.76-4.59l-7.98-6.19C.92 16.46 0 20.12 0 24c0 3.88.92 7.54 2.56 10.78l7.97-6.19z"></path><path fill="#34A853" d="M24 48c6.48 0 11.93-2.13 15.89-5.81l-7.73-6c-2.15 1.45-4.92 2.3-8.16 2.3-6.26 0-11.57-4.22-13.47-9.91l-7.98 6.19C6.51 42.62 14.62 48 24 48z"></path></symbol><symbol id="github" width="97.6" height="96" xmlns="http://www.w3.org/2000/svg" viewBox="0 0 97.6 96"><path fill="currentColor" d="M48.9,0C21.8,0,0,22,0,49.2C0,71,14,89.4,33.4,95.9c2.4,0.5,3.3-1.1,3.3-2.4c0-1.1-0.1-5.1-0.1-9.1c-13.6,2.9-16.4-5.9-16.4-5.9c-2.2-5.7-5.4-7.2-5.4-7.2c-4.4-3,0.3-3,0.3-3c4.9,0.3,7.5,5.1,7.5,5.1c4.4,7.5,11.4,5.4,14.2,4.1c0.4-3.2,1.7-5.4,3.1-6.6c-10.8-1.1-22.2-5.4-22.2-24.3c0-5.4,1.9-9.8,5-13.2c-0.5-1.2-2.2-6.3,0.5-13c0,0,4.1-1.3,13.4,5.1c3.9-1.1,8.1-1.6,12.2-1.6s8.3,0.6,12.2,1.6c9.3-6.4,13.4-5.1,13.4-5.1c2.7,6.8,1,11.8,0.5,13c3.2,3.4,5,7.8,5,13.2c0,18.9-11.4,23.1-22.3,24.3c1.8,1.5,3.3,4.5,3.3,9.1c0,6.6-0.1,11.9-0.1,13.5c0,1.3,0.9,2.9,3.3,2.4C83.6,89.4,97.6,71,97.6,49.2C97.7,22,75.8,0,48.9,0z"></path></symbol><symbol id="facebook" width="256" height="256" xmlns="http://www.w3.org/2000/svg" viewBox="0 0 256 256"><path d="M256,128 C256,57.3075 198.6925,0 128,0 C57.3075,0 0,57.3075 0,128 C0,191.8885 46.80775,244.8425 108,254.445 L108,165 L75.5,165 L75.5,128 L108,128 L108,99.8 C108,67.72 127.1095,50 156.3475,50 C170.35175,50 185,52.5 185,52.5 L185,84 L168.8595,84 C152.95875,84 148,93.86675 148,103.98925 L148,128 L183.5,128 L177.825,165 L148,165 L148,254.445 C209.19225,244.8425 256,191.8885 256,128" fill="currentColor"></path><path d="M177.825,165 L183.5,128 L148,128 L148,103.98925 C148,93.86675 152.95875,84 168.8595,84 L185,84 L185,52.5 C185,52.5 170.35175,50 156.3475,50 C127.1095,50 108,67.72 108,99.8 L108,128 L75.5,128 L75.5,165 L108,165 L108,254.445 C114.51675,255.4675 121.196,256 128,256 C134.804,256 141.48325,255.4675 148,254.445 L148,165 L177.825,165" fill="none"></path></symbol><symbol id="linkedin" width="256" height="256" xmlns="http://www.w3.org/2000/svg" viewBox="0 0 256 256"><path d="M218.123122,218.127392 L180.191928,218.127392 L180.191928,158.724263 C180.191928,144.559023 179.939053,126.323993 160.463756,126.323993 C140.707926,126.323993 137.685284,141.757585 137.685284,157.692986 L137.685284,218.123441 L99.7540894,218.123441 L99.7540894,95.9665207 L136.168036,95.9665207 L136.168036,112.660562 L136.677736,112.660562 C144.102746,99.9650027 157.908637,92.3824528 172.605689,92.9280076 C211.050535,92.9280076 218.138927,118.216023 218.138927,151.114151 L218.123122,218.127392 Z M56.9550587,79.2685282 C44.7981969,79.2707099 34.9413443,69.4171797 34.9391618,57.260052 C34.93698,45.1029244 44.7902948,35.2458562 56.9471566,35.2436736 C69.1040185,35.2414916 78.9608713,45.0950217 78.963054,57.2521493 C78.9641017,63.090208 76.6459976,68.6895714 72.5186979,72.8184433 C68.3913982,76.9473153 62.7929898,79.26748 56.9550587,79.2685282 M75.9206558,218.127392 L37.94995,218.127392 L37.94995,95.9665207 L75.9206558,95.9665207 L75.9206558,218.127392 Z M237.033403,0.0182577091 L18.8895249,0.0182577091 C8.57959469,-0.0980923971 0.124827038,8.16056231 -0.001,18.4706066 L-0.001,237.524091 C0.120519052,247.839103 8.57460631,256.105934 18.8895249,255.9977 L237.033403,255.9977 C247.368728,256.125818 255.855922,247.859464 255.999,237.524091 L255.999,18.4548016 C255.851624,8.12438979 247.363742,-0.133792868 237.033403,0.000790807055" fill="currentColor"></path></symbol><symbol id="pinterest" width="256" height="256" viewBox="0 0 256 256" xmlns="http://www.w3.org/2000/svg"><path d="M0,128.002 C0,180.416 31.518,225.444 76.619,245.241 C76.259,236.303 76.555,225.573 78.847,215.848 C81.308,205.457 95.317,146.1 95.317,146.1 C95.317,146.1 91.228,137.927 91.228,125.848 C91.228,106.879 102.222,92.712 115.914,92.712 C127.557,92.712 133.182,101.457 133.182,111.929 C133.182,123.633 125.717,141.14 121.878,157.355 C118.671,170.933 128.686,182.008 142.081,182.008 C166.333,182.008 182.667,150.859 182.667,113.953 C182.667,85.899 163.772,64.901 129.405,64.901 C90.577,64.901 66.388,93.857 66.388,126.201 C66.388,137.353 69.676,145.217 74.826,151.307 C77.194,154.104 77.523,155.229 76.666,158.441 C76.052,160.796 74.642,166.466 74.058,168.713 C73.206,171.955 70.579,173.114 67.649,171.917 C49.765,164.616 41.436,145.031 41.436,123.015 C41.436,86.654 72.102,43.054 132.918,43.054 C181.788,43.054 213.953,78.418 213.953,116.379 C213.953,166.592 186.037,204.105 144.887,204.105 C131.068,204.105 118.069,196.635 113.616,188.15 C113.616,188.15 106.185,217.642 104.611,223.337 C101.897,233.206 96.585,243.07 91.728,250.758 C103.24,254.156 115.401,256.007 128.005,256.007 C198.689,256.007 256.001,198.698 256.001,128.002 C256.001,57.309 198.689,0 128.005,0 C57.314,0 0,57.309 0,128.002 Z" fill="currentColor"></path></symbol><symbol id="takabase" width="256" height="256" xmlns="http://www.w3.org/2000/svg" viewBox="0 0 256 256"><rect width="256" height="256" rx="32" fill="#FFC61A"></rect><path d="M158.58 91.1262V105.304H136.301V165H119.671V105.304H97.3921V91.1262H158.58Z" fill="black"></path></symbol><symbol id="prism" xmlns="http://www.w3.org/2000/svg" fill="currentColor" viewBox="0 0 200 170"><path d="M55.37 131.5H48.4v9.13h6.97c1.67 0 2.92-.4 3.78-1.22.85  -.8 1.28-1.92 1.28-3.33s-.43-2.54-1.28-3.35c-.86-.8-2.12-1.2-3.78-1.2m29.52  6.4c.3-.53.47-1.2.47-2.04 0-1.35-.45-2.4-1.37-3.2-.92-.76-2.14-1.15-3.65  -1.15H72.9v8.52h7.32c2.26 0 3.82-.7 4.67-2.1M100 0L0 170h200L100 0M60.86  141.03c-1.3 1.22-3.1 1.84-5.33 1.84H48.4v7.55H46v-21.2h9.53c2.24 0 4.02.63  5.34 1.87 1.3 1.23 1.96 2.88 1.96 4.95 0 2.1-.66 3.75-1.97 4.98m24.5 9.4l  -5.1-8.14h-7.37v8.12h-2.4v-21.2h10.14c2.15 0 3.88.6 5.18 1.8 1.3 1.18 1.95  2.8 1.95 4.84 0 2.64-1.1 4.44-3.3 5.4-.6.28-1.22.5-1.82.6l5.57 8.56h-2.85m  13.43 0h-2.4v-21.2h2.4v21.2m23.56-1.32c-1.48 1.05-3.53 1.57-6.16 1.57-2.96 0  -5.23-.6-6.78-1.85-1.4-1.1-2.18-2.7-2.37-4.74h2.5c.08 1.45.78 2.56 2.1 3.33  1.16.67 2.68 1 4.58 1 3.97 0 5.95-1.25 5.95-3.74 0-.86-.35-1.53-1.07-2.02-.7  -.5-1.6-.9-2.68-1.2-1.07-.33-2.24-.63-3.48-.9s-2.4-.65-3.5-1.08-1.97-1.02  -2.68-1.73c-.7-.72-1.07-1.68-1.07-2.9 0-1.73.65-3.13 1.97-4.22 1.32-1.08  3.32-1.62 6-1.62 2.67 0 4.75.6 6.23 1.85 1.34 1.1 2.05 2.5 2.14 4.2h-2.46c  -.22-1.76-1.35-2.92-3.4-3.5-.72-.2-1.62-.3-2.7-.3s-1.98.1-2.72.35c-.74.25  -1.3.55-1.7.9-.42.35-.7.74-.83 1.17s-.2.88-.2 1.36c0 .5.2.93.62 1.33s.96.75  1.65 1.03c.68.28 1.46.52 2.33.73.88.2 1.77.43 2.67.65.9.22 1.8.48 2.68.77.87  .3 1.65.65 2.33 1.1 1.53.96 2.28 2.27 2.28 3.94 0 2-.74 3.5-2.22 4.55m28.84  1.32v-17.54l-7.84 10.08-7.97-10.08v17.54H133v-21.2h2.78l7.58 10.06 7.45  -10.05h2.8v21.2h-2.4"></path></symbol><symbol id="twitter-x" width="1200" height="1227" xmlns="http://www.w3.org/2000/svg" viewBox="0 0 1200 1227"><path fill="currentColor" d="M714.163 519.284L1160.89 0H1055.03L667.137 450.887L357.328 0H0L468.492 681.821L0 1226.37H105.866L515.491 750.218L842.672 1226.37H1200L714.137 519.284H714.163ZM569.165 687.828L521.697 619.934L144.011 79.6944H306.615L611.412 515.685L658.88 583.579L1055.08 1150.3H892.476L569.165 687.854V687.828Z"></path></symbol><symbol id="mermaid" width="100%" height="100%" viewBox="0 0 491 491" version="1.1" xmlns="http://www.w3.org/2000/svg" xmlns:xlink="http://www.w3.org/1999/xlink" xml:space="preserve" xmlns:serif="http://www.serif.com/" style="fill-rule:evenodd;clip-rule:evenodd;stroke-linejoin:round;stroke-miterlimit:2;"><path d="M490.16,84.61C490.16,37.912 452.248,0 405.55,0L84.61,0C37.912,0 0,37.912 0,84.61L0,405.55C0,452.248 37.912,490.16 84.61,490.16L405.55,490.16C452.248,490.16 490.16,452.248 490.16,405.55L490.16,84.61Z" style="fill:rgb(255,54,112);"></path><path d="M407.48,111.18C335.587,108.103 269.573,152.338 245.08,220C220.587,152.338 154.573,108.103 82.68,111.18C80.285,168.229 107.577,222.632 154.74,254.82C178.908,271.419 193.35,298.951 193.27,328.27L193.27,379.13L296.9,379.13L296.9,328.27C296.816,298.953 311.255,271.42 335.42,254.82C382.596,222.644 409.892,168.233 407.48,111.18Z" style="fill:white;fill-rule:nonzero;"></path></symbol></svg>