<svg
   width="16"
   height="16"
   fill="currentColor"
   class="bi bi-square"
   viewBox="0 0 16 16"
   version="1.1"
   xmlns="http://www.w3.org/2000/svg"
   xmlns:svg="http://www.w3.org/2000/svg">
  <path d="m 13.557211,1.5165877 c 0.511527,0 0.926201,0.4146747 0.926201,0.9262018 V 13.557211 c 0,0.511527 -0.414674,0.926201 -0.926201,0.926201 H 2.4427895 c -0.5115271,0 -0.9262018,-0.414674 -0.9262018,-0.926201 V 2.4427895 c 0,-0.5115271 0.4146747,-0.9262018 0.9262018,-0.9262018 z M 2,0 C 0.8954305,0 0,0.8954305 0,2 v 12 c 0,1.104569 0.8954305,2 2,2 h 12 c 1.104569,0 2,-0.895431 2,-2 V 2 C 16,0.8954305 15.104569,0 14,0 Z"/>
</svg>
